G04 #@! TF.GenerationSoftware,KiCad,Pcbnew,(5.1.5)-3*
G04 #@! TF.CreationDate,2020-07-03T21:37:29-07:00*
G04 #@! TF.ProjectId,Arduino_control_board,41726475-696e-46f5-9f63-6f6e74726f6c,rev?*
G04 #@! TF.SameCoordinates,Original*
G04 #@! TF.FileFunction,Soldermask,Top*
G04 #@! TF.FilePolarity,Negative*
%FSLAX46Y46*%
G04 Gerber Fmt 4.6, Leading zero omitted, Abs format (unit mm)*
G04 Created by KiCad (PCBNEW (5.1.5)-3) date 2020-07-03 21:37:29*
%MOMM*%
%LPD*%
G04 APERTURE LIST*
%ADD10C,0.100000*%
G04 APERTURE END LIST*
D10*
G36*
X149734795Y-103145156D02*
G01*
X149841150Y-103166311D01*
X149941334Y-103207809D01*
X150041520Y-103249307D01*
X150221844Y-103369795D01*
X150375205Y-103523156D01*
X150495693Y-103703480D01*
X150578689Y-103903851D01*
X150621000Y-104116560D01*
X150621000Y-104333440D01*
X150578689Y-104546149D01*
X150495693Y-104746520D01*
X150375205Y-104926844D01*
X150221844Y-105080205D01*
X150041520Y-105200693D01*
X149841150Y-105283689D01*
X149734794Y-105304845D01*
X149628440Y-105326000D01*
X149411560Y-105326000D01*
X149305206Y-105304845D01*
X149198850Y-105283689D01*
X148998480Y-105200693D01*
X148818156Y-105080205D01*
X148664795Y-104926844D01*
X148544307Y-104746520D01*
X148461311Y-104546149D01*
X148419000Y-104333440D01*
X148419000Y-104116560D01*
X148461311Y-103903851D01*
X148544307Y-103703480D01*
X148664795Y-103523156D01*
X148818156Y-103369795D01*
X148998480Y-103249307D01*
X149098666Y-103207809D01*
X149198850Y-103166311D01*
X149305205Y-103145156D01*
X149411560Y-103124000D01*
X149628440Y-103124000D01*
X149734795Y-103145156D01*
G37*
G36*
X190374795Y-103145156D02*
G01*
X190481150Y-103166311D01*
X190581334Y-103207809D01*
X190681520Y-103249307D01*
X190861844Y-103369795D01*
X191015205Y-103523156D01*
X191135693Y-103703480D01*
X191218689Y-103903851D01*
X191261000Y-104116560D01*
X191261000Y-104333440D01*
X191218689Y-104546149D01*
X191135693Y-104746520D01*
X191015205Y-104926844D01*
X190861844Y-105080205D01*
X190681520Y-105200693D01*
X190481150Y-105283689D01*
X190374794Y-105304845D01*
X190268440Y-105326000D01*
X190051560Y-105326000D01*
X189945206Y-105304845D01*
X189838850Y-105283689D01*
X189638480Y-105200693D01*
X189458156Y-105080205D01*
X189304795Y-104926844D01*
X189184307Y-104746520D01*
X189101311Y-104546149D01*
X189059000Y-104333440D01*
X189059000Y-104116560D01*
X189101311Y-103903851D01*
X189184307Y-103703480D01*
X189304795Y-103523156D01*
X189458156Y-103369795D01*
X189638480Y-103249307D01*
X189738666Y-103207809D01*
X189838850Y-103166311D01*
X189945205Y-103145156D01*
X190051560Y-103124000D01*
X190268440Y-103124000D01*
X190374795Y-103145156D01*
G37*
G36*
X196341000Y-105326000D02*
G01*
X194139000Y-105326000D01*
X194139000Y-103124000D01*
X196341000Y-103124000D01*
X196341000Y-105326000D01*
G37*
G36*
X185294795Y-103145156D02*
G01*
X185401150Y-103166311D01*
X185501334Y-103207809D01*
X185601520Y-103249307D01*
X185781844Y-103369795D01*
X185935205Y-103523156D01*
X186055693Y-103703480D01*
X186138689Y-103903851D01*
X186181000Y-104116560D01*
X186181000Y-104333440D01*
X186138689Y-104546149D01*
X186055693Y-104746520D01*
X185935205Y-104926844D01*
X185781844Y-105080205D01*
X185601520Y-105200693D01*
X185401150Y-105283689D01*
X185294794Y-105304845D01*
X185188440Y-105326000D01*
X184971560Y-105326000D01*
X184865206Y-105304845D01*
X184758850Y-105283689D01*
X184558480Y-105200693D01*
X184378156Y-105080205D01*
X184224795Y-104926844D01*
X184104307Y-104746520D01*
X184021311Y-104546149D01*
X183979000Y-104333440D01*
X183979000Y-104116560D01*
X184021311Y-103903851D01*
X184104307Y-103703480D01*
X184224795Y-103523156D01*
X184378156Y-103369795D01*
X184558480Y-103249307D01*
X184658666Y-103207809D01*
X184758850Y-103166311D01*
X184865205Y-103145156D01*
X184971560Y-103124000D01*
X185188440Y-103124000D01*
X185294795Y-103145156D01*
G37*
G36*
X180214795Y-103145156D02*
G01*
X180321150Y-103166311D01*
X180421334Y-103207809D01*
X180521520Y-103249307D01*
X180701844Y-103369795D01*
X180855205Y-103523156D01*
X180975693Y-103703480D01*
X181058689Y-103903851D01*
X181101000Y-104116560D01*
X181101000Y-104333440D01*
X181058689Y-104546149D01*
X180975693Y-104746520D01*
X180855205Y-104926844D01*
X180701844Y-105080205D01*
X180521520Y-105200693D01*
X180321150Y-105283689D01*
X180214794Y-105304845D01*
X180108440Y-105326000D01*
X179891560Y-105326000D01*
X179785206Y-105304845D01*
X179678850Y-105283689D01*
X179478480Y-105200693D01*
X179298156Y-105080205D01*
X179144795Y-104926844D01*
X179024307Y-104746520D01*
X178941311Y-104546149D01*
X178899000Y-104333440D01*
X178899000Y-104116560D01*
X178941311Y-103903851D01*
X179024307Y-103703480D01*
X179144795Y-103523156D01*
X179298156Y-103369795D01*
X179478480Y-103249307D01*
X179578666Y-103207809D01*
X179678850Y-103166311D01*
X179785205Y-103145156D01*
X179891560Y-103124000D01*
X180108440Y-103124000D01*
X180214795Y-103145156D01*
G37*
G36*
X175134795Y-103145156D02*
G01*
X175241150Y-103166311D01*
X175341334Y-103207809D01*
X175441520Y-103249307D01*
X175621844Y-103369795D01*
X175775205Y-103523156D01*
X175895693Y-103703480D01*
X175978689Y-103903851D01*
X176021000Y-104116560D01*
X176021000Y-104333440D01*
X175978689Y-104546149D01*
X175895693Y-104746520D01*
X175775205Y-104926844D01*
X175621844Y-105080205D01*
X175441520Y-105200693D01*
X175241150Y-105283689D01*
X175134794Y-105304845D01*
X175028440Y-105326000D01*
X174811560Y-105326000D01*
X174705206Y-105304845D01*
X174598850Y-105283689D01*
X174398480Y-105200693D01*
X174218156Y-105080205D01*
X174064795Y-104926844D01*
X173944307Y-104746520D01*
X173861311Y-104546149D01*
X173819000Y-104333440D01*
X173819000Y-104116560D01*
X173861311Y-103903851D01*
X173944307Y-103703480D01*
X174064795Y-103523156D01*
X174218156Y-103369795D01*
X174398480Y-103249307D01*
X174498666Y-103207809D01*
X174598850Y-103166311D01*
X174705205Y-103145156D01*
X174811560Y-103124000D01*
X175028440Y-103124000D01*
X175134795Y-103145156D01*
G37*
G36*
X164974795Y-103145156D02*
G01*
X165081150Y-103166311D01*
X165181334Y-103207809D01*
X165281520Y-103249307D01*
X165461844Y-103369795D01*
X165615205Y-103523156D01*
X165735693Y-103703480D01*
X165818689Y-103903851D01*
X165861000Y-104116560D01*
X165861000Y-104333440D01*
X165818689Y-104546149D01*
X165735693Y-104746520D01*
X165615205Y-104926844D01*
X165461844Y-105080205D01*
X165281520Y-105200693D01*
X165081150Y-105283689D01*
X164974794Y-105304845D01*
X164868440Y-105326000D01*
X164651560Y-105326000D01*
X164545206Y-105304845D01*
X164438850Y-105283689D01*
X164238480Y-105200693D01*
X164058156Y-105080205D01*
X163904795Y-104926844D01*
X163784307Y-104746520D01*
X163701311Y-104546149D01*
X163659000Y-104333440D01*
X163659000Y-104116560D01*
X163701311Y-103903851D01*
X163784307Y-103703480D01*
X163904795Y-103523156D01*
X164058156Y-103369795D01*
X164238480Y-103249307D01*
X164338666Y-103207809D01*
X164438850Y-103166311D01*
X164545205Y-103145156D01*
X164651560Y-103124000D01*
X164868440Y-103124000D01*
X164974795Y-103145156D01*
G37*
G36*
X170054795Y-103145156D02*
G01*
X170161150Y-103166311D01*
X170261334Y-103207809D01*
X170361520Y-103249307D01*
X170541844Y-103369795D01*
X170695205Y-103523156D01*
X170815693Y-103703480D01*
X170898689Y-103903851D01*
X170941000Y-104116560D01*
X170941000Y-104333440D01*
X170898689Y-104546149D01*
X170815693Y-104746520D01*
X170695205Y-104926844D01*
X170541844Y-105080205D01*
X170361520Y-105200693D01*
X170161150Y-105283689D01*
X170054794Y-105304845D01*
X169948440Y-105326000D01*
X169731560Y-105326000D01*
X169625206Y-105304845D01*
X169518850Y-105283689D01*
X169318480Y-105200693D01*
X169138156Y-105080205D01*
X168984795Y-104926844D01*
X168864307Y-104746520D01*
X168781311Y-104546149D01*
X168739000Y-104333440D01*
X168739000Y-104116560D01*
X168781311Y-103903851D01*
X168864307Y-103703480D01*
X168984795Y-103523156D01*
X169138156Y-103369795D01*
X169318480Y-103249307D01*
X169418666Y-103207809D01*
X169518850Y-103166311D01*
X169625205Y-103145156D01*
X169731560Y-103124000D01*
X169948440Y-103124000D01*
X170054795Y-103145156D01*
G37*
G36*
X154814795Y-103145156D02*
G01*
X154921150Y-103166311D01*
X155021334Y-103207809D01*
X155121520Y-103249307D01*
X155301844Y-103369795D01*
X155455205Y-103523156D01*
X155575693Y-103703480D01*
X155658689Y-103903851D01*
X155701000Y-104116560D01*
X155701000Y-104333440D01*
X155658689Y-104546149D01*
X155575693Y-104746520D01*
X155455205Y-104926844D01*
X155301844Y-105080205D01*
X155121520Y-105200693D01*
X154921150Y-105283689D01*
X154814794Y-105304845D01*
X154708440Y-105326000D01*
X154491560Y-105326000D01*
X154385206Y-105304845D01*
X154278850Y-105283689D01*
X154078480Y-105200693D01*
X153898156Y-105080205D01*
X153744795Y-104926844D01*
X153624307Y-104746520D01*
X153541311Y-104546149D01*
X153499000Y-104333440D01*
X153499000Y-104116560D01*
X153541311Y-103903851D01*
X153624307Y-103703480D01*
X153744795Y-103523156D01*
X153898156Y-103369795D01*
X154078480Y-103249307D01*
X154178666Y-103207809D01*
X154278850Y-103166311D01*
X154385205Y-103145156D01*
X154491560Y-103124000D01*
X154708440Y-103124000D01*
X154814795Y-103145156D01*
G37*
G36*
X159894795Y-103145156D02*
G01*
X160001150Y-103166311D01*
X160101334Y-103207809D01*
X160201520Y-103249307D01*
X160381844Y-103369795D01*
X160535205Y-103523156D01*
X160655693Y-103703480D01*
X160738689Y-103903851D01*
X160781000Y-104116560D01*
X160781000Y-104333440D01*
X160738689Y-104546149D01*
X160655693Y-104746520D01*
X160535205Y-104926844D01*
X160381844Y-105080205D01*
X160201520Y-105200693D01*
X160001150Y-105283689D01*
X159894794Y-105304845D01*
X159788440Y-105326000D01*
X159571560Y-105326000D01*
X159465206Y-105304845D01*
X159358850Y-105283689D01*
X159158480Y-105200693D01*
X158978156Y-105080205D01*
X158824795Y-104926844D01*
X158704307Y-104746520D01*
X158621311Y-104546149D01*
X158579000Y-104333440D01*
X158579000Y-104116560D01*
X158621311Y-103903851D01*
X158704307Y-103703480D01*
X158824795Y-103523156D01*
X158978156Y-103369795D01*
X159158480Y-103249307D01*
X159258666Y-103207809D01*
X159358850Y-103166311D01*
X159465205Y-103145156D01*
X159571560Y-103124000D01*
X159788440Y-103124000D01*
X159894795Y-103145156D01*
G37*
G36*
X135135256Y-101711298D02*
G01*
X135241579Y-101732447D01*
X135542042Y-101856903D01*
X135812451Y-102037585D01*
X136042415Y-102267549D01*
X136223097Y-102537958D01*
X136347553Y-102838421D01*
X136411000Y-103157391D01*
X136411000Y-103482609D01*
X136347553Y-103801579D01*
X136223097Y-104102042D01*
X136042415Y-104372451D01*
X135812451Y-104602415D01*
X135542042Y-104783097D01*
X135241579Y-104907553D01*
X135144596Y-104926844D01*
X134922611Y-104971000D01*
X134597389Y-104971000D01*
X134375404Y-104926844D01*
X134278421Y-104907553D01*
X133977958Y-104783097D01*
X133707549Y-104602415D01*
X133477585Y-104372451D01*
X133296903Y-104102042D01*
X133172447Y-103801579D01*
X133109000Y-103482609D01*
X133109000Y-103157391D01*
X133172447Y-102838421D01*
X133296903Y-102537958D01*
X133477585Y-102267549D01*
X133707549Y-102037585D01*
X133977958Y-101856903D01*
X134278421Y-101732447D01*
X134384744Y-101711298D01*
X134597389Y-101669000D01*
X134922611Y-101669000D01*
X135135256Y-101711298D01*
G37*
G36*
X210375256Y-101711298D02*
G01*
X210481579Y-101732447D01*
X210782042Y-101856903D01*
X211052451Y-102037585D01*
X211282415Y-102267549D01*
X211463097Y-102537958D01*
X211587553Y-102838421D01*
X211651000Y-103157391D01*
X211651000Y-103482609D01*
X211587553Y-103801579D01*
X211463097Y-104102042D01*
X211282415Y-104372451D01*
X211052451Y-104602415D01*
X210782042Y-104783097D01*
X210481579Y-104907553D01*
X210384596Y-104926844D01*
X210162611Y-104971000D01*
X209837389Y-104971000D01*
X209615404Y-104926844D01*
X209518421Y-104907553D01*
X209217958Y-104783097D01*
X208947549Y-104602415D01*
X208717585Y-104372451D01*
X208536903Y-104102042D01*
X208412447Y-103801579D01*
X208349000Y-103482609D01*
X208349000Y-103157391D01*
X208412447Y-102838421D01*
X208536903Y-102537958D01*
X208717585Y-102267549D01*
X208947549Y-102037585D01*
X209217958Y-101856903D01*
X209518421Y-101732447D01*
X209624744Y-101711298D01*
X209837389Y-101669000D01*
X210162611Y-101669000D01*
X210375256Y-101711298D01*
G37*
G36*
X210379487Y-94068996D02*
G01*
X210616253Y-94167068D01*
X210616255Y-94167069D01*
X210829339Y-94309447D01*
X211010553Y-94490661D01*
X211152932Y-94703747D01*
X211251004Y-94940513D01*
X211301000Y-95191861D01*
X211301000Y-95448139D01*
X211251004Y-95699487D01*
X211152932Y-95936253D01*
X211152931Y-95936255D01*
X211010553Y-96149339D01*
X210829339Y-96330553D01*
X210616255Y-96472931D01*
X210616254Y-96472932D01*
X210616253Y-96472932D01*
X210379487Y-96571004D01*
X210128139Y-96621000D01*
X209871861Y-96621000D01*
X209620513Y-96571004D01*
X209383747Y-96472932D01*
X209383746Y-96472932D01*
X209383745Y-96472931D01*
X209170661Y-96330553D01*
X208989447Y-96149339D01*
X208847069Y-95936255D01*
X208847068Y-95936253D01*
X208748996Y-95699487D01*
X208699000Y-95448139D01*
X208699000Y-95191861D01*
X208748996Y-94940513D01*
X208847068Y-94703747D01*
X208989447Y-94490661D01*
X209170661Y-94309447D01*
X209383745Y-94167069D01*
X209383747Y-94167068D01*
X209620513Y-94068996D01*
X209871861Y-94019000D01*
X210128139Y-94019000D01*
X210379487Y-94068996D01*
G37*
G36*
X136061000Y-96621000D02*
G01*
X133459000Y-96621000D01*
X133459000Y-94019000D01*
X136061000Y-94019000D01*
X136061000Y-96621000D01*
G37*
G36*
X135139487Y-88988996D02*
G01*
X135376253Y-89087068D01*
X135376255Y-89087069D01*
X135397104Y-89101000D01*
X135589339Y-89229447D01*
X135770553Y-89410661D01*
X135912932Y-89623747D01*
X136011004Y-89860513D01*
X136061000Y-90111861D01*
X136061000Y-90368139D01*
X136011004Y-90619487D01*
X135912932Y-90856253D01*
X135912931Y-90856255D01*
X135770553Y-91069339D01*
X135589339Y-91250553D01*
X135376255Y-91392931D01*
X135376254Y-91392932D01*
X135376253Y-91392932D01*
X135139487Y-91491004D01*
X134888139Y-91541000D01*
X134631861Y-91541000D01*
X134380513Y-91491004D01*
X134143747Y-91392932D01*
X134143746Y-91392932D01*
X134143745Y-91392931D01*
X133930661Y-91250553D01*
X133749447Y-91069339D01*
X133607069Y-90856255D01*
X133607068Y-90856253D01*
X133508996Y-90619487D01*
X133459000Y-90368139D01*
X133459000Y-90111861D01*
X133508996Y-89860513D01*
X133607068Y-89623747D01*
X133749447Y-89410661D01*
X133930661Y-89229447D01*
X134122896Y-89101000D01*
X134143745Y-89087069D01*
X134143747Y-89087068D01*
X134380513Y-88988996D01*
X134631861Y-88939000D01*
X134888139Y-88939000D01*
X135139487Y-88988996D01*
G37*
G36*
X210379487Y-88988996D02*
G01*
X210616253Y-89087068D01*
X210616255Y-89087069D01*
X210637104Y-89101000D01*
X210829339Y-89229447D01*
X211010553Y-89410661D01*
X211152932Y-89623747D01*
X211251004Y-89860513D01*
X211301000Y-90111861D01*
X211301000Y-90368139D01*
X211251004Y-90619487D01*
X211152932Y-90856253D01*
X211152931Y-90856255D01*
X211010553Y-91069339D01*
X210829339Y-91250553D01*
X210616255Y-91392931D01*
X210616254Y-91392932D01*
X210616253Y-91392932D01*
X210379487Y-91491004D01*
X210128139Y-91541000D01*
X209871861Y-91541000D01*
X209620513Y-91491004D01*
X209383747Y-91392932D01*
X209383746Y-91392932D01*
X209383745Y-91392931D01*
X209170661Y-91250553D01*
X208989447Y-91069339D01*
X208847069Y-90856255D01*
X208847068Y-90856253D01*
X208748996Y-90619487D01*
X208699000Y-90368139D01*
X208699000Y-90111861D01*
X208748996Y-89860513D01*
X208847068Y-89623747D01*
X208989447Y-89410661D01*
X209170661Y-89229447D01*
X209362896Y-89101000D01*
X209383745Y-89087069D01*
X209383747Y-89087068D01*
X209620513Y-88988996D01*
X209871861Y-88939000D01*
X210128139Y-88939000D01*
X210379487Y-88988996D01*
G37*
G36*
X151094160Y-91501000D02*
G01*
X150192160Y-91501000D01*
X150192160Y-90149000D01*
X151094160Y-90149000D01*
X151094160Y-91501000D01*
G37*
G36*
X149294160Y-91501000D02*
G01*
X148392160Y-91501000D01*
X148392160Y-90149000D01*
X149294160Y-90149000D01*
X149294160Y-91501000D01*
G37*
G36*
X149294160Y-89851000D02*
G01*
X148392160Y-89851000D01*
X148392160Y-88499000D01*
X149294160Y-88499000D01*
X149294160Y-89851000D01*
G37*
G36*
X151094160Y-89851000D02*
G01*
X150192160Y-89851000D01*
X150192160Y-88499000D01*
X151094160Y-88499000D01*
X151094160Y-89851000D01*
G37*
G36*
X210379487Y-83908996D02*
G01*
X210616253Y-84007068D01*
X210616255Y-84007069D01*
X210828670Y-84149000D01*
X210829339Y-84149447D01*
X211010553Y-84330661D01*
X211152932Y-84543747D01*
X211251004Y-84780513D01*
X211301000Y-85031861D01*
X211301000Y-85288139D01*
X211251004Y-85539487D01*
X211152932Y-85776253D01*
X211152931Y-85776255D01*
X211010553Y-85989339D01*
X210829339Y-86170553D01*
X210616255Y-86312931D01*
X210616254Y-86312932D01*
X210616253Y-86312932D01*
X210379487Y-86411004D01*
X210128139Y-86461000D01*
X209871861Y-86461000D01*
X209620513Y-86411004D01*
X209383747Y-86312932D01*
X209383746Y-86312932D01*
X209383745Y-86312931D01*
X209170661Y-86170553D01*
X208989447Y-85989339D01*
X208847069Y-85776255D01*
X208847068Y-85776253D01*
X208748996Y-85539487D01*
X208699000Y-85288139D01*
X208699000Y-85031861D01*
X208748996Y-84780513D01*
X208847068Y-84543747D01*
X208989447Y-84330661D01*
X209170661Y-84149447D01*
X209171330Y-84149000D01*
X209383745Y-84007069D01*
X209383747Y-84007068D01*
X209620513Y-83908996D01*
X209871861Y-83859000D01*
X210128139Y-83859000D01*
X210379487Y-83908996D01*
G37*
G36*
X135139487Y-83908996D02*
G01*
X135376253Y-84007068D01*
X135376255Y-84007069D01*
X135588670Y-84149000D01*
X135589339Y-84149447D01*
X135770553Y-84330661D01*
X135912932Y-84543747D01*
X136011004Y-84780513D01*
X136061000Y-85031861D01*
X136061000Y-85288139D01*
X136011004Y-85539487D01*
X135912932Y-85776253D01*
X135912931Y-85776255D01*
X135770553Y-85989339D01*
X135589339Y-86170553D01*
X135376255Y-86312931D01*
X135376254Y-86312932D01*
X135376253Y-86312932D01*
X135139487Y-86411004D01*
X134888139Y-86461000D01*
X134631861Y-86461000D01*
X134380513Y-86411004D01*
X134143747Y-86312932D01*
X134143746Y-86312932D01*
X134143745Y-86312931D01*
X133930661Y-86170553D01*
X133749447Y-85989339D01*
X133607069Y-85776255D01*
X133607068Y-85776253D01*
X133508996Y-85539487D01*
X133459000Y-85288139D01*
X133459000Y-85031861D01*
X133508996Y-84780513D01*
X133607068Y-84543747D01*
X133749447Y-84330661D01*
X133930661Y-84149447D01*
X133931330Y-84149000D01*
X134143745Y-84007069D01*
X134143747Y-84007068D01*
X134380513Y-83908996D01*
X134631861Y-83859000D01*
X134888139Y-83859000D01*
X135139487Y-83908996D01*
G37*
G36*
X157294160Y-85501000D02*
G01*
X156392160Y-85501000D01*
X156392160Y-84149000D01*
X157294160Y-84149000D01*
X157294160Y-85501000D01*
G37*
G36*
X159094160Y-85501000D02*
G01*
X158192160Y-85501000D01*
X158192160Y-84149000D01*
X159094160Y-84149000D01*
X159094160Y-85501000D01*
G37*
G36*
X149294160Y-85501000D02*
G01*
X148392160Y-85501000D01*
X148392160Y-84149000D01*
X149294160Y-84149000D01*
X149294160Y-85501000D01*
G37*
G36*
X151094160Y-85501000D02*
G01*
X150192160Y-85501000D01*
X150192160Y-84149000D01*
X151094160Y-84149000D01*
X151094160Y-85501000D01*
G37*
G36*
X151094160Y-83851000D02*
G01*
X150192160Y-83851000D01*
X150192160Y-82499000D01*
X151094160Y-82499000D01*
X151094160Y-83851000D01*
G37*
G36*
X159094160Y-83851000D02*
G01*
X158192160Y-83851000D01*
X158192160Y-82499000D01*
X159094160Y-82499000D01*
X159094160Y-83851000D01*
G37*
G36*
X149294160Y-83851000D02*
G01*
X148392160Y-83851000D01*
X148392160Y-82499000D01*
X149294160Y-82499000D01*
X149294160Y-83851000D01*
G37*
G36*
X157294160Y-83851000D02*
G01*
X156392160Y-83851000D01*
X156392160Y-82499000D01*
X157294160Y-82499000D01*
X157294160Y-83851000D01*
G37*
G36*
X135139487Y-78828996D02*
G01*
X135376253Y-78927068D01*
X135376255Y-78927069D01*
X135589339Y-79069447D01*
X135770553Y-79250661D01*
X135912932Y-79463747D01*
X136011004Y-79700513D01*
X136061000Y-79951861D01*
X136061000Y-80208139D01*
X136011004Y-80459487D01*
X135912932Y-80696253D01*
X135912931Y-80696255D01*
X135770553Y-80909339D01*
X135589339Y-81090553D01*
X135376255Y-81232931D01*
X135376254Y-81232932D01*
X135376253Y-81232932D01*
X135139487Y-81331004D01*
X134888139Y-81381000D01*
X134631861Y-81381000D01*
X134380513Y-81331004D01*
X134143747Y-81232932D01*
X134143746Y-81232932D01*
X134143745Y-81232931D01*
X133930661Y-81090553D01*
X133749447Y-80909339D01*
X133607069Y-80696255D01*
X133607068Y-80696253D01*
X133508996Y-80459487D01*
X133459000Y-80208139D01*
X133459000Y-79951861D01*
X133508996Y-79700513D01*
X133607068Y-79463747D01*
X133749447Y-79250661D01*
X133930661Y-79069447D01*
X134143745Y-78927069D01*
X134143747Y-78927068D01*
X134380513Y-78828996D01*
X134631861Y-78779000D01*
X134888139Y-78779000D01*
X135139487Y-78828996D01*
G37*
G36*
X210379487Y-78828996D02*
G01*
X210616253Y-78927068D01*
X210616255Y-78927069D01*
X210829339Y-79069447D01*
X211010553Y-79250661D01*
X211152932Y-79463747D01*
X211251004Y-79700513D01*
X211301000Y-79951861D01*
X211301000Y-80208139D01*
X211251004Y-80459487D01*
X211152932Y-80696253D01*
X211152931Y-80696255D01*
X211010553Y-80909339D01*
X210829339Y-81090553D01*
X210616255Y-81232931D01*
X210616254Y-81232932D01*
X210616253Y-81232932D01*
X210379487Y-81331004D01*
X210128139Y-81381000D01*
X209871861Y-81381000D01*
X209620513Y-81331004D01*
X209383747Y-81232932D01*
X209383746Y-81232932D01*
X209383745Y-81232931D01*
X209170661Y-81090553D01*
X208989447Y-80909339D01*
X208847069Y-80696255D01*
X208847068Y-80696253D01*
X208748996Y-80459487D01*
X208699000Y-80208139D01*
X208699000Y-79951861D01*
X208748996Y-79700513D01*
X208847068Y-79463747D01*
X208989447Y-79250661D01*
X209170661Y-79069447D01*
X209383745Y-78927069D01*
X209383747Y-78927068D01*
X209620513Y-78828996D01*
X209871861Y-78779000D01*
X210128139Y-78779000D01*
X210379487Y-78828996D01*
G37*
G36*
X149294160Y-79501000D02*
G01*
X148392160Y-79501000D01*
X148392160Y-78149000D01*
X149294160Y-78149000D01*
X149294160Y-79501000D01*
G37*
G36*
X151094160Y-79501000D02*
G01*
X150192160Y-79501000D01*
X150192160Y-78149000D01*
X151094160Y-78149000D01*
X151094160Y-79501000D01*
G37*
G36*
X157294160Y-79501000D02*
G01*
X156392160Y-79501000D01*
X156392160Y-78149000D01*
X157294160Y-78149000D01*
X157294160Y-79501000D01*
G37*
G36*
X159094160Y-79501000D02*
G01*
X158192160Y-79501000D01*
X158192160Y-78149000D01*
X159094160Y-78149000D01*
X159094160Y-79501000D01*
G37*
G36*
X159094160Y-77851000D02*
G01*
X158192160Y-77851000D01*
X158192160Y-76499000D01*
X159094160Y-76499000D01*
X159094160Y-77851000D01*
G37*
G36*
X151094160Y-77851000D02*
G01*
X150192160Y-77851000D01*
X150192160Y-76499000D01*
X151094160Y-76499000D01*
X151094160Y-77851000D01*
G37*
G36*
X157294160Y-77851000D02*
G01*
X156392160Y-77851000D01*
X156392160Y-76499000D01*
X157294160Y-76499000D01*
X157294160Y-77851000D01*
G37*
G36*
X149294160Y-77851000D02*
G01*
X148392160Y-77851000D01*
X148392160Y-76499000D01*
X149294160Y-76499000D01*
X149294160Y-77851000D01*
G37*
G36*
X135139487Y-73748996D02*
G01*
X135376253Y-73847068D01*
X135376255Y-73847069D01*
X135589339Y-73989447D01*
X135770553Y-74170661D01*
X135912932Y-74383747D01*
X136011004Y-74620513D01*
X136061000Y-74871861D01*
X136061000Y-75128139D01*
X136011004Y-75379487D01*
X135912932Y-75616253D01*
X135912931Y-75616255D01*
X135770553Y-75829339D01*
X135589339Y-76010553D01*
X135376255Y-76152931D01*
X135376254Y-76152932D01*
X135376253Y-76152932D01*
X135139487Y-76251004D01*
X134888139Y-76301000D01*
X134631861Y-76301000D01*
X134380513Y-76251004D01*
X134143747Y-76152932D01*
X134143746Y-76152932D01*
X134143745Y-76152931D01*
X133930661Y-76010553D01*
X133749447Y-75829339D01*
X133607069Y-75616255D01*
X133607068Y-75616253D01*
X133508996Y-75379487D01*
X133459000Y-75128139D01*
X133459000Y-74871861D01*
X133508996Y-74620513D01*
X133607068Y-74383747D01*
X133749447Y-74170661D01*
X133930661Y-73989447D01*
X134143745Y-73847069D01*
X134143747Y-73847068D01*
X134380513Y-73748996D01*
X134631861Y-73699000D01*
X134888139Y-73699000D01*
X135139487Y-73748996D01*
G37*
G36*
X210379487Y-73748996D02*
G01*
X210616253Y-73847068D01*
X210616255Y-73847069D01*
X210829339Y-73989447D01*
X211010553Y-74170661D01*
X211152932Y-74383747D01*
X211251004Y-74620513D01*
X211301000Y-74871861D01*
X211301000Y-75128139D01*
X211251004Y-75379487D01*
X211152932Y-75616253D01*
X211152931Y-75616255D01*
X211010553Y-75829339D01*
X210829339Y-76010553D01*
X210616255Y-76152931D01*
X210616254Y-76152932D01*
X210616253Y-76152932D01*
X210379487Y-76251004D01*
X210128139Y-76301000D01*
X209871861Y-76301000D01*
X209620513Y-76251004D01*
X209383747Y-76152932D01*
X209383746Y-76152932D01*
X209383745Y-76152931D01*
X209170661Y-76010553D01*
X208989447Y-75829339D01*
X208847069Y-75616255D01*
X208847068Y-75616253D01*
X208748996Y-75379487D01*
X208699000Y-75128139D01*
X208699000Y-74871861D01*
X208748996Y-74620513D01*
X208847068Y-74383747D01*
X208989447Y-74170661D01*
X209170661Y-73989447D01*
X209383745Y-73847069D01*
X209383747Y-73847068D01*
X209620513Y-73748996D01*
X209871861Y-73699000D01*
X210128139Y-73699000D01*
X210379487Y-73748996D01*
G37*
G36*
X149294160Y-73501000D02*
G01*
X148392160Y-73501000D01*
X148392160Y-72149000D01*
X149294160Y-72149000D01*
X149294160Y-73501000D01*
G37*
G36*
X151094160Y-73501000D02*
G01*
X150192160Y-73501000D01*
X150192160Y-72149000D01*
X151094160Y-72149000D01*
X151094160Y-73501000D01*
G37*
G36*
X157294160Y-73501000D02*
G01*
X156392160Y-73501000D01*
X156392160Y-72149000D01*
X157294160Y-72149000D01*
X157294160Y-73501000D01*
G37*
G36*
X159094160Y-73501000D02*
G01*
X158192160Y-73501000D01*
X158192160Y-72149000D01*
X159094160Y-72149000D01*
X159094160Y-73501000D01*
G37*
G36*
X159094160Y-71851000D02*
G01*
X158192160Y-71851000D01*
X158192160Y-70499000D01*
X159094160Y-70499000D01*
X159094160Y-71851000D01*
G37*
G36*
X151094160Y-71851000D02*
G01*
X150192160Y-71851000D01*
X150192160Y-70499000D01*
X151094160Y-70499000D01*
X151094160Y-71851000D01*
G37*
G36*
X157294160Y-71851000D02*
G01*
X156392160Y-71851000D01*
X156392160Y-70499000D01*
X157294160Y-70499000D01*
X157294160Y-71851000D01*
G37*
G36*
X149294160Y-71851000D02*
G01*
X148392160Y-71851000D01*
X148392160Y-70499000D01*
X149294160Y-70499000D01*
X149294160Y-71851000D01*
G37*
G36*
X135139487Y-68668996D02*
G01*
X135376253Y-68767068D01*
X135376255Y-68767069D01*
X135589339Y-68909447D01*
X135770553Y-69090661D01*
X135912932Y-69303747D01*
X136011004Y-69540513D01*
X136061000Y-69791861D01*
X136061000Y-70048139D01*
X136011004Y-70299487D01*
X135928363Y-70499000D01*
X135912931Y-70536255D01*
X135770553Y-70749339D01*
X135589339Y-70930553D01*
X135376255Y-71072931D01*
X135376254Y-71072932D01*
X135376253Y-71072932D01*
X135139487Y-71171004D01*
X134888139Y-71221000D01*
X134631861Y-71221000D01*
X134380513Y-71171004D01*
X134143747Y-71072932D01*
X134143746Y-71072932D01*
X134143745Y-71072931D01*
X133930661Y-70930553D01*
X133749447Y-70749339D01*
X133607069Y-70536255D01*
X133591637Y-70499000D01*
X133508996Y-70299487D01*
X133459000Y-70048139D01*
X133459000Y-69791861D01*
X133508996Y-69540513D01*
X133607068Y-69303747D01*
X133749447Y-69090661D01*
X133930661Y-68909447D01*
X134143745Y-68767069D01*
X134143747Y-68767068D01*
X134380513Y-68668996D01*
X134631861Y-68619000D01*
X134888139Y-68619000D01*
X135139487Y-68668996D01*
G37*
G36*
X210379487Y-68668996D02*
G01*
X210616253Y-68767068D01*
X210616255Y-68767069D01*
X210829339Y-68909447D01*
X211010553Y-69090661D01*
X211152932Y-69303747D01*
X211251004Y-69540513D01*
X211301000Y-69791861D01*
X211301000Y-70048139D01*
X211251004Y-70299487D01*
X211168363Y-70499000D01*
X211152931Y-70536255D01*
X211010553Y-70749339D01*
X210829339Y-70930553D01*
X210616255Y-71072931D01*
X210616254Y-71072932D01*
X210616253Y-71072932D01*
X210379487Y-71171004D01*
X210128139Y-71221000D01*
X209871861Y-71221000D01*
X209620513Y-71171004D01*
X209383747Y-71072932D01*
X209383746Y-71072932D01*
X209383745Y-71072931D01*
X209170661Y-70930553D01*
X208989447Y-70749339D01*
X208847069Y-70536255D01*
X208831637Y-70499000D01*
X208748996Y-70299487D01*
X208699000Y-70048139D01*
X208699000Y-69791861D01*
X208748996Y-69540513D01*
X208847068Y-69303747D01*
X208989447Y-69090661D01*
X209170661Y-68909447D01*
X209383745Y-68767069D01*
X209383747Y-68767068D01*
X209620513Y-68668996D01*
X209871861Y-68619000D01*
X210128139Y-68619000D01*
X210379487Y-68668996D01*
G37*
G36*
X180851000Y-68676000D02*
G01*
X179149000Y-68676000D01*
X179149000Y-66974000D01*
X180851000Y-66974000D01*
X180851000Y-68676000D01*
G37*
G36*
X165008228Y-67006703D02*
G01*
X165163100Y-67070853D01*
X165302481Y-67163985D01*
X165421015Y-67282519D01*
X165514147Y-67421900D01*
X165578297Y-67576772D01*
X165611000Y-67741184D01*
X165611000Y-67908816D01*
X165578297Y-68073228D01*
X165514147Y-68228100D01*
X165421015Y-68367481D01*
X165302481Y-68486015D01*
X165163100Y-68579147D01*
X165008228Y-68643297D01*
X164843816Y-68676000D01*
X164676184Y-68676000D01*
X164511772Y-68643297D01*
X164356900Y-68579147D01*
X164217519Y-68486015D01*
X164098985Y-68367481D01*
X164005853Y-68228100D01*
X163941703Y-68073228D01*
X163909000Y-67908816D01*
X163909000Y-67741184D01*
X163941703Y-67576772D01*
X164005853Y-67421900D01*
X164098985Y-67282519D01*
X164217519Y-67163985D01*
X164356900Y-67070853D01*
X164511772Y-67006703D01*
X164676184Y-66974000D01*
X164843816Y-66974000D01*
X165008228Y-67006703D01*
G37*
G36*
X135139487Y-63588996D02*
G01*
X135289177Y-63651000D01*
X135376255Y-63687069D01*
X135589339Y-63829447D01*
X135770553Y-64010661D01*
X135912932Y-64223747D01*
X136011004Y-64460513D01*
X136061000Y-64711861D01*
X136061000Y-64968139D01*
X136011004Y-65219487D01*
X135912932Y-65456253D01*
X135912931Y-65456255D01*
X135770553Y-65669339D01*
X135589339Y-65850553D01*
X135376255Y-65992931D01*
X135376254Y-65992932D01*
X135376253Y-65992932D01*
X135139487Y-66091004D01*
X134888139Y-66141000D01*
X134631861Y-66141000D01*
X134380513Y-66091004D01*
X134143747Y-65992932D01*
X134143746Y-65992932D01*
X134143745Y-65992931D01*
X133930661Y-65850553D01*
X133749447Y-65669339D01*
X133607069Y-65456255D01*
X133607068Y-65456253D01*
X133508996Y-65219487D01*
X133459000Y-64968139D01*
X133459000Y-64711861D01*
X133508996Y-64460513D01*
X133607068Y-64223747D01*
X133749447Y-64010661D01*
X133930661Y-63829447D01*
X134143745Y-63687069D01*
X134230823Y-63651000D01*
X134380513Y-63588996D01*
X134631861Y-63539000D01*
X134888139Y-63539000D01*
X135139487Y-63588996D01*
G37*
G36*
X210379487Y-63588996D02*
G01*
X210529177Y-63651000D01*
X210616255Y-63687069D01*
X210829339Y-63829447D01*
X211010553Y-64010661D01*
X211152932Y-64223747D01*
X211251004Y-64460513D01*
X211301000Y-64711861D01*
X211301000Y-64968139D01*
X211251004Y-65219487D01*
X211152932Y-65456253D01*
X211152931Y-65456255D01*
X211010553Y-65669339D01*
X210829339Y-65850553D01*
X210616255Y-65992931D01*
X210616254Y-65992932D01*
X210616253Y-65992932D01*
X210379487Y-66091004D01*
X210128139Y-66141000D01*
X209871861Y-66141000D01*
X209620513Y-66091004D01*
X209383747Y-65992932D01*
X209383746Y-65992932D01*
X209383745Y-65992931D01*
X209170661Y-65850553D01*
X208989447Y-65669339D01*
X208847069Y-65456255D01*
X208847068Y-65456253D01*
X208748996Y-65219487D01*
X208699000Y-64968139D01*
X208699000Y-64711861D01*
X208748996Y-64460513D01*
X208847068Y-64223747D01*
X208989447Y-64010661D01*
X209170661Y-63829447D01*
X209383745Y-63687069D01*
X209470823Y-63651000D01*
X209620513Y-63588996D01*
X209871861Y-63539000D01*
X210128139Y-63539000D01*
X210379487Y-63588996D01*
G37*
G36*
X165008228Y-64466703D02*
G01*
X165163100Y-64530853D01*
X165302481Y-64623985D01*
X165421015Y-64742519D01*
X165514147Y-64881900D01*
X165578297Y-65036772D01*
X165611000Y-65201184D01*
X165611000Y-65368816D01*
X165578297Y-65533228D01*
X165514147Y-65688100D01*
X165421015Y-65827481D01*
X165302481Y-65946015D01*
X165163100Y-66039147D01*
X165008228Y-66103297D01*
X164843816Y-66136000D01*
X164676184Y-66136000D01*
X164511772Y-66103297D01*
X164356900Y-66039147D01*
X164217519Y-65946015D01*
X164098985Y-65827481D01*
X164005853Y-65688100D01*
X163941703Y-65533228D01*
X163909000Y-65368816D01*
X163909000Y-65201184D01*
X163941703Y-65036772D01*
X164005853Y-64881900D01*
X164098985Y-64742519D01*
X164217519Y-64623985D01*
X164356900Y-64530853D01*
X164511772Y-64466703D01*
X164676184Y-64434000D01*
X164843816Y-64434000D01*
X165008228Y-64466703D01*
G37*
G36*
X180248228Y-64466703D02*
G01*
X180403100Y-64530853D01*
X180542481Y-64623985D01*
X180661015Y-64742519D01*
X180754147Y-64881900D01*
X180818297Y-65036772D01*
X180851000Y-65201184D01*
X180851000Y-65368816D01*
X180818297Y-65533228D01*
X180754147Y-65688100D01*
X180661015Y-65827481D01*
X180542481Y-65946015D01*
X180403100Y-66039147D01*
X180248228Y-66103297D01*
X180083816Y-66136000D01*
X179916184Y-66136000D01*
X179751772Y-66103297D01*
X179596900Y-66039147D01*
X179457519Y-65946015D01*
X179338985Y-65827481D01*
X179245853Y-65688100D01*
X179181703Y-65533228D01*
X179149000Y-65368816D01*
X179149000Y-65201184D01*
X179181703Y-65036772D01*
X179245853Y-64881900D01*
X179338985Y-64742519D01*
X179457519Y-64623985D01*
X179596900Y-64530853D01*
X179751772Y-64466703D01*
X179916184Y-64434000D01*
X180083816Y-64434000D01*
X180248228Y-64466703D01*
G37*
G36*
X196351000Y-64501000D02*
G01*
X195449000Y-64501000D01*
X195449000Y-63149000D01*
X196351000Y-63149000D01*
X196351000Y-64501000D01*
G37*
G36*
X194551000Y-64501000D02*
G01*
X193649000Y-64501000D01*
X193649000Y-63149000D01*
X194551000Y-63149000D01*
X194551000Y-64501000D01*
G37*
G36*
X165008228Y-61926703D02*
G01*
X165163100Y-61990853D01*
X165302481Y-62083985D01*
X165421015Y-62202519D01*
X165514147Y-62341900D01*
X165578297Y-62496772D01*
X165611000Y-62661184D01*
X165611000Y-62828816D01*
X165578297Y-62993228D01*
X165514147Y-63148100D01*
X165421015Y-63287481D01*
X165302481Y-63406015D01*
X165163100Y-63499147D01*
X165008228Y-63563297D01*
X164843816Y-63596000D01*
X164676184Y-63596000D01*
X164511772Y-63563297D01*
X164356900Y-63499147D01*
X164217519Y-63406015D01*
X164098985Y-63287481D01*
X164005853Y-63148100D01*
X163941703Y-62993228D01*
X163909000Y-62828816D01*
X163909000Y-62661184D01*
X163941703Y-62496772D01*
X164005853Y-62341900D01*
X164098985Y-62202519D01*
X164217519Y-62083985D01*
X164356900Y-61990853D01*
X164511772Y-61926703D01*
X164676184Y-61894000D01*
X164843816Y-61894000D01*
X165008228Y-61926703D01*
G37*
G36*
X180248228Y-61926703D02*
G01*
X180403100Y-61990853D01*
X180542481Y-62083985D01*
X180661015Y-62202519D01*
X180754147Y-62341900D01*
X180818297Y-62496772D01*
X180851000Y-62661184D01*
X180851000Y-62828816D01*
X180818297Y-62993228D01*
X180754147Y-63148100D01*
X180661015Y-63287481D01*
X180542481Y-63406015D01*
X180403100Y-63499147D01*
X180248228Y-63563297D01*
X180083816Y-63596000D01*
X179916184Y-63596000D01*
X179751772Y-63563297D01*
X179596900Y-63499147D01*
X179457519Y-63406015D01*
X179338985Y-63287481D01*
X179245853Y-63148100D01*
X179181703Y-62993228D01*
X179149000Y-62828816D01*
X179149000Y-62661184D01*
X179181703Y-62496772D01*
X179245853Y-62341900D01*
X179338985Y-62202519D01*
X179457519Y-62083985D01*
X179596900Y-61990853D01*
X179751772Y-61926703D01*
X179916184Y-61894000D01*
X180083816Y-61894000D01*
X180248228Y-61926703D01*
G37*
G36*
X196351000Y-62851000D02*
G01*
X195449000Y-62851000D01*
X195449000Y-61499000D01*
X196351000Y-61499000D01*
X196351000Y-62851000D01*
G37*
G36*
X194551000Y-62851000D02*
G01*
X193649000Y-62851000D01*
X193649000Y-61499000D01*
X194551000Y-61499000D01*
X194551000Y-62851000D01*
G37*
G36*
X135139487Y-58508996D02*
G01*
X135376253Y-58607068D01*
X135376255Y-58607069D01*
X135589339Y-58749447D01*
X135770553Y-58930661D01*
X135912932Y-59143747D01*
X136011004Y-59380513D01*
X136061000Y-59631861D01*
X136061000Y-59888139D01*
X136011004Y-60139487D01*
X135912932Y-60376253D01*
X135912931Y-60376255D01*
X135770553Y-60589339D01*
X135589339Y-60770553D01*
X135376255Y-60912931D01*
X135376254Y-60912932D01*
X135376253Y-60912932D01*
X135139487Y-61011004D01*
X134888139Y-61061000D01*
X134631861Y-61061000D01*
X134380513Y-61011004D01*
X134143747Y-60912932D01*
X134143746Y-60912932D01*
X134143745Y-60912931D01*
X133930661Y-60770553D01*
X133749447Y-60589339D01*
X133607069Y-60376255D01*
X133607068Y-60376253D01*
X133508996Y-60139487D01*
X133459000Y-59888139D01*
X133459000Y-59631861D01*
X133508996Y-59380513D01*
X133607068Y-59143747D01*
X133749447Y-58930661D01*
X133930661Y-58749447D01*
X134143745Y-58607069D01*
X134143747Y-58607068D01*
X134380513Y-58508996D01*
X134631861Y-58459000D01*
X134888139Y-58459000D01*
X135139487Y-58508996D01*
G37*
G36*
X210379487Y-58508996D02*
G01*
X210616253Y-58607068D01*
X210616255Y-58607069D01*
X210829339Y-58749447D01*
X211010553Y-58930661D01*
X211152932Y-59143747D01*
X211251004Y-59380513D01*
X211301000Y-59631861D01*
X211301000Y-59888139D01*
X211251004Y-60139487D01*
X211152932Y-60376253D01*
X211152931Y-60376255D01*
X211010553Y-60589339D01*
X210829339Y-60770553D01*
X210616255Y-60912931D01*
X210616254Y-60912932D01*
X210616253Y-60912932D01*
X210379487Y-61011004D01*
X210128139Y-61061000D01*
X209871861Y-61061000D01*
X209620513Y-61011004D01*
X209383747Y-60912932D01*
X209383746Y-60912932D01*
X209383745Y-60912931D01*
X209170661Y-60770553D01*
X208989447Y-60589339D01*
X208847069Y-60376255D01*
X208847068Y-60376253D01*
X208748996Y-60139487D01*
X208699000Y-59888139D01*
X208699000Y-59631861D01*
X208748996Y-59380513D01*
X208847068Y-59143747D01*
X208989447Y-58930661D01*
X209170661Y-58749447D01*
X209383745Y-58607069D01*
X209383747Y-58607068D01*
X209620513Y-58508996D01*
X209871861Y-58459000D01*
X210128139Y-58459000D01*
X210379487Y-58508996D01*
G37*
G36*
X165008228Y-59386703D02*
G01*
X165163100Y-59450853D01*
X165302481Y-59543985D01*
X165421015Y-59662519D01*
X165514147Y-59801900D01*
X165578297Y-59956772D01*
X165611000Y-60121184D01*
X165611000Y-60288816D01*
X165578297Y-60453228D01*
X165514147Y-60608100D01*
X165421015Y-60747481D01*
X165302481Y-60866015D01*
X165163100Y-60959147D01*
X165008228Y-61023297D01*
X164843816Y-61056000D01*
X164676184Y-61056000D01*
X164511772Y-61023297D01*
X164356900Y-60959147D01*
X164217519Y-60866015D01*
X164098985Y-60747481D01*
X164005853Y-60608100D01*
X163941703Y-60453228D01*
X163909000Y-60288816D01*
X163909000Y-60121184D01*
X163941703Y-59956772D01*
X164005853Y-59801900D01*
X164098985Y-59662519D01*
X164217519Y-59543985D01*
X164356900Y-59450853D01*
X164511772Y-59386703D01*
X164676184Y-59354000D01*
X164843816Y-59354000D01*
X165008228Y-59386703D01*
G37*
G36*
X180248228Y-59386703D02*
G01*
X180403100Y-59450853D01*
X180542481Y-59543985D01*
X180661015Y-59662519D01*
X180754147Y-59801900D01*
X180818297Y-59956772D01*
X180851000Y-60121184D01*
X180851000Y-60288816D01*
X180818297Y-60453228D01*
X180754147Y-60608100D01*
X180661015Y-60747481D01*
X180542481Y-60866015D01*
X180403100Y-60959147D01*
X180248228Y-61023297D01*
X180083816Y-61056000D01*
X179916184Y-61056000D01*
X179751772Y-61023297D01*
X179596900Y-60959147D01*
X179457519Y-60866015D01*
X179338985Y-60747481D01*
X179245853Y-60608100D01*
X179181703Y-60453228D01*
X179149000Y-60288816D01*
X179149000Y-60121184D01*
X179181703Y-59956772D01*
X179245853Y-59801900D01*
X179338985Y-59662519D01*
X179457519Y-59543985D01*
X179596900Y-59450853D01*
X179751772Y-59386703D01*
X179916184Y-59354000D01*
X180083816Y-59354000D01*
X180248228Y-59386703D01*
G37*
G36*
X165008228Y-56846703D02*
G01*
X165163100Y-56910853D01*
X165302481Y-57003985D01*
X165421015Y-57122519D01*
X165514147Y-57261900D01*
X165578297Y-57416772D01*
X165611000Y-57581184D01*
X165611000Y-57748816D01*
X165578297Y-57913228D01*
X165514147Y-58068100D01*
X165421015Y-58207481D01*
X165302481Y-58326015D01*
X165163100Y-58419147D01*
X165008228Y-58483297D01*
X164843816Y-58516000D01*
X164676184Y-58516000D01*
X164511772Y-58483297D01*
X164356900Y-58419147D01*
X164217519Y-58326015D01*
X164098985Y-58207481D01*
X164005853Y-58068100D01*
X163941703Y-57913228D01*
X163909000Y-57748816D01*
X163909000Y-57581184D01*
X163941703Y-57416772D01*
X164005853Y-57261900D01*
X164098985Y-57122519D01*
X164217519Y-57003985D01*
X164356900Y-56910853D01*
X164511772Y-56846703D01*
X164676184Y-56814000D01*
X164843816Y-56814000D01*
X165008228Y-56846703D01*
G37*
G36*
X180248228Y-56846703D02*
G01*
X180403100Y-56910853D01*
X180542481Y-57003985D01*
X180661015Y-57122519D01*
X180754147Y-57261900D01*
X180818297Y-57416772D01*
X180851000Y-57581184D01*
X180851000Y-57748816D01*
X180818297Y-57913228D01*
X180754147Y-58068100D01*
X180661015Y-58207481D01*
X180542481Y-58326015D01*
X180403100Y-58419147D01*
X180248228Y-58483297D01*
X180083816Y-58516000D01*
X179916184Y-58516000D01*
X179751772Y-58483297D01*
X179596900Y-58419147D01*
X179457519Y-58326015D01*
X179338985Y-58207481D01*
X179245853Y-58068100D01*
X179181703Y-57913228D01*
X179149000Y-57748816D01*
X179149000Y-57581184D01*
X179181703Y-57416772D01*
X179245853Y-57261900D01*
X179338985Y-57122519D01*
X179457519Y-57003985D01*
X179596900Y-56910853D01*
X179751772Y-56846703D01*
X179916184Y-56814000D01*
X180083816Y-56814000D01*
X180248228Y-56846703D01*
G37*
G36*
X188351000Y-58501000D02*
G01*
X187449000Y-58501000D01*
X187449000Y-57149000D01*
X188351000Y-57149000D01*
X188351000Y-58501000D01*
G37*
G36*
X196351000Y-58501000D02*
G01*
X195449000Y-58501000D01*
X195449000Y-57149000D01*
X196351000Y-57149000D01*
X196351000Y-58501000D01*
G37*
G36*
X186551000Y-58501000D02*
G01*
X185649000Y-58501000D01*
X185649000Y-57149000D01*
X186551000Y-57149000D01*
X186551000Y-58501000D01*
G37*
G36*
X194551000Y-58501000D02*
G01*
X193649000Y-58501000D01*
X193649000Y-57149000D01*
X194551000Y-57149000D01*
X194551000Y-58501000D01*
G37*
G36*
X194551000Y-56851000D02*
G01*
X193649000Y-56851000D01*
X193649000Y-55499000D01*
X194551000Y-55499000D01*
X194551000Y-56851000D01*
G37*
G36*
X188351000Y-56851000D02*
G01*
X187449000Y-56851000D01*
X187449000Y-55499000D01*
X188351000Y-55499000D01*
X188351000Y-56851000D01*
G37*
G36*
X196351000Y-56851000D02*
G01*
X195449000Y-56851000D01*
X195449000Y-55499000D01*
X196351000Y-55499000D01*
X196351000Y-56851000D01*
G37*
G36*
X186551000Y-56851000D02*
G01*
X185649000Y-56851000D01*
X185649000Y-55499000D01*
X186551000Y-55499000D01*
X186551000Y-56851000D01*
G37*
G36*
X210379487Y-53428996D02*
G01*
X210616253Y-53527068D01*
X210616255Y-53527069D01*
X210829339Y-53669447D01*
X211010553Y-53850661D01*
X211152932Y-54063747D01*
X211251004Y-54300513D01*
X211301000Y-54551861D01*
X211301000Y-54808139D01*
X211251004Y-55059487D01*
X211152932Y-55296253D01*
X211152931Y-55296255D01*
X211010553Y-55509339D01*
X210829339Y-55690553D01*
X210616255Y-55832931D01*
X210616254Y-55832932D01*
X210616253Y-55832932D01*
X210379487Y-55931004D01*
X210128139Y-55981000D01*
X209871861Y-55981000D01*
X209620513Y-55931004D01*
X209383747Y-55832932D01*
X209383746Y-55832932D01*
X209383745Y-55832931D01*
X209170661Y-55690553D01*
X208989447Y-55509339D01*
X208847069Y-55296255D01*
X208847068Y-55296253D01*
X208748996Y-55059487D01*
X208699000Y-54808139D01*
X208699000Y-54551861D01*
X208748996Y-54300513D01*
X208847068Y-54063747D01*
X208989447Y-53850661D01*
X209170661Y-53669447D01*
X209383745Y-53527069D01*
X209383747Y-53527068D01*
X209620513Y-53428996D01*
X209871861Y-53379000D01*
X210128139Y-53379000D01*
X210379487Y-53428996D01*
G37*
G36*
X135139487Y-53428996D02*
G01*
X135376253Y-53527068D01*
X135376255Y-53527069D01*
X135589339Y-53669447D01*
X135770553Y-53850661D01*
X135912932Y-54063747D01*
X136011004Y-54300513D01*
X136061000Y-54551861D01*
X136061000Y-54808139D01*
X136011004Y-55059487D01*
X135912932Y-55296253D01*
X135912931Y-55296255D01*
X135770553Y-55509339D01*
X135589339Y-55690553D01*
X135376255Y-55832931D01*
X135376254Y-55832932D01*
X135376253Y-55832932D01*
X135139487Y-55931004D01*
X134888139Y-55981000D01*
X134631861Y-55981000D01*
X134380513Y-55931004D01*
X134143747Y-55832932D01*
X134143746Y-55832932D01*
X134143745Y-55832931D01*
X133930661Y-55690553D01*
X133749447Y-55509339D01*
X133607069Y-55296255D01*
X133607068Y-55296253D01*
X133508996Y-55059487D01*
X133459000Y-54808139D01*
X133459000Y-54551861D01*
X133508996Y-54300513D01*
X133607068Y-54063747D01*
X133749447Y-53850661D01*
X133930661Y-53669447D01*
X134143745Y-53527069D01*
X134143747Y-53527068D01*
X134380513Y-53428996D01*
X134631861Y-53379000D01*
X134888139Y-53379000D01*
X135139487Y-53428996D01*
G37*
G36*
X165008228Y-54306703D02*
G01*
X165163100Y-54370853D01*
X165302481Y-54463985D01*
X165421015Y-54582519D01*
X165514147Y-54721900D01*
X165578297Y-54876772D01*
X165611000Y-55041184D01*
X165611000Y-55208816D01*
X165578297Y-55373228D01*
X165514147Y-55528100D01*
X165421015Y-55667481D01*
X165302481Y-55786015D01*
X165163100Y-55879147D01*
X165008228Y-55943297D01*
X164843816Y-55976000D01*
X164676184Y-55976000D01*
X164511772Y-55943297D01*
X164356900Y-55879147D01*
X164217519Y-55786015D01*
X164098985Y-55667481D01*
X164005853Y-55528100D01*
X163941703Y-55373228D01*
X163909000Y-55208816D01*
X163909000Y-55041184D01*
X163941703Y-54876772D01*
X164005853Y-54721900D01*
X164098985Y-54582519D01*
X164217519Y-54463985D01*
X164356900Y-54370853D01*
X164511772Y-54306703D01*
X164676184Y-54274000D01*
X164843816Y-54274000D01*
X165008228Y-54306703D01*
G37*
G36*
X180248228Y-54306703D02*
G01*
X180403100Y-54370853D01*
X180542481Y-54463985D01*
X180661015Y-54582519D01*
X180754147Y-54721900D01*
X180818297Y-54876772D01*
X180851000Y-55041184D01*
X180851000Y-55208816D01*
X180818297Y-55373228D01*
X180754147Y-55528100D01*
X180661015Y-55667481D01*
X180542481Y-55786015D01*
X180403100Y-55879147D01*
X180248228Y-55943297D01*
X180083816Y-55976000D01*
X179916184Y-55976000D01*
X179751772Y-55943297D01*
X179596900Y-55879147D01*
X179457519Y-55786015D01*
X179338985Y-55667481D01*
X179245853Y-55528100D01*
X179181703Y-55373228D01*
X179149000Y-55208816D01*
X179149000Y-55041184D01*
X179181703Y-54876772D01*
X179245853Y-54721900D01*
X179338985Y-54582519D01*
X179457519Y-54463985D01*
X179596900Y-54370853D01*
X179751772Y-54306703D01*
X179916184Y-54274000D01*
X180083816Y-54274000D01*
X180248228Y-54306703D01*
G37*
G36*
X165008228Y-51766703D02*
G01*
X165163100Y-51830853D01*
X165302481Y-51923985D01*
X165421015Y-52042519D01*
X165514147Y-52181900D01*
X165578297Y-52336772D01*
X165611000Y-52501184D01*
X165611000Y-52668816D01*
X165578297Y-52833228D01*
X165514147Y-52988100D01*
X165421015Y-53127481D01*
X165302481Y-53246015D01*
X165163100Y-53339147D01*
X165008228Y-53403297D01*
X164843816Y-53436000D01*
X164676184Y-53436000D01*
X164511772Y-53403297D01*
X164356900Y-53339147D01*
X164217519Y-53246015D01*
X164098985Y-53127481D01*
X164005853Y-52988100D01*
X163941703Y-52833228D01*
X163909000Y-52668816D01*
X163909000Y-52501184D01*
X163941703Y-52336772D01*
X164005853Y-52181900D01*
X164098985Y-52042519D01*
X164217519Y-51923985D01*
X164356900Y-51830853D01*
X164511772Y-51766703D01*
X164676184Y-51734000D01*
X164843816Y-51734000D01*
X165008228Y-51766703D01*
G37*
G36*
X180248228Y-51766703D02*
G01*
X180403100Y-51830853D01*
X180542481Y-51923985D01*
X180661015Y-52042519D01*
X180754147Y-52181900D01*
X180818297Y-52336772D01*
X180851000Y-52501184D01*
X180851000Y-52668816D01*
X180818297Y-52833228D01*
X180754147Y-52988100D01*
X180661015Y-53127481D01*
X180542481Y-53246015D01*
X180403100Y-53339147D01*
X180248228Y-53403297D01*
X180083816Y-53436000D01*
X179916184Y-53436000D01*
X179751772Y-53403297D01*
X179596900Y-53339147D01*
X179457519Y-53246015D01*
X179338985Y-53127481D01*
X179245853Y-52988100D01*
X179181703Y-52833228D01*
X179149000Y-52668816D01*
X179149000Y-52501184D01*
X179181703Y-52336772D01*
X179245853Y-52181900D01*
X179338985Y-52042519D01*
X179457519Y-51923985D01*
X179596900Y-51830853D01*
X179751772Y-51766703D01*
X179916184Y-51734000D01*
X180083816Y-51734000D01*
X180248228Y-51766703D01*
G37*
G36*
X194551000Y-52501000D02*
G01*
X193649000Y-52501000D01*
X193649000Y-51149000D01*
X194551000Y-51149000D01*
X194551000Y-52501000D01*
G37*
G36*
X196351000Y-52501000D02*
G01*
X195449000Y-52501000D01*
X195449000Y-51149000D01*
X196351000Y-51149000D01*
X196351000Y-52501000D01*
G37*
G36*
X186551000Y-52501000D02*
G01*
X185649000Y-52501000D01*
X185649000Y-51149000D01*
X186551000Y-51149000D01*
X186551000Y-52501000D01*
G37*
G36*
X188351000Y-52501000D02*
G01*
X187449000Y-52501000D01*
X187449000Y-51149000D01*
X188351000Y-51149000D01*
X188351000Y-52501000D01*
G37*
G36*
X135139487Y-48348996D02*
G01*
X135376253Y-48447068D01*
X135376255Y-48447069D01*
X135589339Y-48589447D01*
X135770553Y-48770661D01*
X135912932Y-48983747D01*
X136011004Y-49220513D01*
X136061000Y-49471861D01*
X136061000Y-49728139D01*
X136011004Y-49979487D01*
X135912932Y-50216253D01*
X135912931Y-50216255D01*
X135770553Y-50429339D01*
X135589339Y-50610553D01*
X135376255Y-50752931D01*
X135376254Y-50752932D01*
X135376253Y-50752932D01*
X135139487Y-50851004D01*
X134888139Y-50901000D01*
X134631861Y-50901000D01*
X134380513Y-50851004D01*
X134143747Y-50752932D01*
X134143746Y-50752932D01*
X134143745Y-50752931D01*
X133930661Y-50610553D01*
X133749447Y-50429339D01*
X133607069Y-50216255D01*
X133607068Y-50216253D01*
X133508996Y-49979487D01*
X133459000Y-49728139D01*
X133459000Y-49471861D01*
X133508996Y-49220513D01*
X133607068Y-48983747D01*
X133749447Y-48770661D01*
X133930661Y-48589447D01*
X134143745Y-48447069D01*
X134143747Y-48447068D01*
X134380513Y-48348996D01*
X134631861Y-48299000D01*
X134888139Y-48299000D01*
X135139487Y-48348996D01*
G37*
G36*
X210379487Y-48348996D02*
G01*
X210616253Y-48447068D01*
X210616255Y-48447069D01*
X210829339Y-48589447D01*
X211010553Y-48770661D01*
X211152932Y-48983747D01*
X211251004Y-49220513D01*
X211301000Y-49471861D01*
X211301000Y-49728139D01*
X211251004Y-49979487D01*
X211152932Y-50216253D01*
X211152931Y-50216255D01*
X211010553Y-50429339D01*
X210829339Y-50610553D01*
X210616255Y-50752931D01*
X210616254Y-50752932D01*
X210616253Y-50752932D01*
X210379487Y-50851004D01*
X210128139Y-50901000D01*
X209871861Y-50901000D01*
X209620513Y-50851004D01*
X209383747Y-50752932D01*
X209383746Y-50752932D01*
X209383745Y-50752931D01*
X209170661Y-50610553D01*
X208989447Y-50429339D01*
X208847069Y-50216255D01*
X208847068Y-50216253D01*
X208748996Y-49979487D01*
X208699000Y-49728139D01*
X208699000Y-49471861D01*
X208748996Y-49220513D01*
X208847068Y-48983747D01*
X208989447Y-48770661D01*
X209170661Y-48589447D01*
X209383745Y-48447069D01*
X209383747Y-48447068D01*
X209620513Y-48348996D01*
X209871861Y-48299000D01*
X210128139Y-48299000D01*
X210379487Y-48348996D01*
G37*
G36*
X165008228Y-49226703D02*
G01*
X165163100Y-49290853D01*
X165302481Y-49383985D01*
X165421015Y-49502519D01*
X165514147Y-49641900D01*
X165578297Y-49796772D01*
X165611000Y-49961184D01*
X165611000Y-50128816D01*
X165578297Y-50293228D01*
X165514147Y-50448100D01*
X165421015Y-50587481D01*
X165302481Y-50706015D01*
X165163100Y-50799147D01*
X165008228Y-50863297D01*
X164843816Y-50896000D01*
X164676184Y-50896000D01*
X164511772Y-50863297D01*
X164356900Y-50799147D01*
X164217519Y-50706015D01*
X164098985Y-50587481D01*
X164005853Y-50448100D01*
X163941703Y-50293228D01*
X163909000Y-50128816D01*
X163909000Y-49961184D01*
X163941703Y-49796772D01*
X164005853Y-49641900D01*
X164098985Y-49502519D01*
X164217519Y-49383985D01*
X164356900Y-49290853D01*
X164511772Y-49226703D01*
X164676184Y-49194000D01*
X164843816Y-49194000D01*
X165008228Y-49226703D01*
G37*
G36*
X180248228Y-49226703D02*
G01*
X180403100Y-49290853D01*
X180542481Y-49383985D01*
X180661015Y-49502519D01*
X180754147Y-49641900D01*
X180818297Y-49796772D01*
X180851000Y-49961184D01*
X180851000Y-50128816D01*
X180818297Y-50293228D01*
X180754147Y-50448100D01*
X180661015Y-50587481D01*
X180542481Y-50706015D01*
X180403100Y-50799147D01*
X180248228Y-50863297D01*
X180083816Y-50896000D01*
X179916184Y-50896000D01*
X179751772Y-50863297D01*
X179596900Y-50799147D01*
X179457519Y-50706015D01*
X179338985Y-50587481D01*
X179245853Y-50448100D01*
X179181703Y-50293228D01*
X179149000Y-50128816D01*
X179149000Y-49961184D01*
X179181703Y-49796772D01*
X179245853Y-49641900D01*
X179338985Y-49502519D01*
X179457519Y-49383985D01*
X179596900Y-49290853D01*
X179751772Y-49226703D01*
X179916184Y-49194000D01*
X180083816Y-49194000D01*
X180248228Y-49226703D01*
G37*
G36*
X194551000Y-50851000D02*
G01*
X193649000Y-50851000D01*
X193649000Y-49499000D01*
X194551000Y-49499000D01*
X194551000Y-50851000D01*
G37*
G36*
X196351000Y-50851000D02*
G01*
X195449000Y-50851000D01*
X195449000Y-49499000D01*
X196351000Y-49499000D01*
X196351000Y-50851000D01*
G37*
G36*
X186551000Y-50851000D02*
G01*
X185649000Y-50851000D01*
X185649000Y-49499000D01*
X186551000Y-49499000D01*
X186551000Y-50851000D01*
G37*
G36*
X188351000Y-50851000D02*
G01*
X187449000Y-50851000D01*
X187449000Y-49499000D01*
X188351000Y-49499000D01*
X188351000Y-50851000D01*
G37*
G36*
X180248228Y-46686703D02*
G01*
X180403100Y-46750853D01*
X180542481Y-46843985D01*
X180661015Y-46962519D01*
X180754147Y-47101900D01*
X180818297Y-47256772D01*
X180851000Y-47421184D01*
X180851000Y-47588816D01*
X180818297Y-47753228D01*
X180754147Y-47908100D01*
X180661015Y-48047481D01*
X180542481Y-48166015D01*
X180403100Y-48259147D01*
X180248228Y-48323297D01*
X180083816Y-48356000D01*
X179916184Y-48356000D01*
X179751772Y-48323297D01*
X179596900Y-48259147D01*
X179457519Y-48166015D01*
X179338985Y-48047481D01*
X179245853Y-47908100D01*
X179181703Y-47753228D01*
X179149000Y-47588816D01*
X179149000Y-47421184D01*
X179181703Y-47256772D01*
X179245853Y-47101900D01*
X179338985Y-46962519D01*
X179457519Y-46843985D01*
X179596900Y-46750853D01*
X179751772Y-46686703D01*
X179916184Y-46654000D01*
X180083816Y-46654000D01*
X180248228Y-46686703D01*
G37*
G36*
X165008228Y-46686703D02*
G01*
X165163100Y-46750853D01*
X165302481Y-46843985D01*
X165421015Y-46962519D01*
X165514147Y-47101900D01*
X165578297Y-47256772D01*
X165611000Y-47421184D01*
X165611000Y-47588816D01*
X165578297Y-47753228D01*
X165514147Y-47908100D01*
X165421015Y-48047481D01*
X165302481Y-48166015D01*
X165163100Y-48259147D01*
X165008228Y-48323297D01*
X164843816Y-48356000D01*
X164676184Y-48356000D01*
X164511772Y-48323297D01*
X164356900Y-48259147D01*
X164217519Y-48166015D01*
X164098985Y-48047481D01*
X164005853Y-47908100D01*
X163941703Y-47753228D01*
X163909000Y-47588816D01*
X163909000Y-47421184D01*
X163941703Y-47256772D01*
X164005853Y-47101900D01*
X164098985Y-46962519D01*
X164217519Y-46843985D01*
X164356900Y-46750853D01*
X164511772Y-46686703D01*
X164676184Y-46654000D01*
X164843816Y-46654000D01*
X165008228Y-46686703D01*
G37*
G36*
X194551000Y-46501000D02*
G01*
X193649000Y-46501000D01*
X193649000Y-45149000D01*
X194551000Y-45149000D01*
X194551000Y-46501000D01*
G37*
G36*
X196351000Y-46501000D02*
G01*
X195449000Y-46501000D01*
X195449000Y-45149000D01*
X196351000Y-45149000D01*
X196351000Y-46501000D01*
G37*
G36*
X151876000Y-45851000D02*
G01*
X150974000Y-45851000D01*
X150974000Y-44499000D01*
X151876000Y-44499000D01*
X151876000Y-45851000D01*
G37*
G36*
X153676000Y-45851000D02*
G01*
X152774000Y-45851000D01*
X152774000Y-44499000D01*
X153676000Y-44499000D01*
X153676000Y-45851000D01*
G37*
G36*
X210379487Y-43268996D02*
G01*
X210616253Y-43367068D01*
X210616255Y-43367069D01*
X210741867Y-43451000D01*
X210829339Y-43509447D01*
X211010553Y-43690661D01*
X211152932Y-43903747D01*
X211251004Y-44140513D01*
X211301000Y-44391861D01*
X211301000Y-44648139D01*
X211251004Y-44899487D01*
X211152932Y-45136253D01*
X211152931Y-45136255D01*
X211010553Y-45349339D01*
X210829339Y-45530553D01*
X210616255Y-45672931D01*
X210616254Y-45672932D01*
X210616253Y-45672932D01*
X210379487Y-45771004D01*
X210128139Y-45821000D01*
X209871861Y-45821000D01*
X209620513Y-45771004D01*
X209383747Y-45672932D01*
X209383746Y-45672932D01*
X209383745Y-45672931D01*
X209170661Y-45530553D01*
X208989447Y-45349339D01*
X208847069Y-45136255D01*
X208847068Y-45136253D01*
X208748996Y-44899487D01*
X208699000Y-44648139D01*
X208699000Y-44391861D01*
X208748996Y-44140513D01*
X208847068Y-43903747D01*
X208989447Y-43690661D01*
X209170661Y-43509447D01*
X209258133Y-43451000D01*
X209383745Y-43367069D01*
X209383747Y-43367068D01*
X209620513Y-43268996D01*
X209871861Y-43219000D01*
X210128139Y-43219000D01*
X210379487Y-43268996D01*
G37*
G36*
X135139487Y-43268996D02*
G01*
X135376253Y-43367068D01*
X135376255Y-43367069D01*
X135501867Y-43451000D01*
X135589339Y-43509447D01*
X135770553Y-43690661D01*
X135912932Y-43903747D01*
X136011004Y-44140513D01*
X136061000Y-44391861D01*
X136061000Y-44648139D01*
X136011004Y-44899487D01*
X135912932Y-45136253D01*
X135912931Y-45136255D01*
X135770553Y-45349339D01*
X135589339Y-45530553D01*
X135376255Y-45672931D01*
X135376254Y-45672932D01*
X135376253Y-45672932D01*
X135139487Y-45771004D01*
X134888139Y-45821000D01*
X134631861Y-45821000D01*
X134380513Y-45771004D01*
X134143747Y-45672932D01*
X134143746Y-45672932D01*
X134143745Y-45672931D01*
X133930661Y-45530553D01*
X133749447Y-45349339D01*
X133607069Y-45136255D01*
X133607068Y-45136253D01*
X133508996Y-44899487D01*
X133459000Y-44648139D01*
X133459000Y-44391861D01*
X133508996Y-44140513D01*
X133607068Y-43903747D01*
X133749447Y-43690661D01*
X133930661Y-43509447D01*
X134018133Y-43451000D01*
X134143745Y-43367069D01*
X134143747Y-43367068D01*
X134380513Y-43268996D01*
X134631861Y-43219000D01*
X134888139Y-43219000D01*
X135139487Y-43268996D01*
G37*
G36*
X180248228Y-44146703D02*
G01*
X180403100Y-44210853D01*
X180542481Y-44303985D01*
X180661015Y-44422519D01*
X180754147Y-44561900D01*
X180818297Y-44716772D01*
X180851000Y-44881184D01*
X180851000Y-45048816D01*
X180818297Y-45213228D01*
X180754147Y-45368100D01*
X180661015Y-45507481D01*
X180542481Y-45626015D01*
X180403100Y-45719147D01*
X180248228Y-45783297D01*
X180083816Y-45816000D01*
X179916184Y-45816000D01*
X179751772Y-45783297D01*
X179596900Y-45719147D01*
X179457519Y-45626015D01*
X179338985Y-45507481D01*
X179245853Y-45368100D01*
X179181703Y-45213228D01*
X179149000Y-45048816D01*
X179149000Y-44881184D01*
X179181703Y-44716772D01*
X179245853Y-44561900D01*
X179338985Y-44422519D01*
X179457519Y-44303985D01*
X179596900Y-44210853D01*
X179751772Y-44146703D01*
X179916184Y-44114000D01*
X180083816Y-44114000D01*
X180248228Y-44146703D01*
G37*
G36*
X165008228Y-44146703D02*
G01*
X165163100Y-44210853D01*
X165302481Y-44303985D01*
X165421015Y-44422519D01*
X165514147Y-44561900D01*
X165578297Y-44716772D01*
X165611000Y-44881184D01*
X165611000Y-45048816D01*
X165578297Y-45213228D01*
X165514147Y-45368100D01*
X165421015Y-45507481D01*
X165302481Y-45626015D01*
X165163100Y-45719147D01*
X165008228Y-45783297D01*
X164843816Y-45816000D01*
X164676184Y-45816000D01*
X164511772Y-45783297D01*
X164356900Y-45719147D01*
X164217519Y-45626015D01*
X164098985Y-45507481D01*
X164005853Y-45368100D01*
X163941703Y-45213228D01*
X163909000Y-45048816D01*
X163909000Y-44881184D01*
X163941703Y-44716772D01*
X164005853Y-44561900D01*
X164098985Y-44422519D01*
X164217519Y-44303985D01*
X164356900Y-44210853D01*
X164511772Y-44146703D01*
X164676184Y-44114000D01*
X164843816Y-44114000D01*
X165008228Y-44146703D01*
G37*
G36*
X196351000Y-44851000D02*
G01*
X195449000Y-44851000D01*
X195449000Y-43499000D01*
X196351000Y-43499000D01*
X196351000Y-44851000D01*
G37*
G36*
X194551000Y-44851000D02*
G01*
X193649000Y-44851000D01*
X193649000Y-43499000D01*
X194551000Y-43499000D01*
X194551000Y-44851000D01*
G37*
G36*
X151876000Y-44201000D02*
G01*
X150974000Y-44201000D01*
X150974000Y-42849000D01*
X151876000Y-42849000D01*
X151876000Y-44201000D01*
G37*
G36*
X153676000Y-44201000D02*
G01*
X152774000Y-44201000D01*
X152774000Y-42849000D01*
X153676000Y-42849000D01*
X153676000Y-44201000D01*
G37*
G36*
X180248228Y-41606703D02*
G01*
X180403100Y-41670853D01*
X180542481Y-41763985D01*
X180661015Y-41882519D01*
X180754147Y-42021900D01*
X180818297Y-42176772D01*
X180851000Y-42341184D01*
X180851000Y-42508816D01*
X180818297Y-42673228D01*
X180754147Y-42828100D01*
X180661015Y-42967481D01*
X180542481Y-43086015D01*
X180403100Y-43179147D01*
X180248228Y-43243297D01*
X180083816Y-43276000D01*
X179916184Y-43276000D01*
X179751772Y-43243297D01*
X179596900Y-43179147D01*
X179457519Y-43086015D01*
X179338985Y-42967481D01*
X179245853Y-42828100D01*
X179181703Y-42673228D01*
X179149000Y-42508816D01*
X179149000Y-42341184D01*
X179181703Y-42176772D01*
X179245853Y-42021900D01*
X179338985Y-41882519D01*
X179457519Y-41763985D01*
X179596900Y-41670853D01*
X179751772Y-41606703D01*
X179916184Y-41574000D01*
X180083816Y-41574000D01*
X180248228Y-41606703D01*
G37*
G36*
X165008228Y-41606703D02*
G01*
X165163100Y-41670853D01*
X165302481Y-41763985D01*
X165421015Y-41882519D01*
X165514147Y-42021900D01*
X165578297Y-42176772D01*
X165611000Y-42341184D01*
X165611000Y-42508816D01*
X165578297Y-42673228D01*
X165514147Y-42828100D01*
X165421015Y-42967481D01*
X165302481Y-43086015D01*
X165163100Y-43179147D01*
X165008228Y-43243297D01*
X164843816Y-43276000D01*
X164676184Y-43276000D01*
X164511772Y-43243297D01*
X164356900Y-43179147D01*
X164217519Y-43086015D01*
X164098985Y-42967481D01*
X164005853Y-42828100D01*
X163941703Y-42673228D01*
X163909000Y-42508816D01*
X163909000Y-42341184D01*
X163941703Y-42176772D01*
X164005853Y-42021900D01*
X164098985Y-41882519D01*
X164217519Y-41763985D01*
X164356900Y-41670853D01*
X164511772Y-41606703D01*
X164676184Y-41574000D01*
X164843816Y-41574000D01*
X165008228Y-41606703D01*
G37*
G36*
X211301000Y-40741000D02*
G01*
X208699000Y-40741000D01*
X208699000Y-38139000D01*
X211301000Y-38139000D01*
X211301000Y-40741000D01*
G37*
G36*
X135139487Y-38188996D02*
G01*
X135376253Y-38287068D01*
X135376255Y-38287069D01*
X135589339Y-38429447D01*
X135770553Y-38610661D01*
X135912932Y-38823747D01*
X136011004Y-39060513D01*
X136061000Y-39311861D01*
X136061000Y-39568139D01*
X136011004Y-39819487D01*
X135912932Y-40056253D01*
X135912931Y-40056255D01*
X135770553Y-40269339D01*
X135589339Y-40450553D01*
X135376255Y-40592931D01*
X135376254Y-40592932D01*
X135376253Y-40592932D01*
X135139487Y-40691004D01*
X134888139Y-40741000D01*
X134631861Y-40741000D01*
X134380513Y-40691004D01*
X134143747Y-40592932D01*
X134143746Y-40592932D01*
X134143745Y-40592931D01*
X133930661Y-40450553D01*
X133749447Y-40269339D01*
X133607069Y-40056255D01*
X133607068Y-40056253D01*
X133508996Y-39819487D01*
X133459000Y-39568139D01*
X133459000Y-39311861D01*
X133508996Y-39060513D01*
X133607068Y-38823747D01*
X133749447Y-38610661D01*
X133930661Y-38429447D01*
X134143745Y-38287069D01*
X134143747Y-38287068D01*
X134380513Y-38188996D01*
X134631861Y-38139000D01*
X134888139Y-38139000D01*
X135139487Y-38188996D01*
G37*
G36*
X180248228Y-39066703D02*
G01*
X180403100Y-39130853D01*
X180542481Y-39223985D01*
X180661015Y-39342519D01*
X180754147Y-39481900D01*
X180818297Y-39636772D01*
X180851000Y-39801184D01*
X180851000Y-39968816D01*
X180818297Y-40133228D01*
X180754147Y-40288100D01*
X180661015Y-40427481D01*
X180542481Y-40546015D01*
X180403100Y-40639147D01*
X180248228Y-40703297D01*
X180083816Y-40736000D01*
X179916184Y-40736000D01*
X179751772Y-40703297D01*
X179596900Y-40639147D01*
X179457519Y-40546015D01*
X179338985Y-40427481D01*
X179245853Y-40288100D01*
X179181703Y-40133228D01*
X179149000Y-39968816D01*
X179149000Y-39801184D01*
X179181703Y-39636772D01*
X179245853Y-39481900D01*
X179338985Y-39342519D01*
X179457519Y-39223985D01*
X179596900Y-39130853D01*
X179751772Y-39066703D01*
X179916184Y-39034000D01*
X180083816Y-39034000D01*
X180248228Y-39066703D01*
G37*
G36*
X165008228Y-39066703D02*
G01*
X165163100Y-39130853D01*
X165302481Y-39223985D01*
X165421015Y-39342519D01*
X165514147Y-39481900D01*
X165578297Y-39636772D01*
X165611000Y-39801184D01*
X165611000Y-39968816D01*
X165578297Y-40133228D01*
X165514147Y-40288100D01*
X165421015Y-40427481D01*
X165302481Y-40546015D01*
X165163100Y-40639147D01*
X165008228Y-40703297D01*
X164843816Y-40736000D01*
X164676184Y-40736000D01*
X164511772Y-40703297D01*
X164356900Y-40639147D01*
X164217519Y-40546015D01*
X164098985Y-40427481D01*
X164005853Y-40288100D01*
X163941703Y-40133228D01*
X163909000Y-39968816D01*
X163909000Y-39801184D01*
X163941703Y-39636772D01*
X164005853Y-39481900D01*
X164098985Y-39342519D01*
X164217519Y-39223985D01*
X164356900Y-39130853D01*
X164511772Y-39066703D01*
X164676184Y-39034000D01*
X164843816Y-39034000D01*
X165008228Y-39066703D01*
G37*
G36*
X180248228Y-36526703D02*
G01*
X180403100Y-36590853D01*
X180542481Y-36683985D01*
X180661015Y-36802519D01*
X180754147Y-36941900D01*
X180818297Y-37096772D01*
X180851000Y-37261184D01*
X180851000Y-37428816D01*
X180818297Y-37593228D01*
X180754147Y-37748100D01*
X180661015Y-37887481D01*
X180542481Y-38006015D01*
X180403100Y-38099147D01*
X180248228Y-38163297D01*
X180083816Y-38196000D01*
X179916184Y-38196000D01*
X179751772Y-38163297D01*
X179596900Y-38099147D01*
X179457519Y-38006015D01*
X179338985Y-37887481D01*
X179245853Y-37748100D01*
X179181703Y-37593228D01*
X179149000Y-37428816D01*
X179149000Y-37261184D01*
X179181703Y-37096772D01*
X179245853Y-36941900D01*
X179338985Y-36802519D01*
X179457519Y-36683985D01*
X179596900Y-36590853D01*
X179751772Y-36526703D01*
X179916184Y-36494000D01*
X180083816Y-36494000D01*
X180248228Y-36526703D01*
G37*
G36*
X165008228Y-36526703D02*
G01*
X165163100Y-36590853D01*
X165302481Y-36683985D01*
X165421015Y-36802519D01*
X165514147Y-36941900D01*
X165578297Y-37096772D01*
X165611000Y-37261184D01*
X165611000Y-37428816D01*
X165578297Y-37593228D01*
X165514147Y-37748100D01*
X165421015Y-37887481D01*
X165302481Y-38006015D01*
X165163100Y-38099147D01*
X165008228Y-38163297D01*
X164843816Y-38196000D01*
X164676184Y-38196000D01*
X164511772Y-38163297D01*
X164356900Y-38099147D01*
X164217519Y-38006015D01*
X164098985Y-37887481D01*
X164005853Y-37748100D01*
X163941703Y-37593228D01*
X163909000Y-37428816D01*
X163909000Y-37261184D01*
X163941703Y-37096772D01*
X164005853Y-36941900D01*
X164098985Y-36802519D01*
X164217519Y-36683985D01*
X164356900Y-36590853D01*
X164511772Y-36526703D01*
X164676184Y-36494000D01*
X164843816Y-36494000D01*
X165008228Y-36526703D01*
G37*
G36*
X147251000Y-37301000D02*
G01*
X145949000Y-37301000D01*
X145949000Y-34699000D01*
X147251000Y-34699000D01*
X147251000Y-37301000D01*
G37*
G36*
X144751000Y-37301000D02*
G01*
X143449000Y-37301000D01*
X143449000Y-34699000D01*
X144751000Y-34699000D01*
X144751000Y-37301000D01*
G37*
G36*
X149751000Y-37301000D02*
G01*
X148449000Y-37301000D01*
X148449000Y-34699000D01*
X149751000Y-34699000D01*
X149751000Y-37301000D01*
G37*
G36*
X161226000Y-37301000D02*
G01*
X159924000Y-37301000D01*
X159924000Y-34699000D01*
X161226000Y-34699000D01*
X161226000Y-37301000D01*
G37*
G36*
X156226000Y-37301000D02*
G01*
X154924000Y-37301000D01*
X154924000Y-34699000D01*
X156226000Y-34699000D01*
X156226000Y-37301000D01*
G37*
G36*
X158726000Y-37301000D02*
G01*
X157424000Y-37301000D01*
X157424000Y-34699000D01*
X158726000Y-34699000D01*
X158726000Y-37301000D01*
G37*
G36*
X165008228Y-33986703D02*
G01*
X165163100Y-34050853D01*
X165302481Y-34143985D01*
X165421015Y-34262519D01*
X165514147Y-34401900D01*
X165578297Y-34556772D01*
X165611000Y-34721184D01*
X165611000Y-34888816D01*
X165578297Y-35053228D01*
X165514147Y-35208100D01*
X165421015Y-35347481D01*
X165302481Y-35466015D01*
X165163100Y-35559147D01*
X165008228Y-35623297D01*
X164843816Y-35656000D01*
X164676184Y-35656000D01*
X164511772Y-35623297D01*
X164356900Y-35559147D01*
X164217519Y-35466015D01*
X164098985Y-35347481D01*
X164005853Y-35208100D01*
X163941703Y-35053228D01*
X163909000Y-34888816D01*
X163909000Y-34721184D01*
X163941703Y-34556772D01*
X164005853Y-34401900D01*
X164098985Y-34262519D01*
X164217519Y-34143985D01*
X164356900Y-34050853D01*
X164511772Y-33986703D01*
X164676184Y-33954000D01*
X164843816Y-33954000D01*
X165008228Y-33986703D01*
G37*
G36*
X180248228Y-33986703D02*
G01*
X180403100Y-34050853D01*
X180542481Y-34143985D01*
X180661015Y-34262519D01*
X180754147Y-34401900D01*
X180818297Y-34556772D01*
X180851000Y-34721184D01*
X180851000Y-34888816D01*
X180818297Y-35053228D01*
X180754147Y-35208100D01*
X180661015Y-35347481D01*
X180542481Y-35466015D01*
X180403100Y-35559147D01*
X180248228Y-35623297D01*
X180083816Y-35656000D01*
X179916184Y-35656000D01*
X179751772Y-35623297D01*
X179596900Y-35559147D01*
X179457519Y-35466015D01*
X179338985Y-35347481D01*
X179245853Y-35208100D01*
X179181703Y-35053228D01*
X179149000Y-34888816D01*
X179149000Y-34721184D01*
X179181703Y-34556772D01*
X179245853Y-34401900D01*
X179338985Y-34262519D01*
X179457519Y-34143985D01*
X179596900Y-34050853D01*
X179751772Y-33986703D01*
X179916184Y-33954000D01*
X180083816Y-33954000D01*
X180248228Y-33986703D01*
G37*
G36*
X165008228Y-31446703D02*
G01*
X165163100Y-31510853D01*
X165302481Y-31603985D01*
X165421015Y-31722519D01*
X165514147Y-31861900D01*
X165578297Y-32016772D01*
X165611000Y-32181184D01*
X165611000Y-32348816D01*
X165578297Y-32513228D01*
X165514147Y-32668100D01*
X165421015Y-32807481D01*
X165302481Y-32926015D01*
X165163100Y-33019147D01*
X165008228Y-33083297D01*
X164843816Y-33116000D01*
X164676184Y-33116000D01*
X164511772Y-33083297D01*
X164356900Y-33019147D01*
X164217519Y-32926015D01*
X164098985Y-32807481D01*
X164005853Y-32668100D01*
X163941703Y-32513228D01*
X163909000Y-32348816D01*
X163909000Y-32181184D01*
X163941703Y-32016772D01*
X164005853Y-31861900D01*
X164098985Y-31722519D01*
X164217519Y-31603985D01*
X164356900Y-31510853D01*
X164511772Y-31446703D01*
X164676184Y-31414000D01*
X164843816Y-31414000D01*
X165008228Y-31446703D01*
G37*
G36*
X180248228Y-31446703D02*
G01*
X180403100Y-31510853D01*
X180542481Y-31603985D01*
X180661015Y-31722519D01*
X180754147Y-31861900D01*
X180818297Y-32016772D01*
X180851000Y-32181184D01*
X180851000Y-32348816D01*
X180818297Y-32513228D01*
X180754147Y-32668100D01*
X180661015Y-32807481D01*
X180542481Y-32926015D01*
X180403100Y-33019147D01*
X180248228Y-33083297D01*
X180083816Y-33116000D01*
X179916184Y-33116000D01*
X179751772Y-33083297D01*
X179596900Y-33019147D01*
X179457519Y-32926015D01*
X179338985Y-32807481D01*
X179245853Y-32668100D01*
X179181703Y-32513228D01*
X179149000Y-32348816D01*
X179149000Y-32181184D01*
X179181703Y-32016772D01*
X179245853Y-31861900D01*
X179338985Y-31722519D01*
X179457519Y-31603985D01*
X179596900Y-31510853D01*
X179751772Y-31446703D01*
X179916184Y-31414000D01*
X180083816Y-31414000D01*
X180248228Y-31446703D01*
G37*
G36*
X135135256Y-29831298D02*
G01*
X135241579Y-29852447D01*
X135542042Y-29976903D01*
X135812451Y-30157585D01*
X136042415Y-30387549D01*
X136042416Y-30387551D01*
X136223098Y-30657960D01*
X136347553Y-30958422D01*
X136411000Y-31277389D01*
X136411000Y-31602611D01*
X136387148Y-31722520D01*
X136347553Y-31921579D01*
X136223097Y-32222042D01*
X136042415Y-32492451D01*
X135812451Y-32722415D01*
X135542042Y-32903097D01*
X135241579Y-33027553D01*
X135135256Y-33048702D01*
X134922611Y-33091000D01*
X134597389Y-33091000D01*
X134384744Y-33048702D01*
X134278421Y-33027553D01*
X133977958Y-32903097D01*
X133707549Y-32722415D01*
X133477585Y-32492451D01*
X133296903Y-32222042D01*
X133172447Y-31921579D01*
X133132852Y-31722520D01*
X133109000Y-31602611D01*
X133109000Y-31277389D01*
X133172447Y-30958422D01*
X133296902Y-30657960D01*
X133477584Y-30387551D01*
X133477585Y-30387549D01*
X133707549Y-30157585D01*
X133977958Y-29976903D01*
X134278421Y-29852447D01*
X134384744Y-29831298D01*
X134597389Y-29789000D01*
X134922611Y-29789000D01*
X135135256Y-29831298D01*
G37*
G36*
X210375256Y-29831298D02*
G01*
X210481579Y-29852447D01*
X210782042Y-29976903D01*
X211052451Y-30157585D01*
X211282415Y-30387549D01*
X211282416Y-30387551D01*
X211463098Y-30657960D01*
X211587553Y-30958422D01*
X211651000Y-31277389D01*
X211651000Y-31602611D01*
X211627148Y-31722520D01*
X211587553Y-31921579D01*
X211463097Y-32222042D01*
X211282415Y-32492451D01*
X211052451Y-32722415D01*
X210782042Y-32903097D01*
X210481579Y-33027553D01*
X210375256Y-33048702D01*
X210162611Y-33091000D01*
X209837389Y-33091000D01*
X209624744Y-33048702D01*
X209518421Y-33027553D01*
X209217958Y-32903097D01*
X208947549Y-32722415D01*
X208717585Y-32492451D01*
X208536903Y-32222042D01*
X208412447Y-31921579D01*
X208372852Y-31722520D01*
X208349000Y-31602611D01*
X208349000Y-31277389D01*
X208412447Y-30958422D01*
X208536902Y-30657960D01*
X208717584Y-30387551D01*
X208717585Y-30387549D01*
X208947549Y-30157585D01*
X209217958Y-29976903D01*
X209518421Y-29852447D01*
X209624744Y-29831298D01*
X209837389Y-29789000D01*
X210162611Y-29789000D01*
X210375256Y-29831298D01*
G37*
G36*
X161226000Y-31801000D02*
G01*
X159924000Y-31801000D01*
X159924000Y-29199000D01*
X161226000Y-29199000D01*
X161226000Y-31801000D01*
G37*
G36*
X158726000Y-31801000D02*
G01*
X157424000Y-31801000D01*
X157424000Y-29199000D01*
X158726000Y-29199000D01*
X158726000Y-31801000D01*
G37*
G36*
X156226000Y-31801000D02*
G01*
X154924000Y-31801000D01*
X154924000Y-29199000D01*
X156226000Y-29199000D01*
X156226000Y-31801000D01*
G37*
G36*
X149751000Y-31801000D02*
G01*
X148449000Y-31801000D01*
X148449000Y-29199000D01*
X149751000Y-29199000D01*
X149751000Y-31801000D01*
G37*
G36*
X147251000Y-31801000D02*
G01*
X145949000Y-31801000D01*
X145949000Y-29199000D01*
X147251000Y-29199000D01*
X147251000Y-31801000D01*
G37*
G36*
X144751000Y-31801000D02*
G01*
X143449000Y-31801000D01*
X143449000Y-29199000D01*
X144751000Y-29199000D01*
X144751000Y-31801000D01*
G37*
M02*
