M48
; DRILL file {KiCad (5.1.5)-3} date 7/3/2020 9:37:26 PM
; FORMAT={-:-/ absolute / inch / decimal}
; #@! TF.CreationDate,2020-07-03T21:37:26-07:00
; #@! TF.GenerationSoftware,Kicad,Pcbnew,(5.1.5)-3
; #@! TF.FileFunction,Plated,1,2,PTH
FMAT,2
INCH
T1C0.0157
T2C0.0315
T3C0.0433
T4C0.0512
%
G90
G05
T1
X5.5935Y-3.0876
X5.6752Y-2.8504
X5.6978Y-3.2598
X5.7096Y-3.0551
X5.7096Y-3.2067
X5.7215Y-3.4961
X5.7608Y-3.1181
X5.7736Y-1.0906
X5.7736Y-1.7303
X5.7835Y-3.3543
X5.7913Y-3.5266
X5.7982Y-2.8169
X5.8061Y-3.2913
X5.8701Y-1.0728
X5.875Y-1.6142
X5.875Y-1.6988
X5.8937Y-1.7953
X6.0335Y-2.9055
X6.065Y-3.1073
X6.0679Y-3.0571
X6.0984Y-3.3543
X6.1033Y-3.2913
X6.1093Y-3.0236
X6.1093Y-3.1447
X6.125Y-1.0728
X6.2234Y-1.3041
X6.2244Y-1.6142
X6.2992Y-3.3061
X6.3051Y-2.7874
X6.3209Y-3.3543
X6.3278Y-2.938
X6.3297Y-3.1181
X6.3632Y-3.0561
X6.3878Y-1.7569
X6.5689Y-3.3553
X6.625Y-2.1713
X6.9636Y-3.5492
X7.1772Y-2.1289
X7.2266Y-2.2598
X7.241Y-1.9922
X7.251Y-1.9222
X7.2558Y-2.212
X7.4616Y-2.1801
X7.4778Y-2.2918
X7.481Y-2.2284
X7.4824Y-1.9606
X7.5068Y-2.0234
X7.5258Y-2.0883
X7.527Y-2.1848
X7.5746Y-1.8548
X7.7718Y-1.7874
X7.7774Y-1.7236
X7.7794Y-2.382
X7.7818Y-2.26
X7.7828Y-2.0246
X7.7832Y-1.96
X7.8478Y-2.4956
X7.8592Y-1.8186
X7.8622Y-1.9918
X7.8636Y-1.5532
X7.9068Y-2.4642
X8.0062Y-2.2284
T2
X6.4866Y-1.2703
X6.4866Y-1.3703
X6.4866Y-1.4703
X6.4866Y-1.5703
X6.4866Y-1.6703
X6.4866Y-1.7703
X6.4866Y-1.8703
X6.4866Y-1.9703
X6.4866Y-2.0703
X6.4866Y-2.1703
X6.4866Y-2.2703
X6.4866Y-2.3703
X6.4866Y-2.4703
X6.4866Y-2.5703
X6.4866Y-2.6703
X7.0866Y-1.2703
X7.0866Y-1.3703
X7.0866Y-1.4703
X7.0866Y-1.5703
X7.0866Y-1.6703
X7.0866Y-1.7703
X7.0866Y-1.8703
X7.0866Y-1.9703
X7.0866Y-2.0703
X7.0866Y-2.1703
X7.0866Y-2.2703
X7.0866Y-2.3703
X7.0866Y-2.4703
X7.0866Y-2.5703
X7.0866Y-2.6703
T3
X5.8866Y-4.1033
X6.0866Y-4.1033
X6.2866Y-4.1033
X6.4866Y-4.1033
X6.6866Y-4.1033
X6.8866Y-4.1033
X7.0866Y-4.1033
X7.2866Y-4.1033
X7.4866Y-4.1033
X7.6866Y-4.1033
T4
X5.3055Y-1.5528
X5.3055Y-1.7528
X5.3055Y-1.9528
X5.3055Y-2.1528
X5.3055Y-2.3528
X5.3055Y-2.5528
X5.3055Y-2.7528
X5.3055Y-2.9528
X5.3055Y-3.1528
X5.3055Y-3.3528
X5.3055Y-3.5528
X5.3055Y-3.7528
X8.2677Y-1.5528
X8.2677Y-1.7528
X8.2677Y-1.9528
X8.2677Y-2.1528
X8.2677Y-2.3528
X8.2677Y-2.5528
X8.2677Y-2.7528
X8.2677Y-2.9528
X8.2677Y-3.1528
X8.2677Y-3.3528
X8.2677Y-3.5528
X8.2677Y-3.7528
T0
M30
