G04 #@! TF.GenerationSoftware,KiCad,Pcbnew,(5.1.5)-3*
G04 #@! TF.CreationDate,2020-07-03T21:37:29-07:00*
G04 #@! TF.ProjectId,Arduino_control_board,41726475-696e-46f5-9f63-6f6e74726f6c,rev?*
G04 #@! TF.SameCoordinates,Original*
G04 #@! TF.FileFunction,Legend,Top*
G04 #@! TF.FilePolarity,Positive*
%FSLAX46Y46*%
G04 Gerber Fmt 4.6, Leading zero omitted, Abs format (unit mm)*
G04 Created by KiCad (PCBNEW (5.1.5)-3) date 2020-07-03 21:37:29*
%MOMM*%
%LPD*%
G04 APERTURE LIST*
%ADD10C,0.300000*%
%ADD11C,0.120000*%
%ADD12C,0.150000*%
G04 APERTURE END LIST*
D10*
X178576190Y-98684523D02*
X178861904Y-98779761D01*
X179338095Y-98779761D01*
X179528571Y-98684523D01*
X179623809Y-98589285D01*
X179719047Y-98398809D01*
X179719047Y-98208333D01*
X179623809Y-98017857D01*
X179528571Y-97922619D01*
X179338095Y-97827380D01*
X178957142Y-97732142D01*
X178766666Y-97636904D01*
X178671428Y-97541666D01*
X178576190Y-97351190D01*
X178576190Y-97160714D01*
X178671428Y-96970238D01*
X178766666Y-96875000D01*
X178957142Y-96779761D01*
X179433333Y-96779761D01*
X179719047Y-96875000D01*
X181623809Y-98779761D02*
X180480952Y-98779761D01*
X181052380Y-98779761D02*
X181052380Y-96779761D01*
X180861904Y-97065476D01*
X180671428Y-97255952D01*
X180480952Y-97351190D01*
X163301190Y-98684523D02*
X163586904Y-98779761D01*
X164063095Y-98779761D01*
X164253571Y-98684523D01*
X164348809Y-98589285D01*
X164444047Y-98398809D01*
X164444047Y-98208333D01*
X164348809Y-98017857D01*
X164253571Y-97922619D01*
X164063095Y-97827380D01*
X163682142Y-97732142D01*
X163491666Y-97636904D01*
X163396428Y-97541666D01*
X163301190Y-97351190D01*
X163301190Y-97160714D01*
X163396428Y-96970238D01*
X163491666Y-96875000D01*
X163682142Y-96779761D01*
X164158333Y-96779761D01*
X164444047Y-96875000D01*
X165205952Y-96970238D02*
X165301190Y-96875000D01*
X165491666Y-96779761D01*
X165967857Y-96779761D01*
X166158333Y-96875000D01*
X166253571Y-96970238D01*
X166348809Y-97160714D01*
X166348809Y-97351190D01*
X166253571Y-97636904D01*
X165110714Y-98779761D01*
X166348809Y-98779761D01*
X174423809Y-98208333D02*
X175376190Y-98208333D01*
X174233333Y-98779761D02*
X174900000Y-96779761D01*
X175566666Y-98779761D01*
X169992857Y-97732142D02*
X170278571Y-97827380D01*
X170373809Y-97922619D01*
X170469047Y-98113095D01*
X170469047Y-98398809D01*
X170373809Y-98589285D01*
X170278571Y-98684523D01*
X170088095Y-98779761D01*
X169326190Y-98779761D01*
X169326190Y-96779761D01*
X169992857Y-96779761D01*
X170183333Y-96875000D01*
X170278571Y-96970238D01*
X170373809Y-97160714D01*
X170373809Y-97351190D01*
X170278571Y-97541666D01*
X170183333Y-97636904D01*
X169992857Y-97732142D01*
X169326190Y-97732142D01*
X183504761Y-97967857D02*
X185028571Y-97967857D01*
X185695238Y-96729761D02*
X186361904Y-98729761D01*
X187028571Y-96729761D01*
X188838095Y-98539285D02*
X188742857Y-98634523D01*
X188457142Y-98729761D01*
X188266666Y-98729761D01*
X187980952Y-98634523D01*
X187790476Y-98444047D01*
X187695238Y-98253571D01*
X187600000Y-97872619D01*
X187600000Y-97586904D01*
X187695238Y-97205952D01*
X187790476Y-97015476D01*
X187980952Y-96825000D01*
X188266666Y-96729761D01*
X188457142Y-96729761D01*
X188742857Y-96825000D01*
X188838095Y-96920238D01*
X190838095Y-98539285D02*
X190742857Y-98634523D01*
X190457142Y-98729761D01*
X190266666Y-98729761D01*
X189980952Y-98634523D01*
X189790476Y-98444047D01*
X189695238Y-98253571D01*
X189600000Y-97872619D01*
X189600000Y-97586904D01*
X189695238Y-97205952D01*
X189790476Y-97015476D01*
X189980952Y-96825000D01*
X190266666Y-96729761D01*
X190457142Y-96729761D01*
X190742857Y-96825000D01*
X190838095Y-96920238D01*
X191695238Y-97967857D02*
X193219047Y-97967857D01*
X194171428Y-97967857D02*
X195695238Y-97967857D01*
X148739285Y-98017857D02*
X150263095Y-98017857D01*
X151215476Y-98017857D02*
X152739285Y-98017857D01*
X154739285Y-96875000D02*
X154548809Y-96779761D01*
X154263095Y-96779761D01*
X153977380Y-96875000D01*
X153786904Y-97065476D01*
X153691666Y-97255952D01*
X153596428Y-97636904D01*
X153596428Y-97922619D01*
X153691666Y-98303571D01*
X153786904Y-98494047D01*
X153977380Y-98684523D01*
X154263095Y-98779761D01*
X154453571Y-98779761D01*
X154739285Y-98684523D01*
X154834523Y-98589285D01*
X154834523Y-97922619D01*
X154453571Y-97922619D01*
X155691666Y-98779761D02*
X155691666Y-96779761D01*
X156834523Y-98779761D01*
X156834523Y-96779761D01*
X157786904Y-98779761D02*
X157786904Y-96779761D01*
X158263095Y-96779761D01*
X158548809Y-96875000D01*
X158739285Y-97065476D01*
X158834523Y-97255952D01*
X158929761Y-97636904D01*
X158929761Y-97922619D01*
X158834523Y-98303571D01*
X158739285Y-98494047D01*
X158548809Y-98684523D01*
X158263095Y-98779761D01*
X157786904Y-98779761D01*
X159786904Y-98017857D02*
X161310714Y-98017857D01*
X174928571Y-80907142D02*
X176642857Y-80907142D01*
X175785714Y-83907142D02*
X175785714Y-80907142D01*
X177642857Y-83907142D02*
X177642857Y-80907142D01*
X177642857Y-82335714D02*
X179357142Y-82335714D01*
X179357142Y-83907142D02*
X179357142Y-80907142D01*
X180785714Y-83907142D02*
X180785714Y-80907142D01*
X182500000Y-83907142D02*
X181214285Y-82192857D01*
X182500000Y-80907142D02*
X180785714Y-82621428D01*
X183785714Y-82764285D02*
X186071428Y-82764285D01*
X188071428Y-80907142D02*
X188357142Y-80907142D01*
X188642857Y-81050000D01*
X188785714Y-81192857D01*
X188928571Y-81478571D01*
X189071428Y-82050000D01*
X189071428Y-82764285D01*
X188928571Y-83335714D01*
X188785714Y-83621428D01*
X188642857Y-83764285D01*
X188357142Y-83907142D01*
X188071428Y-83907142D01*
X187785714Y-83764285D01*
X187642857Y-83621428D01*
X187500000Y-83335714D01*
X187357142Y-82764285D01*
X187357142Y-82050000D01*
X187500000Y-81478571D01*
X187642857Y-81192857D01*
X187785714Y-81050000D01*
X188071428Y-80907142D01*
X190928571Y-80907142D02*
X191214285Y-80907142D01*
X191500000Y-81050000D01*
X191642857Y-81192857D01*
X191785714Y-81478571D01*
X191928571Y-82050000D01*
X191928571Y-82764285D01*
X191785714Y-83335714D01*
X191642857Y-83621428D01*
X191500000Y-83764285D01*
X191214285Y-83907142D01*
X190928571Y-83907142D01*
X190642857Y-83764285D01*
X190500000Y-83621428D01*
X190357142Y-83335714D01*
X190214285Y-82764285D01*
X190214285Y-82050000D01*
X190357142Y-81478571D01*
X190500000Y-81192857D01*
X190642857Y-81050000D01*
X190928571Y-80907142D01*
X193071428Y-81192857D02*
X193214285Y-81050000D01*
X193500000Y-80907142D01*
X194214285Y-80907142D01*
X194500000Y-81050000D01*
X194642857Y-81192857D01*
X194785714Y-81478571D01*
X194785714Y-81764285D01*
X194642857Y-82192857D01*
X192928571Y-83907142D01*
X194785714Y-83907142D01*
X160525000Y-27853571D02*
X160525000Y-26353571D01*
X144075000Y-27828571D02*
X144075000Y-26328571D01*
X152432142Y-32453571D02*
X152717857Y-32453571D01*
X152860714Y-32525000D01*
X153003571Y-32667857D01*
X153075000Y-32953571D01*
X153075000Y-33453571D01*
X153003571Y-33739285D01*
X152860714Y-33882142D01*
X152717857Y-33953571D01*
X152432142Y-33953571D01*
X152289285Y-33882142D01*
X152146428Y-33739285D01*
X152075000Y-33453571D01*
X152075000Y-32953571D01*
X152146428Y-32667857D01*
X152289285Y-32525000D01*
X152432142Y-32453571D01*
D11*
X178730000Y-66555000D02*
X178730000Y-69095000D01*
X178730000Y-69095000D02*
X181400000Y-69095000D01*
X181400000Y-66555000D02*
X181400000Y-28325000D01*
X181400000Y-71765000D02*
X181400000Y-69095000D01*
X166030000Y-69095000D02*
X163360000Y-69095000D01*
X166030000Y-69095000D02*
X166030000Y-30995000D01*
X166030000Y-30995000D02*
X163360000Y-30995000D01*
X178730000Y-66555000D02*
X181400000Y-66555000D01*
X178730000Y-66555000D02*
X178730000Y-30995000D01*
X178730000Y-30995000D02*
X181400000Y-30995000D01*
X181400000Y-28325000D02*
X163360000Y-28325000D01*
X163360000Y-28325000D02*
X163360000Y-71765000D01*
X163360000Y-71765000D02*
X181400000Y-71765000D01*
X208516648Y-40228712D02*
G75*
G02X208320000Y-39440000I1483352J788712D01*
G01*
X210789088Y-40923953D02*
G75*
G02X209211000Y-40924000I-789088J1483953D01*
G01*
X211483953Y-38650912D02*
G75*
G02X211484000Y-40229000I-1483953J-789088D01*
G01*
X209210912Y-37956047D02*
G75*
G02X210789000Y-37956000I789088J-1483953D01*
G01*
X208319550Y-39469383D02*
G75*
G02X208516000Y-38651000I1680450J29383D01*
G01*
X211680000Y-44520000D02*
G75*
G03X211680000Y-44520000I-1680000J0D01*
G01*
X211680000Y-49600000D02*
G75*
G03X211680000Y-49600000I-1680000J0D01*
G01*
X211680000Y-54680000D02*
G75*
G03X211680000Y-54680000I-1680000J0D01*
G01*
X211680000Y-59760000D02*
G75*
G03X211680000Y-59760000I-1680000J0D01*
G01*
X211680000Y-64840000D02*
G75*
G03X211680000Y-64840000I-1680000J0D01*
G01*
X211680000Y-69920000D02*
G75*
G03X211680000Y-69920000I-1680000J0D01*
G01*
X211680000Y-75000000D02*
G75*
G03X211680000Y-75000000I-1680000J0D01*
G01*
X211680000Y-80080000D02*
G75*
G03X211680000Y-80080000I-1680000J0D01*
G01*
X211680000Y-85160000D02*
G75*
G03X211680000Y-85160000I-1680000J0D01*
G01*
X211680000Y-90240000D02*
G75*
G03X211680000Y-90240000I-1680000J0D01*
G01*
X211680000Y-95320000D02*
G75*
G03X211680000Y-95320000I-1680000J0D01*
G01*
X205300000Y-36840000D02*
X205300000Y-97920000D01*
X207500000Y-36840000D02*
X207500000Y-97920000D01*
X213300000Y-36840000D02*
X213300000Y-97920000D01*
X215360000Y-36840000D02*
X215360000Y-97920000D01*
X204640000Y-36840000D02*
X204640000Y-97920000D01*
X215360000Y-36840000D02*
X204640000Y-36840000D01*
X215360000Y-97920000D02*
X204640000Y-97920000D01*
X215050000Y-38190000D02*
X215050000Y-40690000D01*
X214550000Y-38190000D02*
X214550000Y-40690000D01*
X215050000Y-38190000D02*
X214550000Y-38190000D01*
X215050000Y-40690000D02*
X214550000Y-40690000D01*
X211069000Y-45795000D02*
X210976000Y-45701000D01*
X208784000Y-43510000D02*
X208726000Y-43451000D01*
X211275000Y-45590000D02*
X211216000Y-45531000D01*
X209024000Y-43340000D02*
X208931000Y-43246000D01*
X215050000Y-43270000D02*
X215050000Y-45770000D01*
X214550000Y-43270000D02*
X214550000Y-45770000D01*
X215050000Y-43270000D02*
X214550000Y-43270000D01*
X215050000Y-45770000D02*
X214550000Y-45770000D01*
X211069000Y-50875000D02*
X210976000Y-50781000D01*
X208784000Y-48590000D02*
X208726000Y-48531000D01*
X211275000Y-50670000D02*
X211216000Y-50611000D01*
X209024000Y-48420000D02*
X208931000Y-48326000D01*
X215050000Y-48350000D02*
X215050000Y-50850000D01*
X214550000Y-48350000D02*
X214550000Y-50850000D01*
X215050000Y-48350000D02*
X214550000Y-48350000D01*
X215050000Y-50850000D02*
X214550000Y-50850000D01*
X211069000Y-55955000D02*
X210976000Y-55861000D01*
X208784000Y-53670000D02*
X208726000Y-53611000D01*
X211275000Y-55750000D02*
X211216000Y-55691000D01*
X209024000Y-53500000D02*
X208931000Y-53406000D01*
X215050000Y-53430000D02*
X215050000Y-55930000D01*
X214550000Y-53430000D02*
X214550000Y-55930000D01*
X215050000Y-53430000D02*
X214550000Y-53430000D01*
X215050000Y-55930000D02*
X214550000Y-55930000D01*
X211069000Y-61035000D02*
X210976000Y-60941000D01*
X208784000Y-58750000D02*
X208726000Y-58691000D01*
X211275000Y-60830000D02*
X211216000Y-60771000D01*
X209024000Y-58580000D02*
X208931000Y-58486000D01*
X215050000Y-58510000D02*
X215050000Y-61010000D01*
X214550000Y-58510000D02*
X214550000Y-61010000D01*
X215050000Y-58510000D02*
X214550000Y-58510000D01*
X215050000Y-61010000D02*
X214550000Y-61010000D01*
X211069000Y-66115000D02*
X210976000Y-66021000D01*
X208784000Y-63830000D02*
X208726000Y-63771000D01*
X211275000Y-65910000D02*
X211216000Y-65851000D01*
X209024000Y-63660000D02*
X208931000Y-63566000D01*
X215050000Y-63590000D02*
X215050000Y-66090000D01*
X214550000Y-63590000D02*
X214550000Y-66090000D01*
X215050000Y-63590000D02*
X214550000Y-63590000D01*
X215050000Y-66090000D02*
X214550000Y-66090000D01*
X211069000Y-71195000D02*
X210976000Y-71101000D01*
X208784000Y-68910000D02*
X208726000Y-68851000D01*
X211275000Y-70990000D02*
X211216000Y-70931000D01*
X209024000Y-68740000D02*
X208931000Y-68646000D01*
X215050000Y-68670000D02*
X215050000Y-71170000D01*
X214550000Y-68670000D02*
X214550000Y-71170000D01*
X215050000Y-68670000D02*
X214550000Y-68670000D01*
X215050000Y-71170000D02*
X214550000Y-71170000D01*
X211069000Y-76275000D02*
X210976000Y-76181000D01*
X208784000Y-73990000D02*
X208726000Y-73931000D01*
X211275000Y-76070000D02*
X211216000Y-76011000D01*
X209024000Y-73820000D02*
X208931000Y-73726000D01*
X215050000Y-73750000D02*
X215050000Y-76250000D01*
X214550000Y-73750000D02*
X214550000Y-76250000D01*
X215050000Y-73750000D02*
X214550000Y-73750000D01*
X215050000Y-76250000D02*
X214550000Y-76250000D01*
X211069000Y-81355000D02*
X210976000Y-81261000D01*
X208784000Y-79070000D02*
X208726000Y-79011000D01*
X211275000Y-81150000D02*
X211216000Y-81091000D01*
X209024000Y-78900000D02*
X208931000Y-78806000D01*
X215050000Y-78830000D02*
X215050000Y-81330000D01*
X214550000Y-78830000D02*
X214550000Y-81330000D01*
X215050000Y-78830000D02*
X214550000Y-78830000D01*
X215050000Y-81330000D02*
X214550000Y-81330000D01*
X211069000Y-86435000D02*
X210976000Y-86341000D01*
X208784000Y-84150000D02*
X208726000Y-84091000D01*
X211275000Y-86230000D02*
X211216000Y-86171000D01*
X209024000Y-83980000D02*
X208931000Y-83886000D01*
X215050000Y-83910000D02*
X215050000Y-86410000D01*
X214550000Y-83910000D02*
X214550000Y-86410000D01*
X215050000Y-83910000D02*
X214550000Y-83910000D01*
X215050000Y-86410000D02*
X214550000Y-86410000D01*
X211069000Y-91515000D02*
X210976000Y-91421000D01*
X208784000Y-89230000D02*
X208726000Y-89171000D01*
X211275000Y-91310000D02*
X211216000Y-91251000D01*
X209024000Y-89060000D02*
X208931000Y-88966000D01*
X215050000Y-88990000D02*
X215050000Y-91490000D01*
X214550000Y-88990000D02*
X214550000Y-91490000D01*
X215050000Y-88990000D02*
X214550000Y-88990000D01*
X215050000Y-91490000D02*
X214550000Y-91490000D01*
X211069000Y-96595000D02*
X210976000Y-96501000D01*
X208784000Y-94310000D02*
X208726000Y-94251000D01*
X211275000Y-96390000D02*
X211216000Y-96331000D01*
X209024000Y-94140000D02*
X208931000Y-94046000D01*
X215050000Y-94070000D02*
X215050000Y-96570000D01*
X214550000Y-94070000D02*
X214550000Y-96570000D01*
X215050000Y-94070000D02*
X214550000Y-94070000D01*
X215050000Y-96570000D02*
X214550000Y-96570000D01*
X205240000Y-36600000D02*
X204400000Y-36600000D01*
X204400000Y-36600000D02*
X204400000Y-37200000D01*
X140360000Y-98160000D02*
X140360000Y-97560000D01*
X139520000Y-98160000D02*
X140360000Y-98160000D01*
X129710000Y-38190000D02*
X130210000Y-38190000D01*
X129710000Y-40690000D02*
X130210000Y-40690000D01*
X130210000Y-40690000D02*
X130210000Y-38190000D01*
X129710000Y-40690000D02*
X129710000Y-38190000D01*
X135736000Y-40620000D02*
X135829000Y-40714000D01*
X133485000Y-38370000D02*
X133544000Y-38429000D01*
X135976000Y-40450000D02*
X136034000Y-40509000D01*
X133691000Y-38165000D02*
X133784000Y-38259000D01*
X129710000Y-43270000D02*
X130210000Y-43270000D01*
X129710000Y-45770000D02*
X130210000Y-45770000D01*
X130210000Y-45770000D02*
X130210000Y-43270000D01*
X129710000Y-45770000D02*
X129710000Y-43270000D01*
X135736000Y-45700000D02*
X135829000Y-45794000D01*
X133485000Y-43450000D02*
X133544000Y-43509000D01*
X135976000Y-45530000D02*
X136034000Y-45589000D01*
X133691000Y-43245000D02*
X133784000Y-43339000D01*
X129710000Y-48350000D02*
X130210000Y-48350000D01*
X129710000Y-50850000D02*
X130210000Y-50850000D01*
X130210000Y-50850000D02*
X130210000Y-48350000D01*
X129710000Y-50850000D02*
X129710000Y-48350000D01*
X135736000Y-50780000D02*
X135829000Y-50874000D01*
X133485000Y-48530000D02*
X133544000Y-48589000D01*
X135976000Y-50610000D02*
X136034000Y-50669000D01*
X133691000Y-48325000D02*
X133784000Y-48419000D01*
X129710000Y-53430000D02*
X130210000Y-53430000D01*
X129710000Y-55930000D02*
X130210000Y-55930000D01*
X130210000Y-55930000D02*
X130210000Y-53430000D01*
X129710000Y-55930000D02*
X129710000Y-53430000D01*
X135736000Y-55860000D02*
X135829000Y-55954000D01*
X133485000Y-53610000D02*
X133544000Y-53669000D01*
X135976000Y-55690000D02*
X136034000Y-55749000D01*
X133691000Y-53405000D02*
X133784000Y-53499000D01*
X129710000Y-58510000D02*
X130210000Y-58510000D01*
X129710000Y-61010000D02*
X130210000Y-61010000D01*
X130210000Y-61010000D02*
X130210000Y-58510000D01*
X129710000Y-61010000D02*
X129710000Y-58510000D01*
X135736000Y-60940000D02*
X135829000Y-61034000D01*
X133485000Y-58690000D02*
X133544000Y-58749000D01*
X135976000Y-60770000D02*
X136034000Y-60829000D01*
X133691000Y-58485000D02*
X133784000Y-58579000D01*
X129710000Y-63590000D02*
X130210000Y-63590000D01*
X129710000Y-66090000D02*
X130210000Y-66090000D01*
X130210000Y-66090000D02*
X130210000Y-63590000D01*
X129710000Y-66090000D02*
X129710000Y-63590000D01*
X135736000Y-66020000D02*
X135829000Y-66114000D01*
X133485000Y-63770000D02*
X133544000Y-63829000D01*
X135976000Y-65850000D02*
X136034000Y-65909000D01*
X133691000Y-63565000D02*
X133784000Y-63659000D01*
X129710000Y-68670000D02*
X130210000Y-68670000D01*
X129710000Y-71170000D02*
X130210000Y-71170000D01*
X130210000Y-71170000D02*
X130210000Y-68670000D01*
X129710000Y-71170000D02*
X129710000Y-68670000D01*
X135736000Y-71100000D02*
X135829000Y-71194000D01*
X133485000Y-68850000D02*
X133544000Y-68909000D01*
X135976000Y-70930000D02*
X136034000Y-70989000D01*
X133691000Y-68645000D02*
X133784000Y-68739000D01*
X129710000Y-73750000D02*
X130210000Y-73750000D01*
X129710000Y-76250000D02*
X130210000Y-76250000D01*
X130210000Y-76250000D02*
X130210000Y-73750000D01*
X129710000Y-76250000D02*
X129710000Y-73750000D01*
X135736000Y-76180000D02*
X135829000Y-76274000D01*
X133485000Y-73930000D02*
X133544000Y-73989000D01*
X135976000Y-76010000D02*
X136034000Y-76069000D01*
X133691000Y-73725000D02*
X133784000Y-73819000D01*
X129710000Y-78830000D02*
X130210000Y-78830000D01*
X129710000Y-81330000D02*
X130210000Y-81330000D01*
X130210000Y-81330000D02*
X130210000Y-78830000D01*
X129710000Y-81330000D02*
X129710000Y-78830000D01*
X135736000Y-81260000D02*
X135829000Y-81354000D01*
X133485000Y-79010000D02*
X133544000Y-79069000D01*
X135976000Y-81090000D02*
X136034000Y-81149000D01*
X133691000Y-78805000D02*
X133784000Y-78899000D01*
X129710000Y-83910000D02*
X130210000Y-83910000D01*
X129710000Y-86410000D02*
X130210000Y-86410000D01*
X130210000Y-86410000D02*
X130210000Y-83910000D01*
X129710000Y-86410000D02*
X129710000Y-83910000D01*
X135736000Y-86340000D02*
X135829000Y-86434000D01*
X133485000Y-84090000D02*
X133544000Y-84149000D01*
X135976000Y-86170000D02*
X136034000Y-86229000D01*
X133691000Y-83885000D02*
X133784000Y-83979000D01*
X129710000Y-88990000D02*
X130210000Y-88990000D01*
X129710000Y-91490000D02*
X130210000Y-91490000D01*
X130210000Y-91490000D02*
X130210000Y-88990000D01*
X129710000Y-91490000D02*
X129710000Y-88990000D01*
X135736000Y-91420000D02*
X135829000Y-91514000D01*
X133485000Y-89170000D02*
X133544000Y-89229000D01*
X135976000Y-91250000D02*
X136034000Y-91309000D01*
X133691000Y-88965000D02*
X133784000Y-89059000D01*
X129710000Y-94070000D02*
X130210000Y-94070000D01*
X129710000Y-96570000D02*
X130210000Y-96570000D01*
X130210000Y-96570000D02*
X130210000Y-94070000D01*
X129710000Y-96570000D02*
X129710000Y-94070000D01*
X129400000Y-36840000D02*
X140120000Y-36840000D01*
X129400000Y-97920000D02*
X140120000Y-97920000D01*
X140120000Y-97920000D02*
X140120000Y-36840000D01*
X129400000Y-97920000D02*
X129400000Y-36840000D01*
X131460000Y-97920000D02*
X131460000Y-36840000D01*
X137260000Y-97920000D02*
X137260000Y-36840000D01*
X139460000Y-97920000D02*
X139460000Y-36840000D01*
X136440000Y-39440000D02*
G75*
G03X136440000Y-39440000I-1680000J0D01*
G01*
X136440000Y-44520000D02*
G75*
G03X136440000Y-44520000I-1680000J0D01*
G01*
X136440000Y-49600000D02*
G75*
G03X136440000Y-49600000I-1680000J0D01*
G01*
X136440000Y-54680000D02*
G75*
G03X136440000Y-54680000I-1680000J0D01*
G01*
X136440000Y-59760000D02*
G75*
G03X136440000Y-59760000I-1680000J0D01*
G01*
X136440000Y-64840000D02*
G75*
G03X136440000Y-64840000I-1680000J0D01*
G01*
X136440000Y-69920000D02*
G75*
G03X136440000Y-69920000I-1680000J0D01*
G01*
X136440000Y-75000000D02*
G75*
G03X136440000Y-75000000I-1680000J0D01*
G01*
X136440000Y-80080000D02*
G75*
G03X136440000Y-80080000I-1680000J0D01*
G01*
X136440000Y-85160000D02*
G75*
G03X136440000Y-85160000I-1680000J0D01*
G01*
X136440000Y-90240000D02*
G75*
G03X136440000Y-90240000I-1680000J0D01*
G01*
X136440450Y-95290617D02*
G75*
G02X136244000Y-96109000I-1680450J-29383D01*
G01*
X135549088Y-96803953D02*
G75*
G02X133971000Y-96804000I-789088J1483953D01*
G01*
X133276047Y-96109088D02*
G75*
G02X133276000Y-94531000I1483953J789088D01*
G01*
X133970912Y-93836047D02*
G75*
G02X135549000Y-93836000I789088J-1483953D01*
G01*
X136243352Y-94531288D02*
G75*
G02X136440000Y-95320000I-1483352J-788712D01*
G01*
X194500000Y-46680000D02*
X195500000Y-46680000D01*
X194500000Y-43320000D02*
X195500000Y-43320000D01*
X194500000Y-49320000D02*
X195500000Y-49320000D01*
X194500000Y-52680000D02*
X195500000Y-52680000D01*
X194500000Y-58680000D02*
X195500000Y-58680000D01*
X194500000Y-55320000D02*
X195500000Y-55320000D01*
X194500000Y-61320000D02*
X195500000Y-61320000D01*
X194500000Y-64680000D02*
X195500000Y-64680000D01*
X186500000Y-49320000D02*
X187500000Y-49320000D01*
X186500000Y-52680000D02*
X187500000Y-52680000D01*
X186500000Y-58680000D02*
X187500000Y-58680000D01*
X186500000Y-55320000D02*
X187500000Y-55320000D01*
X151825000Y-46030000D02*
X152825000Y-46030000D01*
X151825000Y-42670000D02*
X152825000Y-42670000D01*
X150243160Y-88320000D02*
X149243160Y-88320000D01*
X150243160Y-91680000D02*
X149243160Y-91680000D01*
X150243160Y-85680000D02*
X149243160Y-85680000D01*
X150243160Y-82320000D02*
X149243160Y-82320000D01*
X150243160Y-76320000D02*
X149243160Y-76320000D01*
X150243160Y-79680000D02*
X149243160Y-79680000D01*
X150243160Y-73680000D02*
X149243160Y-73680000D01*
X150243160Y-70320000D02*
X149243160Y-70320000D01*
X158243160Y-85680000D02*
X157243160Y-85680000D01*
X158243160Y-82320000D02*
X157243160Y-82320000D01*
X158243160Y-76320000D02*
X157243160Y-76320000D01*
X158243160Y-79680000D02*
X157243160Y-79680000D01*
X158243160Y-70320000D02*
X157243160Y-70320000D01*
X158243160Y-73680000D02*
X157243160Y-73680000D01*
X194613129Y-102939725D02*
G75*
G02X195240000Y-102795000I626871J-1285275D01*
G01*
X193954176Y-104852362D02*
G75*
G02X193954000Y-103598000I1285824J627362D01*
G01*
X195867362Y-105510824D02*
G75*
G02X194613000Y-105511000I-627362J1285824D01*
G01*
X196526611Y-103598254D02*
G75*
G02X196526000Y-104853000I-1286611J-626746D01*
G01*
X195215720Y-102794060D02*
G75*
G02X195868000Y-102939000I24280J-1430940D01*
G01*
X191590000Y-104225000D02*
G75*
G03X191590000Y-104225000I-1430000J0D01*
G01*
X186510000Y-104225000D02*
G75*
G03X186510000Y-104225000I-1430000J0D01*
G01*
X181430000Y-104225000D02*
G75*
G03X181430000Y-104225000I-1430000J0D01*
G01*
X176350000Y-104225000D02*
G75*
G03X176350000Y-104225000I-1430000J0D01*
G01*
X171270000Y-104225000D02*
G75*
G03X171270000Y-104225000I-1430000J0D01*
G01*
X166190000Y-104225000D02*
G75*
G03X166190000Y-104225000I-1430000J0D01*
G01*
X161110000Y-104225000D02*
G75*
G03X161110000Y-104225000I-1430000J0D01*
G01*
X156030000Y-104225000D02*
G75*
G03X156030000Y-104225000I-1430000J0D01*
G01*
X150950000Y-104225000D02*
G75*
G03X150950000Y-104225000I-1430000J0D01*
G01*
X197840000Y-100675000D02*
X146920000Y-100675000D01*
X197840000Y-101775000D02*
X146920000Y-101775000D01*
X197840000Y-106775000D02*
X146920000Y-106775000D01*
X197840000Y-108685000D02*
X146920000Y-108685000D01*
X197840000Y-100115000D02*
X146920000Y-100115000D01*
X197840000Y-108685000D02*
X197840000Y-100115000D01*
X146920000Y-108685000D02*
X146920000Y-100115000D01*
X196490000Y-108625000D02*
X193990000Y-108625000D01*
X196490000Y-107625000D02*
X193990000Y-107625000D01*
X196490000Y-108625000D02*
X196490000Y-107625000D01*
X193990000Y-108625000D02*
X193990000Y-107625000D01*
X189075000Y-105135000D02*
X189135000Y-105076000D01*
X191030000Y-103180000D02*
X191070000Y-103140000D01*
X189249000Y-105310000D02*
X189289000Y-105270000D01*
X191184000Y-103375000D02*
X191244000Y-103315000D01*
X191410000Y-108625000D02*
X188910000Y-108625000D01*
X191410000Y-107625000D02*
X188910000Y-107625000D01*
X191410000Y-108625000D02*
X191410000Y-107625000D01*
X188910000Y-108625000D02*
X188910000Y-107625000D01*
X183995000Y-105135000D02*
X184055000Y-105076000D01*
X185950000Y-103180000D02*
X185990000Y-103140000D01*
X184169000Y-105310000D02*
X184209000Y-105270000D01*
X186104000Y-103375000D02*
X186164000Y-103315000D01*
X186330000Y-108625000D02*
X183830000Y-108625000D01*
X186330000Y-107625000D02*
X183830000Y-107625000D01*
X186330000Y-108625000D02*
X186330000Y-107625000D01*
X183830000Y-108625000D02*
X183830000Y-107625000D01*
X178915000Y-105135000D02*
X178975000Y-105076000D01*
X180870000Y-103180000D02*
X180910000Y-103140000D01*
X179089000Y-105310000D02*
X179129000Y-105270000D01*
X181024000Y-103375000D02*
X181084000Y-103315000D01*
X181250000Y-108625000D02*
X178750000Y-108625000D01*
X181250000Y-107625000D02*
X178750000Y-107625000D01*
X181250000Y-108625000D02*
X181250000Y-107625000D01*
X178750000Y-108625000D02*
X178750000Y-107625000D01*
X173835000Y-105135000D02*
X173895000Y-105076000D01*
X175790000Y-103180000D02*
X175830000Y-103140000D01*
X174009000Y-105310000D02*
X174049000Y-105270000D01*
X175944000Y-103375000D02*
X176004000Y-103315000D01*
X176170000Y-108625000D02*
X173670000Y-108625000D01*
X176170000Y-107625000D02*
X173670000Y-107625000D01*
X176170000Y-108625000D02*
X176170000Y-107625000D01*
X173670000Y-108625000D02*
X173670000Y-107625000D01*
X168755000Y-105135000D02*
X168815000Y-105076000D01*
X170710000Y-103180000D02*
X170750000Y-103140000D01*
X168929000Y-105310000D02*
X168969000Y-105270000D01*
X170864000Y-103375000D02*
X170924000Y-103315000D01*
X171090000Y-108625000D02*
X168590000Y-108625000D01*
X171090000Y-107625000D02*
X168590000Y-107625000D01*
X171090000Y-108625000D02*
X171090000Y-107625000D01*
X168590000Y-108625000D02*
X168590000Y-107625000D01*
X163675000Y-105135000D02*
X163735000Y-105076000D01*
X165630000Y-103180000D02*
X165670000Y-103140000D01*
X163849000Y-105310000D02*
X163889000Y-105270000D01*
X165784000Y-103375000D02*
X165844000Y-103315000D01*
X166010000Y-108625000D02*
X163510000Y-108625000D01*
X166010000Y-107625000D02*
X163510000Y-107625000D01*
X166010000Y-108625000D02*
X166010000Y-107625000D01*
X163510000Y-108625000D02*
X163510000Y-107625000D01*
X158595000Y-105135000D02*
X158655000Y-105076000D01*
X160550000Y-103180000D02*
X160590000Y-103140000D01*
X158769000Y-105310000D02*
X158809000Y-105270000D01*
X160704000Y-103375000D02*
X160764000Y-103315000D01*
X160930000Y-108625000D02*
X158430000Y-108625000D01*
X160930000Y-107625000D02*
X158430000Y-107625000D01*
X160930000Y-108625000D02*
X160930000Y-107625000D01*
X158430000Y-108625000D02*
X158430000Y-107625000D01*
X153515000Y-105135000D02*
X153575000Y-105076000D01*
X155470000Y-103180000D02*
X155510000Y-103140000D01*
X153689000Y-105310000D02*
X153729000Y-105270000D01*
X155624000Y-103375000D02*
X155684000Y-103315000D01*
X155850000Y-108625000D02*
X153350000Y-108625000D01*
X155850000Y-107625000D02*
X153350000Y-107625000D01*
X155850000Y-108625000D02*
X155850000Y-107625000D01*
X153350000Y-108625000D02*
X153350000Y-107625000D01*
X148435000Y-105135000D02*
X148495000Y-105076000D01*
X150390000Y-103180000D02*
X150430000Y-103140000D01*
X148609000Y-105310000D02*
X148649000Y-105270000D01*
X150544000Y-103375000D02*
X150604000Y-103315000D01*
X150770000Y-108625000D02*
X148270000Y-108625000D01*
X150770000Y-107625000D02*
X148270000Y-107625000D01*
X150770000Y-108625000D02*
X150770000Y-107625000D01*
X148270000Y-108625000D02*
X148270000Y-107625000D01*
X198080000Y-100615000D02*
X198080000Y-99875000D01*
X198080000Y-99875000D02*
X197580000Y-99875000D01*
D12*
X202045238Y-39273571D02*
X202188095Y-39321190D01*
X202235714Y-39368809D01*
X202283333Y-39464047D01*
X202283333Y-39606904D01*
X202235714Y-39702142D01*
X202188095Y-39749761D01*
X202092857Y-39797380D01*
X201711904Y-39797380D01*
X201711904Y-38797380D01*
X202045238Y-38797380D01*
X202140476Y-38845000D01*
X202188095Y-38892619D01*
X202235714Y-38987857D01*
X202235714Y-39083095D01*
X202188095Y-39178333D01*
X202140476Y-39225952D01*
X202045238Y-39273571D01*
X201711904Y-39273571D01*
X203235714Y-39797380D02*
X202664285Y-39797380D01*
X202950000Y-39797380D02*
X202950000Y-38797380D01*
X202854761Y-38940238D01*
X202759523Y-39035476D01*
X202664285Y-39083095D01*
X202045238Y-44353571D02*
X202188095Y-44401190D01*
X202235714Y-44448809D01*
X202283333Y-44544047D01*
X202283333Y-44686904D01*
X202235714Y-44782142D01*
X202188095Y-44829761D01*
X202092857Y-44877380D01*
X201711904Y-44877380D01*
X201711904Y-43877380D01*
X202045238Y-43877380D01*
X202140476Y-43925000D01*
X202188095Y-43972619D01*
X202235714Y-44067857D01*
X202235714Y-44163095D01*
X202188095Y-44258333D01*
X202140476Y-44305952D01*
X202045238Y-44353571D01*
X201711904Y-44353571D01*
X202664285Y-43972619D02*
X202711904Y-43925000D01*
X202807142Y-43877380D01*
X203045238Y-43877380D01*
X203140476Y-43925000D01*
X203188095Y-43972619D01*
X203235714Y-44067857D01*
X203235714Y-44163095D01*
X203188095Y-44305952D01*
X202616666Y-44877380D01*
X203235714Y-44877380D01*
X202045238Y-49433571D02*
X202188095Y-49481190D01*
X202235714Y-49528809D01*
X202283333Y-49624047D01*
X202283333Y-49766904D01*
X202235714Y-49862142D01*
X202188095Y-49909761D01*
X202092857Y-49957380D01*
X201711904Y-49957380D01*
X201711904Y-48957380D01*
X202045238Y-48957380D01*
X202140476Y-49005000D01*
X202188095Y-49052619D01*
X202235714Y-49147857D01*
X202235714Y-49243095D01*
X202188095Y-49338333D01*
X202140476Y-49385952D01*
X202045238Y-49433571D01*
X201711904Y-49433571D01*
X202616666Y-48957380D02*
X203235714Y-48957380D01*
X202902380Y-49338333D01*
X203045238Y-49338333D01*
X203140476Y-49385952D01*
X203188095Y-49433571D01*
X203235714Y-49528809D01*
X203235714Y-49766904D01*
X203188095Y-49862142D01*
X203140476Y-49909761D01*
X203045238Y-49957380D01*
X202759523Y-49957380D01*
X202664285Y-49909761D01*
X202616666Y-49862142D01*
X202045238Y-54513571D02*
X202188095Y-54561190D01*
X202235714Y-54608809D01*
X202283333Y-54704047D01*
X202283333Y-54846904D01*
X202235714Y-54942142D01*
X202188095Y-54989761D01*
X202092857Y-55037380D01*
X201711904Y-55037380D01*
X201711904Y-54037380D01*
X202045238Y-54037380D01*
X202140476Y-54085000D01*
X202188095Y-54132619D01*
X202235714Y-54227857D01*
X202235714Y-54323095D01*
X202188095Y-54418333D01*
X202140476Y-54465952D01*
X202045238Y-54513571D01*
X201711904Y-54513571D01*
X203140476Y-54370714D02*
X203140476Y-55037380D01*
X202902380Y-53989761D02*
X202664285Y-54704047D01*
X203283333Y-54704047D01*
X202045238Y-59593571D02*
X202188095Y-59641190D01*
X202235714Y-59688809D01*
X202283333Y-59784047D01*
X202283333Y-59926904D01*
X202235714Y-60022142D01*
X202188095Y-60069761D01*
X202092857Y-60117380D01*
X201711904Y-60117380D01*
X201711904Y-59117380D01*
X202045238Y-59117380D01*
X202140476Y-59165000D01*
X202188095Y-59212619D01*
X202235714Y-59307857D01*
X202235714Y-59403095D01*
X202188095Y-59498333D01*
X202140476Y-59545952D01*
X202045238Y-59593571D01*
X201711904Y-59593571D01*
X203188095Y-59117380D02*
X202711904Y-59117380D01*
X202664285Y-59593571D01*
X202711904Y-59545952D01*
X202807142Y-59498333D01*
X203045238Y-59498333D01*
X203140476Y-59545952D01*
X203188095Y-59593571D01*
X203235714Y-59688809D01*
X203235714Y-59926904D01*
X203188095Y-60022142D01*
X203140476Y-60069761D01*
X203045238Y-60117380D01*
X202807142Y-60117380D01*
X202711904Y-60069761D01*
X202664285Y-60022142D01*
X202045238Y-64673571D02*
X202188095Y-64721190D01*
X202235714Y-64768809D01*
X202283333Y-64864047D01*
X202283333Y-65006904D01*
X202235714Y-65102142D01*
X202188095Y-65149761D01*
X202092857Y-65197380D01*
X201711904Y-65197380D01*
X201711904Y-64197380D01*
X202045238Y-64197380D01*
X202140476Y-64245000D01*
X202188095Y-64292619D01*
X202235714Y-64387857D01*
X202235714Y-64483095D01*
X202188095Y-64578333D01*
X202140476Y-64625952D01*
X202045238Y-64673571D01*
X201711904Y-64673571D01*
X203140476Y-64197380D02*
X202950000Y-64197380D01*
X202854761Y-64245000D01*
X202807142Y-64292619D01*
X202711904Y-64435476D01*
X202664285Y-64625952D01*
X202664285Y-65006904D01*
X202711904Y-65102142D01*
X202759523Y-65149761D01*
X202854761Y-65197380D01*
X203045238Y-65197380D01*
X203140476Y-65149761D01*
X203188095Y-65102142D01*
X203235714Y-65006904D01*
X203235714Y-64768809D01*
X203188095Y-64673571D01*
X203140476Y-64625952D01*
X203045238Y-64578333D01*
X202854761Y-64578333D01*
X202759523Y-64625952D01*
X202711904Y-64673571D01*
X202664285Y-64768809D01*
X202045238Y-74833571D02*
X202188095Y-74881190D01*
X202235714Y-74928809D01*
X202283333Y-75024047D01*
X202283333Y-75166904D01*
X202235714Y-75262142D01*
X202188095Y-75309761D01*
X202092857Y-75357380D01*
X201711904Y-75357380D01*
X201711904Y-74357380D01*
X202045238Y-74357380D01*
X202140476Y-74405000D01*
X202188095Y-74452619D01*
X202235714Y-74547857D01*
X202235714Y-74643095D01*
X202188095Y-74738333D01*
X202140476Y-74785952D01*
X202045238Y-74833571D01*
X201711904Y-74833571D01*
X202854761Y-74785952D02*
X202759523Y-74738333D01*
X202711904Y-74690714D01*
X202664285Y-74595476D01*
X202664285Y-74547857D01*
X202711904Y-74452619D01*
X202759523Y-74405000D01*
X202854761Y-74357380D01*
X203045238Y-74357380D01*
X203140476Y-74405000D01*
X203188095Y-74452619D01*
X203235714Y-74547857D01*
X203235714Y-74595476D01*
X203188095Y-74690714D01*
X203140476Y-74738333D01*
X203045238Y-74785952D01*
X202854761Y-74785952D01*
X202759523Y-74833571D01*
X202711904Y-74881190D01*
X202664285Y-74976428D01*
X202664285Y-75166904D01*
X202711904Y-75262142D01*
X202759523Y-75309761D01*
X202854761Y-75357380D01*
X203045238Y-75357380D01*
X203140476Y-75309761D01*
X203188095Y-75262142D01*
X203235714Y-75166904D01*
X203235714Y-74976428D01*
X203188095Y-74881190D01*
X203140476Y-74833571D01*
X203045238Y-74785952D01*
X201116666Y-79437380D02*
X201450000Y-80437380D01*
X201783333Y-79437380D01*
X202688095Y-80342142D02*
X202640476Y-80389761D01*
X202497619Y-80437380D01*
X202402380Y-80437380D01*
X202259523Y-80389761D01*
X202164285Y-80294523D01*
X202116666Y-80199285D01*
X202069047Y-80008809D01*
X202069047Y-79865952D01*
X202116666Y-79675476D01*
X202164285Y-79580238D01*
X202259523Y-79485000D01*
X202402380Y-79437380D01*
X202497619Y-79437380D01*
X202640476Y-79485000D01*
X202688095Y-79532619D01*
X203688095Y-80342142D02*
X203640476Y-80389761D01*
X203497619Y-80437380D01*
X203402380Y-80437380D01*
X203259523Y-80389761D01*
X203164285Y-80294523D01*
X203116666Y-80199285D01*
X203069047Y-80008809D01*
X203069047Y-79865952D01*
X203116666Y-79675476D01*
X203164285Y-79580238D01*
X203259523Y-79485000D01*
X203402380Y-79437380D01*
X203497619Y-79437380D01*
X203640476Y-79485000D01*
X203688095Y-79532619D01*
X200997619Y-90597380D02*
X200997619Y-89597380D01*
X201235714Y-89597380D01*
X201378571Y-89645000D01*
X201473809Y-89740238D01*
X201521428Y-89835476D01*
X201569047Y-90025952D01*
X201569047Y-90168809D01*
X201521428Y-90359285D01*
X201473809Y-90454523D01*
X201378571Y-90549761D01*
X201235714Y-90597380D01*
X200997619Y-90597380D01*
X202140476Y-90597380D02*
X202045238Y-90549761D01*
X201997619Y-90502142D01*
X201950000Y-90406904D01*
X201950000Y-90121190D01*
X201997619Y-90025952D01*
X202045238Y-89978333D01*
X202140476Y-89930714D01*
X202283333Y-89930714D01*
X202378571Y-89978333D01*
X202426190Y-90025952D01*
X202473809Y-90121190D01*
X202473809Y-90406904D01*
X202426190Y-90502142D01*
X202378571Y-90549761D01*
X202283333Y-90597380D01*
X202140476Y-90597380D01*
X203330952Y-89930714D02*
X203330952Y-90597380D01*
X202902380Y-89930714D02*
X202902380Y-90454523D01*
X202950000Y-90549761D01*
X203045238Y-90597380D01*
X203188095Y-90597380D01*
X203283333Y-90549761D01*
X203330952Y-90502142D01*
X203664285Y-89930714D02*
X204045238Y-89930714D01*
X203807142Y-89597380D02*
X203807142Y-90454523D01*
X203854761Y-90549761D01*
X203950000Y-90597380D01*
X204045238Y-90597380D01*
X201664285Y-95677380D02*
X201664285Y-94677380D01*
X202235714Y-95677380D01*
X202235714Y-94677380D01*
X203283333Y-95582142D02*
X203235714Y-95629761D01*
X203092857Y-95677380D01*
X202997619Y-95677380D01*
X202854761Y-95629761D01*
X202759523Y-95534523D01*
X202711904Y-95439285D01*
X202664285Y-95248809D01*
X202664285Y-95105952D01*
X202711904Y-94915476D01*
X202759523Y-94820238D01*
X202854761Y-94725000D01*
X202997619Y-94677380D01*
X203092857Y-94677380D01*
X203235714Y-94725000D01*
X203283333Y-94772619D01*
X201688095Y-84565000D02*
X201592857Y-84517380D01*
X201450000Y-84517380D01*
X201307142Y-84565000D01*
X201211904Y-84660238D01*
X201164285Y-84755476D01*
X201116666Y-84945952D01*
X201116666Y-85088809D01*
X201164285Y-85279285D01*
X201211904Y-85374523D01*
X201307142Y-85469761D01*
X201450000Y-85517380D01*
X201545238Y-85517380D01*
X201688095Y-85469761D01*
X201735714Y-85422142D01*
X201735714Y-85088809D01*
X201545238Y-85088809D01*
X202164285Y-85517380D02*
X202164285Y-84517380D01*
X202735714Y-85517380D01*
X202735714Y-84517380D01*
X203211904Y-85517380D02*
X203211904Y-84517380D01*
X203450000Y-84517380D01*
X203592857Y-84565000D01*
X203688095Y-84660238D01*
X203735714Y-84755476D01*
X203783333Y-84945952D01*
X203783333Y-85088809D01*
X203735714Y-85279285D01*
X203688095Y-85374523D01*
X203592857Y-85469761D01*
X203450000Y-85517380D01*
X203211904Y-85517380D01*
X202045238Y-69753571D02*
X202188095Y-69801190D01*
X202235714Y-69848809D01*
X202283333Y-69944047D01*
X202283333Y-70086904D01*
X202235714Y-70182142D01*
X202188095Y-70229761D01*
X202092857Y-70277380D01*
X201711904Y-70277380D01*
X201711904Y-69277380D01*
X202045238Y-69277380D01*
X202140476Y-69325000D01*
X202188095Y-69372619D01*
X202235714Y-69467857D01*
X202235714Y-69563095D01*
X202188095Y-69658333D01*
X202140476Y-69705952D01*
X202045238Y-69753571D01*
X201711904Y-69753571D01*
X202616666Y-69277380D02*
X203283333Y-69277380D01*
X202854761Y-70277380D01*
X141319047Y-64253571D02*
X141461904Y-64301190D01*
X141509523Y-64348809D01*
X141557142Y-64444047D01*
X141557142Y-64586904D01*
X141509523Y-64682142D01*
X141461904Y-64729761D01*
X141366666Y-64777380D01*
X140985714Y-64777380D01*
X140985714Y-63777380D01*
X141319047Y-63777380D01*
X141414285Y-63825000D01*
X141461904Y-63872619D01*
X141509523Y-63967857D01*
X141509523Y-64063095D01*
X141461904Y-64158333D01*
X141414285Y-64205952D01*
X141319047Y-64253571D01*
X140985714Y-64253571D01*
X142509523Y-64777380D02*
X141938095Y-64777380D01*
X142223809Y-64777380D02*
X142223809Y-63777380D01*
X142128571Y-63920238D01*
X142033333Y-64015476D01*
X141938095Y-64063095D01*
X143414285Y-63777380D02*
X142938095Y-63777380D01*
X142890476Y-64253571D01*
X142938095Y-64205952D01*
X143033333Y-64158333D01*
X143271428Y-64158333D01*
X143366666Y-64205952D01*
X143414285Y-64253571D01*
X143461904Y-64348809D01*
X143461904Y-64586904D01*
X143414285Y-64682142D01*
X143366666Y-64729761D01*
X143271428Y-64777380D01*
X143033333Y-64777380D01*
X142938095Y-64729761D01*
X142890476Y-64682142D01*
X141438095Y-48585000D02*
X141342857Y-48537380D01*
X141200000Y-48537380D01*
X141057142Y-48585000D01*
X140961904Y-48680238D01*
X140914285Y-48775476D01*
X140866666Y-48965952D01*
X140866666Y-49108809D01*
X140914285Y-49299285D01*
X140961904Y-49394523D01*
X141057142Y-49489761D01*
X141200000Y-49537380D01*
X141295238Y-49537380D01*
X141438095Y-49489761D01*
X141485714Y-49442142D01*
X141485714Y-49108809D01*
X141295238Y-49108809D01*
X141914285Y-49537380D02*
X141914285Y-48537380D01*
X142485714Y-49537380D01*
X142485714Y-48537380D01*
X142961904Y-49537380D02*
X142961904Y-48537380D01*
X143200000Y-48537380D01*
X143342857Y-48585000D01*
X143438095Y-48680238D01*
X143485714Y-48775476D01*
X143533333Y-48965952D01*
X143533333Y-49108809D01*
X143485714Y-49299285D01*
X143438095Y-49394523D01*
X143342857Y-49489761D01*
X143200000Y-49537380D01*
X142961904Y-49537380D01*
X141414285Y-39377380D02*
X141414285Y-38377380D01*
X141985714Y-39377380D01*
X141985714Y-38377380D01*
X143033333Y-39282142D02*
X142985714Y-39329761D01*
X142842857Y-39377380D01*
X142747619Y-39377380D01*
X142604761Y-39329761D01*
X142509523Y-39234523D01*
X142461904Y-39139285D01*
X142414285Y-38948809D01*
X142414285Y-38805952D01*
X142461904Y-38615476D01*
X142509523Y-38520238D01*
X142604761Y-38425000D01*
X142747619Y-38377380D01*
X142842857Y-38377380D01*
X142985714Y-38425000D01*
X143033333Y-38472619D01*
X140747619Y-44457380D02*
X140747619Y-43457380D01*
X140985714Y-43457380D01*
X141128571Y-43505000D01*
X141223809Y-43600238D01*
X141271428Y-43695476D01*
X141319047Y-43885952D01*
X141319047Y-44028809D01*
X141271428Y-44219285D01*
X141223809Y-44314523D01*
X141128571Y-44409761D01*
X140985714Y-44457380D01*
X140747619Y-44457380D01*
X141890476Y-44457380D02*
X141795238Y-44409761D01*
X141747619Y-44362142D01*
X141700000Y-44266904D01*
X141700000Y-43981190D01*
X141747619Y-43885952D01*
X141795238Y-43838333D01*
X141890476Y-43790714D01*
X142033333Y-43790714D01*
X142128571Y-43838333D01*
X142176190Y-43885952D01*
X142223809Y-43981190D01*
X142223809Y-44266904D01*
X142176190Y-44362142D01*
X142128571Y-44409761D01*
X142033333Y-44457380D01*
X141890476Y-44457380D01*
X143080952Y-43790714D02*
X143080952Y-44457380D01*
X142652380Y-43790714D02*
X142652380Y-44314523D01*
X142700000Y-44409761D01*
X142795238Y-44457380D01*
X142938095Y-44457380D01*
X143033333Y-44409761D01*
X143080952Y-44362142D01*
X143414285Y-43790714D02*
X143795238Y-43790714D01*
X143557142Y-43457380D02*
X143557142Y-44314523D01*
X143604761Y-44409761D01*
X143700000Y-44457380D01*
X143795238Y-44457380D01*
X140866666Y-53617380D02*
X141200000Y-54617380D01*
X141533333Y-53617380D01*
X142438095Y-54522142D02*
X142390476Y-54569761D01*
X142247619Y-54617380D01*
X142152380Y-54617380D01*
X142009523Y-54569761D01*
X141914285Y-54474523D01*
X141866666Y-54379285D01*
X141819047Y-54188809D01*
X141819047Y-54045952D01*
X141866666Y-53855476D01*
X141914285Y-53760238D01*
X142009523Y-53665000D01*
X142152380Y-53617380D01*
X142247619Y-53617380D01*
X142390476Y-53665000D01*
X142438095Y-53712619D01*
X143438095Y-54522142D02*
X143390476Y-54569761D01*
X143247619Y-54617380D01*
X143152380Y-54617380D01*
X143009523Y-54569761D01*
X142914285Y-54474523D01*
X142866666Y-54379285D01*
X142819047Y-54188809D01*
X142819047Y-54045952D01*
X142866666Y-53855476D01*
X142914285Y-53760238D01*
X143009523Y-53665000D01*
X143152380Y-53617380D01*
X143247619Y-53617380D01*
X143390476Y-53665000D01*
X143438095Y-53712619D01*
X141319047Y-59173571D02*
X141461904Y-59221190D01*
X141509523Y-59268809D01*
X141557142Y-59364047D01*
X141557142Y-59506904D01*
X141509523Y-59602142D01*
X141461904Y-59649761D01*
X141366666Y-59697380D01*
X140985714Y-59697380D01*
X140985714Y-58697380D01*
X141319047Y-58697380D01*
X141414285Y-58745000D01*
X141461904Y-58792619D01*
X141509523Y-58887857D01*
X141509523Y-58983095D01*
X141461904Y-59078333D01*
X141414285Y-59125952D01*
X141319047Y-59173571D01*
X140985714Y-59173571D01*
X142509523Y-59697380D02*
X141938095Y-59697380D01*
X142223809Y-59697380D02*
X142223809Y-58697380D01*
X142128571Y-58840238D01*
X142033333Y-58935476D01*
X141938095Y-58983095D01*
X143366666Y-58697380D02*
X143176190Y-58697380D01*
X143080952Y-58745000D01*
X143033333Y-58792619D01*
X142938095Y-58935476D01*
X142890476Y-59125952D01*
X142890476Y-59506904D01*
X142938095Y-59602142D01*
X142985714Y-59649761D01*
X143080952Y-59697380D01*
X143271428Y-59697380D01*
X143366666Y-59649761D01*
X143414285Y-59602142D01*
X143461904Y-59506904D01*
X143461904Y-59268809D01*
X143414285Y-59173571D01*
X143366666Y-59125952D01*
X143271428Y-59078333D01*
X143080952Y-59078333D01*
X142985714Y-59125952D01*
X142938095Y-59173571D01*
X142890476Y-59268809D01*
X141319047Y-69333571D02*
X141461904Y-69381190D01*
X141509523Y-69428809D01*
X141557142Y-69524047D01*
X141557142Y-69666904D01*
X141509523Y-69762142D01*
X141461904Y-69809761D01*
X141366666Y-69857380D01*
X140985714Y-69857380D01*
X140985714Y-68857380D01*
X141319047Y-68857380D01*
X141414285Y-68905000D01*
X141461904Y-68952619D01*
X141509523Y-69047857D01*
X141509523Y-69143095D01*
X141461904Y-69238333D01*
X141414285Y-69285952D01*
X141319047Y-69333571D01*
X140985714Y-69333571D01*
X142509523Y-69857380D02*
X141938095Y-69857380D01*
X142223809Y-69857380D02*
X142223809Y-68857380D01*
X142128571Y-69000238D01*
X142033333Y-69095476D01*
X141938095Y-69143095D01*
X143366666Y-69190714D02*
X143366666Y-69857380D01*
X143128571Y-68809761D02*
X142890476Y-69524047D01*
X143509523Y-69524047D01*
X141319047Y-74413571D02*
X141461904Y-74461190D01*
X141509523Y-74508809D01*
X141557142Y-74604047D01*
X141557142Y-74746904D01*
X141509523Y-74842142D01*
X141461904Y-74889761D01*
X141366666Y-74937380D01*
X140985714Y-74937380D01*
X140985714Y-73937380D01*
X141319047Y-73937380D01*
X141414285Y-73985000D01*
X141461904Y-74032619D01*
X141509523Y-74127857D01*
X141509523Y-74223095D01*
X141461904Y-74318333D01*
X141414285Y-74365952D01*
X141319047Y-74413571D01*
X140985714Y-74413571D01*
X142509523Y-74937380D02*
X141938095Y-74937380D01*
X142223809Y-74937380D02*
X142223809Y-73937380D01*
X142128571Y-74080238D01*
X142033333Y-74175476D01*
X141938095Y-74223095D01*
X142842857Y-73937380D02*
X143461904Y-73937380D01*
X143128571Y-74318333D01*
X143271428Y-74318333D01*
X143366666Y-74365952D01*
X143414285Y-74413571D01*
X143461904Y-74508809D01*
X143461904Y-74746904D01*
X143414285Y-74842142D01*
X143366666Y-74889761D01*
X143271428Y-74937380D01*
X142985714Y-74937380D01*
X142890476Y-74889761D01*
X142842857Y-74842142D01*
X141319047Y-79493571D02*
X141461904Y-79541190D01*
X141509523Y-79588809D01*
X141557142Y-79684047D01*
X141557142Y-79826904D01*
X141509523Y-79922142D01*
X141461904Y-79969761D01*
X141366666Y-80017380D01*
X140985714Y-80017380D01*
X140985714Y-79017380D01*
X141319047Y-79017380D01*
X141414285Y-79065000D01*
X141461904Y-79112619D01*
X141509523Y-79207857D01*
X141509523Y-79303095D01*
X141461904Y-79398333D01*
X141414285Y-79445952D01*
X141319047Y-79493571D01*
X140985714Y-79493571D01*
X142509523Y-80017380D02*
X141938095Y-80017380D01*
X142223809Y-80017380D02*
X142223809Y-79017380D01*
X142128571Y-79160238D01*
X142033333Y-79255476D01*
X141938095Y-79303095D01*
X142890476Y-79112619D02*
X142938095Y-79065000D01*
X143033333Y-79017380D01*
X143271428Y-79017380D01*
X143366666Y-79065000D01*
X143414285Y-79112619D01*
X143461904Y-79207857D01*
X143461904Y-79303095D01*
X143414285Y-79445952D01*
X142842857Y-80017380D01*
X143461904Y-80017380D01*
X141319047Y-84573571D02*
X141461904Y-84621190D01*
X141509523Y-84668809D01*
X141557142Y-84764047D01*
X141557142Y-84906904D01*
X141509523Y-85002142D01*
X141461904Y-85049761D01*
X141366666Y-85097380D01*
X140985714Y-85097380D01*
X140985714Y-84097380D01*
X141319047Y-84097380D01*
X141414285Y-84145000D01*
X141461904Y-84192619D01*
X141509523Y-84287857D01*
X141509523Y-84383095D01*
X141461904Y-84478333D01*
X141414285Y-84525952D01*
X141319047Y-84573571D01*
X140985714Y-84573571D01*
X142509523Y-85097380D02*
X141938095Y-85097380D01*
X142223809Y-85097380D02*
X142223809Y-84097380D01*
X142128571Y-84240238D01*
X142033333Y-84335476D01*
X141938095Y-84383095D01*
X143461904Y-85097380D02*
X142890476Y-85097380D01*
X143176190Y-85097380D02*
X143176190Y-84097380D01*
X143080952Y-84240238D01*
X142985714Y-84335476D01*
X142890476Y-84383095D01*
X141319047Y-89653571D02*
X141461904Y-89701190D01*
X141509523Y-89748809D01*
X141557142Y-89844047D01*
X141557142Y-89986904D01*
X141509523Y-90082142D01*
X141461904Y-90129761D01*
X141366666Y-90177380D01*
X140985714Y-90177380D01*
X140985714Y-89177380D01*
X141319047Y-89177380D01*
X141414285Y-89225000D01*
X141461904Y-89272619D01*
X141509523Y-89367857D01*
X141509523Y-89463095D01*
X141461904Y-89558333D01*
X141414285Y-89605952D01*
X141319047Y-89653571D01*
X140985714Y-89653571D01*
X142509523Y-90177380D02*
X141938095Y-90177380D01*
X142223809Y-90177380D02*
X142223809Y-89177380D01*
X142128571Y-89320238D01*
X142033333Y-89415476D01*
X141938095Y-89463095D01*
X143128571Y-89177380D02*
X143223809Y-89177380D01*
X143319047Y-89225000D01*
X143366666Y-89272619D01*
X143414285Y-89367857D01*
X143461904Y-89558333D01*
X143461904Y-89796428D01*
X143414285Y-89986904D01*
X143366666Y-90082142D01*
X143319047Y-90129761D01*
X143223809Y-90177380D01*
X143128571Y-90177380D01*
X143033333Y-90129761D01*
X142985714Y-90082142D01*
X142938095Y-89986904D01*
X142890476Y-89796428D01*
X142890476Y-89558333D01*
X142938095Y-89367857D01*
X142985714Y-89272619D01*
X143033333Y-89225000D01*
X143128571Y-89177380D01*
X141319047Y-94733571D02*
X141461904Y-94781190D01*
X141509523Y-94828809D01*
X141557142Y-94924047D01*
X141557142Y-95066904D01*
X141509523Y-95162142D01*
X141461904Y-95209761D01*
X141366666Y-95257380D01*
X140985714Y-95257380D01*
X140985714Y-94257380D01*
X141319047Y-94257380D01*
X141414285Y-94305000D01*
X141461904Y-94352619D01*
X141509523Y-94447857D01*
X141509523Y-94543095D01*
X141461904Y-94638333D01*
X141414285Y-94685952D01*
X141319047Y-94733571D01*
X140985714Y-94733571D01*
X142176190Y-94257380D02*
X142271428Y-94257380D01*
X142366666Y-94305000D01*
X142414285Y-94352619D01*
X142461904Y-94447857D01*
X142509523Y-94638333D01*
X142509523Y-94876428D01*
X142461904Y-95066904D01*
X142414285Y-95162142D01*
X142366666Y-95209761D01*
X142271428Y-95257380D01*
X142176190Y-95257380D01*
X142080952Y-95209761D01*
X142033333Y-95162142D01*
X141985714Y-95066904D01*
X141938095Y-94876428D01*
X141938095Y-94638333D01*
X141985714Y-94447857D01*
X142033333Y-94352619D01*
X142080952Y-94305000D01*
X142176190Y-94257380D01*
X142985714Y-95257380D02*
X143176190Y-95257380D01*
X143271428Y-95209761D01*
X143319047Y-95162142D01*
X143414285Y-95019285D01*
X143461904Y-94828809D01*
X143461904Y-94447857D01*
X143414285Y-94352619D01*
X143366666Y-94305000D01*
X143271428Y-94257380D01*
X143080952Y-94257380D01*
X142985714Y-94305000D01*
X142938095Y-94352619D01*
X142890476Y-94447857D01*
X142890476Y-94685952D01*
X142938095Y-94781190D01*
X142985714Y-94828809D01*
X143080952Y-94876428D01*
X143271428Y-94876428D01*
X143366666Y-94828809D01*
X143414285Y-94781190D01*
X143461904Y-94685952D01*
X171665714Y-73071666D02*
X172141904Y-73071666D01*
X171570476Y-73357380D02*
X171903809Y-72357380D01*
X172237142Y-73357380D01*
X173094285Y-73357380D02*
X172522857Y-73357380D01*
X172808571Y-73357380D02*
X172808571Y-72357380D01*
X172713333Y-72500238D01*
X172618095Y-72595476D01*
X172522857Y-72643095D01*
X133998095Y-27692380D02*
X133998095Y-26692380D01*
X133998095Y-27168571D02*
X134569523Y-27168571D01*
X134569523Y-27692380D02*
X134569523Y-26692380D01*
X135569523Y-27692380D02*
X134998095Y-27692380D01*
X135283809Y-27692380D02*
X135283809Y-26692380D01*
X135188571Y-26835238D01*
X135093333Y-26930476D01*
X134998095Y-26978095D01*
X133998095Y-99572380D02*
X133998095Y-98572380D01*
X133998095Y-99048571D02*
X134569523Y-99048571D01*
X134569523Y-99572380D02*
X134569523Y-98572380D01*
X134998095Y-98667619D02*
X135045714Y-98620000D01*
X135140952Y-98572380D01*
X135379047Y-98572380D01*
X135474285Y-98620000D01*
X135521904Y-98667619D01*
X135569523Y-98762857D01*
X135569523Y-98858095D01*
X135521904Y-99000952D01*
X134950476Y-99572380D01*
X135569523Y-99572380D01*
X209238095Y-99572380D02*
X209238095Y-98572380D01*
X209238095Y-99048571D02*
X209809523Y-99048571D01*
X209809523Y-99572380D02*
X209809523Y-98572380D01*
X210190476Y-98572380D02*
X210809523Y-98572380D01*
X210476190Y-98953333D01*
X210619047Y-98953333D01*
X210714285Y-99000952D01*
X210761904Y-99048571D01*
X210809523Y-99143809D01*
X210809523Y-99381904D01*
X210761904Y-99477142D01*
X210714285Y-99524761D01*
X210619047Y-99572380D01*
X210333333Y-99572380D01*
X210238095Y-99524761D01*
X210190476Y-99477142D01*
X209238095Y-27692380D02*
X209238095Y-26692380D01*
X209238095Y-27168571D02*
X209809523Y-27168571D01*
X209809523Y-27692380D02*
X209809523Y-26692380D01*
X210714285Y-27025714D02*
X210714285Y-27692380D01*
X210476190Y-26644761D02*
X210238095Y-27359047D01*
X210857142Y-27359047D01*
X204027380Y-35108333D02*
X204741666Y-35108333D01*
X204884523Y-35155952D01*
X204979761Y-35251190D01*
X205027380Y-35394047D01*
X205027380Y-35489285D01*
X205027380Y-34108333D02*
X205027380Y-34679761D01*
X205027380Y-34394047D02*
X204027380Y-34394047D01*
X204170238Y-34489285D01*
X204265476Y-34584523D01*
X204313095Y-34679761D01*
X139727380Y-101233333D02*
X140441666Y-101233333D01*
X140584523Y-101280952D01*
X140679761Y-101376190D01*
X140727380Y-101519047D01*
X140727380Y-101614285D01*
X139822619Y-100804761D02*
X139775000Y-100757142D01*
X139727380Y-100661904D01*
X139727380Y-100423809D01*
X139775000Y-100328571D01*
X139822619Y-100280952D01*
X139917857Y-100233333D01*
X140013095Y-100233333D01*
X140155952Y-100280952D01*
X140727380Y-100852380D01*
X140727380Y-100233333D01*
X145216666Y-41104761D02*
X145359523Y-41152380D01*
X145597619Y-41152380D01*
X145692857Y-41104761D01*
X145740476Y-41057142D01*
X145788095Y-40961904D01*
X145788095Y-40866666D01*
X145740476Y-40771428D01*
X145692857Y-40723809D01*
X145597619Y-40676190D01*
X145407142Y-40628571D01*
X145311904Y-40580952D01*
X145264285Y-40533333D01*
X145216666Y-40438095D01*
X145216666Y-40342857D01*
X145264285Y-40247619D01*
X145311904Y-40200000D01*
X145407142Y-40152380D01*
X145645238Y-40152380D01*
X145788095Y-40200000D01*
X146121428Y-40152380D02*
X146359523Y-41152380D01*
X146550000Y-40438095D01*
X146740476Y-41152380D01*
X146978571Y-40152380D01*
X147883333Y-41152380D02*
X147311904Y-41152380D01*
X147597619Y-41152380D02*
X147597619Y-40152380D01*
X147502380Y-40295238D01*
X147407142Y-40390476D01*
X147311904Y-40438095D01*
X156767066Y-41223961D02*
X156909923Y-41271580D01*
X157148019Y-41271580D01*
X157243257Y-41223961D01*
X157290876Y-41176342D01*
X157338495Y-41081104D01*
X157338495Y-40985866D01*
X157290876Y-40890628D01*
X157243257Y-40843009D01*
X157148019Y-40795390D01*
X156957542Y-40747771D01*
X156862304Y-40700152D01*
X156814685Y-40652533D01*
X156767066Y-40557295D01*
X156767066Y-40462057D01*
X156814685Y-40366819D01*
X156862304Y-40319200D01*
X156957542Y-40271580D01*
X157195638Y-40271580D01*
X157338495Y-40319200D01*
X157671828Y-40271580D02*
X157909923Y-41271580D01*
X158100400Y-40557295D01*
X158290876Y-41271580D01*
X158528971Y-40271580D01*
X158862304Y-40366819D02*
X158909923Y-40319200D01*
X159005161Y-40271580D01*
X159243257Y-40271580D01*
X159338495Y-40319200D01*
X159386114Y-40366819D01*
X159433733Y-40462057D01*
X159433733Y-40557295D01*
X159386114Y-40700152D01*
X158814685Y-41271580D01*
X159433733Y-41271580D01*
X194309523Y-48252380D02*
X193976190Y-47776190D01*
X193738095Y-48252380D02*
X193738095Y-47252380D01*
X194119047Y-47252380D01*
X194214285Y-47300000D01*
X194261904Y-47347619D01*
X194309523Y-47442857D01*
X194309523Y-47585714D01*
X194261904Y-47680952D01*
X194214285Y-47728571D01*
X194119047Y-47776190D01*
X193738095Y-47776190D01*
X194738095Y-48252380D02*
X194738095Y-47252380D01*
X195309523Y-48252380D01*
X195309523Y-47252380D01*
X196309523Y-48252380D02*
X195738095Y-48252380D01*
X196023809Y-48252380D02*
X196023809Y-47252380D01*
X195928571Y-47395238D01*
X195833333Y-47490476D01*
X195738095Y-47538095D01*
X194309523Y-54252380D02*
X193976190Y-53776190D01*
X193738095Y-54252380D02*
X193738095Y-53252380D01*
X194119047Y-53252380D01*
X194214285Y-53300000D01*
X194261904Y-53347619D01*
X194309523Y-53442857D01*
X194309523Y-53585714D01*
X194261904Y-53680952D01*
X194214285Y-53728571D01*
X194119047Y-53776190D01*
X193738095Y-53776190D01*
X194738095Y-54252380D02*
X194738095Y-53252380D01*
X195309523Y-54252380D01*
X195309523Y-53252380D01*
X195738095Y-53347619D02*
X195785714Y-53300000D01*
X195880952Y-53252380D01*
X196119047Y-53252380D01*
X196214285Y-53300000D01*
X196261904Y-53347619D01*
X196309523Y-53442857D01*
X196309523Y-53538095D01*
X196261904Y-53680952D01*
X195690476Y-54252380D01*
X196309523Y-54252380D01*
X194309523Y-60252380D02*
X193976190Y-59776190D01*
X193738095Y-60252380D02*
X193738095Y-59252380D01*
X194119047Y-59252380D01*
X194214285Y-59300000D01*
X194261904Y-59347619D01*
X194309523Y-59442857D01*
X194309523Y-59585714D01*
X194261904Y-59680952D01*
X194214285Y-59728571D01*
X194119047Y-59776190D01*
X193738095Y-59776190D01*
X194738095Y-60252380D02*
X194738095Y-59252380D01*
X195309523Y-60252380D01*
X195309523Y-59252380D01*
X195690476Y-59252380D02*
X196309523Y-59252380D01*
X195976190Y-59633333D01*
X196119047Y-59633333D01*
X196214285Y-59680952D01*
X196261904Y-59728571D01*
X196309523Y-59823809D01*
X196309523Y-60061904D01*
X196261904Y-60157142D01*
X196214285Y-60204761D01*
X196119047Y-60252380D01*
X195833333Y-60252380D01*
X195738095Y-60204761D01*
X195690476Y-60157142D01*
X194309523Y-66252380D02*
X193976190Y-65776190D01*
X193738095Y-66252380D02*
X193738095Y-65252380D01*
X194119047Y-65252380D01*
X194214285Y-65300000D01*
X194261904Y-65347619D01*
X194309523Y-65442857D01*
X194309523Y-65585714D01*
X194261904Y-65680952D01*
X194214285Y-65728571D01*
X194119047Y-65776190D01*
X193738095Y-65776190D01*
X194738095Y-66252380D02*
X194738095Y-65252380D01*
X195309523Y-66252380D01*
X195309523Y-65252380D01*
X196214285Y-65585714D02*
X196214285Y-66252380D01*
X195976190Y-65204761D02*
X195738095Y-65919047D01*
X196357142Y-65919047D01*
X186309523Y-54252380D02*
X185976190Y-53776190D01*
X185738095Y-54252380D02*
X185738095Y-53252380D01*
X186119047Y-53252380D01*
X186214285Y-53300000D01*
X186261904Y-53347619D01*
X186309523Y-53442857D01*
X186309523Y-53585714D01*
X186261904Y-53680952D01*
X186214285Y-53728571D01*
X186119047Y-53776190D01*
X185738095Y-53776190D01*
X186738095Y-54252380D02*
X186738095Y-53252380D01*
X187309523Y-54252380D01*
X187309523Y-53252380D01*
X188261904Y-53252380D02*
X187785714Y-53252380D01*
X187738095Y-53728571D01*
X187785714Y-53680952D01*
X187880952Y-53633333D01*
X188119047Y-53633333D01*
X188214285Y-53680952D01*
X188261904Y-53728571D01*
X188309523Y-53823809D01*
X188309523Y-54061904D01*
X188261904Y-54157142D01*
X188214285Y-54204761D01*
X188119047Y-54252380D01*
X187880952Y-54252380D01*
X187785714Y-54204761D01*
X187738095Y-54157142D01*
X186309523Y-60252380D02*
X185976190Y-59776190D01*
X185738095Y-60252380D02*
X185738095Y-59252380D01*
X186119047Y-59252380D01*
X186214285Y-59300000D01*
X186261904Y-59347619D01*
X186309523Y-59442857D01*
X186309523Y-59585714D01*
X186261904Y-59680952D01*
X186214285Y-59728571D01*
X186119047Y-59776190D01*
X185738095Y-59776190D01*
X186738095Y-60252380D02*
X186738095Y-59252380D01*
X187309523Y-60252380D01*
X187309523Y-59252380D01*
X188214285Y-59252380D02*
X188023809Y-59252380D01*
X187928571Y-59300000D01*
X187880952Y-59347619D01*
X187785714Y-59490476D01*
X187738095Y-59680952D01*
X187738095Y-60061904D01*
X187785714Y-60157142D01*
X187833333Y-60204761D01*
X187928571Y-60252380D01*
X188119047Y-60252380D01*
X188214285Y-60204761D01*
X188261904Y-60157142D01*
X188309523Y-60061904D01*
X188309523Y-59823809D01*
X188261904Y-59728571D01*
X188214285Y-59680952D01*
X188119047Y-59633333D01*
X187928571Y-59633333D01*
X187833333Y-59680952D01*
X187785714Y-59728571D01*
X187738095Y-59823809D01*
X151634523Y-47602380D02*
X151301190Y-47126190D01*
X151063095Y-47602380D02*
X151063095Y-46602380D01*
X151444047Y-46602380D01*
X151539285Y-46650000D01*
X151586904Y-46697619D01*
X151634523Y-46792857D01*
X151634523Y-46935714D01*
X151586904Y-47030952D01*
X151539285Y-47078571D01*
X151444047Y-47126190D01*
X151063095Y-47126190D01*
X152063095Y-47602380D02*
X152063095Y-46602380D01*
X152634523Y-47602380D01*
X152634523Y-46602380D01*
X153015476Y-46602380D02*
X153682142Y-46602380D01*
X153253571Y-47602380D01*
X149052683Y-87652380D02*
X148719350Y-87176190D01*
X148481255Y-87652380D02*
X148481255Y-86652380D01*
X148862207Y-86652380D01*
X148957445Y-86700000D01*
X149005064Y-86747619D01*
X149052683Y-86842857D01*
X149052683Y-86985714D01*
X149005064Y-87080952D01*
X148957445Y-87128571D01*
X148862207Y-87176190D01*
X148481255Y-87176190D01*
X149481255Y-87652380D02*
X149481255Y-86652380D01*
X150052683Y-87652380D01*
X150052683Y-86652380D01*
X150671731Y-87080952D02*
X150576493Y-87033333D01*
X150528874Y-86985714D01*
X150481255Y-86890476D01*
X150481255Y-86842857D01*
X150528874Y-86747619D01*
X150576493Y-86700000D01*
X150671731Y-86652380D01*
X150862207Y-86652380D01*
X150957445Y-86700000D01*
X151005064Y-86747619D01*
X151052683Y-86842857D01*
X151052683Y-86890476D01*
X151005064Y-86985714D01*
X150957445Y-87033333D01*
X150862207Y-87080952D01*
X150671731Y-87080952D01*
X150576493Y-87128571D01*
X150528874Y-87176190D01*
X150481255Y-87271428D01*
X150481255Y-87461904D01*
X150528874Y-87557142D01*
X150576493Y-87604761D01*
X150671731Y-87652380D01*
X150862207Y-87652380D01*
X150957445Y-87604761D01*
X151005064Y-87557142D01*
X151052683Y-87461904D01*
X151052683Y-87271428D01*
X151005064Y-87176190D01*
X150957445Y-87128571D01*
X150862207Y-87080952D01*
X149052683Y-81652380D02*
X148719350Y-81176190D01*
X148481255Y-81652380D02*
X148481255Y-80652380D01*
X148862207Y-80652380D01*
X148957445Y-80700000D01*
X149005064Y-80747619D01*
X149052683Y-80842857D01*
X149052683Y-80985714D01*
X149005064Y-81080952D01*
X148957445Y-81128571D01*
X148862207Y-81176190D01*
X148481255Y-81176190D01*
X149481255Y-81652380D02*
X149481255Y-80652380D01*
X150052683Y-81652380D01*
X150052683Y-80652380D01*
X150576493Y-81652380D02*
X150766969Y-81652380D01*
X150862207Y-81604761D01*
X150909826Y-81557142D01*
X151005064Y-81414285D01*
X151052683Y-81223809D01*
X151052683Y-80842857D01*
X151005064Y-80747619D01*
X150957445Y-80700000D01*
X150862207Y-80652380D01*
X150671731Y-80652380D01*
X150576493Y-80700000D01*
X150528874Y-80747619D01*
X150481255Y-80842857D01*
X150481255Y-81080952D01*
X150528874Y-81176190D01*
X150576493Y-81223809D01*
X150671731Y-81271428D01*
X150862207Y-81271428D01*
X150957445Y-81223809D01*
X151005064Y-81176190D01*
X151052683Y-81080952D01*
X148576493Y-75652380D02*
X148243160Y-75176190D01*
X148005064Y-75652380D02*
X148005064Y-74652380D01*
X148386017Y-74652380D01*
X148481255Y-74700000D01*
X148528874Y-74747619D01*
X148576493Y-74842857D01*
X148576493Y-74985714D01*
X148528874Y-75080952D01*
X148481255Y-75128571D01*
X148386017Y-75176190D01*
X148005064Y-75176190D01*
X149005064Y-75652380D02*
X149005064Y-74652380D01*
X149576493Y-75652380D01*
X149576493Y-74652380D01*
X150576493Y-75652380D02*
X150005064Y-75652380D01*
X150290779Y-75652380D02*
X150290779Y-74652380D01*
X150195540Y-74795238D01*
X150100302Y-74890476D01*
X150005064Y-74938095D01*
X151195540Y-74652380D02*
X151290779Y-74652380D01*
X151386017Y-74700000D01*
X151433636Y-74747619D01*
X151481255Y-74842857D01*
X151528874Y-75033333D01*
X151528874Y-75271428D01*
X151481255Y-75461904D01*
X151433636Y-75557142D01*
X151386017Y-75604761D01*
X151290779Y-75652380D01*
X151195540Y-75652380D01*
X151100302Y-75604761D01*
X151052683Y-75557142D01*
X151005064Y-75461904D01*
X150957445Y-75271428D01*
X150957445Y-75033333D01*
X151005064Y-74842857D01*
X151052683Y-74747619D01*
X151100302Y-74700000D01*
X151195540Y-74652380D01*
X148576493Y-69652380D02*
X148243160Y-69176190D01*
X148005064Y-69652380D02*
X148005064Y-68652380D01*
X148386017Y-68652380D01*
X148481255Y-68700000D01*
X148528874Y-68747619D01*
X148576493Y-68842857D01*
X148576493Y-68985714D01*
X148528874Y-69080952D01*
X148481255Y-69128571D01*
X148386017Y-69176190D01*
X148005064Y-69176190D01*
X149005064Y-69652380D02*
X149005064Y-68652380D01*
X149576493Y-69652380D01*
X149576493Y-68652380D01*
X150576493Y-69652380D02*
X150005064Y-69652380D01*
X150290779Y-69652380D02*
X150290779Y-68652380D01*
X150195540Y-68795238D01*
X150100302Y-68890476D01*
X150005064Y-68938095D01*
X151528874Y-69652380D02*
X150957445Y-69652380D01*
X151243160Y-69652380D02*
X151243160Y-68652380D01*
X151147921Y-68795238D01*
X151052683Y-68890476D01*
X150957445Y-68938095D01*
X156576493Y-81652380D02*
X156243160Y-81176190D01*
X156005064Y-81652380D02*
X156005064Y-80652380D01*
X156386017Y-80652380D01*
X156481255Y-80700000D01*
X156528874Y-80747619D01*
X156576493Y-80842857D01*
X156576493Y-80985714D01*
X156528874Y-81080952D01*
X156481255Y-81128571D01*
X156386017Y-81176190D01*
X156005064Y-81176190D01*
X157005064Y-81652380D02*
X157005064Y-80652380D01*
X157576493Y-81652380D01*
X157576493Y-80652380D01*
X158576493Y-81652380D02*
X158005064Y-81652380D01*
X158290779Y-81652380D02*
X158290779Y-80652380D01*
X158195540Y-80795238D01*
X158100302Y-80890476D01*
X158005064Y-80938095D01*
X158957445Y-80747619D02*
X159005064Y-80700000D01*
X159100302Y-80652380D01*
X159338398Y-80652380D01*
X159433636Y-80700000D01*
X159481255Y-80747619D01*
X159528874Y-80842857D01*
X159528874Y-80938095D01*
X159481255Y-81080952D01*
X158909826Y-81652380D01*
X159528874Y-81652380D01*
X156576493Y-75652380D02*
X156243160Y-75176190D01*
X156005064Y-75652380D02*
X156005064Y-74652380D01*
X156386017Y-74652380D01*
X156481255Y-74700000D01*
X156528874Y-74747619D01*
X156576493Y-74842857D01*
X156576493Y-74985714D01*
X156528874Y-75080952D01*
X156481255Y-75128571D01*
X156386017Y-75176190D01*
X156005064Y-75176190D01*
X157005064Y-75652380D02*
X157005064Y-74652380D01*
X157576493Y-75652380D01*
X157576493Y-74652380D01*
X158576493Y-75652380D02*
X158005064Y-75652380D01*
X158290779Y-75652380D02*
X158290779Y-74652380D01*
X158195540Y-74795238D01*
X158100302Y-74890476D01*
X158005064Y-74938095D01*
X158909826Y-74652380D02*
X159528874Y-74652380D01*
X159195540Y-75033333D01*
X159338398Y-75033333D01*
X159433636Y-75080952D01*
X159481255Y-75128571D01*
X159528874Y-75223809D01*
X159528874Y-75461904D01*
X159481255Y-75557142D01*
X159433636Y-75604761D01*
X159338398Y-75652380D01*
X159052683Y-75652380D01*
X158957445Y-75604761D01*
X158909826Y-75557142D01*
X156576493Y-69652380D02*
X156243160Y-69176190D01*
X156005064Y-69652380D02*
X156005064Y-68652380D01*
X156386017Y-68652380D01*
X156481255Y-68700000D01*
X156528874Y-68747619D01*
X156576493Y-68842857D01*
X156576493Y-68985714D01*
X156528874Y-69080952D01*
X156481255Y-69128571D01*
X156386017Y-69176190D01*
X156005064Y-69176190D01*
X157005064Y-69652380D02*
X157005064Y-68652380D01*
X157576493Y-69652380D01*
X157576493Y-68652380D01*
X158576493Y-69652380D02*
X158005064Y-69652380D01*
X158290779Y-69652380D02*
X158290779Y-68652380D01*
X158195540Y-68795238D01*
X158100302Y-68890476D01*
X158005064Y-68938095D01*
X159433636Y-68985714D02*
X159433636Y-69652380D01*
X159195540Y-68604761D02*
X158957445Y-69319047D01*
X159576493Y-69319047D01*
X172046666Y-109137380D02*
X172046666Y-109851666D01*
X171999047Y-109994523D01*
X171903809Y-110089761D01*
X171760952Y-110137380D01*
X171665714Y-110137380D01*
X172427619Y-109137380D02*
X173046666Y-109137380D01*
X172713333Y-109518333D01*
X172856190Y-109518333D01*
X172951428Y-109565952D01*
X172999047Y-109613571D01*
X173046666Y-109708809D01*
X173046666Y-109946904D01*
X172999047Y-110042142D01*
X172951428Y-110089761D01*
X172856190Y-110137380D01*
X172570476Y-110137380D01*
X172475238Y-110089761D01*
X172427619Y-110042142D01*
M02*
