G04 #@! TF.GenerationSoftware,KiCad,Pcbnew,(5.1.5)-3*
G04 #@! TF.CreationDate,2020-07-03T21:37:29-07:00*
G04 #@! TF.ProjectId,Arduino_control_board,41726475-696e-46f5-9f63-6f6e74726f6c,rev?*
G04 #@! TF.SameCoordinates,Original*
G04 #@! TF.FileFunction,Copper,L2,Bot*
G04 #@! TF.FilePolarity,Positive*
%FSLAX46Y46*%
G04 Gerber Fmt 4.6, Leading zero omitted, Abs format (unit mm)*
G04 Created by KiCad (PCBNEW (5.1.5)-3) date 2020-07-03 21:37:29*
%MOMM*%
%LPD*%
G04 APERTURE LIST*
%ADD10R,1.600000X1.600000*%
%ADD11O,1.600000X1.600000*%
%ADD12R,2.500000X2.500000*%
%ADD13C,2.500000*%
%ADD14R,2.100000X2.100000*%
%ADD15C,2.100000*%
%ADD16C,0.800000*%
%ADD17C,0.250000*%
%ADD18C,0.254000*%
G04 APERTURE END LIST*
D10*
X180000000Y-67825000D03*
D11*
X164760000Y-34805000D03*
X180000000Y-65285000D03*
X164760000Y-37345000D03*
X180000000Y-62745000D03*
X164760000Y-39885000D03*
X180000000Y-60205000D03*
X164760000Y-42425000D03*
X180000000Y-57665000D03*
X164760000Y-44965000D03*
X180000000Y-55125000D03*
X164760000Y-47505000D03*
X180000000Y-52585000D03*
X164760000Y-50045000D03*
X180000000Y-50045000D03*
X164760000Y-52585000D03*
X180000000Y-47505000D03*
X164760000Y-55125000D03*
X180000000Y-44965000D03*
X164760000Y-57665000D03*
X180000000Y-42425000D03*
X164760000Y-60205000D03*
X180000000Y-39885000D03*
X164760000Y-62745000D03*
X180000000Y-37345000D03*
X164760000Y-65285000D03*
X180000000Y-34805000D03*
X164760000Y-67825000D03*
X180000000Y-32265000D03*
X164760000Y-32265000D03*
D12*
X210000000Y-39440000D03*
D13*
X210000000Y-44520000D03*
X210000000Y-49600000D03*
X210000000Y-54680000D03*
X210000000Y-59760000D03*
X210000000Y-64840000D03*
X210000000Y-69920000D03*
X210000000Y-75000000D03*
X210000000Y-80080000D03*
X210000000Y-85160000D03*
X210000000Y-90240000D03*
X210000000Y-95320000D03*
X134760000Y-39440000D03*
X134760000Y-44520000D03*
X134760000Y-49600000D03*
X134760000Y-54680000D03*
X134760000Y-59760000D03*
X134760000Y-64840000D03*
X134760000Y-69920000D03*
X134760000Y-75000000D03*
X134760000Y-80080000D03*
X134760000Y-85160000D03*
X134760000Y-90240000D03*
D12*
X134760000Y-95320000D03*
D14*
X195240000Y-104225000D03*
D15*
X190160000Y-104225000D03*
X185080000Y-104225000D03*
X180000000Y-104225000D03*
X174920000Y-104225000D03*
X169840000Y-104225000D03*
X164760000Y-104225000D03*
X159680000Y-104225000D03*
X154600000Y-104225000D03*
X149520000Y-104225000D03*
D16*
X160150000Y-70800000D03*
X149100000Y-27250000D03*
X155575000Y-27250000D03*
X149700000Y-45600000D03*
X147100000Y-89575000D03*
X160550000Y-85200000D03*
X166850000Y-85225000D03*
X176875000Y-90150000D03*
X162250000Y-44625000D03*
X146650000Y-27700000D03*
X146650000Y-43950000D03*
X158075000Y-33125000D03*
X158100000Y-41000000D03*
X149225000Y-41000000D03*
X149225000Y-43150000D03*
X199623680Y-46192440D03*
X199735440Y-39451280D03*
X199699880Y-50591720D03*
X203357480Y-56601360D03*
X200832720Y-62590680D03*
X144150000Y-72400000D03*
X142075000Y-78425000D03*
X144725000Y-82800000D03*
X145325000Y-88800000D03*
X197683120Y-51424840D03*
X183921400Y-50601880D03*
X197657720Y-57404000D03*
X189936120Y-58211720D03*
X191155320Y-53041720D03*
X191185800Y-55493920D03*
X199334120Y-63388240D03*
X190017400Y-56601360D03*
X197693280Y-49784000D03*
X190672720Y-51394360D03*
X189525000Y-55375000D03*
X182300000Y-54075000D03*
X147475000Y-83600000D03*
X160000000Y-83975000D03*
X145025000Y-81450000D03*
X145025000Y-77600000D03*
X155175000Y-76800000D03*
X155175000Y-79875000D03*
X147275000Y-71550000D03*
X154125000Y-77650000D03*
X146900000Y-85200000D03*
X155025000Y-83600000D03*
X154050000Y-78925000D03*
X153250000Y-73800000D03*
X197545960Y-43779440D03*
X190052960Y-49799240D03*
X183556720Y-57400000D03*
X197596760Y-60502800D03*
X184297320Y-56184800D03*
X154900000Y-85200000D03*
X146325000Y-79200000D03*
X161625000Y-77625000D03*
X160725000Y-74625000D03*
X160775000Y-79200000D03*
X197403720Y-45399960D03*
X192394840Y-47111920D03*
X184175000Y-48825000D03*
X168275000Y-55150000D03*
D17*
X164760000Y-39885000D02*
X165891370Y-39885000D01*
X173265685Y-47259315D02*
X173265685Y-96784315D01*
X165891370Y-39885000D02*
X173265685Y-47259315D01*
X174920000Y-98438630D02*
X174920000Y-104225000D01*
X173265685Y-96784315D02*
X174920000Y-98438630D01*
X169840000Y-46373630D02*
X169840000Y-102740076D01*
X165891370Y-42425000D02*
X169840000Y-46373630D01*
X169840000Y-102740076D02*
X169840000Y-104225000D01*
X164760000Y-42425000D02*
X165891370Y-42425000D01*
X147100000Y-89575000D02*
X147665685Y-89575000D01*
X147665685Y-89575000D02*
X157725000Y-89575000D01*
X157725000Y-89575000D02*
X160550000Y-86750000D01*
X160550000Y-86750000D02*
X160550000Y-85200000D01*
X165891370Y-47505000D02*
X166786370Y-48400000D01*
X164760000Y-47505000D02*
X165891370Y-47505000D01*
X166786370Y-48400000D02*
X166786370Y-85161370D01*
X166786370Y-85161370D02*
X166850000Y-85225000D01*
X180000000Y-42425000D02*
X176875000Y-45550000D01*
X176875000Y-45550000D02*
X176875000Y-90150000D01*
X136527766Y-44520000D02*
X134760000Y-44520000D01*
X136682767Y-44675001D02*
X136527766Y-44520000D01*
X161634314Y-44675001D02*
X136682767Y-44675001D01*
X161684315Y-44625000D02*
X161634314Y-44675001D01*
X162250000Y-44625000D02*
X161684315Y-44625000D01*
X147215685Y-27700000D02*
X147890685Y-28375000D01*
X146650000Y-27700000D02*
X147215685Y-27700000D01*
X147890685Y-28375000D02*
X169725000Y-28375000D01*
X176155000Y-34805000D02*
X180000000Y-34805000D01*
X169725000Y-28375000D02*
X176155000Y-34805000D01*
X146650000Y-27700000D02*
X146650000Y-43950000D01*
X158075000Y-33125000D02*
X158075000Y-40975000D01*
X158075000Y-40975000D02*
X158100000Y-41000000D01*
X149225000Y-41000000D02*
X149225000Y-43150000D01*
X199623680Y-46192440D02*
X199623680Y-39563040D01*
X199623680Y-39563040D02*
X199735440Y-39451280D01*
X201715520Y-54680000D02*
X210000000Y-54680000D01*
X199699880Y-50591720D02*
X199699880Y-52664360D01*
X199699880Y-52664360D02*
X201715520Y-54680000D01*
X203357480Y-57167045D02*
X203342240Y-57182285D01*
X203357480Y-56601360D02*
X203357480Y-57167045D01*
X203342240Y-57182285D02*
X203342240Y-61661040D01*
X206521200Y-64840000D02*
X210000000Y-64840000D01*
X203342240Y-61661040D02*
X206521200Y-64840000D01*
X200832720Y-62590680D02*
X201955400Y-63713360D01*
X201955400Y-63713360D02*
X201955400Y-71942960D01*
X205012440Y-75000000D02*
X210000000Y-75000000D01*
X201955400Y-71942960D02*
X205012440Y-75000000D01*
X144150000Y-69150000D02*
X134760000Y-59760000D01*
X144150000Y-72400000D02*
X144150000Y-69150000D01*
X142075000Y-77859315D02*
X142075000Y-78425000D01*
X142075000Y-75467234D02*
X142075000Y-77859315D01*
X136527766Y-69920000D02*
X142075000Y-75467234D01*
X134760000Y-69920000D02*
X136527766Y-69920000D01*
X137120000Y-82800000D02*
X134760000Y-85160000D01*
X144725000Y-82800000D02*
X137120000Y-82800000D01*
X138805000Y-95320000D02*
X134760000Y-95320000D01*
X145325000Y-88800000D02*
X138805000Y-95320000D01*
X197683120Y-51424840D02*
X196931280Y-52176680D01*
X196931280Y-52176680D02*
X185496200Y-52176680D01*
X185496200Y-52176680D02*
X183921400Y-50601880D01*
X197657720Y-57404000D02*
X196850000Y-58211720D01*
X196850000Y-58211720D02*
X189936120Y-58211720D01*
X191155320Y-53041720D02*
X191155320Y-55463440D01*
X191155320Y-55463440D02*
X191185800Y-55493920D01*
X199334120Y-63388240D02*
X199334120Y-57012840D01*
X199334120Y-57012840D02*
X198922640Y-56601360D01*
X198922640Y-56601360D02*
X190017400Y-56601360D01*
X197127595Y-49784000D02*
X196599275Y-50312320D01*
X197693280Y-49784000D02*
X197127595Y-49784000D01*
X196599275Y-50312320D02*
X191754760Y-50312320D01*
X191754760Y-50312320D02*
X190672720Y-51394360D01*
X189525000Y-55375000D02*
X188225000Y-54075000D01*
X188225000Y-54075000D02*
X182300000Y-54075000D01*
X147475000Y-83600000D02*
X152625000Y-83600000D01*
X152625000Y-83600000D02*
X153500000Y-82725000D01*
X153500000Y-82725000D02*
X155775000Y-82725000D01*
X155775000Y-82725000D02*
X155775000Y-82750000D01*
X155775000Y-82750000D02*
X157000000Y-83975000D01*
X157000000Y-83975000D02*
X160000000Y-83975000D01*
X145025000Y-81450000D02*
X145025000Y-77600000D01*
X155175000Y-76800000D02*
X155175000Y-79875000D01*
X147275000Y-71550000D02*
X153525000Y-71550000D01*
X153525000Y-71550000D02*
X153650000Y-71550000D01*
X153650000Y-71550000D02*
X154125000Y-72025000D01*
X154125000Y-72025000D02*
X154125000Y-77650000D01*
X146900000Y-85200000D02*
X152975000Y-85200000D01*
X152975000Y-85200000D02*
X154575000Y-83600000D01*
X154575000Y-83600000D02*
X155025000Y-83600000D01*
X154050000Y-78925000D02*
X153250000Y-78125000D01*
X153250000Y-78125000D02*
X153250000Y-73800000D01*
X196980275Y-43779440D02*
X196076035Y-44683680D01*
X197545960Y-43779440D02*
X196980275Y-43779440D01*
X196076035Y-44683680D02*
X193349880Y-44683680D01*
X193349880Y-44683680D02*
X190052960Y-47980600D01*
X190052960Y-47980600D02*
X190052960Y-49799240D01*
X197596760Y-60502800D02*
X185298080Y-60502800D01*
X185298080Y-60502800D02*
X184297320Y-59502040D01*
X184297320Y-59502040D02*
X184297320Y-56184800D01*
X146325000Y-80525000D02*
X146750000Y-80950000D01*
X146325000Y-79200000D02*
X146325000Y-80525000D01*
X160500000Y-80950000D02*
X161550000Y-79900000D01*
X146750000Y-80950000D02*
X160500000Y-80950000D01*
X161550000Y-79900000D02*
X161625000Y-77625000D01*
X160725000Y-74625000D02*
X160725000Y-79150000D01*
X160725000Y-79150000D02*
X160775000Y-79200000D01*
X197403720Y-45399960D02*
X195691760Y-47111920D01*
X195691760Y-47111920D02*
X192394840Y-47111920D01*
X180000000Y-57665000D02*
X182050000Y-59715000D01*
X182050000Y-59715000D02*
X182050000Y-96225000D01*
X180000000Y-98275000D02*
X180000000Y-104225000D01*
X182050000Y-96225000D02*
X180000000Y-98275000D01*
X168275000Y-55715685D02*
X168325000Y-55765685D01*
X168275000Y-55150000D02*
X168275000Y-55715685D01*
X168325000Y-100660000D02*
X164760000Y-104225000D01*
X168325000Y-55765685D02*
X168325000Y-100660000D01*
D18*
G36*
X215340001Y-108660000D02*
G01*
X129420000Y-108660000D01*
X129420000Y-103099872D01*
X132525000Y-103099872D01*
X132525000Y-103540128D01*
X132610890Y-103971925D01*
X132779369Y-104378669D01*
X133023962Y-104744729D01*
X133335271Y-105056038D01*
X133701331Y-105300631D01*
X134108075Y-105469110D01*
X134539872Y-105555000D01*
X134980128Y-105555000D01*
X135411925Y-105469110D01*
X135588268Y-105396066D01*
X148528539Y-105396066D01*
X148630339Y-105665579D01*
X148928477Y-105811463D01*
X149249346Y-105896380D01*
X149580617Y-105917066D01*
X149909557Y-105872728D01*
X150223527Y-105765069D01*
X150409661Y-105665579D01*
X150511461Y-105396066D01*
X153608539Y-105396066D01*
X153710339Y-105665579D01*
X154008477Y-105811463D01*
X154329346Y-105896380D01*
X154660617Y-105917066D01*
X154989557Y-105872728D01*
X155303527Y-105765069D01*
X155489661Y-105665579D01*
X155591461Y-105396066D01*
X158688539Y-105396066D01*
X158790339Y-105665579D01*
X159088477Y-105811463D01*
X159409346Y-105896380D01*
X159740617Y-105917066D01*
X160069557Y-105872728D01*
X160383527Y-105765069D01*
X160569661Y-105665579D01*
X160671461Y-105396066D01*
X159680000Y-104404605D01*
X158688539Y-105396066D01*
X155591461Y-105396066D01*
X154600000Y-104404605D01*
X153608539Y-105396066D01*
X150511461Y-105396066D01*
X149520000Y-104404605D01*
X148528539Y-105396066D01*
X135588268Y-105396066D01*
X135818669Y-105300631D01*
X136184729Y-105056038D01*
X136496038Y-104744729D01*
X136740631Y-104378669D01*
X136779174Y-104285617D01*
X147827934Y-104285617D01*
X147872272Y-104614557D01*
X147979931Y-104928527D01*
X148079421Y-105114661D01*
X148348934Y-105216461D01*
X149340395Y-104225000D01*
X149699605Y-104225000D01*
X150691066Y-105216461D01*
X150960579Y-105114661D01*
X151106463Y-104816523D01*
X151191380Y-104495654D01*
X151204495Y-104285617D01*
X152907934Y-104285617D01*
X152952272Y-104614557D01*
X153059931Y-104928527D01*
X153159421Y-105114661D01*
X153428934Y-105216461D01*
X154420395Y-104225000D01*
X154779605Y-104225000D01*
X155771066Y-105216461D01*
X156040579Y-105114661D01*
X156186463Y-104816523D01*
X156271380Y-104495654D01*
X156284495Y-104285617D01*
X157987934Y-104285617D01*
X158032272Y-104614557D01*
X158139931Y-104928527D01*
X158239421Y-105114661D01*
X158508934Y-105216461D01*
X159500395Y-104225000D01*
X159859605Y-104225000D01*
X160851066Y-105216461D01*
X161120579Y-105114661D01*
X161266463Y-104816523D01*
X161351380Y-104495654D01*
X161372066Y-104164383D01*
X161357868Y-104059042D01*
X163075000Y-104059042D01*
X163075000Y-104390958D01*
X163139754Y-104716496D01*
X163266772Y-105023147D01*
X163451175Y-105299125D01*
X163685875Y-105533825D01*
X163961853Y-105718228D01*
X164268504Y-105845246D01*
X164594042Y-105910000D01*
X164925958Y-105910000D01*
X165251496Y-105845246D01*
X165558147Y-105718228D01*
X165834125Y-105533825D01*
X166068825Y-105299125D01*
X166253228Y-105023147D01*
X166380246Y-104716496D01*
X166445000Y-104390958D01*
X166445000Y-104059042D01*
X166380246Y-103733504D01*
X166364445Y-103695356D01*
X168836003Y-101223799D01*
X168865001Y-101200001D01*
X168959974Y-101084276D01*
X169030546Y-100952247D01*
X169074003Y-100808986D01*
X169080001Y-100748088D01*
X169080001Y-102702734D01*
X169080000Y-102702744D01*
X169080000Y-102715971D01*
X169041853Y-102731772D01*
X168765875Y-102916175D01*
X168531175Y-103150875D01*
X168346772Y-103426853D01*
X168219754Y-103733504D01*
X168155000Y-104059042D01*
X168155000Y-104390958D01*
X168219754Y-104716496D01*
X168346772Y-105023147D01*
X168531175Y-105299125D01*
X168765875Y-105533825D01*
X169041853Y-105718228D01*
X169348504Y-105845246D01*
X169674042Y-105910000D01*
X170005958Y-105910000D01*
X170331496Y-105845246D01*
X170638147Y-105718228D01*
X170914125Y-105533825D01*
X171148825Y-105299125D01*
X171333228Y-105023147D01*
X171460246Y-104716496D01*
X171525000Y-104390958D01*
X171525000Y-104059042D01*
X171460246Y-103733504D01*
X171333228Y-103426853D01*
X171148825Y-103150875D01*
X170914125Y-102916175D01*
X170638147Y-102731772D01*
X170600000Y-102715971D01*
X170600000Y-46410952D01*
X170603676Y-46373629D01*
X170600000Y-46336306D01*
X170600000Y-46336297D01*
X170589003Y-46224644D01*
X170545546Y-46081383D01*
X170533974Y-46059734D01*
X170474974Y-45949353D01*
X170403799Y-45862627D01*
X170380001Y-45833629D01*
X170351004Y-45809832D01*
X166455174Y-41914003D01*
X166431371Y-41884999D01*
X166315646Y-41790026D01*
X166183617Y-41719454D01*
X166040356Y-41675997D01*
X165981519Y-41670202D01*
X165874637Y-41510241D01*
X165674759Y-41310363D01*
X165442241Y-41155000D01*
X165674759Y-40999637D01*
X165802982Y-40871414D01*
X172505685Y-47574117D01*
X172505686Y-96746982D01*
X172502009Y-96784315D01*
X172516683Y-96933300D01*
X172560139Y-97076561D01*
X172630711Y-97208591D01*
X172701886Y-97295317D01*
X172725685Y-97324316D01*
X172754683Y-97348114D01*
X174160000Y-98753432D01*
X174160001Y-102715971D01*
X174121853Y-102731772D01*
X173845875Y-102916175D01*
X173611175Y-103150875D01*
X173426772Y-103426853D01*
X173299754Y-103733504D01*
X173235000Y-104059042D01*
X173235000Y-104390958D01*
X173299754Y-104716496D01*
X173426772Y-105023147D01*
X173611175Y-105299125D01*
X173845875Y-105533825D01*
X174121853Y-105718228D01*
X174428504Y-105845246D01*
X174754042Y-105910000D01*
X175085958Y-105910000D01*
X175411496Y-105845246D01*
X175718147Y-105718228D01*
X175994125Y-105533825D01*
X176228825Y-105299125D01*
X176413228Y-105023147D01*
X176540246Y-104716496D01*
X176605000Y-104390958D01*
X176605000Y-104059042D01*
X176540246Y-103733504D01*
X176413228Y-103426853D01*
X176228825Y-103150875D01*
X175994125Y-102916175D01*
X175718147Y-102731772D01*
X175680000Y-102715971D01*
X175680000Y-98475955D01*
X175683676Y-98438630D01*
X175680000Y-98401305D01*
X175680000Y-98401297D01*
X175669003Y-98289644D01*
X175625546Y-98146383D01*
X175554974Y-98014354D01*
X175460001Y-97898629D01*
X175431004Y-97874832D01*
X174025685Y-96469514D01*
X174025685Y-47296637D01*
X174029361Y-47259314D01*
X174025685Y-47221991D01*
X174025685Y-47221982D01*
X174014688Y-47110329D01*
X173971231Y-46967068D01*
X173900659Y-46835039D01*
X173805686Y-46719314D01*
X173776689Y-46695517D01*
X166455174Y-39374003D01*
X166431371Y-39344999D01*
X166315646Y-39250026D01*
X166183617Y-39179454D01*
X166040356Y-39135997D01*
X165981519Y-39130202D01*
X165874637Y-38970241D01*
X165674759Y-38770363D01*
X165442241Y-38615000D01*
X165674759Y-38459637D01*
X165874637Y-38259759D01*
X166031680Y-38024727D01*
X166139853Y-37763574D01*
X166195000Y-37486335D01*
X166195000Y-37203665D01*
X166139853Y-36926426D01*
X166031680Y-36665273D01*
X165874637Y-36430241D01*
X165674759Y-36230363D01*
X165442241Y-36075000D01*
X165674759Y-35919637D01*
X165874637Y-35719759D01*
X166031680Y-35484727D01*
X166139853Y-35223574D01*
X166195000Y-34946335D01*
X166195000Y-34663665D01*
X166139853Y-34386426D01*
X166031680Y-34125273D01*
X165874637Y-33890241D01*
X165674759Y-33690363D01*
X165442241Y-33535000D01*
X165674759Y-33379637D01*
X165874637Y-33179759D01*
X166031680Y-32944727D01*
X166139853Y-32683574D01*
X166195000Y-32406335D01*
X166195000Y-32123665D01*
X166139853Y-31846426D01*
X166031680Y-31585273D01*
X165874637Y-31350241D01*
X165674759Y-31150363D01*
X165439727Y-30993320D01*
X165178574Y-30885147D01*
X164901335Y-30830000D01*
X164618665Y-30830000D01*
X164341426Y-30885147D01*
X164080273Y-30993320D01*
X163845241Y-31150363D01*
X163645363Y-31350241D01*
X163488320Y-31585273D01*
X163380147Y-31846426D01*
X163325000Y-32123665D01*
X163325000Y-32406335D01*
X163380147Y-32683574D01*
X163488320Y-32944727D01*
X163645363Y-33179759D01*
X163845241Y-33379637D01*
X164077759Y-33535000D01*
X163845241Y-33690363D01*
X163645363Y-33890241D01*
X163488320Y-34125273D01*
X163380147Y-34386426D01*
X163325000Y-34663665D01*
X163325000Y-34946335D01*
X163380147Y-35223574D01*
X163488320Y-35484727D01*
X163645363Y-35719759D01*
X163845241Y-35919637D01*
X164077759Y-36075000D01*
X163845241Y-36230363D01*
X163645363Y-36430241D01*
X163488320Y-36665273D01*
X163380147Y-36926426D01*
X163325000Y-37203665D01*
X163325000Y-37486335D01*
X163380147Y-37763574D01*
X163488320Y-38024727D01*
X163645363Y-38259759D01*
X163845241Y-38459637D01*
X164077759Y-38615000D01*
X163845241Y-38770363D01*
X163645363Y-38970241D01*
X163488320Y-39205273D01*
X163380147Y-39466426D01*
X163325000Y-39743665D01*
X163325000Y-40026335D01*
X163380147Y-40303574D01*
X163488320Y-40564727D01*
X163645363Y-40799759D01*
X163845241Y-40999637D01*
X164077759Y-41155000D01*
X163845241Y-41310363D01*
X163645363Y-41510241D01*
X163488320Y-41745273D01*
X163380147Y-42006426D01*
X163325000Y-42283665D01*
X163325000Y-42566335D01*
X163380147Y-42843574D01*
X163488320Y-43104727D01*
X163645363Y-43339759D01*
X163845241Y-43539637D01*
X164077759Y-43695000D01*
X163845241Y-43850363D01*
X163645363Y-44050241D01*
X163488320Y-44285273D01*
X163380147Y-44546426D01*
X163325000Y-44823665D01*
X163325000Y-45106335D01*
X163380147Y-45383574D01*
X163488320Y-45644727D01*
X163645363Y-45879759D01*
X163845241Y-46079637D01*
X164077759Y-46235000D01*
X163845241Y-46390363D01*
X163645363Y-46590241D01*
X163488320Y-46825273D01*
X163380147Y-47086426D01*
X163325000Y-47363665D01*
X163325000Y-47646335D01*
X163380147Y-47923574D01*
X163488320Y-48184727D01*
X163645363Y-48419759D01*
X163845241Y-48619637D01*
X164077759Y-48775000D01*
X163845241Y-48930363D01*
X163645363Y-49130241D01*
X163488320Y-49365273D01*
X163380147Y-49626426D01*
X163325000Y-49903665D01*
X163325000Y-50186335D01*
X163380147Y-50463574D01*
X163488320Y-50724727D01*
X163645363Y-50959759D01*
X163845241Y-51159637D01*
X164077759Y-51315000D01*
X163845241Y-51470363D01*
X163645363Y-51670241D01*
X163488320Y-51905273D01*
X163380147Y-52166426D01*
X163325000Y-52443665D01*
X163325000Y-52726335D01*
X163380147Y-53003574D01*
X163488320Y-53264727D01*
X163645363Y-53499759D01*
X163845241Y-53699637D01*
X164077759Y-53855000D01*
X163845241Y-54010363D01*
X163645363Y-54210241D01*
X163488320Y-54445273D01*
X163380147Y-54706426D01*
X163325000Y-54983665D01*
X163325000Y-55266335D01*
X163380147Y-55543574D01*
X163488320Y-55804727D01*
X163645363Y-56039759D01*
X163845241Y-56239637D01*
X164077759Y-56395000D01*
X163845241Y-56550363D01*
X163645363Y-56750241D01*
X163488320Y-56985273D01*
X163380147Y-57246426D01*
X163325000Y-57523665D01*
X163325000Y-57806335D01*
X163380147Y-58083574D01*
X163488320Y-58344727D01*
X163645363Y-58579759D01*
X163845241Y-58779637D01*
X164077759Y-58935000D01*
X163845241Y-59090363D01*
X163645363Y-59290241D01*
X163488320Y-59525273D01*
X163380147Y-59786426D01*
X163325000Y-60063665D01*
X163325000Y-60346335D01*
X163380147Y-60623574D01*
X163488320Y-60884727D01*
X163645363Y-61119759D01*
X163845241Y-61319637D01*
X164077759Y-61475000D01*
X163845241Y-61630363D01*
X163645363Y-61830241D01*
X163488320Y-62065273D01*
X163380147Y-62326426D01*
X163325000Y-62603665D01*
X163325000Y-62886335D01*
X163380147Y-63163574D01*
X163488320Y-63424727D01*
X163645363Y-63659759D01*
X163845241Y-63859637D01*
X164080273Y-64016680D01*
X164090865Y-64021067D01*
X163904869Y-64132615D01*
X163696481Y-64321586D01*
X163528963Y-64547580D01*
X163408754Y-64801913D01*
X163368096Y-64935961D01*
X163490085Y-65158000D01*
X164633000Y-65158000D01*
X164633000Y-65138000D01*
X164887000Y-65138000D01*
X164887000Y-65158000D01*
X164907000Y-65158000D01*
X164907000Y-65412000D01*
X164887000Y-65412000D01*
X164887000Y-65432000D01*
X164633000Y-65432000D01*
X164633000Y-65412000D01*
X163490085Y-65412000D01*
X163368096Y-65634039D01*
X163408754Y-65768087D01*
X163528963Y-66022420D01*
X163696481Y-66248414D01*
X163904869Y-66437385D01*
X164090865Y-66548933D01*
X164080273Y-66553320D01*
X163845241Y-66710363D01*
X163645363Y-66910241D01*
X163488320Y-67145273D01*
X163380147Y-67406426D01*
X163325000Y-67683665D01*
X163325000Y-67966335D01*
X163380147Y-68243574D01*
X163488320Y-68504727D01*
X163645363Y-68739759D01*
X163845241Y-68939637D01*
X164080273Y-69096680D01*
X164341426Y-69204853D01*
X164618665Y-69260000D01*
X164901335Y-69260000D01*
X165178574Y-69204853D01*
X165439727Y-69096680D01*
X165674759Y-68939637D01*
X165874637Y-68739759D01*
X166026371Y-68512673D01*
X166026371Y-84594697D01*
X165932795Y-84734744D01*
X165854774Y-84923102D01*
X165815000Y-85123061D01*
X165815000Y-85326939D01*
X165854774Y-85526898D01*
X165932795Y-85715256D01*
X166046063Y-85884774D01*
X166190226Y-86028937D01*
X166359744Y-86142205D01*
X166548102Y-86220226D01*
X166748061Y-86260000D01*
X166951939Y-86260000D01*
X167151898Y-86220226D01*
X167340256Y-86142205D01*
X167509774Y-86028937D01*
X167565001Y-85973710D01*
X167565001Y-100345197D01*
X165289644Y-102620555D01*
X165251496Y-102604754D01*
X164925958Y-102540000D01*
X164594042Y-102540000D01*
X164268504Y-102604754D01*
X163961853Y-102731772D01*
X163685875Y-102916175D01*
X163451175Y-103150875D01*
X163266772Y-103426853D01*
X163139754Y-103733504D01*
X163075000Y-104059042D01*
X161357868Y-104059042D01*
X161327728Y-103835443D01*
X161220069Y-103521473D01*
X161120579Y-103335339D01*
X160851066Y-103233539D01*
X159859605Y-104225000D01*
X159500395Y-104225000D01*
X158508934Y-103233539D01*
X158239421Y-103335339D01*
X158093537Y-103633477D01*
X158008620Y-103954346D01*
X157987934Y-104285617D01*
X156284495Y-104285617D01*
X156292066Y-104164383D01*
X156247728Y-103835443D01*
X156140069Y-103521473D01*
X156040579Y-103335339D01*
X155771066Y-103233539D01*
X154779605Y-104225000D01*
X154420395Y-104225000D01*
X153428934Y-103233539D01*
X153159421Y-103335339D01*
X153013537Y-103633477D01*
X152928620Y-103954346D01*
X152907934Y-104285617D01*
X151204495Y-104285617D01*
X151212066Y-104164383D01*
X151167728Y-103835443D01*
X151060069Y-103521473D01*
X150960579Y-103335339D01*
X150691066Y-103233539D01*
X149699605Y-104225000D01*
X149340395Y-104225000D01*
X148348934Y-103233539D01*
X148079421Y-103335339D01*
X147933537Y-103633477D01*
X147848620Y-103954346D01*
X147827934Y-104285617D01*
X136779174Y-104285617D01*
X136909110Y-103971925D01*
X136995000Y-103540128D01*
X136995000Y-103099872D01*
X136985863Y-103053934D01*
X148528539Y-103053934D01*
X149520000Y-104045395D01*
X150511461Y-103053934D01*
X153608539Y-103053934D01*
X154600000Y-104045395D01*
X155591461Y-103053934D01*
X158688539Y-103053934D01*
X159680000Y-104045395D01*
X160671461Y-103053934D01*
X160569661Y-102784421D01*
X160271523Y-102638537D01*
X159950654Y-102553620D01*
X159619383Y-102532934D01*
X159290443Y-102577272D01*
X158976473Y-102684931D01*
X158790339Y-102784421D01*
X158688539Y-103053934D01*
X155591461Y-103053934D01*
X155489661Y-102784421D01*
X155191523Y-102638537D01*
X154870654Y-102553620D01*
X154539383Y-102532934D01*
X154210443Y-102577272D01*
X153896473Y-102684931D01*
X153710339Y-102784421D01*
X153608539Y-103053934D01*
X150511461Y-103053934D01*
X150409661Y-102784421D01*
X150111523Y-102638537D01*
X149790654Y-102553620D01*
X149459383Y-102532934D01*
X149130443Y-102577272D01*
X148816473Y-102684931D01*
X148630339Y-102784421D01*
X148528539Y-103053934D01*
X136985863Y-103053934D01*
X136909110Y-102668075D01*
X136740631Y-102261331D01*
X136496038Y-101895271D01*
X136184729Y-101583962D01*
X135818669Y-101339369D01*
X135411925Y-101170890D01*
X134980128Y-101085000D01*
X134539872Y-101085000D01*
X134108075Y-101170890D01*
X133701331Y-101339369D01*
X133335271Y-101583962D01*
X133023962Y-101895271D01*
X132779369Y-102261331D01*
X132610890Y-102668075D01*
X132525000Y-103099872D01*
X129420000Y-103099872D01*
X129420000Y-94070000D01*
X132871928Y-94070000D01*
X132871928Y-96570000D01*
X132884188Y-96694482D01*
X132920498Y-96814180D01*
X132979463Y-96924494D01*
X133058815Y-97021185D01*
X133155506Y-97100537D01*
X133265820Y-97159502D01*
X133385518Y-97195812D01*
X133510000Y-97208072D01*
X136010000Y-97208072D01*
X136134482Y-97195812D01*
X136254180Y-97159502D01*
X136364494Y-97100537D01*
X136461185Y-97021185D01*
X136540537Y-96924494D01*
X136599502Y-96814180D01*
X136635812Y-96694482D01*
X136648072Y-96570000D01*
X136648072Y-96080000D01*
X138767678Y-96080000D01*
X138805000Y-96083676D01*
X138842322Y-96080000D01*
X138842333Y-96080000D01*
X138953986Y-96069003D01*
X139097247Y-96025546D01*
X139229276Y-95954974D01*
X139345001Y-95860001D01*
X139368804Y-95830997D01*
X145364803Y-89835000D01*
X145426939Y-89835000D01*
X145626898Y-89795226D01*
X145815256Y-89717205D01*
X145984774Y-89603937D01*
X146065000Y-89523711D01*
X146065000Y-89676939D01*
X146104774Y-89876898D01*
X146182795Y-90065256D01*
X146296063Y-90234774D01*
X146440226Y-90378937D01*
X146609744Y-90492205D01*
X146798102Y-90570226D01*
X146998061Y-90610000D01*
X147201939Y-90610000D01*
X147401898Y-90570226D01*
X147590256Y-90492205D01*
X147759774Y-90378937D01*
X147803711Y-90335000D01*
X157687678Y-90335000D01*
X157725000Y-90338676D01*
X157762322Y-90335000D01*
X157762333Y-90335000D01*
X157873986Y-90324003D01*
X158017247Y-90280546D01*
X158149276Y-90209974D01*
X158265001Y-90115001D01*
X158288804Y-90085997D01*
X161061004Y-87313798D01*
X161090001Y-87290001D01*
X161184974Y-87174276D01*
X161255546Y-87042247D01*
X161299003Y-86898986D01*
X161310000Y-86787333D01*
X161310000Y-86787324D01*
X161313676Y-86750001D01*
X161310000Y-86712678D01*
X161310000Y-85903711D01*
X161353937Y-85859774D01*
X161467205Y-85690256D01*
X161545226Y-85501898D01*
X161585000Y-85301939D01*
X161585000Y-85098061D01*
X161545226Y-84898102D01*
X161467205Y-84709744D01*
X161353937Y-84540226D01*
X161209774Y-84396063D01*
X161040256Y-84282795D01*
X160997570Y-84265114D01*
X161035000Y-84076939D01*
X161035000Y-83873061D01*
X160995226Y-83673102D01*
X160917205Y-83484744D01*
X160803937Y-83315226D01*
X160659774Y-83171063D01*
X160490256Y-83057795D01*
X160301898Y-82979774D01*
X160101939Y-82940000D01*
X159898061Y-82940000D01*
X159698102Y-82979774D01*
X159509744Y-83057795D01*
X159340226Y-83171063D01*
X159296289Y-83215000D01*
X157314802Y-83215000D01*
X156420824Y-82321023D01*
X156409974Y-82300724D01*
X156315001Y-82184999D01*
X156199276Y-82090026D01*
X156067247Y-82019454D01*
X155923986Y-81975997D01*
X155812333Y-81965000D01*
X155775000Y-81961323D01*
X155737667Y-81965000D01*
X153537323Y-81965000D01*
X153500000Y-81961324D01*
X153462677Y-81965000D01*
X153462667Y-81965000D01*
X153351014Y-81975997D01*
X153207753Y-82019454D01*
X153075724Y-82090026D01*
X152959999Y-82184999D01*
X152936201Y-82213997D01*
X152310199Y-82840000D01*
X148178711Y-82840000D01*
X148134774Y-82796063D01*
X147965256Y-82682795D01*
X147776898Y-82604774D01*
X147576939Y-82565000D01*
X147373061Y-82565000D01*
X147173102Y-82604774D01*
X146984744Y-82682795D01*
X146815226Y-82796063D01*
X146671063Y-82940226D01*
X146557795Y-83109744D01*
X146479774Y-83298102D01*
X146440000Y-83498061D01*
X146440000Y-83701939D01*
X146479774Y-83901898D01*
X146557795Y-84090256D01*
X146630065Y-84198416D01*
X146598102Y-84204774D01*
X146409744Y-84282795D01*
X146240226Y-84396063D01*
X146096063Y-84540226D01*
X145982795Y-84709744D01*
X145904774Y-84898102D01*
X145865000Y-85098061D01*
X145865000Y-85301939D01*
X145904774Y-85501898D01*
X145982795Y-85690256D01*
X146096063Y-85859774D01*
X146240226Y-86003937D01*
X146409744Y-86117205D01*
X146598102Y-86195226D01*
X146798061Y-86235000D01*
X147001939Y-86235000D01*
X147201898Y-86195226D01*
X147390256Y-86117205D01*
X147559774Y-86003937D01*
X147603711Y-85960000D01*
X152937678Y-85960000D01*
X152975000Y-85963676D01*
X153012322Y-85960000D01*
X153012333Y-85960000D01*
X153123986Y-85949003D01*
X153267247Y-85905546D01*
X153399276Y-85834974D01*
X153515001Y-85740001D01*
X153538804Y-85710997D01*
X153878748Y-85371054D01*
X153904774Y-85501898D01*
X153982795Y-85690256D01*
X154096063Y-85859774D01*
X154240226Y-86003937D01*
X154409744Y-86117205D01*
X154598102Y-86195226D01*
X154798061Y-86235000D01*
X155001939Y-86235000D01*
X155201898Y-86195226D01*
X155390256Y-86117205D01*
X155559774Y-86003937D01*
X155703937Y-85859774D01*
X155817205Y-85690256D01*
X155895226Y-85501898D01*
X155935000Y-85301939D01*
X155935000Y-85098061D01*
X155895226Y-84898102D01*
X155817205Y-84709744D01*
X155703937Y-84540226D01*
X155614562Y-84450851D01*
X155684774Y-84403937D01*
X155828937Y-84259774D01*
X155942205Y-84090256D01*
X155970982Y-84020783D01*
X156436201Y-84486003D01*
X156459999Y-84515001D01*
X156560611Y-84597571D01*
X156575724Y-84609974D01*
X156707753Y-84680546D01*
X156851014Y-84724003D01*
X157000000Y-84738677D01*
X157037333Y-84735000D01*
X159296289Y-84735000D01*
X159340226Y-84778937D01*
X159509744Y-84892205D01*
X159552430Y-84909886D01*
X159515000Y-85098061D01*
X159515000Y-85301939D01*
X159554774Y-85501898D01*
X159632795Y-85690256D01*
X159746063Y-85859774D01*
X159790001Y-85903712D01*
X159790000Y-86435198D01*
X157410199Y-88815000D01*
X147803711Y-88815000D01*
X147759774Y-88771063D01*
X147590256Y-88657795D01*
X147401898Y-88579774D01*
X147201939Y-88540000D01*
X146998061Y-88540000D01*
X146798102Y-88579774D01*
X146609744Y-88657795D01*
X146440226Y-88771063D01*
X146360000Y-88851289D01*
X146360000Y-88698061D01*
X146320226Y-88498102D01*
X146242205Y-88309744D01*
X146128937Y-88140226D01*
X145984774Y-87996063D01*
X145815256Y-87882795D01*
X145626898Y-87804774D01*
X145426939Y-87765000D01*
X145223061Y-87765000D01*
X145023102Y-87804774D01*
X144834744Y-87882795D01*
X144665226Y-87996063D01*
X144521063Y-88140226D01*
X144407795Y-88309744D01*
X144329774Y-88498102D01*
X144290000Y-88698061D01*
X144290000Y-88760197D01*
X138490199Y-94560000D01*
X136648072Y-94560000D01*
X136648072Y-94070000D01*
X136635812Y-93945518D01*
X136599502Y-93825820D01*
X136540537Y-93715506D01*
X136461185Y-93618815D01*
X136364494Y-93539463D01*
X136254180Y-93480498D01*
X136134482Y-93444188D01*
X136010000Y-93431928D01*
X133510000Y-93431928D01*
X133385518Y-93444188D01*
X133265820Y-93480498D01*
X133155506Y-93539463D01*
X133058815Y-93618815D01*
X132979463Y-93715506D01*
X132920498Y-93825820D01*
X132884188Y-93945518D01*
X132871928Y-94070000D01*
X129420000Y-94070000D01*
X129420000Y-90054344D01*
X132875000Y-90054344D01*
X132875000Y-90425656D01*
X132947439Y-90789834D01*
X133089534Y-91132882D01*
X133295825Y-91441618D01*
X133558382Y-91704175D01*
X133867118Y-91910466D01*
X134210166Y-92052561D01*
X134574344Y-92125000D01*
X134945656Y-92125000D01*
X135309834Y-92052561D01*
X135652882Y-91910466D01*
X135961618Y-91704175D01*
X136224175Y-91441618D01*
X136430466Y-91132882D01*
X136572561Y-90789834D01*
X136645000Y-90425656D01*
X136645000Y-90054344D01*
X136572561Y-89690166D01*
X136430466Y-89347118D01*
X136224175Y-89038382D01*
X135961618Y-88775825D01*
X135652882Y-88569534D01*
X135309834Y-88427439D01*
X134945656Y-88355000D01*
X134574344Y-88355000D01*
X134210166Y-88427439D01*
X133867118Y-88569534D01*
X133558382Y-88775825D01*
X133295825Y-89038382D01*
X133089534Y-89347118D01*
X132947439Y-89690166D01*
X132875000Y-90054344D01*
X129420000Y-90054344D01*
X129420000Y-84974344D01*
X132875000Y-84974344D01*
X132875000Y-85345656D01*
X132947439Y-85709834D01*
X133089534Y-86052882D01*
X133295825Y-86361618D01*
X133558382Y-86624175D01*
X133867118Y-86830466D01*
X134210166Y-86972561D01*
X134574344Y-87045000D01*
X134945656Y-87045000D01*
X135309834Y-86972561D01*
X135652882Y-86830466D01*
X135961618Y-86624175D01*
X136224175Y-86361618D01*
X136430466Y-86052882D01*
X136572561Y-85709834D01*
X136645000Y-85345656D01*
X136645000Y-84974344D01*
X136572561Y-84610166D01*
X136517519Y-84477283D01*
X137434802Y-83560000D01*
X144021289Y-83560000D01*
X144065226Y-83603937D01*
X144234744Y-83717205D01*
X144423102Y-83795226D01*
X144623061Y-83835000D01*
X144826939Y-83835000D01*
X145026898Y-83795226D01*
X145215256Y-83717205D01*
X145384774Y-83603937D01*
X145528937Y-83459774D01*
X145642205Y-83290256D01*
X145720226Y-83101898D01*
X145760000Y-82901939D01*
X145760000Y-82698061D01*
X145720226Y-82498102D01*
X145642205Y-82309744D01*
X145629565Y-82290827D01*
X145684774Y-82253937D01*
X145828937Y-82109774D01*
X145942205Y-81940256D01*
X146020226Y-81751898D01*
X146060000Y-81551939D01*
X146060000Y-81348061D01*
X146056708Y-81331509D01*
X146186196Y-81460997D01*
X146209999Y-81490001D01*
X146325724Y-81584974D01*
X146457753Y-81655546D01*
X146601014Y-81699003D01*
X146712667Y-81710000D01*
X146712675Y-81710000D01*
X146750000Y-81713676D01*
X146787325Y-81710000D01*
X160462678Y-81710000D01*
X160500000Y-81713676D01*
X160537322Y-81710000D01*
X160537333Y-81710000D01*
X160648986Y-81699003D01*
X160792247Y-81655546D01*
X160924276Y-81584974D01*
X161040001Y-81490001D01*
X161063804Y-81460998D01*
X162052120Y-80472682D01*
X162071915Y-80457500D01*
X162104922Y-80419880D01*
X162113799Y-80411003D01*
X162129554Y-80391805D01*
X162170649Y-80344967D01*
X162176962Y-80334038D01*
X162184973Y-80324277D01*
X162214362Y-80269296D01*
X162245533Y-80215335D01*
X162249593Y-80203385D01*
X162255546Y-80192247D01*
X162273642Y-80132590D01*
X162293687Y-80073584D01*
X162295338Y-80061066D01*
X162299002Y-80048987D01*
X162305110Y-79986976D01*
X162308357Y-79962354D01*
X162308771Y-79949805D01*
X162313676Y-79900001D01*
X162311231Y-79875177D01*
X162361436Y-78352275D01*
X162428937Y-78284774D01*
X162542205Y-78115256D01*
X162620226Y-77926898D01*
X162660000Y-77726939D01*
X162660000Y-77523061D01*
X162620226Y-77323102D01*
X162542205Y-77134744D01*
X162428937Y-76965226D01*
X162284774Y-76821063D01*
X162115256Y-76707795D01*
X161926898Y-76629774D01*
X161726939Y-76590000D01*
X161523061Y-76590000D01*
X161485000Y-76597571D01*
X161485000Y-75328711D01*
X161528937Y-75284774D01*
X161642205Y-75115256D01*
X161720226Y-74926898D01*
X161760000Y-74726939D01*
X161760000Y-74523061D01*
X161720226Y-74323102D01*
X161642205Y-74134744D01*
X161528937Y-73965226D01*
X161384774Y-73821063D01*
X161215256Y-73707795D01*
X161026898Y-73629774D01*
X160826939Y-73590000D01*
X160623061Y-73590000D01*
X160423102Y-73629774D01*
X160234744Y-73707795D01*
X160065226Y-73821063D01*
X159921063Y-73965226D01*
X159807795Y-74134744D01*
X159729774Y-74323102D01*
X159690000Y-74523061D01*
X159690000Y-74726939D01*
X159729774Y-74926898D01*
X159807795Y-75115256D01*
X159921063Y-75284774D01*
X159965000Y-75328711D01*
X159965001Y-78549299D01*
X159857795Y-78709744D01*
X159779774Y-78898102D01*
X159740000Y-79098061D01*
X159740000Y-79301939D01*
X159779774Y-79501898D01*
X159857795Y-79690256D01*
X159971063Y-79859774D01*
X160115226Y-80003937D01*
X160268708Y-80106490D01*
X160185199Y-80190000D01*
X156164799Y-80190000D01*
X156170226Y-80176898D01*
X156210000Y-79976939D01*
X156210000Y-79773061D01*
X156170226Y-79573102D01*
X156092205Y-79384744D01*
X155978937Y-79215226D01*
X155935000Y-79171289D01*
X155935000Y-77503711D01*
X155978937Y-77459774D01*
X156092205Y-77290256D01*
X156170226Y-77101898D01*
X156210000Y-76901939D01*
X156210000Y-76698061D01*
X156170226Y-76498102D01*
X156092205Y-76309744D01*
X155978937Y-76140226D01*
X155834774Y-75996063D01*
X155665256Y-75882795D01*
X155476898Y-75804774D01*
X155276939Y-75765000D01*
X155073061Y-75765000D01*
X154885000Y-75802407D01*
X154885000Y-72062322D01*
X154888676Y-72024999D01*
X154885000Y-71987676D01*
X154885000Y-71987667D01*
X154874003Y-71876014D01*
X154830546Y-71732753D01*
X154759974Y-71600724D01*
X154665001Y-71484999D01*
X154636003Y-71461202D01*
X154213803Y-71039002D01*
X154190001Y-71009999D01*
X154074276Y-70915026D01*
X153942247Y-70844454D01*
X153798986Y-70800997D01*
X153687333Y-70790000D01*
X153687322Y-70790000D01*
X153650000Y-70786324D01*
X153612678Y-70790000D01*
X147978711Y-70790000D01*
X147934774Y-70746063D01*
X147765256Y-70632795D01*
X147576898Y-70554774D01*
X147376939Y-70515000D01*
X147173061Y-70515000D01*
X146973102Y-70554774D01*
X146784744Y-70632795D01*
X146615226Y-70746063D01*
X146471063Y-70890226D01*
X146357795Y-71059744D01*
X146279774Y-71248102D01*
X146240000Y-71448061D01*
X146240000Y-71651939D01*
X146279774Y-71851898D01*
X146357795Y-72040256D01*
X146471063Y-72209774D01*
X146615226Y-72353937D01*
X146784744Y-72467205D01*
X146973102Y-72545226D01*
X147173061Y-72585000D01*
X147376939Y-72585000D01*
X147576898Y-72545226D01*
X147765256Y-72467205D01*
X147934774Y-72353937D01*
X147978711Y-72310000D01*
X153335199Y-72310000D01*
X153365000Y-72339802D01*
X153365000Y-72767598D01*
X153351939Y-72765000D01*
X153148061Y-72765000D01*
X152948102Y-72804774D01*
X152759744Y-72882795D01*
X152590226Y-72996063D01*
X152446063Y-73140226D01*
X152332795Y-73309744D01*
X152254774Y-73498102D01*
X152215000Y-73698061D01*
X152215000Y-73901939D01*
X152254774Y-74101898D01*
X152332795Y-74290256D01*
X152446063Y-74459774D01*
X152490001Y-74503712D01*
X152490000Y-78087677D01*
X152486324Y-78125000D01*
X152490000Y-78162322D01*
X152490000Y-78162332D01*
X152500997Y-78273985D01*
X152515884Y-78323061D01*
X152544454Y-78417246D01*
X152615026Y-78549276D01*
X152645330Y-78586201D01*
X152709999Y-78665001D01*
X152739002Y-78688803D01*
X153015000Y-78964801D01*
X153015000Y-79026939D01*
X153054774Y-79226898D01*
X153132795Y-79415256D01*
X153246063Y-79584774D01*
X153390226Y-79728937D01*
X153559744Y-79842205D01*
X153748102Y-79920226D01*
X153948061Y-79960000D01*
X154140000Y-79960000D01*
X154140000Y-79976939D01*
X154179774Y-80176898D01*
X154185201Y-80190000D01*
X147085000Y-80190000D01*
X147085000Y-79903711D01*
X147128937Y-79859774D01*
X147242205Y-79690256D01*
X147320226Y-79501898D01*
X147360000Y-79301939D01*
X147360000Y-79098061D01*
X147320226Y-78898102D01*
X147242205Y-78709744D01*
X147128937Y-78540226D01*
X146984774Y-78396063D01*
X146815256Y-78282795D01*
X146626898Y-78204774D01*
X146426939Y-78165000D01*
X146223061Y-78165000D01*
X146023102Y-78204774D01*
X145834744Y-78282795D01*
X145785000Y-78316033D01*
X145785000Y-78303711D01*
X145828937Y-78259774D01*
X145942205Y-78090256D01*
X146020226Y-77901898D01*
X146060000Y-77701939D01*
X146060000Y-77498061D01*
X146020226Y-77298102D01*
X145942205Y-77109744D01*
X145828937Y-76940226D01*
X145684774Y-76796063D01*
X145515256Y-76682795D01*
X145326898Y-76604774D01*
X145126939Y-76565000D01*
X144923061Y-76565000D01*
X144723102Y-76604774D01*
X144534744Y-76682795D01*
X144365226Y-76796063D01*
X144221063Y-76940226D01*
X144107795Y-77109744D01*
X144029774Y-77298102D01*
X143990000Y-77498061D01*
X143990000Y-77701939D01*
X144029774Y-77901898D01*
X144107795Y-78090256D01*
X144221063Y-78259774D01*
X144265001Y-78303712D01*
X144265000Y-80746289D01*
X144221063Y-80790226D01*
X144107795Y-80959744D01*
X144029774Y-81148102D01*
X143990000Y-81348061D01*
X143990000Y-81551939D01*
X144029774Y-81751898D01*
X144107795Y-81940256D01*
X144120435Y-81959173D01*
X144065226Y-81996063D01*
X144021289Y-82040000D01*
X137157322Y-82040000D01*
X137119999Y-82036324D01*
X137082677Y-82040000D01*
X137082667Y-82040000D01*
X136971014Y-82050997D01*
X136827753Y-82094454D01*
X136695723Y-82165026D01*
X136612083Y-82233668D01*
X136579999Y-82259999D01*
X136556201Y-82288997D01*
X135442717Y-83402481D01*
X135309834Y-83347439D01*
X134945656Y-83275000D01*
X134574344Y-83275000D01*
X134210166Y-83347439D01*
X133867118Y-83489534D01*
X133558382Y-83695825D01*
X133295825Y-83958382D01*
X133089534Y-84267118D01*
X132947439Y-84610166D01*
X132875000Y-84974344D01*
X129420000Y-84974344D01*
X129420000Y-79894344D01*
X132875000Y-79894344D01*
X132875000Y-80265656D01*
X132947439Y-80629834D01*
X133089534Y-80972882D01*
X133295825Y-81281618D01*
X133558382Y-81544175D01*
X133867118Y-81750466D01*
X134210166Y-81892561D01*
X134574344Y-81965000D01*
X134945656Y-81965000D01*
X135309834Y-81892561D01*
X135652882Y-81750466D01*
X135961618Y-81544175D01*
X136224175Y-81281618D01*
X136430466Y-80972882D01*
X136572561Y-80629834D01*
X136645000Y-80265656D01*
X136645000Y-79894344D01*
X136572561Y-79530166D01*
X136430466Y-79187118D01*
X136224175Y-78878382D01*
X135961618Y-78615825D01*
X135652882Y-78409534D01*
X135309834Y-78267439D01*
X134945656Y-78195000D01*
X134574344Y-78195000D01*
X134210166Y-78267439D01*
X133867118Y-78409534D01*
X133558382Y-78615825D01*
X133295825Y-78878382D01*
X133089534Y-79187118D01*
X132947439Y-79530166D01*
X132875000Y-79894344D01*
X129420000Y-79894344D01*
X129420000Y-74814344D01*
X132875000Y-74814344D01*
X132875000Y-75185656D01*
X132947439Y-75549834D01*
X133089534Y-75892882D01*
X133295825Y-76201618D01*
X133558382Y-76464175D01*
X133867118Y-76670466D01*
X134210166Y-76812561D01*
X134574344Y-76885000D01*
X134945656Y-76885000D01*
X135309834Y-76812561D01*
X135652882Y-76670466D01*
X135961618Y-76464175D01*
X136224175Y-76201618D01*
X136430466Y-75892882D01*
X136572561Y-75549834D01*
X136645000Y-75185656D01*
X136645000Y-74814344D01*
X136572561Y-74450166D01*
X136430466Y-74107118D01*
X136224175Y-73798382D01*
X135961618Y-73535825D01*
X135652882Y-73329534D01*
X135309834Y-73187439D01*
X134945656Y-73115000D01*
X134574344Y-73115000D01*
X134210166Y-73187439D01*
X133867118Y-73329534D01*
X133558382Y-73535825D01*
X133295825Y-73798382D01*
X133089534Y-74107118D01*
X132947439Y-74450166D01*
X132875000Y-74814344D01*
X129420000Y-74814344D01*
X129420000Y-69734344D01*
X132875000Y-69734344D01*
X132875000Y-70105656D01*
X132947439Y-70469834D01*
X133089534Y-70812882D01*
X133295825Y-71121618D01*
X133558382Y-71384175D01*
X133867118Y-71590466D01*
X134210166Y-71732561D01*
X134574344Y-71805000D01*
X134945656Y-71805000D01*
X135309834Y-71732561D01*
X135652882Y-71590466D01*
X135961618Y-71384175D01*
X136224175Y-71121618D01*
X136396572Y-70863607D01*
X141315000Y-75782036D01*
X141315001Y-77721288D01*
X141271063Y-77765226D01*
X141157795Y-77934744D01*
X141079774Y-78123102D01*
X141040000Y-78323061D01*
X141040000Y-78526939D01*
X141079774Y-78726898D01*
X141157795Y-78915256D01*
X141271063Y-79084774D01*
X141415226Y-79228937D01*
X141584744Y-79342205D01*
X141773102Y-79420226D01*
X141973061Y-79460000D01*
X142176939Y-79460000D01*
X142376898Y-79420226D01*
X142565256Y-79342205D01*
X142734774Y-79228937D01*
X142878937Y-79084774D01*
X142992205Y-78915256D01*
X143070226Y-78726898D01*
X143110000Y-78526939D01*
X143110000Y-78323061D01*
X143070226Y-78123102D01*
X142992205Y-77934744D01*
X142878937Y-77765226D01*
X142835000Y-77721289D01*
X142835000Y-75504567D01*
X142838677Y-75467234D01*
X142824003Y-75318248D01*
X142780546Y-75174987D01*
X142709974Y-75042958D01*
X142638799Y-74956231D01*
X142615001Y-74927233D01*
X142586004Y-74903436D01*
X137091570Y-69409003D01*
X137067767Y-69379999D01*
X136952042Y-69285026D01*
X136820013Y-69214454D01*
X136676752Y-69170997D01*
X136565099Y-69160000D01*
X136565088Y-69160000D01*
X136527766Y-69156324D01*
X136490444Y-69160000D01*
X136485507Y-69160000D01*
X136430466Y-69027118D01*
X136224175Y-68718382D01*
X135961618Y-68455825D01*
X135652882Y-68249534D01*
X135309834Y-68107439D01*
X134945656Y-68035000D01*
X134574344Y-68035000D01*
X134210166Y-68107439D01*
X133867118Y-68249534D01*
X133558382Y-68455825D01*
X133295825Y-68718382D01*
X133089534Y-69027118D01*
X132947439Y-69370166D01*
X132875000Y-69734344D01*
X129420000Y-69734344D01*
X129420000Y-64654344D01*
X132875000Y-64654344D01*
X132875000Y-65025656D01*
X132947439Y-65389834D01*
X133089534Y-65732882D01*
X133295825Y-66041618D01*
X133558382Y-66304175D01*
X133867118Y-66510466D01*
X134210166Y-66652561D01*
X134574344Y-66725000D01*
X134945656Y-66725000D01*
X135309834Y-66652561D01*
X135652882Y-66510466D01*
X135961618Y-66304175D01*
X136224175Y-66041618D01*
X136430466Y-65732882D01*
X136572561Y-65389834D01*
X136645000Y-65025656D01*
X136645000Y-64654344D01*
X136572561Y-64290166D01*
X136430466Y-63947118D01*
X136224175Y-63638382D01*
X135961618Y-63375825D01*
X135652882Y-63169534D01*
X135309834Y-63027439D01*
X134945656Y-62955000D01*
X134574344Y-62955000D01*
X134210166Y-63027439D01*
X133867118Y-63169534D01*
X133558382Y-63375825D01*
X133295825Y-63638382D01*
X133089534Y-63947118D01*
X132947439Y-64290166D01*
X132875000Y-64654344D01*
X129420000Y-64654344D01*
X129420000Y-59574344D01*
X132875000Y-59574344D01*
X132875000Y-59945656D01*
X132947439Y-60309834D01*
X133089534Y-60652882D01*
X133295825Y-60961618D01*
X133558382Y-61224175D01*
X133867118Y-61430466D01*
X134210166Y-61572561D01*
X134574344Y-61645000D01*
X134945656Y-61645000D01*
X135309834Y-61572561D01*
X135442718Y-61517519D01*
X143390001Y-69464803D01*
X143390000Y-71696289D01*
X143346063Y-71740226D01*
X143232795Y-71909744D01*
X143154774Y-72098102D01*
X143115000Y-72298061D01*
X143115000Y-72501939D01*
X143154774Y-72701898D01*
X143232795Y-72890256D01*
X143346063Y-73059774D01*
X143490226Y-73203937D01*
X143659744Y-73317205D01*
X143848102Y-73395226D01*
X144048061Y-73435000D01*
X144251939Y-73435000D01*
X144451898Y-73395226D01*
X144640256Y-73317205D01*
X144809774Y-73203937D01*
X144953937Y-73059774D01*
X145067205Y-72890256D01*
X145145226Y-72701898D01*
X145185000Y-72501939D01*
X145185000Y-72298061D01*
X145145226Y-72098102D01*
X145067205Y-71909744D01*
X144953937Y-71740226D01*
X144910000Y-71696289D01*
X144910000Y-69187322D01*
X144913676Y-69149999D01*
X144910000Y-69112676D01*
X144910000Y-69112667D01*
X144899003Y-69001014D01*
X144855546Y-68857753D01*
X144784974Y-68725724D01*
X144690001Y-68609999D01*
X144661003Y-68586201D01*
X136517519Y-60442718D01*
X136572561Y-60309834D01*
X136645000Y-59945656D01*
X136645000Y-59574344D01*
X136572561Y-59210166D01*
X136430466Y-58867118D01*
X136224175Y-58558382D01*
X135961618Y-58295825D01*
X135652882Y-58089534D01*
X135309834Y-57947439D01*
X134945656Y-57875000D01*
X134574344Y-57875000D01*
X134210166Y-57947439D01*
X133867118Y-58089534D01*
X133558382Y-58295825D01*
X133295825Y-58558382D01*
X133089534Y-58867118D01*
X132947439Y-59210166D01*
X132875000Y-59574344D01*
X129420000Y-59574344D01*
X129420000Y-54494344D01*
X132875000Y-54494344D01*
X132875000Y-54865656D01*
X132947439Y-55229834D01*
X133089534Y-55572882D01*
X133295825Y-55881618D01*
X133558382Y-56144175D01*
X133867118Y-56350466D01*
X134210166Y-56492561D01*
X134574344Y-56565000D01*
X134945656Y-56565000D01*
X135309834Y-56492561D01*
X135652882Y-56350466D01*
X135961618Y-56144175D01*
X136224175Y-55881618D01*
X136430466Y-55572882D01*
X136572561Y-55229834D01*
X136645000Y-54865656D01*
X136645000Y-54494344D01*
X136572561Y-54130166D01*
X136430466Y-53787118D01*
X136224175Y-53478382D01*
X135961618Y-53215825D01*
X135652882Y-53009534D01*
X135309834Y-52867439D01*
X134945656Y-52795000D01*
X134574344Y-52795000D01*
X134210166Y-52867439D01*
X133867118Y-53009534D01*
X133558382Y-53215825D01*
X133295825Y-53478382D01*
X133089534Y-53787118D01*
X132947439Y-54130166D01*
X132875000Y-54494344D01*
X129420000Y-54494344D01*
X129420000Y-50913605D01*
X133626000Y-50913605D01*
X133751914Y-51203577D01*
X134084126Y-51369433D01*
X134442312Y-51467290D01*
X134812706Y-51493389D01*
X135181075Y-51446725D01*
X135533262Y-51329094D01*
X135768086Y-51203577D01*
X135894000Y-50913605D01*
X134760000Y-49779605D01*
X133626000Y-50913605D01*
X129420000Y-50913605D01*
X129420000Y-49652706D01*
X132866611Y-49652706D01*
X132913275Y-50021075D01*
X133030906Y-50373262D01*
X133156423Y-50608086D01*
X133446395Y-50734000D01*
X134580395Y-49600000D01*
X134939605Y-49600000D01*
X136073605Y-50734000D01*
X136363577Y-50608086D01*
X136529433Y-50275874D01*
X136627290Y-49917688D01*
X136653389Y-49547294D01*
X136606725Y-49178925D01*
X136489094Y-48826738D01*
X136363577Y-48591914D01*
X136073605Y-48466000D01*
X134939605Y-49600000D01*
X134580395Y-49600000D01*
X133446395Y-48466000D01*
X133156423Y-48591914D01*
X132990567Y-48924126D01*
X132892710Y-49282312D01*
X132866611Y-49652706D01*
X129420000Y-49652706D01*
X129420000Y-48286395D01*
X133626000Y-48286395D01*
X134760000Y-49420395D01*
X135894000Y-48286395D01*
X135768086Y-47996423D01*
X135435874Y-47830567D01*
X135077688Y-47732710D01*
X134707294Y-47706611D01*
X134338925Y-47753275D01*
X133986738Y-47870906D01*
X133751914Y-47996423D01*
X133626000Y-48286395D01*
X129420000Y-48286395D01*
X129420000Y-44334344D01*
X132875000Y-44334344D01*
X132875000Y-44705656D01*
X132947439Y-45069834D01*
X133089534Y-45412882D01*
X133295825Y-45721618D01*
X133558382Y-45984175D01*
X133867118Y-46190466D01*
X134210166Y-46332561D01*
X134574344Y-46405000D01*
X134945656Y-46405000D01*
X135309834Y-46332561D01*
X135652882Y-46190466D01*
X135961618Y-45984175D01*
X136224175Y-45721618D01*
X136430466Y-45412882D01*
X136437906Y-45394921D01*
X136497116Y-45412882D01*
X136533781Y-45424004D01*
X136682767Y-45438678D01*
X136720100Y-45435001D01*
X161596992Y-45435001D01*
X161599701Y-45435268D01*
X161759744Y-45542205D01*
X161948102Y-45620226D01*
X162148061Y-45660000D01*
X162351939Y-45660000D01*
X162551898Y-45620226D01*
X162740256Y-45542205D01*
X162909774Y-45428937D01*
X163053937Y-45284774D01*
X163167205Y-45115256D01*
X163245226Y-44926898D01*
X163285000Y-44726939D01*
X163285000Y-44523061D01*
X163245226Y-44323102D01*
X163167205Y-44134744D01*
X163053937Y-43965226D01*
X162909774Y-43821063D01*
X162740256Y-43707795D01*
X162551898Y-43629774D01*
X162351939Y-43590000D01*
X162148061Y-43590000D01*
X161948102Y-43629774D01*
X161759744Y-43707795D01*
X161590226Y-43821063D01*
X161535276Y-43876013D01*
X161406748Y-43915001D01*
X149923710Y-43915001D01*
X150028937Y-43809774D01*
X150142205Y-43640256D01*
X150220226Y-43451898D01*
X150260000Y-43251939D01*
X150260000Y-43048061D01*
X150220226Y-42848102D01*
X150142205Y-42659744D01*
X150028937Y-42490226D01*
X149985000Y-42446289D01*
X149985000Y-41703711D01*
X150028937Y-41659774D01*
X150142205Y-41490256D01*
X150220226Y-41301898D01*
X150260000Y-41101939D01*
X150260000Y-40898061D01*
X150220226Y-40698102D01*
X150142205Y-40509744D01*
X150028937Y-40340226D01*
X149884774Y-40196063D01*
X149715256Y-40082795D01*
X149526898Y-40004774D01*
X149326939Y-39965000D01*
X149123061Y-39965000D01*
X148923102Y-40004774D01*
X148734744Y-40082795D01*
X148565226Y-40196063D01*
X148421063Y-40340226D01*
X148307795Y-40509744D01*
X148229774Y-40698102D01*
X148190000Y-40898061D01*
X148190000Y-41101939D01*
X148229774Y-41301898D01*
X148307795Y-41490256D01*
X148421063Y-41659774D01*
X148465000Y-41703711D01*
X148465001Y-42446288D01*
X148421063Y-42490226D01*
X148307795Y-42659744D01*
X148229774Y-42848102D01*
X148190000Y-43048061D01*
X148190000Y-43251939D01*
X148229774Y-43451898D01*
X148307795Y-43640256D01*
X148421063Y-43809774D01*
X148526290Y-43915001D01*
X147685000Y-43915001D01*
X147685000Y-43848061D01*
X147645226Y-43648102D01*
X147567205Y-43459744D01*
X147453937Y-43290226D01*
X147410000Y-43246289D01*
X147410000Y-33023061D01*
X157040000Y-33023061D01*
X157040000Y-33226939D01*
X157079774Y-33426898D01*
X157157795Y-33615256D01*
X157271063Y-33784774D01*
X157315000Y-33828711D01*
X157315001Y-40321288D01*
X157296063Y-40340226D01*
X157182795Y-40509744D01*
X157104774Y-40698102D01*
X157065000Y-40898061D01*
X157065000Y-41101939D01*
X157104774Y-41301898D01*
X157182795Y-41490256D01*
X157296063Y-41659774D01*
X157440226Y-41803937D01*
X157609744Y-41917205D01*
X157798102Y-41995226D01*
X157998061Y-42035000D01*
X158201939Y-42035000D01*
X158401898Y-41995226D01*
X158590256Y-41917205D01*
X158759774Y-41803937D01*
X158903937Y-41659774D01*
X159017205Y-41490256D01*
X159095226Y-41301898D01*
X159135000Y-41101939D01*
X159135000Y-40898061D01*
X159095226Y-40698102D01*
X159017205Y-40509744D01*
X158903937Y-40340226D01*
X158835000Y-40271289D01*
X158835000Y-33828711D01*
X158878937Y-33784774D01*
X158992205Y-33615256D01*
X159070226Y-33426898D01*
X159110000Y-33226939D01*
X159110000Y-33023061D01*
X159070226Y-32823102D01*
X158992205Y-32634744D01*
X158878937Y-32465226D01*
X158734774Y-32321063D01*
X158565256Y-32207795D01*
X158376898Y-32129774D01*
X158176939Y-32090000D01*
X157973061Y-32090000D01*
X157773102Y-32129774D01*
X157584744Y-32207795D01*
X157415226Y-32321063D01*
X157271063Y-32465226D01*
X157157795Y-32634744D01*
X157079774Y-32823102D01*
X157040000Y-33023061D01*
X147410000Y-33023061D01*
X147410000Y-28963681D01*
X147466408Y-29009974D01*
X147598438Y-29080546D01*
X147741699Y-29124003D01*
X147853352Y-29135000D01*
X147853361Y-29135000D01*
X147890684Y-29138676D01*
X147928007Y-29135000D01*
X169410199Y-29135000D01*
X175591201Y-35316003D01*
X175614999Y-35345001D01*
X175730724Y-35439974D01*
X175862753Y-35510546D01*
X176006014Y-35554003D01*
X176117667Y-35565000D01*
X176117676Y-35565000D01*
X176154999Y-35568676D01*
X176192322Y-35565000D01*
X178781957Y-35565000D01*
X178885363Y-35719759D01*
X179085241Y-35919637D01*
X179317759Y-36075000D01*
X179085241Y-36230363D01*
X178885363Y-36430241D01*
X178728320Y-36665273D01*
X178620147Y-36926426D01*
X178565000Y-37203665D01*
X178565000Y-37486335D01*
X178620147Y-37763574D01*
X178728320Y-38024727D01*
X178885363Y-38259759D01*
X179085241Y-38459637D01*
X179317759Y-38615000D01*
X179085241Y-38770363D01*
X178885363Y-38970241D01*
X178728320Y-39205273D01*
X178620147Y-39466426D01*
X178565000Y-39743665D01*
X178565000Y-40026335D01*
X178620147Y-40303574D01*
X178728320Y-40564727D01*
X178885363Y-40799759D01*
X179085241Y-40999637D01*
X179317759Y-41155000D01*
X179085241Y-41310363D01*
X178885363Y-41510241D01*
X178728320Y-41745273D01*
X178620147Y-42006426D01*
X178565000Y-42283665D01*
X178565000Y-42566335D01*
X178601312Y-42748886D01*
X176364003Y-44986196D01*
X176334999Y-45009999D01*
X176293964Y-45060001D01*
X176240026Y-45125724D01*
X176169455Y-45257753D01*
X176169454Y-45257754D01*
X176125997Y-45401015D01*
X176115000Y-45512668D01*
X176115000Y-45512678D01*
X176111324Y-45550000D01*
X176115000Y-45587322D01*
X176115001Y-89446288D01*
X176071063Y-89490226D01*
X175957795Y-89659744D01*
X175879774Y-89848102D01*
X175840000Y-90048061D01*
X175840000Y-90251939D01*
X175879774Y-90451898D01*
X175957795Y-90640256D01*
X176071063Y-90809774D01*
X176215226Y-90953937D01*
X176384744Y-91067205D01*
X176573102Y-91145226D01*
X176773061Y-91185000D01*
X176976939Y-91185000D01*
X177176898Y-91145226D01*
X177365256Y-91067205D01*
X177534774Y-90953937D01*
X177678937Y-90809774D01*
X177792205Y-90640256D01*
X177870226Y-90451898D01*
X177910000Y-90251939D01*
X177910000Y-90048061D01*
X177870226Y-89848102D01*
X177792205Y-89659744D01*
X177678937Y-89490226D01*
X177635000Y-89446289D01*
X177635000Y-45864801D01*
X178565000Y-44934802D01*
X178565000Y-45106335D01*
X178620147Y-45383574D01*
X178728320Y-45644727D01*
X178885363Y-45879759D01*
X179085241Y-46079637D01*
X179317759Y-46235000D01*
X179085241Y-46390363D01*
X178885363Y-46590241D01*
X178728320Y-46825273D01*
X178620147Y-47086426D01*
X178565000Y-47363665D01*
X178565000Y-47646335D01*
X178620147Y-47923574D01*
X178728320Y-48184727D01*
X178885363Y-48419759D01*
X179085241Y-48619637D01*
X179317759Y-48775000D01*
X179085241Y-48930363D01*
X178885363Y-49130241D01*
X178728320Y-49365273D01*
X178620147Y-49626426D01*
X178565000Y-49903665D01*
X178565000Y-50186335D01*
X178620147Y-50463574D01*
X178728320Y-50724727D01*
X178885363Y-50959759D01*
X179085241Y-51159637D01*
X179317759Y-51315000D01*
X179085241Y-51470363D01*
X178885363Y-51670241D01*
X178728320Y-51905273D01*
X178620147Y-52166426D01*
X178565000Y-52443665D01*
X178565000Y-52726335D01*
X178620147Y-53003574D01*
X178728320Y-53264727D01*
X178885363Y-53499759D01*
X179085241Y-53699637D01*
X179317759Y-53855000D01*
X179085241Y-54010363D01*
X178885363Y-54210241D01*
X178728320Y-54445273D01*
X178620147Y-54706426D01*
X178565000Y-54983665D01*
X178565000Y-55266335D01*
X178620147Y-55543574D01*
X178728320Y-55804727D01*
X178885363Y-56039759D01*
X179085241Y-56239637D01*
X179317759Y-56395000D01*
X179085241Y-56550363D01*
X178885363Y-56750241D01*
X178728320Y-56985273D01*
X178620147Y-57246426D01*
X178565000Y-57523665D01*
X178565000Y-57806335D01*
X178620147Y-58083574D01*
X178728320Y-58344727D01*
X178885363Y-58579759D01*
X179085241Y-58779637D01*
X179320273Y-58936680D01*
X179330865Y-58941067D01*
X179144869Y-59052615D01*
X178936481Y-59241586D01*
X178768963Y-59467580D01*
X178648754Y-59721913D01*
X178608096Y-59855961D01*
X178730085Y-60078000D01*
X179873000Y-60078000D01*
X179873000Y-60058000D01*
X180127000Y-60058000D01*
X180127000Y-60078000D01*
X180147000Y-60078000D01*
X180147000Y-60332000D01*
X180127000Y-60332000D01*
X180127000Y-60352000D01*
X179873000Y-60352000D01*
X179873000Y-60332000D01*
X178730085Y-60332000D01*
X178608096Y-60554039D01*
X178648754Y-60688087D01*
X178768963Y-60942420D01*
X178936481Y-61168414D01*
X179144869Y-61357385D01*
X179330865Y-61468933D01*
X179320273Y-61473320D01*
X179085241Y-61630363D01*
X178885363Y-61830241D01*
X178728320Y-62065273D01*
X178620147Y-62326426D01*
X178565000Y-62603665D01*
X178565000Y-62886335D01*
X178620147Y-63163574D01*
X178728320Y-63424727D01*
X178885363Y-63659759D01*
X179085241Y-63859637D01*
X179317759Y-64015000D01*
X179085241Y-64170363D01*
X178885363Y-64370241D01*
X178728320Y-64605273D01*
X178620147Y-64866426D01*
X178565000Y-65143665D01*
X178565000Y-65426335D01*
X178620147Y-65703574D01*
X178728320Y-65964727D01*
X178885363Y-66199759D01*
X179083961Y-66398357D01*
X179075518Y-66399188D01*
X178955820Y-66435498D01*
X178845506Y-66494463D01*
X178748815Y-66573815D01*
X178669463Y-66670506D01*
X178610498Y-66780820D01*
X178574188Y-66900518D01*
X178561928Y-67025000D01*
X178561928Y-68625000D01*
X178574188Y-68749482D01*
X178610498Y-68869180D01*
X178669463Y-68979494D01*
X178748815Y-69076185D01*
X178845506Y-69155537D01*
X178955820Y-69214502D01*
X179075518Y-69250812D01*
X179200000Y-69263072D01*
X180800000Y-69263072D01*
X180924482Y-69250812D01*
X181044180Y-69214502D01*
X181154494Y-69155537D01*
X181251185Y-69076185D01*
X181290000Y-69028888D01*
X181290001Y-95910197D01*
X179489003Y-97711196D01*
X179459999Y-97734999D01*
X179404871Y-97802174D01*
X179365026Y-97850724D01*
X179339420Y-97898629D01*
X179294454Y-97982754D01*
X179250997Y-98126015D01*
X179240000Y-98237668D01*
X179240000Y-98237678D01*
X179236324Y-98275000D01*
X179240000Y-98312323D01*
X179240001Y-102715971D01*
X179201853Y-102731772D01*
X178925875Y-102916175D01*
X178691175Y-103150875D01*
X178506772Y-103426853D01*
X178379754Y-103733504D01*
X178315000Y-104059042D01*
X178315000Y-104390958D01*
X178379754Y-104716496D01*
X178506772Y-105023147D01*
X178691175Y-105299125D01*
X178925875Y-105533825D01*
X179201853Y-105718228D01*
X179508504Y-105845246D01*
X179834042Y-105910000D01*
X180165958Y-105910000D01*
X180491496Y-105845246D01*
X180798147Y-105718228D01*
X181074125Y-105533825D01*
X181308825Y-105299125D01*
X181493228Y-105023147D01*
X181620246Y-104716496D01*
X181685000Y-104390958D01*
X181685000Y-104059042D01*
X183395000Y-104059042D01*
X183395000Y-104390958D01*
X183459754Y-104716496D01*
X183586772Y-105023147D01*
X183771175Y-105299125D01*
X184005875Y-105533825D01*
X184281853Y-105718228D01*
X184588504Y-105845246D01*
X184914042Y-105910000D01*
X185245958Y-105910000D01*
X185571496Y-105845246D01*
X185878147Y-105718228D01*
X186154125Y-105533825D01*
X186388825Y-105299125D01*
X186573228Y-105023147D01*
X186700246Y-104716496D01*
X186765000Y-104390958D01*
X186765000Y-104059042D01*
X188475000Y-104059042D01*
X188475000Y-104390958D01*
X188539754Y-104716496D01*
X188666772Y-105023147D01*
X188851175Y-105299125D01*
X189085875Y-105533825D01*
X189361853Y-105718228D01*
X189668504Y-105845246D01*
X189994042Y-105910000D01*
X190325958Y-105910000D01*
X190651496Y-105845246D01*
X190958147Y-105718228D01*
X191234125Y-105533825D01*
X191468825Y-105299125D01*
X191653228Y-105023147D01*
X191780246Y-104716496D01*
X191845000Y-104390958D01*
X191845000Y-104059042D01*
X191780246Y-103733504D01*
X191653228Y-103426853D01*
X191484945Y-103175000D01*
X193551928Y-103175000D01*
X193551928Y-105275000D01*
X193564188Y-105399482D01*
X193600498Y-105519180D01*
X193659463Y-105629494D01*
X193738815Y-105726185D01*
X193835506Y-105805537D01*
X193945820Y-105864502D01*
X194065518Y-105900812D01*
X194190000Y-105913072D01*
X196290000Y-105913072D01*
X196414482Y-105900812D01*
X196534180Y-105864502D01*
X196644494Y-105805537D01*
X196741185Y-105726185D01*
X196820537Y-105629494D01*
X196879502Y-105519180D01*
X196915812Y-105399482D01*
X196928072Y-105275000D01*
X196928072Y-103175000D01*
X196920673Y-103099872D01*
X207765000Y-103099872D01*
X207765000Y-103540128D01*
X207850890Y-103971925D01*
X208019369Y-104378669D01*
X208263962Y-104744729D01*
X208575271Y-105056038D01*
X208941331Y-105300631D01*
X209348075Y-105469110D01*
X209779872Y-105555000D01*
X210220128Y-105555000D01*
X210651925Y-105469110D01*
X211058669Y-105300631D01*
X211424729Y-105056038D01*
X211736038Y-104744729D01*
X211980631Y-104378669D01*
X212149110Y-103971925D01*
X212235000Y-103540128D01*
X212235000Y-103099872D01*
X212149110Y-102668075D01*
X211980631Y-102261331D01*
X211736038Y-101895271D01*
X211424729Y-101583962D01*
X211058669Y-101339369D01*
X210651925Y-101170890D01*
X210220128Y-101085000D01*
X209779872Y-101085000D01*
X209348075Y-101170890D01*
X208941331Y-101339369D01*
X208575271Y-101583962D01*
X208263962Y-101895271D01*
X208019369Y-102261331D01*
X207850890Y-102668075D01*
X207765000Y-103099872D01*
X196920673Y-103099872D01*
X196915812Y-103050518D01*
X196879502Y-102930820D01*
X196820537Y-102820506D01*
X196741185Y-102723815D01*
X196644494Y-102644463D01*
X196534180Y-102585498D01*
X196414482Y-102549188D01*
X196290000Y-102536928D01*
X194190000Y-102536928D01*
X194065518Y-102549188D01*
X193945820Y-102585498D01*
X193835506Y-102644463D01*
X193738815Y-102723815D01*
X193659463Y-102820506D01*
X193600498Y-102930820D01*
X193564188Y-103050518D01*
X193551928Y-103175000D01*
X191484945Y-103175000D01*
X191468825Y-103150875D01*
X191234125Y-102916175D01*
X190958147Y-102731772D01*
X190651496Y-102604754D01*
X190325958Y-102540000D01*
X189994042Y-102540000D01*
X189668504Y-102604754D01*
X189361853Y-102731772D01*
X189085875Y-102916175D01*
X188851175Y-103150875D01*
X188666772Y-103426853D01*
X188539754Y-103733504D01*
X188475000Y-104059042D01*
X186765000Y-104059042D01*
X186700246Y-103733504D01*
X186573228Y-103426853D01*
X186388825Y-103150875D01*
X186154125Y-102916175D01*
X185878147Y-102731772D01*
X185571496Y-102604754D01*
X185245958Y-102540000D01*
X184914042Y-102540000D01*
X184588504Y-102604754D01*
X184281853Y-102731772D01*
X184005875Y-102916175D01*
X183771175Y-103150875D01*
X183586772Y-103426853D01*
X183459754Y-103733504D01*
X183395000Y-104059042D01*
X181685000Y-104059042D01*
X181620246Y-103733504D01*
X181493228Y-103426853D01*
X181308825Y-103150875D01*
X181074125Y-102916175D01*
X180798147Y-102731772D01*
X180760000Y-102715971D01*
X180760000Y-98589801D01*
X182561003Y-96788799D01*
X182590001Y-96765001D01*
X182684974Y-96649276D01*
X182755546Y-96517247D01*
X182799003Y-96373986D01*
X182810000Y-96262333D01*
X182810000Y-96262323D01*
X182813676Y-96225000D01*
X182810000Y-96187677D01*
X182810000Y-95134344D01*
X208115000Y-95134344D01*
X208115000Y-95505656D01*
X208187439Y-95869834D01*
X208329534Y-96212882D01*
X208535825Y-96521618D01*
X208798382Y-96784175D01*
X209107118Y-96990466D01*
X209450166Y-97132561D01*
X209814344Y-97205000D01*
X210185656Y-97205000D01*
X210549834Y-97132561D01*
X210892882Y-96990466D01*
X211201618Y-96784175D01*
X211464175Y-96521618D01*
X211670466Y-96212882D01*
X211812561Y-95869834D01*
X211885000Y-95505656D01*
X211885000Y-95134344D01*
X211812561Y-94770166D01*
X211670466Y-94427118D01*
X211464175Y-94118382D01*
X211201618Y-93855825D01*
X210892882Y-93649534D01*
X210549834Y-93507439D01*
X210185656Y-93435000D01*
X209814344Y-93435000D01*
X209450166Y-93507439D01*
X209107118Y-93649534D01*
X208798382Y-93855825D01*
X208535825Y-94118382D01*
X208329534Y-94427118D01*
X208187439Y-94770166D01*
X208115000Y-95134344D01*
X182810000Y-95134344D01*
X182810000Y-90054344D01*
X208115000Y-90054344D01*
X208115000Y-90425656D01*
X208187439Y-90789834D01*
X208329534Y-91132882D01*
X208535825Y-91441618D01*
X208798382Y-91704175D01*
X209107118Y-91910466D01*
X209450166Y-92052561D01*
X209814344Y-92125000D01*
X210185656Y-92125000D01*
X210549834Y-92052561D01*
X210892882Y-91910466D01*
X211201618Y-91704175D01*
X211464175Y-91441618D01*
X211670466Y-91132882D01*
X211812561Y-90789834D01*
X211885000Y-90425656D01*
X211885000Y-90054344D01*
X211812561Y-89690166D01*
X211670466Y-89347118D01*
X211464175Y-89038382D01*
X211201618Y-88775825D01*
X210892882Y-88569534D01*
X210549834Y-88427439D01*
X210185656Y-88355000D01*
X209814344Y-88355000D01*
X209450166Y-88427439D01*
X209107118Y-88569534D01*
X208798382Y-88775825D01*
X208535825Y-89038382D01*
X208329534Y-89347118D01*
X208187439Y-89690166D01*
X208115000Y-90054344D01*
X182810000Y-90054344D01*
X182810000Y-86473605D01*
X208866000Y-86473605D01*
X208991914Y-86763577D01*
X209324126Y-86929433D01*
X209682312Y-87027290D01*
X210052706Y-87053389D01*
X210421075Y-87006725D01*
X210773262Y-86889094D01*
X211008086Y-86763577D01*
X211134000Y-86473605D01*
X210000000Y-85339605D01*
X208866000Y-86473605D01*
X182810000Y-86473605D01*
X182810000Y-85212706D01*
X208106611Y-85212706D01*
X208153275Y-85581075D01*
X208270906Y-85933262D01*
X208396423Y-86168086D01*
X208686395Y-86294000D01*
X209820395Y-85160000D01*
X210179605Y-85160000D01*
X211313605Y-86294000D01*
X211603577Y-86168086D01*
X211769433Y-85835874D01*
X211867290Y-85477688D01*
X211893389Y-85107294D01*
X211846725Y-84738925D01*
X211729094Y-84386738D01*
X211603577Y-84151914D01*
X211313605Y-84026000D01*
X210179605Y-85160000D01*
X209820395Y-85160000D01*
X208686395Y-84026000D01*
X208396423Y-84151914D01*
X208230567Y-84484126D01*
X208132710Y-84842312D01*
X208106611Y-85212706D01*
X182810000Y-85212706D01*
X182810000Y-83846395D01*
X208866000Y-83846395D01*
X210000000Y-84980395D01*
X211134000Y-83846395D01*
X211008086Y-83556423D01*
X210675874Y-83390567D01*
X210317688Y-83292710D01*
X209947294Y-83266611D01*
X209578925Y-83313275D01*
X209226738Y-83430906D01*
X208991914Y-83556423D01*
X208866000Y-83846395D01*
X182810000Y-83846395D01*
X182810000Y-79894344D01*
X208115000Y-79894344D01*
X208115000Y-80265656D01*
X208187439Y-80629834D01*
X208329534Y-80972882D01*
X208535825Y-81281618D01*
X208798382Y-81544175D01*
X209107118Y-81750466D01*
X209450166Y-81892561D01*
X209814344Y-81965000D01*
X210185656Y-81965000D01*
X210549834Y-81892561D01*
X210892882Y-81750466D01*
X211201618Y-81544175D01*
X211464175Y-81281618D01*
X211670466Y-80972882D01*
X211812561Y-80629834D01*
X211885000Y-80265656D01*
X211885000Y-79894344D01*
X211812561Y-79530166D01*
X211670466Y-79187118D01*
X211464175Y-78878382D01*
X211201618Y-78615825D01*
X210892882Y-78409534D01*
X210549834Y-78267439D01*
X210185656Y-78195000D01*
X209814344Y-78195000D01*
X209450166Y-78267439D01*
X209107118Y-78409534D01*
X208798382Y-78615825D01*
X208535825Y-78878382D01*
X208329534Y-79187118D01*
X208187439Y-79530166D01*
X208115000Y-79894344D01*
X182810000Y-79894344D01*
X182810000Y-59752323D01*
X182813676Y-59715000D01*
X182810000Y-59677677D01*
X182810000Y-59677667D01*
X182799003Y-59566014D01*
X182755546Y-59422753D01*
X182684974Y-59290724D01*
X182590001Y-59174999D01*
X182561004Y-59151202D01*
X181398688Y-57988886D01*
X181435000Y-57806335D01*
X181435000Y-57523665D01*
X181379853Y-57246426D01*
X181271680Y-56985273D01*
X181114637Y-56750241D01*
X180914759Y-56550363D01*
X180682241Y-56395000D01*
X180914759Y-56239637D01*
X181114637Y-56039759D01*
X181271680Y-55804727D01*
X181379853Y-55543574D01*
X181435000Y-55266335D01*
X181435000Y-54983665D01*
X181379853Y-54706426D01*
X181271680Y-54445273D01*
X181114637Y-54210241D01*
X180914759Y-54010363D01*
X180858933Y-53973061D01*
X181265000Y-53973061D01*
X181265000Y-54176939D01*
X181304774Y-54376898D01*
X181382795Y-54565256D01*
X181496063Y-54734774D01*
X181640226Y-54878937D01*
X181809744Y-54992205D01*
X181998102Y-55070226D01*
X182198061Y-55110000D01*
X182401939Y-55110000D01*
X182601898Y-55070226D01*
X182790256Y-54992205D01*
X182959774Y-54878937D01*
X183003711Y-54835000D01*
X187910199Y-54835000D01*
X188490000Y-55414802D01*
X188490000Y-55476939D01*
X188529774Y-55676898D01*
X188607795Y-55865256D01*
X188721063Y-56034774D01*
X188865226Y-56178937D01*
X189027253Y-56287200D01*
X189022174Y-56299462D01*
X188982400Y-56499421D01*
X188982400Y-56703299D01*
X189022174Y-56903258D01*
X189100195Y-57091616D01*
X189213463Y-57261134D01*
X189326560Y-57374231D01*
X189276346Y-57407783D01*
X189132183Y-57551946D01*
X189018915Y-57721464D01*
X188940894Y-57909822D01*
X188901120Y-58109781D01*
X188901120Y-58313659D01*
X188940894Y-58513618D01*
X189018915Y-58701976D01*
X189132183Y-58871494D01*
X189276346Y-59015657D01*
X189445864Y-59128925D01*
X189634222Y-59206946D01*
X189834181Y-59246720D01*
X190038059Y-59246720D01*
X190238018Y-59206946D01*
X190426376Y-59128925D01*
X190595894Y-59015657D01*
X190639831Y-58971720D01*
X196812678Y-58971720D01*
X196850000Y-58975396D01*
X196887322Y-58971720D01*
X196887333Y-58971720D01*
X196998986Y-58960723D01*
X197142247Y-58917266D01*
X197274276Y-58846694D01*
X197390001Y-58751721D01*
X197413803Y-58722718D01*
X197697521Y-58439000D01*
X197759659Y-58439000D01*
X197959618Y-58399226D01*
X198147976Y-58321205D01*
X198317494Y-58207937D01*
X198461657Y-58063774D01*
X198574121Y-57895459D01*
X198574121Y-60157771D01*
X198513965Y-60012544D01*
X198400697Y-59843026D01*
X198256534Y-59698863D01*
X198087016Y-59585595D01*
X197898658Y-59507574D01*
X197698699Y-59467800D01*
X197494821Y-59467800D01*
X197294862Y-59507574D01*
X197106504Y-59585595D01*
X196936986Y-59698863D01*
X196893049Y-59742800D01*
X185612882Y-59742800D01*
X185057320Y-59187239D01*
X185057320Y-56888511D01*
X185101257Y-56844574D01*
X185214525Y-56675056D01*
X185292546Y-56486698D01*
X185332320Y-56286739D01*
X185332320Y-56082861D01*
X185292546Y-55882902D01*
X185214525Y-55694544D01*
X185101257Y-55525026D01*
X184957094Y-55380863D01*
X184787576Y-55267595D01*
X184599218Y-55189574D01*
X184399259Y-55149800D01*
X184195381Y-55149800D01*
X183995422Y-55189574D01*
X183807064Y-55267595D01*
X183637546Y-55380863D01*
X183493383Y-55525026D01*
X183380115Y-55694544D01*
X183302094Y-55882902D01*
X183262320Y-56082861D01*
X183262320Y-56286739D01*
X183284619Y-56398847D01*
X183254822Y-56404774D01*
X183066464Y-56482795D01*
X182896946Y-56596063D01*
X182752783Y-56740226D01*
X182639515Y-56909744D01*
X182561494Y-57098102D01*
X182521720Y-57298061D01*
X182521720Y-57501939D01*
X182561494Y-57701898D01*
X182639515Y-57890256D01*
X182752783Y-58059774D01*
X182896946Y-58203937D01*
X183066464Y-58317205D01*
X183254822Y-58395226D01*
X183454781Y-58435000D01*
X183537320Y-58435000D01*
X183537320Y-59464717D01*
X183533644Y-59502040D01*
X183537320Y-59539362D01*
X183537320Y-59539372D01*
X183548317Y-59651025D01*
X183579492Y-59753797D01*
X183591774Y-59794286D01*
X183662346Y-59926316D01*
X183692287Y-59962799D01*
X183757319Y-60042041D01*
X183786322Y-60065844D01*
X184734281Y-61013803D01*
X184758079Y-61042801D01*
X184873804Y-61137774D01*
X185005833Y-61208346D01*
X185149094Y-61251803D01*
X185260747Y-61262800D01*
X185260756Y-61262800D01*
X185298079Y-61266476D01*
X185335402Y-61262800D01*
X196893049Y-61262800D01*
X196936986Y-61306737D01*
X197106504Y-61420005D01*
X197294862Y-61498026D01*
X197494821Y-61537800D01*
X197698699Y-61537800D01*
X197898658Y-61498026D01*
X198087016Y-61420005D01*
X198256534Y-61306737D01*
X198400697Y-61162574D01*
X198513965Y-60993056D01*
X198574120Y-60847829D01*
X198574120Y-62684529D01*
X198530183Y-62728466D01*
X198416915Y-62897984D01*
X198338894Y-63086342D01*
X198299120Y-63286301D01*
X198299120Y-63490179D01*
X198338894Y-63690138D01*
X198416915Y-63878496D01*
X198530183Y-64048014D01*
X198674346Y-64192177D01*
X198843864Y-64305445D01*
X199032222Y-64383466D01*
X199232181Y-64423240D01*
X199436059Y-64423240D01*
X199636018Y-64383466D01*
X199824376Y-64305445D01*
X199993894Y-64192177D01*
X200138057Y-64048014D01*
X200251325Y-63878496D01*
X200329346Y-63690138D01*
X200363837Y-63516738D01*
X200530822Y-63585906D01*
X200730781Y-63625680D01*
X200792919Y-63625680D01*
X201195400Y-64028162D01*
X201195401Y-71905628D01*
X201191724Y-71942960D01*
X201195401Y-71980293D01*
X201206398Y-72091946D01*
X201219580Y-72135402D01*
X201249854Y-72235206D01*
X201320426Y-72367236D01*
X201391601Y-72453962D01*
X201415400Y-72482961D01*
X201444398Y-72506759D01*
X204448645Y-75511008D01*
X204472439Y-75540001D01*
X204501432Y-75563795D01*
X204501436Y-75563799D01*
X204565312Y-75616220D01*
X204588164Y-75634974D01*
X204720193Y-75705546D01*
X204863454Y-75749003D01*
X204975107Y-75760000D01*
X204975116Y-75760000D01*
X205012439Y-75763676D01*
X205049762Y-75760000D01*
X208274493Y-75760000D01*
X208329534Y-75892882D01*
X208535825Y-76201618D01*
X208798382Y-76464175D01*
X209107118Y-76670466D01*
X209450166Y-76812561D01*
X209814344Y-76885000D01*
X210185656Y-76885000D01*
X210549834Y-76812561D01*
X210892882Y-76670466D01*
X211201618Y-76464175D01*
X211464175Y-76201618D01*
X211670466Y-75892882D01*
X211812561Y-75549834D01*
X211885000Y-75185656D01*
X211885000Y-74814344D01*
X211812561Y-74450166D01*
X211670466Y-74107118D01*
X211464175Y-73798382D01*
X211201618Y-73535825D01*
X210892882Y-73329534D01*
X210549834Y-73187439D01*
X210185656Y-73115000D01*
X209814344Y-73115000D01*
X209450166Y-73187439D01*
X209107118Y-73329534D01*
X208798382Y-73535825D01*
X208535825Y-73798382D01*
X208329534Y-74107118D01*
X208274493Y-74240000D01*
X205327243Y-74240000D01*
X202715400Y-71628159D01*
X202715400Y-69734344D01*
X208115000Y-69734344D01*
X208115000Y-70105656D01*
X208187439Y-70469834D01*
X208329534Y-70812882D01*
X208535825Y-71121618D01*
X208798382Y-71384175D01*
X209107118Y-71590466D01*
X209450166Y-71732561D01*
X209814344Y-71805000D01*
X210185656Y-71805000D01*
X210549834Y-71732561D01*
X210892882Y-71590466D01*
X211201618Y-71384175D01*
X211464175Y-71121618D01*
X211670466Y-70812882D01*
X211812561Y-70469834D01*
X211885000Y-70105656D01*
X211885000Y-69734344D01*
X211812561Y-69370166D01*
X211670466Y-69027118D01*
X211464175Y-68718382D01*
X211201618Y-68455825D01*
X210892882Y-68249534D01*
X210549834Y-68107439D01*
X210185656Y-68035000D01*
X209814344Y-68035000D01*
X209450166Y-68107439D01*
X209107118Y-68249534D01*
X208798382Y-68455825D01*
X208535825Y-68718382D01*
X208329534Y-69027118D01*
X208187439Y-69370166D01*
X208115000Y-69734344D01*
X202715400Y-69734344D01*
X202715400Y-63750682D01*
X202719076Y-63713359D01*
X202715400Y-63676036D01*
X202715400Y-63676027D01*
X202704403Y-63564374D01*
X202660946Y-63421113D01*
X202590374Y-63289084D01*
X202495401Y-63173359D01*
X202466404Y-63149562D01*
X201867720Y-62550879D01*
X201867720Y-62488741D01*
X201827946Y-62288782D01*
X201749925Y-62100424D01*
X201636657Y-61930906D01*
X201492494Y-61786743D01*
X201322976Y-61673475D01*
X201134618Y-61595454D01*
X200934659Y-61555680D01*
X200730781Y-61555680D01*
X200530822Y-61595454D01*
X200342464Y-61673475D01*
X200172946Y-61786743D01*
X200094120Y-61865569D01*
X200094120Y-57050173D01*
X200097797Y-57012840D01*
X200083123Y-56863854D01*
X200039666Y-56720593D01*
X200027832Y-56698454D01*
X199969094Y-56588564D01*
X199895937Y-56499421D01*
X202322480Y-56499421D01*
X202322480Y-56703299D01*
X202362254Y-56903258D01*
X202440275Y-57091616D01*
X202553543Y-57261134D01*
X202582240Y-57289831D01*
X202582241Y-61623708D01*
X202578564Y-61661040D01*
X202593238Y-61810025D01*
X202636694Y-61953286D01*
X202707266Y-62085316D01*
X202773814Y-62166404D01*
X202802240Y-62201041D01*
X202831238Y-62224839D01*
X205957401Y-65351003D01*
X205981199Y-65380001D01*
X206096924Y-65474974D01*
X206228953Y-65545546D01*
X206372214Y-65589003D01*
X206483867Y-65600000D01*
X206483876Y-65600000D01*
X206521199Y-65603676D01*
X206558522Y-65600000D01*
X208274493Y-65600000D01*
X208329534Y-65732882D01*
X208535825Y-66041618D01*
X208798382Y-66304175D01*
X209107118Y-66510466D01*
X209450166Y-66652561D01*
X209814344Y-66725000D01*
X210185656Y-66725000D01*
X210549834Y-66652561D01*
X210892882Y-66510466D01*
X211201618Y-66304175D01*
X211464175Y-66041618D01*
X211670466Y-65732882D01*
X211812561Y-65389834D01*
X211885000Y-65025656D01*
X211885000Y-64654344D01*
X211812561Y-64290166D01*
X211670466Y-63947118D01*
X211464175Y-63638382D01*
X211201618Y-63375825D01*
X210892882Y-63169534D01*
X210549834Y-63027439D01*
X210185656Y-62955000D01*
X209814344Y-62955000D01*
X209450166Y-63027439D01*
X209107118Y-63169534D01*
X208798382Y-63375825D01*
X208535825Y-63638382D01*
X208329534Y-63947118D01*
X208274493Y-64080000D01*
X206836002Y-64080000D01*
X204102240Y-61346239D01*
X204102240Y-59574344D01*
X208115000Y-59574344D01*
X208115000Y-59945656D01*
X208187439Y-60309834D01*
X208329534Y-60652882D01*
X208535825Y-60961618D01*
X208798382Y-61224175D01*
X209107118Y-61430466D01*
X209450166Y-61572561D01*
X209814344Y-61645000D01*
X210185656Y-61645000D01*
X210549834Y-61572561D01*
X210892882Y-61430466D01*
X211201618Y-61224175D01*
X211464175Y-60961618D01*
X211670466Y-60652882D01*
X211812561Y-60309834D01*
X211885000Y-59945656D01*
X211885000Y-59574344D01*
X211812561Y-59210166D01*
X211670466Y-58867118D01*
X211464175Y-58558382D01*
X211201618Y-58295825D01*
X210892882Y-58089534D01*
X210549834Y-57947439D01*
X210185656Y-57875000D01*
X209814344Y-57875000D01*
X209450166Y-57947439D01*
X209107118Y-58089534D01*
X208798382Y-58295825D01*
X208535825Y-58558382D01*
X208329534Y-58867118D01*
X208187439Y-59210166D01*
X208115000Y-59574344D01*
X204102240Y-59574344D01*
X204102240Y-57330019D01*
X204106467Y-57316084D01*
X204161417Y-57261134D01*
X204274685Y-57091616D01*
X204352706Y-56903258D01*
X204392480Y-56703299D01*
X204392480Y-56499421D01*
X204352706Y-56299462D01*
X204274685Y-56111104D01*
X204161417Y-55941586D01*
X204017254Y-55797423D01*
X203847736Y-55684155D01*
X203659378Y-55606134D01*
X203459419Y-55566360D01*
X203255541Y-55566360D01*
X203055582Y-55606134D01*
X202867224Y-55684155D01*
X202697706Y-55797423D01*
X202553543Y-55941586D01*
X202440275Y-56111104D01*
X202362254Y-56299462D01*
X202322480Y-56499421D01*
X199895937Y-56499421D01*
X199874121Y-56472839D01*
X199845117Y-56449036D01*
X199486444Y-56090363D01*
X199462641Y-56061359D01*
X199346916Y-55966386D01*
X199214887Y-55895814D01*
X199071626Y-55852357D01*
X198959973Y-55841360D01*
X198959962Y-55841360D01*
X198922640Y-55837684D01*
X198885318Y-55841360D01*
X192162162Y-55841360D01*
X192181026Y-55795818D01*
X192220800Y-55595859D01*
X192220800Y-55391981D01*
X192181026Y-55192022D01*
X192103005Y-55003664D01*
X191989737Y-54834146D01*
X191915320Y-54759729D01*
X191915320Y-53745431D01*
X191959257Y-53701494D01*
X192072525Y-53531976D01*
X192150546Y-53343618D01*
X192190320Y-53143659D01*
X192190320Y-52939781D01*
X192189703Y-52936680D01*
X196893958Y-52936680D01*
X196931280Y-52940356D01*
X196968602Y-52936680D01*
X196968613Y-52936680D01*
X197080266Y-52925683D01*
X197223527Y-52882226D01*
X197355556Y-52811654D01*
X197471281Y-52716681D01*
X197495083Y-52687678D01*
X197722921Y-52459840D01*
X197785059Y-52459840D01*
X197985018Y-52420066D01*
X198173376Y-52342045D01*
X198342894Y-52228777D01*
X198487057Y-52084614D01*
X198600325Y-51915096D01*
X198678346Y-51726738D01*
X198718120Y-51526779D01*
X198718120Y-51322901D01*
X198678346Y-51122942D01*
X198600325Y-50934584D01*
X198487057Y-50765066D01*
X198342894Y-50620903D01*
X198323305Y-50607814D01*
X198353054Y-50587937D01*
X198451210Y-50489781D01*
X198664880Y-50489781D01*
X198664880Y-50693659D01*
X198704654Y-50893618D01*
X198782675Y-51081976D01*
X198895943Y-51251494D01*
X198939880Y-51295431D01*
X198939881Y-52627028D01*
X198936204Y-52664360D01*
X198950878Y-52813345D01*
X198994334Y-52956606D01*
X199064906Y-53088636D01*
X199110063Y-53143659D01*
X199159880Y-53204361D01*
X199188878Y-53228159D01*
X201151725Y-55191008D01*
X201175519Y-55220001D01*
X201204512Y-55243795D01*
X201204516Y-55243799D01*
X201262530Y-55291409D01*
X201291244Y-55314974D01*
X201423273Y-55385546D01*
X201566534Y-55429003D01*
X201678187Y-55440000D01*
X201678196Y-55440000D01*
X201715519Y-55443676D01*
X201752842Y-55440000D01*
X208274493Y-55440000D01*
X208329534Y-55572882D01*
X208535825Y-55881618D01*
X208798382Y-56144175D01*
X209107118Y-56350466D01*
X209450166Y-56492561D01*
X209814344Y-56565000D01*
X210185656Y-56565000D01*
X210549834Y-56492561D01*
X210892882Y-56350466D01*
X211201618Y-56144175D01*
X211464175Y-55881618D01*
X211670466Y-55572882D01*
X211812561Y-55229834D01*
X211885000Y-54865656D01*
X211885000Y-54494344D01*
X211812561Y-54130166D01*
X211670466Y-53787118D01*
X211464175Y-53478382D01*
X211201618Y-53215825D01*
X210892882Y-53009534D01*
X210549834Y-52867439D01*
X210185656Y-52795000D01*
X209814344Y-52795000D01*
X209450166Y-52867439D01*
X209107118Y-53009534D01*
X208798382Y-53215825D01*
X208535825Y-53478382D01*
X208329534Y-53787118D01*
X208274493Y-53920000D01*
X202030323Y-53920000D01*
X200459880Y-52349559D01*
X200459880Y-51295431D01*
X200503817Y-51251494D01*
X200617085Y-51081976D01*
X200695106Y-50893618D01*
X200734880Y-50693659D01*
X200734880Y-50489781D01*
X200695106Y-50289822D01*
X200617085Y-50101464D01*
X200503817Y-49931946D01*
X200359654Y-49787783D01*
X200190136Y-49674515D01*
X200001778Y-49596494D01*
X199801819Y-49556720D01*
X199597941Y-49556720D01*
X199397982Y-49596494D01*
X199209624Y-49674515D01*
X199040106Y-49787783D01*
X198895943Y-49931946D01*
X198782675Y-50101464D01*
X198704654Y-50289822D01*
X198664880Y-50489781D01*
X198451210Y-50489781D01*
X198497217Y-50443774D01*
X198610485Y-50274256D01*
X198688506Y-50085898D01*
X198728280Y-49885939D01*
X198728280Y-49682061D01*
X198688506Y-49482102D01*
X198660440Y-49414344D01*
X208115000Y-49414344D01*
X208115000Y-49785656D01*
X208187439Y-50149834D01*
X208329534Y-50492882D01*
X208535825Y-50801618D01*
X208798382Y-51064175D01*
X209107118Y-51270466D01*
X209450166Y-51412561D01*
X209814344Y-51485000D01*
X210185656Y-51485000D01*
X210549834Y-51412561D01*
X210892882Y-51270466D01*
X211201618Y-51064175D01*
X211464175Y-50801618D01*
X211670466Y-50492882D01*
X211812561Y-50149834D01*
X211885000Y-49785656D01*
X211885000Y-49414344D01*
X211812561Y-49050166D01*
X211670466Y-48707118D01*
X211464175Y-48398382D01*
X211201618Y-48135825D01*
X210892882Y-47929534D01*
X210549834Y-47787439D01*
X210185656Y-47715000D01*
X209814344Y-47715000D01*
X209450166Y-47787439D01*
X209107118Y-47929534D01*
X208798382Y-48135825D01*
X208535825Y-48398382D01*
X208329534Y-48707118D01*
X208187439Y-49050166D01*
X208115000Y-49414344D01*
X198660440Y-49414344D01*
X198610485Y-49293744D01*
X198497217Y-49124226D01*
X198353054Y-48980063D01*
X198183536Y-48866795D01*
X197995178Y-48788774D01*
X197795219Y-48749000D01*
X197591341Y-48749000D01*
X197391382Y-48788774D01*
X197203024Y-48866795D01*
X197033506Y-48980063D01*
X196978556Y-49035013D01*
X196835348Y-49078454D01*
X196703319Y-49149026D01*
X196587594Y-49243999D01*
X196563795Y-49272998D01*
X196284474Y-49552320D01*
X191792085Y-49552320D01*
X191754760Y-49548644D01*
X191717435Y-49552320D01*
X191717427Y-49552320D01*
X191605774Y-49563317D01*
X191462513Y-49606774D01*
X191330484Y-49677346D01*
X191214759Y-49772319D01*
X191190961Y-49801317D01*
X191087181Y-49905098D01*
X191087960Y-49901179D01*
X191087960Y-49697301D01*
X191048186Y-49497342D01*
X190970165Y-49308984D01*
X190856897Y-49139466D01*
X190812960Y-49095529D01*
X190812960Y-48295401D01*
X191489071Y-47619291D01*
X191590903Y-47771694D01*
X191735066Y-47915857D01*
X191904584Y-48029125D01*
X192092942Y-48107146D01*
X192292901Y-48146920D01*
X192496779Y-48146920D01*
X192696738Y-48107146D01*
X192885096Y-48029125D01*
X193054614Y-47915857D01*
X193098551Y-47871920D01*
X195654438Y-47871920D01*
X195691760Y-47875596D01*
X195729082Y-47871920D01*
X195729093Y-47871920D01*
X195840746Y-47860923D01*
X195984007Y-47817466D01*
X196116036Y-47746894D01*
X196231761Y-47651921D01*
X196255564Y-47622917D01*
X197443522Y-46434960D01*
X197505659Y-46434960D01*
X197705618Y-46395186D01*
X197893976Y-46317165D01*
X198063494Y-46203897D01*
X198176890Y-46090501D01*
X198588680Y-46090501D01*
X198588680Y-46294379D01*
X198628454Y-46494338D01*
X198706475Y-46682696D01*
X198819743Y-46852214D01*
X198963906Y-46996377D01*
X199133424Y-47109645D01*
X199321782Y-47187666D01*
X199521741Y-47227440D01*
X199725619Y-47227440D01*
X199925578Y-47187666D01*
X200113936Y-47109645D01*
X200283454Y-46996377D01*
X200427617Y-46852214D01*
X200540885Y-46682696D01*
X200618906Y-46494338D01*
X200658680Y-46294379D01*
X200658680Y-46090501D01*
X200618906Y-45890542D01*
X200540885Y-45702184D01*
X200427617Y-45532666D01*
X200383680Y-45488729D01*
X200383680Y-44334344D01*
X208115000Y-44334344D01*
X208115000Y-44705656D01*
X208187439Y-45069834D01*
X208329534Y-45412882D01*
X208535825Y-45721618D01*
X208798382Y-45984175D01*
X209107118Y-46190466D01*
X209450166Y-46332561D01*
X209814344Y-46405000D01*
X210185656Y-46405000D01*
X210549834Y-46332561D01*
X210892882Y-46190466D01*
X211201618Y-45984175D01*
X211464175Y-45721618D01*
X211670466Y-45412882D01*
X211812561Y-45069834D01*
X211885000Y-44705656D01*
X211885000Y-44334344D01*
X211812561Y-43970166D01*
X211670466Y-43627118D01*
X211464175Y-43318382D01*
X211201618Y-43055825D01*
X210892882Y-42849534D01*
X210549834Y-42707439D01*
X210185656Y-42635000D01*
X209814344Y-42635000D01*
X209450166Y-42707439D01*
X209107118Y-42849534D01*
X208798382Y-43055825D01*
X208535825Y-43318382D01*
X208329534Y-43627118D01*
X208187439Y-43970166D01*
X208115000Y-44334344D01*
X200383680Y-44334344D01*
X200383680Y-40262924D01*
X200395214Y-40255217D01*
X200539377Y-40111054D01*
X200652645Y-39941536D01*
X200730666Y-39753178D01*
X200770440Y-39553219D01*
X200770440Y-39349341D01*
X200730666Y-39149382D01*
X200652645Y-38961024D01*
X200539377Y-38791506D01*
X200395214Y-38647343D01*
X200225696Y-38534075D01*
X200037338Y-38456054D01*
X199837379Y-38416280D01*
X199633501Y-38416280D01*
X199433542Y-38456054D01*
X199245184Y-38534075D01*
X199075666Y-38647343D01*
X198931503Y-38791506D01*
X198818235Y-38961024D01*
X198740214Y-39149382D01*
X198700440Y-39349341D01*
X198700440Y-39553219D01*
X198740214Y-39753178D01*
X198818235Y-39941536D01*
X198863681Y-40009551D01*
X198863680Y-45488729D01*
X198819743Y-45532666D01*
X198706475Y-45702184D01*
X198628454Y-45890542D01*
X198588680Y-46090501D01*
X198176890Y-46090501D01*
X198207657Y-46059734D01*
X198320925Y-45890216D01*
X198398946Y-45701858D01*
X198438720Y-45501899D01*
X198438720Y-45298021D01*
X198398946Y-45098062D01*
X198320925Y-44909704D01*
X198207657Y-44740186D01*
X198112887Y-44645416D01*
X198205734Y-44583377D01*
X198349897Y-44439214D01*
X198463165Y-44269696D01*
X198541186Y-44081338D01*
X198580960Y-43881379D01*
X198580960Y-43677501D01*
X198541186Y-43477542D01*
X198463165Y-43289184D01*
X198349897Y-43119666D01*
X198205734Y-42975503D01*
X198036216Y-42862235D01*
X197847858Y-42784214D01*
X197647899Y-42744440D01*
X197444021Y-42744440D01*
X197244062Y-42784214D01*
X197055704Y-42862235D01*
X196886186Y-42975503D01*
X196831236Y-43030453D01*
X196688028Y-43073894D01*
X196555999Y-43144466D01*
X196555997Y-43144467D01*
X196555998Y-43144467D01*
X196469271Y-43215641D01*
X196469267Y-43215645D01*
X196440274Y-43239439D01*
X196416480Y-43268432D01*
X195761233Y-43923680D01*
X193387203Y-43923680D01*
X193349880Y-43920004D01*
X193312557Y-43923680D01*
X193312547Y-43923680D01*
X193200894Y-43934677D01*
X193057633Y-43978134D01*
X192925603Y-44048706D01*
X192841963Y-44117348D01*
X192809879Y-44143679D01*
X192786081Y-44172677D01*
X189541963Y-47416796D01*
X189512959Y-47440599D01*
X189460107Y-47505000D01*
X189417986Y-47556324D01*
X189369874Y-47646335D01*
X189347414Y-47688354D01*
X189303957Y-47831615D01*
X189292960Y-47943268D01*
X189292960Y-47943278D01*
X189289284Y-47980600D01*
X189292960Y-48017923D01*
X189292961Y-49095528D01*
X189249023Y-49139466D01*
X189135755Y-49308984D01*
X189057734Y-49497342D01*
X189017960Y-49697301D01*
X189017960Y-49901179D01*
X189057734Y-50101138D01*
X189135755Y-50289496D01*
X189249023Y-50459014D01*
X189393186Y-50603177D01*
X189562704Y-50716445D01*
X189751062Y-50794466D01*
X189819656Y-50808110D01*
X189755515Y-50904104D01*
X189677494Y-51092462D01*
X189637720Y-51292421D01*
X189637720Y-51416680D01*
X185811002Y-51416680D01*
X184956400Y-50562079D01*
X184956400Y-50499941D01*
X184916626Y-50299982D01*
X184838605Y-50111624D01*
X184725337Y-49942106D01*
X184581174Y-49797943D01*
X184561856Y-49785035D01*
X184665256Y-49742205D01*
X184834774Y-49628937D01*
X184978937Y-49484774D01*
X185092205Y-49315256D01*
X185170226Y-49126898D01*
X185210000Y-48926939D01*
X185210000Y-48723061D01*
X185170226Y-48523102D01*
X185092205Y-48334744D01*
X184978937Y-48165226D01*
X184834774Y-48021063D01*
X184665256Y-47907795D01*
X184476898Y-47829774D01*
X184276939Y-47790000D01*
X184073061Y-47790000D01*
X183873102Y-47829774D01*
X183684744Y-47907795D01*
X183515226Y-48021063D01*
X183371063Y-48165226D01*
X183257795Y-48334744D01*
X183179774Y-48523102D01*
X183140000Y-48723061D01*
X183140000Y-48926939D01*
X183179774Y-49126898D01*
X183257795Y-49315256D01*
X183371063Y-49484774D01*
X183515226Y-49628937D01*
X183534544Y-49641845D01*
X183431144Y-49684675D01*
X183261626Y-49797943D01*
X183117463Y-49942106D01*
X183004195Y-50111624D01*
X182926174Y-50299982D01*
X182886400Y-50499941D01*
X182886400Y-50703819D01*
X182926174Y-50903778D01*
X183004195Y-51092136D01*
X183117463Y-51261654D01*
X183261626Y-51405817D01*
X183431144Y-51519085D01*
X183619502Y-51597106D01*
X183819461Y-51636880D01*
X183881599Y-51636880D01*
X184932401Y-52687683D01*
X184956199Y-52716681D01*
X184985197Y-52740479D01*
X185071924Y-52811654D01*
X185203953Y-52882226D01*
X185347214Y-52925683D01*
X185496200Y-52940357D01*
X185533533Y-52936680D01*
X190120937Y-52936680D01*
X190120320Y-52939781D01*
X190120320Y-53143659D01*
X190160094Y-53343618D01*
X190238115Y-53531976D01*
X190351383Y-53701494D01*
X190395320Y-53745431D01*
X190395321Y-54814577D01*
X190328937Y-54715226D01*
X190184774Y-54571063D01*
X190015256Y-54457795D01*
X189826898Y-54379774D01*
X189626939Y-54340000D01*
X189564802Y-54340000D01*
X188788804Y-53564003D01*
X188765001Y-53534999D01*
X188649276Y-53440026D01*
X188517247Y-53369454D01*
X188373986Y-53325997D01*
X188262333Y-53315000D01*
X188262322Y-53315000D01*
X188225000Y-53311324D01*
X188187678Y-53315000D01*
X183003711Y-53315000D01*
X182959774Y-53271063D01*
X182790256Y-53157795D01*
X182601898Y-53079774D01*
X182401939Y-53040000D01*
X182198061Y-53040000D01*
X181998102Y-53079774D01*
X181809744Y-53157795D01*
X181640226Y-53271063D01*
X181496063Y-53415226D01*
X181382795Y-53584744D01*
X181304774Y-53773102D01*
X181265000Y-53973061D01*
X180858933Y-53973061D01*
X180682241Y-53855000D01*
X180914759Y-53699637D01*
X181114637Y-53499759D01*
X181271680Y-53264727D01*
X181379853Y-53003574D01*
X181435000Y-52726335D01*
X181435000Y-52443665D01*
X181379853Y-52166426D01*
X181271680Y-51905273D01*
X181114637Y-51670241D01*
X180914759Y-51470363D01*
X180682241Y-51315000D01*
X180914759Y-51159637D01*
X181114637Y-50959759D01*
X181271680Y-50724727D01*
X181379853Y-50463574D01*
X181435000Y-50186335D01*
X181435000Y-49903665D01*
X181379853Y-49626426D01*
X181271680Y-49365273D01*
X181114637Y-49130241D01*
X180914759Y-48930363D01*
X180682241Y-48775000D01*
X180914759Y-48619637D01*
X181114637Y-48419759D01*
X181271680Y-48184727D01*
X181379853Y-47923574D01*
X181435000Y-47646335D01*
X181435000Y-47363665D01*
X181379853Y-47086426D01*
X181271680Y-46825273D01*
X181114637Y-46590241D01*
X180914759Y-46390363D01*
X180682241Y-46235000D01*
X180914759Y-46079637D01*
X181114637Y-45879759D01*
X181271680Y-45644727D01*
X181379853Y-45383574D01*
X181435000Y-45106335D01*
X181435000Y-44823665D01*
X181379853Y-44546426D01*
X181271680Y-44285273D01*
X181114637Y-44050241D01*
X180914759Y-43850363D01*
X180682241Y-43695000D01*
X180914759Y-43539637D01*
X181114637Y-43339759D01*
X181271680Y-43104727D01*
X181379853Y-42843574D01*
X181435000Y-42566335D01*
X181435000Y-42283665D01*
X181379853Y-42006426D01*
X181271680Y-41745273D01*
X181114637Y-41510241D01*
X180914759Y-41310363D01*
X180682241Y-41155000D01*
X180914759Y-40999637D01*
X181114637Y-40799759D01*
X181271680Y-40564727D01*
X181379853Y-40303574D01*
X181435000Y-40026335D01*
X181435000Y-39743665D01*
X181379853Y-39466426D01*
X181271680Y-39205273D01*
X181114637Y-38970241D01*
X180914759Y-38770363D01*
X180682241Y-38615000D01*
X180914759Y-38459637D01*
X181114637Y-38259759D01*
X181161248Y-38190000D01*
X208111928Y-38190000D01*
X208111928Y-40690000D01*
X208124188Y-40814482D01*
X208160498Y-40934180D01*
X208219463Y-41044494D01*
X208298815Y-41141185D01*
X208395506Y-41220537D01*
X208505820Y-41279502D01*
X208625518Y-41315812D01*
X208750000Y-41328072D01*
X211250000Y-41328072D01*
X211374482Y-41315812D01*
X211494180Y-41279502D01*
X211604494Y-41220537D01*
X211701185Y-41141185D01*
X211780537Y-41044494D01*
X211839502Y-40934180D01*
X211875812Y-40814482D01*
X211888072Y-40690000D01*
X211888072Y-38190000D01*
X211875812Y-38065518D01*
X211839502Y-37945820D01*
X211780537Y-37835506D01*
X211701185Y-37738815D01*
X211604494Y-37659463D01*
X211494180Y-37600498D01*
X211374482Y-37564188D01*
X211250000Y-37551928D01*
X208750000Y-37551928D01*
X208625518Y-37564188D01*
X208505820Y-37600498D01*
X208395506Y-37659463D01*
X208298815Y-37738815D01*
X208219463Y-37835506D01*
X208160498Y-37945820D01*
X208124188Y-38065518D01*
X208111928Y-38190000D01*
X181161248Y-38190000D01*
X181271680Y-38024727D01*
X181379853Y-37763574D01*
X181435000Y-37486335D01*
X181435000Y-37203665D01*
X181379853Y-36926426D01*
X181271680Y-36665273D01*
X181114637Y-36430241D01*
X180914759Y-36230363D01*
X180682241Y-36075000D01*
X180914759Y-35919637D01*
X181114637Y-35719759D01*
X181271680Y-35484727D01*
X181379853Y-35223574D01*
X181435000Y-34946335D01*
X181435000Y-34663665D01*
X181379853Y-34386426D01*
X181271680Y-34125273D01*
X181114637Y-33890241D01*
X180914759Y-33690363D01*
X180682241Y-33535000D01*
X180914759Y-33379637D01*
X181114637Y-33179759D01*
X181271680Y-32944727D01*
X181379853Y-32683574D01*
X181435000Y-32406335D01*
X181435000Y-32123665D01*
X181379853Y-31846426D01*
X181271680Y-31585273D01*
X181114637Y-31350241D01*
X180984268Y-31219872D01*
X207765000Y-31219872D01*
X207765000Y-31660128D01*
X207850890Y-32091925D01*
X208019369Y-32498669D01*
X208263962Y-32864729D01*
X208575271Y-33176038D01*
X208941331Y-33420631D01*
X209348075Y-33589110D01*
X209779872Y-33675000D01*
X210220128Y-33675000D01*
X210651925Y-33589110D01*
X211058669Y-33420631D01*
X211424729Y-33176038D01*
X211736038Y-32864729D01*
X211980631Y-32498669D01*
X212149110Y-32091925D01*
X212235000Y-31660128D01*
X212235000Y-31219872D01*
X212149110Y-30788075D01*
X211980631Y-30381331D01*
X211736038Y-30015271D01*
X211424729Y-29703962D01*
X211058669Y-29459369D01*
X210651925Y-29290890D01*
X210220128Y-29205000D01*
X209779872Y-29205000D01*
X209348075Y-29290890D01*
X208941331Y-29459369D01*
X208575271Y-29703962D01*
X208263962Y-30015271D01*
X208019369Y-30381331D01*
X207850890Y-30788075D01*
X207765000Y-31219872D01*
X180984268Y-31219872D01*
X180914759Y-31150363D01*
X180679727Y-30993320D01*
X180418574Y-30885147D01*
X180141335Y-30830000D01*
X179858665Y-30830000D01*
X179581426Y-30885147D01*
X179320273Y-30993320D01*
X179085241Y-31150363D01*
X178885363Y-31350241D01*
X178728320Y-31585273D01*
X178620147Y-31846426D01*
X178565000Y-32123665D01*
X178565000Y-32406335D01*
X178620147Y-32683574D01*
X178728320Y-32944727D01*
X178885363Y-33179759D01*
X179085241Y-33379637D01*
X179317759Y-33535000D01*
X179085241Y-33690363D01*
X178885363Y-33890241D01*
X178781957Y-34045000D01*
X176469802Y-34045000D01*
X170288804Y-27864003D01*
X170265001Y-27834999D01*
X170149276Y-27740026D01*
X170017247Y-27669454D01*
X169873986Y-27625997D01*
X169762333Y-27615000D01*
X169762322Y-27615000D01*
X169725000Y-27611324D01*
X169687678Y-27615000D01*
X148205487Y-27615000D01*
X147779488Y-27189002D01*
X147755686Y-27159999D01*
X147639961Y-27065026D01*
X147507932Y-26994454D01*
X147364724Y-26951013D01*
X147309774Y-26896063D01*
X147140256Y-26782795D01*
X146951898Y-26704774D01*
X146751939Y-26665000D01*
X146548061Y-26665000D01*
X146348102Y-26704774D01*
X146159744Y-26782795D01*
X145990226Y-26896063D01*
X145846063Y-27040226D01*
X145732795Y-27209744D01*
X145654774Y-27398102D01*
X145615000Y-27598061D01*
X145615000Y-27801939D01*
X145654774Y-28001898D01*
X145732795Y-28190256D01*
X145846063Y-28359774D01*
X145890000Y-28403711D01*
X145890001Y-43246288D01*
X145846063Y-43290226D01*
X145732795Y-43459744D01*
X145654774Y-43648102D01*
X145615000Y-43848061D01*
X145615000Y-43915001D01*
X136988567Y-43915001D01*
X136952042Y-43885026D01*
X136820013Y-43814454D01*
X136676752Y-43770997D01*
X136565099Y-43760000D01*
X136565088Y-43760000D01*
X136527766Y-43756324D01*
X136490444Y-43760000D01*
X136485507Y-43760000D01*
X136430466Y-43627118D01*
X136224175Y-43318382D01*
X135961618Y-43055825D01*
X135652882Y-42849534D01*
X135309834Y-42707439D01*
X134945656Y-42635000D01*
X134574344Y-42635000D01*
X134210166Y-42707439D01*
X133867118Y-42849534D01*
X133558382Y-43055825D01*
X133295825Y-43318382D01*
X133089534Y-43627118D01*
X132947439Y-43970166D01*
X132875000Y-44334344D01*
X129420000Y-44334344D01*
X129420000Y-39254344D01*
X132875000Y-39254344D01*
X132875000Y-39625656D01*
X132947439Y-39989834D01*
X133089534Y-40332882D01*
X133295825Y-40641618D01*
X133558382Y-40904175D01*
X133867118Y-41110466D01*
X134210166Y-41252561D01*
X134574344Y-41325000D01*
X134945656Y-41325000D01*
X135309834Y-41252561D01*
X135652882Y-41110466D01*
X135961618Y-40904175D01*
X136224175Y-40641618D01*
X136430466Y-40332882D01*
X136572561Y-39989834D01*
X136645000Y-39625656D01*
X136645000Y-39254344D01*
X136572561Y-38890166D01*
X136430466Y-38547118D01*
X136224175Y-38238382D01*
X135961618Y-37975825D01*
X135652882Y-37769534D01*
X135309834Y-37627439D01*
X134945656Y-37555000D01*
X134574344Y-37555000D01*
X134210166Y-37627439D01*
X133867118Y-37769534D01*
X133558382Y-37975825D01*
X133295825Y-38238382D01*
X133089534Y-38547118D01*
X132947439Y-38890166D01*
X132875000Y-39254344D01*
X129420000Y-39254344D01*
X129420000Y-31219872D01*
X132525000Y-31219872D01*
X132525000Y-31660128D01*
X132610890Y-32091925D01*
X132779369Y-32498669D01*
X133023962Y-32864729D01*
X133335271Y-33176038D01*
X133701331Y-33420631D01*
X134108075Y-33589110D01*
X134539872Y-33675000D01*
X134980128Y-33675000D01*
X135411925Y-33589110D01*
X135818669Y-33420631D01*
X136184729Y-33176038D01*
X136496038Y-32864729D01*
X136740631Y-32498669D01*
X136909110Y-32091925D01*
X136995000Y-31660128D01*
X136995000Y-31219872D01*
X136909110Y-30788075D01*
X136740631Y-30381331D01*
X136496038Y-30015271D01*
X136184729Y-29703962D01*
X135818669Y-29459369D01*
X135411925Y-29290890D01*
X134980128Y-29205000D01*
X134539872Y-29205000D01*
X134108075Y-29290890D01*
X133701331Y-29459369D01*
X133335271Y-29703962D01*
X133023962Y-30015271D01*
X132779369Y-30381331D01*
X132610890Y-30788075D01*
X132525000Y-31219872D01*
X129420000Y-31219872D01*
X129420000Y-26100000D01*
X215340000Y-26100000D01*
X215340001Y-108660000D01*
G37*
X215340001Y-108660000D02*
X129420000Y-108660000D01*
X129420000Y-103099872D01*
X132525000Y-103099872D01*
X132525000Y-103540128D01*
X132610890Y-103971925D01*
X132779369Y-104378669D01*
X133023962Y-104744729D01*
X133335271Y-105056038D01*
X133701331Y-105300631D01*
X134108075Y-105469110D01*
X134539872Y-105555000D01*
X134980128Y-105555000D01*
X135411925Y-105469110D01*
X135588268Y-105396066D01*
X148528539Y-105396066D01*
X148630339Y-105665579D01*
X148928477Y-105811463D01*
X149249346Y-105896380D01*
X149580617Y-105917066D01*
X149909557Y-105872728D01*
X150223527Y-105765069D01*
X150409661Y-105665579D01*
X150511461Y-105396066D01*
X153608539Y-105396066D01*
X153710339Y-105665579D01*
X154008477Y-105811463D01*
X154329346Y-105896380D01*
X154660617Y-105917066D01*
X154989557Y-105872728D01*
X155303527Y-105765069D01*
X155489661Y-105665579D01*
X155591461Y-105396066D01*
X158688539Y-105396066D01*
X158790339Y-105665579D01*
X159088477Y-105811463D01*
X159409346Y-105896380D01*
X159740617Y-105917066D01*
X160069557Y-105872728D01*
X160383527Y-105765069D01*
X160569661Y-105665579D01*
X160671461Y-105396066D01*
X159680000Y-104404605D01*
X158688539Y-105396066D01*
X155591461Y-105396066D01*
X154600000Y-104404605D01*
X153608539Y-105396066D01*
X150511461Y-105396066D01*
X149520000Y-104404605D01*
X148528539Y-105396066D01*
X135588268Y-105396066D01*
X135818669Y-105300631D01*
X136184729Y-105056038D01*
X136496038Y-104744729D01*
X136740631Y-104378669D01*
X136779174Y-104285617D01*
X147827934Y-104285617D01*
X147872272Y-104614557D01*
X147979931Y-104928527D01*
X148079421Y-105114661D01*
X148348934Y-105216461D01*
X149340395Y-104225000D01*
X149699605Y-104225000D01*
X150691066Y-105216461D01*
X150960579Y-105114661D01*
X151106463Y-104816523D01*
X151191380Y-104495654D01*
X151204495Y-104285617D01*
X152907934Y-104285617D01*
X152952272Y-104614557D01*
X153059931Y-104928527D01*
X153159421Y-105114661D01*
X153428934Y-105216461D01*
X154420395Y-104225000D01*
X154779605Y-104225000D01*
X155771066Y-105216461D01*
X156040579Y-105114661D01*
X156186463Y-104816523D01*
X156271380Y-104495654D01*
X156284495Y-104285617D01*
X157987934Y-104285617D01*
X158032272Y-104614557D01*
X158139931Y-104928527D01*
X158239421Y-105114661D01*
X158508934Y-105216461D01*
X159500395Y-104225000D01*
X159859605Y-104225000D01*
X160851066Y-105216461D01*
X161120579Y-105114661D01*
X161266463Y-104816523D01*
X161351380Y-104495654D01*
X161372066Y-104164383D01*
X161357868Y-104059042D01*
X163075000Y-104059042D01*
X163075000Y-104390958D01*
X163139754Y-104716496D01*
X163266772Y-105023147D01*
X163451175Y-105299125D01*
X163685875Y-105533825D01*
X163961853Y-105718228D01*
X164268504Y-105845246D01*
X164594042Y-105910000D01*
X164925958Y-105910000D01*
X165251496Y-105845246D01*
X165558147Y-105718228D01*
X165834125Y-105533825D01*
X166068825Y-105299125D01*
X166253228Y-105023147D01*
X166380246Y-104716496D01*
X166445000Y-104390958D01*
X166445000Y-104059042D01*
X166380246Y-103733504D01*
X166364445Y-103695356D01*
X168836003Y-101223799D01*
X168865001Y-101200001D01*
X168959974Y-101084276D01*
X169030546Y-100952247D01*
X169074003Y-100808986D01*
X169080001Y-100748088D01*
X169080001Y-102702734D01*
X169080000Y-102702744D01*
X169080000Y-102715971D01*
X169041853Y-102731772D01*
X168765875Y-102916175D01*
X168531175Y-103150875D01*
X168346772Y-103426853D01*
X168219754Y-103733504D01*
X168155000Y-104059042D01*
X168155000Y-104390958D01*
X168219754Y-104716496D01*
X168346772Y-105023147D01*
X168531175Y-105299125D01*
X168765875Y-105533825D01*
X169041853Y-105718228D01*
X169348504Y-105845246D01*
X169674042Y-105910000D01*
X170005958Y-105910000D01*
X170331496Y-105845246D01*
X170638147Y-105718228D01*
X170914125Y-105533825D01*
X171148825Y-105299125D01*
X171333228Y-105023147D01*
X171460246Y-104716496D01*
X171525000Y-104390958D01*
X171525000Y-104059042D01*
X171460246Y-103733504D01*
X171333228Y-103426853D01*
X171148825Y-103150875D01*
X170914125Y-102916175D01*
X170638147Y-102731772D01*
X170600000Y-102715971D01*
X170600000Y-46410952D01*
X170603676Y-46373629D01*
X170600000Y-46336306D01*
X170600000Y-46336297D01*
X170589003Y-46224644D01*
X170545546Y-46081383D01*
X170533974Y-46059734D01*
X170474974Y-45949353D01*
X170403799Y-45862627D01*
X170380001Y-45833629D01*
X170351004Y-45809832D01*
X166455174Y-41914003D01*
X166431371Y-41884999D01*
X166315646Y-41790026D01*
X166183617Y-41719454D01*
X166040356Y-41675997D01*
X165981519Y-41670202D01*
X165874637Y-41510241D01*
X165674759Y-41310363D01*
X165442241Y-41155000D01*
X165674759Y-40999637D01*
X165802982Y-40871414D01*
X172505685Y-47574117D01*
X172505686Y-96746982D01*
X172502009Y-96784315D01*
X172516683Y-96933300D01*
X172560139Y-97076561D01*
X172630711Y-97208591D01*
X172701886Y-97295317D01*
X172725685Y-97324316D01*
X172754683Y-97348114D01*
X174160000Y-98753432D01*
X174160001Y-102715971D01*
X174121853Y-102731772D01*
X173845875Y-102916175D01*
X173611175Y-103150875D01*
X173426772Y-103426853D01*
X173299754Y-103733504D01*
X173235000Y-104059042D01*
X173235000Y-104390958D01*
X173299754Y-104716496D01*
X173426772Y-105023147D01*
X173611175Y-105299125D01*
X173845875Y-105533825D01*
X174121853Y-105718228D01*
X174428504Y-105845246D01*
X174754042Y-105910000D01*
X175085958Y-105910000D01*
X175411496Y-105845246D01*
X175718147Y-105718228D01*
X175994125Y-105533825D01*
X176228825Y-105299125D01*
X176413228Y-105023147D01*
X176540246Y-104716496D01*
X176605000Y-104390958D01*
X176605000Y-104059042D01*
X176540246Y-103733504D01*
X176413228Y-103426853D01*
X176228825Y-103150875D01*
X175994125Y-102916175D01*
X175718147Y-102731772D01*
X175680000Y-102715971D01*
X175680000Y-98475955D01*
X175683676Y-98438630D01*
X175680000Y-98401305D01*
X175680000Y-98401297D01*
X175669003Y-98289644D01*
X175625546Y-98146383D01*
X175554974Y-98014354D01*
X175460001Y-97898629D01*
X175431004Y-97874832D01*
X174025685Y-96469514D01*
X174025685Y-47296637D01*
X174029361Y-47259314D01*
X174025685Y-47221991D01*
X174025685Y-47221982D01*
X174014688Y-47110329D01*
X173971231Y-46967068D01*
X173900659Y-46835039D01*
X173805686Y-46719314D01*
X173776689Y-46695517D01*
X166455174Y-39374003D01*
X166431371Y-39344999D01*
X166315646Y-39250026D01*
X166183617Y-39179454D01*
X166040356Y-39135997D01*
X165981519Y-39130202D01*
X165874637Y-38970241D01*
X165674759Y-38770363D01*
X165442241Y-38615000D01*
X165674759Y-38459637D01*
X165874637Y-38259759D01*
X166031680Y-38024727D01*
X166139853Y-37763574D01*
X166195000Y-37486335D01*
X166195000Y-37203665D01*
X166139853Y-36926426D01*
X166031680Y-36665273D01*
X165874637Y-36430241D01*
X165674759Y-36230363D01*
X165442241Y-36075000D01*
X165674759Y-35919637D01*
X165874637Y-35719759D01*
X166031680Y-35484727D01*
X166139853Y-35223574D01*
X166195000Y-34946335D01*
X166195000Y-34663665D01*
X166139853Y-34386426D01*
X166031680Y-34125273D01*
X165874637Y-33890241D01*
X165674759Y-33690363D01*
X165442241Y-33535000D01*
X165674759Y-33379637D01*
X165874637Y-33179759D01*
X166031680Y-32944727D01*
X166139853Y-32683574D01*
X166195000Y-32406335D01*
X166195000Y-32123665D01*
X166139853Y-31846426D01*
X166031680Y-31585273D01*
X165874637Y-31350241D01*
X165674759Y-31150363D01*
X165439727Y-30993320D01*
X165178574Y-30885147D01*
X164901335Y-30830000D01*
X164618665Y-30830000D01*
X164341426Y-30885147D01*
X164080273Y-30993320D01*
X163845241Y-31150363D01*
X163645363Y-31350241D01*
X163488320Y-31585273D01*
X163380147Y-31846426D01*
X163325000Y-32123665D01*
X163325000Y-32406335D01*
X163380147Y-32683574D01*
X163488320Y-32944727D01*
X163645363Y-33179759D01*
X163845241Y-33379637D01*
X164077759Y-33535000D01*
X163845241Y-33690363D01*
X163645363Y-33890241D01*
X163488320Y-34125273D01*
X163380147Y-34386426D01*
X163325000Y-34663665D01*
X163325000Y-34946335D01*
X163380147Y-35223574D01*
X163488320Y-35484727D01*
X163645363Y-35719759D01*
X163845241Y-35919637D01*
X164077759Y-36075000D01*
X163845241Y-36230363D01*
X163645363Y-36430241D01*
X163488320Y-36665273D01*
X163380147Y-36926426D01*
X163325000Y-37203665D01*
X163325000Y-37486335D01*
X163380147Y-37763574D01*
X163488320Y-38024727D01*
X163645363Y-38259759D01*
X163845241Y-38459637D01*
X164077759Y-38615000D01*
X163845241Y-38770363D01*
X163645363Y-38970241D01*
X163488320Y-39205273D01*
X163380147Y-39466426D01*
X163325000Y-39743665D01*
X163325000Y-40026335D01*
X163380147Y-40303574D01*
X163488320Y-40564727D01*
X163645363Y-40799759D01*
X163845241Y-40999637D01*
X164077759Y-41155000D01*
X163845241Y-41310363D01*
X163645363Y-41510241D01*
X163488320Y-41745273D01*
X163380147Y-42006426D01*
X163325000Y-42283665D01*
X163325000Y-42566335D01*
X163380147Y-42843574D01*
X163488320Y-43104727D01*
X163645363Y-43339759D01*
X163845241Y-43539637D01*
X164077759Y-43695000D01*
X163845241Y-43850363D01*
X163645363Y-44050241D01*
X163488320Y-44285273D01*
X163380147Y-44546426D01*
X163325000Y-44823665D01*
X163325000Y-45106335D01*
X163380147Y-45383574D01*
X163488320Y-45644727D01*
X163645363Y-45879759D01*
X163845241Y-46079637D01*
X164077759Y-46235000D01*
X163845241Y-46390363D01*
X163645363Y-46590241D01*
X163488320Y-46825273D01*
X163380147Y-47086426D01*
X163325000Y-47363665D01*
X163325000Y-47646335D01*
X163380147Y-47923574D01*
X163488320Y-48184727D01*
X163645363Y-48419759D01*
X163845241Y-48619637D01*
X164077759Y-48775000D01*
X163845241Y-48930363D01*
X163645363Y-49130241D01*
X163488320Y-49365273D01*
X163380147Y-49626426D01*
X163325000Y-49903665D01*
X163325000Y-50186335D01*
X163380147Y-50463574D01*
X163488320Y-50724727D01*
X163645363Y-50959759D01*
X163845241Y-51159637D01*
X164077759Y-51315000D01*
X163845241Y-51470363D01*
X163645363Y-51670241D01*
X163488320Y-51905273D01*
X163380147Y-52166426D01*
X163325000Y-52443665D01*
X163325000Y-52726335D01*
X163380147Y-53003574D01*
X163488320Y-53264727D01*
X163645363Y-53499759D01*
X163845241Y-53699637D01*
X164077759Y-53855000D01*
X163845241Y-54010363D01*
X163645363Y-54210241D01*
X163488320Y-54445273D01*
X163380147Y-54706426D01*
X163325000Y-54983665D01*
X163325000Y-55266335D01*
X163380147Y-55543574D01*
X163488320Y-55804727D01*
X163645363Y-56039759D01*
X163845241Y-56239637D01*
X164077759Y-56395000D01*
X163845241Y-56550363D01*
X163645363Y-56750241D01*
X163488320Y-56985273D01*
X163380147Y-57246426D01*
X163325000Y-57523665D01*
X163325000Y-57806335D01*
X163380147Y-58083574D01*
X163488320Y-58344727D01*
X163645363Y-58579759D01*
X163845241Y-58779637D01*
X164077759Y-58935000D01*
X163845241Y-59090363D01*
X163645363Y-59290241D01*
X163488320Y-59525273D01*
X163380147Y-59786426D01*
X163325000Y-60063665D01*
X163325000Y-60346335D01*
X163380147Y-60623574D01*
X163488320Y-60884727D01*
X163645363Y-61119759D01*
X163845241Y-61319637D01*
X164077759Y-61475000D01*
X163845241Y-61630363D01*
X163645363Y-61830241D01*
X163488320Y-62065273D01*
X163380147Y-62326426D01*
X163325000Y-62603665D01*
X163325000Y-62886335D01*
X163380147Y-63163574D01*
X163488320Y-63424727D01*
X163645363Y-63659759D01*
X163845241Y-63859637D01*
X164080273Y-64016680D01*
X164090865Y-64021067D01*
X163904869Y-64132615D01*
X163696481Y-64321586D01*
X163528963Y-64547580D01*
X163408754Y-64801913D01*
X163368096Y-64935961D01*
X163490085Y-65158000D01*
X164633000Y-65158000D01*
X164633000Y-65138000D01*
X164887000Y-65138000D01*
X164887000Y-65158000D01*
X164907000Y-65158000D01*
X164907000Y-65412000D01*
X164887000Y-65412000D01*
X164887000Y-65432000D01*
X164633000Y-65432000D01*
X164633000Y-65412000D01*
X163490085Y-65412000D01*
X163368096Y-65634039D01*
X163408754Y-65768087D01*
X163528963Y-66022420D01*
X163696481Y-66248414D01*
X163904869Y-66437385D01*
X164090865Y-66548933D01*
X164080273Y-66553320D01*
X163845241Y-66710363D01*
X163645363Y-66910241D01*
X163488320Y-67145273D01*
X163380147Y-67406426D01*
X163325000Y-67683665D01*
X163325000Y-67966335D01*
X163380147Y-68243574D01*
X163488320Y-68504727D01*
X163645363Y-68739759D01*
X163845241Y-68939637D01*
X164080273Y-69096680D01*
X164341426Y-69204853D01*
X164618665Y-69260000D01*
X164901335Y-69260000D01*
X165178574Y-69204853D01*
X165439727Y-69096680D01*
X165674759Y-68939637D01*
X165874637Y-68739759D01*
X166026371Y-68512673D01*
X166026371Y-84594697D01*
X165932795Y-84734744D01*
X165854774Y-84923102D01*
X165815000Y-85123061D01*
X165815000Y-85326939D01*
X165854774Y-85526898D01*
X165932795Y-85715256D01*
X166046063Y-85884774D01*
X166190226Y-86028937D01*
X166359744Y-86142205D01*
X166548102Y-86220226D01*
X166748061Y-86260000D01*
X166951939Y-86260000D01*
X167151898Y-86220226D01*
X167340256Y-86142205D01*
X167509774Y-86028937D01*
X167565001Y-85973710D01*
X167565001Y-100345197D01*
X165289644Y-102620555D01*
X165251496Y-102604754D01*
X164925958Y-102540000D01*
X164594042Y-102540000D01*
X164268504Y-102604754D01*
X163961853Y-102731772D01*
X163685875Y-102916175D01*
X163451175Y-103150875D01*
X163266772Y-103426853D01*
X163139754Y-103733504D01*
X163075000Y-104059042D01*
X161357868Y-104059042D01*
X161327728Y-103835443D01*
X161220069Y-103521473D01*
X161120579Y-103335339D01*
X160851066Y-103233539D01*
X159859605Y-104225000D01*
X159500395Y-104225000D01*
X158508934Y-103233539D01*
X158239421Y-103335339D01*
X158093537Y-103633477D01*
X158008620Y-103954346D01*
X157987934Y-104285617D01*
X156284495Y-104285617D01*
X156292066Y-104164383D01*
X156247728Y-103835443D01*
X156140069Y-103521473D01*
X156040579Y-103335339D01*
X155771066Y-103233539D01*
X154779605Y-104225000D01*
X154420395Y-104225000D01*
X153428934Y-103233539D01*
X153159421Y-103335339D01*
X153013537Y-103633477D01*
X152928620Y-103954346D01*
X152907934Y-104285617D01*
X151204495Y-104285617D01*
X151212066Y-104164383D01*
X151167728Y-103835443D01*
X151060069Y-103521473D01*
X150960579Y-103335339D01*
X150691066Y-103233539D01*
X149699605Y-104225000D01*
X149340395Y-104225000D01*
X148348934Y-103233539D01*
X148079421Y-103335339D01*
X147933537Y-103633477D01*
X147848620Y-103954346D01*
X147827934Y-104285617D01*
X136779174Y-104285617D01*
X136909110Y-103971925D01*
X136995000Y-103540128D01*
X136995000Y-103099872D01*
X136985863Y-103053934D01*
X148528539Y-103053934D01*
X149520000Y-104045395D01*
X150511461Y-103053934D01*
X153608539Y-103053934D01*
X154600000Y-104045395D01*
X155591461Y-103053934D01*
X158688539Y-103053934D01*
X159680000Y-104045395D01*
X160671461Y-103053934D01*
X160569661Y-102784421D01*
X160271523Y-102638537D01*
X159950654Y-102553620D01*
X159619383Y-102532934D01*
X159290443Y-102577272D01*
X158976473Y-102684931D01*
X158790339Y-102784421D01*
X158688539Y-103053934D01*
X155591461Y-103053934D01*
X155489661Y-102784421D01*
X155191523Y-102638537D01*
X154870654Y-102553620D01*
X154539383Y-102532934D01*
X154210443Y-102577272D01*
X153896473Y-102684931D01*
X153710339Y-102784421D01*
X153608539Y-103053934D01*
X150511461Y-103053934D01*
X150409661Y-102784421D01*
X150111523Y-102638537D01*
X149790654Y-102553620D01*
X149459383Y-102532934D01*
X149130443Y-102577272D01*
X148816473Y-102684931D01*
X148630339Y-102784421D01*
X148528539Y-103053934D01*
X136985863Y-103053934D01*
X136909110Y-102668075D01*
X136740631Y-102261331D01*
X136496038Y-101895271D01*
X136184729Y-101583962D01*
X135818669Y-101339369D01*
X135411925Y-101170890D01*
X134980128Y-101085000D01*
X134539872Y-101085000D01*
X134108075Y-101170890D01*
X133701331Y-101339369D01*
X133335271Y-101583962D01*
X133023962Y-101895271D01*
X132779369Y-102261331D01*
X132610890Y-102668075D01*
X132525000Y-103099872D01*
X129420000Y-103099872D01*
X129420000Y-94070000D01*
X132871928Y-94070000D01*
X132871928Y-96570000D01*
X132884188Y-96694482D01*
X132920498Y-96814180D01*
X132979463Y-96924494D01*
X133058815Y-97021185D01*
X133155506Y-97100537D01*
X133265820Y-97159502D01*
X133385518Y-97195812D01*
X133510000Y-97208072D01*
X136010000Y-97208072D01*
X136134482Y-97195812D01*
X136254180Y-97159502D01*
X136364494Y-97100537D01*
X136461185Y-97021185D01*
X136540537Y-96924494D01*
X136599502Y-96814180D01*
X136635812Y-96694482D01*
X136648072Y-96570000D01*
X136648072Y-96080000D01*
X138767678Y-96080000D01*
X138805000Y-96083676D01*
X138842322Y-96080000D01*
X138842333Y-96080000D01*
X138953986Y-96069003D01*
X139097247Y-96025546D01*
X139229276Y-95954974D01*
X139345001Y-95860001D01*
X139368804Y-95830997D01*
X145364803Y-89835000D01*
X145426939Y-89835000D01*
X145626898Y-89795226D01*
X145815256Y-89717205D01*
X145984774Y-89603937D01*
X146065000Y-89523711D01*
X146065000Y-89676939D01*
X146104774Y-89876898D01*
X146182795Y-90065256D01*
X146296063Y-90234774D01*
X146440226Y-90378937D01*
X146609744Y-90492205D01*
X146798102Y-90570226D01*
X146998061Y-90610000D01*
X147201939Y-90610000D01*
X147401898Y-90570226D01*
X147590256Y-90492205D01*
X147759774Y-90378937D01*
X147803711Y-90335000D01*
X157687678Y-90335000D01*
X157725000Y-90338676D01*
X157762322Y-90335000D01*
X157762333Y-90335000D01*
X157873986Y-90324003D01*
X158017247Y-90280546D01*
X158149276Y-90209974D01*
X158265001Y-90115001D01*
X158288804Y-90085997D01*
X161061004Y-87313798D01*
X161090001Y-87290001D01*
X161184974Y-87174276D01*
X161255546Y-87042247D01*
X161299003Y-86898986D01*
X161310000Y-86787333D01*
X161310000Y-86787324D01*
X161313676Y-86750001D01*
X161310000Y-86712678D01*
X161310000Y-85903711D01*
X161353937Y-85859774D01*
X161467205Y-85690256D01*
X161545226Y-85501898D01*
X161585000Y-85301939D01*
X161585000Y-85098061D01*
X161545226Y-84898102D01*
X161467205Y-84709744D01*
X161353937Y-84540226D01*
X161209774Y-84396063D01*
X161040256Y-84282795D01*
X160997570Y-84265114D01*
X161035000Y-84076939D01*
X161035000Y-83873061D01*
X160995226Y-83673102D01*
X160917205Y-83484744D01*
X160803937Y-83315226D01*
X160659774Y-83171063D01*
X160490256Y-83057795D01*
X160301898Y-82979774D01*
X160101939Y-82940000D01*
X159898061Y-82940000D01*
X159698102Y-82979774D01*
X159509744Y-83057795D01*
X159340226Y-83171063D01*
X159296289Y-83215000D01*
X157314802Y-83215000D01*
X156420824Y-82321023D01*
X156409974Y-82300724D01*
X156315001Y-82184999D01*
X156199276Y-82090026D01*
X156067247Y-82019454D01*
X155923986Y-81975997D01*
X155812333Y-81965000D01*
X155775000Y-81961323D01*
X155737667Y-81965000D01*
X153537323Y-81965000D01*
X153500000Y-81961324D01*
X153462677Y-81965000D01*
X153462667Y-81965000D01*
X153351014Y-81975997D01*
X153207753Y-82019454D01*
X153075724Y-82090026D01*
X152959999Y-82184999D01*
X152936201Y-82213997D01*
X152310199Y-82840000D01*
X148178711Y-82840000D01*
X148134774Y-82796063D01*
X147965256Y-82682795D01*
X147776898Y-82604774D01*
X147576939Y-82565000D01*
X147373061Y-82565000D01*
X147173102Y-82604774D01*
X146984744Y-82682795D01*
X146815226Y-82796063D01*
X146671063Y-82940226D01*
X146557795Y-83109744D01*
X146479774Y-83298102D01*
X146440000Y-83498061D01*
X146440000Y-83701939D01*
X146479774Y-83901898D01*
X146557795Y-84090256D01*
X146630065Y-84198416D01*
X146598102Y-84204774D01*
X146409744Y-84282795D01*
X146240226Y-84396063D01*
X146096063Y-84540226D01*
X145982795Y-84709744D01*
X145904774Y-84898102D01*
X145865000Y-85098061D01*
X145865000Y-85301939D01*
X145904774Y-85501898D01*
X145982795Y-85690256D01*
X146096063Y-85859774D01*
X146240226Y-86003937D01*
X146409744Y-86117205D01*
X146598102Y-86195226D01*
X146798061Y-86235000D01*
X147001939Y-86235000D01*
X147201898Y-86195226D01*
X147390256Y-86117205D01*
X147559774Y-86003937D01*
X147603711Y-85960000D01*
X152937678Y-85960000D01*
X152975000Y-85963676D01*
X153012322Y-85960000D01*
X153012333Y-85960000D01*
X153123986Y-85949003D01*
X153267247Y-85905546D01*
X153399276Y-85834974D01*
X153515001Y-85740001D01*
X153538804Y-85710997D01*
X153878748Y-85371054D01*
X153904774Y-85501898D01*
X153982795Y-85690256D01*
X154096063Y-85859774D01*
X154240226Y-86003937D01*
X154409744Y-86117205D01*
X154598102Y-86195226D01*
X154798061Y-86235000D01*
X155001939Y-86235000D01*
X155201898Y-86195226D01*
X155390256Y-86117205D01*
X155559774Y-86003937D01*
X155703937Y-85859774D01*
X155817205Y-85690256D01*
X155895226Y-85501898D01*
X155935000Y-85301939D01*
X155935000Y-85098061D01*
X155895226Y-84898102D01*
X155817205Y-84709744D01*
X155703937Y-84540226D01*
X155614562Y-84450851D01*
X155684774Y-84403937D01*
X155828937Y-84259774D01*
X155942205Y-84090256D01*
X155970982Y-84020783D01*
X156436201Y-84486003D01*
X156459999Y-84515001D01*
X156560611Y-84597571D01*
X156575724Y-84609974D01*
X156707753Y-84680546D01*
X156851014Y-84724003D01*
X157000000Y-84738677D01*
X157037333Y-84735000D01*
X159296289Y-84735000D01*
X159340226Y-84778937D01*
X159509744Y-84892205D01*
X159552430Y-84909886D01*
X159515000Y-85098061D01*
X159515000Y-85301939D01*
X159554774Y-85501898D01*
X159632795Y-85690256D01*
X159746063Y-85859774D01*
X159790001Y-85903712D01*
X159790000Y-86435198D01*
X157410199Y-88815000D01*
X147803711Y-88815000D01*
X147759774Y-88771063D01*
X147590256Y-88657795D01*
X147401898Y-88579774D01*
X147201939Y-88540000D01*
X146998061Y-88540000D01*
X146798102Y-88579774D01*
X146609744Y-88657795D01*
X146440226Y-88771063D01*
X146360000Y-88851289D01*
X146360000Y-88698061D01*
X146320226Y-88498102D01*
X146242205Y-88309744D01*
X146128937Y-88140226D01*
X145984774Y-87996063D01*
X145815256Y-87882795D01*
X145626898Y-87804774D01*
X145426939Y-87765000D01*
X145223061Y-87765000D01*
X145023102Y-87804774D01*
X144834744Y-87882795D01*
X144665226Y-87996063D01*
X144521063Y-88140226D01*
X144407795Y-88309744D01*
X144329774Y-88498102D01*
X144290000Y-88698061D01*
X144290000Y-88760197D01*
X138490199Y-94560000D01*
X136648072Y-94560000D01*
X136648072Y-94070000D01*
X136635812Y-93945518D01*
X136599502Y-93825820D01*
X136540537Y-93715506D01*
X136461185Y-93618815D01*
X136364494Y-93539463D01*
X136254180Y-93480498D01*
X136134482Y-93444188D01*
X136010000Y-93431928D01*
X133510000Y-93431928D01*
X133385518Y-93444188D01*
X133265820Y-93480498D01*
X133155506Y-93539463D01*
X133058815Y-93618815D01*
X132979463Y-93715506D01*
X132920498Y-93825820D01*
X132884188Y-93945518D01*
X132871928Y-94070000D01*
X129420000Y-94070000D01*
X129420000Y-90054344D01*
X132875000Y-90054344D01*
X132875000Y-90425656D01*
X132947439Y-90789834D01*
X133089534Y-91132882D01*
X133295825Y-91441618D01*
X133558382Y-91704175D01*
X133867118Y-91910466D01*
X134210166Y-92052561D01*
X134574344Y-92125000D01*
X134945656Y-92125000D01*
X135309834Y-92052561D01*
X135652882Y-91910466D01*
X135961618Y-91704175D01*
X136224175Y-91441618D01*
X136430466Y-91132882D01*
X136572561Y-90789834D01*
X136645000Y-90425656D01*
X136645000Y-90054344D01*
X136572561Y-89690166D01*
X136430466Y-89347118D01*
X136224175Y-89038382D01*
X135961618Y-88775825D01*
X135652882Y-88569534D01*
X135309834Y-88427439D01*
X134945656Y-88355000D01*
X134574344Y-88355000D01*
X134210166Y-88427439D01*
X133867118Y-88569534D01*
X133558382Y-88775825D01*
X133295825Y-89038382D01*
X133089534Y-89347118D01*
X132947439Y-89690166D01*
X132875000Y-90054344D01*
X129420000Y-90054344D01*
X129420000Y-84974344D01*
X132875000Y-84974344D01*
X132875000Y-85345656D01*
X132947439Y-85709834D01*
X133089534Y-86052882D01*
X133295825Y-86361618D01*
X133558382Y-86624175D01*
X133867118Y-86830466D01*
X134210166Y-86972561D01*
X134574344Y-87045000D01*
X134945656Y-87045000D01*
X135309834Y-86972561D01*
X135652882Y-86830466D01*
X135961618Y-86624175D01*
X136224175Y-86361618D01*
X136430466Y-86052882D01*
X136572561Y-85709834D01*
X136645000Y-85345656D01*
X136645000Y-84974344D01*
X136572561Y-84610166D01*
X136517519Y-84477283D01*
X137434802Y-83560000D01*
X144021289Y-83560000D01*
X144065226Y-83603937D01*
X144234744Y-83717205D01*
X144423102Y-83795226D01*
X144623061Y-83835000D01*
X144826939Y-83835000D01*
X145026898Y-83795226D01*
X145215256Y-83717205D01*
X145384774Y-83603937D01*
X145528937Y-83459774D01*
X145642205Y-83290256D01*
X145720226Y-83101898D01*
X145760000Y-82901939D01*
X145760000Y-82698061D01*
X145720226Y-82498102D01*
X145642205Y-82309744D01*
X145629565Y-82290827D01*
X145684774Y-82253937D01*
X145828937Y-82109774D01*
X145942205Y-81940256D01*
X146020226Y-81751898D01*
X146060000Y-81551939D01*
X146060000Y-81348061D01*
X146056708Y-81331509D01*
X146186196Y-81460997D01*
X146209999Y-81490001D01*
X146325724Y-81584974D01*
X146457753Y-81655546D01*
X146601014Y-81699003D01*
X146712667Y-81710000D01*
X146712675Y-81710000D01*
X146750000Y-81713676D01*
X146787325Y-81710000D01*
X160462678Y-81710000D01*
X160500000Y-81713676D01*
X160537322Y-81710000D01*
X160537333Y-81710000D01*
X160648986Y-81699003D01*
X160792247Y-81655546D01*
X160924276Y-81584974D01*
X161040001Y-81490001D01*
X161063804Y-81460998D01*
X162052120Y-80472682D01*
X162071915Y-80457500D01*
X162104922Y-80419880D01*
X162113799Y-80411003D01*
X162129554Y-80391805D01*
X162170649Y-80344967D01*
X162176962Y-80334038D01*
X162184973Y-80324277D01*
X162214362Y-80269296D01*
X162245533Y-80215335D01*
X162249593Y-80203385D01*
X162255546Y-80192247D01*
X162273642Y-80132590D01*
X162293687Y-80073584D01*
X162295338Y-80061066D01*
X162299002Y-80048987D01*
X162305110Y-79986976D01*
X162308357Y-79962354D01*
X162308771Y-79949805D01*
X162313676Y-79900001D01*
X162311231Y-79875177D01*
X162361436Y-78352275D01*
X162428937Y-78284774D01*
X162542205Y-78115256D01*
X162620226Y-77926898D01*
X162660000Y-77726939D01*
X162660000Y-77523061D01*
X162620226Y-77323102D01*
X162542205Y-77134744D01*
X162428937Y-76965226D01*
X162284774Y-76821063D01*
X162115256Y-76707795D01*
X161926898Y-76629774D01*
X161726939Y-76590000D01*
X161523061Y-76590000D01*
X161485000Y-76597571D01*
X161485000Y-75328711D01*
X161528937Y-75284774D01*
X161642205Y-75115256D01*
X161720226Y-74926898D01*
X161760000Y-74726939D01*
X161760000Y-74523061D01*
X161720226Y-74323102D01*
X161642205Y-74134744D01*
X161528937Y-73965226D01*
X161384774Y-73821063D01*
X161215256Y-73707795D01*
X161026898Y-73629774D01*
X160826939Y-73590000D01*
X160623061Y-73590000D01*
X160423102Y-73629774D01*
X160234744Y-73707795D01*
X160065226Y-73821063D01*
X159921063Y-73965226D01*
X159807795Y-74134744D01*
X159729774Y-74323102D01*
X159690000Y-74523061D01*
X159690000Y-74726939D01*
X159729774Y-74926898D01*
X159807795Y-75115256D01*
X159921063Y-75284774D01*
X159965000Y-75328711D01*
X159965001Y-78549299D01*
X159857795Y-78709744D01*
X159779774Y-78898102D01*
X159740000Y-79098061D01*
X159740000Y-79301939D01*
X159779774Y-79501898D01*
X159857795Y-79690256D01*
X159971063Y-79859774D01*
X160115226Y-80003937D01*
X160268708Y-80106490D01*
X160185199Y-80190000D01*
X156164799Y-80190000D01*
X156170226Y-80176898D01*
X156210000Y-79976939D01*
X156210000Y-79773061D01*
X156170226Y-79573102D01*
X156092205Y-79384744D01*
X155978937Y-79215226D01*
X155935000Y-79171289D01*
X155935000Y-77503711D01*
X155978937Y-77459774D01*
X156092205Y-77290256D01*
X156170226Y-77101898D01*
X156210000Y-76901939D01*
X156210000Y-76698061D01*
X156170226Y-76498102D01*
X156092205Y-76309744D01*
X155978937Y-76140226D01*
X155834774Y-75996063D01*
X155665256Y-75882795D01*
X155476898Y-75804774D01*
X155276939Y-75765000D01*
X155073061Y-75765000D01*
X154885000Y-75802407D01*
X154885000Y-72062322D01*
X154888676Y-72024999D01*
X154885000Y-71987676D01*
X154885000Y-71987667D01*
X154874003Y-71876014D01*
X154830546Y-71732753D01*
X154759974Y-71600724D01*
X154665001Y-71484999D01*
X154636003Y-71461202D01*
X154213803Y-71039002D01*
X154190001Y-71009999D01*
X154074276Y-70915026D01*
X153942247Y-70844454D01*
X153798986Y-70800997D01*
X153687333Y-70790000D01*
X153687322Y-70790000D01*
X153650000Y-70786324D01*
X153612678Y-70790000D01*
X147978711Y-70790000D01*
X147934774Y-70746063D01*
X147765256Y-70632795D01*
X147576898Y-70554774D01*
X147376939Y-70515000D01*
X147173061Y-70515000D01*
X146973102Y-70554774D01*
X146784744Y-70632795D01*
X146615226Y-70746063D01*
X146471063Y-70890226D01*
X146357795Y-71059744D01*
X146279774Y-71248102D01*
X146240000Y-71448061D01*
X146240000Y-71651939D01*
X146279774Y-71851898D01*
X146357795Y-72040256D01*
X146471063Y-72209774D01*
X146615226Y-72353937D01*
X146784744Y-72467205D01*
X146973102Y-72545226D01*
X147173061Y-72585000D01*
X147376939Y-72585000D01*
X147576898Y-72545226D01*
X147765256Y-72467205D01*
X147934774Y-72353937D01*
X147978711Y-72310000D01*
X153335199Y-72310000D01*
X153365000Y-72339802D01*
X153365000Y-72767598D01*
X153351939Y-72765000D01*
X153148061Y-72765000D01*
X152948102Y-72804774D01*
X152759744Y-72882795D01*
X152590226Y-72996063D01*
X152446063Y-73140226D01*
X152332795Y-73309744D01*
X152254774Y-73498102D01*
X152215000Y-73698061D01*
X152215000Y-73901939D01*
X152254774Y-74101898D01*
X152332795Y-74290256D01*
X152446063Y-74459774D01*
X152490001Y-74503712D01*
X152490000Y-78087677D01*
X152486324Y-78125000D01*
X152490000Y-78162322D01*
X152490000Y-78162332D01*
X152500997Y-78273985D01*
X152515884Y-78323061D01*
X152544454Y-78417246D01*
X152615026Y-78549276D01*
X152645330Y-78586201D01*
X152709999Y-78665001D01*
X152739002Y-78688803D01*
X153015000Y-78964801D01*
X153015000Y-79026939D01*
X153054774Y-79226898D01*
X153132795Y-79415256D01*
X153246063Y-79584774D01*
X153390226Y-79728937D01*
X153559744Y-79842205D01*
X153748102Y-79920226D01*
X153948061Y-79960000D01*
X154140000Y-79960000D01*
X154140000Y-79976939D01*
X154179774Y-80176898D01*
X154185201Y-80190000D01*
X147085000Y-80190000D01*
X147085000Y-79903711D01*
X147128937Y-79859774D01*
X147242205Y-79690256D01*
X147320226Y-79501898D01*
X147360000Y-79301939D01*
X147360000Y-79098061D01*
X147320226Y-78898102D01*
X147242205Y-78709744D01*
X147128937Y-78540226D01*
X146984774Y-78396063D01*
X146815256Y-78282795D01*
X146626898Y-78204774D01*
X146426939Y-78165000D01*
X146223061Y-78165000D01*
X146023102Y-78204774D01*
X145834744Y-78282795D01*
X145785000Y-78316033D01*
X145785000Y-78303711D01*
X145828937Y-78259774D01*
X145942205Y-78090256D01*
X146020226Y-77901898D01*
X146060000Y-77701939D01*
X146060000Y-77498061D01*
X146020226Y-77298102D01*
X145942205Y-77109744D01*
X145828937Y-76940226D01*
X145684774Y-76796063D01*
X145515256Y-76682795D01*
X145326898Y-76604774D01*
X145126939Y-76565000D01*
X144923061Y-76565000D01*
X144723102Y-76604774D01*
X144534744Y-76682795D01*
X144365226Y-76796063D01*
X144221063Y-76940226D01*
X144107795Y-77109744D01*
X144029774Y-77298102D01*
X143990000Y-77498061D01*
X143990000Y-77701939D01*
X144029774Y-77901898D01*
X144107795Y-78090256D01*
X144221063Y-78259774D01*
X144265001Y-78303712D01*
X144265000Y-80746289D01*
X144221063Y-80790226D01*
X144107795Y-80959744D01*
X144029774Y-81148102D01*
X143990000Y-81348061D01*
X143990000Y-81551939D01*
X144029774Y-81751898D01*
X144107795Y-81940256D01*
X144120435Y-81959173D01*
X144065226Y-81996063D01*
X144021289Y-82040000D01*
X137157322Y-82040000D01*
X137119999Y-82036324D01*
X137082677Y-82040000D01*
X137082667Y-82040000D01*
X136971014Y-82050997D01*
X136827753Y-82094454D01*
X136695723Y-82165026D01*
X136612083Y-82233668D01*
X136579999Y-82259999D01*
X136556201Y-82288997D01*
X135442717Y-83402481D01*
X135309834Y-83347439D01*
X134945656Y-83275000D01*
X134574344Y-83275000D01*
X134210166Y-83347439D01*
X133867118Y-83489534D01*
X133558382Y-83695825D01*
X133295825Y-83958382D01*
X133089534Y-84267118D01*
X132947439Y-84610166D01*
X132875000Y-84974344D01*
X129420000Y-84974344D01*
X129420000Y-79894344D01*
X132875000Y-79894344D01*
X132875000Y-80265656D01*
X132947439Y-80629834D01*
X133089534Y-80972882D01*
X133295825Y-81281618D01*
X133558382Y-81544175D01*
X133867118Y-81750466D01*
X134210166Y-81892561D01*
X134574344Y-81965000D01*
X134945656Y-81965000D01*
X135309834Y-81892561D01*
X135652882Y-81750466D01*
X135961618Y-81544175D01*
X136224175Y-81281618D01*
X136430466Y-80972882D01*
X136572561Y-80629834D01*
X136645000Y-80265656D01*
X136645000Y-79894344D01*
X136572561Y-79530166D01*
X136430466Y-79187118D01*
X136224175Y-78878382D01*
X135961618Y-78615825D01*
X135652882Y-78409534D01*
X135309834Y-78267439D01*
X134945656Y-78195000D01*
X134574344Y-78195000D01*
X134210166Y-78267439D01*
X133867118Y-78409534D01*
X133558382Y-78615825D01*
X133295825Y-78878382D01*
X133089534Y-79187118D01*
X132947439Y-79530166D01*
X132875000Y-79894344D01*
X129420000Y-79894344D01*
X129420000Y-74814344D01*
X132875000Y-74814344D01*
X132875000Y-75185656D01*
X132947439Y-75549834D01*
X133089534Y-75892882D01*
X133295825Y-76201618D01*
X133558382Y-76464175D01*
X133867118Y-76670466D01*
X134210166Y-76812561D01*
X134574344Y-76885000D01*
X134945656Y-76885000D01*
X135309834Y-76812561D01*
X135652882Y-76670466D01*
X135961618Y-76464175D01*
X136224175Y-76201618D01*
X136430466Y-75892882D01*
X136572561Y-75549834D01*
X136645000Y-75185656D01*
X136645000Y-74814344D01*
X136572561Y-74450166D01*
X136430466Y-74107118D01*
X136224175Y-73798382D01*
X135961618Y-73535825D01*
X135652882Y-73329534D01*
X135309834Y-73187439D01*
X134945656Y-73115000D01*
X134574344Y-73115000D01*
X134210166Y-73187439D01*
X133867118Y-73329534D01*
X133558382Y-73535825D01*
X133295825Y-73798382D01*
X133089534Y-74107118D01*
X132947439Y-74450166D01*
X132875000Y-74814344D01*
X129420000Y-74814344D01*
X129420000Y-69734344D01*
X132875000Y-69734344D01*
X132875000Y-70105656D01*
X132947439Y-70469834D01*
X133089534Y-70812882D01*
X133295825Y-71121618D01*
X133558382Y-71384175D01*
X133867118Y-71590466D01*
X134210166Y-71732561D01*
X134574344Y-71805000D01*
X134945656Y-71805000D01*
X135309834Y-71732561D01*
X135652882Y-71590466D01*
X135961618Y-71384175D01*
X136224175Y-71121618D01*
X136396572Y-70863607D01*
X141315000Y-75782036D01*
X141315001Y-77721288D01*
X141271063Y-77765226D01*
X141157795Y-77934744D01*
X141079774Y-78123102D01*
X141040000Y-78323061D01*
X141040000Y-78526939D01*
X141079774Y-78726898D01*
X141157795Y-78915256D01*
X141271063Y-79084774D01*
X141415226Y-79228937D01*
X141584744Y-79342205D01*
X141773102Y-79420226D01*
X141973061Y-79460000D01*
X142176939Y-79460000D01*
X142376898Y-79420226D01*
X142565256Y-79342205D01*
X142734774Y-79228937D01*
X142878937Y-79084774D01*
X142992205Y-78915256D01*
X143070226Y-78726898D01*
X143110000Y-78526939D01*
X143110000Y-78323061D01*
X143070226Y-78123102D01*
X142992205Y-77934744D01*
X142878937Y-77765226D01*
X142835000Y-77721289D01*
X142835000Y-75504567D01*
X142838677Y-75467234D01*
X142824003Y-75318248D01*
X142780546Y-75174987D01*
X142709974Y-75042958D01*
X142638799Y-74956231D01*
X142615001Y-74927233D01*
X142586004Y-74903436D01*
X137091570Y-69409003D01*
X137067767Y-69379999D01*
X136952042Y-69285026D01*
X136820013Y-69214454D01*
X136676752Y-69170997D01*
X136565099Y-69160000D01*
X136565088Y-69160000D01*
X136527766Y-69156324D01*
X136490444Y-69160000D01*
X136485507Y-69160000D01*
X136430466Y-69027118D01*
X136224175Y-68718382D01*
X135961618Y-68455825D01*
X135652882Y-68249534D01*
X135309834Y-68107439D01*
X134945656Y-68035000D01*
X134574344Y-68035000D01*
X134210166Y-68107439D01*
X133867118Y-68249534D01*
X133558382Y-68455825D01*
X133295825Y-68718382D01*
X133089534Y-69027118D01*
X132947439Y-69370166D01*
X132875000Y-69734344D01*
X129420000Y-69734344D01*
X129420000Y-64654344D01*
X132875000Y-64654344D01*
X132875000Y-65025656D01*
X132947439Y-65389834D01*
X133089534Y-65732882D01*
X133295825Y-66041618D01*
X133558382Y-66304175D01*
X133867118Y-66510466D01*
X134210166Y-66652561D01*
X134574344Y-66725000D01*
X134945656Y-66725000D01*
X135309834Y-66652561D01*
X135652882Y-66510466D01*
X135961618Y-66304175D01*
X136224175Y-66041618D01*
X136430466Y-65732882D01*
X136572561Y-65389834D01*
X136645000Y-65025656D01*
X136645000Y-64654344D01*
X136572561Y-64290166D01*
X136430466Y-63947118D01*
X136224175Y-63638382D01*
X135961618Y-63375825D01*
X135652882Y-63169534D01*
X135309834Y-63027439D01*
X134945656Y-62955000D01*
X134574344Y-62955000D01*
X134210166Y-63027439D01*
X133867118Y-63169534D01*
X133558382Y-63375825D01*
X133295825Y-63638382D01*
X133089534Y-63947118D01*
X132947439Y-64290166D01*
X132875000Y-64654344D01*
X129420000Y-64654344D01*
X129420000Y-59574344D01*
X132875000Y-59574344D01*
X132875000Y-59945656D01*
X132947439Y-60309834D01*
X133089534Y-60652882D01*
X133295825Y-60961618D01*
X133558382Y-61224175D01*
X133867118Y-61430466D01*
X134210166Y-61572561D01*
X134574344Y-61645000D01*
X134945656Y-61645000D01*
X135309834Y-61572561D01*
X135442718Y-61517519D01*
X143390001Y-69464803D01*
X143390000Y-71696289D01*
X143346063Y-71740226D01*
X143232795Y-71909744D01*
X143154774Y-72098102D01*
X143115000Y-72298061D01*
X143115000Y-72501939D01*
X143154774Y-72701898D01*
X143232795Y-72890256D01*
X143346063Y-73059774D01*
X143490226Y-73203937D01*
X143659744Y-73317205D01*
X143848102Y-73395226D01*
X144048061Y-73435000D01*
X144251939Y-73435000D01*
X144451898Y-73395226D01*
X144640256Y-73317205D01*
X144809774Y-73203937D01*
X144953937Y-73059774D01*
X145067205Y-72890256D01*
X145145226Y-72701898D01*
X145185000Y-72501939D01*
X145185000Y-72298061D01*
X145145226Y-72098102D01*
X145067205Y-71909744D01*
X144953937Y-71740226D01*
X144910000Y-71696289D01*
X144910000Y-69187322D01*
X144913676Y-69149999D01*
X144910000Y-69112676D01*
X144910000Y-69112667D01*
X144899003Y-69001014D01*
X144855546Y-68857753D01*
X144784974Y-68725724D01*
X144690001Y-68609999D01*
X144661003Y-68586201D01*
X136517519Y-60442718D01*
X136572561Y-60309834D01*
X136645000Y-59945656D01*
X136645000Y-59574344D01*
X136572561Y-59210166D01*
X136430466Y-58867118D01*
X136224175Y-58558382D01*
X135961618Y-58295825D01*
X135652882Y-58089534D01*
X135309834Y-57947439D01*
X134945656Y-57875000D01*
X134574344Y-57875000D01*
X134210166Y-57947439D01*
X133867118Y-58089534D01*
X133558382Y-58295825D01*
X133295825Y-58558382D01*
X133089534Y-58867118D01*
X132947439Y-59210166D01*
X132875000Y-59574344D01*
X129420000Y-59574344D01*
X129420000Y-54494344D01*
X132875000Y-54494344D01*
X132875000Y-54865656D01*
X132947439Y-55229834D01*
X133089534Y-55572882D01*
X133295825Y-55881618D01*
X133558382Y-56144175D01*
X133867118Y-56350466D01*
X134210166Y-56492561D01*
X134574344Y-56565000D01*
X134945656Y-56565000D01*
X135309834Y-56492561D01*
X135652882Y-56350466D01*
X135961618Y-56144175D01*
X136224175Y-55881618D01*
X136430466Y-55572882D01*
X136572561Y-55229834D01*
X136645000Y-54865656D01*
X136645000Y-54494344D01*
X136572561Y-54130166D01*
X136430466Y-53787118D01*
X136224175Y-53478382D01*
X135961618Y-53215825D01*
X135652882Y-53009534D01*
X135309834Y-52867439D01*
X134945656Y-52795000D01*
X134574344Y-52795000D01*
X134210166Y-52867439D01*
X133867118Y-53009534D01*
X133558382Y-53215825D01*
X133295825Y-53478382D01*
X133089534Y-53787118D01*
X132947439Y-54130166D01*
X132875000Y-54494344D01*
X129420000Y-54494344D01*
X129420000Y-50913605D01*
X133626000Y-50913605D01*
X133751914Y-51203577D01*
X134084126Y-51369433D01*
X134442312Y-51467290D01*
X134812706Y-51493389D01*
X135181075Y-51446725D01*
X135533262Y-51329094D01*
X135768086Y-51203577D01*
X135894000Y-50913605D01*
X134760000Y-49779605D01*
X133626000Y-50913605D01*
X129420000Y-50913605D01*
X129420000Y-49652706D01*
X132866611Y-49652706D01*
X132913275Y-50021075D01*
X133030906Y-50373262D01*
X133156423Y-50608086D01*
X133446395Y-50734000D01*
X134580395Y-49600000D01*
X134939605Y-49600000D01*
X136073605Y-50734000D01*
X136363577Y-50608086D01*
X136529433Y-50275874D01*
X136627290Y-49917688D01*
X136653389Y-49547294D01*
X136606725Y-49178925D01*
X136489094Y-48826738D01*
X136363577Y-48591914D01*
X136073605Y-48466000D01*
X134939605Y-49600000D01*
X134580395Y-49600000D01*
X133446395Y-48466000D01*
X133156423Y-48591914D01*
X132990567Y-48924126D01*
X132892710Y-49282312D01*
X132866611Y-49652706D01*
X129420000Y-49652706D01*
X129420000Y-48286395D01*
X133626000Y-48286395D01*
X134760000Y-49420395D01*
X135894000Y-48286395D01*
X135768086Y-47996423D01*
X135435874Y-47830567D01*
X135077688Y-47732710D01*
X134707294Y-47706611D01*
X134338925Y-47753275D01*
X133986738Y-47870906D01*
X133751914Y-47996423D01*
X133626000Y-48286395D01*
X129420000Y-48286395D01*
X129420000Y-44334344D01*
X132875000Y-44334344D01*
X132875000Y-44705656D01*
X132947439Y-45069834D01*
X133089534Y-45412882D01*
X133295825Y-45721618D01*
X133558382Y-45984175D01*
X133867118Y-46190466D01*
X134210166Y-46332561D01*
X134574344Y-46405000D01*
X134945656Y-46405000D01*
X135309834Y-46332561D01*
X135652882Y-46190466D01*
X135961618Y-45984175D01*
X136224175Y-45721618D01*
X136430466Y-45412882D01*
X136437906Y-45394921D01*
X136497116Y-45412882D01*
X136533781Y-45424004D01*
X136682767Y-45438678D01*
X136720100Y-45435001D01*
X161596992Y-45435001D01*
X161599701Y-45435268D01*
X161759744Y-45542205D01*
X161948102Y-45620226D01*
X162148061Y-45660000D01*
X162351939Y-45660000D01*
X162551898Y-45620226D01*
X162740256Y-45542205D01*
X162909774Y-45428937D01*
X163053937Y-45284774D01*
X163167205Y-45115256D01*
X163245226Y-44926898D01*
X163285000Y-44726939D01*
X163285000Y-44523061D01*
X163245226Y-44323102D01*
X163167205Y-44134744D01*
X163053937Y-43965226D01*
X162909774Y-43821063D01*
X162740256Y-43707795D01*
X162551898Y-43629774D01*
X162351939Y-43590000D01*
X162148061Y-43590000D01*
X161948102Y-43629774D01*
X161759744Y-43707795D01*
X161590226Y-43821063D01*
X161535276Y-43876013D01*
X161406748Y-43915001D01*
X149923710Y-43915001D01*
X150028937Y-43809774D01*
X150142205Y-43640256D01*
X150220226Y-43451898D01*
X150260000Y-43251939D01*
X150260000Y-43048061D01*
X150220226Y-42848102D01*
X150142205Y-42659744D01*
X150028937Y-42490226D01*
X149985000Y-42446289D01*
X149985000Y-41703711D01*
X150028937Y-41659774D01*
X150142205Y-41490256D01*
X150220226Y-41301898D01*
X150260000Y-41101939D01*
X150260000Y-40898061D01*
X150220226Y-40698102D01*
X150142205Y-40509744D01*
X150028937Y-40340226D01*
X149884774Y-40196063D01*
X149715256Y-40082795D01*
X149526898Y-40004774D01*
X149326939Y-39965000D01*
X149123061Y-39965000D01*
X148923102Y-40004774D01*
X148734744Y-40082795D01*
X148565226Y-40196063D01*
X148421063Y-40340226D01*
X148307795Y-40509744D01*
X148229774Y-40698102D01*
X148190000Y-40898061D01*
X148190000Y-41101939D01*
X148229774Y-41301898D01*
X148307795Y-41490256D01*
X148421063Y-41659774D01*
X148465000Y-41703711D01*
X148465001Y-42446288D01*
X148421063Y-42490226D01*
X148307795Y-42659744D01*
X148229774Y-42848102D01*
X148190000Y-43048061D01*
X148190000Y-43251939D01*
X148229774Y-43451898D01*
X148307795Y-43640256D01*
X148421063Y-43809774D01*
X148526290Y-43915001D01*
X147685000Y-43915001D01*
X147685000Y-43848061D01*
X147645226Y-43648102D01*
X147567205Y-43459744D01*
X147453937Y-43290226D01*
X147410000Y-43246289D01*
X147410000Y-33023061D01*
X157040000Y-33023061D01*
X157040000Y-33226939D01*
X157079774Y-33426898D01*
X157157795Y-33615256D01*
X157271063Y-33784774D01*
X157315000Y-33828711D01*
X157315001Y-40321288D01*
X157296063Y-40340226D01*
X157182795Y-40509744D01*
X157104774Y-40698102D01*
X157065000Y-40898061D01*
X157065000Y-41101939D01*
X157104774Y-41301898D01*
X157182795Y-41490256D01*
X157296063Y-41659774D01*
X157440226Y-41803937D01*
X157609744Y-41917205D01*
X157798102Y-41995226D01*
X157998061Y-42035000D01*
X158201939Y-42035000D01*
X158401898Y-41995226D01*
X158590256Y-41917205D01*
X158759774Y-41803937D01*
X158903937Y-41659774D01*
X159017205Y-41490256D01*
X159095226Y-41301898D01*
X159135000Y-41101939D01*
X159135000Y-40898061D01*
X159095226Y-40698102D01*
X159017205Y-40509744D01*
X158903937Y-40340226D01*
X158835000Y-40271289D01*
X158835000Y-33828711D01*
X158878937Y-33784774D01*
X158992205Y-33615256D01*
X159070226Y-33426898D01*
X159110000Y-33226939D01*
X159110000Y-33023061D01*
X159070226Y-32823102D01*
X158992205Y-32634744D01*
X158878937Y-32465226D01*
X158734774Y-32321063D01*
X158565256Y-32207795D01*
X158376898Y-32129774D01*
X158176939Y-32090000D01*
X157973061Y-32090000D01*
X157773102Y-32129774D01*
X157584744Y-32207795D01*
X157415226Y-32321063D01*
X157271063Y-32465226D01*
X157157795Y-32634744D01*
X157079774Y-32823102D01*
X157040000Y-33023061D01*
X147410000Y-33023061D01*
X147410000Y-28963681D01*
X147466408Y-29009974D01*
X147598438Y-29080546D01*
X147741699Y-29124003D01*
X147853352Y-29135000D01*
X147853361Y-29135000D01*
X147890684Y-29138676D01*
X147928007Y-29135000D01*
X169410199Y-29135000D01*
X175591201Y-35316003D01*
X175614999Y-35345001D01*
X175730724Y-35439974D01*
X175862753Y-35510546D01*
X176006014Y-35554003D01*
X176117667Y-35565000D01*
X176117676Y-35565000D01*
X176154999Y-35568676D01*
X176192322Y-35565000D01*
X178781957Y-35565000D01*
X178885363Y-35719759D01*
X179085241Y-35919637D01*
X179317759Y-36075000D01*
X179085241Y-36230363D01*
X178885363Y-36430241D01*
X178728320Y-36665273D01*
X178620147Y-36926426D01*
X178565000Y-37203665D01*
X178565000Y-37486335D01*
X178620147Y-37763574D01*
X178728320Y-38024727D01*
X178885363Y-38259759D01*
X179085241Y-38459637D01*
X179317759Y-38615000D01*
X179085241Y-38770363D01*
X178885363Y-38970241D01*
X178728320Y-39205273D01*
X178620147Y-39466426D01*
X178565000Y-39743665D01*
X178565000Y-40026335D01*
X178620147Y-40303574D01*
X178728320Y-40564727D01*
X178885363Y-40799759D01*
X179085241Y-40999637D01*
X179317759Y-41155000D01*
X179085241Y-41310363D01*
X178885363Y-41510241D01*
X178728320Y-41745273D01*
X178620147Y-42006426D01*
X178565000Y-42283665D01*
X178565000Y-42566335D01*
X178601312Y-42748886D01*
X176364003Y-44986196D01*
X176334999Y-45009999D01*
X176293964Y-45060001D01*
X176240026Y-45125724D01*
X176169455Y-45257753D01*
X176169454Y-45257754D01*
X176125997Y-45401015D01*
X176115000Y-45512668D01*
X176115000Y-45512678D01*
X176111324Y-45550000D01*
X176115000Y-45587322D01*
X176115001Y-89446288D01*
X176071063Y-89490226D01*
X175957795Y-89659744D01*
X175879774Y-89848102D01*
X175840000Y-90048061D01*
X175840000Y-90251939D01*
X175879774Y-90451898D01*
X175957795Y-90640256D01*
X176071063Y-90809774D01*
X176215226Y-90953937D01*
X176384744Y-91067205D01*
X176573102Y-91145226D01*
X176773061Y-91185000D01*
X176976939Y-91185000D01*
X177176898Y-91145226D01*
X177365256Y-91067205D01*
X177534774Y-90953937D01*
X177678937Y-90809774D01*
X177792205Y-90640256D01*
X177870226Y-90451898D01*
X177910000Y-90251939D01*
X177910000Y-90048061D01*
X177870226Y-89848102D01*
X177792205Y-89659744D01*
X177678937Y-89490226D01*
X177635000Y-89446289D01*
X177635000Y-45864801D01*
X178565000Y-44934802D01*
X178565000Y-45106335D01*
X178620147Y-45383574D01*
X178728320Y-45644727D01*
X178885363Y-45879759D01*
X179085241Y-46079637D01*
X179317759Y-46235000D01*
X179085241Y-46390363D01*
X178885363Y-46590241D01*
X178728320Y-46825273D01*
X178620147Y-47086426D01*
X178565000Y-47363665D01*
X178565000Y-47646335D01*
X178620147Y-47923574D01*
X178728320Y-48184727D01*
X178885363Y-48419759D01*
X179085241Y-48619637D01*
X179317759Y-48775000D01*
X179085241Y-48930363D01*
X178885363Y-49130241D01*
X178728320Y-49365273D01*
X178620147Y-49626426D01*
X178565000Y-49903665D01*
X178565000Y-50186335D01*
X178620147Y-50463574D01*
X178728320Y-50724727D01*
X178885363Y-50959759D01*
X179085241Y-51159637D01*
X179317759Y-51315000D01*
X179085241Y-51470363D01*
X178885363Y-51670241D01*
X178728320Y-51905273D01*
X178620147Y-52166426D01*
X178565000Y-52443665D01*
X178565000Y-52726335D01*
X178620147Y-53003574D01*
X178728320Y-53264727D01*
X178885363Y-53499759D01*
X179085241Y-53699637D01*
X179317759Y-53855000D01*
X179085241Y-54010363D01*
X178885363Y-54210241D01*
X178728320Y-54445273D01*
X178620147Y-54706426D01*
X178565000Y-54983665D01*
X178565000Y-55266335D01*
X178620147Y-55543574D01*
X178728320Y-55804727D01*
X178885363Y-56039759D01*
X179085241Y-56239637D01*
X179317759Y-56395000D01*
X179085241Y-56550363D01*
X178885363Y-56750241D01*
X178728320Y-56985273D01*
X178620147Y-57246426D01*
X178565000Y-57523665D01*
X178565000Y-57806335D01*
X178620147Y-58083574D01*
X178728320Y-58344727D01*
X178885363Y-58579759D01*
X179085241Y-58779637D01*
X179320273Y-58936680D01*
X179330865Y-58941067D01*
X179144869Y-59052615D01*
X178936481Y-59241586D01*
X178768963Y-59467580D01*
X178648754Y-59721913D01*
X178608096Y-59855961D01*
X178730085Y-60078000D01*
X179873000Y-60078000D01*
X179873000Y-60058000D01*
X180127000Y-60058000D01*
X180127000Y-60078000D01*
X180147000Y-60078000D01*
X180147000Y-60332000D01*
X180127000Y-60332000D01*
X180127000Y-60352000D01*
X179873000Y-60352000D01*
X179873000Y-60332000D01*
X178730085Y-60332000D01*
X178608096Y-60554039D01*
X178648754Y-60688087D01*
X178768963Y-60942420D01*
X178936481Y-61168414D01*
X179144869Y-61357385D01*
X179330865Y-61468933D01*
X179320273Y-61473320D01*
X179085241Y-61630363D01*
X178885363Y-61830241D01*
X178728320Y-62065273D01*
X178620147Y-62326426D01*
X178565000Y-62603665D01*
X178565000Y-62886335D01*
X178620147Y-63163574D01*
X178728320Y-63424727D01*
X178885363Y-63659759D01*
X179085241Y-63859637D01*
X179317759Y-64015000D01*
X179085241Y-64170363D01*
X178885363Y-64370241D01*
X178728320Y-64605273D01*
X178620147Y-64866426D01*
X178565000Y-65143665D01*
X178565000Y-65426335D01*
X178620147Y-65703574D01*
X178728320Y-65964727D01*
X178885363Y-66199759D01*
X179083961Y-66398357D01*
X179075518Y-66399188D01*
X178955820Y-66435498D01*
X178845506Y-66494463D01*
X178748815Y-66573815D01*
X178669463Y-66670506D01*
X178610498Y-66780820D01*
X178574188Y-66900518D01*
X178561928Y-67025000D01*
X178561928Y-68625000D01*
X178574188Y-68749482D01*
X178610498Y-68869180D01*
X178669463Y-68979494D01*
X178748815Y-69076185D01*
X178845506Y-69155537D01*
X178955820Y-69214502D01*
X179075518Y-69250812D01*
X179200000Y-69263072D01*
X180800000Y-69263072D01*
X180924482Y-69250812D01*
X181044180Y-69214502D01*
X181154494Y-69155537D01*
X181251185Y-69076185D01*
X181290000Y-69028888D01*
X181290001Y-95910197D01*
X179489003Y-97711196D01*
X179459999Y-97734999D01*
X179404871Y-97802174D01*
X179365026Y-97850724D01*
X179339420Y-97898629D01*
X179294454Y-97982754D01*
X179250997Y-98126015D01*
X179240000Y-98237668D01*
X179240000Y-98237678D01*
X179236324Y-98275000D01*
X179240000Y-98312323D01*
X179240001Y-102715971D01*
X179201853Y-102731772D01*
X178925875Y-102916175D01*
X178691175Y-103150875D01*
X178506772Y-103426853D01*
X178379754Y-103733504D01*
X178315000Y-104059042D01*
X178315000Y-104390958D01*
X178379754Y-104716496D01*
X178506772Y-105023147D01*
X178691175Y-105299125D01*
X178925875Y-105533825D01*
X179201853Y-105718228D01*
X179508504Y-105845246D01*
X179834042Y-105910000D01*
X180165958Y-105910000D01*
X180491496Y-105845246D01*
X180798147Y-105718228D01*
X181074125Y-105533825D01*
X181308825Y-105299125D01*
X181493228Y-105023147D01*
X181620246Y-104716496D01*
X181685000Y-104390958D01*
X181685000Y-104059042D01*
X183395000Y-104059042D01*
X183395000Y-104390958D01*
X183459754Y-104716496D01*
X183586772Y-105023147D01*
X183771175Y-105299125D01*
X184005875Y-105533825D01*
X184281853Y-105718228D01*
X184588504Y-105845246D01*
X184914042Y-105910000D01*
X185245958Y-105910000D01*
X185571496Y-105845246D01*
X185878147Y-105718228D01*
X186154125Y-105533825D01*
X186388825Y-105299125D01*
X186573228Y-105023147D01*
X186700246Y-104716496D01*
X186765000Y-104390958D01*
X186765000Y-104059042D01*
X188475000Y-104059042D01*
X188475000Y-104390958D01*
X188539754Y-104716496D01*
X188666772Y-105023147D01*
X188851175Y-105299125D01*
X189085875Y-105533825D01*
X189361853Y-105718228D01*
X189668504Y-105845246D01*
X189994042Y-105910000D01*
X190325958Y-105910000D01*
X190651496Y-105845246D01*
X190958147Y-105718228D01*
X191234125Y-105533825D01*
X191468825Y-105299125D01*
X191653228Y-105023147D01*
X191780246Y-104716496D01*
X191845000Y-104390958D01*
X191845000Y-104059042D01*
X191780246Y-103733504D01*
X191653228Y-103426853D01*
X191484945Y-103175000D01*
X193551928Y-103175000D01*
X193551928Y-105275000D01*
X193564188Y-105399482D01*
X193600498Y-105519180D01*
X193659463Y-105629494D01*
X193738815Y-105726185D01*
X193835506Y-105805537D01*
X193945820Y-105864502D01*
X194065518Y-105900812D01*
X194190000Y-105913072D01*
X196290000Y-105913072D01*
X196414482Y-105900812D01*
X196534180Y-105864502D01*
X196644494Y-105805537D01*
X196741185Y-105726185D01*
X196820537Y-105629494D01*
X196879502Y-105519180D01*
X196915812Y-105399482D01*
X196928072Y-105275000D01*
X196928072Y-103175000D01*
X196920673Y-103099872D01*
X207765000Y-103099872D01*
X207765000Y-103540128D01*
X207850890Y-103971925D01*
X208019369Y-104378669D01*
X208263962Y-104744729D01*
X208575271Y-105056038D01*
X208941331Y-105300631D01*
X209348075Y-105469110D01*
X209779872Y-105555000D01*
X210220128Y-105555000D01*
X210651925Y-105469110D01*
X211058669Y-105300631D01*
X211424729Y-105056038D01*
X211736038Y-104744729D01*
X211980631Y-104378669D01*
X212149110Y-103971925D01*
X212235000Y-103540128D01*
X212235000Y-103099872D01*
X212149110Y-102668075D01*
X211980631Y-102261331D01*
X211736038Y-101895271D01*
X211424729Y-101583962D01*
X211058669Y-101339369D01*
X210651925Y-101170890D01*
X210220128Y-101085000D01*
X209779872Y-101085000D01*
X209348075Y-101170890D01*
X208941331Y-101339369D01*
X208575271Y-101583962D01*
X208263962Y-101895271D01*
X208019369Y-102261331D01*
X207850890Y-102668075D01*
X207765000Y-103099872D01*
X196920673Y-103099872D01*
X196915812Y-103050518D01*
X196879502Y-102930820D01*
X196820537Y-102820506D01*
X196741185Y-102723815D01*
X196644494Y-102644463D01*
X196534180Y-102585498D01*
X196414482Y-102549188D01*
X196290000Y-102536928D01*
X194190000Y-102536928D01*
X194065518Y-102549188D01*
X193945820Y-102585498D01*
X193835506Y-102644463D01*
X193738815Y-102723815D01*
X193659463Y-102820506D01*
X193600498Y-102930820D01*
X193564188Y-103050518D01*
X193551928Y-103175000D01*
X191484945Y-103175000D01*
X191468825Y-103150875D01*
X191234125Y-102916175D01*
X190958147Y-102731772D01*
X190651496Y-102604754D01*
X190325958Y-102540000D01*
X189994042Y-102540000D01*
X189668504Y-102604754D01*
X189361853Y-102731772D01*
X189085875Y-102916175D01*
X188851175Y-103150875D01*
X188666772Y-103426853D01*
X188539754Y-103733504D01*
X188475000Y-104059042D01*
X186765000Y-104059042D01*
X186700246Y-103733504D01*
X186573228Y-103426853D01*
X186388825Y-103150875D01*
X186154125Y-102916175D01*
X185878147Y-102731772D01*
X185571496Y-102604754D01*
X185245958Y-102540000D01*
X184914042Y-102540000D01*
X184588504Y-102604754D01*
X184281853Y-102731772D01*
X184005875Y-102916175D01*
X183771175Y-103150875D01*
X183586772Y-103426853D01*
X183459754Y-103733504D01*
X183395000Y-104059042D01*
X181685000Y-104059042D01*
X181620246Y-103733504D01*
X181493228Y-103426853D01*
X181308825Y-103150875D01*
X181074125Y-102916175D01*
X180798147Y-102731772D01*
X180760000Y-102715971D01*
X180760000Y-98589801D01*
X182561003Y-96788799D01*
X182590001Y-96765001D01*
X182684974Y-96649276D01*
X182755546Y-96517247D01*
X182799003Y-96373986D01*
X182810000Y-96262333D01*
X182810000Y-96262323D01*
X182813676Y-96225000D01*
X182810000Y-96187677D01*
X182810000Y-95134344D01*
X208115000Y-95134344D01*
X208115000Y-95505656D01*
X208187439Y-95869834D01*
X208329534Y-96212882D01*
X208535825Y-96521618D01*
X208798382Y-96784175D01*
X209107118Y-96990466D01*
X209450166Y-97132561D01*
X209814344Y-97205000D01*
X210185656Y-97205000D01*
X210549834Y-97132561D01*
X210892882Y-96990466D01*
X211201618Y-96784175D01*
X211464175Y-96521618D01*
X211670466Y-96212882D01*
X211812561Y-95869834D01*
X211885000Y-95505656D01*
X211885000Y-95134344D01*
X211812561Y-94770166D01*
X211670466Y-94427118D01*
X211464175Y-94118382D01*
X211201618Y-93855825D01*
X210892882Y-93649534D01*
X210549834Y-93507439D01*
X210185656Y-93435000D01*
X209814344Y-93435000D01*
X209450166Y-93507439D01*
X209107118Y-93649534D01*
X208798382Y-93855825D01*
X208535825Y-94118382D01*
X208329534Y-94427118D01*
X208187439Y-94770166D01*
X208115000Y-95134344D01*
X182810000Y-95134344D01*
X182810000Y-90054344D01*
X208115000Y-90054344D01*
X208115000Y-90425656D01*
X208187439Y-90789834D01*
X208329534Y-91132882D01*
X208535825Y-91441618D01*
X208798382Y-91704175D01*
X209107118Y-91910466D01*
X209450166Y-92052561D01*
X209814344Y-92125000D01*
X210185656Y-92125000D01*
X210549834Y-92052561D01*
X210892882Y-91910466D01*
X211201618Y-91704175D01*
X211464175Y-91441618D01*
X211670466Y-91132882D01*
X211812561Y-90789834D01*
X211885000Y-90425656D01*
X211885000Y-90054344D01*
X211812561Y-89690166D01*
X211670466Y-89347118D01*
X211464175Y-89038382D01*
X211201618Y-88775825D01*
X210892882Y-88569534D01*
X210549834Y-88427439D01*
X210185656Y-88355000D01*
X209814344Y-88355000D01*
X209450166Y-88427439D01*
X209107118Y-88569534D01*
X208798382Y-88775825D01*
X208535825Y-89038382D01*
X208329534Y-89347118D01*
X208187439Y-89690166D01*
X208115000Y-90054344D01*
X182810000Y-90054344D01*
X182810000Y-86473605D01*
X208866000Y-86473605D01*
X208991914Y-86763577D01*
X209324126Y-86929433D01*
X209682312Y-87027290D01*
X210052706Y-87053389D01*
X210421075Y-87006725D01*
X210773262Y-86889094D01*
X211008086Y-86763577D01*
X211134000Y-86473605D01*
X210000000Y-85339605D01*
X208866000Y-86473605D01*
X182810000Y-86473605D01*
X182810000Y-85212706D01*
X208106611Y-85212706D01*
X208153275Y-85581075D01*
X208270906Y-85933262D01*
X208396423Y-86168086D01*
X208686395Y-86294000D01*
X209820395Y-85160000D01*
X210179605Y-85160000D01*
X211313605Y-86294000D01*
X211603577Y-86168086D01*
X211769433Y-85835874D01*
X211867290Y-85477688D01*
X211893389Y-85107294D01*
X211846725Y-84738925D01*
X211729094Y-84386738D01*
X211603577Y-84151914D01*
X211313605Y-84026000D01*
X210179605Y-85160000D01*
X209820395Y-85160000D01*
X208686395Y-84026000D01*
X208396423Y-84151914D01*
X208230567Y-84484126D01*
X208132710Y-84842312D01*
X208106611Y-85212706D01*
X182810000Y-85212706D01*
X182810000Y-83846395D01*
X208866000Y-83846395D01*
X210000000Y-84980395D01*
X211134000Y-83846395D01*
X211008086Y-83556423D01*
X210675874Y-83390567D01*
X210317688Y-83292710D01*
X209947294Y-83266611D01*
X209578925Y-83313275D01*
X209226738Y-83430906D01*
X208991914Y-83556423D01*
X208866000Y-83846395D01*
X182810000Y-83846395D01*
X182810000Y-79894344D01*
X208115000Y-79894344D01*
X208115000Y-80265656D01*
X208187439Y-80629834D01*
X208329534Y-80972882D01*
X208535825Y-81281618D01*
X208798382Y-81544175D01*
X209107118Y-81750466D01*
X209450166Y-81892561D01*
X209814344Y-81965000D01*
X210185656Y-81965000D01*
X210549834Y-81892561D01*
X210892882Y-81750466D01*
X211201618Y-81544175D01*
X211464175Y-81281618D01*
X211670466Y-80972882D01*
X211812561Y-80629834D01*
X211885000Y-80265656D01*
X211885000Y-79894344D01*
X211812561Y-79530166D01*
X211670466Y-79187118D01*
X211464175Y-78878382D01*
X211201618Y-78615825D01*
X210892882Y-78409534D01*
X210549834Y-78267439D01*
X210185656Y-78195000D01*
X209814344Y-78195000D01*
X209450166Y-78267439D01*
X209107118Y-78409534D01*
X208798382Y-78615825D01*
X208535825Y-78878382D01*
X208329534Y-79187118D01*
X208187439Y-79530166D01*
X208115000Y-79894344D01*
X182810000Y-79894344D01*
X182810000Y-59752323D01*
X182813676Y-59715000D01*
X182810000Y-59677677D01*
X182810000Y-59677667D01*
X182799003Y-59566014D01*
X182755546Y-59422753D01*
X182684974Y-59290724D01*
X182590001Y-59174999D01*
X182561004Y-59151202D01*
X181398688Y-57988886D01*
X181435000Y-57806335D01*
X181435000Y-57523665D01*
X181379853Y-57246426D01*
X181271680Y-56985273D01*
X181114637Y-56750241D01*
X180914759Y-56550363D01*
X180682241Y-56395000D01*
X180914759Y-56239637D01*
X181114637Y-56039759D01*
X181271680Y-55804727D01*
X181379853Y-55543574D01*
X181435000Y-55266335D01*
X181435000Y-54983665D01*
X181379853Y-54706426D01*
X181271680Y-54445273D01*
X181114637Y-54210241D01*
X180914759Y-54010363D01*
X180858933Y-53973061D01*
X181265000Y-53973061D01*
X181265000Y-54176939D01*
X181304774Y-54376898D01*
X181382795Y-54565256D01*
X181496063Y-54734774D01*
X181640226Y-54878937D01*
X181809744Y-54992205D01*
X181998102Y-55070226D01*
X182198061Y-55110000D01*
X182401939Y-55110000D01*
X182601898Y-55070226D01*
X182790256Y-54992205D01*
X182959774Y-54878937D01*
X183003711Y-54835000D01*
X187910199Y-54835000D01*
X188490000Y-55414802D01*
X188490000Y-55476939D01*
X188529774Y-55676898D01*
X188607795Y-55865256D01*
X188721063Y-56034774D01*
X188865226Y-56178937D01*
X189027253Y-56287200D01*
X189022174Y-56299462D01*
X188982400Y-56499421D01*
X188982400Y-56703299D01*
X189022174Y-56903258D01*
X189100195Y-57091616D01*
X189213463Y-57261134D01*
X189326560Y-57374231D01*
X189276346Y-57407783D01*
X189132183Y-57551946D01*
X189018915Y-57721464D01*
X188940894Y-57909822D01*
X188901120Y-58109781D01*
X188901120Y-58313659D01*
X188940894Y-58513618D01*
X189018915Y-58701976D01*
X189132183Y-58871494D01*
X189276346Y-59015657D01*
X189445864Y-59128925D01*
X189634222Y-59206946D01*
X189834181Y-59246720D01*
X190038059Y-59246720D01*
X190238018Y-59206946D01*
X190426376Y-59128925D01*
X190595894Y-59015657D01*
X190639831Y-58971720D01*
X196812678Y-58971720D01*
X196850000Y-58975396D01*
X196887322Y-58971720D01*
X196887333Y-58971720D01*
X196998986Y-58960723D01*
X197142247Y-58917266D01*
X197274276Y-58846694D01*
X197390001Y-58751721D01*
X197413803Y-58722718D01*
X197697521Y-58439000D01*
X197759659Y-58439000D01*
X197959618Y-58399226D01*
X198147976Y-58321205D01*
X198317494Y-58207937D01*
X198461657Y-58063774D01*
X198574121Y-57895459D01*
X198574121Y-60157771D01*
X198513965Y-60012544D01*
X198400697Y-59843026D01*
X198256534Y-59698863D01*
X198087016Y-59585595D01*
X197898658Y-59507574D01*
X197698699Y-59467800D01*
X197494821Y-59467800D01*
X197294862Y-59507574D01*
X197106504Y-59585595D01*
X196936986Y-59698863D01*
X196893049Y-59742800D01*
X185612882Y-59742800D01*
X185057320Y-59187239D01*
X185057320Y-56888511D01*
X185101257Y-56844574D01*
X185214525Y-56675056D01*
X185292546Y-56486698D01*
X185332320Y-56286739D01*
X185332320Y-56082861D01*
X185292546Y-55882902D01*
X185214525Y-55694544D01*
X185101257Y-55525026D01*
X184957094Y-55380863D01*
X184787576Y-55267595D01*
X184599218Y-55189574D01*
X184399259Y-55149800D01*
X184195381Y-55149800D01*
X183995422Y-55189574D01*
X183807064Y-55267595D01*
X183637546Y-55380863D01*
X183493383Y-55525026D01*
X183380115Y-55694544D01*
X183302094Y-55882902D01*
X183262320Y-56082861D01*
X183262320Y-56286739D01*
X183284619Y-56398847D01*
X183254822Y-56404774D01*
X183066464Y-56482795D01*
X182896946Y-56596063D01*
X182752783Y-56740226D01*
X182639515Y-56909744D01*
X182561494Y-57098102D01*
X182521720Y-57298061D01*
X182521720Y-57501939D01*
X182561494Y-57701898D01*
X182639515Y-57890256D01*
X182752783Y-58059774D01*
X182896946Y-58203937D01*
X183066464Y-58317205D01*
X183254822Y-58395226D01*
X183454781Y-58435000D01*
X183537320Y-58435000D01*
X183537320Y-59464717D01*
X183533644Y-59502040D01*
X183537320Y-59539362D01*
X183537320Y-59539372D01*
X183548317Y-59651025D01*
X183579492Y-59753797D01*
X183591774Y-59794286D01*
X183662346Y-59926316D01*
X183692287Y-59962799D01*
X183757319Y-60042041D01*
X183786322Y-60065844D01*
X184734281Y-61013803D01*
X184758079Y-61042801D01*
X184873804Y-61137774D01*
X185005833Y-61208346D01*
X185149094Y-61251803D01*
X185260747Y-61262800D01*
X185260756Y-61262800D01*
X185298079Y-61266476D01*
X185335402Y-61262800D01*
X196893049Y-61262800D01*
X196936986Y-61306737D01*
X197106504Y-61420005D01*
X197294862Y-61498026D01*
X197494821Y-61537800D01*
X197698699Y-61537800D01*
X197898658Y-61498026D01*
X198087016Y-61420005D01*
X198256534Y-61306737D01*
X198400697Y-61162574D01*
X198513965Y-60993056D01*
X198574120Y-60847829D01*
X198574120Y-62684529D01*
X198530183Y-62728466D01*
X198416915Y-62897984D01*
X198338894Y-63086342D01*
X198299120Y-63286301D01*
X198299120Y-63490179D01*
X198338894Y-63690138D01*
X198416915Y-63878496D01*
X198530183Y-64048014D01*
X198674346Y-64192177D01*
X198843864Y-64305445D01*
X199032222Y-64383466D01*
X199232181Y-64423240D01*
X199436059Y-64423240D01*
X199636018Y-64383466D01*
X199824376Y-64305445D01*
X199993894Y-64192177D01*
X200138057Y-64048014D01*
X200251325Y-63878496D01*
X200329346Y-63690138D01*
X200363837Y-63516738D01*
X200530822Y-63585906D01*
X200730781Y-63625680D01*
X200792919Y-63625680D01*
X201195400Y-64028162D01*
X201195401Y-71905628D01*
X201191724Y-71942960D01*
X201195401Y-71980293D01*
X201206398Y-72091946D01*
X201219580Y-72135402D01*
X201249854Y-72235206D01*
X201320426Y-72367236D01*
X201391601Y-72453962D01*
X201415400Y-72482961D01*
X201444398Y-72506759D01*
X204448645Y-75511008D01*
X204472439Y-75540001D01*
X204501432Y-75563795D01*
X204501436Y-75563799D01*
X204565312Y-75616220D01*
X204588164Y-75634974D01*
X204720193Y-75705546D01*
X204863454Y-75749003D01*
X204975107Y-75760000D01*
X204975116Y-75760000D01*
X205012439Y-75763676D01*
X205049762Y-75760000D01*
X208274493Y-75760000D01*
X208329534Y-75892882D01*
X208535825Y-76201618D01*
X208798382Y-76464175D01*
X209107118Y-76670466D01*
X209450166Y-76812561D01*
X209814344Y-76885000D01*
X210185656Y-76885000D01*
X210549834Y-76812561D01*
X210892882Y-76670466D01*
X211201618Y-76464175D01*
X211464175Y-76201618D01*
X211670466Y-75892882D01*
X211812561Y-75549834D01*
X211885000Y-75185656D01*
X211885000Y-74814344D01*
X211812561Y-74450166D01*
X211670466Y-74107118D01*
X211464175Y-73798382D01*
X211201618Y-73535825D01*
X210892882Y-73329534D01*
X210549834Y-73187439D01*
X210185656Y-73115000D01*
X209814344Y-73115000D01*
X209450166Y-73187439D01*
X209107118Y-73329534D01*
X208798382Y-73535825D01*
X208535825Y-73798382D01*
X208329534Y-74107118D01*
X208274493Y-74240000D01*
X205327243Y-74240000D01*
X202715400Y-71628159D01*
X202715400Y-69734344D01*
X208115000Y-69734344D01*
X208115000Y-70105656D01*
X208187439Y-70469834D01*
X208329534Y-70812882D01*
X208535825Y-71121618D01*
X208798382Y-71384175D01*
X209107118Y-71590466D01*
X209450166Y-71732561D01*
X209814344Y-71805000D01*
X210185656Y-71805000D01*
X210549834Y-71732561D01*
X210892882Y-71590466D01*
X211201618Y-71384175D01*
X211464175Y-71121618D01*
X211670466Y-70812882D01*
X211812561Y-70469834D01*
X211885000Y-70105656D01*
X211885000Y-69734344D01*
X211812561Y-69370166D01*
X211670466Y-69027118D01*
X211464175Y-68718382D01*
X211201618Y-68455825D01*
X210892882Y-68249534D01*
X210549834Y-68107439D01*
X210185656Y-68035000D01*
X209814344Y-68035000D01*
X209450166Y-68107439D01*
X209107118Y-68249534D01*
X208798382Y-68455825D01*
X208535825Y-68718382D01*
X208329534Y-69027118D01*
X208187439Y-69370166D01*
X208115000Y-69734344D01*
X202715400Y-69734344D01*
X202715400Y-63750682D01*
X202719076Y-63713359D01*
X202715400Y-63676036D01*
X202715400Y-63676027D01*
X202704403Y-63564374D01*
X202660946Y-63421113D01*
X202590374Y-63289084D01*
X202495401Y-63173359D01*
X202466404Y-63149562D01*
X201867720Y-62550879D01*
X201867720Y-62488741D01*
X201827946Y-62288782D01*
X201749925Y-62100424D01*
X201636657Y-61930906D01*
X201492494Y-61786743D01*
X201322976Y-61673475D01*
X201134618Y-61595454D01*
X200934659Y-61555680D01*
X200730781Y-61555680D01*
X200530822Y-61595454D01*
X200342464Y-61673475D01*
X200172946Y-61786743D01*
X200094120Y-61865569D01*
X200094120Y-57050173D01*
X200097797Y-57012840D01*
X200083123Y-56863854D01*
X200039666Y-56720593D01*
X200027832Y-56698454D01*
X199969094Y-56588564D01*
X199895937Y-56499421D01*
X202322480Y-56499421D01*
X202322480Y-56703299D01*
X202362254Y-56903258D01*
X202440275Y-57091616D01*
X202553543Y-57261134D01*
X202582240Y-57289831D01*
X202582241Y-61623708D01*
X202578564Y-61661040D01*
X202593238Y-61810025D01*
X202636694Y-61953286D01*
X202707266Y-62085316D01*
X202773814Y-62166404D01*
X202802240Y-62201041D01*
X202831238Y-62224839D01*
X205957401Y-65351003D01*
X205981199Y-65380001D01*
X206096924Y-65474974D01*
X206228953Y-65545546D01*
X206372214Y-65589003D01*
X206483867Y-65600000D01*
X206483876Y-65600000D01*
X206521199Y-65603676D01*
X206558522Y-65600000D01*
X208274493Y-65600000D01*
X208329534Y-65732882D01*
X208535825Y-66041618D01*
X208798382Y-66304175D01*
X209107118Y-66510466D01*
X209450166Y-66652561D01*
X209814344Y-66725000D01*
X210185656Y-66725000D01*
X210549834Y-66652561D01*
X210892882Y-66510466D01*
X211201618Y-66304175D01*
X211464175Y-66041618D01*
X211670466Y-65732882D01*
X211812561Y-65389834D01*
X211885000Y-65025656D01*
X211885000Y-64654344D01*
X211812561Y-64290166D01*
X211670466Y-63947118D01*
X211464175Y-63638382D01*
X211201618Y-63375825D01*
X210892882Y-63169534D01*
X210549834Y-63027439D01*
X210185656Y-62955000D01*
X209814344Y-62955000D01*
X209450166Y-63027439D01*
X209107118Y-63169534D01*
X208798382Y-63375825D01*
X208535825Y-63638382D01*
X208329534Y-63947118D01*
X208274493Y-64080000D01*
X206836002Y-64080000D01*
X204102240Y-61346239D01*
X204102240Y-59574344D01*
X208115000Y-59574344D01*
X208115000Y-59945656D01*
X208187439Y-60309834D01*
X208329534Y-60652882D01*
X208535825Y-60961618D01*
X208798382Y-61224175D01*
X209107118Y-61430466D01*
X209450166Y-61572561D01*
X209814344Y-61645000D01*
X210185656Y-61645000D01*
X210549834Y-61572561D01*
X210892882Y-61430466D01*
X211201618Y-61224175D01*
X211464175Y-60961618D01*
X211670466Y-60652882D01*
X211812561Y-60309834D01*
X211885000Y-59945656D01*
X211885000Y-59574344D01*
X211812561Y-59210166D01*
X211670466Y-58867118D01*
X211464175Y-58558382D01*
X211201618Y-58295825D01*
X210892882Y-58089534D01*
X210549834Y-57947439D01*
X210185656Y-57875000D01*
X209814344Y-57875000D01*
X209450166Y-57947439D01*
X209107118Y-58089534D01*
X208798382Y-58295825D01*
X208535825Y-58558382D01*
X208329534Y-58867118D01*
X208187439Y-59210166D01*
X208115000Y-59574344D01*
X204102240Y-59574344D01*
X204102240Y-57330019D01*
X204106467Y-57316084D01*
X204161417Y-57261134D01*
X204274685Y-57091616D01*
X204352706Y-56903258D01*
X204392480Y-56703299D01*
X204392480Y-56499421D01*
X204352706Y-56299462D01*
X204274685Y-56111104D01*
X204161417Y-55941586D01*
X204017254Y-55797423D01*
X203847736Y-55684155D01*
X203659378Y-55606134D01*
X203459419Y-55566360D01*
X203255541Y-55566360D01*
X203055582Y-55606134D01*
X202867224Y-55684155D01*
X202697706Y-55797423D01*
X202553543Y-55941586D01*
X202440275Y-56111104D01*
X202362254Y-56299462D01*
X202322480Y-56499421D01*
X199895937Y-56499421D01*
X199874121Y-56472839D01*
X199845117Y-56449036D01*
X199486444Y-56090363D01*
X199462641Y-56061359D01*
X199346916Y-55966386D01*
X199214887Y-55895814D01*
X199071626Y-55852357D01*
X198959973Y-55841360D01*
X198959962Y-55841360D01*
X198922640Y-55837684D01*
X198885318Y-55841360D01*
X192162162Y-55841360D01*
X192181026Y-55795818D01*
X192220800Y-55595859D01*
X192220800Y-55391981D01*
X192181026Y-55192022D01*
X192103005Y-55003664D01*
X191989737Y-54834146D01*
X191915320Y-54759729D01*
X191915320Y-53745431D01*
X191959257Y-53701494D01*
X192072525Y-53531976D01*
X192150546Y-53343618D01*
X192190320Y-53143659D01*
X192190320Y-52939781D01*
X192189703Y-52936680D01*
X196893958Y-52936680D01*
X196931280Y-52940356D01*
X196968602Y-52936680D01*
X196968613Y-52936680D01*
X197080266Y-52925683D01*
X197223527Y-52882226D01*
X197355556Y-52811654D01*
X197471281Y-52716681D01*
X197495083Y-52687678D01*
X197722921Y-52459840D01*
X197785059Y-52459840D01*
X197985018Y-52420066D01*
X198173376Y-52342045D01*
X198342894Y-52228777D01*
X198487057Y-52084614D01*
X198600325Y-51915096D01*
X198678346Y-51726738D01*
X198718120Y-51526779D01*
X198718120Y-51322901D01*
X198678346Y-51122942D01*
X198600325Y-50934584D01*
X198487057Y-50765066D01*
X198342894Y-50620903D01*
X198323305Y-50607814D01*
X198353054Y-50587937D01*
X198451210Y-50489781D01*
X198664880Y-50489781D01*
X198664880Y-50693659D01*
X198704654Y-50893618D01*
X198782675Y-51081976D01*
X198895943Y-51251494D01*
X198939880Y-51295431D01*
X198939881Y-52627028D01*
X198936204Y-52664360D01*
X198950878Y-52813345D01*
X198994334Y-52956606D01*
X199064906Y-53088636D01*
X199110063Y-53143659D01*
X199159880Y-53204361D01*
X199188878Y-53228159D01*
X201151725Y-55191008D01*
X201175519Y-55220001D01*
X201204512Y-55243795D01*
X201204516Y-55243799D01*
X201262530Y-55291409D01*
X201291244Y-55314974D01*
X201423273Y-55385546D01*
X201566534Y-55429003D01*
X201678187Y-55440000D01*
X201678196Y-55440000D01*
X201715519Y-55443676D01*
X201752842Y-55440000D01*
X208274493Y-55440000D01*
X208329534Y-55572882D01*
X208535825Y-55881618D01*
X208798382Y-56144175D01*
X209107118Y-56350466D01*
X209450166Y-56492561D01*
X209814344Y-56565000D01*
X210185656Y-56565000D01*
X210549834Y-56492561D01*
X210892882Y-56350466D01*
X211201618Y-56144175D01*
X211464175Y-55881618D01*
X211670466Y-55572882D01*
X211812561Y-55229834D01*
X211885000Y-54865656D01*
X211885000Y-54494344D01*
X211812561Y-54130166D01*
X211670466Y-53787118D01*
X211464175Y-53478382D01*
X211201618Y-53215825D01*
X210892882Y-53009534D01*
X210549834Y-52867439D01*
X210185656Y-52795000D01*
X209814344Y-52795000D01*
X209450166Y-52867439D01*
X209107118Y-53009534D01*
X208798382Y-53215825D01*
X208535825Y-53478382D01*
X208329534Y-53787118D01*
X208274493Y-53920000D01*
X202030323Y-53920000D01*
X200459880Y-52349559D01*
X200459880Y-51295431D01*
X200503817Y-51251494D01*
X200617085Y-51081976D01*
X200695106Y-50893618D01*
X200734880Y-50693659D01*
X200734880Y-50489781D01*
X200695106Y-50289822D01*
X200617085Y-50101464D01*
X200503817Y-49931946D01*
X200359654Y-49787783D01*
X200190136Y-49674515D01*
X200001778Y-49596494D01*
X199801819Y-49556720D01*
X199597941Y-49556720D01*
X199397982Y-49596494D01*
X199209624Y-49674515D01*
X199040106Y-49787783D01*
X198895943Y-49931946D01*
X198782675Y-50101464D01*
X198704654Y-50289822D01*
X198664880Y-50489781D01*
X198451210Y-50489781D01*
X198497217Y-50443774D01*
X198610485Y-50274256D01*
X198688506Y-50085898D01*
X198728280Y-49885939D01*
X198728280Y-49682061D01*
X198688506Y-49482102D01*
X198660440Y-49414344D01*
X208115000Y-49414344D01*
X208115000Y-49785656D01*
X208187439Y-50149834D01*
X208329534Y-50492882D01*
X208535825Y-50801618D01*
X208798382Y-51064175D01*
X209107118Y-51270466D01*
X209450166Y-51412561D01*
X209814344Y-51485000D01*
X210185656Y-51485000D01*
X210549834Y-51412561D01*
X210892882Y-51270466D01*
X211201618Y-51064175D01*
X211464175Y-50801618D01*
X211670466Y-50492882D01*
X211812561Y-50149834D01*
X211885000Y-49785656D01*
X211885000Y-49414344D01*
X211812561Y-49050166D01*
X211670466Y-48707118D01*
X211464175Y-48398382D01*
X211201618Y-48135825D01*
X210892882Y-47929534D01*
X210549834Y-47787439D01*
X210185656Y-47715000D01*
X209814344Y-47715000D01*
X209450166Y-47787439D01*
X209107118Y-47929534D01*
X208798382Y-48135825D01*
X208535825Y-48398382D01*
X208329534Y-48707118D01*
X208187439Y-49050166D01*
X208115000Y-49414344D01*
X198660440Y-49414344D01*
X198610485Y-49293744D01*
X198497217Y-49124226D01*
X198353054Y-48980063D01*
X198183536Y-48866795D01*
X197995178Y-48788774D01*
X197795219Y-48749000D01*
X197591341Y-48749000D01*
X197391382Y-48788774D01*
X197203024Y-48866795D01*
X197033506Y-48980063D01*
X196978556Y-49035013D01*
X196835348Y-49078454D01*
X196703319Y-49149026D01*
X196587594Y-49243999D01*
X196563795Y-49272998D01*
X196284474Y-49552320D01*
X191792085Y-49552320D01*
X191754760Y-49548644D01*
X191717435Y-49552320D01*
X191717427Y-49552320D01*
X191605774Y-49563317D01*
X191462513Y-49606774D01*
X191330484Y-49677346D01*
X191214759Y-49772319D01*
X191190961Y-49801317D01*
X191087181Y-49905098D01*
X191087960Y-49901179D01*
X191087960Y-49697301D01*
X191048186Y-49497342D01*
X190970165Y-49308984D01*
X190856897Y-49139466D01*
X190812960Y-49095529D01*
X190812960Y-48295401D01*
X191489071Y-47619291D01*
X191590903Y-47771694D01*
X191735066Y-47915857D01*
X191904584Y-48029125D01*
X192092942Y-48107146D01*
X192292901Y-48146920D01*
X192496779Y-48146920D01*
X192696738Y-48107146D01*
X192885096Y-48029125D01*
X193054614Y-47915857D01*
X193098551Y-47871920D01*
X195654438Y-47871920D01*
X195691760Y-47875596D01*
X195729082Y-47871920D01*
X195729093Y-47871920D01*
X195840746Y-47860923D01*
X195984007Y-47817466D01*
X196116036Y-47746894D01*
X196231761Y-47651921D01*
X196255564Y-47622917D01*
X197443522Y-46434960D01*
X197505659Y-46434960D01*
X197705618Y-46395186D01*
X197893976Y-46317165D01*
X198063494Y-46203897D01*
X198176890Y-46090501D01*
X198588680Y-46090501D01*
X198588680Y-46294379D01*
X198628454Y-46494338D01*
X198706475Y-46682696D01*
X198819743Y-46852214D01*
X198963906Y-46996377D01*
X199133424Y-47109645D01*
X199321782Y-47187666D01*
X199521741Y-47227440D01*
X199725619Y-47227440D01*
X199925578Y-47187666D01*
X200113936Y-47109645D01*
X200283454Y-46996377D01*
X200427617Y-46852214D01*
X200540885Y-46682696D01*
X200618906Y-46494338D01*
X200658680Y-46294379D01*
X200658680Y-46090501D01*
X200618906Y-45890542D01*
X200540885Y-45702184D01*
X200427617Y-45532666D01*
X200383680Y-45488729D01*
X200383680Y-44334344D01*
X208115000Y-44334344D01*
X208115000Y-44705656D01*
X208187439Y-45069834D01*
X208329534Y-45412882D01*
X208535825Y-45721618D01*
X208798382Y-45984175D01*
X209107118Y-46190466D01*
X209450166Y-46332561D01*
X209814344Y-46405000D01*
X210185656Y-46405000D01*
X210549834Y-46332561D01*
X210892882Y-46190466D01*
X211201618Y-45984175D01*
X211464175Y-45721618D01*
X211670466Y-45412882D01*
X211812561Y-45069834D01*
X211885000Y-44705656D01*
X211885000Y-44334344D01*
X211812561Y-43970166D01*
X211670466Y-43627118D01*
X211464175Y-43318382D01*
X211201618Y-43055825D01*
X210892882Y-42849534D01*
X210549834Y-42707439D01*
X210185656Y-42635000D01*
X209814344Y-42635000D01*
X209450166Y-42707439D01*
X209107118Y-42849534D01*
X208798382Y-43055825D01*
X208535825Y-43318382D01*
X208329534Y-43627118D01*
X208187439Y-43970166D01*
X208115000Y-44334344D01*
X200383680Y-44334344D01*
X200383680Y-40262924D01*
X200395214Y-40255217D01*
X200539377Y-40111054D01*
X200652645Y-39941536D01*
X200730666Y-39753178D01*
X200770440Y-39553219D01*
X200770440Y-39349341D01*
X200730666Y-39149382D01*
X200652645Y-38961024D01*
X200539377Y-38791506D01*
X200395214Y-38647343D01*
X200225696Y-38534075D01*
X200037338Y-38456054D01*
X199837379Y-38416280D01*
X199633501Y-38416280D01*
X199433542Y-38456054D01*
X199245184Y-38534075D01*
X199075666Y-38647343D01*
X198931503Y-38791506D01*
X198818235Y-38961024D01*
X198740214Y-39149382D01*
X198700440Y-39349341D01*
X198700440Y-39553219D01*
X198740214Y-39753178D01*
X198818235Y-39941536D01*
X198863681Y-40009551D01*
X198863680Y-45488729D01*
X198819743Y-45532666D01*
X198706475Y-45702184D01*
X198628454Y-45890542D01*
X198588680Y-46090501D01*
X198176890Y-46090501D01*
X198207657Y-46059734D01*
X198320925Y-45890216D01*
X198398946Y-45701858D01*
X198438720Y-45501899D01*
X198438720Y-45298021D01*
X198398946Y-45098062D01*
X198320925Y-44909704D01*
X198207657Y-44740186D01*
X198112887Y-44645416D01*
X198205734Y-44583377D01*
X198349897Y-44439214D01*
X198463165Y-44269696D01*
X198541186Y-44081338D01*
X198580960Y-43881379D01*
X198580960Y-43677501D01*
X198541186Y-43477542D01*
X198463165Y-43289184D01*
X198349897Y-43119666D01*
X198205734Y-42975503D01*
X198036216Y-42862235D01*
X197847858Y-42784214D01*
X197647899Y-42744440D01*
X197444021Y-42744440D01*
X197244062Y-42784214D01*
X197055704Y-42862235D01*
X196886186Y-42975503D01*
X196831236Y-43030453D01*
X196688028Y-43073894D01*
X196555999Y-43144466D01*
X196555997Y-43144467D01*
X196555998Y-43144467D01*
X196469271Y-43215641D01*
X196469267Y-43215645D01*
X196440274Y-43239439D01*
X196416480Y-43268432D01*
X195761233Y-43923680D01*
X193387203Y-43923680D01*
X193349880Y-43920004D01*
X193312557Y-43923680D01*
X193312547Y-43923680D01*
X193200894Y-43934677D01*
X193057633Y-43978134D01*
X192925603Y-44048706D01*
X192841963Y-44117348D01*
X192809879Y-44143679D01*
X192786081Y-44172677D01*
X189541963Y-47416796D01*
X189512959Y-47440599D01*
X189460107Y-47505000D01*
X189417986Y-47556324D01*
X189369874Y-47646335D01*
X189347414Y-47688354D01*
X189303957Y-47831615D01*
X189292960Y-47943268D01*
X189292960Y-47943278D01*
X189289284Y-47980600D01*
X189292960Y-48017923D01*
X189292961Y-49095528D01*
X189249023Y-49139466D01*
X189135755Y-49308984D01*
X189057734Y-49497342D01*
X189017960Y-49697301D01*
X189017960Y-49901179D01*
X189057734Y-50101138D01*
X189135755Y-50289496D01*
X189249023Y-50459014D01*
X189393186Y-50603177D01*
X189562704Y-50716445D01*
X189751062Y-50794466D01*
X189819656Y-50808110D01*
X189755515Y-50904104D01*
X189677494Y-51092462D01*
X189637720Y-51292421D01*
X189637720Y-51416680D01*
X185811002Y-51416680D01*
X184956400Y-50562079D01*
X184956400Y-50499941D01*
X184916626Y-50299982D01*
X184838605Y-50111624D01*
X184725337Y-49942106D01*
X184581174Y-49797943D01*
X184561856Y-49785035D01*
X184665256Y-49742205D01*
X184834774Y-49628937D01*
X184978937Y-49484774D01*
X185092205Y-49315256D01*
X185170226Y-49126898D01*
X185210000Y-48926939D01*
X185210000Y-48723061D01*
X185170226Y-48523102D01*
X185092205Y-48334744D01*
X184978937Y-48165226D01*
X184834774Y-48021063D01*
X184665256Y-47907795D01*
X184476898Y-47829774D01*
X184276939Y-47790000D01*
X184073061Y-47790000D01*
X183873102Y-47829774D01*
X183684744Y-47907795D01*
X183515226Y-48021063D01*
X183371063Y-48165226D01*
X183257795Y-48334744D01*
X183179774Y-48523102D01*
X183140000Y-48723061D01*
X183140000Y-48926939D01*
X183179774Y-49126898D01*
X183257795Y-49315256D01*
X183371063Y-49484774D01*
X183515226Y-49628937D01*
X183534544Y-49641845D01*
X183431144Y-49684675D01*
X183261626Y-49797943D01*
X183117463Y-49942106D01*
X183004195Y-50111624D01*
X182926174Y-50299982D01*
X182886400Y-50499941D01*
X182886400Y-50703819D01*
X182926174Y-50903778D01*
X183004195Y-51092136D01*
X183117463Y-51261654D01*
X183261626Y-51405817D01*
X183431144Y-51519085D01*
X183619502Y-51597106D01*
X183819461Y-51636880D01*
X183881599Y-51636880D01*
X184932401Y-52687683D01*
X184956199Y-52716681D01*
X184985197Y-52740479D01*
X185071924Y-52811654D01*
X185203953Y-52882226D01*
X185347214Y-52925683D01*
X185496200Y-52940357D01*
X185533533Y-52936680D01*
X190120937Y-52936680D01*
X190120320Y-52939781D01*
X190120320Y-53143659D01*
X190160094Y-53343618D01*
X190238115Y-53531976D01*
X190351383Y-53701494D01*
X190395320Y-53745431D01*
X190395321Y-54814577D01*
X190328937Y-54715226D01*
X190184774Y-54571063D01*
X190015256Y-54457795D01*
X189826898Y-54379774D01*
X189626939Y-54340000D01*
X189564802Y-54340000D01*
X188788804Y-53564003D01*
X188765001Y-53534999D01*
X188649276Y-53440026D01*
X188517247Y-53369454D01*
X188373986Y-53325997D01*
X188262333Y-53315000D01*
X188262322Y-53315000D01*
X188225000Y-53311324D01*
X188187678Y-53315000D01*
X183003711Y-53315000D01*
X182959774Y-53271063D01*
X182790256Y-53157795D01*
X182601898Y-53079774D01*
X182401939Y-53040000D01*
X182198061Y-53040000D01*
X181998102Y-53079774D01*
X181809744Y-53157795D01*
X181640226Y-53271063D01*
X181496063Y-53415226D01*
X181382795Y-53584744D01*
X181304774Y-53773102D01*
X181265000Y-53973061D01*
X180858933Y-53973061D01*
X180682241Y-53855000D01*
X180914759Y-53699637D01*
X181114637Y-53499759D01*
X181271680Y-53264727D01*
X181379853Y-53003574D01*
X181435000Y-52726335D01*
X181435000Y-52443665D01*
X181379853Y-52166426D01*
X181271680Y-51905273D01*
X181114637Y-51670241D01*
X180914759Y-51470363D01*
X180682241Y-51315000D01*
X180914759Y-51159637D01*
X181114637Y-50959759D01*
X181271680Y-50724727D01*
X181379853Y-50463574D01*
X181435000Y-50186335D01*
X181435000Y-49903665D01*
X181379853Y-49626426D01*
X181271680Y-49365273D01*
X181114637Y-49130241D01*
X180914759Y-48930363D01*
X180682241Y-48775000D01*
X180914759Y-48619637D01*
X181114637Y-48419759D01*
X181271680Y-48184727D01*
X181379853Y-47923574D01*
X181435000Y-47646335D01*
X181435000Y-47363665D01*
X181379853Y-47086426D01*
X181271680Y-46825273D01*
X181114637Y-46590241D01*
X180914759Y-46390363D01*
X180682241Y-46235000D01*
X180914759Y-46079637D01*
X181114637Y-45879759D01*
X181271680Y-45644727D01*
X181379853Y-45383574D01*
X181435000Y-45106335D01*
X181435000Y-44823665D01*
X181379853Y-44546426D01*
X181271680Y-44285273D01*
X181114637Y-44050241D01*
X180914759Y-43850363D01*
X180682241Y-43695000D01*
X180914759Y-43539637D01*
X181114637Y-43339759D01*
X181271680Y-43104727D01*
X181379853Y-42843574D01*
X181435000Y-42566335D01*
X181435000Y-42283665D01*
X181379853Y-42006426D01*
X181271680Y-41745273D01*
X181114637Y-41510241D01*
X180914759Y-41310363D01*
X180682241Y-41155000D01*
X180914759Y-40999637D01*
X181114637Y-40799759D01*
X181271680Y-40564727D01*
X181379853Y-40303574D01*
X181435000Y-40026335D01*
X181435000Y-39743665D01*
X181379853Y-39466426D01*
X181271680Y-39205273D01*
X181114637Y-38970241D01*
X180914759Y-38770363D01*
X180682241Y-38615000D01*
X180914759Y-38459637D01*
X181114637Y-38259759D01*
X181161248Y-38190000D01*
X208111928Y-38190000D01*
X208111928Y-40690000D01*
X208124188Y-40814482D01*
X208160498Y-40934180D01*
X208219463Y-41044494D01*
X208298815Y-41141185D01*
X208395506Y-41220537D01*
X208505820Y-41279502D01*
X208625518Y-41315812D01*
X208750000Y-41328072D01*
X211250000Y-41328072D01*
X211374482Y-41315812D01*
X211494180Y-41279502D01*
X211604494Y-41220537D01*
X211701185Y-41141185D01*
X211780537Y-41044494D01*
X211839502Y-40934180D01*
X211875812Y-40814482D01*
X211888072Y-40690000D01*
X211888072Y-38190000D01*
X211875812Y-38065518D01*
X211839502Y-37945820D01*
X211780537Y-37835506D01*
X211701185Y-37738815D01*
X211604494Y-37659463D01*
X211494180Y-37600498D01*
X211374482Y-37564188D01*
X211250000Y-37551928D01*
X208750000Y-37551928D01*
X208625518Y-37564188D01*
X208505820Y-37600498D01*
X208395506Y-37659463D01*
X208298815Y-37738815D01*
X208219463Y-37835506D01*
X208160498Y-37945820D01*
X208124188Y-38065518D01*
X208111928Y-38190000D01*
X181161248Y-38190000D01*
X181271680Y-38024727D01*
X181379853Y-37763574D01*
X181435000Y-37486335D01*
X181435000Y-37203665D01*
X181379853Y-36926426D01*
X181271680Y-36665273D01*
X181114637Y-36430241D01*
X180914759Y-36230363D01*
X180682241Y-36075000D01*
X180914759Y-35919637D01*
X181114637Y-35719759D01*
X181271680Y-35484727D01*
X181379853Y-35223574D01*
X181435000Y-34946335D01*
X181435000Y-34663665D01*
X181379853Y-34386426D01*
X181271680Y-34125273D01*
X181114637Y-33890241D01*
X180914759Y-33690363D01*
X180682241Y-33535000D01*
X180914759Y-33379637D01*
X181114637Y-33179759D01*
X181271680Y-32944727D01*
X181379853Y-32683574D01*
X181435000Y-32406335D01*
X181435000Y-32123665D01*
X181379853Y-31846426D01*
X181271680Y-31585273D01*
X181114637Y-31350241D01*
X180984268Y-31219872D01*
X207765000Y-31219872D01*
X207765000Y-31660128D01*
X207850890Y-32091925D01*
X208019369Y-32498669D01*
X208263962Y-32864729D01*
X208575271Y-33176038D01*
X208941331Y-33420631D01*
X209348075Y-33589110D01*
X209779872Y-33675000D01*
X210220128Y-33675000D01*
X210651925Y-33589110D01*
X211058669Y-33420631D01*
X211424729Y-33176038D01*
X211736038Y-32864729D01*
X211980631Y-32498669D01*
X212149110Y-32091925D01*
X212235000Y-31660128D01*
X212235000Y-31219872D01*
X212149110Y-30788075D01*
X211980631Y-30381331D01*
X211736038Y-30015271D01*
X211424729Y-29703962D01*
X211058669Y-29459369D01*
X210651925Y-29290890D01*
X210220128Y-29205000D01*
X209779872Y-29205000D01*
X209348075Y-29290890D01*
X208941331Y-29459369D01*
X208575271Y-29703962D01*
X208263962Y-30015271D01*
X208019369Y-30381331D01*
X207850890Y-30788075D01*
X207765000Y-31219872D01*
X180984268Y-31219872D01*
X180914759Y-31150363D01*
X180679727Y-30993320D01*
X180418574Y-30885147D01*
X180141335Y-30830000D01*
X179858665Y-30830000D01*
X179581426Y-30885147D01*
X179320273Y-30993320D01*
X179085241Y-31150363D01*
X178885363Y-31350241D01*
X178728320Y-31585273D01*
X178620147Y-31846426D01*
X178565000Y-32123665D01*
X178565000Y-32406335D01*
X178620147Y-32683574D01*
X178728320Y-32944727D01*
X178885363Y-33179759D01*
X179085241Y-33379637D01*
X179317759Y-33535000D01*
X179085241Y-33690363D01*
X178885363Y-33890241D01*
X178781957Y-34045000D01*
X176469802Y-34045000D01*
X170288804Y-27864003D01*
X170265001Y-27834999D01*
X170149276Y-27740026D01*
X170017247Y-27669454D01*
X169873986Y-27625997D01*
X169762333Y-27615000D01*
X169762322Y-27615000D01*
X169725000Y-27611324D01*
X169687678Y-27615000D01*
X148205487Y-27615000D01*
X147779488Y-27189002D01*
X147755686Y-27159999D01*
X147639961Y-27065026D01*
X147507932Y-26994454D01*
X147364724Y-26951013D01*
X147309774Y-26896063D01*
X147140256Y-26782795D01*
X146951898Y-26704774D01*
X146751939Y-26665000D01*
X146548061Y-26665000D01*
X146348102Y-26704774D01*
X146159744Y-26782795D01*
X145990226Y-26896063D01*
X145846063Y-27040226D01*
X145732795Y-27209744D01*
X145654774Y-27398102D01*
X145615000Y-27598061D01*
X145615000Y-27801939D01*
X145654774Y-28001898D01*
X145732795Y-28190256D01*
X145846063Y-28359774D01*
X145890000Y-28403711D01*
X145890001Y-43246288D01*
X145846063Y-43290226D01*
X145732795Y-43459744D01*
X145654774Y-43648102D01*
X145615000Y-43848061D01*
X145615000Y-43915001D01*
X136988567Y-43915001D01*
X136952042Y-43885026D01*
X136820013Y-43814454D01*
X136676752Y-43770997D01*
X136565099Y-43760000D01*
X136565088Y-43760000D01*
X136527766Y-43756324D01*
X136490444Y-43760000D01*
X136485507Y-43760000D01*
X136430466Y-43627118D01*
X136224175Y-43318382D01*
X135961618Y-43055825D01*
X135652882Y-42849534D01*
X135309834Y-42707439D01*
X134945656Y-42635000D01*
X134574344Y-42635000D01*
X134210166Y-42707439D01*
X133867118Y-42849534D01*
X133558382Y-43055825D01*
X133295825Y-43318382D01*
X133089534Y-43627118D01*
X132947439Y-43970166D01*
X132875000Y-44334344D01*
X129420000Y-44334344D01*
X129420000Y-39254344D01*
X132875000Y-39254344D01*
X132875000Y-39625656D01*
X132947439Y-39989834D01*
X133089534Y-40332882D01*
X133295825Y-40641618D01*
X133558382Y-40904175D01*
X133867118Y-41110466D01*
X134210166Y-41252561D01*
X134574344Y-41325000D01*
X134945656Y-41325000D01*
X135309834Y-41252561D01*
X135652882Y-41110466D01*
X135961618Y-40904175D01*
X136224175Y-40641618D01*
X136430466Y-40332882D01*
X136572561Y-39989834D01*
X136645000Y-39625656D01*
X136645000Y-39254344D01*
X136572561Y-38890166D01*
X136430466Y-38547118D01*
X136224175Y-38238382D01*
X135961618Y-37975825D01*
X135652882Y-37769534D01*
X135309834Y-37627439D01*
X134945656Y-37555000D01*
X134574344Y-37555000D01*
X134210166Y-37627439D01*
X133867118Y-37769534D01*
X133558382Y-37975825D01*
X133295825Y-38238382D01*
X133089534Y-38547118D01*
X132947439Y-38890166D01*
X132875000Y-39254344D01*
X129420000Y-39254344D01*
X129420000Y-31219872D01*
X132525000Y-31219872D01*
X132525000Y-31660128D01*
X132610890Y-32091925D01*
X132779369Y-32498669D01*
X133023962Y-32864729D01*
X133335271Y-33176038D01*
X133701331Y-33420631D01*
X134108075Y-33589110D01*
X134539872Y-33675000D01*
X134980128Y-33675000D01*
X135411925Y-33589110D01*
X135818669Y-33420631D01*
X136184729Y-33176038D01*
X136496038Y-32864729D01*
X136740631Y-32498669D01*
X136909110Y-32091925D01*
X136995000Y-31660128D01*
X136995000Y-31219872D01*
X136909110Y-30788075D01*
X136740631Y-30381331D01*
X136496038Y-30015271D01*
X136184729Y-29703962D01*
X135818669Y-29459369D01*
X135411925Y-29290890D01*
X134980128Y-29205000D01*
X134539872Y-29205000D01*
X134108075Y-29290890D01*
X133701331Y-29459369D01*
X133335271Y-29703962D01*
X133023962Y-30015271D01*
X132779369Y-30381331D01*
X132610890Y-30788075D01*
X132525000Y-31219872D01*
X129420000Y-31219872D01*
X129420000Y-26100000D01*
X215340000Y-26100000D01*
X215340001Y-108660000D01*
M02*
