G04 #@! TF.GenerationSoftware,KiCad,Pcbnew,(5.1.5)-3*
G04 #@! TF.CreationDate,2020-07-03T21:37:29-07:00*
G04 #@! TF.ProjectId,Arduino_control_board,41726475-696e-46f5-9f63-6f6e74726f6c,rev?*
G04 #@! TF.SameCoordinates,Original*
G04 #@! TF.FileFunction,Paste,Top*
G04 #@! TF.FilePolarity,Positive*
%FSLAX46Y46*%
G04 Gerber Fmt 4.6, Leading zero omitted, Abs format (unit mm)*
G04 Created by KiCad (PCBNEW (5.1.5)-3) date 2020-07-03 21:37:29*
%MOMM*%
%LPD*%
G04 APERTURE LIST*
%ADD10R,1.200000X2.500000*%
%ADD11R,0.800000X0.500000*%
%ADD12R,0.800000X0.400000*%
G04 APERTURE END LIST*
D10*
X146600000Y-30500000D03*
X149100000Y-30500000D03*
X144100000Y-30500000D03*
X144100000Y-36000000D03*
X146600000Y-36000000D03*
X149100000Y-36000000D03*
X155575000Y-30500000D03*
X158075000Y-30500000D03*
X160575000Y-30500000D03*
X160575000Y-36000000D03*
X155575000Y-36000000D03*
X158075000Y-36000000D03*
D11*
X194100000Y-43800000D03*
D12*
X194100000Y-44600000D03*
D11*
X194100000Y-46200000D03*
D12*
X194100000Y-45400000D03*
D11*
X195900000Y-43800000D03*
D12*
X195900000Y-45400000D03*
X195900000Y-44600000D03*
D11*
X195900000Y-46200000D03*
X195900000Y-52200000D03*
D12*
X195900000Y-50600000D03*
X195900000Y-51400000D03*
D11*
X195900000Y-49800000D03*
D12*
X194100000Y-51400000D03*
D11*
X194100000Y-52200000D03*
D12*
X194100000Y-50600000D03*
D11*
X194100000Y-49800000D03*
X194100000Y-55800000D03*
D12*
X194100000Y-56600000D03*
D11*
X194100000Y-58200000D03*
D12*
X194100000Y-57400000D03*
D11*
X195900000Y-55800000D03*
D12*
X195900000Y-57400000D03*
X195900000Y-56600000D03*
D11*
X195900000Y-58200000D03*
X195900000Y-64200000D03*
D12*
X195900000Y-62600000D03*
X195900000Y-63400000D03*
D11*
X195900000Y-61800000D03*
D12*
X194100000Y-63400000D03*
D11*
X194100000Y-64200000D03*
D12*
X194100000Y-62600000D03*
D11*
X194100000Y-61800000D03*
X187900000Y-52200000D03*
D12*
X187900000Y-50600000D03*
X187900000Y-51400000D03*
D11*
X187900000Y-49800000D03*
D12*
X186100000Y-51400000D03*
D11*
X186100000Y-52200000D03*
D12*
X186100000Y-50600000D03*
D11*
X186100000Y-49800000D03*
X186100000Y-55800000D03*
D12*
X186100000Y-56600000D03*
D11*
X186100000Y-58200000D03*
D12*
X186100000Y-57400000D03*
D11*
X187900000Y-55800000D03*
D12*
X187900000Y-57400000D03*
X187900000Y-56600000D03*
D11*
X187900000Y-58200000D03*
X151425000Y-43150000D03*
D12*
X151425000Y-43950000D03*
D11*
X151425000Y-45550000D03*
D12*
X151425000Y-44750000D03*
D11*
X153225000Y-43150000D03*
D12*
X153225000Y-44750000D03*
X153225000Y-43950000D03*
D11*
X153225000Y-45550000D03*
X150643160Y-91200000D03*
D12*
X150643160Y-90400000D03*
D11*
X150643160Y-88800000D03*
D12*
X150643160Y-89600000D03*
D11*
X148843160Y-91200000D03*
D12*
X148843160Y-89600000D03*
X148843160Y-90400000D03*
D11*
X148843160Y-88800000D03*
X148843160Y-82800000D03*
D12*
X148843160Y-84400000D03*
X148843160Y-83600000D03*
D11*
X148843160Y-85200000D03*
D12*
X150643160Y-83600000D03*
D11*
X150643160Y-82800000D03*
D12*
X150643160Y-84400000D03*
D11*
X150643160Y-85200000D03*
X150643160Y-79200000D03*
D12*
X150643160Y-78400000D03*
D11*
X150643160Y-76800000D03*
D12*
X150643160Y-77600000D03*
D11*
X148843160Y-79200000D03*
D12*
X148843160Y-77600000D03*
X148843160Y-78400000D03*
D11*
X148843160Y-76800000D03*
X148843160Y-70800000D03*
D12*
X148843160Y-72400000D03*
X148843160Y-71600000D03*
D11*
X148843160Y-73200000D03*
D12*
X150643160Y-71600000D03*
D11*
X150643160Y-70800000D03*
D12*
X150643160Y-72400000D03*
D11*
X150643160Y-73200000D03*
X156843160Y-82800000D03*
D12*
X156843160Y-84400000D03*
X156843160Y-83600000D03*
D11*
X156843160Y-85200000D03*
D12*
X158643160Y-83600000D03*
D11*
X158643160Y-82800000D03*
D12*
X158643160Y-84400000D03*
D11*
X158643160Y-85200000D03*
X158643160Y-79200000D03*
D12*
X158643160Y-78400000D03*
D11*
X158643160Y-76800000D03*
D12*
X158643160Y-77600000D03*
D11*
X156843160Y-79200000D03*
D12*
X156843160Y-77600000D03*
X156843160Y-78400000D03*
D11*
X156843160Y-76800000D03*
X158643160Y-73200000D03*
D12*
X158643160Y-72400000D03*
D11*
X158643160Y-70800000D03*
D12*
X158643160Y-71600000D03*
D11*
X156843160Y-73200000D03*
D12*
X156843160Y-71600000D03*
X156843160Y-72400000D03*
D11*
X156843160Y-70800000D03*
M02*
