G04 #@! TF.GenerationSoftware,KiCad,Pcbnew,(5.1.5)-3*
G04 #@! TF.CreationDate,2020-07-03T21:41:32-07:00*
G04 #@! TF.ProjectId,joystick,6a6f7973-7469-4636-9b2e-6b696361645f,rev?*
G04 #@! TF.SameCoordinates,Original*
G04 #@! TF.FileFunction,Legend,Top*
G04 #@! TF.FilePolarity,Positive*
%FSLAX46Y46*%
G04 Gerber Fmt 4.6, Leading zero omitted, Abs format (unit mm)*
G04 Created by KiCad (PCBNEW (5.1.5)-3) date 2020-07-03 21:41:32*
%MOMM*%
%LPD*%
G04 APERTURE LIST*
%ADD10C,0.150000*%
%ADD11C,0.120000*%
G04 APERTURE END LIST*
D10*
X94303571Y-41157142D02*
X96017857Y-41157142D01*
X95160714Y-44157142D02*
X95160714Y-41157142D01*
X97017857Y-44157142D02*
X97017857Y-41157142D01*
X97017857Y-42585714D02*
X98732142Y-42585714D01*
X98732142Y-44157142D02*
X98732142Y-41157142D01*
X100160714Y-44157142D02*
X100160714Y-41157142D01*
X101874999Y-44157142D02*
X100589285Y-42442857D01*
X101874999Y-41157142D02*
X100160714Y-42871428D01*
X103160714Y-43014285D02*
X105446428Y-43014285D01*
X107446428Y-41157142D02*
X107732142Y-41157142D01*
X108017857Y-41300000D01*
X108160714Y-41442857D01*
X108303571Y-41728571D01*
X108446428Y-42300000D01*
X108446428Y-43014285D01*
X108303571Y-43585714D01*
X108160714Y-43871428D01*
X108017857Y-44014285D01*
X107732142Y-44157142D01*
X107446428Y-44157142D01*
X107160714Y-44014285D01*
X107017857Y-43871428D01*
X106874999Y-43585714D01*
X106732142Y-43014285D01*
X106732142Y-42300000D01*
X106874999Y-41728571D01*
X107017857Y-41442857D01*
X107160714Y-41300000D01*
X107446428Y-41157142D01*
X110303571Y-41157142D02*
X110589285Y-41157142D01*
X110874999Y-41300000D01*
X111017857Y-41442857D01*
X111160714Y-41728571D01*
X111303571Y-42300000D01*
X111303571Y-43014285D01*
X111160714Y-43585714D01*
X111017857Y-43871428D01*
X110874999Y-44014285D01*
X110589285Y-44157142D01*
X110303571Y-44157142D01*
X110017857Y-44014285D01*
X109874999Y-43871428D01*
X109732142Y-43585714D01*
X109589285Y-43014285D01*
X109589285Y-42300000D01*
X109732142Y-41728571D01*
X109874999Y-41442857D01*
X110017857Y-41300000D01*
X110303571Y-41157142D01*
X114160714Y-44157142D02*
X112446428Y-44157142D01*
X113303571Y-44157142D02*
X113303571Y-41157142D01*
X113017857Y-41585714D01*
X112732142Y-41871428D01*
X112446428Y-42014285D01*
X94208333Y-71704761D02*
X94875000Y-73704761D01*
X95541666Y-71704761D01*
X97351190Y-73514285D02*
X97255952Y-73609523D01*
X96970238Y-73704761D01*
X96779761Y-73704761D01*
X96494047Y-73609523D01*
X96303571Y-73419047D01*
X96208333Y-73228571D01*
X96113095Y-72847619D01*
X96113095Y-72561904D01*
X96208333Y-72180952D01*
X96303571Y-71990476D01*
X96494047Y-71800000D01*
X96779761Y-71704761D01*
X96970238Y-71704761D01*
X97255952Y-71800000D01*
X97351190Y-71895238D01*
X99351190Y-73514285D02*
X99255952Y-73609523D01*
X98970238Y-73704761D01*
X98779761Y-73704761D01*
X98494047Y-73609523D01*
X98303571Y-73419047D01*
X98208333Y-73228571D01*
X98113095Y-72847619D01*
X98113095Y-72561904D01*
X98208333Y-72180952D01*
X98303571Y-71990476D01*
X98494047Y-71800000D01*
X98779761Y-71704761D01*
X98970238Y-71704761D01*
X99255952Y-71800000D01*
X99351190Y-71895238D01*
X95176190Y-66475000D02*
X94985714Y-66379761D01*
X94700000Y-66379761D01*
X94414285Y-66475000D01*
X94223809Y-66665476D01*
X94128571Y-66855952D01*
X94033333Y-67236904D01*
X94033333Y-67522619D01*
X94128571Y-67903571D01*
X94223809Y-68094047D01*
X94414285Y-68284523D01*
X94700000Y-68379761D01*
X94890476Y-68379761D01*
X95176190Y-68284523D01*
X95271428Y-68189285D01*
X95271428Y-67522619D01*
X94890476Y-67522619D01*
X96128571Y-68379761D02*
X96128571Y-66379761D01*
X97271428Y-68379761D01*
X97271428Y-66379761D01*
X98223809Y-68379761D02*
X98223809Y-66379761D01*
X98700000Y-66379761D01*
X98985714Y-66475000D01*
X99176190Y-66665476D01*
X99271428Y-66855952D01*
X99366666Y-67236904D01*
X99366666Y-67522619D01*
X99271428Y-67903571D01*
X99176190Y-68094047D01*
X98985714Y-68284523D01*
X98700000Y-68379761D01*
X98223809Y-68379761D01*
X94223809Y-62808333D02*
X95176190Y-62808333D01*
X94033333Y-63379761D02*
X94700000Y-61379761D01*
X95366666Y-63379761D01*
X94842857Y-57307142D02*
X95128571Y-57402380D01*
X95223809Y-57497619D01*
X95319047Y-57688095D01*
X95319047Y-57973809D01*
X95223809Y-58164285D01*
X95128571Y-58259523D01*
X94938095Y-58354761D01*
X94176190Y-58354761D01*
X94176190Y-56354761D01*
X94842857Y-56354761D01*
X95033333Y-56450000D01*
X95128571Y-56545238D01*
X95223809Y-56735714D01*
X95223809Y-56926190D01*
X95128571Y-57116666D01*
X95033333Y-57211904D01*
X94842857Y-57307142D01*
X94176190Y-57307142D01*
X94128571Y-53009523D02*
X94414285Y-53104761D01*
X94890476Y-53104761D01*
X95080952Y-53009523D01*
X95176190Y-52914285D01*
X95271428Y-52723809D01*
X95271428Y-52533333D01*
X95176190Y-52342857D01*
X95080952Y-52247619D01*
X94890476Y-52152380D01*
X94509523Y-52057142D01*
X94319047Y-51961904D01*
X94223809Y-51866666D01*
X94128571Y-51676190D01*
X94128571Y-51485714D01*
X94223809Y-51295238D01*
X94319047Y-51200000D01*
X94509523Y-51104761D01*
X94985714Y-51104761D01*
X95271428Y-51200000D01*
D11*
X108525052Y-78929300D02*
X108002548Y-78929300D01*
X108525052Y-77509300D02*
X108002548Y-77509300D01*
X89931275Y-72093329D02*
G75*
G02X90076000Y-72720200I-1285275J-626871D01*
G01*
X88018638Y-71434376D02*
G75*
G02X89273000Y-71434200I627362J-1285824D01*
G01*
X87360176Y-73347562D02*
G75*
G02X87360000Y-72093200I1285824J627362D01*
G01*
X89272746Y-74006811D02*
G75*
G02X88018000Y-74006200I-626746J1286611D01*
G01*
X90076940Y-72695920D02*
G75*
G02X89932000Y-73348200I-1430940J-24280D01*
G01*
X90076000Y-67640200D02*
G75*
G03X90076000Y-67640200I-1430000J0D01*
G01*
X90076000Y-62560200D02*
G75*
G03X90076000Y-62560200I-1430000J0D01*
G01*
X90076000Y-57480200D02*
G75*
G03X90076000Y-57480200I-1430000J0D01*
G01*
X90076000Y-52400200D02*
G75*
G03X90076000Y-52400200I-1430000J0D01*
G01*
X92196000Y-75320200D02*
X92196000Y-49800200D01*
X91096000Y-75320200D02*
X91096000Y-49800200D01*
X86096000Y-75320200D02*
X86096000Y-49800200D01*
X84186000Y-75320200D02*
X84186000Y-49800200D01*
X92756000Y-75320200D02*
X92756000Y-49800200D01*
X84186000Y-75320200D02*
X92756000Y-75320200D01*
X84186000Y-49800200D02*
X92756000Y-49800200D01*
X84246000Y-73970200D02*
X84246000Y-71470200D01*
X85246000Y-73970200D02*
X85246000Y-71470200D01*
X84246000Y-73970200D02*
X85246000Y-73970200D01*
X84246000Y-71470200D02*
X85246000Y-71470200D01*
X87736000Y-66555200D02*
X87795000Y-66615200D01*
X89691000Y-68510200D02*
X89731000Y-68550200D01*
X87561000Y-66729200D02*
X87601000Y-66769200D01*
X89496000Y-68664200D02*
X89556000Y-68724200D01*
X84246000Y-68890200D02*
X84246000Y-66390200D01*
X85246000Y-68890200D02*
X85246000Y-66390200D01*
X84246000Y-68890200D02*
X85246000Y-68890200D01*
X84246000Y-66390200D02*
X85246000Y-66390200D01*
X87736000Y-61475200D02*
X87795000Y-61535200D01*
X89691000Y-63430200D02*
X89731000Y-63470200D01*
X87561000Y-61649200D02*
X87601000Y-61689200D01*
X89496000Y-63584200D02*
X89556000Y-63644200D01*
X84246000Y-63810200D02*
X84246000Y-61310200D01*
X85246000Y-63810200D02*
X85246000Y-61310200D01*
X84246000Y-63810200D02*
X85246000Y-63810200D01*
X84246000Y-61310200D02*
X85246000Y-61310200D01*
X87736000Y-56395200D02*
X87795000Y-56455200D01*
X89691000Y-58350200D02*
X89731000Y-58390200D01*
X87561000Y-56569200D02*
X87601000Y-56609200D01*
X89496000Y-58504200D02*
X89556000Y-58564200D01*
X84246000Y-58730200D02*
X84246000Y-56230200D01*
X85246000Y-58730200D02*
X85246000Y-56230200D01*
X84246000Y-58730200D02*
X85246000Y-58730200D01*
X84246000Y-56230200D02*
X85246000Y-56230200D01*
X87736000Y-51315200D02*
X87795000Y-51375200D01*
X89691000Y-53270200D02*
X89731000Y-53310200D01*
X87561000Y-51489200D02*
X87601000Y-51529200D01*
X89496000Y-53424200D02*
X89556000Y-53484200D01*
X84246000Y-53650200D02*
X84246000Y-51150200D01*
X85246000Y-53650200D02*
X85246000Y-51150200D01*
X84246000Y-53650200D02*
X85246000Y-53650200D01*
X84246000Y-51150200D02*
X85246000Y-51150200D01*
X92256000Y-75560200D02*
X92996000Y-75560200D01*
X92996000Y-75560200D02*
X92996000Y-75060200D01*
D10*
X119786495Y-40041980D02*
X119786495Y-39041980D01*
X119786495Y-39518171D02*
X120357923Y-39518171D01*
X120357923Y-40041980D02*
X120357923Y-39041980D01*
X121357923Y-40041980D02*
X120786495Y-40041980D01*
X121072209Y-40041980D02*
X121072209Y-39041980D01*
X120976971Y-39184838D01*
X120881733Y-39280076D01*
X120786495Y-39327695D01*
X87604695Y-40041980D02*
X87604695Y-39041980D01*
X87604695Y-39518171D02*
X88176123Y-39518171D01*
X88176123Y-40041980D02*
X88176123Y-39041980D01*
X88604695Y-39137219D02*
X88652314Y-39089600D01*
X88747552Y-39041980D01*
X88985647Y-39041980D01*
X89080885Y-39089600D01*
X89128504Y-39137219D01*
X89176123Y-39232457D01*
X89176123Y-39327695D01*
X89128504Y-39470552D01*
X88557076Y-40041980D01*
X89176123Y-40041980D01*
X119786495Y-77926080D02*
X119786495Y-76926080D01*
X119786495Y-77402271D02*
X120357923Y-77402271D01*
X120357923Y-77926080D02*
X120357923Y-76926080D01*
X120738876Y-76926080D02*
X121357923Y-76926080D01*
X121024590Y-77307033D01*
X121167447Y-77307033D01*
X121262685Y-77354652D01*
X121310304Y-77402271D01*
X121357923Y-77497509D01*
X121357923Y-77735604D01*
X121310304Y-77830842D01*
X121262685Y-77878461D01*
X121167447Y-77926080D01*
X120881733Y-77926080D01*
X120786495Y-77878461D01*
X120738876Y-77830842D01*
X87718995Y-77926080D02*
X87718995Y-76926080D01*
X87718995Y-77402271D02*
X88290423Y-77402271D01*
X88290423Y-77926080D02*
X88290423Y-76926080D01*
X89195185Y-77259414D02*
X89195185Y-77926080D01*
X88957090Y-76878461D02*
X88718995Y-77592747D01*
X89338042Y-77592747D01*
X97546780Y-62865523D02*
X98261066Y-62865523D01*
X98403923Y-62913142D01*
X98499161Y-63008380D01*
X98546780Y-63151238D01*
X98546780Y-63246476D01*
X98499161Y-62436952D02*
X98546780Y-62294095D01*
X98546780Y-62056000D01*
X98499161Y-61960761D01*
X98451542Y-61913142D01*
X98356304Y-61865523D01*
X98261066Y-61865523D01*
X98165828Y-61913142D01*
X98118209Y-61960761D01*
X98070590Y-62056000D01*
X98022971Y-62246476D01*
X97975352Y-62341714D01*
X97927733Y-62389333D01*
X97832495Y-62436952D01*
X97737257Y-62436952D01*
X97642019Y-62389333D01*
X97594400Y-62341714D01*
X97546780Y-62246476D01*
X97546780Y-62008380D01*
X97594400Y-61865523D01*
X98546780Y-60913142D02*
X98546780Y-61484571D01*
X98546780Y-61198857D02*
X97546780Y-61198857D01*
X97689638Y-61294095D01*
X97784876Y-61389333D01*
X97832495Y-61484571D01*
X108097133Y-80321680D02*
X107763800Y-79845490D01*
X107525704Y-80321680D02*
X107525704Y-79321680D01*
X107906657Y-79321680D01*
X108001895Y-79369300D01*
X108049514Y-79416919D01*
X108097133Y-79512157D01*
X108097133Y-79655014D01*
X108049514Y-79750252D01*
X108001895Y-79797871D01*
X107906657Y-79845490D01*
X107525704Y-79845490D01*
X109049514Y-80321680D02*
X108478085Y-80321680D01*
X108763800Y-80321680D02*
X108763800Y-79321680D01*
X108668561Y-79464538D01*
X108573323Y-79559776D01*
X108478085Y-79607395D01*
X82638380Y-62893533D02*
X83352666Y-62893533D01*
X83495523Y-62941152D01*
X83590761Y-63036390D01*
X83638380Y-63179247D01*
X83638380Y-63274485D01*
X83638380Y-61893533D02*
X83638380Y-62464961D01*
X83638380Y-62179247D02*
X82638380Y-62179247D01*
X82781238Y-62274485D01*
X82876476Y-62369723D01*
X82924095Y-62464961D01*
M02*
