G04 #@! TF.GenerationSoftware,KiCad,Pcbnew,(5.1.5)-3*
G04 #@! TF.CreationDate,2020-08-30T12:24:17-07:00*
G04 #@! TF.ProjectId,comparator,636f6d70-6172-4617-946f-722e6b696361,rev?*
G04 #@! TF.SameCoordinates,Original*
G04 #@! TF.FileFunction,Paste,Top*
G04 #@! TF.FilePolarity,Positive*
%FSLAX46Y46*%
G04 Gerber Fmt 4.6, Leading zero omitted, Abs format (unit mm)*
G04 Created by KiCad (PCBNEW (5.1.5)-3) date 2020-08-30 12:24:17*
%MOMM*%
%LPD*%
G04 APERTURE LIST*
%ADD10C,0.100000*%
%ADD11R,0.800000X0.500000*%
%ADD12R,0.800000X0.400000*%
G04 APERTURE END LIST*
D10*
G36*
X100277691Y-111276053D02*
G01*
X100298926Y-111279203D01*
X100319750Y-111284419D01*
X100339962Y-111291651D01*
X100359368Y-111300830D01*
X100377781Y-111311866D01*
X100395024Y-111324654D01*
X100410930Y-111339070D01*
X100425346Y-111354976D01*
X100438134Y-111372219D01*
X100449170Y-111390632D01*
X100458349Y-111410038D01*
X100465581Y-111430250D01*
X100470797Y-111451074D01*
X100473947Y-111472309D01*
X100475000Y-111493750D01*
X100475000Y-111931250D01*
X100473947Y-111952691D01*
X100470797Y-111973926D01*
X100465581Y-111994750D01*
X100458349Y-112014962D01*
X100449170Y-112034368D01*
X100438134Y-112052781D01*
X100425346Y-112070024D01*
X100410930Y-112085930D01*
X100395024Y-112100346D01*
X100377781Y-112113134D01*
X100359368Y-112124170D01*
X100339962Y-112133349D01*
X100319750Y-112140581D01*
X100298926Y-112145797D01*
X100277691Y-112148947D01*
X100256250Y-112150000D01*
X99743750Y-112150000D01*
X99722309Y-112148947D01*
X99701074Y-112145797D01*
X99680250Y-112140581D01*
X99660038Y-112133349D01*
X99640632Y-112124170D01*
X99622219Y-112113134D01*
X99604976Y-112100346D01*
X99589070Y-112085930D01*
X99574654Y-112070024D01*
X99561866Y-112052781D01*
X99550830Y-112034368D01*
X99541651Y-112014962D01*
X99534419Y-111994750D01*
X99529203Y-111973926D01*
X99526053Y-111952691D01*
X99525000Y-111931250D01*
X99525000Y-111493750D01*
X99526053Y-111472309D01*
X99529203Y-111451074D01*
X99534419Y-111430250D01*
X99541651Y-111410038D01*
X99550830Y-111390632D01*
X99561866Y-111372219D01*
X99574654Y-111354976D01*
X99589070Y-111339070D01*
X99604976Y-111324654D01*
X99622219Y-111311866D01*
X99640632Y-111300830D01*
X99660038Y-111291651D01*
X99680250Y-111284419D01*
X99701074Y-111279203D01*
X99722309Y-111276053D01*
X99743750Y-111275000D01*
X100256250Y-111275000D01*
X100277691Y-111276053D01*
G37*
G36*
X100277691Y-112851053D02*
G01*
X100298926Y-112854203D01*
X100319750Y-112859419D01*
X100339962Y-112866651D01*
X100359368Y-112875830D01*
X100377781Y-112886866D01*
X100395024Y-112899654D01*
X100410930Y-112914070D01*
X100425346Y-112929976D01*
X100438134Y-112947219D01*
X100449170Y-112965632D01*
X100458349Y-112985038D01*
X100465581Y-113005250D01*
X100470797Y-113026074D01*
X100473947Y-113047309D01*
X100475000Y-113068750D01*
X100475000Y-113506250D01*
X100473947Y-113527691D01*
X100470797Y-113548926D01*
X100465581Y-113569750D01*
X100458349Y-113589962D01*
X100449170Y-113609368D01*
X100438134Y-113627781D01*
X100425346Y-113645024D01*
X100410930Y-113660930D01*
X100395024Y-113675346D01*
X100377781Y-113688134D01*
X100359368Y-113699170D01*
X100339962Y-113708349D01*
X100319750Y-113715581D01*
X100298926Y-113720797D01*
X100277691Y-113723947D01*
X100256250Y-113725000D01*
X99743750Y-113725000D01*
X99722309Y-113723947D01*
X99701074Y-113720797D01*
X99680250Y-113715581D01*
X99660038Y-113708349D01*
X99640632Y-113699170D01*
X99622219Y-113688134D01*
X99604976Y-113675346D01*
X99589070Y-113660930D01*
X99574654Y-113645024D01*
X99561866Y-113627781D01*
X99550830Y-113609368D01*
X99541651Y-113589962D01*
X99534419Y-113569750D01*
X99529203Y-113548926D01*
X99526053Y-113527691D01*
X99525000Y-113506250D01*
X99525000Y-113068750D01*
X99526053Y-113047309D01*
X99529203Y-113026074D01*
X99534419Y-113005250D01*
X99541651Y-112985038D01*
X99550830Y-112965632D01*
X99561866Y-112947219D01*
X99574654Y-112929976D01*
X99589070Y-112914070D01*
X99604976Y-112899654D01*
X99622219Y-112886866D01*
X99640632Y-112875830D01*
X99660038Y-112866651D01*
X99680250Y-112859419D01*
X99701074Y-112854203D01*
X99722309Y-112851053D01*
X99743750Y-112850000D01*
X100256250Y-112850000D01*
X100277691Y-112851053D01*
G37*
G36*
X145997691Y-111276053D02*
G01*
X146018926Y-111279203D01*
X146039750Y-111284419D01*
X146059962Y-111291651D01*
X146079368Y-111300830D01*
X146097781Y-111311866D01*
X146115024Y-111324654D01*
X146130930Y-111339070D01*
X146145346Y-111354976D01*
X146158134Y-111372219D01*
X146169170Y-111390632D01*
X146178349Y-111410038D01*
X146185581Y-111430250D01*
X146190797Y-111451074D01*
X146193947Y-111472309D01*
X146195000Y-111493750D01*
X146195000Y-111931250D01*
X146193947Y-111952691D01*
X146190797Y-111973926D01*
X146185581Y-111994750D01*
X146178349Y-112014962D01*
X146169170Y-112034368D01*
X146158134Y-112052781D01*
X146145346Y-112070024D01*
X146130930Y-112085930D01*
X146115024Y-112100346D01*
X146097781Y-112113134D01*
X146079368Y-112124170D01*
X146059962Y-112133349D01*
X146039750Y-112140581D01*
X146018926Y-112145797D01*
X145997691Y-112148947D01*
X145976250Y-112150000D01*
X145463750Y-112150000D01*
X145442309Y-112148947D01*
X145421074Y-112145797D01*
X145400250Y-112140581D01*
X145380038Y-112133349D01*
X145360632Y-112124170D01*
X145342219Y-112113134D01*
X145324976Y-112100346D01*
X145309070Y-112085930D01*
X145294654Y-112070024D01*
X145281866Y-112052781D01*
X145270830Y-112034368D01*
X145261651Y-112014962D01*
X145254419Y-111994750D01*
X145249203Y-111973926D01*
X145246053Y-111952691D01*
X145245000Y-111931250D01*
X145245000Y-111493750D01*
X145246053Y-111472309D01*
X145249203Y-111451074D01*
X145254419Y-111430250D01*
X145261651Y-111410038D01*
X145270830Y-111390632D01*
X145281866Y-111372219D01*
X145294654Y-111354976D01*
X145309070Y-111339070D01*
X145324976Y-111324654D01*
X145342219Y-111311866D01*
X145360632Y-111300830D01*
X145380038Y-111291651D01*
X145400250Y-111284419D01*
X145421074Y-111279203D01*
X145442309Y-111276053D01*
X145463750Y-111275000D01*
X145976250Y-111275000D01*
X145997691Y-111276053D01*
G37*
G36*
X145997691Y-112851053D02*
G01*
X146018926Y-112854203D01*
X146039750Y-112859419D01*
X146059962Y-112866651D01*
X146079368Y-112875830D01*
X146097781Y-112886866D01*
X146115024Y-112899654D01*
X146130930Y-112914070D01*
X146145346Y-112929976D01*
X146158134Y-112947219D01*
X146169170Y-112965632D01*
X146178349Y-112985038D01*
X146185581Y-113005250D01*
X146190797Y-113026074D01*
X146193947Y-113047309D01*
X146195000Y-113068750D01*
X146195000Y-113506250D01*
X146193947Y-113527691D01*
X146190797Y-113548926D01*
X146185581Y-113569750D01*
X146178349Y-113589962D01*
X146169170Y-113609368D01*
X146158134Y-113627781D01*
X146145346Y-113645024D01*
X146130930Y-113660930D01*
X146115024Y-113675346D01*
X146097781Y-113688134D01*
X146079368Y-113699170D01*
X146059962Y-113708349D01*
X146039750Y-113715581D01*
X146018926Y-113720797D01*
X145997691Y-113723947D01*
X145976250Y-113725000D01*
X145463750Y-113725000D01*
X145442309Y-113723947D01*
X145421074Y-113720797D01*
X145400250Y-113715581D01*
X145380038Y-113708349D01*
X145360632Y-113699170D01*
X145342219Y-113688134D01*
X145324976Y-113675346D01*
X145309070Y-113660930D01*
X145294654Y-113645024D01*
X145281866Y-113627781D01*
X145270830Y-113609368D01*
X145261651Y-113589962D01*
X145254419Y-113569750D01*
X145249203Y-113548926D01*
X145246053Y-113527691D01*
X145245000Y-113506250D01*
X145245000Y-113068750D01*
X145246053Y-113047309D01*
X145249203Y-113026074D01*
X145254419Y-113005250D01*
X145261651Y-112985038D01*
X145270830Y-112965632D01*
X145281866Y-112947219D01*
X145294654Y-112929976D01*
X145309070Y-112914070D01*
X145324976Y-112899654D01*
X145342219Y-112886866D01*
X145360632Y-112875830D01*
X145380038Y-112866651D01*
X145400250Y-112859419D01*
X145421074Y-112854203D01*
X145442309Y-112851053D01*
X145463750Y-112850000D01*
X145976250Y-112850000D01*
X145997691Y-112851053D01*
G37*
D11*
X126300000Y-113700000D03*
D12*
X126300000Y-112100000D03*
X126300000Y-112900000D03*
D11*
X126300000Y-111300000D03*
D12*
X124500000Y-112900000D03*
D11*
X124500000Y-113700000D03*
D12*
X124500000Y-112100000D03*
D11*
X124500000Y-111300000D03*
X121220000Y-113700000D03*
D12*
X121220000Y-112900000D03*
D11*
X121220000Y-111300000D03*
D12*
X121220000Y-112100000D03*
D11*
X119420000Y-113700000D03*
D12*
X119420000Y-112100000D03*
X119420000Y-112900000D03*
D11*
X119420000Y-111300000D03*
D10*
G36*
X133924703Y-108390722D02*
G01*
X133939264Y-108392882D01*
X133953543Y-108396459D01*
X133967403Y-108401418D01*
X133980710Y-108407712D01*
X133993336Y-108415280D01*
X134005159Y-108424048D01*
X134016066Y-108433934D01*
X134025952Y-108444841D01*
X134034720Y-108456664D01*
X134042288Y-108469290D01*
X134048582Y-108482597D01*
X134053541Y-108496457D01*
X134057118Y-108510736D01*
X134059278Y-108525297D01*
X134060000Y-108540000D01*
X134060000Y-108840000D01*
X134059278Y-108854703D01*
X134057118Y-108869264D01*
X134053541Y-108883543D01*
X134048582Y-108897403D01*
X134042288Y-108910710D01*
X134034720Y-108923336D01*
X134025952Y-108935159D01*
X134016066Y-108946066D01*
X134005159Y-108955952D01*
X133993336Y-108964720D01*
X133980710Y-108972288D01*
X133967403Y-108978582D01*
X133953543Y-108983541D01*
X133939264Y-108987118D01*
X133924703Y-108989278D01*
X133910000Y-108990000D01*
X132260000Y-108990000D01*
X132245297Y-108989278D01*
X132230736Y-108987118D01*
X132216457Y-108983541D01*
X132202597Y-108978582D01*
X132189290Y-108972288D01*
X132176664Y-108964720D01*
X132164841Y-108955952D01*
X132153934Y-108946066D01*
X132144048Y-108935159D01*
X132135280Y-108923336D01*
X132127712Y-108910710D01*
X132121418Y-108897403D01*
X132116459Y-108883543D01*
X132112882Y-108869264D01*
X132110722Y-108854703D01*
X132110000Y-108840000D01*
X132110000Y-108540000D01*
X132110722Y-108525297D01*
X132112882Y-108510736D01*
X132116459Y-108496457D01*
X132121418Y-108482597D01*
X132127712Y-108469290D01*
X132135280Y-108456664D01*
X132144048Y-108444841D01*
X132153934Y-108433934D01*
X132164841Y-108424048D01*
X132176664Y-108415280D01*
X132189290Y-108407712D01*
X132202597Y-108401418D01*
X132216457Y-108396459D01*
X132230736Y-108392882D01*
X132245297Y-108390722D01*
X132260000Y-108390000D01*
X133910000Y-108390000D01*
X133924703Y-108390722D01*
G37*
G36*
X133924703Y-109660722D02*
G01*
X133939264Y-109662882D01*
X133953543Y-109666459D01*
X133967403Y-109671418D01*
X133980710Y-109677712D01*
X133993336Y-109685280D01*
X134005159Y-109694048D01*
X134016066Y-109703934D01*
X134025952Y-109714841D01*
X134034720Y-109726664D01*
X134042288Y-109739290D01*
X134048582Y-109752597D01*
X134053541Y-109766457D01*
X134057118Y-109780736D01*
X134059278Y-109795297D01*
X134060000Y-109810000D01*
X134060000Y-110110000D01*
X134059278Y-110124703D01*
X134057118Y-110139264D01*
X134053541Y-110153543D01*
X134048582Y-110167403D01*
X134042288Y-110180710D01*
X134034720Y-110193336D01*
X134025952Y-110205159D01*
X134016066Y-110216066D01*
X134005159Y-110225952D01*
X133993336Y-110234720D01*
X133980710Y-110242288D01*
X133967403Y-110248582D01*
X133953543Y-110253541D01*
X133939264Y-110257118D01*
X133924703Y-110259278D01*
X133910000Y-110260000D01*
X132260000Y-110260000D01*
X132245297Y-110259278D01*
X132230736Y-110257118D01*
X132216457Y-110253541D01*
X132202597Y-110248582D01*
X132189290Y-110242288D01*
X132176664Y-110234720D01*
X132164841Y-110225952D01*
X132153934Y-110216066D01*
X132144048Y-110205159D01*
X132135280Y-110193336D01*
X132127712Y-110180710D01*
X132121418Y-110167403D01*
X132116459Y-110153543D01*
X132112882Y-110139264D01*
X132110722Y-110124703D01*
X132110000Y-110110000D01*
X132110000Y-109810000D01*
X132110722Y-109795297D01*
X132112882Y-109780736D01*
X132116459Y-109766457D01*
X132121418Y-109752597D01*
X132127712Y-109739290D01*
X132135280Y-109726664D01*
X132144048Y-109714841D01*
X132153934Y-109703934D01*
X132164841Y-109694048D01*
X132176664Y-109685280D01*
X132189290Y-109677712D01*
X132202597Y-109671418D01*
X132216457Y-109666459D01*
X132230736Y-109662882D01*
X132245297Y-109660722D01*
X132260000Y-109660000D01*
X133910000Y-109660000D01*
X133924703Y-109660722D01*
G37*
G36*
X133924703Y-110930722D02*
G01*
X133939264Y-110932882D01*
X133953543Y-110936459D01*
X133967403Y-110941418D01*
X133980710Y-110947712D01*
X133993336Y-110955280D01*
X134005159Y-110964048D01*
X134016066Y-110973934D01*
X134025952Y-110984841D01*
X134034720Y-110996664D01*
X134042288Y-111009290D01*
X134048582Y-111022597D01*
X134053541Y-111036457D01*
X134057118Y-111050736D01*
X134059278Y-111065297D01*
X134060000Y-111080000D01*
X134060000Y-111380000D01*
X134059278Y-111394703D01*
X134057118Y-111409264D01*
X134053541Y-111423543D01*
X134048582Y-111437403D01*
X134042288Y-111450710D01*
X134034720Y-111463336D01*
X134025952Y-111475159D01*
X134016066Y-111486066D01*
X134005159Y-111495952D01*
X133993336Y-111504720D01*
X133980710Y-111512288D01*
X133967403Y-111518582D01*
X133953543Y-111523541D01*
X133939264Y-111527118D01*
X133924703Y-111529278D01*
X133910000Y-111530000D01*
X132260000Y-111530000D01*
X132245297Y-111529278D01*
X132230736Y-111527118D01*
X132216457Y-111523541D01*
X132202597Y-111518582D01*
X132189290Y-111512288D01*
X132176664Y-111504720D01*
X132164841Y-111495952D01*
X132153934Y-111486066D01*
X132144048Y-111475159D01*
X132135280Y-111463336D01*
X132127712Y-111450710D01*
X132121418Y-111437403D01*
X132116459Y-111423543D01*
X132112882Y-111409264D01*
X132110722Y-111394703D01*
X132110000Y-111380000D01*
X132110000Y-111080000D01*
X132110722Y-111065297D01*
X132112882Y-111050736D01*
X132116459Y-111036457D01*
X132121418Y-111022597D01*
X132127712Y-111009290D01*
X132135280Y-110996664D01*
X132144048Y-110984841D01*
X132153934Y-110973934D01*
X132164841Y-110964048D01*
X132176664Y-110955280D01*
X132189290Y-110947712D01*
X132202597Y-110941418D01*
X132216457Y-110936459D01*
X132230736Y-110932882D01*
X132245297Y-110930722D01*
X132260000Y-110930000D01*
X133910000Y-110930000D01*
X133924703Y-110930722D01*
G37*
G36*
X133924703Y-112200722D02*
G01*
X133939264Y-112202882D01*
X133953543Y-112206459D01*
X133967403Y-112211418D01*
X133980710Y-112217712D01*
X133993336Y-112225280D01*
X134005159Y-112234048D01*
X134016066Y-112243934D01*
X134025952Y-112254841D01*
X134034720Y-112266664D01*
X134042288Y-112279290D01*
X134048582Y-112292597D01*
X134053541Y-112306457D01*
X134057118Y-112320736D01*
X134059278Y-112335297D01*
X134060000Y-112350000D01*
X134060000Y-112650000D01*
X134059278Y-112664703D01*
X134057118Y-112679264D01*
X134053541Y-112693543D01*
X134048582Y-112707403D01*
X134042288Y-112720710D01*
X134034720Y-112733336D01*
X134025952Y-112745159D01*
X134016066Y-112756066D01*
X134005159Y-112765952D01*
X133993336Y-112774720D01*
X133980710Y-112782288D01*
X133967403Y-112788582D01*
X133953543Y-112793541D01*
X133939264Y-112797118D01*
X133924703Y-112799278D01*
X133910000Y-112800000D01*
X132260000Y-112800000D01*
X132245297Y-112799278D01*
X132230736Y-112797118D01*
X132216457Y-112793541D01*
X132202597Y-112788582D01*
X132189290Y-112782288D01*
X132176664Y-112774720D01*
X132164841Y-112765952D01*
X132153934Y-112756066D01*
X132144048Y-112745159D01*
X132135280Y-112733336D01*
X132127712Y-112720710D01*
X132121418Y-112707403D01*
X132116459Y-112693543D01*
X132112882Y-112679264D01*
X132110722Y-112664703D01*
X132110000Y-112650000D01*
X132110000Y-112350000D01*
X132110722Y-112335297D01*
X132112882Y-112320736D01*
X132116459Y-112306457D01*
X132121418Y-112292597D01*
X132127712Y-112279290D01*
X132135280Y-112266664D01*
X132144048Y-112254841D01*
X132153934Y-112243934D01*
X132164841Y-112234048D01*
X132176664Y-112225280D01*
X132189290Y-112217712D01*
X132202597Y-112211418D01*
X132216457Y-112206459D01*
X132230736Y-112202882D01*
X132245297Y-112200722D01*
X132260000Y-112200000D01*
X133910000Y-112200000D01*
X133924703Y-112200722D01*
G37*
G36*
X133924703Y-113470722D02*
G01*
X133939264Y-113472882D01*
X133953543Y-113476459D01*
X133967403Y-113481418D01*
X133980710Y-113487712D01*
X133993336Y-113495280D01*
X134005159Y-113504048D01*
X134016066Y-113513934D01*
X134025952Y-113524841D01*
X134034720Y-113536664D01*
X134042288Y-113549290D01*
X134048582Y-113562597D01*
X134053541Y-113576457D01*
X134057118Y-113590736D01*
X134059278Y-113605297D01*
X134060000Y-113620000D01*
X134060000Y-113920000D01*
X134059278Y-113934703D01*
X134057118Y-113949264D01*
X134053541Y-113963543D01*
X134048582Y-113977403D01*
X134042288Y-113990710D01*
X134034720Y-114003336D01*
X134025952Y-114015159D01*
X134016066Y-114026066D01*
X134005159Y-114035952D01*
X133993336Y-114044720D01*
X133980710Y-114052288D01*
X133967403Y-114058582D01*
X133953543Y-114063541D01*
X133939264Y-114067118D01*
X133924703Y-114069278D01*
X133910000Y-114070000D01*
X132260000Y-114070000D01*
X132245297Y-114069278D01*
X132230736Y-114067118D01*
X132216457Y-114063541D01*
X132202597Y-114058582D01*
X132189290Y-114052288D01*
X132176664Y-114044720D01*
X132164841Y-114035952D01*
X132153934Y-114026066D01*
X132144048Y-114015159D01*
X132135280Y-114003336D01*
X132127712Y-113990710D01*
X132121418Y-113977403D01*
X132116459Y-113963543D01*
X132112882Y-113949264D01*
X132110722Y-113934703D01*
X132110000Y-113920000D01*
X132110000Y-113620000D01*
X132110722Y-113605297D01*
X132112882Y-113590736D01*
X132116459Y-113576457D01*
X132121418Y-113562597D01*
X132127712Y-113549290D01*
X132135280Y-113536664D01*
X132144048Y-113524841D01*
X132153934Y-113513934D01*
X132164841Y-113504048D01*
X132176664Y-113495280D01*
X132189290Y-113487712D01*
X132202597Y-113481418D01*
X132216457Y-113476459D01*
X132230736Y-113472882D01*
X132245297Y-113470722D01*
X132260000Y-113470000D01*
X133910000Y-113470000D01*
X133924703Y-113470722D01*
G37*
G36*
X133924703Y-114740722D02*
G01*
X133939264Y-114742882D01*
X133953543Y-114746459D01*
X133967403Y-114751418D01*
X133980710Y-114757712D01*
X133993336Y-114765280D01*
X134005159Y-114774048D01*
X134016066Y-114783934D01*
X134025952Y-114794841D01*
X134034720Y-114806664D01*
X134042288Y-114819290D01*
X134048582Y-114832597D01*
X134053541Y-114846457D01*
X134057118Y-114860736D01*
X134059278Y-114875297D01*
X134060000Y-114890000D01*
X134060000Y-115190000D01*
X134059278Y-115204703D01*
X134057118Y-115219264D01*
X134053541Y-115233543D01*
X134048582Y-115247403D01*
X134042288Y-115260710D01*
X134034720Y-115273336D01*
X134025952Y-115285159D01*
X134016066Y-115296066D01*
X134005159Y-115305952D01*
X133993336Y-115314720D01*
X133980710Y-115322288D01*
X133967403Y-115328582D01*
X133953543Y-115333541D01*
X133939264Y-115337118D01*
X133924703Y-115339278D01*
X133910000Y-115340000D01*
X132260000Y-115340000D01*
X132245297Y-115339278D01*
X132230736Y-115337118D01*
X132216457Y-115333541D01*
X132202597Y-115328582D01*
X132189290Y-115322288D01*
X132176664Y-115314720D01*
X132164841Y-115305952D01*
X132153934Y-115296066D01*
X132144048Y-115285159D01*
X132135280Y-115273336D01*
X132127712Y-115260710D01*
X132121418Y-115247403D01*
X132116459Y-115233543D01*
X132112882Y-115219264D01*
X132110722Y-115204703D01*
X132110000Y-115190000D01*
X132110000Y-114890000D01*
X132110722Y-114875297D01*
X132112882Y-114860736D01*
X132116459Y-114846457D01*
X132121418Y-114832597D01*
X132127712Y-114819290D01*
X132135280Y-114806664D01*
X132144048Y-114794841D01*
X132153934Y-114783934D01*
X132164841Y-114774048D01*
X132176664Y-114765280D01*
X132189290Y-114757712D01*
X132202597Y-114751418D01*
X132216457Y-114746459D01*
X132230736Y-114742882D01*
X132245297Y-114740722D01*
X132260000Y-114740000D01*
X133910000Y-114740000D01*
X133924703Y-114740722D01*
G37*
G36*
X133924703Y-116010722D02*
G01*
X133939264Y-116012882D01*
X133953543Y-116016459D01*
X133967403Y-116021418D01*
X133980710Y-116027712D01*
X133993336Y-116035280D01*
X134005159Y-116044048D01*
X134016066Y-116053934D01*
X134025952Y-116064841D01*
X134034720Y-116076664D01*
X134042288Y-116089290D01*
X134048582Y-116102597D01*
X134053541Y-116116457D01*
X134057118Y-116130736D01*
X134059278Y-116145297D01*
X134060000Y-116160000D01*
X134060000Y-116460000D01*
X134059278Y-116474703D01*
X134057118Y-116489264D01*
X134053541Y-116503543D01*
X134048582Y-116517403D01*
X134042288Y-116530710D01*
X134034720Y-116543336D01*
X134025952Y-116555159D01*
X134016066Y-116566066D01*
X134005159Y-116575952D01*
X133993336Y-116584720D01*
X133980710Y-116592288D01*
X133967403Y-116598582D01*
X133953543Y-116603541D01*
X133939264Y-116607118D01*
X133924703Y-116609278D01*
X133910000Y-116610000D01*
X132260000Y-116610000D01*
X132245297Y-116609278D01*
X132230736Y-116607118D01*
X132216457Y-116603541D01*
X132202597Y-116598582D01*
X132189290Y-116592288D01*
X132176664Y-116584720D01*
X132164841Y-116575952D01*
X132153934Y-116566066D01*
X132144048Y-116555159D01*
X132135280Y-116543336D01*
X132127712Y-116530710D01*
X132121418Y-116517403D01*
X132116459Y-116503543D01*
X132112882Y-116489264D01*
X132110722Y-116474703D01*
X132110000Y-116460000D01*
X132110000Y-116160000D01*
X132110722Y-116145297D01*
X132112882Y-116130736D01*
X132116459Y-116116457D01*
X132121418Y-116102597D01*
X132127712Y-116089290D01*
X132135280Y-116076664D01*
X132144048Y-116064841D01*
X132153934Y-116053934D01*
X132164841Y-116044048D01*
X132176664Y-116035280D01*
X132189290Y-116027712D01*
X132202597Y-116021418D01*
X132216457Y-116016459D01*
X132230736Y-116012882D01*
X132245297Y-116010722D01*
X132260000Y-116010000D01*
X133910000Y-116010000D01*
X133924703Y-116010722D01*
G37*
G36*
X138874703Y-116010722D02*
G01*
X138889264Y-116012882D01*
X138903543Y-116016459D01*
X138917403Y-116021418D01*
X138930710Y-116027712D01*
X138943336Y-116035280D01*
X138955159Y-116044048D01*
X138966066Y-116053934D01*
X138975952Y-116064841D01*
X138984720Y-116076664D01*
X138992288Y-116089290D01*
X138998582Y-116102597D01*
X139003541Y-116116457D01*
X139007118Y-116130736D01*
X139009278Y-116145297D01*
X139010000Y-116160000D01*
X139010000Y-116460000D01*
X139009278Y-116474703D01*
X139007118Y-116489264D01*
X139003541Y-116503543D01*
X138998582Y-116517403D01*
X138992288Y-116530710D01*
X138984720Y-116543336D01*
X138975952Y-116555159D01*
X138966066Y-116566066D01*
X138955159Y-116575952D01*
X138943336Y-116584720D01*
X138930710Y-116592288D01*
X138917403Y-116598582D01*
X138903543Y-116603541D01*
X138889264Y-116607118D01*
X138874703Y-116609278D01*
X138860000Y-116610000D01*
X137210000Y-116610000D01*
X137195297Y-116609278D01*
X137180736Y-116607118D01*
X137166457Y-116603541D01*
X137152597Y-116598582D01*
X137139290Y-116592288D01*
X137126664Y-116584720D01*
X137114841Y-116575952D01*
X137103934Y-116566066D01*
X137094048Y-116555159D01*
X137085280Y-116543336D01*
X137077712Y-116530710D01*
X137071418Y-116517403D01*
X137066459Y-116503543D01*
X137062882Y-116489264D01*
X137060722Y-116474703D01*
X137060000Y-116460000D01*
X137060000Y-116160000D01*
X137060722Y-116145297D01*
X137062882Y-116130736D01*
X137066459Y-116116457D01*
X137071418Y-116102597D01*
X137077712Y-116089290D01*
X137085280Y-116076664D01*
X137094048Y-116064841D01*
X137103934Y-116053934D01*
X137114841Y-116044048D01*
X137126664Y-116035280D01*
X137139290Y-116027712D01*
X137152597Y-116021418D01*
X137166457Y-116016459D01*
X137180736Y-116012882D01*
X137195297Y-116010722D01*
X137210000Y-116010000D01*
X138860000Y-116010000D01*
X138874703Y-116010722D01*
G37*
G36*
X138874703Y-114740722D02*
G01*
X138889264Y-114742882D01*
X138903543Y-114746459D01*
X138917403Y-114751418D01*
X138930710Y-114757712D01*
X138943336Y-114765280D01*
X138955159Y-114774048D01*
X138966066Y-114783934D01*
X138975952Y-114794841D01*
X138984720Y-114806664D01*
X138992288Y-114819290D01*
X138998582Y-114832597D01*
X139003541Y-114846457D01*
X139007118Y-114860736D01*
X139009278Y-114875297D01*
X139010000Y-114890000D01*
X139010000Y-115190000D01*
X139009278Y-115204703D01*
X139007118Y-115219264D01*
X139003541Y-115233543D01*
X138998582Y-115247403D01*
X138992288Y-115260710D01*
X138984720Y-115273336D01*
X138975952Y-115285159D01*
X138966066Y-115296066D01*
X138955159Y-115305952D01*
X138943336Y-115314720D01*
X138930710Y-115322288D01*
X138917403Y-115328582D01*
X138903543Y-115333541D01*
X138889264Y-115337118D01*
X138874703Y-115339278D01*
X138860000Y-115340000D01*
X137210000Y-115340000D01*
X137195297Y-115339278D01*
X137180736Y-115337118D01*
X137166457Y-115333541D01*
X137152597Y-115328582D01*
X137139290Y-115322288D01*
X137126664Y-115314720D01*
X137114841Y-115305952D01*
X137103934Y-115296066D01*
X137094048Y-115285159D01*
X137085280Y-115273336D01*
X137077712Y-115260710D01*
X137071418Y-115247403D01*
X137066459Y-115233543D01*
X137062882Y-115219264D01*
X137060722Y-115204703D01*
X137060000Y-115190000D01*
X137060000Y-114890000D01*
X137060722Y-114875297D01*
X137062882Y-114860736D01*
X137066459Y-114846457D01*
X137071418Y-114832597D01*
X137077712Y-114819290D01*
X137085280Y-114806664D01*
X137094048Y-114794841D01*
X137103934Y-114783934D01*
X137114841Y-114774048D01*
X137126664Y-114765280D01*
X137139290Y-114757712D01*
X137152597Y-114751418D01*
X137166457Y-114746459D01*
X137180736Y-114742882D01*
X137195297Y-114740722D01*
X137210000Y-114740000D01*
X138860000Y-114740000D01*
X138874703Y-114740722D01*
G37*
G36*
X138874703Y-113470722D02*
G01*
X138889264Y-113472882D01*
X138903543Y-113476459D01*
X138917403Y-113481418D01*
X138930710Y-113487712D01*
X138943336Y-113495280D01*
X138955159Y-113504048D01*
X138966066Y-113513934D01*
X138975952Y-113524841D01*
X138984720Y-113536664D01*
X138992288Y-113549290D01*
X138998582Y-113562597D01*
X139003541Y-113576457D01*
X139007118Y-113590736D01*
X139009278Y-113605297D01*
X139010000Y-113620000D01*
X139010000Y-113920000D01*
X139009278Y-113934703D01*
X139007118Y-113949264D01*
X139003541Y-113963543D01*
X138998582Y-113977403D01*
X138992288Y-113990710D01*
X138984720Y-114003336D01*
X138975952Y-114015159D01*
X138966066Y-114026066D01*
X138955159Y-114035952D01*
X138943336Y-114044720D01*
X138930710Y-114052288D01*
X138917403Y-114058582D01*
X138903543Y-114063541D01*
X138889264Y-114067118D01*
X138874703Y-114069278D01*
X138860000Y-114070000D01*
X137210000Y-114070000D01*
X137195297Y-114069278D01*
X137180736Y-114067118D01*
X137166457Y-114063541D01*
X137152597Y-114058582D01*
X137139290Y-114052288D01*
X137126664Y-114044720D01*
X137114841Y-114035952D01*
X137103934Y-114026066D01*
X137094048Y-114015159D01*
X137085280Y-114003336D01*
X137077712Y-113990710D01*
X137071418Y-113977403D01*
X137066459Y-113963543D01*
X137062882Y-113949264D01*
X137060722Y-113934703D01*
X137060000Y-113920000D01*
X137060000Y-113620000D01*
X137060722Y-113605297D01*
X137062882Y-113590736D01*
X137066459Y-113576457D01*
X137071418Y-113562597D01*
X137077712Y-113549290D01*
X137085280Y-113536664D01*
X137094048Y-113524841D01*
X137103934Y-113513934D01*
X137114841Y-113504048D01*
X137126664Y-113495280D01*
X137139290Y-113487712D01*
X137152597Y-113481418D01*
X137166457Y-113476459D01*
X137180736Y-113472882D01*
X137195297Y-113470722D01*
X137210000Y-113470000D01*
X138860000Y-113470000D01*
X138874703Y-113470722D01*
G37*
G36*
X138874703Y-112200722D02*
G01*
X138889264Y-112202882D01*
X138903543Y-112206459D01*
X138917403Y-112211418D01*
X138930710Y-112217712D01*
X138943336Y-112225280D01*
X138955159Y-112234048D01*
X138966066Y-112243934D01*
X138975952Y-112254841D01*
X138984720Y-112266664D01*
X138992288Y-112279290D01*
X138998582Y-112292597D01*
X139003541Y-112306457D01*
X139007118Y-112320736D01*
X139009278Y-112335297D01*
X139010000Y-112350000D01*
X139010000Y-112650000D01*
X139009278Y-112664703D01*
X139007118Y-112679264D01*
X139003541Y-112693543D01*
X138998582Y-112707403D01*
X138992288Y-112720710D01*
X138984720Y-112733336D01*
X138975952Y-112745159D01*
X138966066Y-112756066D01*
X138955159Y-112765952D01*
X138943336Y-112774720D01*
X138930710Y-112782288D01*
X138917403Y-112788582D01*
X138903543Y-112793541D01*
X138889264Y-112797118D01*
X138874703Y-112799278D01*
X138860000Y-112800000D01*
X137210000Y-112800000D01*
X137195297Y-112799278D01*
X137180736Y-112797118D01*
X137166457Y-112793541D01*
X137152597Y-112788582D01*
X137139290Y-112782288D01*
X137126664Y-112774720D01*
X137114841Y-112765952D01*
X137103934Y-112756066D01*
X137094048Y-112745159D01*
X137085280Y-112733336D01*
X137077712Y-112720710D01*
X137071418Y-112707403D01*
X137066459Y-112693543D01*
X137062882Y-112679264D01*
X137060722Y-112664703D01*
X137060000Y-112650000D01*
X137060000Y-112350000D01*
X137060722Y-112335297D01*
X137062882Y-112320736D01*
X137066459Y-112306457D01*
X137071418Y-112292597D01*
X137077712Y-112279290D01*
X137085280Y-112266664D01*
X137094048Y-112254841D01*
X137103934Y-112243934D01*
X137114841Y-112234048D01*
X137126664Y-112225280D01*
X137139290Y-112217712D01*
X137152597Y-112211418D01*
X137166457Y-112206459D01*
X137180736Y-112202882D01*
X137195297Y-112200722D01*
X137210000Y-112200000D01*
X138860000Y-112200000D01*
X138874703Y-112200722D01*
G37*
G36*
X138874703Y-110930722D02*
G01*
X138889264Y-110932882D01*
X138903543Y-110936459D01*
X138917403Y-110941418D01*
X138930710Y-110947712D01*
X138943336Y-110955280D01*
X138955159Y-110964048D01*
X138966066Y-110973934D01*
X138975952Y-110984841D01*
X138984720Y-110996664D01*
X138992288Y-111009290D01*
X138998582Y-111022597D01*
X139003541Y-111036457D01*
X139007118Y-111050736D01*
X139009278Y-111065297D01*
X139010000Y-111080000D01*
X139010000Y-111380000D01*
X139009278Y-111394703D01*
X139007118Y-111409264D01*
X139003541Y-111423543D01*
X138998582Y-111437403D01*
X138992288Y-111450710D01*
X138984720Y-111463336D01*
X138975952Y-111475159D01*
X138966066Y-111486066D01*
X138955159Y-111495952D01*
X138943336Y-111504720D01*
X138930710Y-111512288D01*
X138917403Y-111518582D01*
X138903543Y-111523541D01*
X138889264Y-111527118D01*
X138874703Y-111529278D01*
X138860000Y-111530000D01*
X137210000Y-111530000D01*
X137195297Y-111529278D01*
X137180736Y-111527118D01*
X137166457Y-111523541D01*
X137152597Y-111518582D01*
X137139290Y-111512288D01*
X137126664Y-111504720D01*
X137114841Y-111495952D01*
X137103934Y-111486066D01*
X137094048Y-111475159D01*
X137085280Y-111463336D01*
X137077712Y-111450710D01*
X137071418Y-111437403D01*
X137066459Y-111423543D01*
X137062882Y-111409264D01*
X137060722Y-111394703D01*
X137060000Y-111380000D01*
X137060000Y-111080000D01*
X137060722Y-111065297D01*
X137062882Y-111050736D01*
X137066459Y-111036457D01*
X137071418Y-111022597D01*
X137077712Y-111009290D01*
X137085280Y-110996664D01*
X137094048Y-110984841D01*
X137103934Y-110973934D01*
X137114841Y-110964048D01*
X137126664Y-110955280D01*
X137139290Y-110947712D01*
X137152597Y-110941418D01*
X137166457Y-110936459D01*
X137180736Y-110932882D01*
X137195297Y-110930722D01*
X137210000Y-110930000D01*
X138860000Y-110930000D01*
X138874703Y-110930722D01*
G37*
G36*
X138874703Y-109660722D02*
G01*
X138889264Y-109662882D01*
X138903543Y-109666459D01*
X138917403Y-109671418D01*
X138930710Y-109677712D01*
X138943336Y-109685280D01*
X138955159Y-109694048D01*
X138966066Y-109703934D01*
X138975952Y-109714841D01*
X138984720Y-109726664D01*
X138992288Y-109739290D01*
X138998582Y-109752597D01*
X139003541Y-109766457D01*
X139007118Y-109780736D01*
X139009278Y-109795297D01*
X139010000Y-109810000D01*
X139010000Y-110110000D01*
X139009278Y-110124703D01*
X139007118Y-110139264D01*
X139003541Y-110153543D01*
X138998582Y-110167403D01*
X138992288Y-110180710D01*
X138984720Y-110193336D01*
X138975952Y-110205159D01*
X138966066Y-110216066D01*
X138955159Y-110225952D01*
X138943336Y-110234720D01*
X138930710Y-110242288D01*
X138917403Y-110248582D01*
X138903543Y-110253541D01*
X138889264Y-110257118D01*
X138874703Y-110259278D01*
X138860000Y-110260000D01*
X137210000Y-110260000D01*
X137195297Y-110259278D01*
X137180736Y-110257118D01*
X137166457Y-110253541D01*
X137152597Y-110248582D01*
X137139290Y-110242288D01*
X137126664Y-110234720D01*
X137114841Y-110225952D01*
X137103934Y-110216066D01*
X137094048Y-110205159D01*
X137085280Y-110193336D01*
X137077712Y-110180710D01*
X137071418Y-110167403D01*
X137066459Y-110153543D01*
X137062882Y-110139264D01*
X137060722Y-110124703D01*
X137060000Y-110110000D01*
X137060000Y-109810000D01*
X137060722Y-109795297D01*
X137062882Y-109780736D01*
X137066459Y-109766457D01*
X137071418Y-109752597D01*
X137077712Y-109739290D01*
X137085280Y-109726664D01*
X137094048Y-109714841D01*
X137103934Y-109703934D01*
X137114841Y-109694048D01*
X137126664Y-109685280D01*
X137139290Y-109677712D01*
X137152597Y-109671418D01*
X137166457Y-109666459D01*
X137180736Y-109662882D01*
X137195297Y-109660722D01*
X137210000Y-109660000D01*
X138860000Y-109660000D01*
X138874703Y-109660722D01*
G37*
G36*
X138874703Y-108390722D02*
G01*
X138889264Y-108392882D01*
X138903543Y-108396459D01*
X138917403Y-108401418D01*
X138930710Y-108407712D01*
X138943336Y-108415280D01*
X138955159Y-108424048D01*
X138966066Y-108433934D01*
X138975952Y-108444841D01*
X138984720Y-108456664D01*
X138992288Y-108469290D01*
X138998582Y-108482597D01*
X139003541Y-108496457D01*
X139007118Y-108510736D01*
X139009278Y-108525297D01*
X139010000Y-108540000D01*
X139010000Y-108840000D01*
X139009278Y-108854703D01*
X139007118Y-108869264D01*
X139003541Y-108883543D01*
X138998582Y-108897403D01*
X138992288Y-108910710D01*
X138984720Y-108923336D01*
X138975952Y-108935159D01*
X138966066Y-108946066D01*
X138955159Y-108955952D01*
X138943336Y-108964720D01*
X138930710Y-108972288D01*
X138917403Y-108978582D01*
X138903543Y-108983541D01*
X138889264Y-108987118D01*
X138874703Y-108989278D01*
X138860000Y-108990000D01*
X137210000Y-108990000D01*
X137195297Y-108989278D01*
X137180736Y-108987118D01*
X137166457Y-108983541D01*
X137152597Y-108978582D01*
X137139290Y-108972288D01*
X137126664Y-108964720D01*
X137114841Y-108955952D01*
X137103934Y-108946066D01*
X137094048Y-108935159D01*
X137085280Y-108923336D01*
X137077712Y-108910710D01*
X137071418Y-108897403D01*
X137066459Y-108883543D01*
X137062882Y-108869264D01*
X137060722Y-108854703D01*
X137060000Y-108840000D01*
X137060000Y-108540000D01*
X137060722Y-108525297D01*
X137062882Y-108510736D01*
X137066459Y-108496457D01*
X137071418Y-108482597D01*
X137077712Y-108469290D01*
X137085280Y-108456664D01*
X137094048Y-108444841D01*
X137103934Y-108433934D01*
X137114841Y-108424048D01*
X137126664Y-108415280D01*
X137139290Y-108407712D01*
X137152597Y-108401418D01*
X137166457Y-108396459D01*
X137180736Y-108392882D01*
X137195297Y-108390722D01*
X137210000Y-108390000D01*
X138860000Y-108390000D01*
X138874703Y-108390722D01*
G37*
G36*
X113474703Y-108390722D02*
G01*
X113489264Y-108392882D01*
X113503543Y-108396459D01*
X113517403Y-108401418D01*
X113530710Y-108407712D01*
X113543336Y-108415280D01*
X113555159Y-108424048D01*
X113566066Y-108433934D01*
X113575952Y-108444841D01*
X113584720Y-108456664D01*
X113592288Y-108469290D01*
X113598582Y-108482597D01*
X113603541Y-108496457D01*
X113607118Y-108510736D01*
X113609278Y-108525297D01*
X113610000Y-108540000D01*
X113610000Y-108840000D01*
X113609278Y-108854703D01*
X113607118Y-108869264D01*
X113603541Y-108883543D01*
X113598582Y-108897403D01*
X113592288Y-108910710D01*
X113584720Y-108923336D01*
X113575952Y-108935159D01*
X113566066Y-108946066D01*
X113555159Y-108955952D01*
X113543336Y-108964720D01*
X113530710Y-108972288D01*
X113517403Y-108978582D01*
X113503543Y-108983541D01*
X113489264Y-108987118D01*
X113474703Y-108989278D01*
X113460000Y-108990000D01*
X111810000Y-108990000D01*
X111795297Y-108989278D01*
X111780736Y-108987118D01*
X111766457Y-108983541D01*
X111752597Y-108978582D01*
X111739290Y-108972288D01*
X111726664Y-108964720D01*
X111714841Y-108955952D01*
X111703934Y-108946066D01*
X111694048Y-108935159D01*
X111685280Y-108923336D01*
X111677712Y-108910710D01*
X111671418Y-108897403D01*
X111666459Y-108883543D01*
X111662882Y-108869264D01*
X111660722Y-108854703D01*
X111660000Y-108840000D01*
X111660000Y-108540000D01*
X111660722Y-108525297D01*
X111662882Y-108510736D01*
X111666459Y-108496457D01*
X111671418Y-108482597D01*
X111677712Y-108469290D01*
X111685280Y-108456664D01*
X111694048Y-108444841D01*
X111703934Y-108433934D01*
X111714841Y-108424048D01*
X111726664Y-108415280D01*
X111739290Y-108407712D01*
X111752597Y-108401418D01*
X111766457Y-108396459D01*
X111780736Y-108392882D01*
X111795297Y-108390722D01*
X111810000Y-108390000D01*
X113460000Y-108390000D01*
X113474703Y-108390722D01*
G37*
G36*
X113474703Y-109660722D02*
G01*
X113489264Y-109662882D01*
X113503543Y-109666459D01*
X113517403Y-109671418D01*
X113530710Y-109677712D01*
X113543336Y-109685280D01*
X113555159Y-109694048D01*
X113566066Y-109703934D01*
X113575952Y-109714841D01*
X113584720Y-109726664D01*
X113592288Y-109739290D01*
X113598582Y-109752597D01*
X113603541Y-109766457D01*
X113607118Y-109780736D01*
X113609278Y-109795297D01*
X113610000Y-109810000D01*
X113610000Y-110110000D01*
X113609278Y-110124703D01*
X113607118Y-110139264D01*
X113603541Y-110153543D01*
X113598582Y-110167403D01*
X113592288Y-110180710D01*
X113584720Y-110193336D01*
X113575952Y-110205159D01*
X113566066Y-110216066D01*
X113555159Y-110225952D01*
X113543336Y-110234720D01*
X113530710Y-110242288D01*
X113517403Y-110248582D01*
X113503543Y-110253541D01*
X113489264Y-110257118D01*
X113474703Y-110259278D01*
X113460000Y-110260000D01*
X111810000Y-110260000D01*
X111795297Y-110259278D01*
X111780736Y-110257118D01*
X111766457Y-110253541D01*
X111752597Y-110248582D01*
X111739290Y-110242288D01*
X111726664Y-110234720D01*
X111714841Y-110225952D01*
X111703934Y-110216066D01*
X111694048Y-110205159D01*
X111685280Y-110193336D01*
X111677712Y-110180710D01*
X111671418Y-110167403D01*
X111666459Y-110153543D01*
X111662882Y-110139264D01*
X111660722Y-110124703D01*
X111660000Y-110110000D01*
X111660000Y-109810000D01*
X111660722Y-109795297D01*
X111662882Y-109780736D01*
X111666459Y-109766457D01*
X111671418Y-109752597D01*
X111677712Y-109739290D01*
X111685280Y-109726664D01*
X111694048Y-109714841D01*
X111703934Y-109703934D01*
X111714841Y-109694048D01*
X111726664Y-109685280D01*
X111739290Y-109677712D01*
X111752597Y-109671418D01*
X111766457Y-109666459D01*
X111780736Y-109662882D01*
X111795297Y-109660722D01*
X111810000Y-109660000D01*
X113460000Y-109660000D01*
X113474703Y-109660722D01*
G37*
G36*
X113474703Y-110930722D02*
G01*
X113489264Y-110932882D01*
X113503543Y-110936459D01*
X113517403Y-110941418D01*
X113530710Y-110947712D01*
X113543336Y-110955280D01*
X113555159Y-110964048D01*
X113566066Y-110973934D01*
X113575952Y-110984841D01*
X113584720Y-110996664D01*
X113592288Y-111009290D01*
X113598582Y-111022597D01*
X113603541Y-111036457D01*
X113607118Y-111050736D01*
X113609278Y-111065297D01*
X113610000Y-111080000D01*
X113610000Y-111380000D01*
X113609278Y-111394703D01*
X113607118Y-111409264D01*
X113603541Y-111423543D01*
X113598582Y-111437403D01*
X113592288Y-111450710D01*
X113584720Y-111463336D01*
X113575952Y-111475159D01*
X113566066Y-111486066D01*
X113555159Y-111495952D01*
X113543336Y-111504720D01*
X113530710Y-111512288D01*
X113517403Y-111518582D01*
X113503543Y-111523541D01*
X113489264Y-111527118D01*
X113474703Y-111529278D01*
X113460000Y-111530000D01*
X111810000Y-111530000D01*
X111795297Y-111529278D01*
X111780736Y-111527118D01*
X111766457Y-111523541D01*
X111752597Y-111518582D01*
X111739290Y-111512288D01*
X111726664Y-111504720D01*
X111714841Y-111495952D01*
X111703934Y-111486066D01*
X111694048Y-111475159D01*
X111685280Y-111463336D01*
X111677712Y-111450710D01*
X111671418Y-111437403D01*
X111666459Y-111423543D01*
X111662882Y-111409264D01*
X111660722Y-111394703D01*
X111660000Y-111380000D01*
X111660000Y-111080000D01*
X111660722Y-111065297D01*
X111662882Y-111050736D01*
X111666459Y-111036457D01*
X111671418Y-111022597D01*
X111677712Y-111009290D01*
X111685280Y-110996664D01*
X111694048Y-110984841D01*
X111703934Y-110973934D01*
X111714841Y-110964048D01*
X111726664Y-110955280D01*
X111739290Y-110947712D01*
X111752597Y-110941418D01*
X111766457Y-110936459D01*
X111780736Y-110932882D01*
X111795297Y-110930722D01*
X111810000Y-110930000D01*
X113460000Y-110930000D01*
X113474703Y-110930722D01*
G37*
G36*
X113474703Y-112200722D02*
G01*
X113489264Y-112202882D01*
X113503543Y-112206459D01*
X113517403Y-112211418D01*
X113530710Y-112217712D01*
X113543336Y-112225280D01*
X113555159Y-112234048D01*
X113566066Y-112243934D01*
X113575952Y-112254841D01*
X113584720Y-112266664D01*
X113592288Y-112279290D01*
X113598582Y-112292597D01*
X113603541Y-112306457D01*
X113607118Y-112320736D01*
X113609278Y-112335297D01*
X113610000Y-112350000D01*
X113610000Y-112650000D01*
X113609278Y-112664703D01*
X113607118Y-112679264D01*
X113603541Y-112693543D01*
X113598582Y-112707403D01*
X113592288Y-112720710D01*
X113584720Y-112733336D01*
X113575952Y-112745159D01*
X113566066Y-112756066D01*
X113555159Y-112765952D01*
X113543336Y-112774720D01*
X113530710Y-112782288D01*
X113517403Y-112788582D01*
X113503543Y-112793541D01*
X113489264Y-112797118D01*
X113474703Y-112799278D01*
X113460000Y-112800000D01*
X111810000Y-112800000D01*
X111795297Y-112799278D01*
X111780736Y-112797118D01*
X111766457Y-112793541D01*
X111752597Y-112788582D01*
X111739290Y-112782288D01*
X111726664Y-112774720D01*
X111714841Y-112765952D01*
X111703934Y-112756066D01*
X111694048Y-112745159D01*
X111685280Y-112733336D01*
X111677712Y-112720710D01*
X111671418Y-112707403D01*
X111666459Y-112693543D01*
X111662882Y-112679264D01*
X111660722Y-112664703D01*
X111660000Y-112650000D01*
X111660000Y-112350000D01*
X111660722Y-112335297D01*
X111662882Y-112320736D01*
X111666459Y-112306457D01*
X111671418Y-112292597D01*
X111677712Y-112279290D01*
X111685280Y-112266664D01*
X111694048Y-112254841D01*
X111703934Y-112243934D01*
X111714841Y-112234048D01*
X111726664Y-112225280D01*
X111739290Y-112217712D01*
X111752597Y-112211418D01*
X111766457Y-112206459D01*
X111780736Y-112202882D01*
X111795297Y-112200722D01*
X111810000Y-112200000D01*
X113460000Y-112200000D01*
X113474703Y-112200722D01*
G37*
G36*
X113474703Y-113470722D02*
G01*
X113489264Y-113472882D01*
X113503543Y-113476459D01*
X113517403Y-113481418D01*
X113530710Y-113487712D01*
X113543336Y-113495280D01*
X113555159Y-113504048D01*
X113566066Y-113513934D01*
X113575952Y-113524841D01*
X113584720Y-113536664D01*
X113592288Y-113549290D01*
X113598582Y-113562597D01*
X113603541Y-113576457D01*
X113607118Y-113590736D01*
X113609278Y-113605297D01*
X113610000Y-113620000D01*
X113610000Y-113920000D01*
X113609278Y-113934703D01*
X113607118Y-113949264D01*
X113603541Y-113963543D01*
X113598582Y-113977403D01*
X113592288Y-113990710D01*
X113584720Y-114003336D01*
X113575952Y-114015159D01*
X113566066Y-114026066D01*
X113555159Y-114035952D01*
X113543336Y-114044720D01*
X113530710Y-114052288D01*
X113517403Y-114058582D01*
X113503543Y-114063541D01*
X113489264Y-114067118D01*
X113474703Y-114069278D01*
X113460000Y-114070000D01*
X111810000Y-114070000D01*
X111795297Y-114069278D01*
X111780736Y-114067118D01*
X111766457Y-114063541D01*
X111752597Y-114058582D01*
X111739290Y-114052288D01*
X111726664Y-114044720D01*
X111714841Y-114035952D01*
X111703934Y-114026066D01*
X111694048Y-114015159D01*
X111685280Y-114003336D01*
X111677712Y-113990710D01*
X111671418Y-113977403D01*
X111666459Y-113963543D01*
X111662882Y-113949264D01*
X111660722Y-113934703D01*
X111660000Y-113920000D01*
X111660000Y-113620000D01*
X111660722Y-113605297D01*
X111662882Y-113590736D01*
X111666459Y-113576457D01*
X111671418Y-113562597D01*
X111677712Y-113549290D01*
X111685280Y-113536664D01*
X111694048Y-113524841D01*
X111703934Y-113513934D01*
X111714841Y-113504048D01*
X111726664Y-113495280D01*
X111739290Y-113487712D01*
X111752597Y-113481418D01*
X111766457Y-113476459D01*
X111780736Y-113472882D01*
X111795297Y-113470722D01*
X111810000Y-113470000D01*
X113460000Y-113470000D01*
X113474703Y-113470722D01*
G37*
G36*
X113474703Y-114740722D02*
G01*
X113489264Y-114742882D01*
X113503543Y-114746459D01*
X113517403Y-114751418D01*
X113530710Y-114757712D01*
X113543336Y-114765280D01*
X113555159Y-114774048D01*
X113566066Y-114783934D01*
X113575952Y-114794841D01*
X113584720Y-114806664D01*
X113592288Y-114819290D01*
X113598582Y-114832597D01*
X113603541Y-114846457D01*
X113607118Y-114860736D01*
X113609278Y-114875297D01*
X113610000Y-114890000D01*
X113610000Y-115190000D01*
X113609278Y-115204703D01*
X113607118Y-115219264D01*
X113603541Y-115233543D01*
X113598582Y-115247403D01*
X113592288Y-115260710D01*
X113584720Y-115273336D01*
X113575952Y-115285159D01*
X113566066Y-115296066D01*
X113555159Y-115305952D01*
X113543336Y-115314720D01*
X113530710Y-115322288D01*
X113517403Y-115328582D01*
X113503543Y-115333541D01*
X113489264Y-115337118D01*
X113474703Y-115339278D01*
X113460000Y-115340000D01*
X111810000Y-115340000D01*
X111795297Y-115339278D01*
X111780736Y-115337118D01*
X111766457Y-115333541D01*
X111752597Y-115328582D01*
X111739290Y-115322288D01*
X111726664Y-115314720D01*
X111714841Y-115305952D01*
X111703934Y-115296066D01*
X111694048Y-115285159D01*
X111685280Y-115273336D01*
X111677712Y-115260710D01*
X111671418Y-115247403D01*
X111666459Y-115233543D01*
X111662882Y-115219264D01*
X111660722Y-115204703D01*
X111660000Y-115190000D01*
X111660000Y-114890000D01*
X111660722Y-114875297D01*
X111662882Y-114860736D01*
X111666459Y-114846457D01*
X111671418Y-114832597D01*
X111677712Y-114819290D01*
X111685280Y-114806664D01*
X111694048Y-114794841D01*
X111703934Y-114783934D01*
X111714841Y-114774048D01*
X111726664Y-114765280D01*
X111739290Y-114757712D01*
X111752597Y-114751418D01*
X111766457Y-114746459D01*
X111780736Y-114742882D01*
X111795297Y-114740722D01*
X111810000Y-114740000D01*
X113460000Y-114740000D01*
X113474703Y-114740722D01*
G37*
G36*
X113474703Y-116010722D02*
G01*
X113489264Y-116012882D01*
X113503543Y-116016459D01*
X113517403Y-116021418D01*
X113530710Y-116027712D01*
X113543336Y-116035280D01*
X113555159Y-116044048D01*
X113566066Y-116053934D01*
X113575952Y-116064841D01*
X113584720Y-116076664D01*
X113592288Y-116089290D01*
X113598582Y-116102597D01*
X113603541Y-116116457D01*
X113607118Y-116130736D01*
X113609278Y-116145297D01*
X113610000Y-116160000D01*
X113610000Y-116460000D01*
X113609278Y-116474703D01*
X113607118Y-116489264D01*
X113603541Y-116503543D01*
X113598582Y-116517403D01*
X113592288Y-116530710D01*
X113584720Y-116543336D01*
X113575952Y-116555159D01*
X113566066Y-116566066D01*
X113555159Y-116575952D01*
X113543336Y-116584720D01*
X113530710Y-116592288D01*
X113517403Y-116598582D01*
X113503543Y-116603541D01*
X113489264Y-116607118D01*
X113474703Y-116609278D01*
X113460000Y-116610000D01*
X111810000Y-116610000D01*
X111795297Y-116609278D01*
X111780736Y-116607118D01*
X111766457Y-116603541D01*
X111752597Y-116598582D01*
X111739290Y-116592288D01*
X111726664Y-116584720D01*
X111714841Y-116575952D01*
X111703934Y-116566066D01*
X111694048Y-116555159D01*
X111685280Y-116543336D01*
X111677712Y-116530710D01*
X111671418Y-116517403D01*
X111666459Y-116503543D01*
X111662882Y-116489264D01*
X111660722Y-116474703D01*
X111660000Y-116460000D01*
X111660000Y-116160000D01*
X111660722Y-116145297D01*
X111662882Y-116130736D01*
X111666459Y-116116457D01*
X111671418Y-116102597D01*
X111677712Y-116089290D01*
X111685280Y-116076664D01*
X111694048Y-116064841D01*
X111703934Y-116053934D01*
X111714841Y-116044048D01*
X111726664Y-116035280D01*
X111739290Y-116027712D01*
X111752597Y-116021418D01*
X111766457Y-116016459D01*
X111780736Y-116012882D01*
X111795297Y-116010722D01*
X111810000Y-116010000D01*
X113460000Y-116010000D01*
X113474703Y-116010722D01*
G37*
G36*
X108524703Y-116010722D02*
G01*
X108539264Y-116012882D01*
X108553543Y-116016459D01*
X108567403Y-116021418D01*
X108580710Y-116027712D01*
X108593336Y-116035280D01*
X108605159Y-116044048D01*
X108616066Y-116053934D01*
X108625952Y-116064841D01*
X108634720Y-116076664D01*
X108642288Y-116089290D01*
X108648582Y-116102597D01*
X108653541Y-116116457D01*
X108657118Y-116130736D01*
X108659278Y-116145297D01*
X108660000Y-116160000D01*
X108660000Y-116460000D01*
X108659278Y-116474703D01*
X108657118Y-116489264D01*
X108653541Y-116503543D01*
X108648582Y-116517403D01*
X108642288Y-116530710D01*
X108634720Y-116543336D01*
X108625952Y-116555159D01*
X108616066Y-116566066D01*
X108605159Y-116575952D01*
X108593336Y-116584720D01*
X108580710Y-116592288D01*
X108567403Y-116598582D01*
X108553543Y-116603541D01*
X108539264Y-116607118D01*
X108524703Y-116609278D01*
X108510000Y-116610000D01*
X106860000Y-116610000D01*
X106845297Y-116609278D01*
X106830736Y-116607118D01*
X106816457Y-116603541D01*
X106802597Y-116598582D01*
X106789290Y-116592288D01*
X106776664Y-116584720D01*
X106764841Y-116575952D01*
X106753934Y-116566066D01*
X106744048Y-116555159D01*
X106735280Y-116543336D01*
X106727712Y-116530710D01*
X106721418Y-116517403D01*
X106716459Y-116503543D01*
X106712882Y-116489264D01*
X106710722Y-116474703D01*
X106710000Y-116460000D01*
X106710000Y-116160000D01*
X106710722Y-116145297D01*
X106712882Y-116130736D01*
X106716459Y-116116457D01*
X106721418Y-116102597D01*
X106727712Y-116089290D01*
X106735280Y-116076664D01*
X106744048Y-116064841D01*
X106753934Y-116053934D01*
X106764841Y-116044048D01*
X106776664Y-116035280D01*
X106789290Y-116027712D01*
X106802597Y-116021418D01*
X106816457Y-116016459D01*
X106830736Y-116012882D01*
X106845297Y-116010722D01*
X106860000Y-116010000D01*
X108510000Y-116010000D01*
X108524703Y-116010722D01*
G37*
G36*
X108524703Y-114740722D02*
G01*
X108539264Y-114742882D01*
X108553543Y-114746459D01*
X108567403Y-114751418D01*
X108580710Y-114757712D01*
X108593336Y-114765280D01*
X108605159Y-114774048D01*
X108616066Y-114783934D01*
X108625952Y-114794841D01*
X108634720Y-114806664D01*
X108642288Y-114819290D01*
X108648582Y-114832597D01*
X108653541Y-114846457D01*
X108657118Y-114860736D01*
X108659278Y-114875297D01*
X108660000Y-114890000D01*
X108660000Y-115190000D01*
X108659278Y-115204703D01*
X108657118Y-115219264D01*
X108653541Y-115233543D01*
X108648582Y-115247403D01*
X108642288Y-115260710D01*
X108634720Y-115273336D01*
X108625952Y-115285159D01*
X108616066Y-115296066D01*
X108605159Y-115305952D01*
X108593336Y-115314720D01*
X108580710Y-115322288D01*
X108567403Y-115328582D01*
X108553543Y-115333541D01*
X108539264Y-115337118D01*
X108524703Y-115339278D01*
X108510000Y-115340000D01*
X106860000Y-115340000D01*
X106845297Y-115339278D01*
X106830736Y-115337118D01*
X106816457Y-115333541D01*
X106802597Y-115328582D01*
X106789290Y-115322288D01*
X106776664Y-115314720D01*
X106764841Y-115305952D01*
X106753934Y-115296066D01*
X106744048Y-115285159D01*
X106735280Y-115273336D01*
X106727712Y-115260710D01*
X106721418Y-115247403D01*
X106716459Y-115233543D01*
X106712882Y-115219264D01*
X106710722Y-115204703D01*
X106710000Y-115190000D01*
X106710000Y-114890000D01*
X106710722Y-114875297D01*
X106712882Y-114860736D01*
X106716459Y-114846457D01*
X106721418Y-114832597D01*
X106727712Y-114819290D01*
X106735280Y-114806664D01*
X106744048Y-114794841D01*
X106753934Y-114783934D01*
X106764841Y-114774048D01*
X106776664Y-114765280D01*
X106789290Y-114757712D01*
X106802597Y-114751418D01*
X106816457Y-114746459D01*
X106830736Y-114742882D01*
X106845297Y-114740722D01*
X106860000Y-114740000D01*
X108510000Y-114740000D01*
X108524703Y-114740722D01*
G37*
G36*
X108524703Y-113470722D02*
G01*
X108539264Y-113472882D01*
X108553543Y-113476459D01*
X108567403Y-113481418D01*
X108580710Y-113487712D01*
X108593336Y-113495280D01*
X108605159Y-113504048D01*
X108616066Y-113513934D01*
X108625952Y-113524841D01*
X108634720Y-113536664D01*
X108642288Y-113549290D01*
X108648582Y-113562597D01*
X108653541Y-113576457D01*
X108657118Y-113590736D01*
X108659278Y-113605297D01*
X108660000Y-113620000D01*
X108660000Y-113920000D01*
X108659278Y-113934703D01*
X108657118Y-113949264D01*
X108653541Y-113963543D01*
X108648582Y-113977403D01*
X108642288Y-113990710D01*
X108634720Y-114003336D01*
X108625952Y-114015159D01*
X108616066Y-114026066D01*
X108605159Y-114035952D01*
X108593336Y-114044720D01*
X108580710Y-114052288D01*
X108567403Y-114058582D01*
X108553543Y-114063541D01*
X108539264Y-114067118D01*
X108524703Y-114069278D01*
X108510000Y-114070000D01*
X106860000Y-114070000D01*
X106845297Y-114069278D01*
X106830736Y-114067118D01*
X106816457Y-114063541D01*
X106802597Y-114058582D01*
X106789290Y-114052288D01*
X106776664Y-114044720D01*
X106764841Y-114035952D01*
X106753934Y-114026066D01*
X106744048Y-114015159D01*
X106735280Y-114003336D01*
X106727712Y-113990710D01*
X106721418Y-113977403D01*
X106716459Y-113963543D01*
X106712882Y-113949264D01*
X106710722Y-113934703D01*
X106710000Y-113920000D01*
X106710000Y-113620000D01*
X106710722Y-113605297D01*
X106712882Y-113590736D01*
X106716459Y-113576457D01*
X106721418Y-113562597D01*
X106727712Y-113549290D01*
X106735280Y-113536664D01*
X106744048Y-113524841D01*
X106753934Y-113513934D01*
X106764841Y-113504048D01*
X106776664Y-113495280D01*
X106789290Y-113487712D01*
X106802597Y-113481418D01*
X106816457Y-113476459D01*
X106830736Y-113472882D01*
X106845297Y-113470722D01*
X106860000Y-113470000D01*
X108510000Y-113470000D01*
X108524703Y-113470722D01*
G37*
G36*
X108524703Y-112200722D02*
G01*
X108539264Y-112202882D01*
X108553543Y-112206459D01*
X108567403Y-112211418D01*
X108580710Y-112217712D01*
X108593336Y-112225280D01*
X108605159Y-112234048D01*
X108616066Y-112243934D01*
X108625952Y-112254841D01*
X108634720Y-112266664D01*
X108642288Y-112279290D01*
X108648582Y-112292597D01*
X108653541Y-112306457D01*
X108657118Y-112320736D01*
X108659278Y-112335297D01*
X108660000Y-112350000D01*
X108660000Y-112650000D01*
X108659278Y-112664703D01*
X108657118Y-112679264D01*
X108653541Y-112693543D01*
X108648582Y-112707403D01*
X108642288Y-112720710D01*
X108634720Y-112733336D01*
X108625952Y-112745159D01*
X108616066Y-112756066D01*
X108605159Y-112765952D01*
X108593336Y-112774720D01*
X108580710Y-112782288D01*
X108567403Y-112788582D01*
X108553543Y-112793541D01*
X108539264Y-112797118D01*
X108524703Y-112799278D01*
X108510000Y-112800000D01*
X106860000Y-112800000D01*
X106845297Y-112799278D01*
X106830736Y-112797118D01*
X106816457Y-112793541D01*
X106802597Y-112788582D01*
X106789290Y-112782288D01*
X106776664Y-112774720D01*
X106764841Y-112765952D01*
X106753934Y-112756066D01*
X106744048Y-112745159D01*
X106735280Y-112733336D01*
X106727712Y-112720710D01*
X106721418Y-112707403D01*
X106716459Y-112693543D01*
X106712882Y-112679264D01*
X106710722Y-112664703D01*
X106710000Y-112650000D01*
X106710000Y-112350000D01*
X106710722Y-112335297D01*
X106712882Y-112320736D01*
X106716459Y-112306457D01*
X106721418Y-112292597D01*
X106727712Y-112279290D01*
X106735280Y-112266664D01*
X106744048Y-112254841D01*
X106753934Y-112243934D01*
X106764841Y-112234048D01*
X106776664Y-112225280D01*
X106789290Y-112217712D01*
X106802597Y-112211418D01*
X106816457Y-112206459D01*
X106830736Y-112202882D01*
X106845297Y-112200722D01*
X106860000Y-112200000D01*
X108510000Y-112200000D01*
X108524703Y-112200722D01*
G37*
G36*
X108524703Y-110930722D02*
G01*
X108539264Y-110932882D01*
X108553543Y-110936459D01*
X108567403Y-110941418D01*
X108580710Y-110947712D01*
X108593336Y-110955280D01*
X108605159Y-110964048D01*
X108616066Y-110973934D01*
X108625952Y-110984841D01*
X108634720Y-110996664D01*
X108642288Y-111009290D01*
X108648582Y-111022597D01*
X108653541Y-111036457D01*
X108657118Y-111050736D01*
X108659278Y-111065297D01*
X108660000Y-111080000D01*
X108660000Y-111380000D01*
X108659278Y-111394703D01*
X108657118Y-111409264D01*
X108653541Y-111423543D01*
X108648582Y-111437403D01*
X108642288Y-111450710D01*
X108634720Y-111463336D01*
X108625952Y-111475159D01*
X108616066Y-111486066D01*
X108605159Y-111495952D01*
X108593336Y-111504720D01*
X108580710Y-111512288D01*
X108567403Y-111518582D01*
X108553543Y-111523541D01*
X108539264Y-111527118D01*
X108524703Y-111529278D01*
X108510000Y-111530000D01*
X106860000Y-111530000D01*
X106845297Y-111529278D01*
X106830736Y-111527118D01*
X106816457Y-111523541D01*
X106802597Y-111518582D01*
X106789290Y-111512288D01*
X106776664Y-111504720D01*
X106764841Y-111495952D01*
X106753934Y-111486066D01*
X106744048Y-111475159D01*
X106735280Y-111463336D01*
X106727712Y-111450710D01*
X106721418Y-111437403D01*
X106716459Y-111423543D01*
X106712882Y-111409264D01*
X106710722Y-111394703D01*
X106710000Y-111380000D01*
X106710000Y-111080000D01*
X106710722Y-111065297D01*
X106712882Y-111050736D01*
X106716459Y-111036457D01*
X106721418Y-111022597D01*
X106727712Y-111009290D01*
X106735280Y-110996664D01*
X106744048Y-110984841D01*
X106753934Y-110973934D01*
X106764841Y-110964048D01*
X106776664Y-110955280D01*
X106789290Y-110947712D01*
X106802597Y-110941418D01*
X106816457Y-110936459D01*
X106830736Y-110932882D01*
X106845297Y-110930722D01*
X106860000Y-110930000D01*
X108510000Y-110930000D01*
X108524703Y-110930722D01*
G37*
G36*
X108524703Y-109660722D02*
G01*
X108539264Y-109662882D01*
X108553543Y-109666459D01*
X108567403Y-109671418D01*
X108580710Y-109677712D01*
X108593336Y-109685280D01*
X108605159Y-109694048D01*
X108616066Y-109703934D01*
X108625952Y-109714841D01*
X108634720Y-109726664D01*
X108642288Y-109739290D01*
X108648582Y-109752597D01*
X108653541Y-109766457D01*
X108657118Y-109780736D01*
X108659278Y-109795297D01*
X108660000Y-109810000D01*
X108660000Y-110110000D01*
X108659278Y-110124703D01*
X108657118Y-110139264D01*
X108653541Y-110153543D01*
X108648582Y-110167403D01*
X108642288Y-110180710D01*
X108634720Y-110193336D01*
X108625952Y-110205159D01*
X108616066Y-110216066D01*
X108605159Y-110225952D01*
X108593336Y-110234720D01*
X108580710Y-110242288D01*
X108567403Y-110248582D01*
X108553543Y-110253541D01*
X108539264Y-110257118D01*
X108524703Y-110259278D01*
X108510000Y-110260000D01*
X106860000Y-110260000D01*
X106845297Y-110259278D01*
X106830736Y-110257118D01*
X106816457Y-110253541D01*
X106802597Y-110248582D01*
X106789290Y-110242288D01*
X106776664Y-110234720D01*
X106764841Y-110225952D01*
X106753934Y-110216066D01*
X106744048Y-110205159D01*
X106735280Y-110193336D01*
X106727712Y-110180710D01*
X106721418Y-110167403D01*
X106716459Y-110153543D01*
X106712882Y-110139264D01*
X106710722Y-110124703D01*
X106710000Y-110110000D01*
X106710000Y-109810000D01*
X106710722Y-109795297D01*
X106712882Y-109780736D01*
X106716459Y-109766457D01*
X106721418Y-109752597D01*
X106727712Y-109739290D01*
X106735280Y-109726664D01*
X106744048Y-109714841D01*
X106753934Y-109703934D01*
X106764841Y-109694048D01*
X106776664Y-109685280D01*
X106789290Y-109677712D01*
X106802597Y-109671418D01*
X106816457Y-109666459D01*
X106830736Y-109662882D01*
X106845297Y-109660722D01*
X106860000Y-109660000D01*
X108510000Y-109660000D01*
X108524703Y-109660722D01*
G37*
G36*
X108524703Y-108390722D02*
G01*
X108539264Y-108392882D01*
X108553543Y-108396459D01*
X108567403Y-108401418D01*
X108580710Y-108407712D01*
X108593336Y-108415280D01*
X108605159Y-108424048D01*
X108616066Y-108433934D01*
X108625952Y-108444841D01*
X108634720Y-108456664D01*
X108642288Y-108469290D01*
X108648582Y-108482597D01*
X108653541Y-108496457D01*
X108657118Y-108510736D01*
X108659278Y-108525297D01*
X108660000Y-108540000D01*
X108660000Y-108840000D01*
X108659278Y-108854703D01*
X108657118Y-108869264D01*
X108653541Y-108883543D01*
X108648582Y-108897403D01*
X108642288Y-108910710D01*
X108634720Y-108923336D01*
X108625952Y-108935159D01*
X108616066Y-108946066D01*
X108605159Y-108955952D01*
X108593336Y-108964720D01*
X108580710Y-108972288D01*
X108567403Y-108978582D01*
X108553543Y-108983541D01*
X108539264Y-108987118D01*
X108524703Y-108989278D01*
X108510000Y-108990000D01*
X106860000Y-108990000D01*
X106845297Y-108989278D01*
X106830736Y-108987118D01*
X106816457Y-108983541D01*
X106802597Y-108978582D01*
X106789290Y-108972288D01*
X106776664Y-108964720D01*
X106764841Y-108955952D01*
X106753934Y-108946066D01*
X106744048Y-108935159D01*
X106735280Y-108923336D01*
X106727712Y-108910710D01*
X106721418Y-108897403D01*
X106716459Y-108883543D01*
X106712882Y-108869264D01*
X106710722Y-108854703D01*
X106710000Y-108840000D01*
X106710000Y-108540000D01*
X106710722Y-108525297D01*
X106712882Y-108510736D01*
X106716459Y-108496457D01*
X106721418Y-108482597D01*
X106727712Y-108469290D01*
X106735280Y-108456664D01*
X106744048Y-108444841D01*
X106753934Y-108433934D01*
X106764841Y-108424048D01*
X106776664Y-108415280D01*
X106789290Y-108407712D01*
X106802597Y-108401418D01*
X106816457Y-108396459D01*
X106830736Y-108392882D01*
X106845297Y-108390722D01*
X106860000Y-108390000D01*
X108510000Y-108390000D01*
X108524703Y-108390722D01*
G37*
M02*
