G04 #@! TF.GenerationSoftware,KiCad,Pcbnew,(5.1.5)-3*
G04 #@! TF.CreationDate,2020-08-30T12:24:17-07:00*
G04 #@! TF.ProjectId,comparator,636f6d70-6172-4617-946f-722e6b696361,rev?*
G04 #@! TF.SameCoordinates,Original*
G04 #@! TF.FileFunction,Copper,L1,Top*
G04 #@! TF.FilePolarity,Positive*
%FSLAX46Y46*%
G04 Gerber Fmt 4.6, Leading zero omitted, Abs format (unit mm)*
G04 Created by KiCad (PCBNEW (5.1.5)-3) date 2020-08-30 12:24:17*
%MOMM*%
%LPD*%
G04 APERTURE LIST*
%ADD10C,0.300000*%
%ADD11C,0.100000*%
%ADD12R,2.100000X2.100000*%
%ADD13C,2.100000*%
%ADD14R,0.800000X0.500000*%
%ADD15R,0.800000X0.400000*%
%ADD16C,0.800000*%
%ADD17C,0.250000*%
%ADD18C,0.254000*%
G04 APERTURE END LIST*
D10*
X152579761Y-119133333D02*
X152579761Y-118752380D01*
X152675000Y-118561904D01*
X152865476Y-118371428D01*
X153246428Y-118276190D01*
X153913095Y-118276190D01*
X154294047Y-118371428D01*
X154484523Y-118561904D01*
X154579761Y-118752380D01*
X154579761Y-119133333D01*
X154484523Y-119323809D01*
X154294047Y-119514285D01*
X153913095Y-119609523D01*
X153246428Y-119609523D01*
X152865476Y-119514285D01*
X152675000Y-119323809D01*
X152579761Y-119133333D01*
X153246428Y-116561904D02*
X154579761Y-116561904D01*
X153246428Y-117419047D02*
X154294047Y-117419047D01*
X154484523Y-117323809D01*
X154579761Y-117133333D01*
X154579761Y-116847619D01*
X154484523Y-116657142D01*
X154389285Y-116561904D01*
X153246428Y-115895238D02*
X153246428Y-115133333D01*
X152579761Y-115609523D02*
X154294047Y-115609523D01*
X154484523Y-115514285D01*
X154579761Y-115323809D01*
X154579761Y-115133333D01*
X153246428Y-114466666D02*
X155246428Y-114466666D01*
X153341666Y-114466666D02*
X153246428Y-114276190D01*
X153246428Y-113895238D01*
X153341666Y-113704761D01*
X153436904Y-113609523D01*
X153627380Y-113514285D01*
X154198809Y-113514285D01*
X154389285Y-113609523D01*
X154484523Y-113704761D01*
X154579761Y-113895238D01*
X154579761Y-114276190D01*
X154484523Y-114466666D01*
X153246428Y-111800000D02*
X154579761Y-111800000D01*
X153246428Y-112657142D02*
X154294047Y-112657142D01*
X154484523Y-112561904D01*
X154579761Y-112371428D01*
X154579761Y-112085714D01*
X154484523Y-111895238D01*
X154389285Y-111800000D01*
X153246428Y-111133333D02*
X153246428Y-110371428D01*
X152579761Y-110847619D02*
X154294047Y-110847619D01*
X154484523Y-110752380D01*
X154579761Y-110561904D01*
X154579761Y-110371428D01*
X154484523Y-109800000D02*
X154579761Y-109609523D01*
X154579761Y-109228571D01*
X154484523Y-109038095D01*
X154294047Y-108942857D01*
X154198809Y-108942857D01*
X154008333Y-109038095D01*
X153913095Y-109228571D01*
X153913095Y-109514285D01*
X153817857Y-109704761D01*
X153627380Y-109800000D01*
X153532142Y-109800000D01*
X153341666Y-109704761D01*
X153246428Y-109514285D01*
X153246428Y-109228571D01*
X153341666Y-109038095D01*
X153817857Y-108085714D02*
X153817857Y-106561904D01*
X153246428Y-105609523D02*
X153817857Y-104085714D01*
X154389285Y-105609523D01*
X91421428Y-117722619D02*
X91992857Y-119246428D01*
X92564285Y-117722619D01*
X91992857Y-116770238D02*
X91992857Y-115246428D01*
X92754761Y-114294047D02*
X90754761Y-114294047D01*
X91421428Y-113341666D02*
X92754761Y-113341666D01*
X91611904Y-113341666D02*
X91516666Y-113246428D01*
X91421428Y-113055952D01*
X91421428Y-112770238D01*
X91516666Y-112579761D01*
X91707142Y-112484523D01*
X92754761Y-112484523D01*
X91421428Y-111532142D02*
X93421428Y-111532142D01*
X91516666Y-111532142D02*
X91421428Y-111341666D01*
X91421428Y-110960714D01*
X91516666Y-110770238D01*
X91611904Y-110675000D01*
X91802380Y-110579761D01*
X92373809Y-110579761D01*
X92564285Y-110675000D01*
X92659523Y-110770238D01*
X92754761Y-110960714D01*
X92754761Y-111341666D01*
X92659523Y-111532142D01*
X91421428Y-108865476D02*
X92754761Y-108865476D01*
X91421428Y-109722619D02*
X92469047Y-109722619D01*
X92659523Y-109627380D01*
X92754761Y-109436904D01*
X92754761Y-109151190D01*
X92659523Y-108960714D01*
X92564285Y-108865476D01*
X91421428Y-108198809D02*
X91421428Y-107436904D01*
X90754761Y-107913095D02*
X92469047Y-107913095D01*
X92659523Y-107817857D01*
X92754761Y-107627380D01*
X92754761Y-107436904D01*
X92659523Y-106865476D02*
X92754761Y-106675000D01*
X92754761Y-106294047D01*
X92659523Y-106103571D01*
X92469047Y-106008333D01*
X92373809Y-106008333D01*
X92183333Y-106103571D01*
X92088095Y-106294047D01*
X92088095Y-106579761D01*
X91992857Y-106770238D01*
X91802380Y-106865476D01*
X91707142Y-106865476D01*
X91516666Y-106770238D01*
X91421428Y-106579761D01*
X91421428Y-106294047D01*
X91516666Y-106103571D01*
G04 #@! TA.AperFunction,SMDPad,CuDef*
D11*
G36*
X100277691Y-111276053D02*
G01*
X100298926Y-111279203D01*
X100319750Y-111284419D01*
X100339962Y-111291651D01*
X100359368Y-111300830D01*
X100377781Y-111311866D01*
X100395024Y-111324654D01*
X100410930Y-111339070D01*
X100425346Y-111354976D01*
X100438134Y-111372219D01*
X100449170Y-111390632D01*
X100458349Y-111410038D01*
X100465581Y-111430250D01*
X100470797Y-111451074D01*
X100473947Y-111472309D01*
X100475000Y-111493750D01*
X100475000Y-111931250D01*
X100473947Y-111952691D01*
X100470797Y-111973926D01*
X100465581Y-111994750D01*
X100458349Y-112014962D01*
X100449170Y-112034368D01*
X100438134Y-112052781D01*
X100425346Y-112070024D01*
X100410930Y-112085930D01*
X100395024Y-112100346D01*
X100377781Y-112113134D01*
X100359368Y-112124170D01*
X100339962Y-112133349D01*
X100319750Y-112140581D01*
X100298926Y-112145797D01*
X100277691Y-112148947D01*
X100256250Y-112150000D01*
X99743750Y-112150000D01*
X99722309Y-112148947D01*
X99701074Y-112145797D01*
X99680250Y-112140581D01*
X99660038Y-112133349D01*
X99640632Y-112124170D01*
X99622219Y-112113134D01*
X99604976Y-112100346D01*
X99589070Y-112085930D01*
X99574654Y-112070024D01*
X99561866Y-112052781D01*
X99550830Y-112034368D01*
X99541651Y-112014962D01*
X99534419Y-111994750D01*
X99529203Y-111973926D01*
X99526053Y-111952691D01*
X99525000Y-111931250D01*
X99525000Y-111493750D01*
X99526053Y-111472309D01*
X99529203Y-111451074D01*
X99534419Y-111430250D01*
X99541651Y-111410038D01*
X99550830Y-111390632D01*
X99561866Y-111372219D01*
X99574654Y-111354976D01*
X99589070Y-111339070D01*
X99604976Y-111324654D01*
X99622219Y-111311866D01*
X99640632Y-111300830D01*
X99660038Y-111291651D01*
X99680250Y-111284419D01*
X99701074Y-111279203D01*
X99722309Y-111276053D01*
X99743750Y-111275000D01*
X100256250Y-111275000D01*
X100277691Y-111276053D01*
G37*
G04 #@! TD.AperFunction*
G04 #@! TA.AperFunction,SMDPad,CuDef*
G36*
X100277691Y-112851053D02*
G01*
X100298926Y-112854203D01*
X100319750Y-112859419D01*
X100339962Y-112866651D01*
X100359368Y-112875830D01*
X100377781Y-112886866D01*
X100395024Y-112899654D01*
X100410930Y-112914070D01*
X100425346Y-112929976D01*
X100438134Y-112947219D01*
X100449170Y-112965632D01*
X100458349Y-112985038D01*
X100465581Y-113005250D01*
X100470797Y-113026074D01*
X100473947Y-113047309D01*
X100475000Y-113068750D01*
X100475000Y-113506250D01*
X100473947Y-113527691D01*
X100470797Y-113548926D01*
X100465581Y-113569750D01*
X100458349Y-113589962D01*
X100449170Y-113609368D01*
X100438134Y-113627781D01*
X100425346Y-113645024D01*
X100410930Y-113660930D01*
X100395024Y-113675346D01*
X100377781Y-113688134D01*
X100359368Y-113699170D01*
X100339962Y-113708349D01*
X100319750Y-113715581D01*
X100298926Y-113720797D01*
X100277691Y-113723947D01*
X100256250Y-113725000D01*
X99743750Y-113725000D01*
X99722309Y-113723947D01*
X99701074Y-113720797D01*
X99680250Y-113715581D01*
X99660038Y-113708349D01*
X99640632Y-113699170D01*
X99622219Y-113688134D01*
X99604976Y-113675346D01*
X99589070Y-113660930D01*
X99574654Y-113645024D01*
X99561866Y-113627781D01*
X99550830Y-113609368D01*
X99541651Y-113589962D01*
X99534419Y-113569750D01*
X99529203Y-113548926D01*
X99526053Y-113527691D01*
X99525000Y-113506250D01*
X99525000Y-113068750D01*
X99526053Y-113047309D01*
X99529203Y-113026074D01*
X99534419Y-113005250D01*
X99541651Y-112985038D01*
X99550830Y-112965632D01*
X99561866Y-112947219D01*
X99574654Y-112929976D01*
X99589070Y-112914070D01*
X99604976Y-112899654D01*
X99622219Y-112886866D01*
X99640632Y-112875830D01*
X99660038Y-112866651D01*
X99680250Y-112859419D01*
X99701074Y-112854203D01*
X99722309Y-112851053D01*
X99743750Y-112850000D01*
X100256250Y-112850000D01*
X100277691Y-112851053D01*
G37*
G04 #@! TD.AperFunction*
G04 #@! TA.AperFunction,SMDPad,CuDef*
G36*
X145997691Y-111276053D02*
G01*
X146018926Y-111279203D01*
X146039750Y-111284419D01*
X146059962Y-111291651D01*
X146079368Y-111300830D01*
X146097781Y-111311866D01*
X146115024Y-111324654D01*
X146130930Y-111339070D01*
X146145346Y-111354976D01*
X146158134Y-111372219D01*
X146169170Y-111390632D01*
X146178349Y-111410038D01*
X146185581Y-111430250D01*
X146190797Y-111451074D01*
X146193947Y-111472309D01*
X146195000Y-111493750D01*
X146195000Y-111931250D01*
X146193947Y-111952691D01*
X146190797Y-111973926D01*
X146185581Y-111994750D01*
X146178349Y-112014962D01*
X146169170Y-112034368D01*
X146158134Y-112052781D01*
X146145346Y-112070024D01*
X146130930Y-112085930D01*
X146115024Y-112100346D01*
X146097781Y-112113134D01*
X146079368Y-112124170D01*
X146059962Y-112133349D01*
X146039750Y-112140581D01*
X146018926Y-112145797D01*
X145997691Y-112148947D01*
X145976250Y-112150000D01*
X145463750Y-112150000D01*
X145442309Y-112148947D01*
X145421074Y-112145797D01*
X145400250Y-112140581D01*
X145380038Y-112133349D01*
X145360632Y-112124170D01*
X145342219Y-112113134D01*
X145324976Y-112100346D01*
X145309070Y-112085930D01*
X145294654Y-112070024D01*
X145281866Y-112052781D01*
X145270830Y-112034368D01*
X145261651Y-112014962D01*
X145254419Y-111994750D01*
X145249203Y-111973926D01*
X145246053Y-111952691D01*
X145245000Y-111931250D01*
X145245000Y-111493750D01*
X145246053Y-111472309D01*
X145249203Y-111451074D01*
X145254419Y-111430250D01*
X145261651Y-111410038D01*
X145270830Y-111390632D01*
X145281866Y-111372219D01*
X145294654Y-111354976D01*
X145309070Y-111339070D01*
X145324976Y-111324654D01*
X145342219Y-111311866D01*
X145360632Y-111300830D01*
X145380038Y-111291651D01*
X145400250Y-111284419D01*
X145421074Y-111279203D01*
X145442309Y-111276053D01*
X145463750Y-111275000D01*
X145976250Y-111275000D01*
X145997691Y-111276053D01*
G37*
G04 #@! TD.AperFunction*
G04 #@! TA.AperFunction,SMDPad,CuDef*
G36*
X145997691Y-112851053D02*
G01*
X146018926Y-112854203D01*
X146039750Y-112859419D01*
X146059962Y-112866651D01*
X146079368Y-112875830D01*
X146097781Y-112886866D01*
X146115024Y-112899654D01*
X146130930Y-112914070D01*
X146145346Y-112929976D01*
X146158134Y-112947219D01*
X146169170Y-112965632D01*
X146178349Y-112985038D01*
X146185581Y-113005250D01*
X146190797Y-113026074D01*
X146193947Y-113047309D01*
X146195000Y-113068750D01*
X146195000Y-113506250D01*
X146193947Y-113527691D01*
X146190797Y-113548926D01*
X146185581Y-113569750D01*
X146178349Y-113589962D01*
X146169170Y-113609368D01*
X146158134Y-113627781D01*
X146145346Y-113645024D01*
X146130930Y-113660930D01*
X146115024Y-113675346D01*
X146097781Y-113688134D01*
X146079368Y-113699170D01*
X146059962Y-113708349D01*
X146039750Y-113715581D01*
X146018926Y-113720797D01*
X145997691Y-113723947D01*
X145976250Y-113725000D01*
X145463750Y-113725000D01*
X145442309Y-113723947D01*
X145421074Y-113720797D01*
X145400250Y-113715581D01*
X145380038Y-113708349D01*
X145360632Y-113699170D01*
X145342219Y-113688134D01*
X145324976Y-113675346D01*
X145309070Y-113660930D01*
X145294654Y-113645024D01*
X145281866Y-113627781D01*
X145270830Y-113609368D01*
X145261651Y-113589962D01*
X145254419Y-113569750D01*
X145249203Y-113548926D01*
X145246053Y-113527691D01*
X145245000Y-113506250D01*
X145245000Y-113068750D01*
X145246053Y-113047309D01*
X145249203Y-113026074D01*
X145254419Y-113005250D01*
X145261651Y-112985038D01*
X145270830Y-112965632D01*
X145281866Y-112947219D01*
X145294654Y-112929976D01*
X145309070Y-112914070D01*
X145324976Y-112899654D01*
X145342219Y-112886866D01*
X145360632Y-112875830D01*
X145380038Y-112866651D01*
X145400250Y-112859419D01*
X145421074Y-112854203D01*
X145442309Y-112851053D01*
X145463750Y-112850000D01*
X145976250Y-112850000D01*
X145997691Y-112851053D01*
G37*
G04 #@! TD.AperFunction*
D12*
X100000000Y-100000000D03*
D13*
X105080000Y-100000000D03*
X110160000Y-100000000D03*
X115240000Y-100000000D03*
X120320000Y-100000000D03*
X125400000Y-100000000D03*
X130480000Y-100000000D03*
X135560000Y-100000000D03*
X140640000Y-100000000D03*
X145720000Y-100000000D03*
X145720000Y-125000000D03*
X140640000Y-125000000D03*
X135560000Y-125000000D03*
X130480000Y-125000000D03*
X125400000Y-125000000D03*
X120320000Y-125000000D03*
X115240000Y-125000000D03*
X110160000Y-125000000D03*
X105080000Y-125000000D03*
D12*
X100000000Y-125000000D03*
D14*
X126300000Y-113700000D03*
D15*
X126300000Y-112100000D03*
X126300000Y-112900000D03*
D14*
X126300000Y-111300000D03*
D15*
X124500000Y-112900000D03*
D14*
X124500000Y-113700000D03*
D15*
X124500000Y-112100000D03*
D14*
X124500000Y-111300000D03*
X121220000Y-113700000D03*
D15*
X121220000Y-112900000D03*
D14*
X121220000Y-111300000D03*
D15*
X121220000Y-112100000D03*
D14*
X119420000Y-113700000D03*
D15*
X119420000Y-112100000D03*
X119420000Y-112900000D03*
D14*
X119420000Y-111300000D03*
G04 #@! TA.AperFunction,SMDPad,CuDef*
D11*
G36*
X133924703Y-108390722D02*
G01*
X133939264Y-108392882D01*
X133953543Y-108396459D01*
X133967403Y-108401418D01*
X133980710Y-108407712D01*
X133993336Y-108415280D01*
X134005159Y-108424048D01*
X134016066Y-108433934D01*
X134025952Y-108444841D01*
X134034720Y-108456664D01*
X134042288Y-108469290D01*
X134048582Y-108482597D01*
X134053541Y-108496457D01*
X134057118Y-108510736D01*
X134059278Y-108525297D01*
X134060000Y-108540000D01*
X134060000Y-108840000D01*
X134059278Y-108854703D01*
X134057118Y-108869264D01*
X134053541Y-108883543D01*
X134048582Y-108897403D01*
X134042288Y-108910710D01*
X134034720Y-108923336D01*
X134025952Y-108935159D01*
X134016066Y-108946066D01*
X134005159Y-108955952D01*
X133993336Y-108964720D01*
X133980710Y-108972288D01*
X133967403Y-108978582D01*
X133953543Y-108983541D01*
X133939264Y-108987118D01*
X133924703Y-108989278D01*
X133910000Y-108990000D01*
X132260000Y-108990000D01*
X132245297Y-108989278D01*
X132230736Y-108987118D01*
X132216457Y-108983541D01*
X132202597Y-108978582D01*
X132189290Y-108972288D01*
X132176664Y-108964720D01*
X132164841Y-108955952D01*
X132153934Y-108946066D01*
X132144048Y-108935159D01*
X132135280Y-108923336D01*
X132127712Y-108910710D01*
X132121418Y-108897403D01*
X132116459Y-108883543D01*
X132112882Y-108869264D01*
X132110722Y-108854703D01*
X132110000Y-108840000D01*
X132110000Y-108540000D01*
X132110722Y-108525297D01*
X132112882Y-108510736D01*
X132116459Y-108496457D01*
X132121418Y-108482597D01*
X132127712Y-108469290D01*
X132135280Y-108456664D01*
X132144048Y-108444841D01*
X132153934Y-108433934D01*
X132164841Y-108424048D01*
X132176664Y-108415280D01*
X132189290Y-108407712D01*
X132202597Y-108401418D01*
X132216457Y-108396459D01*
X132230736Y-108392882D01*
X132245297Y-108390722D01*
X132260000Y-108390000D01*
X133910000Y-108390000D01*
X133924703Y-108390722D01*
G37*
G04 #@! TD.AperFunction*
G04 #@! TA.AperFunction,SMDPad,CuDef*
G36*
X133924703Y-109660722D02*
G01*
X133939264Y-109662882D01*
X133953543Y-109666459D01*
X133967403Y-109671418D01*
X133980710Y-109677712D01*
X133993336Y-109685280D01*
X134005159Y-109694048D01*
X134016066Y-109703934D01*
X134025952Y-109714841D01*
X134034720Y-109726664D01*
X134042288Y-109739290D01*
X134048582Y-109752597D01*
X134053541Y-109766457D01*
X134057118Y-109780736D01*
X134059278Y-109795297D01*
X134060000Y-109810000D01*
X134060000Y-110110000D01*
X134059278Y-110124703D01*
X134057118Y-110139264D01*
X134053541Y-110153543D01*
X134048582Y-110167403D01*
X134042288Y-110180710D01*
X134034720Y-110193336D01*
X134025952Y-110205159D01*
X134016066Y-110216066D01*
X134005159Y-110225952D01*
X133993336Y-110234720D01*
X133980710Y-110242288D01*
X133967403Y-110248582D01*
X133953543Y-110253541D01*
X133939264Y-110257118D01*
X133924703Y-110259278D01*
X133910000Y-110260000D01*
X132260000Y-110260000D01*
X132245297Y-110259278D01*
X132230736Y-110257118D01*
X132216457Y-110253541D01*
X132202597Y-110248582D01*
X132189290Y-110242288D01*
X132176664Y-110234720D01*
X132164841Y-110225952D01*
X132153934Y-110216066D01*
X132144048Y-110205159D01*
X132135280Y-110193336D01*
X132127712Y-110180710D01*
X132121418Y-110167403D01*
X132116459Y-110153543D01*
X132112882Y-110139264D01*
X132110722Y-110124703D01*
X132110000Y-110110000D01*
X132110000Y-109810000D01*
X132110722Y-109795297D01*
X132112882Y-109780736D01*
X132116459Y-109766457D01*
X132121418Y-109752597D01*
X132127712Y-109739290D01*
X132135280Y-109726664D01*
X132144048Y-109714841D01*
X132153934Y-109703934D01*
X132164841Y-109694048D01*
X132176664Y-109685280D01*
X132189290Y-109677712D01*
X132202597Y-109671418D01*
X132216457Y-109666459D01*
X132230736Y-109662882D01*
X132245297Y-109660722D01*
X132260000Y-109660000D01*
X133910000Y-109660000D01*
X133924703Y-109660722D01*
G37*
G04 #@! TD.AperFunction*
G04 #@! TA.AperFunction,SMDPad,CuDef*
G36*
X133924703Y-110930722D02*
G01*
X133939264Y-110932882D01*
X133953543Y-110936459D01*
X133967403Y-110941418D01*
X133980710Y-110947712D01*
X133993336Y-110955280D01*
X134005159Y-110964048D01*
X134016066Y-110973934D01*
X134025952Y-110984841D01*
X134034720Y-110996664D01*
X134042288Y-111009290D01*
X134048582Y-111022597D01*
X134053541Y-111036457D01*
X134057118Y-111050736D01*
X134059278Y-111065297D01*
X134060000Y-111080000D01*
X134060000Y-111380000D01*
X134059278Y-111394703D01*
X134057118Y-111409264D01*
X134053541Y-111423543D01*
X134048582Y-111437403D01*
X134042288Y-111450710D01*
X134034720Y-111463336D01*
X134025952Y-111475159D01*
X134016066Y-111486066D01*
X134005159Y-111495952D01*
X133993336Y-111504720D01*
X133980710Y-111512288D01*
X133967403Y-111518582D01*
X133953543Y-111523541D01*
X133939264Y-111527118D01*
X133924703Y-111529278D01*
X133910000Y-111530000D01*
X132260000Y-111530000D01*
X132245297Y-111529278D01*
X132230736Y-111527118D01*
X132216457Y-111523541D01*
X132202597Y-111518582D01*
X132189290Y-111512288D01*
X132176664Y-111504720D01*
X132164841Y-111495952D01*
X132153934Y-111486066D01*
X132144048Y-111475159D01*
X132135280Y-111463336D01*
X132127712Y-111450710D01*
X132121418Y-111437403D01*
X132116459Y-111423543D01*
X132112882Y-111409264D01*
X132110722Y-111394703D01*
X132110000Y-111380000D01*
X132110000Y-111080000D01*
X132110722Y-111065297D01*
X132112882Y-111050736D01*
X132116459Y-111036457D01*
X132121418Y-111022597D01*
X132127712Y-111009290D01*
X132135280Y-110996664D01*
X132144048Y-110984841D01*
X132153934Y-110973934D01*
X132164841Y-110964048D01*
X132176664Y-110955280D01*
X132189290Y-110947712D01*
X132202597Y-110941418D01*
X132216457Y-110936459D01*
X132230736Y-110932882D01*
X132245297Y-110930722D01*
X132260000Y-110930000D01*
X133910000Y-110930000D01*
X133924703Y-110930722D01*
G37*
G04 #@! TD.AperFunction*
G04 #@! TA.AperFunction,SMDPad,CuDef*
G36*
X133924703Y-112200722D02*
G01*
X133939264Y-112202882D01*
X133953543Y-112206459D01*
X133967403Y-112211418D01*
X133980710Y-112217712D01*
X133993336Y-112225280D01*
X134005159Y-112234048D01*
X134016066Y-112243934D01*
X134025952Y-112254841D01*
X134034720Y-112266664D01*
X134042288Y-112279290D01*
X134048582Y-112292597D01*
X134053541Y-112306457D01*
X134057118Y-112320736D01*
X134059278Y-112335297D01*
X134060000Y-112350000D01*
X134060000Y-112650000D01*
X134059278Y-112664703D01*
X134057118Y-112679264D01*
X134053541Y-112693543D01*
X134048582Y-112707403D01*
X134042288Y-112720710D01*
X134034720Y-112733336D01*
X134025952Y-112745159D01*
X134016066Y-112756066D01*
X134005159Y-112765952D01*
X133993336Y-112774720D01*
X133980710Y-112782288D01*
X133967403Y-112788582D01*
X133953543Y-112793541D01*
X133939264Y-112797118D01*
X133924703Y-112799278D01*
X133910000Y-112800000D01*
X132260000Y-112800000D01*
X132245297Y-112799278D01*
X132230736Y-112797118D01*
X132216457Y-112793541D01*
X132202597Y-112788582D01*
X132189290Y-112782288D01*
X132176664Y-112774720D01*
X132164841Y-112765952D01*
X132153934Y-112756066D01*
X132144048Y-112745159D01*
X132135280Y-112733336D01*
X132127712Y-112720710D01*
X132121418Y-112707403D01*
X132116459Y-112693543D01*
X132112882Y-112679264D01*
X132110722Y-112664703D01*
X132110000Y-112650000D01*
X132110000Y-112350000D01*
X132110722Y-112335297D01*
X132112882Y-112320736D01*
X132116459Y-112306457D01*
X132121418Y-112292597D01*
X132127712Y-112279290D01*
X132135280Y-112266664D01*
X132144048Y-112254841D01*
X132153934Y-112243934D01*
X132164841Y-112234048D01*
X132176664Y-112225280D01*
X132189290Y-112217712D01*
X132202597Y-112211418D01*
X132216457Y-112206459D01*
X132230736Y-112202882D01*
X132245297Y-112200722D01*
X132260000Y-112200000D01*
X133910000Y-112200000D01*
X133924703Y-112200722D01*
G37*
G04 #@! TD.AperFunction*
G04 #@! TA.AperFunction,SMDPad,CuDef*
G36*
X133924703Y-113470722D02*
G01*
X133939264Y-113472882D01*
X133953543Y-113476459D01*
X133967403Y-113481418D01*
X133980710Y-113487712D01*
X133993336Y-113495280D01*
X134005159Y-113504048D01*
X134016066Y-113513934D01*
X134025952Y-113524841D01*
X134034720Y-113536664D01*
X134042288Y-113549290D01*
X134048582Y-113562597D01*
X134053541Y-113576457D01*
X134057118Y-113590736D01*
X134059278Y-113605297D01*
X134060000Y-113620000D01*
X134060000Y-113920000D01*
X134059278Y-113934703D01*
X134057118Y-113949264D01*
X134053541Y-113963543D01*
X134048582Y-113977403D01*
X134042288Y-113990710D01*
X134034720Y-114003336D01*
X134025952Y-114015159D01*
X134016066Y-114026066D01*
X134005159Y-114035952D01*
X133993336Y-114044720D01*
X133980710Y-114052288D01*
X133967403Y-114058582D01*
X133953543Y-114063541D01*
X133939264Y-114067118D01*
X133924703Y-114069278D01*
X133910000Y-114070000D01*
X132260000Y-114070000D01*
X132245297Y-114069278D01*
X132230736Y-114067118D01*
X132216457Y-114063541D01*
X132202597Y-114058582D01*
X132189290Y-114052288D01*
X132176664Y-114044720D01*
X132164841Y-114035952D01*
X132153934Y-114026066D01*
X132144048Y-114015159D01*
X132135280Y-114003336D01*
X132127712Y-113990710D01*
X132121418Y-113977403D01*
X132116459Y-113963543D01*
X132112882Y-113949264D01*
X132110722Y-113934703D01*
X132110000Y-113920000D01*
X132110000Y-113620000D01*
X132110722Y-113605297D01*
X132112882Y-113590736D01*
X132116459Y-113576457D01*
X132121418Y-113562597D01*
X132127712Y-113549290D01*
X132135280Y-113536664D01*
X132144048Y-113524841D01*
X132153934Y-113513934D01*
X132164841Y-113504048D01*
X132176664Y-113495280D01*
X132189290Y-113487712D01*
X132202597Y-113481418D01*
X132216457Y-113476459D01*
X132230736Y-113472882D01*
X132245297Y-113470722D01*
X132260000Y-113470000D01*
X133910000Y-113470000D01*
X133924703Y-113470722D01*
G37*
G04 #@! TD.AperFunction*
G04 #@! TA.AperFunction,SMDPad,CuDef*
G36*
X133924703Y-114740722D02*
G01*
X133939264Y-114742882D01*
X133953543Y-114746459D01*
X133967403Y-114751418D01*
X133980710Y-114757712D01*
X133993336Y-114765280D01*
X134005159Y-114774048D01*
X134016066Y-114783934D01*
X134025952Y-114794841D01*
X134034720Y-114806664D01*
X134042288Y-114819290D01*
X134048582Y-114832597D01*
X134053541Y-114846457D01*
X134057118Y-114860736D01*
X134059278Y-114875297D01*
X134060000Y-114890000D01*
X134060000Y-115190000D01*
X134059278Y-115204703D01*
X134057118Y-115219264D01*
X134053541Y-115233543D01*
X134048582Y-115247403D01*
X134042288Y-115260710D01*
X134034720Y-115273336D01*
X134025952Y-115285159D01*
X134016066Y-115296066D01*
X134005159Y-115305952D01*
X133993336Y-115314720D01*
X133980710Y-115322288D01*
X133967403Y-115328582D01*
X133953543Y-115333541D01*
X133939264Y-115337118D01*
X133924703Y-115339278D01*
X133910000Y-115340000D01*
X132260000Y-115340000D01*
X132245297Y-115339278D01*
X132230736Y-115337118D01*
X132216457Y-115333541D01*
X132202597Y-115328582D01*
X132189290Y-115322288D01*
X132176664Y-115314720D01*
X132164841Y-115305952D01*
X132153934Y-115296066D01*
X132144048Y-115285159D01*
X132135280Y-115273336D01*
X132127712Y-115260710D01*
X132121418Y-115247403D01*
X132116459Y-115233543D01*
X132112882Y-115219264D01*
X132110722Y-115204703D01*
X132110000Y-115190000D01*
X132110000Y-114890000D01*
X132110722Y-114875297D01*
X132112882Y-114860736D01*
X132116459Y-114846457D01*
X132121418Y-114832597D01*
X132127712Y-114819290D01*
X132135280Y-114806664D01*
X132144048Y-114794841D01*
X132153934Y-114783934D01*
X132164841Y-114774048D01*
X132176664Y-114765280D01*
X132189290Y-114757712D01*
X132202597Y-114751418D01*
X132216457Y-114746459D01*
X132230736Y-114742882D01*
X132245297Y-114740722D01*
X132260000Y-114740000D01*
X133910000Y-114740000D01*
X133924703Y-114740722D01*
G37*
G04 #@! TD.AperFunction*
G04 #@! TA.AperFunction,SMDPad,CuDef*
G36*
X133924703Y-116010722D02*
G01*
X133939264Y-116012882D01*
X133953543Y-116016459D01*
X133967403Y-116021418D01*
X133980710Y-116027712D01*
X133993336Y-116035280D01*
X134005159Y-116044048D01*
X134016066Y-116053934D01*
X134025952Y-116064841D01*
X134034720Y-116076664D01*
X134042288Y-116089290D01*
X134048582Y-116102597D01*
X134053541Y-116116457D01*
X134057118Y-116130736D01*
X134059278Y-116145297D01*
X134060000Y-116160000D01*
X134060000Y-116460000D01*
X134059278Y-116474703D01*
X134057118Y-116489264D01*
X134053541Y-116503543D01*
X134048582Y-116517403D01*
X134042288Y-116530710D01*
X134034720Y-116543336D01*
X134025952Y-116555159D01*
X134016066Y-116566066D01*
X134005159Y-116575952D01*
X133993336Y-116584720D01*
X133980710Y-116592288D01*
X133967403Y-116598582D01*
X133953543Y-116603541D01*
X133939264Y-116607118D01*
X133924703Y-116609278D01*
X133910000Y-116610000D01*
X132260000Y-116610000D01*
X132245297Y-116609278D01*
X132230736Y-116607118D01*
X132216457Y-116603541D01*
X132202597Y-116598582D01*
X132189290Y-116592288D01*
X132176664Y-116584720D01*
X132164841Y-116575952D01*
X132153934Y-116566066D01*
X132144048Y-116555159D01*
X132135280Y-116543336D01*
X132127712Y-116530710D01*
X132121418Y-116517403D01*
X132116459Y-116503543D01*
X132112882Y-116489264D01*
X132110722Y-116474703D01*
X132110000Y-116460000D01*
X132110000Y-116160000D01*
X132110722Y-116145297D01*
X132112882Y-116130736D01*
X132116459Y-116116457D01*
X132121418Y-116102597D01*
X132127712Y-116089290D01*
X132135280Y-116076664D01*
X132144048Y-116064841D01*
X132153934Y-116053934D01*
X132164841Y-116044048D01*
X132176664Y-116035280D01*
X132189290Y-116027712D01*
X132202597Y-116021418D01*
X132216457Y-116016459D01*
X132230736Y-116012882D01*
X132245297Y-116010722D01*
X132260000Y-116010000D01*
X133910000Y-116010000D01*
X133924703Y-116010722D01*
G37*
G04 #@! TD.AperFunction*
G04 #@! TA.AperFunction,SMDPad,CuDef*
G36*
X138874703Y-116010722D02*
G01*
X138889264Y-116012882D01*
X138903543Y-116016459D01*
X138917403Y-116021418D01*
X138930710Y-116027712D01*
X138943336Y-116035280D01*
X138955159Y-116044048D01*
X138966066Y-116053934D01*
X138975952Y-116064841D01*
X138984720Y-116076664D01*
X138992288Y-116089290D01*
X138998582Y-116102597D01*
X139003541Y-116116457D01*
X139007118Y-116130736D01*
X139009278Y-116145297D01*
X139010000Y-116160000D01*
X139010000Y-116460000D01*
X139009278Y-116474703D01*
X139007118Y-116489264D01*
X139003541Y-116503543D01*
X138998582Y-116517403D01*
X138992288Y-116530710D01*
X138984720Y-116543336D01*
X138975952Y-116555159D01*
X138966066Y-116566066D01*
X138955159Y-116575952D01*
X138943336Y-116584720D01*
X138930710Y-116592288D01*
X138917403Y-116598582D01*
X138903543Y-116603541D01*
X138889264Y-116607118D01*
X138874703Y-116609278D01*
X138860000Y-116610000D01*
X137210000Y-116610000D01*
X137195297Y-116609278D01*
X137180736Y-116607118D01*
X137166457Y-116603541D01*
X137152597Y-116598582D01*
X137139290Y-116592288D01*
X137126664Y-116584720D01*
X137114841Y-116575952D01*
X137103934Y-116566066D01*
X137094048Y-116555159D01*
X137085280Y-116543336D01*
X137077712Y-116530710D01*
X137071418Y-116517403D01*
X137066459Y-116503543D01*
X137062882Y-116489264D01*
X137060722Y-116474703D01*
X137060000Y-116460000D01*
X137060000Y-116160000D01*
X137060722Y-116145297D01*
X137062882Y-116130736D01*
X137066459Y-116116457D01*
X137071418Y-116102597D01*
X137077712Y-116089290D01*
X137085280Y-116076664D01*
X137094048Y-116064841D01*
X137103934Y-116053934D01*
X137114841Y-116044048D01*
X137126664Y-116035280D01*
X137139290Y-116027712D01*
X137152597Y-116021418D01*
X137166457Y-116016459D01*
X137180736Y-116012882D01*
X137195297Y-116010722D01*
X137210000Y-116010000D01*
X138860000Y-116010000D01*
X138874703Y-116010722D01*
G37*
G04 #@! TD.AperFunction*
G04 #@! TA.AperFunction,SMDPad,CuDef*
G36*
X138874703Y-114740722D02*
G01*
X138889264Y-114742882D01*
X138903543Y-114746459D01*
X138917403Y-114751418D01*
X138930710Y-114757712D01*
X138943336Y-114765280D01*
X138955159Y-114774048D01*
X138966066Y-114783934D01*
X138975952Y-114794841D01*
X138984720Y-114806664D01*
X138992288Y-114819290D01*
X138998582Y-114832597D01*
X139003541Y-114846457D01*
X139007118Y-114860736D01*
X139009278Y-114875297D01*
X139010000Y-114890000D01*
X139010000Y-115190000D01*
X139009278Y-115204703D01*
X139007118Y-115219264D01*
X139003541Y-115233543D01*
X138998582Y-115247403D01*
X138992288Y-115260710D01*
X138984720Y-115273336D01*
X138975952Y-115285159D01*
X138966066Y-115296066D01*
X138955159Y-115305952D01*
X138943336Y-115314720D01*
X138930710Y-115322288D01*
X138917403Y-115328582D01*
X138903543Y-115333541D01*
X138889264Y-115337118D01*
X138874703Y-115339278D01*
X138860000Y-115340000D01*
X137210000Y-115340000D01*
X137195297Y-115339278D01*
X137180736Y-115337118D01*
X137166457Y-115333541D01*
X137152597Y-115328582D01*
X137139290Y-115322288D01*
X137126664Y-115314720D01*
X137114841Y-115305952D01*
X137103934Y-115296066D01*
X137094048Y-115285159D01*
X137085280Y-115273336D01*
X137077712Y-115260710D01*
X137071418Y-115247403D01*
X137066459Y-115233543D01*
X137062882Y-115219264D01*
X137060722Y-115204703D01*
X137060000Y-115190000D01*
X137060000Y-114890000D01*
X137060722Y-114875297D01*
X137062882Y-114860736D01*
X137066459Y-114846457D01*
X137071418Y-114832597D01*
X137077712Y-114819290D01*
X137085280Y-114806664D01*
X137094048Y-114794841D01*
X137103934Y-114783934D01*
X137114841Y-114774048D01*
X137126664Y-114765280D01*
X137139290Y-114757712D01*
X137152597Y-114751418D01*
X137166457Y-114746459D01*
X137180736Y-114742882D01*
X137195297Y-114740722D01*
X137210000Y-114740000D01*
X138860000Y-114740000D01*
X138874703Y-114740722D01*
G37*
G04 #@! TD.AperFunction*
G04 #@! TA.AperFunction,SMDPad,CuDef*
G36*
X138874703Y-113470722D02*
G01*
X138889264Y-113472882D01*
X138903543Y-113476459D01*
X138917403Y-113481418D01*
X138930710Y-113487712D01*
X138943336Y-113495280D01*
X138955159Y-113504048D01*
X138966066Y-113513934D01*
X138975952Y-113524841D01*
X138984720Y-113536664D01*
X138992288Y-113549290D01*
X138998582Y-113562597D01*
X139003541Y-113576457D01*
X139007118Y-113590736D01*
X139009278Y-113605297D01*
X139010000Y-113620000D01*
X139010000Y-113920000D01*
X139009278Y-113934703D01*
X139007118Y-113949264D01*
X139003541Y-113963543D01*
X138998582Y-113977403D01*
X138992288Y-113990710D01*
X138984720Y-114003336D01*
X138975952Y-114015159D01*
X138966066Y-114026066D01*
X138955159Y-114035952D01*
X138943336Y-114044720D01*
X138930710Y-114052288D01*
X138917403Y-114058582D01*
X138903543Y-114063541D01*
X138889264Y-114067118D01*
X138874703Y-114069278D01*
X138860000Y-114070000D01*
X137210000Y-114070000D01*
X137195297Y-114069278D01*
X137180736Y-114067118D01*
X137166457Y-114063541D01*
X137152597Y-114058582D01*
X137139290Y-114052288D01*
X137126664Y-114044720D01*
X137114841Y-114035952D01*
X137103934Y-114026066D01*
X137094048Y-114015159D01*
X137085280Y-114003336D01*
X137077712Y-113990710D01*
X137071418Y-113977403D01*
X137066459Y-113963543D01*
X137062882Y-113949264D01*
X137060722Y-113934703D01*
X137060000Y-113920000D01*
X137060000Y-113620000D01*
X137060722Y-113605297D01*
X137062882Y-113590736D01*
X137066459Y-113576457D01*
X137071418Y-113562597D01*
X137077712Y-113549290D01*
X137085280Y-113536664D01*
X137094048Y-113524841D01*
X137103934Y-113513934D01*
X137114841Y-113504048D01*
X137126664Y-113495280D01*
X137139290Y-113487712D01*
X137152597Y-113481418D01*
X137166457Y-113476459D01*
X137180736Y-113472882D01*
X137195297Y-113470722D01*
X137210000Y-113470000D01*
X138860000Y-113470000D01*
X138874703Y-113470722D01*
G37*
G04 #@! TD.AperFunction*
G04 #@! TA.AperFunction,SMDPad,CuDef*
G36*
X138874703Y-112200722D02*
G01*
X138889264Y-112202882D01*
X138903543Y-112206459D01*
X138917403Y-112211418D01*
X138930710Y-112217712D01*
X138943336Y-112225280D01*
X138955159Y-112234048D01*
X138966066Y-112243934D01*
X138975952Y-112254841D01*
X138984720Y-112266664D01*
X138992288Y-112279290D01*
X138998582Y-112292597D01*
X139003541Y-112306457D01*
X139007118Y-112320736D01*
X139009278Y-112335297D01*
X139010000Y-112350000D01*
X139010000Y-112650000D01*
X139009278Y-112664703D01*
X139007118Y-112679264D01*
X139003541Y-112693543D01*
X138998582Y-112707403D01*
X138992288Y-112720710D01*
X138984720Y-112733336D01*
X138975952Y-112745159D01*
X138966066Y-112756066D01*
X138955159Y-112765952D01*
X138943336Y-112774720D01*
X138930710Y-112782288D01*
X138917403Y-112788582D01*
X138903543Y-112793541D01*
X138889264Y-112797118D01*
X138874703Y-112799278D01*
X138860000Y-112800000D01*
X137210000Y-112800000D01*
X137195297Y-112799278D01*
X137180736Y-112797118D01*
X137166457Y-112793541D01*
X137152597Y-112788582D01*
X137139290Y-112782288D01*
X137126664Y-112774720D01*
X137114841Y-112765952D01*
X137103934Y-112756066D01*
X137094048Y-112745159D01*
X137085280Y-112733336D01*
X137077712Y-112720710D01*
X137071418Y-112707403D01*
X137066459Y-112693543D01*
X137062882Y-112679264D01*
X137060722Y-112664703D01*
X137060000Y-112650000D01*
X137060000Y-112350000D01*
X137060722Y-112335297D01*
X137062882Y-112320736D01*
X137066459Y-112306457D01*
X137071418Y-112292597D01*
X137077712Y-112279290D01*
X137085280Y-112266664D01*
X137094048Y-112254841D01*
X137103934Y-112243934D01*
X137114841Y-112234048D01*
X137126664Y-112225280D01*
X137139290Y-112217712D01*
X137152597Y-112211418D01*
X137166457Y-112206459D01*
X137180736Y-112202882D01*
X137195297Y-112200722D01*
X137210000Y-112200000D01*
X138860000Y-112200000D01*
X138874703Y-112200722D01*
G37*
G04 #@! TD.AperFunction*
G04 #@! TA.AperFunction,SMDPad,CuDef*
G36*
X138874703Y-110930722D02*
G01*
X138889264Y-110932882D01*
X138903543Y-110936459D01*
X138917403Y-110941418D01*
X138930710Y-110947712D01*
X138943336Y-110955280D01*
X138955159Y-110964048D01*
X138966066Y-110973934D01*
X138975952Y-110984841D01*
X138984720Y-110996664D01*
X138992288Y-111009290D01*
X138998582Y-111022597D01*
X139003541Y-111036457D01*
X139007118Y-111050736D01*
X139009278Y-111065297D01*
X139010000Y-111080000D01*
X139010000Y-111380000D01*
X139009278Y-111394703D01*
X139007118Y-111409264D01*
X139003541Y-111423543D01*
X138998582Y-111437403D01*
X138992288Y-111450710D01*
X138984720Y-111463336D01*
X138975952Y-111475159D01*
X138966066Y-111486066D01*
X138955159Y-111495952D01*
X138943336Y-111504720D01*
X138930710Y-111512288D01*
X138917403Y-111518582D01*
X138903543Y-111523541D01*
X138889264Y-111527118D01*
X138874703Y-111529278D01*
X138860000Y-111530000D01*
X137210000Y-111530000D01*
X137195297Y-111529278D01*
X137180736Y-111527118D01*
X137166457Y-111523541D01*
X137152597Y-111518582D01*
X137139290Y-111512288D01*
X137126664Y-111504720D01*
X137114841Y-111495952D01*
X137103934Y-111486066D01*
X137094048Y-111475159D01*
X137085280Y-111463336D01*
X137077712Y-111450710D01*
X137071418Y-111437403D01*
X137066459Y-111423543D01*
X137062882Y-111409264D01*
X137060722Y-111394703D01*
X137060000Y-111380000D01*
X137060000Y-111080000D01*
X137060722Y-111065297D01*
X137062882Y-111050736D01*
X137066459Y-111036457D01*
X137071418Y-111022597D01*
X137077712Y-111009290D01*
X137085280Y-110996664D01*
X137094048Y-110984841D01*
X137103934Y-110973934D01*
X137114841Y-110964048D01*
X137126664Y-110955280D01*
X137139290Y-110947712D01*
X137152597Y-110941418D01*
X137166457Y-110936459D01*
X137180736Y-110932882D01*
X137195297Y-110930722D01*
X137210000Y-110930000D01*
X138860000Y-110930000D01*
X138874703Y-110930722D01*
G37*
G04 #@! TD.AperFunction*
G04 #@! TA.AperFunction,SMDPad,CuDef*
G36*
X138874703Y-109660722D02*
G01*
X138889264Y-109662882D01*
X138903543Y-109666459D01*
X138917403Y-109671418D01*
X138930710Y-109677712D01*
X138943336Y-109685280D01*
X138955159Y-109694048D01*
X138966066Y-109703934D01*
X138975952Y-109714841D01*
X138984720Y-109726664D01*
X138992288Y-109739290D01*
X138998582Y-109752597D01*
X139003541Y-109766457D01*
X139007118Y-109780736D01*
X139009278Y-109795297D01*
X139010000Y-109810000D01*
X139010000Y-110110000D01*
X139009278Y-110124703D01*
X139007118Y-110139264D01*
X139003541Y-110153543D01*
X138998582Y-110167403D01*
X138992288Y-110180710D01*
X138984720Y-110193336D01*
X138975952Y-110205159D01*
X138966066Y-110216066D01*
X138955159Y-110225952D01*
X138943336Y-110234720D01*
X138930710Y-110242288D01*
X138917403Y-110248582D01*
X138903543Y-110253541D01*
X138889264Y-110257118D01*
X138874703Y-110259278D01*
X138860000Y-110260000D01*
X137210000Y-110260000D01*
X137195297Y-110259278D01*
X137180736Y-110257118D01*
X137166457Y-110253541D01*
X137152597Y-110248582D01*
X137139290Y-110242288D01*
X137126664Y-110234720D01*
X137114841Y-110225952D01*
X137103934Y-110216066D01*
X137094048Y-110205159D01*
X137085280Y-110193336D01*
X137077712Y-110180710D01*
X137071418Y-110167403D01*
X137066459Y-110153543D01*
X137062882Y-110139264D01*
X137060722Y-110124703D01*
X137060000Y-110110000D01*
X137060000Y-109810000D01*
X137060722Y-109795297D01*
X137062882Y-109780736D01*
X137066459Y-109766457D01*
X137071418Y-109752597D01*
X137077712Y-109739290D01*
X137085280Y-109726664D01*
X137094048Y-109714841D01*
X137103934Y-109703934D01*
X137114841Y-109694048D01*
X137126664Y-109685280D01*
X137139290Y-109677712D01*
X137152597Y-109671418D01*
X137166457Y-109666459D01*
X137180736Y-109662882D01*
X137195297Y-109660722D01*
X137210000Y-109660000D01*
X138860000Y-109660000D01*
X138874703Y-109660722D01*
G37*
G04 #@! TD.AperFunction*
G04 #@! TA.AperFunction,SMDPad,CuDef*
G36*
X138874703Y-108390722D02*
G01*
X138889264Y-108392882D01*
X138903543Y-108396459D01*
X138917403Y-108401418D01*
X138930710Y-108407712D01*
X138943336Y-108415280D01*
X138955159Y-108424048D01*
X138966066Y-108433934D01*
X138975952Y-108444841D01*
X138984720Y-108456664D01*
X138992288Y-108469290D01*
X138998582Y-108482597D01*
X139003541Y-108496457D01*
X139007118Y-108510736D01*
X139009278Y-108525297D01*
X139010000Y-108540000D01*
X139010000Y-108840000D01*
X139009278Y-108854703D01*
X139007118Y-108869264D01*
X139003541Y-108883543D01*
X138998582Y-108897403D01*
X138992288Y-108910710D01*
X138984720Y-108923336D01*
X138975952Y-108935159D01*
X138966066Y-108946066D01*
X138955159Y-108955952D01*
X138943336Y-108964720D01*
X138930710Y-108972288D01*
X138917403Y-108978582D01*
X138903543Y-108983541D01*
X138889264Y-108987118D01*
X138874703Y-108989278D01*
X138860000Y-108990000D01*
X137210000Y-108990000D01*
X137195297Y-108989278D01*
X137180736Y-108987118D01*
X137166457Y-108983541D01*
X137152597Y-108978582D01*
X137139290Y-108972288D01*
X137126664Y-108964720D01*
X137114841Y-108955952D01*
X137103934Y-108946066D01*
X137094048Y-108935159D01*
X137085280Y-108923336D01*
X137077712Y-108910710D01*
X137071418Y-108897403D01*
X137066459Y-108883543D01*
X137062882Y-108869264D01*
X137060722Y-108854703D01*
X137060000Y-108840000D01*
X137060000Y-108540000D01*
X137060722Y-108525297D01*
X137062882Y-108510736D01*
X137066459Y-108496457D01*
X137071418Y-108482597D01*
X137077712Y-108469290D01*
X137085280Y-108456664D01*
X137094048Y-108444841D01*
X137103934Y-108433934D01*
X137114841Y-108424048D01*
X137126664Y-108415280D01*
X137139290Y-108407712D01*
X137152597Y-108401418D01*
X137166457Y-108396459D01*
X137180736Y-108392882D01*
X137195297Y-108390722D01*
X137210000Y-108390000D01*
X138860000Y-108390000D01*
X138874703Y-108390722D01*
G37*
G04 #@! TD.AperFunction*
G04 #@! TA.AperFunction,SMDPad,CuDef*
G36*
X113474703Y-108390722D02*
G01*
X113489264Y-108392882D01*
X113503543Y-108396459D01*
X113517403Y-108401418D01*
X113530710Y-108407712D01*
X113543336Y-108415280D01*
X113555159Y-108424048D01*
X113566066Y-108433934D01*
X113575952Y-108444841D01*
X113584720Y-108456664D01*
X113592288Y-108469290D01*
X113598582Y-108482597D01*
X113603541Y-108496457D01*
X113607118Y-108510736D01*
X113609278Y-108525297D01*
X113610000Y-108540000D01*
X113610000Y-108840000D01*
X113609278Y-108854703D01*
X113607118Y-108869264D01*
X113603541Y-108883543D01*
X113598582Y-108897403D01*
X113592288Y-108910710D01*
X113584720Y-108923336D01*
X113575952Y-108935159D01*
X113566066Y-108946066D01*
X113555159Y-108955952D01*
X113543336Y-108964720D01*
X113530710Y-108972288D01*
X113517403Y-108978582D01*
X113503543Y-108983541D01*
X113489264Y-108987118D01*
X113474703Y-108989278D01*
X113460000Y-108990000D01*
X111810000Y-108990000D01*
X111795297Y-108989278D01*
X111780736Y-108987118D01*
X111766457Y-108983541D01*
X111752597Y-108978582D01*
X111739290Y-108972288D01*
X111726664Y-108964720D01*
X111714841Y-108955952D01*
X111703934Y-108946066D01*
X111694048Y-108935159D01*
X111685280Y-108923336D01*
X111677712Y-108910710D01*
X111671418Y-108897403D01*
X111666459Y-108883543D01*
X111662882Y-108869264D01*
X111660722Y-108854703D01*
X111660000Y-108840000D01*
X111660000Y-108540000D01*
X111660722Y-108525297D01*
X111662882Y-108510736D01*
X111666459Y-108496457D01*
X111671418Y-108482597D01*
X111677712Y-108469290D01*
X111685280Y-108456664D01*
X111694048Y-108444841D01*
X111703934Y-108433934D01*
X111714841Y-108424048D01*
X111726664Y-108415280D01*
X111739290Y-108407712D01*
X111752597Y-108401418D01*
X111766457Y-108396459D01*
X111780736Y-108392882D01*
X111795297Y-108390722D01*
X111810000Y-108390000D01*
X113460000Y-108390000D01*
X113474703Y-108390722D01*
G37*
G04 #@! TD.AperFunction*
G04 #@! TA.AperFunction,SMDPad,CuDef*
G36*
X113474703Y-109660722D02*
G01*
X113489264Y-109662882D01*
X113503543Y-109666459D01*
X113517403Y-109671418D01*
X113530710Y-109677712D01*
X113543336Y-109685280D01*
X113555159Y-109694048D01*
X113566066Y-109703934D01*
X113575952Y-109714841D01*
X113584720Y-109726664D01*
X113592288Y-109739290D01*
X113598582Y-109752597D01*
X113603541Y-109766457D01*
X113607118Y-109780736D01*
X113609278Y-109795297D01*
X113610000Y-109810000D01*
X113610000Y-110110000D01*
X113609278Y-110124703D01*
X113607118Y-110139264D01*
X113603541Y-110153543D01*
X113598582Y-110167403D01*
X113592288Y-110180710D01*
X113584720Y-110193336D01*
X113575952Y-110205159D01*
X113566066Y-110216066D01*
X113555159Y-110225952D01*
X113543336Y-110234720D01*
X113530710Y-110242288D01*
X113517403Y-110248582D01*
X113503543Y-110253541D01*
X113489264Y-110257118D01*
X113474703Y-110259278D01*
X113460000Y-110260000D01*
X111810000Y-110260000D01*
X111795297Y-110259278D01*
X111780736Y-110257118D01*
X111766457Y-110253541D01*
X111752597Y-110248582D01*
X111739290Y-110242288D01*
X111726664Y-110234720D01*
X111714841Y-110225952D01*
X111703934Y-110216066D01*
X111694048Y-110205159D01*
X111685280Y-110193336D01*
X111677712Y-110180710D01*
X111671418Y-110167403D01*
X111666459Y-110153543D01*
X111662882Y-110139264D01*
X111660722Y-110124703D01*
X111660000Y-110110000D01*
X111660000Y-109810000D01*
X111660722Y-109795297D01*
X111662882Y-109780736D01*
X111666459Y-109766457D01*
X111671418Y-109752597D01*
X111677712Y-109739290D01*
X111685280Y-109726664D01*
X111694048Y-109714841D01*
X111703934Y-109703934D01*
X111714841Y-109694048D01*
X111726664Y-109685280D01*
X111739290Y-109677712D01*
X111752597Y-109671418D01*
X111766457Y-109666459D01*
X111780736Y-109662882D01*
X111795297Y-109660722D01*
X111810000Y-109660000D01*
X113460000Y-109660000D01*
X113474703Y-109660722D01*
G37*
G04 #@! TD.AperFunction*
G04 #@! TA.AperFunction,SMDPad,CuDef*
G36*
X113474703Y-110930722D02*
G01*
X113489264Y-110932882D01*
X113503543Y-110936459D01*
X113517403Y-110941418D01*
X113530710Y-110947712D01*
X113543336Y-110955280D01*
X113555159Y-110964048D01*
X113566066Y-110973934D01*
X113575952Y-110984841D01*
X113584720Y-110996664D01*
X113592288Y-111009290D01*
X113598582Y-111022597D01*
X113603541Y-111036457D01*
X113607118Y-111050736D01*
X113609278Y-111065297D01*
X113610000Y-111080000D01*
X113610000Y-111380000D01*
X113609278Y-111394703D01*
X113607118Y-111409264D01*
X113603541Y-111423543D01*
X113598582Y-111437403D01*
X113592288Y-111450710D01*
X113584720Y-111463336D01*
X113575952Y-111475159D01*
X113566066Y-111486066D01*
X113555159Y-111495952D01*
X113543336Y-111504720D01*
X113530710Y-111512288D01*
X113517403Y-111518582D01*
X113503543Y-111523541D01*
X113489264Y-111527118D01*
X113474703Y-111529278D01*
X113460000Y-111530000D01*
X111810000Y-111530000D01*
X111795297Y-111529278D01*
X111780736Y-111527118D01*
X111766457Y-111523541D01*
X111752597Y-111518582D01*
X111739290Y-111512288D01*
X111726664Y-111504720D01*
X111714841Y-111495952D01*
X111703934Y-111486066D01*
X111694048Y-111475159D01*
X111685280Y-111463336D01*
X111677712Y-111450710D01*
X111671418Y-111437403D01*
X111666459Y-111423543D01*
X111662882Y-111409264D01*
X111660722Y-111394703D01*
X111660000Y-111380000D01*
X111660000Y-111080000D01*
X111660722Y-111065297D01*
X111662882Y-111050736D01*
X111666459Y-111036457D01*
X111671418Y-111022597D01*
X111677712Y-111009290D01*
X111685280Y-110996664D01*
X111694048Y-110984841D01*
X111703934Y-110973934D01*
X111714841Y-110964048D01*
X111726664Y-110955280D01*
X111739290Y-110947712D01*
X111752597Y-110941418D01*
X111766457Y-110936459D01*
X111780736Y-110932882D01*
X111795297Y-110930722D01*
X111810000Y-110930000D01*
X113460000Y-110930000D01*
X113474703Y-110930722D01*
G37*
G04 #@! TD.AperFunction*
G04 #@! TA.AperFunction,SMDPad,CuDef*
G36*
X113474703Y-112200722D02*
G01*
X113489264Y-112202882D01*
X113503543Y-112206459D01*
X113517403Y-112211418D01*
X113530710Y-112217712D01*
X113543336Y-112225280D01*
X113555159Y-112234048D01*
X113566066Y-112243934D01*
X113575952Y-112254841D01*
X113584720Y-112266664D01*
X113592288Y-112279290D01*
X113598582Y-112292597D01*
X113603541Y-112306457D01*
X113607118Y-112320736D01*
X113609278Y-112335297D01*
X113610000Y-112350000D01*
X113610000Y-112650000D01*
X113609278Y-112664703D01*
X113607118Y-112679264D01*
X113603541Y-112693543D01*
X113598582Y-112707403D01*
X113592288Y-112720710D01*
X113584720Y-112733336D01*
X113575952Y-112745159D01*
X113566066Y-112756066D01*
X113555159Y-112765952D01*
X113543336Y-112774720D01*
X113530710Y-112782288D01*
X113517403Y-112788582D01*
X113503543Y-112793541D01*
X113489264Y-112797118D01*
X113474703Y-112799278D01*
X113460000Y-112800000D01*
X111810000Y-112800000D01*
X111795297Y-112799278D01*
X111780736Y-112797118D01*
X111766457Y-112793541D01*
X111752597Y-112788582D01*
X111739290Y-112782288D01*
X111726664Y-112774720D01*
X111714841Y-112765952D01*
X111703934Y-112756066D01*
X111694048Y-112745159D01*
X111685280Y-112733336D01*
X111677712Y-112720710D01*
X111671418Y-112707403D01*
X111666459Y-112693543D01*
X111662882Y-112679264D01*
X111660722Y-112664703D01*
X111660000Y-112650000D01*
X111660000Y-112350000D01*
X111660722Y-112335297D01*
X111662882Y-112320736D01*
X111666459Y-112306457D01*
X111671418Y-112292597D01*
X111677712Y-112279290D01*
X111685280Y-112266664D01*
X111694048Y-112254841D01*
X111703934Y-112243934D01*
X111714841Y-112234048D01*
X111726664Y-112225280D01*
X111739290Y-112217712D01*
X111752597Y-112211418D01*
X111766457Y-112206459D01*
X111780736Y-112202882D01*
X111795297Y-112200722D01*
X111810000Y-112200000D01*
X113460000Y-112200000D01*
X113474703Y-112200722D01*
G37*
G04 #@! TD.AperFunction*
G04 #@! TA.AperFunction,SMDPad,CuDef*
G36*
X113474703Y-113470722D02*
G01*
X113489264Y-113472882D01*
X113503543Y-113476459D01*
X113517403Y-113481418D01*
X113530710Y-113487712D01*
X113543336Y-113495280D01*
X113555159Y-113504048D01*
X113566066Y-113513934D01*
X113575952Y-113524841D01*
X113584720Y-113536664D01*
X113592288Y-113549290D01*
X113598582Y-113562597D01*
X113603541Y-113576457D01*
X113607118Y-113590736D01*
X113609278Y-113605297D01*
X113610000Y-113620000D01*
X113610000Y-113920000D01*
X113609278Y-113934703D01*
X113607118Y-113949264D01*
X113603541Y-113963543D01*
X113598582Y-113977403D01*
X113592288Y-113990710D01*
X113584720Y-114003336D01*
X113575952Y-114015159D01*
X113566066Y-114026066D01*
X113555159Y-114035952D01*
X113543336Y-114044720D01*
X113530710Y-114052288D01*
X113517403Y-114058582D01*
X113503543Y-114063541D01*
X113489264Y-114067118D01*
X113474703Y-114069278D01*
X113460000Y-114070000D01*
X111810000Y-114070000D01*
X111795297Y-114069278D01*
X111780736Y-114067118D01*
X111766457Y-114063541D01*
X111752597Y-114058582D01*
X111739290Y-114052288D01*
X111726664Y-114044720D01*
X111714841Y-114035952D01*
X111703934Y-114026066D01*
X111694048Y-114015159D01*
X111685280Y-114003336D01*
X111677712Y-113990710D01*
X111671418Y-113977403D01*
X111666459Y-113963543D01*
X111662882Y-113949264D01*
X111660722Y-113934703D01*
X111660000Y-113920000D01*
X111660000Y-113620000D01*
X111660722Y-113605297D01*
X111662882Y-113590736D01*
X111666459Y-113576457D01*
X111671418Y-113562597D01*
X111677712Y-113549290D01*
X111685280Y-113536664D01*
X111694048Y-113524841D01*
X111703934Y-113513934D01*
X111714841Y-113504048D01*
X111726664Y-113495280D01*
X111739290Y-113487712D01*
X111752597Y-113481418D01*
X111766457Y-113476459D01*
X111780736Y-113472882D01*
X111795297Y-113470722D01*
X111810000Y-113470000D01*
X113460000Y-113470000D01*
X113474703Y-113470722D01*
G37*
G04 #@! TD.AperFunction*
G04 #@! TA.AperFunction,SMDPad,CuDef*
G36*
X113474703Y-114740722D02*
G01*
X113489264Y-114742882D01*
X113503543Y-114746459D01*
X113517403Y-114751418D01*
X113530710Y-114757712D01*
X113543336Y-114765280D01*
X113555159Y-114774048D01*
X113566066Y-114783934D01*
X113575952Y-114794841D01*
X113584720Y-114806664D01*
X113592288Y-114819290D01*
X113598582Y-114832597D01*
X113603541Y-114846457D01*
X113607118Y-114860736D01*
X113609278Y-114875297D01*
X113610000Y-114890000D01*
X113610000Y-115190000D01*
X113609278Y-115204703D01*
X113607118Y-115219264D01*
X113603541Y-115233543D01*
X113598582Y-115247403D01*
X113592288Y-115260710D01*
X113584720Y-115273336D01*
X113575952Y-115285159D01*
X113566066Y-115296066D01*
X113555159Y-115305952D01*
X113543336Y-115314720D01*
X113530710Y-115322288D01*
X113517403Y-115328582D01*
X113503543Y-115333541D01*
X113489264Y-115337118D01*
X113474703Y-115339278D01*
X113460000Y-115340000D01*
X111810000Y-115340000D01*
X111795297Y-115339278D01*
X111780736Y-115337118D01*
X111766457Y-115333541D01*
X111752597Y-115328582D01*
X111739290Y-115322288D01*
X111726664Y-115314720D01*
X111714841Y-115305952D01*
X111703934Y-115296066D01*
X111694048Y-115285159D01*
X111685280Y-115273336D01*
X111677712Y-115260710D01*
X111671418Y-115247403D01*
X111666459Y-115233543D01*
X111662882Y-115219264D01*
X111660722Y-115204703D01*
X111660000Y-115190000D01*
X111660000Y-114890000D01*
X111660722Y-114875297D01*
X111662882Y-114860736D01*
X111666459Y-114846457D01*
X111671418Y-114832597D01*
X111677712Y-114819290D01*
X111685280Y-114806664D01*
X111694048Y-114794841D01*
X111703934Y-114783934D01*
X111714841Y-114774048D01*
X111726664Y-114765280D01*
X111739290Y-114757712D01*
X111752597Y-114751418D01*
X111766457Y-114746459D01*
X111780736Y-114742882D01*
X111795297Y-114740722D01*
X111810000Y-114740000D01*
X113460000Y-114740000D01*
X113474703Y-114740722D01*
G37*
G04 #@! TD.AperFunction*
G04 #@! TA.AperFunction,SMDPad,CuDef*
G36*
X113474703Y-116010722D02*
G01*
X113489264Y-116012882D01*
X113503543Y-116016459D01*
X113517403Y-116021418D01*
X113530710Y-116027712D01*
X113543336Y-116035280D01*
X113555159Y-116044048D01*
X113566066Y-116053934D01*
X113575952Y-116064841D01*
X113584720Y-116076664D01*
X113592288Y-116089290D01*
X113598582Y-116102597D01*
X113603541Y-116116457D01*
X113607118Y-116130736D01*
X113609278Y-116145297D01*
X113610000Y-116160000D01*
X113610000Y-116460000D01*
X113609278Y-116474703D01*
X113607118Y-116489264D01*
X113603541Y-116503543D01*
X113598582Y-116517403D01*
X113592288Y-116530710D01*
X113584720Y-116543336D01*
X113575952Y-116555159D01*
X113566066Y-116566066D01*
X113555159Y-116575952D01*
X113543336Y-116584720D01*
X113530710Y-116592288D01*
X113517403Y-116598582D01*
X113503543Y-116603541D01*
X113489264Y-116607118D01*
X113474703Y-116609278D01*
X113460000Y-116610000D01*
X111810000Y-116610000D01*
X111795297Y-116609278D01*
X111780736Y-116607118D01*
X111766457Y-116603541D01*
X111752597Y-116598582D01*
X111739290Y-116592288D01*
X111726664Y-116584720D01*
X111714841Y-116575952D01*
X111703934Y-116566066D01*
X111694048Y-116555159D01*
X111685280Y-116543336D01*
X111677712Y-116530710D01*
X111671418Y-116517403D01*
X111666459Y-116503543D01*
X111662882Y-116489264D01*
X111660722Y-116474703D01*
X111660000Y-116460000D01*
X111660000Y-116160000D01*
X111660722Y-116145297D01*
X111662882Y-116130736D01*
X111666459Y-116116457D01*
X111671418Y-116102597D01*
X111677712Y-116089290D01*
X111685280Y-116076664D01*
X111694048Y-116064841D01*
X111703934Y-116053934D01*
X111714841Y-116044048D01*
X111726664Y-116035280D01*
X111739290Y-116027712D01*
X111752597Y-116021418D01*
X111766457Y-116016459D01*
X111780736Y-116012882D01*
X111795297Y-116010722D01*
X111810000Y-116010000D01*
X113460000Y-116010000D01*
X113474703Y-116010722D01*
G37*
G04 #@! TD.AperFunction*
G04 #@! TA.AperFunction,SMDPad,CuDef*
G36*
X108524703Y-116010722D02*
G01*
X108539264Y-116012882D01*
X108553543Y-116016459D01*
X108567403Y-116021418D01*
X108580710Y-116027712D01*
X108593336Y-116035280D01*
X108605159Y-116044048D01*
X108616066Y-116053934D01*
X108625952Y-116064841D01*
X108634720Y-116076664D01*
X108642288Y-116089290D01*
X108648582Y-116102597D01*
X108653541Y-116116457D01*
X108657118Y-116130736D01*
X108659278Y-116145297D01*
X108660000Y-116160000D01*
X108660000Y-116460000D01*
X108659278Y-116474703D01*
X108657118Y-116489264D01*
X108653541Y-116503543D01*
X108648582Y-116517403D01*
X108642288Y-116530710D01*
X108634720Y-116543336D01*
X108625952Y-116555159D01*
X108616066Y-116566066D01*
X108605159Y-116575952D01*
X108593336Y-116584720D01*
X108580710Y-116592288D01*
X108567403Y-116598582D01*
X108553543Y-116603541D01*
X108539264Y-116607118D01*
X108524703Y-116609278D01*
X108510000Y-116610000D01*
X106860000Y-116610000D01*
X106845297Y-116609278D01*
X106830736Y-116607118D01*
X106816457Y-116603541D01*
X106802597Y-116598582D01*
X106789290Y-116592288D01*
X106776664Y-116584720D01*
X106764841Y-116575952D01*
X106753934Y-116566066D01*
X106744048Y-116555159D01*
X106735280Y-116543336D01*
X106727712Y-116530710D01*
X106721418Y-116517403D01*
X106716459Y-116503543D01*
X106712882Y-116489264D01*
X106710722Y-116474703D01*
X106710000Y-116460000D01*
X106710000Y-116160000D01*
X106710722Y-116145297D01*
X106712882Y-116130736D01*
X106716459Y-116116457D01*
X106721418Y-116102597D01*
X106727712Y-116089290D01*
X106735280Y-116076664D01*
X106744048Y-116064841D01*
X106753934Y-116053934D01*
X106764841Y-116044048D01*
X106776664Y-116035280D01*
X106789290Y-116027712D01*
X106802597Y-116021418D01*
X106816457Y-116016459D01*
X106830736Y-116012882D01*
X106845297Y-116010722D01*
X106860000Y-116010000D01*
X108510000Y-116010000D01*
X108524703Y-116010722D01*
G37*
G04 #@! TD.AperFunction*
G04 #@! TA.AperFunction,SMDPad,CuDef*
G36*
X108524703Y-114740722D02*
G01*
X108539264Y-114742882D01*
X108553543Y-114746459D01*
X108567403Y-114751418D01*
X108580710Y-114757712D01*
X108593336Y-114765280D01*
X108605159Y-114774048D01*
X108616066Y-114783934D01*
X108625952Y-114794841D01*
X108634720Y-114806664D01*
X108642288Y-114819290D01*
X108648582Y-114832597D01*
X108653541Y-114846457D01*
X108657118Y-114860736D01*
X108659278Y-114875297D01*
X108660000Y-114890000D01*
X108660000Y-115190000D01*
X108659278Y-115204703D01*
X108657118Y-115219264D01*
X108653541Y-115233543D01*
X108648582Y-115247403D01*
X108642288Y-115260710D01*
X108634720Y-115273336D01*
X108625952Y-115285159D01*
X108616066Y-115296066D01*
X108605159Y-115305952D01*
X108593336Y-115314720D01*
X108580710Y-115322288D01*
X108567403Y-115328582D01*
X108553543Y-115333541D01*
X108539264Y-115337118D01*
X108524703Y-115339278D01*
X108510000Y-115340000D01*
X106860000Y-115340000D01*
X106845297Y-115339278D01*
X106830736Y-115337118D01*
X106816457Y-115333541D01*
X106802597Y-115328582D01*
X106789290Y-115322288D01*
X106776664Y-115314720D01*
X106764841Y-115305952D01*
X106753934Y-115296066D01*
X106744048Y-115285159D01*
X106735280Y-115273336D01*
X106727712Y-115260710D01*
X106721418Y-115247403D01*
X106716459Y-115233543D01*
X106712882Y-115219264D01*
X106710722Y-115204703D01*
X106710000Y-115190000D01*
X106710000Y-114890000D01*
X106710722Y-114875297D01*
X106712882Y-114860736D01*
X106716459Y-114846457D01*
X106721418Y-114832597D01*
X106727712Y-114819290D01*
X106735280Y-114806664D01*
X106744048Y-114794841D01*
X106753934Y-114783934D01*
X106764841Y-114774048D01*
X106776664Y-114765280D01*
X106789290Y-114757712D01*
X106802597Y-114751418D01*
X106816457Y-114746459D01*
X106830736Y-114742882D01*
X106845297Y-114740722D01*
X106860000Y-114740000D01*
X108510000Y-114740000D01*
X108524703Y-114740722D01*
G37*
G04 #@! TD.AperFunction*
G04 #@! TA.AperFunction,SMDPad,CuDef*
G36*
X108524703Y-113470722D02*
G01*
X108539264Y-113472882D01*
X108553543Y-113476459D01*
X108567403Y-113481418D01*
X108580710Y-113487712D01*
X108593336Y-113495280D01*
X108605159Y-113504048D01*
X108616066Y-113513934D01*
X108625952Y-113524841D01*
X108634720Y-113536664D01*
X108642288Y-113549290D01*
X108648582Y-113562597D01*
X108653541Y-113576457D01*
X108657118Y-113590736D01*
X108659278Y-113605297D01*
X108660000Y-113620000D01*
X108660000Y-113920000D01*
X108659278Y-113934703D01*
X108657118Y-113949264D01*
X108653541Y-113963543D01*
X108648582Y-113977403D01*
X108642288Y-113990710D01*
X108634720Y-114003336D01*
X108625952Y-114015159D01*
X108616066Y-114026066D01*
X108605159Y-114035952D01*
X108593336Y-114044720D01*
X108580710Y-114052288D01*
X108567403Y-114058582D01*
X108553543Y-114063541D01*
X108539264Y-114067118D01*
X108524703Y-114069278D01*
X108510000Y-114070000D01*
X106860000Y-114070000D01*
X106845297Y-114069278D01*
X106830736Y-114067118D01*
X106816457Y-114063541D01*
X106802597Y-114058582D01*
X106789290Y-114052288D01*
X106776664Y-114044720D01*
X106764841Y-114035952D01*
X106753934Y-114026066D01*
X106744048Y-114015159D01*
X106735280Y-114003336D01*
X106727712Y-113990710D01*
X106721418Y-113977403D01*
X106716459Y-113963543D01*
X106712882Y-113949264D01*
X106710722Y-113934703D01*
X106710000Y-113920000D01*
X106710000Y-113620000D01*
X106710722Y-113605297D01*
X106712882Y-113590736D01*
X106716459Y-113576457D01*
X106721418Y-113562597D01*
X106727712Y-113549290D01*
X106735280Y-113536664D01*
X106744048Y-113524841D01*
X106753934Y-113513934D01*
X106764841Y-113504048D01*
X106776664Y-113495280D01*
X106789290Y-113487712D01*
X106802597Y-113481418D01*
X106816457Y-113476459D01*
X106830736Y-113472882D01*
X106845297Y-113470722D01*
X106860000Y-113470000D01*
X108510000Y-113470000D01*
X108524703Y-113470722D01*
G37*
G04 #@! TD.AperFunction*
G04 #@! TA.AperFunction,SMDPad,CuDef*
G36*
X108524703Y-112200722D02*
G01*
X108539264Y-112202882D01*
X108553543Y-112206459D01*
X108567403Y-112211418D01*
X108580710Y-112217712D01*
X108593336Y-112225280D01*
X108605159Y-112234048D01*
X108616066Y-112243934D01*
X108625952Y-112254841D01*
X108634720Y-112266664D01*
X108642288Y-112279290D01*
X108648582Y-112292597D01*
X108653541Y-112306457D01*
X108657118Y-112320736D01*
X108659278Y-112335297D01*
X108660000Y-112350000D01*
X108660000Y-112650000D01*
X108659278Y-112664703D01*
X108657118Y-112679264D01*
X108653541Y-112693543D01*
X108648582Y-112707403D01*
X108642288Y-112720710D01*
X108634720Y-112733336D01*
X108625952Y-112745159D01*
X108616066Y-112756066D01*
X108605159Y-112765952D01*
X108593336Y-112774720D01*
X108580710Y-112782288D01*
X108567403Y-112788582D01*
X108553543Y-112793541D01*
X108539264Y-112797118D01*
X108524703Y-112799278D01*
X108510000Y-112800000D01*
X106860000Y-112800000D01*
X106845297Y-112799278D01*
X106830736Y-112797118D01*
X106816457Y-112793541D01*
X106802597Y-112788582D01*
X106789290Y-112782288D01*
X106776664Y-112774720D01*
X106764841Y-112765952D01*
X106753934Y-112756066D01*
X106744048Y-112745159D01*
X106735280Y-112733336D01*
X106727712Y-112720710D01*
X106721418Y-112707403D01*
X106716459Y-112693543D01*
X106712882Y-112679264D01*
X106710722Y-112664703D01*
X106710000Y-112650000D01*
X106710000Y-112350000D01*
X106710722Y-112335297D01*
X106712882Y-112320736D01*
X106716459Y-112306457D01*
X106721418Y-112292597D01*
X106727712Y-112279290D01*
X106735280Y-112266664D01*
X106744048Y-112254841D01*
X106753934Y-112243934D01*
X106764841Y-112234048D01*
X106776664Y-112225280D01*
X106789290Y-112217712D01*
X106802597Y-112211418D01*
X106816457Y-112206459D01*
X106830736Y-112202882D01*
X106845297Y-112200722D01*
X106860000Y-112200000D01*
X108510000Y-112200000D01*
X108524703Y-112200722D01*
G37*
G04 #@! TD.AperFunction*
G04 #@! TA.AperFunction,SMDPad,CuDef*
G36*
X108524703Y-110930722D02*
G01*
X108539264Y-110932882D01*
X108553543Y-110936459D01*
X108567403Y-110941418D01*
X108580710Y-110947712D01*
X108593336Y-110955280D01*
X108605159Y-110964048D01*
X108616066Y-110973934D01*
X108625952Y-110984841D01*
X108634720Y-110996664D01*
X108642288Y-111009290D01*
X108648582Y-111022597D01*
X108653541Y-111036457D01*
X108657118Y-111050736D01*
X108659278Y-111065297D01*
X108660000Y-111080000D01*
X108660000Y-111380000D01*
X108659278Y-111394703D01*
X108657118Y-111409264D01*
X108653541Y-111423543D01*
X108648582Y-111437403D01*
X108642288Y-111450710D01*
X108634720Y-111463336D01*
X108625952Y-111475159D01*
X108616066Y-111486066D01*
X108605159Y-111495952D01*
X108593336Y-111504720D01*
X108580710Y-111512288D01*
X108567403Y-111518582D01*
X108553543Y-111523541D01*
X108539264Y-111527118D01*
X108524703Y-111529278D01*
X108510000Y-111530000D01*
X106860000Y-111530000D01*
X106845297Y-111529278D01*
X106830736Y-111527118D01*
X106816457Y-111523541D01*
X106802597Y-111518582D01*
X106789290Y-111512288D01*
X106776664Y-111504720D01*
X106764841Y-111495952D01*
X106753934Y-111486066D01*
X106744048Y-111475159D01*
X106735280Y-111463336D01*
X106727712Y-111450710D01*
X106721418Y-111437403D01*
X106716459Y-111423543D01*
X106712882Y-111409264D01*
X106710722Y-111394703D01*
X106710000Y-111380000D01*
X106710000Y-111080000D01*
X106710722Y-111065297D01*
X106712882Y-111050736D01*
X106716459Y-111036457D01*
X106721418Y-111022597D01*
X106727712Y-111009290D01*
X106735280Y-110996664D01*
X106744048Y-110984841D01*
X106753934Y-110973934D01*
X106764841Y-110964048D01*
X106776664Y-110955280D01*
X106789290Y-110947712D01*
X106802597Y-110941418D01*
X106816457Y-110936459D01*
X106830736Y-110932882D01*
X106845297Y-110930722D01*
X106860000Y-110930000D01*
X108510000Y-110930000D01*
X108524703Y-110930722D01*
G37*
G04 #@! TD.AperFunction*
G04 #@! TA.AperFunction,SMDPad,CuDef*
G36*
X108524703Y-109660722D02*
G01*
X108539264Y-109662882D01*
X108553543Y-109666459D01*
X108567403Y-109671418D01*
X108580710Y-109677712D01*
X108593336Y-109685280D01*
X108605159Y-109694048D01*
X108616066Y-109703934D01*
X108625952Y-109714841D01*
X108634720Y-109726664D01*
X108642288Y-109739290D01*
X108648582Y-109752597D01*
X108653541Y-109766457D01*
X108657118Y-109780736D01*
X108659278Y-109795297D01*
X108660000Y-109810000D01*
X108660000Y-110110000D01*
X108659278Y-110124703D01*
X108657118Y-110139264D01*
X108653541Y-110153543D01*
X108648582Y-110167403D01*
X108642288Y-110180710D01*
X108634720Y-110193336D01*
X108625952Y-110205159D01*
X108616066Y-110216066D01*
X108605159Y-110225952D01*
X108593336Y-110234720D01*
X108580710Y-110242288D01*
X108567403Y-110248582D01*
X108553543Y-110253541D01*
X108539264Y-110257118D01*
X108524703Y-110259278D01*
X108510000Y-110260000D01*
X106860000Y-110260000D01*
X106845297Y-110259278D01*
X106830736Y-110257118D01*
X106816457Y-110253541D01*
X106802597Y-110248582D01*
X106789290Y-110242288D01*
X106776664Y-110234720D01*
X106764841Y-110225952D01*
X106753934Y-110216066D01*
X106744048Y-110205159D01*
X106735280Y-110193336D01*
X106727712Y-110180710D01*
X106721418Y-110167403D01*
X106716459Y-110153543D01*
X106712882Y-110139264D01*
X106710722Y-110124703D01*
X106710000Y-110110000D01*
X106710000Y-109810000D01*
X106710722Y-109795297D01*
X106712882Y-109780736D01*
X106716459Y-109766457D01*
X106721418Y-109752597D01*
X106727712Y-109739290D01*
X106735280Y-109726664D01*
X106744048Y-109714841D01*
X106753934Y-109703934D01*
X106764841Y-109694048D01*
X106776664Y-109685280D01*
X106789290Y-109677712D01*
X106802597Y-109671418D01*
X106816457Y-109666459D01*
X106830736Y-109662882D01*
X106845297Y-109660722D01*
X106860000Y-109660000D01*
X108510000Y-109660000D01*
X108524703Y-109660722D01*
G37*
G04 #@! TD.AperFunction*
G04 #@! TA.AperFunction,SMDPad,CuDef*
G36*
X108524703Y-108390722D02*
G01*
X108539264Y-108392882D01*
X108553543Y-108396459D01*
X108567403Y-108401418D01*
X108580710Y-108407712D01*
X108593336Y-108415280D01*
X108605159Y-108424048D01*
X108616066Y-108433934D01*
X108625952Y-108444841D01*
X108634720Y-108456664D01*
X108642288Y-108469290D01*
X108648582Y-108482597D01*
X108653541Y-108496457D01*
X108657118Y-108510736D01*
X108659278Y-108525297D01*
X108660000Y-108540000D01*
X108660000Y-108840000D01*
X108659278Y-108854703D01*
X108657118Y-108869264D01*
X108653541Y-108883543D01*
X108648582Y-108897403D01*
X108642288Y-108910710D01*
X108634720Y-108923336D01*
X108625952Y-108935159D01*
X108616066Y-108946066D01*
X108605159Y-108955952D01*
X108593336Y-108964720D01*
X108580710Y-108972288D01*
X108567403Y-108978582D01*
X108553543Y-108983541D01*
X108539264Y-108987118D01*
X108524703Y-108989278D01*
X108510000Y-108990000D01*
X106860000Y-108990000D01*
X106845297Y-108989278D01*
X106830736Y-108987118D01*
X106816457Y-108983541D01*
X106802597Y-108978582D01*
X106789290Y-108972288D01*
X106776664Y-108964720D01*
X106764841Y-108955952D01*
X106753934Y-108946066D01*
X106744048Y-108935159D01*
X106735280Y-108923336D01*
X106727712Y-108910710D01*
X106721418Y-108897403D01*
X106716459Y-108883543D01*
X106712882Y-108869264D01*
X106710722Y-108854703D01*
X106710000Y-108840000D01*
X106710000Y-108540000D01*
X106710722Y-108525297D01*
X106712882Y-108510736D01*
X106716459Y-108496457D01*
X106721418Y-108482597D01*
X106727712Y-108469290D01*
X106735280Y-108456664D01*
X106744048Y-108444841D01*
X106753934Y-108433934D01*
X106764841Y-108424048D01*
X106776664Y-108415280D01*
X106789290Y-108407712D01*
X106802597Y-108401418D01*
X106816457Y-108396459D01*
X106830736Y-108392882D01*
X106845297Y-108390722D01*
X106860000Y-108390000D01*
X108510000Y-108390000D01*
X108524703Y-108390722D01*
G37*
G04 #@! TD.AperFunction*
D16*
X105350000Y-112475000D03*
X105350000Y-115025000D03*
X110600000Y-111225000D03*
X114875000Y-113750000D03*
X115700000Y-116325000D03*
X123100000Y-111350000D03*
X122300000Y-112100000D03*
X123375000Y-112900000D03*
X122450000Y-113700000D03*
X134950000Y-112525000D03*
X131325000Y-115050000D03*
X141475000Y-113775000D03*
X141800000Y-111225000D03*
X114850000Y-108725000D03*
X115700000Y-109900000D03*
X105200000Y-108600000D03*
X105200000Y-105675000D03*
X120300000Y-105625000D03*
X103825000Y-109975000D03*
X103800000Y-104875000D03*
X125425000Y-104850000D03*
X140525000Y-108700000D03*
X141700000Y-109925000D03*
X130475000Y-108700000D03*
X130425000Y-106825000D03*
X140650000Y-106275000D03*
X129175000Y-109900000D03*
X129175000Y-105225000D03*
X145725000Y-105250000D03*
X128000000Y-113725000D03*
X145725000Y-120900000D03*
X128000000Y-120575000D03*
X130600000Y-116300000D03*
X130600000Y-112875000D03*
X132625000Y-121625000D03*
X140650000Y-121650000D03*
X142600000Y-112550000D03*
X142650000Y-119400000D03*
X128725000Y-119425000D03*
X128725000Y-112100000D03*
X135550000Y-119400000D03*
X140750000Y-115000000D03*
X140775000Y-118275000D03*
X129825000Y-118225000D03*
X129850000Y-111300000D03*
X103750000Y-113700000D03*
X115925000Y-111775000D03*
X104375000Y-116275000D03*
X118025000Y-112100000D03*
X115485000Y-115040000D03*
D17*
X121220000Y-111300000D02*
X121870000Y-111300000D01*
X121220000Y-112100000D02*
X122300000Y-112100000D01*
X121870000Y-112900000D02*
X123375000Y-112900000D01*
X121220000Y-112900000D02*
X121870000Y-112900000D01*
X121220000Y-113700000D02*
X121870000Y-113700000D01*
X107685000Y-112500000D02*
X105375000Y-112500000D01*
X105375000Y-112500000D02*
X105350000Y-112475000D01*
X107685000Y-115040000D02*
X105365000Y-115040000D01*
X105365000Y-115040000D02*
X105350000Y-115025000D01*
X112635000Y-111230000D02*
X110605000Y-111230000D01*
X110605000Y-111230000D02*
X110600000Y-111225000D01*
X112635000Y-113770000D02*
X114855000Y-113770000D01*
X114855000Y-113770000D02*
X114875000Y-113750000D01*
X112635000Y-116310000D02*
X115685000Y-116310000D01*
X115685000Y-116310000D02*
X115700000Y-116325000D01*
X123150000Y-111300000D02*
X123100000Y-111350000D01*
X123150000Y-111300000D02*
X124500000Y-111300000D01*
X121870000Y-111300000D02*
X123150000Y-111300000D01*
X123075000Y-113700000D02*
X123050000Y-113725000D01*
X123125000Y-113700000D02*
X123075000Y-113700000D01*
X123125000Y-113700000D02*
X124500000Y-113700000D01*
X121870000Y-113700000D02*
X122450000Y-113700000D01*
X122300000Y-112100000D02*
X124500000Y-112100000D01*
X123375000Y-112900000D02*
X124500000Y-112900000D01*
X122450000Y-113700000D02*
X123125000Y-113700000D01*
X133085000Y-112500000D02*
X134925000Y-112500000D01*
X134925000Y-112500000D02*
X134950000Y-112525000D01*
X133085000Y-115040000D02*
X131335000Y-115040000D01*
X131335000Y-115040000D02*
X131325000Y-115050000D01*
X138035000Y-113770000D02*
X141470000Y-113770000D01*
X141470000Y-113770000D02*
X141475000Y-113775000D01*
X138035000Y-111230000D02*
X141795000Y-111230000D01*
X141795000Y-111230000D02*
X141800000Y-111225000D01*
X142199999Y-110825001D02*
X141800000Y-111225000D01*
X145720000Y-111275000D02*
X145725000Y-111270000D01*
X145725000Y-111270000D02*
X145725000Y-110850000D01*
X145720000Y-111712500D02*
X145720000Y-111275000D01*
X145725000Y-110850000D02*
X145700000Y-110825000D01*
X145700000Y-110825000D02*
X142199999Y-110825001D01*
X105350000Y-112475000D02*
X102550000Y-112475000D01*
X102550000Y-112475000D02*
X102425000Y-112600000D01*
X102425000Y-112600000D02*
X102425000Y-113775000D01*
X102425000Y-113775000D02*
X101375000Y-114825000D01*
X101375000Y-114825000D02*
X100275000Y-114825000D01*
X100000000Y-114550000D02*
X100000000Y-113287500D01*
X100275000Y-114825000D02*
X100000000Y-114550000D01*
X112635000Y-108690000D02*
X114815000Y-108690000D01*
X114815000Y-108690000D02*
X114850000Y-108725000D01*
X112635000Y-109960000D02*
X115640000Y-109960000D01*
X115640000Y-109960000D02*
X115700000Y-109900000D01*
X107685000Y-108690000D02*
X105290000Y-108690000D01*
X105290000Y-108690000D02*
X105200000Y-108600000D01*
X105200000Y-105675000D02*
X120250000Y-105675000D01*
X120250000Y-105675000D02*
X120300000Y-105625000D01*
X107685000Y-109960000D02*
X103840000Y-109960000D01*
X103840000Y-109960000D02*
X103825000Y-109975000D01*
X103800000Y-104875000D02*
X125400000Y-104875000D01*
X125400000Y-104875000D02*
X125425000Y-104850000D01*
X138035000Y-108690000D02*
X140515000Y-108690000D01*
X140515000Y-108690000D02*
X140525000Y-108700000D01*
X138035000Y-109960000D02*
X141665000Y-109960000D01*
X141665000Y-109960000D02*
X141700000Y-109925000D01*
X133085000Y-108690000D02*
X130485000Y-108690000D01*
X130485000Y-108690000D02*
X130475000Y-108700000D01*
X130425000Y-106825000D02*
X130975000Y-106275000D01*
X130975000Y-106275000D02*
X140650000Y-106275000D01*
X133085000Y-109960000D02*
X129235000Y-109960000D01*
X129235000Y-109960000D02*
X129175000Y-109900000D01*
X129175000Y-105225000D02*
X145700000Y-105225000D01*
X145700000Y-105225000D02*
X145725000Y-105250000D01*
X133015000Y-113700000D02*
X133085000Y-113770000D01*
X128025000Y-113700000D02*
X128000000Y-113725000D01*
X128075000Y-113700000D02*
X128025000Y-113700000D01*
X128075000Y-113700000D02*
X133015000Y-113700000D01*
X126300000Y-113700000D02*
X128075000Y-113700000D01*
X145425001Y-120600001D02*
X145725000Y-120900000D01*
X129550001Y-120600001D02*
X128025001Y-120600001D01*
X129550001Y-120600001D02*
X145425001Y-120600001D01*
X128025001Y-120600001D02*
X128000000Y-120575000D01*
X133085000Y-116310000D02*
X130610000Y-116310000D01*
X130610000Y-116310000D02*
X130600000Y-116300000D01*
X126325000Y-112875000D02*
X126300000Y-112900000D01*
X130600000Y-112875000D02*
X126325000Y-112875000D01*
X132625000Y-121625000D02*
X140625000Y-121625000D01*
X140625000Y-121625000D02*
X140650000Y-121650000D01*
X138035000Y-112500000D02*
X142550000Y-112500000D01*
X142550000Y-112500000D02*
X142600000Y-112550000D01*
X128750000Y-119400000D02*
X128725000Y-119425000D01*
X128725000Y-112100000D02*
X126300000Y-112100000D01*
X142650000Y-119400000D02*
X135550000Y-119400000D01*
X135550000Y-119400000D02*
X128750000Y-119400000D01*
X138035000Y-115040000D02*
X140710000Y-115040000D01*
X140710000Y-115040000D02*
X140750000Y-115000000D01*
X140775000Y-118275000D02*
X129875000Y-118275000D01*
X129875000Y-118275000D02*
X129825000Y-118225000D01*
X129850000Y-111300000D02*
X126300000Y-111300000D01*
X107685000Y-113770000D02*
X103820000Y-113770000D01*
X103820000Y-113770000D02*
X103750000Y-113700000D01*
X118770000Y-111300000D02*
X119420000Y-111300000D01*
X116965685Y-111300000D02*
X118770000Y-111300000D01*
X116490685Y-111775000D02*
X116965685Y-111300000D01*
X115925000Y-111775000D02*
X116490685Y-111775000D01*
X107685000Y-116310000D02*
X104410000Y-116310000D01*
X104410000Y-116310000D02*
X104375000Y-116275000D01*
X118025000Y-112100000D02*
X119420000Y-112100000D01*
X117500000Y-112900000D02*
X119420000Y-112900000D01*
X112635000Y-112500000D02*
X117100000Y-112500000D01*
X117100000Y-112500000D02*
X117500000Y-112900000D01*
X112635000Y-112500000D02*
X110525000Y-112500000D01*
X110525000Y-112500000D02*
X110100000Y-112925000D01*
X110100000Y-112925000D02*
X110100000Y-117825000D01*
X115240000Y-122965000D02*
X115240000Y-125000000D01*
X110100000Y-117825000D02*
X115240000Y-122965000D01*
X112635000Y-115040000D02*
X115485000Y-115040000D01*
X116825000Y-113700000D02*
X119420000Y-113700000D01*
X115485000Y-115040000D02*
X116825000Y-113700000D01*
D18*
G36*
X157916910Y-128840000D02*
G01*
X87710000Y-128840000D01*
X87710000Y-124779872D01*
X89765000Y-124779872D01*
X89765000Y-125220128D01*
X89850890Y-125651925D01*
X90019369Y-126058669D01*
X90263962Y-126424729D01*
X90575271Y-126736038D01*
X90941331Y-126980631D01*
X91348075Y-127149110D01*
X91779872Y-127235000D01*
X92220128Y-127235000D01*
X92651925Y-127149110D01*
X93058669Y-126980631D01*
X93424729Y-126736038D01*
X93736038Y-126424729D01*
X93980631Y-126058669D01*
X94149110Y-125651925D01*
X94235000Y-125220128D01*
X94235000Y-124779872D01*
X94149110Y-124348075D01*
X93984222Y-123950000D01*
X98311928Y-123950000D01*
X98311928Y-126050000D01*
X98324188Y-126174482D01*
X98360498Y-126294180D01*
X98419463Y-126404494D01*
X98498815Y-126501185D01*
X98595506Y-126580537D01*
X98705820Y-126639502D01*
X98825518Y-126675812D01*
X98950000Y-126688072D01*
X101050000Y-126688072D01*
X101174482Y-126675812D01*
X101294180Y-126639502D01*
X101404494Y-126580537D01*
X101501185Y-126501185D01*
X101580537Y-126404494D01*
X101639502Y-126294180D01*
X101675812Y-126174482D01*
X101676148Y-126171066D01*
X104088539Y-126171066D01*
X104190339Y-126440579D01*
X104488477Y-126586463D01*
X104809346Y-126671380D01*
X105140617Y-126692066D01*
X105469557Y-126647728D01*
X105783527Y-126540069D01*
X105969661Y-126440579D01*
X106071461Y-126171066D01*
X105080000Y-125179605D01*
X104088539Y-126171066D01*
X101676148Y-126171066D01*
X101688072Y-126050000D01*
X101688072Y-125060617D01*
X103387934Y-125060617D01*
X103432272Y-125389557D01*
X103539931Y-125703527D01*
X103639421Y-125889661D01*
X103908934Y-125991461D01*
X104900395Y-125000000D01*
X105259605Y-125000000D01*
X106251066Y-125991461D01*
X106520579Y-125889661D01*
X106666463Y-125591523D01*
X106751380Y-125270654D01*
X106772066Y-124939383D01*
X106757868Y-124834042D01*
X108475000Y-124834042D01*
X108475000Y-125165958D01*
X108539754Y-125491496D01*
X108666772Y-125798147D01*
X108851175Y-126074125D01*
X109085875Y-126308825D01*
X109361853Y-126493228D01*
X109668504Y-126620246D01*
X109994042Y-126685000D01*
X110325958Y-126685000D01*
X110651496Y-126620246D01*
X110958147Y-126493228D01*
X111234125Y-126308825D01*
X111468825Y-126074125D01*
X111653228Y-125798147D01*
X111780246Y-125491496D01*
X111845000Y-125165958D01*
X111845000Y-124834042D01*
X111780246Y-124508504D01*
X111653228Y-124201853D01*
X111468825Y-123925875D01*
X111234125Y-123691175D01*
X110958147Y-123506772D01*
X110651496Y-123379754D01*
X110325958Y-123315000D01*
X109994042Y-123315000D01*
X109668504Y-123379754D01*
X109361853Y-123506772D01*
X109085875Y-123691175D01*
X108851175Y-123925875D01*
X108666772Y-124201853D01*
X108539754Y-124508504D01*
X108475000Y-124834042D01*
X106757868Y-124834042D01*
X106727728Y-124610443D01*
X106620069Y-124296473D01*
X106520579Y-124110339D01*
X106251066Y-124008539D01*
X105259605Y-125000000D01*
X104900395Y-125000000D01*
X103908934Y-124008539D01*
X103639421Y-124110339D01*
X103493537Y-124408477D01*
X103408620Y-124729346D01*
X103387934Y-125060617D01*
X101688072Y-125060617D01*
X101688072Y-123950000D01*
X101676149Y-123828934D01*
X104088539Y-123828934D01*
X105080000Y-124820395D01*
X106071461Y-123828934D01*
X105969661Y-123559421D01*
X105671523Y-123413537D01*
X105350654Y-123328620D01*
X105019383Y-123307934D01*
X104690443Y-123352272D01*
X104376473Y-123459931D01*
X104190339Y-123559421D01*
X104088539Y-123828934D01*
X101676149Y-123828934D01*
X101675812Y-123825518D01*
X101639502Y-123705820D01*
X101580537Y-123595506D01*
X101501185Y-123498815D01*
X101404494Y-123419463D01*
X101294180Y-123360498D01*
X101174482Y-123324188D01*
X101050000Y-123311928D01*
X98950000Y-123311928D01*
X98825518Y-123324188D01*
X98705820Y-123360498D01*
X98595506Y-123419463D01*
X98498815Y-123498815D01*
X98419463Y-123595506D01*
X98360498Y-123705820D01*
X98324188Y-123825518D01*
X98311928Y-123950000D01*
X93984222Y-123950000D01*
X93980631Y-123941331D01*
X93736038Y-123575271D01*
X93424729Y-123263962D01*
X93058669Y-123019369D01*
X92651925Y-122850890D01*
X92220128Y-122765000D01*
X91779872Y-122765000D01*
X91348075Y-122850890D01*
X90941331Y-123019369D01*
X90575271Y-123263962D01*
X90263962Y-123575271D01*
X90019369Y-123941331D01*
X89850890Y-124348075D01*
X89765000Y-124779872D01*
X87710000Y-124779872D01*
X87710000Y-104842381D01*
X89700000Y-104842381D01*
X89700000Y-120507619D01*
X94270000Y-120507619D01*
X94270000Y-112150000D01*
X98886928Y-112150000D01*
X98899188Y-112274482D01*
X98935498Y-112394180D01*
X98994463Y-112504494D01*
X99049100Y-112571070D01*
X99031329Y-112592725D01*
X98952150Y-112740858D01*
X98903392Y-112901592D01*
X98886928Y-113068750D01*
X98886928Y-113506250D01*
X98903392Y-113673408D01*
X98952150Y-113834142D01*
X99031329Y-113982275D01*
X99137885Y-114112115D01*
X99240000Y-114195918D01*
X99240000Y-114512677D01*
X99236324Y-114550000D01*
X99240000Y-114587322D01*
X99240000Y-114587332D01*
X99250997Y-114698985D01*
X99289223Y-114825000D01*
X99294454Y-114842246D01*
X99365026Y-114974276D01*
X99404871Y-115022826D01*
X99459999Y-115090001D01*
X99489003Y-115113804D01*
X99711196Y-115335997D01*
X99734999Y-115365001D01*
X99850724Y-115459974D01*
X99982753Y-115530546D01*
X100126014Y-115574003D01*
X100237667Y-115585000D01*
X100237675Y-115585000D01*
X100275000Y-115588676D01*
X100312325Y-115585000D01*
X101337678Y-115585000D01*
X101375000Y-115588676D01*
X101412322Y-115585000D01*
X101412333Y-115585000D01*
X101523986Y-115574003D01*
X101667247Y-115530546D01*
X101799276Y-115459974D01*
X101915001Y-115365001D01*
X101938804Y-115335998D01*
X102933632Y-114341170D01*
X102946063Y-114359774D01*
X103090226Y-114503937D01*
X103259744Y-114617205D01*
X103448102Y-114695226D01*
X103648061Y-114735000D01*
X103851939Y-114735000D01*
X104051898Y-114695226D01*
X104240256Y-114617205D01*
X104370768Y-114530000D01*
X104435965Y-114530000D01*
X104432795Y-114534744D01*
X104354774Y-114723102D01*
X104315000Y-114923061D01*
X104315000Y-115126939D01*
X104337489Y-115240000D01*
X104273061Y-115240000D01*
X104073102Y-115279774D01*
X103884744Y-115357795D01*
X103715226Y-115471063D01*
X103571063Y-115615226D01*
X103457795Y-115784744D01*
X103379774Y-115973102D01*
X103340000Y-116173061D01*
X103340000Y-116376939D01*
X103379774Y-116576898D01*
X103457795Y-116765256D01*
X103571063Y-116934774D01*
X103715226Y-117078937D01*
X103884744Y-117192205D01*
X104073102Y-117270226D01*
X104273061Y-117310000D01*
X104476939Y-117310000D01*
X104676898Y-117270226D01*
X104865256Y-117192205D01*
X105034774Y-117078937D01*
X105043711Y-117070000D01*
X106367024Y-117070000D01*
X106422171Y-117115258D01*
X106558418Y-117188084D01*
X106706255Y-117232929D01*
X106860000Y-117248072D01*
X108510000Y-117248072D01*
X108663745Y-117232929D01*
X108811582Y-117188084D01*
X108947829Y-117115258D01*
X109067251Y-117017251D01*
X109165258Y-116897829D01*
X109238084Y-116761582D01*
X109282929Y-116613745D01*
X109298072Y-116460000D01*
X109298072Y-116160000D01*
X109282929Y-116006255D01*
X109238084Y-115858418D01*
X109165258Y-115722171D01*
X109126546Y-115675000D01*
X109165258Y-115627829D01*
X109238084Y-115491582D01*
X109282929Y-115343745D01*
X109298072Y-115190000D01*
X109298072Y-114890000D01*
X109282929Y-114736255D01*
X109238084Y-114588418D01*
X109165258Y-114452171D01*
X109126546Y-114405000D01*
X109165258Y-114357829D01*
X109238084Y-114221582D01*
X109282929Y-114073745D01*
X109298072Y-113920000D01*
X109298072Y-113620000D01*
X109282929Y-113466255D01*
X109238084Y-113318418D01*
X109165258Y-113182171D01*
X109126546Y-113135000D01*
X109165258Y-113087829D01*
X109238084Y-112951582D01*
X109246147Y-112925000D01*
X109336324Y-112925000D01*
X109340000Y-112962323D01*
X109340001Y-117787668D01*
X109336324Y-117825000D01*
X109340001Y-117862333D01*
X109350998Y-117973986D01*
X109353658Y-117982754D01*
X109394454Y-118117246D01*
X109465026Y-118249276D01*
X109528763Y-118326939D01*
X109560000Y-118365001D01*
X109588998Y-118388799D01*
X114480000Y-123279802D01*
X114480000Y-123490971D01*
X114441853Y-123506772D01*
X114165875Y-123691175D01*
X113931175Y-123925875D01*
X113746772Y-124201853D01*
X113619754Y-124508504D01*
X113555000Y-124834042D01*
X113555000Y-125165958D01*
X113619754Y-125491496D01*
X113746772Y-125798147D01*
X113931175Y-126074125D01*
X114165875Y-126308825D01*
X114441853Y-126493228D01*
X114748504Y-126620246D01*
X115074042Y-126685000D01*
X115405958Y-126685000D01*
X115731496Y-126620246D01*
X116038147Y-126493228D01*
X116314125Y-126308825D01*
X116548825Y-126074125D01*
X116733228Y-125798147D01*
X116860246Y-125491496D01*
X116925000Y-125165958D01*
X116925000Y-124834042D01*
X118635000Y-124834042D01*
X118635000Y-125165958D01*
X118699754Y-125491496D01*
X118826772Y-125798147D01*
X119011175Y-126074125D01*
X119245875Y-126308825D01*
X119521853Y-126493228D01*
X119828504Y-126620246D01*
X120154042Y-126685000D01*
X120485958Y-126685000D01*
X120811496Y-126620246D01*
X121118147Y-126493228D01*
X121394125Y-126308825D01*
X121628825Y-126074125D01*
X121813228Y-125798147D01*
X121940246Y-125491496D01*
X122005000Y-125165958D01*
X122005000Y-124834042D01*
X123715000Y-124834042D01*
X123715000Y-125165958D01*
X123779754Y-125491496D01*
X123906772Y-125798147D01*
X124091175Y-126074125D01*
X124325875Y-126308825D01*
X124601853Y-126493228D01*
X124908504Y-126620246D01*
X125234042Y-126685000D01*
X125565958Y-126685000D01*
X125891496Y-126620246D01*
X126198147Y-126493228D01*
X126474125Y-126308825D01*
X126708825Y-126074125D01*
X126893228Y-125798147D01*
X127020246Y-125491496D01*
X127085000Y-125165958D01*
X127085000Y-124834042D01*
X128795000Y-124834042D01*
X128795000Y-125165958D01*
X128859754Y-125491496D01*
X128986772Y-125798147D01*
X129171175Y-126074125D01*
X129405875Y-126308825D01*
X129681853Y-126493228D01*
X129988504Y-126620246D01*
X130314042Y-126685000D01*
X130645958Y-126685000D01*
X130971496Y-126620246D01*
X131278147Y-126493228D01*
X131554125Y-126308825D01*
X131788825Y-126074125D01*
X131973228Y-125798147D01*
X132100246Y-125491496D01*
X132165000Y-125165958D01*
X132165000Y-124834042D01*
X133875000Y-124834042D01*
X133875000Y-125165958D01*
X133939754Y-125491496D01*
X134066772Y-125798147D01*
X134251175Y-126074125D01*
X134485875Y-126308825D01*
X134761853Y-126493228D01*
X135068504Y-126620246D01*
X135394042Y-126685000D01*
X135725958Y-126685000D01*
X136051496Y-126620246D01*
X136358147Y-126493228D01*
X136634125Y-126308825D01*
X136868825Y-126074125D01*
X137053228Y-125798147D01*
X137180246Y-125491496D01*
X137245000Y-125165958D01*
X137245000Y-124834042D01*
X138955000Y-124834042D01*
X138955000Y-125165958D01*
X139019754Y-125491496D01*
X139146772Y-125798147D01*
X139331175Y-126074125D01*
X139565875Y-126308825D01*
X139841853Y-126493228D01*
X140148504Y-126620246D01*
X140474042Y-126685000D01*
X140805958Y-126685000D01*
X141131496Y-126620246D01*
X141438147Y-126493228D01*
X141714125Y-126308825D01*
X141948825Y-126074125D01*
X142133228Y-125798147D01*
X142260246Y-125491496D01*
X142325000Y-125165958D01*
X142325000Y-124834042D01*
X144035000Y-124834042D01*
X144035000Y-125165958D01*
X144099754Y-125491496D01*
X144226772Y-125798147D01*
X144411175Y-126074125D01*
X144645875Y-126308825D01*
X144921853Y-126493228D01*
X145228504Y-126620246D01*
X145554042Y-126685000D01*
X145885958Y-126685000D01*
X146211496Y-126620246D01*
X146518147Y-126493228D01*
X146794125Y-126308825D01*
X147028825Y-126074125D01*
X147213228Y-125798147D01*
X147340246Y-125491496D01*
X147405000Y-125165958D01*
X147405000Y-124834042D01*
X147394225Y-124779872D01*
X151485000Y-124779872D01*
X151485000Y-125220128D01*
X151570890Y-125651925D01*
X151739369Y-126058669D01*
X151983962Y-126424729D01*
X152295271Y-126736038D01*
X152661331Y-126980631D01*
X153068075Y-127149110D01*
X153499872Y-127235000D01*
X153940128Y-127235000D01*
X154371925Y-127149110D01*
X154778669Y-126980631D01*
X155144729Y-126736038D01*
X155456038Y-126424729D01*
X155700631Y-126058669D01*
X155869110Y-125651925D01*
X155955000Y-125220128D01*
X155955000Y-124779872D01*
X155869110Y-124348075D01*
X155700631Y-123941331D01*
X155456038Y-123575271D01*
X155144729Y-123263962D01*
X154778669Y-123019369D01*
X154371925Y-122850890D01*
X153940128Y-122765000D01*
X153499872Y-122765000D01*
X153068075Y-122850890D01*
X152661331Y-123019369D01*
X152295271Y-123263962D01*
X151983962Y-123575271D01*
X151739369Y-123941331D01*
X151570890Y-124348075D01*
X151485000Y-124779872D01*
X147394225Y-124779872D01*
X147340246Y-124508504D01*
X147213228Y-124201853D01*
X147028825Y-123925875D01*
X146794125Y-123691175D01*
X146518147Y-123506772D01*
X146211496Y-123379754D01*
X145885958Y-123315000D01*
X145554042Y-123315000D01*
X145228504Y-123379754D01*
X144921853Y-123506772D01*
X144645875Y-123691175D01*
X144411175Y-123925875D01*
X144226772Y-124201853D01*
X144099754Y-124508504D01*
X144035000Y-124834042D01*
X142325000Y-124834042D01*
X142260246Y-124508504D01*
X142133228Y-124201853D01*
X141948825Y-123925875D01*
X141714125Y-123691175D01*
X141438147Y-123506772D01*
X141131496Y-123379754D01*
X140805958Y-123315000D01*
X140474042Y-123315000D01*
X140148504Y-123379754D01*
X139841853Y-123506772D01*
X139565875Y-123691175D01*
X139331175Y-123925875D01*
X139146772Y-124201853D01*
X139019754Y-124508504D01*
X138955000Y-124834042D01*
X137245000Y-124834042D01*
X137180246Y-124508504D01*
X137053228Y-124201853D01*
X136868825Y-123925875D01*
X136634125Y-123691175D01*
X136358147Y-123506772D01*
X136051496Y-123379754D01*
X135725958Y-123315000D01*
X135394042Y-123315000D01*
X135068504Y-123379754D01*
X134761853Y-123506772D01*
X134485875Y-123691175D01*
X134251175Y-123925875D01*
X134066772Y-124201853D01*
X133939754Y-124508504D01*
X133875000Y-124834042D01*
X132165000Y-124834042D01*
X132100246Y-124508504D01*
X131973228Y-124201853D01*
X131788825Y-123925875D01*
X131554125Y-123691175D01*
X131278147Y-123506772D01*
X130971496Y-123379754D01*
X130645958Y-123315000D01*
X130314042Y-123315000D01*
X129988504Y-123379754D01*
X129681853Y-123506772D01*
X129405875Y-123691175D01*
X129171175Y-123925875D01*
X128986772Y-124201853D01*
X128859754Y-124508504D01*
X128795000Y-124834042D01*
X127085000Y-124834042D01*
X127020246Y-124508504D01*
X126893228Y-124201853D01*
X126708825Y-123925875D01*
X126474125Y-123691175D01*
X126198147Y-123506772D01*
X125891496Y-123379754D01*
X125565958Y-123315000D01*
X125234042Y-123315000D01*
X124908504Y-123379754D01*
X124601853Y-123506772D01*
X124325875Y-123691175D01*
X124091175Y-123925875D01*
X123906772Y-124201853D01*
X123779754Y-124508504D01*
X123715000Y-124834042D01*
X122005000Y-124834042D01*
X121940246Y-124508504D01*
X121813228Y-124201853D01*
X121628825Y-123925875D01*
X121394125Y-123691175D01*
X121118147Y-123506772D01*
X120811496Y-123379754D01*
X120485958Y-123315000D01*
X120154042Y-123315000D01*
X119828504Y-123379754D01*
X119521853Y-123506772D01*
X119245875Y-123691175D01*
X119011175Y-123925875D01*
X118826772Y-124201853D01*
X118699754Y-124508504D01*
X118635000Y-124834042D01*
X116925000Y-124834042D01*
X116860246Y-124508504D01*
X116733228Y-124201853D01*
X116548825Y-123925875D01*
X116314125Y-123691175D01*
X116038147Y-123506772D01*
X116000000Y-123490971D01*
X116000000Y-123002325D01*
X116003676Y-122965000D01*
X116000000Y-122927675D01*
X116000000Y-122927667D01*
X115989003Y-122816014D01*
X115945546Y-122672753D01*
X115874974Y-122540724D01*
X115780001Y-122424999D01*
X115751004Y-122401202D01*
X113822863Y-120473061D01*
X126965000Y-120473061D01*
X126965000Y-120676939D01*
X127004774Y-120876898D01*
X127082795Y-121065256D01*
X127196063Y-121234774D01*
X127340226Y-121378937D01*
X127509744Y-121492205D01*
X127698102Y-121570226D01*
X127898061Y-121610000D01*
X128101939Y-121610000D01*
X128301898Y-121570226D01*
X128490256Y-121492205D01*
X128659774Y-121378937D01*
X128678710Y-121360001D01*
X131622434Y-121360001D01*
X131590000Y-121523061D01*
X131590000Y-121726939D01*
X131629774Y-121926898D01*
X131707795Y-122115256D01*
X131821063Y-122284774D01*
X131965226Y-122428937D01*
X132134744Y-122542205D01*
X132323102Y-122620226D01*
X132523061Y-122660000D01*
X132726939Y-122660000D01*
X132926898Y-122620226D01*
X133115256Y-122542205D01*
X133284774Y-122428937D01*
X133328711Y-122385000D01*
X139921289Y-122385000D01*
X139990226Y-122453937D01*
X140159744Y-122567205D01*
X140348102Y-122645226D01*
X140548061Y-122685000D01*
X140751939Y-122685000D01*
X140951898Y-122645226D01*
X141140256Y-122567205D01*
X141309774Y-122453937D01*
X141453937Y-122309774D01*
X141567205Y-122140256D01*
X141645226Y-121951898D01*
X141685000Y-121751939D01*
X141685000Y-121548061D01*
X141647593Y-121360001D01*
X144795263Y-121360001D01*
X144807795Y-121390256D01*
X144921063Y-121559774D01*
X145065226Y-121703937D01*
X145234744Y-121817205D01*
X145423102Y-121895226D01*
X145623061Y-121935000D01*
X145826939Y-121935000D01*
X146026898Y-121895226D01*
X146215256Y-121817205D01*
X146384774Y-121703937D01*
X146528937Y-121559774D01*
X146642205Y-121390256D01*
X146720226Y-121201898D01*
X146760000Y-121001939D01*
X146760000Y-120798061D01*
X146720226Y-120598102D01*
X146642205Y-120409744D01*
X146528937Y-120240226D01*
X146384774Y-120096063D01*
X146215256Y-119982795D01*
X146026898Y-119904774D01*
X145826939Y-119865000D01*
X145623061Y-119865000D01*
X145621301Y-119865350D01*
X145573987Y-119850998D01*
X145462334Y-119840001D01*
X145462323Y-119840001D01*
X145425001Y-119836325D01*
X145387679Y-119840001D01*
X143588021Y-119840001D01*
X143645226Y-119701898D01*
X143685000Y-119501939D01*
X143685000Y-119298061D01*
X143645226Y-119098102D01*
X143567205Y-118909744D01*
X143453937Y-118740226D01*
X143309774Y-118596063D01*
X143140256Y-118482795D01*
X142951898Y-118404774D01*
X142751939Y-118365000D01*
X142548061Y-118365000D01*
X142348102Y-118404774D01*
X142159744Y-118482795D01*
X141990226Y-118596063D01*
X141946289Y-118640000D01*
X141744088Y-118640000D01*
X141770226Y-118576898D01*
X141810000Y-118376939D01*
X141810000Y-118173061D01*
X141770226Y-117973102D01*
X141692205Y-117784744D01*
X141578937Y-117615226D01*
X141434774Y-117471063D01*
X141265256Y-117357795D01*
X141076898Y-117279774D01*
X140876939Y-117240000D01*
X140673061Y-117240000D01*
X140473102Y-117279774D01*
X140284744Y-117357795D01*
X140115226Y-117471063D01*
X140071289Y-117515000D01*
X130578711Y-117515000D01*
X130484774Y-117421063D01*
X130315256Y-117307795D01*
X130126898Y-117229774D01*
X129926939Y-117190000D01*
X129723061Y-117190000D01*
X129523102Y-117229774D01*
X129334744Y-117307795D01*
X129165226Y-117421063D01*
X129021063Y-117565226D01*
X128907795Y-117734744D01*
X128829774Y-117923102D01*
X128790000Y-118123061D01*
X128790000Y-118326939D01*
X128802544Y-118390000D01*
X128623061Y-118390000D01*
X128423102Y-118429774D01*
X128234744Y-118507795D01*
X128065226Y-118621063D01*
X127921063Y-118765226D01*
X127807795Y-118934744D01*
X127729774Y-119123102D01*
X127690000Y-119323061D01*
X127690000Y-119526939D01*
X127700418Y-119579313D01*
X127698102Y-119579774D01*
X127509744Y-119657795D01*
X127340226Y-119771063D01*
X127196063Y-119915226D01*
X127082795Y-120084744D01*
X127004774Y-120273102D01*
X126965000Y-120473061D01*
X113822863Y-120473061D01*
X110860000Y-117510199D01*
X110860000Y-113260000D01*
X111113141Y-113260000D01*
X111081916Y-113318418D01*
X111037071Y-113466255D01*
X111021928Y-113620000D01*
X111021928Y-113920000D01*
X111037071Y-114073745D01*
X111081916Y-114221582D01*
X111154742Y-114357829D01*
X111193454Y-114405000D01*
X111154742Y-114452171D01*
X111081916Y-114588418D01*
X111037071Y-114736255D01*
X111021928Y-114890000D01*
X111021928Y-115190000D01*
X111037071Y-115343745D01*
X111081916Y-115491582D01*
X111154742Y-115627829D01*
X111193454Y-115675000D01*
X111154742Y-115722171D01*
X111081916Y-115858418D01*
X111037071Y-116006255D01*
X111021928Y-116160000D01*
X111021928Y-116460000D01*
X111037071Y-116613745D01*
X111081916Y-116761582D01*
X111154742Y-116897829D01*
X111252749Y-117017251D01*
X111372171Y-117115258D01*
X111508418Y-117188084D01*
X111656255Y-117232929D01*
X111810000Y-117248072D01*
X113460000Y-117248072D01*
X113613745Y-117232929D01*
X113761582Y-117188084D01*
X113897829Y-117115258D01*
X113952976Y-117070000D01*
X114981289Y-117070000D01*
X115040226Y-117128937D01*
X115209744Y-117242205D01*
X115398102Y-117320226D01*
X115598061Y-117360000D01*
X115801939Y-117360000D01*
X116001898Y-117320226D01*
X116190256Y-117242205D01*
X116359774Y-117128937D01*
X116503937Y-116984774D01*
X116617205Y-116815256D01*
X116695226Y-116626898D01*
X116735000Y-116426939D01*
X116735000Y-116223061D01*
X116695226Y-116023102D01*
X116617205Y-115834744D01*
X116503937Y-115665226D01*
X116388892Y-115550181D01*
X116402205Y-115530256D01*
X116480226Y-115341898D01*
X116520000Y-115141939D01*
X116520000Y-115079801D01*
X117139802Y-114460000D01*
X118640482Y-114460000D01*
X118665506Y-114480537D01*
X118775820Y-114539502D01*
X118895518Y-114575812D01*
X119020000Y-114588072D01*
X119820000Y-114588072D01*
X119944482Y-114575812D01*
X120064180Y-114539502D01*
X120174494Y-114480537D01*
X120271185Y-114401185D01*
X120320000Y-114341704D01*
X120368815Y-114401185D01*
X120465506Y-114480537D01*
X120575820Y-114539502D01*
X120695518Y-114575812D01*
X120820000Y-114588072D01*
X121620000Y-114588072D01*
X121744482Y-114575812D01*
X121849925Y-114543826D01*
X121959744Y-114617205D01*
X122148102Y-114695226D01*
X122348061Y-114735000D01*
X122551939Y-114735000D01*
X122751898Y-114695226D01*
X122940256Y-114617205D01*
X123109774Y-114503937D01*
X123133233Y-114480478D01*
X123198985Y-114474002D01*
X123245145Y-114460000D01*
X123720482Y-114460000D01*
X123745506Y-114480537D01*
X123855820Y-114539502D01*
X123975518Y-114575812D01*
X124100000Y-114588072D01*
X124900000Y-114588072D01*
X125024482Y-114575812D01*
X125144180Y-114539502D01*
X125254494Y-114480537D01*
X125351185Y-114401185D01*
X125400000Y-114341704D01*
X125448815Y-114401185D01*
X125545506Y-114480537D01*
X125655820Y-114539502D01*
X125775518Y-114575812D01*
X125900000Y-114588072D01*
X126700000Y-114588072D01*
X126824482Y-114575812D01*
X126944180Y-114539502D01*
X127054494Y-114480537D01*
X127079518Y-114460000D01*
X127271289Y-114460000D01*
X127340226Y-114528937D01*
X127509744Y-114642205D01*
X127698102Y-114720226D01*
X127898061Y-114760000D01*
X128101939Y-114760000D01*
X128301898Y-114720226D01*
X128490256Y-114642205D01*
X128659774Y-114528937D01*
X128728711Y-114460000D01*
X130474442Y-114460000D01*
X130407795Y-114559744D01*
X130329774Y-114748102D01*
X130290000Y-114948061D01*
X130290000Y-115151939D01*
X130319552Y-115300507D01*
X130298102Y-115304774D01*
X130109744Y-115382795D01*
X129940226Y-115496063D01*
X129796063Y-115640226D01*
X129682795Y-115809744D01*
X129604774Y-115998102D01*
X129565000Y-116198061D01*
X129565000Y-116401939D01*
X129604774Y-116601898D01*
X129682795Y-116790256D01*
X129796063Y-116959774D01*
X129940226Y-117103937D01*
X130109744Y-117217205D01*
X130298102Y-117295226D01*
X130498061Y-117335000D01*
X130701939Y-117335000D01*
X130901898Y-117295226D01*
X131090256Y-117217205D01*
X131259774Y-117103937D01*
X131293711Y-117070000D01*
X131767024Y-117070000D01*
X131822171Y-117115258D01*
X131958418Y-117188084D01*
X132106255Y-117232929D01*
X132260000Y-117248072D01*
X133910000Y-117248072D01*
X134063745Y-117232929D01*
X134211582Y-117188084D01*
X134347829Y-117115258D01*
X134467251Y-117017251D01*
X134565258Y-116897829D01*
X134638084Y-116761582D01*
X134682929Y-116613745D01*
X134698072Y-116460000D01*
X134698072Y-116160000D01*
X134682929Y-116006255D01*
X134638084Y-115858418D01*
X134565258Y-115722171D01*
X134526546Y-115675000D01*
X134565258Y-115627829D01*
X134638084Y-115491582D01*
X134682929Y-115343745D01*
X134698072Y-115190000D01*
X134698072Y-114890000D01*
X134682929Y-114736255D01*
X134638084Y-114588418D01*
X134565258Y-114452171D01*
X134526546Y-114405000D01*
X134565258Y-114357829D01*
X134638084Y-114221582D01*
X134682929Y-114073745D01*
X134698072Y-113920000D01*
X134698072Y-113620000D01*
X134689047Y-113528370D01*
X134848061Y-113560000D01*
X135051939Y-113560000D01*
X135251898Y-113520226D01*
X135440256Y-113442205D01*
X135609774Y-113328937D01*
X135753937Y-113184774D01*
X135867205Y-113015256D01*
X135945226Y-112826898D01*
X135985000Y-112626939D01*
X135985000Y-112423061D01*
X135945226Y-112223102D01*
X135867205Y-112034744D01*
X135753937Y-111865226D01*
X135609774Y-111721063D01*
X135440256Y-111607795D01*
X135251898Y-111529774D01*
X135051939Y-111490000D01*
X134848061Y-111490000D01*
X134695971Y-111520252D01*
X134695000Y-111515750D01*
X134536250Y-111357000D01*
X133212000Y-111357000D01*
X133212000Y-111377000D01*
X132958000Y-111377000D01*
X132958000Y-111357000D01*
X131633750Y-111357000D01*
X131475000Y-111515750D01*
X131471928Y-111530000D01*
X131484188Y-111654482D01*
X131520498Y-111774180D01*
X131579463Y-111884494D01*
X131603730Y-111914064D01*
X131531916Y-112048418D01*
X131487071Y-112196255D01*
X131474762Y-112321224D01*
X131403937Y-112215226D01*
X131259774Y-112071063D01*
X131090256Y-111957795D01*
X130901898Y-111879774D01*
X130730210Y-111845623D01*
X130767205Y-111790256D01*
X130845226Y-111601898D01*
X130885000Y-111401939D01*
X130885000Y-111198061D01*
X130845226Y-110998102D01*
X130767205Y-110809744D01*
X130707240Y-110720000D01*
X131510130Y-110720000D01*
X131484188Y-110805518D01*
X131471928Y-110930000D01*
X131475000Y-110944250D01*
X131633750Y-111103000D01*
X132958000Y-111103000D01*
X132958000Y-111083000D01*
X133212000Y-111083000D01*
X133212000Y-111103000D01*
X134536250Y-111103000D01*
X134695000Y-110944250D01*
X134698072Y-110930000D01*
X134685812Y-110805518D01*
X134649502Y-110685820D01*
X134590537Y-110575506D01*
X134566270Y-110545936D01*
X134638084Y-110411582D01*
X134682929Y-110263745D01*
X134698072Y-110110000D01*
X134698072Y-109810000D01*
X134682929Y-109656255D01*
X134638084Y-109508418D01*
X134565258Y-109372171D01*
X134526546Y-109325000D01*
X134565258Y-109277829D01*
X134638084Y-109141582D01*
X134682929Y-108993745D01*
X134698072Y-108840000D01*
X134698072Y-108540000D01*
X136421928Y-108540000D01*
X136421928Y-108840000D01*
X136437071Y-108993745D01*
X136481916Y-109141582D01*
X136554742Y-109277829D01*
X136593454Y-109325000D01*
X136554742Y-109372171D01*
X136481916Y-109508418D01*
X136437071Y-109656255D01*
X136421928Y-109810000D01*
X136421928Y-110110000D01*
X136437071Y-110263745D01*
X136481916Y-110411582D01*
X136554742Y-110547829D01*
X136593454Y-110595000D01*
X136554742Y-110642171D01*
X136481916Y-110778418D01*
X136437071Y-110926255D01*
X136421928Y-111080000D01*
X136421928Y-111380000D01*
X136437071Y-111533745D01*
X136481916Y-111681582D01*
X136554742Y-111817829D01*
X136593454Y-111865000D01*
X136554742Y-111912171D01*
X136481916Y-112048418D01*
X136437071Y-112196255D01*
X136421928Y-112350000D01*
X136421928Y-112650000D01*
X136437071Y-112803745D01*
X136481916Y-112951582D01*
X136554742Y-113087829D01*
X136593454Y-113135000D01*
X136554742Y-113182171D01*
X136481916Y-113318418D01*
X136437071Y-113466255D01*
X136421928Y-113620000D01*
X136421928Y-113920000D01*
X136437071Y-114073745D01*
X136481916Y-114221582D01*
X136554742Y-114357829D01*
X136593454Y-114405000D01*
X136554742Y-114452171D01*
X136481916Y-114588418D01*
X136437071Y-114736255D01*
X136421928Y-114890000D01*
X136421928Y-115190000D01*
X136437071Y-115343745D01*
X136481916Y-115491582D01*
X136554742Y-115627829D01*
X136593454Y-115675000D01*
X136554742Y-115722171D01*
X136481916Y-115858418D01*
X136437071Y-116006255D01*
X136421928Y-116160000D01*
X136421928Y-116460000D01*
X136437071Y-116613745D01*
X136481916Y-116761582D01*
X136554742Y-116897829D01*
X136652749Y-117017251D01*
X136772171Y-117115258D01*
X136908418Y-117188084D01*
X137056255Y-117232929D01*
X137210000Y-117248072D01*
X138860000Y-117248072D01*
X139013745Y-117232929D01*
X139161582Y-117188084D01*
X139297829Y-117115258D01*
X139417251Y-117017251D01*
X139515258Y-116897829D01*
X139588084Y-116761582D01*
X139632929Y-116613745D01*
X139648072Y-116460000D01*
X139648072Y-116160000D01*
X139632929Y-116006255D01*
X139588084Y-115858418D01*
X139556859Y-115800000D01*
X140086289Y-115800000D01*
X140090226Y-115803937D01*
X140259744Y-115917205D01*
X140448102Y-115995226D01*
X140648061Y-116035000D01*
X140851939Y-116035000D01*
X141051898Y-115995226D01*
X141240256Y-115917205D01*
X141409774Y-115803937D01*
X141553937Y-115659774D01*
X141667205Y-115490256D01*
X141745226Y-115301898D01*
X141785000Y-115101939D01*
X141785000Y-114898061D01*
X141760232Y-114773541D01*
X141776898Y-114770226D01*
X141965256Y-114692205D01*
X142134774Y-114578937D01*
X142278937Y-114434774D01*
X142392205Y-114265256D01*
X142470226Y-114076898D01*
X142510000Y-113876939D01*
X142510000Y-113725000D01*
X144606928Y-113725000D01*
X144619188Y-113849482D01*
X144655498Y-113969180D01*
X144714463Y-114079494D01*
X144793815Y-114176185D01*
X144890506Y-114255537D01*
X145000820Y-114314502D01*
X145120518Y-114350812D01*
X145245000Y-114363072D01*
X145434250Y-114360000D01*
X145593000Y-114201250D01*
X145593000Y-113414500D01*
X145847000Y-113414500D01*
X145847000Y-114201250D01*
X146005750Y-114360000D01*
X146195000Y-114363072D01*
X146319482Y-114350812D01*
X146439180Y-114314502D01*
X146549494Y-114255537D01*
X146646185Y-114176185D01*
X146725537Y-114079494D01*
X146784502Y-113969180D01*
X146820812Y-113849482D01*
X146833072Y-113725000D01*
X146830000Y-113573250D01*
X146671250Y-113414500D01*
X145847000Y-113414500D01*
X145593000Y-113414500D01*
X144768750Y-113414500D01*
X144610000Y-113573250D01*
X144606928Y-113725000D01*
X142510000Y-113725000D01*
X142510000Y-113673061D01*
X142492254Y-113583845D01*
X142498061Y-113585000D01*
X142701939Y-113585000D01*
X142901898Y-113545226D01*
X143090256Y-113467205D01*
X143259774Y-113353937D01*
X143403937Y-113209774D01*
X143517205Y-113040256D01*
X143595226Y-112851898D01*
X143635000Y-112651939D01*
X143635000Y-112448061D01*
X143595226Y-112248102D01*
X143517205Y-112059744D01*
X143403937Y-111890226D01*
X143259774Y-111746063D01*
X143090256Y-111632795D01*
X142974871Y-111585001D01*
X144606928Y-111585000D01*
X144606928Y-111931250D01*
X144623392Y-112098408D01*
X144672150Y-112259142D01*
X144751329Y-112407275D01*
X144769100Y-112428930D01*
X144714463Y-112495506D01*
X144655498Y-112605820D01*
X144619188Y-112725518D01*
X144606928Y-112850000D01*
X144610000Y-113001750D01*
X144768750Y-113160500D01*
X145593000Y-113160500D01*
X145593000Y-113140500D01*
X145847000Y-113140500D01*
X145847000Y-113160500D01*
X146671250Y-113160500D01*
X146830000Y-113001750D01*
X146833072Y-112850000D01*
X146820812Y-112725518D01*
X146784502Y-112605820D01*
X146725537Y-112495506D01*
X146670900Y-112428930D01*
X146688671Y-112407275D01*
X146767850Y-112259142D01*
X146816608Y-112098408D01*
X146833072Y-111931250D01*
X146833072Y-111493750D01*
X146816608Y-111326592D01*
X146767850Y-111165858D01*
X146688671Y-111017725D01*
X146582115Y-110887885D01*
X146484520Y-110807791D01*
X146474003Y-110701014D01*
X146430546Y-110557753D01*
X146359974Y-110425724D01*
X146265001Y-110309999D01*
X146251267Y-110298728D01*
X146240000Y-110284999D01*
X146200090Y-110252246D01*
X146124276Y-110190026D01*
X145992246Y-110119454D01*
X145848985Y-110075997D01*
X145737332Y-110065000D01*
X145737322Y-110065000D01*
X145700000Y-110061324D01*
X145662677Y-110065000D01*
X142727429Y-110065002D01*
X142735000Y-110026939D01*
X142735000Y-109823061D01*
X142695226Y-109623102D01*
X142617205Y-109434744D01*
X142503937Y-109265226D01*
X142359774Y-109121063D01*
X142190256Y-109007795D01*
X142001898Y-108929774D01*
X141801939Y-108890000D01*
X141598061Y-108890000D01*
X141540194Y-108901510D01*
X141560000Y-108801939D01*
X141560000Y-108598061D01*
X141520226Y-108398102D01*
X141442205Y-108209744D01*
X141328937Y-108040226D01*
X141184774Y-107896063D01*
X141015256Y-107782795D01*
X140826898Y-107704774D01*
X140626939Y-107665000D01*
X140423061Y-107665000D01*
X140223102Y-107704774D01*
X140034744Y-107782795D01*
X139865226Y-107896063D01*
X139831289Y-107930000D01*
X139352976Y-107930000D01*
X139297829Y-107884742D01*
X139161582Y-107811916D01*
X139013745Y-107767071D01*
X138860000Y-107751928D01*
X137210000Y-107751928D01*
X137056255Y-107767071D01*
X136908418Y-107811916D01*
X136772171Y-107884742D01*
X136652749Y-107982749D01*
X136554742Y-108102171D01*
X136481916Y-108238418D01*
X136437071Y-108386255D01*
X136421928Y-108540000D01*
X134698072Y-108540000D01*
X134682929Y-108386255D01*
X134638084Y-108238418D01*
X134565258Y-108102171D01*
X134467251Y-107982749D01*
X134347829Y-107884742D01*
X134211582Y-107811916D01*
X134063745Y-107767071D01*
X133910000Y-107751928D01*
X132260000Y-107751928D01*
X132106255Y-107767071D01*
X131958418Y-107811916D01*
X131822171Y-107884742D01*
X131767024Y-107930000D01*
X131168711Y-107930000D01*
X131134774Y-107896063D01*
X130965256Y-107782795D01*
X130891260Y-107752145D01*
X130915256Y-107742205D01*
X131084774Y-107628937D01*
X131228937Y-107484774D01*
X131342205Y-107315256D01*
X131420226Y-107126898D01*
X131438506Y-107035000D01*
X139946289Y-107035000D01*
X139990226Y-107078937D01*
X140159744Y-107192205D01*
X140348102Y-107270226D01*
X140548061Y-107310000D01*
X140751939Y-107310000D01*
X140951898Y-107270226D01*
X141140256Y-107192205D01*
X141309774Y-107078937D01*
X141453937Y-106934774D01*
X141567205Y-106765256D01*
X141645226Y-106576898D01*
X141685000Y-106376939D01*
X141685000Y-106173061D01*
X141647593Y-105985000D01*
X144996289Y-105985000D01*
X145065226Y-106053937D01*
X145234744Y-106167205D01*
X145423102Y-106245226D01*
X145623061Y-106285000D01*
X145826939Y-106285000D01*
X146026898Y-106245226D01*
X146215256Y-106167205D01*
X146384774Y-106053937D01*
X146528937Y-105909774D01*
X146642205Y-105740256D01*
X146720226Y-105551898D01*
X146760000Y-105351939D01*
X146760000Y-105148061D01*
X146720226Y-104948102D01*
X146642205Y-104759744D01*
X146528937Y-104590226D01*
X146384774Y-104446063D01*
X146215256Y-104332795D01*
X146026898Y-104254774D01*
X145826939Y-104215000D01*
X145623061Y-104215000D01*
X145423102Y-104254774D01*
X145234744Y-104332795D01*
X145065226Y-104446063D01*
X145046289Y-104465000D01*
X129878711Y-104465000D01*
X129834774Y-104421063D01*
X129665256Y-104307795D01*
X129476898Y-104229774D01*
X129276939Y-104190000D01*
X129073061Y-104190000D01*
X128873102Y-104229774D01*
X128684744Y-104307795D01*
X128515226Y-104421063D01*
X128371063Y-104565226D01*
X128257795Y-104734744D01*
X128179774Y-104923102D01*
X128140000Y-105123061D01*
X128140000Y-105326939D01*
X128179774Y-105526898D01*
X128257795Y-105715256D01*
X128371063Y-105884774D01*
X128515226Y-106028937D01*
X128684744Y-106142205D01*
X128873102Y-106220226D01*
X129073061Y-106260000D01*
X129276939Y-106260000D01*
X129476898Y-106220226D01*
X129629113Y-106157176D01*
X129621063Y-106165226D01*
X129507795Y-106334744D01*
X129429774Y-106523102D01*
X129390000Y-106723061D01*
X129390000Y-106926939D01*
X129429774Y-107126898D01*
X129507795Y-107315256D01*
X129621063Y-107484774D01*
X129765226Y-107628937D01*
X129934744Y-107742205D01*
X130008740Y-107772855D01*
X129984744Y-107782795D01*
X129815226Y-107896063D01*
X129671063Y-108040226D01*
X129557795Y-108209744D01*
X129479774Y-108398102D01*
X129440000Y-108598061D01*
X129440000Y-108801939D01*
X129459778Y-108901369D01*
X129276939Y-108865000D01*
X129073061Y-108865000D01*
X128873102Y-108904774D01*
X128684744Y-108982795D01*
X128515226Y-109096063D01*
X128371063Y-109240226D01*
X128257795Y-109409744D01*
X128179774Y-109598102D01*
X128140000Y-109798061D01*
X128140000Y-110001939D01*
X128179774Y-110201898D01*
X128257795Y-110390256D01*
X128357850Y-110540000D01*
X127079518Y-110540000D01*
X127054494Y-110519463D01*
X126944180Y-110460498D01*
X126824482Y-110424188D01*
X126700000Y-110411928D01*
X125900000Y-110411928D01*
X125775518Y-110424188D01*
X125655820Y-110460498D01*
X125545506Y-110519463D01*
X125448815Y-110598815D01*
X125400000Y-110658296D01*
X125351185Y-110598815D01*
X125254494Y-110519463D01*
X125144180Y-110460498D01*
X125024482Y-110424188D01*
X124900000Y-110411928D01*
X124100000Y-110411928D01*
X123975518Y-110424188D01*
X123855820Y-110460498D01*
X123745506Y-110519463D01*
X123734043Y-110528870D01*
X123590256Y-110432795D01*
X123401898Y-110354774D01*
X123201939Y-110315000D01*
X122998061Y-110315000D01*
X122798102Y-110354774D01*
X122609744Y-110432795D01*
X122449300Y-110540000D01*
X121999518Y-110540000D01*
X121974494Y-110519463D01*
X121864180Y-110460498D01*
X121744482Y-110424188D01*
X121620000Y-110411928D01*
X120820000Y-110411928D01*
X120695518Y-110424188D01*
X120575820Y-110460498D01*
X120465506Y-110519463D01*
X120368815Y-110598815D01*
X120320000Y-110658296D01*
X120271185Y-110598815D01*
X120174494Y-110519463D01*
X120064180Y-110460498D01*
X119944482Y-110424188D01*
X119820000Y-110411928D01*
X119020000Y-110411928D01*
X118895518Y-110424188D01*
X118775820Y-110460498D01*
X118665506Y-110519463D01*
X118640482Y-110540000D01*
X117003007Y-110540000D01*
X116965684Y-110536324D01*
X116928361Y-110540000D01*
X116928352Y-110540000D01*
X116816699Y-110550997D01*
X116673438Y-110594454D01*
X116541409Y-110665026D01*
X116425684Y-110759999D01*
X116401885Y-110788998D01*
X116357155Y-110833728D01*
X116238860Y-110784729D01*
X116359774Y-110703937D01*
X116503937Y-110559774D01*
X116617205Y-110390256D01*
X116695226Y-110201898D01*
X116735000Y-110001939D01*
X116735000Y-109798061D01*
X116695226Y-109598102D01*
X116617205Y-109409744D01*
X116503937Y-109240226D01*
X116359774Y-109096063D01*
X116190256Y-108982795D01*
X116001898Y-108904774D01*
X115874556Y-108879444D01*
X115885000Y-108826939D01*
X115885000Y-108623061D01*
X115845226Y-108423102D01*
X115767205Y-108234744D01*
X115653937Y-108065226D01*
X115509774Y-107921063D01*
X115340256Y-107807795D01*
X115151898Y-107729774D01*
X114951939Y-107690000D01*
X114748061Y-107690000D01*
X114548102Y-107729774D01*
X114359744Y-107807795D01*
X114190226Y-107921063D01*
X114181289Y-107930000D01*
X113952976Y-107930000D01*
X113897829Y-107884742D01*
X113761582Y-107811916D01*
X113613745Y-107767071D01*
X113460000Y-107751928D01*
X111810000Y-107751928D01*
X111656255Y-107767071D01*
X111508418Y-107811916D01*
X111372171Y-107884742D01*
X111252749Y-107982749D01*
X111154742Y-108102171D01*
X111081916Y-108238418D01*
X111037071Y-108386255D01*
X111021928Y-108540000D01*
X111021928Y-108840000D01*
X111037071Y-108993745D01*
X111081916Y-109141582D01*
X111154742Y-109277829D01*
X111193454Y-109325000D01*
X111154742Y-109372171D01*
X111081916Y-109508418D01*
X111037071Y-109656255D01*
X111021928Y-109810000D01*
X111021928Y-110110000D01*
X111037071Y-110263745D01*
X111044710Y-110288929D01*
X110901898Y-110229774D01*
X110701939Y-110190000D01*
X110498061Y-110190000D01*
X110298102Y-110229774D01*
X110109744Y-110307795D01*
X109940226Y-110421063D01*
X109796063Y-110565226D01*
X109682795Y-110734744D01*
X109604774Y-110923102D01*
X109565000Y-111123061D01*
X109565000Y-111326939D01*
X109604774Y-111526898D01*
X109682795Y-111715256D01*
X109796063Y-111884774D01*
X109930744Y-112019455D01*
X109589003Y-112361196D01*
X109559999Y-112384999D01*
X109519150Y-112434774D01*
X109465026Y-112500724D01*
X109397562Y-112626939D01*
X109394454Y-112632754D01*
X109350997Y-112776015D01*
X109340000Y-112887668D01*
X109340000Y-112887678D01*
X109336324Y-112925000D01*
X109246147Y-112925000D01*
X109282929Y-112803745D01*
X109298072Y-112650000D01*
X109298072Y-112350000D01*
X109282929Y-112196255D01*
X109238084Y-112048418D01*
X109166270Y-111914064D01*
X109190537Y-111884494D01*
X109249502Y-111774180D01*
X109285812Y-111654482D01*
X109298072Y-111530000D01*
X109295000Y-111515750D01*
X109136250Y-111357000D01*
X107812000Y-111357000D01*
X107812000Y-111377000D01*
X107558000Y-111377000D01*
X107558000Y-111357000D01*
X106233750Y-111357000D01*
X106075000Y-111515750D01*
X106071928Y-111530000D01*
X106084188Y-111654482D01*
X106110130Y-111740000D01*
X106078711Y-111740000D01*
X106009774Y-111671063D01*
X105840256Y-111557795D01*
X105651898Y-111479774D01*
X105451939Y-111440000D01*
X105248061Y-111440000D01*
X105048102Y-111479774D01*
X104859744Y-111557795D01*
X104690226Y-111671063D01*
X104646289Y-111715000D01*
X102587325Y-111715000D01*
X102550000Y-111711324D01*
X102512675Y-111715000D01*
X102512667Y-111715000D01*
X102401014Y-111725997D01*
X102257753Y-111769454D01*
X102125724Y-111840026D01*
X102009999Y-111934999D01*
X101986196Y-111964003D01*
X101914003Y-112036196D01*
X101884999Y-112059999D01*
X101845537Y-112108084D01*
X101790026Y-112175724D01*
X101735812Y-112277150D01*
X101719454Y-112307754D01*
X101675997Y-112451015D01*
X101665000Y-112562668D01*
X101665000Y-112562678D01*
X101661324Y-112600000D01*
X101665000Y-112637323D01*
X101665001Y-113460198D01*
X101060199Y-114065000D01*
X100900781Y-114065000D01*
X100968671Y-113982275D01*
X101047850Y-113834142D01*
X101096608Y-113673408D01*
X101113072Y-113506250D01*
X101113072Y-113068750D01*
X101096608Y-112901592D01*
X101047850Y-112740858D01*
X100968671Y-112592725D01*
X100950900Y-112571070D01*
X101005537Y-112504494D01*
X101064502Y-112394180D01*
X101100812Y-112274482D01*
X101113072Y-112150000D01*
X101110000Y-111998250D01*
X100951250Y-111839500D01*
X100127000Y-111839500D01*
X100127000Y-111859500D01*
X99873000Y-111859500D01*
X99873000Y-111839500D01*
X99048750Y-111839500D01*
X98890000Y-111998250D01*
X98886928Y-112150000D01*
X94270000Y-112150000D01*
X94270000Y-111275000D01*
X98886928Y-111275000D01*
X98890000Y-111426750D01*
X99048750Y-111585500D01*
X99873000Y-111585500D01*
X99873000Y-110798750D01*
X100127000Y-110798750D01*
X100127000Y-111585500D01*
X100951250Y-111585500D01*
X101110000Y-111426750D01*
X101113072Y-111275000D01*
X101100812Y-111150518D01*
X101064502Y-111030820D01*
X101005537Y-110920506D01*
X100926185Y-110823815D01*
X100829494Y-110744463D01*
X100719180Y-110685498D01*
X100599482Y-110649188D01*
X100475000Y-110636928D01*
X100285750Y-110640000D01*
X100127000Y-110798750D01*
X99873000Y-110798750D01*
X99714250Y-110640000D01*
X99525000Y-110636928D01*
X99400518Y-110649188D01*
X99280820Y-110685498D01*
X99170506Y-110744463D01*
X99073815Y-110823815D01*
X98994463Y-110920506D01*
X98935498Y-111030820D01*
X98899188Y-111150518D01*
X98886928Y-111275000D01*
X94270000Y-111275000D01*
X94270000Y-109873061D01*
X102790000Y-109873061D01*
X102790000Y-110076939D01*
X102829774Y-110276898D01*
X102907795Y-110465256D01*
X103021063Y-110634774D01*
X103165226Y-110778937D01*
X103334744Y-110892205D01*
X103523102Y-110970226D01*
X103723061Y-111010000D01*
X103926939Y-111010000D01*
X104126898Y-110970226D01*
X104315256Y-110892205D01*
X104484774Y-110778937D01*
X104543711Y-110720000D01*
X106110130Y-110720000D01*
X106084188Y-110805518D01*
X106071928Y-110930000D01*
X106075000Y-110944250D01*
X106233750Y-111103000D01*
X107558000Y-111103000D01*
X107558000Y-111083000D01*
X107812000Y-111083000D01*
X107812000Y-111103000D01*
X109136250Y-111103000D01*
X109295000Y-110944250D01*
X109298072Y-110930000D01*
X109285812Y-110805518D01*
X109249502Y-110685820D01*
X109190537Y-110575506D01*
X109166270Y-110545936D01*
X109238084Y-110411582D01*
X109282929Y-110263745D01*
X109298072Y-110110000D01*
X109298072Y-109810000D01*
X109282929Y-109656255D01*
X109238084Y-109508418D01*
X109165258Y-109372171D01*
X109126546Y-109325000D01*
X109165258Y-109277829D01*
X109238084Y-109141582D01*
X109282929Y-108993745D01*
X109298072Y-108840000D01*
X109298072Y-108540000D01*
X109282929Y-108386255D01*
X109238084Y-108238418D01*
X109165258Y-108102171D01*
X109067251Y-107982749D01*
X108947829Y-107884742D01*
X108811582Y-107811916D01*
X108663745Y-107767071D01*
X108510000Y-107751928D01*
X106860000Y-107751928D01*
X106706255Y-107767071D01*
X106558418Y-107811916D01*
X106422171Y-107884742D01*
X106367024Y-107930000D01*
X105993711Y-107930000D01*
X105859774Y-107796063D01*
X105690256Y-107682795D01*
X105501898Y-107604774D01*
X105301939Y-107565000D01*
X105098061Y-107565000D01*
X104898102Y-107604774D01*
X104709744Y-107682795D01*
X104540226Y-107796063D01*
X104396063Y-107940226D01*
X104282795Y-108109744D01*
X104204774Y-108298102D01*
X104165000Y-108498061D01*
X104165000Y-108701939D01*
X104204774Y-108901898D01*
X104259841Y-109034841D01*
X104126898Y-108979774D01*
X103926939Y-108940000D01*
X103723061Y-108940000D01*
X103523102Y-108979774D01*
X103334744Y-109057795D01*
X103165226Y-109171063D01*
X103021063Y-109315226D01*
X102907795Y-109484744D01*
X102829774Y-109673102D01*
X102790000Y-109873061D01*
X94270000Y-109873061D01*
X94270000Y-104842381D01*
X89700000Y-104842381D01*
X87710000Y-104842381D01*
X87710000Y-104773061D01*
X102765000Y-104773061D01*
X102765000Y-104976939D01*
X102804774Y-105176898D01*
X102882795Y-105365256D01*
X102996063Y-105534774D01*
X103140226Y-105678937D01*
X103309744Y-105792205D01*
X103498102Y-105870226D01*
X103698061Y-105910000D01*
X103901939Y-105910000D01*
X104101898Y-105870226D01*
X104177340Y-105838977D01*
X104204774Y-105976898D01*
X104282795Y-106165256D01*
X104396063Y-106334774D01*
X104540226Y-106478937D01*
X104709744Y-106592205D01*
X104898102Y-106670226D01*
X105098061Y-106710000D01*
X105301939Y-106710000D01*
X105501898Y-106670226D01*
X105690256Y-106592205D01*
X105859774Y-106478937D01*
X105903711Y-106435000D01*
X119649300Y-106435000D01*
X119809744Y-106542205D01*
X119998102Y-106620226D01*
X120198061Y-106660000D01*
X120401939Y-106660000D01*
X120601898Y-106620226D01*
X120790256Y-106542205D01*
X120959774Y-106428937D01*
X121103937Y-106284774D01*
X121217205Y-106115256D01*
X121295226Y-105926898D01*
X121335000Y-105726939D01*
X121335000Y-105635000D01*
X124746289Y-105635000D01*
X124765226Y-105653937D01*
X124934744Y-105767205D01*
X125123102Y-105845226D01*
X125323061Y-105885000D01*
X125526939Y-105885000D01*
X125726898Y-105845226D01*
X125915256Y-105767205D01*
X126084774Y-105653937D01*
X126228937Y-105509774D01*
X126342205Y-105340256D01*
X126420226Y-105151898D01*
X126460000Y-104951939D01*
X126460000Y-104748061D01*
X126420226Y-104548102D01*
X126342205Y-104359744D01*
X126228937Y-104190226D01*
X126084774Y-104046063D01*
X125915256Y-103932795D01*
X125726898Y-103854774D01*
X125526939Y-103815000D01*
X125323061Y-103815000D01*
X125123102Y-103854774D01*
X124934744Y-103932795D01*
X124765226Y-104046063D01*
X124696289Y-104115000D01*
X104503711Y-104115000D01*
X104459774Y-104071063D01*
X104290256Y-103957795D01*
X104101898Y-103879774D01*
X103901939Y-103840000D01*
X103698061Y-103840000D01*
X103498102Y-103879774D01*
X103309744Y-103957795D01*
X103140226Y-104071063D01*
X102996063Y-104215226D01*
X102882795Y-104384744D01*
X102804774Y-104573102D01*
X102765000Y-104773061D01*
X87710000Y-104773061D01*
X87710000Y-102824524D01*
X151525000Y-102824524D01*
X151525000Y-120775476D01*
X156095000Y-120775476D01*
X156095000Y-102824524D01*
X151525000Y-102824524D01*
X87710000Y-102824524D01*
X87710000Y-99779872D01*
X89765000Y-99779872D01*
X89765000Y-100220128D01*
X89850890Y-100651925D01*
X90019369Y-101058669D01*
X90263962Y-101424729D01*
X90575271Y-101736038D01*
X90941331Y-101980631D01*
X91348075Y-102149110D01*
X91779872Y-102235000D01*
X92220128Y-102235000D01*
X92651925Y-102149110D01*
X93058669Y-101980631D01*
X93424729Y-101736038D01*
X93736038Y-101424729D01*
X93980631Y-101058669D01*
X94149110Y-100651925D01*
X94235000Y-100220128D01*
X94235000Y-99779872D01*
X94149110Y-99348075D01*
X93984222Y-98950000D01*
X98311928Y-98950000D01*
X98311928Y-101050000D01*
X98324188Y-101174482D01*
X98360498Y-101294180D01*
X98419463Y-101404494D01*
X98498815Y-101501185D01*
X98595506Y-101580537D01*
X98705820Y-101639502D01*
X98825518Y-101675812D01*
X98950000Y-101688072D01*
X101050000Y-101688072D01*
X101174482Y-101675812D01*
X101294180Y-101639502D01*
X101404494Y-101580537D01*
X101501185Y-101501185D01*
X101580537Y-101404494D01*
X101639502Y-101294180D01*
X101675812Y-101174482D01*
X101676148Y-101171066D01*
X104088539Y-101171066D01*
X104190339Y-101440579D01*
X104488477Y-101586463D01*
X104809346Y-101671380D01*
X105140617Y-101692066D01*
X105469557Y-101647728D01*
X105783527Y-101540069D01*
X105969661Y-101440579D01*
X106071461Y-101171066D01*
X105080000Y-100179605D01*
X104088539Y-101171066D01*
X101676148Y-101171066D01*
X101688072Y-101050000D01*
X101688072Y-100060617D01*
X103387934Y-100060617D01*
X103432272Y-100389557D01*
X103539931Y-100703527D01*
X103639421Y-100889661D01*
X103908934Y-100991461D01*
X104900395Y-100000000D01*
X105259605Y-100000000D01*
X106251066Y-100991461D01*
X106520579Y-100889661D01*
X106666463Y-100591523D01*
X106751380Y-100270654D01*
X106772066Y-99939383D01*
X106757868Y-99834042D01*
X108475000Y-99834042D01*
X108475000Y-100165958D01*
X108539754Y-100491496D01*
X108666772Y-100798147D01*
X108851175Y-101074125D01*
X109085875Y-101308825D01*
X109361853Y-101493228D01*
X109668504Y-101620246D01*
X109994042Y-101685000D01*
X110325958Y-101685000D01*
X110651496Y-101620246D01*
X110958147Y-101493228D01*
X111234125Y-101308825D01*
X111468825Y-101074125D01*
X111653228Y-100798147D01*
X111780246Y-100491496D01*
X111845000Y-100165958D01*
X111845000Y-99834042D01*
X113555000Y-99834042D01*
X113555000Y-100165958D01*
X113619754Y-100491496D01*
X113746772Y-100798147D01*
X113931175Y-101074125D01*
X114165875Y-101308825D01*
X114441853Y-101493228D01*
X114748504Y-101620246D01*
X115074042Y-101685000D01*
X115405958Y-101685000D01*
X115731496Y-101620246D01*
X116038147Y-101493228D01*
X116314125Y-101308825D01*
X116548825Y-101074125D01*
X116733228Y-100798147D01*
X116860246Y-100491496D01*
X116925000Y-100165958D01*
X116925000Y-99834042D01*
X118635000Y-99834042D01*
X118635000Y-100165958D01*
X118699754Y-100491496D01*
X118826772Y-100798147D01*
X119011175Y-101074125D01*
X119245875Y-101308825D01*
X119521853Y-101493228D01*
X119828504Y-101620246D01*
X120154042Y-101685000D01*
X120485958Y-101685000D01*
X120811496Y-101620246D01*
X121118147Y-101493228D01*
X121394125Y-101308825D01*
X121628825Y-101074125D01*
X121813228Y-100798147D01*
X121940246Y-100491496D01*
X122005000Y-100165958D01*
X122005000Y-99834042D01*
X123715000Y-99834042D01*
X123715000Y-100165958D01*
X123779754Y-100491496D01*
X123906772Y-100798147D01*
X124091175Y-101074125D01*
X124325875Y-101308825D01*
X124601853Y-101493228D01*
X124908504Y-101620246D01*
X125234042Y-101685000D01*
X125565958Y-101685000D01*
X125891496Y-101620246D01*
X126198147Y-101493228D01*
X126474125Y-101308825D01*
X126708825Y-101074125D01*
X126893228Y-100798147D01*
X127020246Y-100491496D01*
X127085000Y-100165958D01*
X127085000Y-99834042D01*
X128795000Y-99834042D01*
X128795000Y-100165958D01*
X128859754Y-100491496D01*
X128986772Y-100798147D01*
X129171175Y-101074125D01*
X129405875Y-101308825D01*
X129681853Y-101493228D01*
X129988504Y-101620246D01*
X130314042Y-101685000D01*
X130645958Y-101685000D01*
X130971496Y-101620246D01*
X131278147Y-101493228D01*
X131554125Y-101308825D01*
X131788825Y-101074125D01*
X131973228Y-100798147D01*
X132100246Y-100491496D01*
X132165000Y-100165958D01*
X132165000Y-99834042D01*
X133875000Y-99834042D01*
X133875000Y-100165958D01*
X133939754Y-100491496D01*
X134066772Y-100798147D01*
X134251175Y-101074125D01*
X134485875Y-101308825D01*
X134761853Y-101493228D01*
X135068504Y-101620246D01*
X135394042Y-101685000D01*
X135725958Y-101685000D01*
X136051496Y-101620246D01*
X136358147Y-101493228D01*
X136634125Y-101308825D01*
X136868825Y-101074125D01*
X137053228Y-100798147D01*
X137180246Y-100491496D01*
X137245000Y-100165958D01*
X137245000Y-99834042D01*
X138955000Y-99834042D01*
X138955000Y-100165958D01*
X139019754Y-100491496D01*
X139146772Y-100798147D01*
X139331175Y-101074125D01*
X139565875Y-101308825D01*
X139841853Y-101493228D01*
X140148504Y-101620246D01*
X140474042Y-101685000D01*
X140805958Y-101685000D01*
X141131496Y-101620246D01*
X141438147Y-101493228D01*
X141714125Y-101308825D01*
X141948825Y-101074125D01*
X142133228Y-100798147D01*
X142260246Y-100491496D01*
X142325000Y-100165958D01*
X142325000Y-99834042D01*
X144035000Y-99834042D01*
X144035000Y-100165958D01*
X144099754Y-100491496D01*
X144226772Y-100798147D01*
X144411175Y-101074125D01*
X144645875Y-101308825D01*
X144921853Y-101493228D01*
X145228504Y-101620246D01*
X145554042Y-101685000D01*
X145885958Y-101685000D01*
X146211496Y-101620246D01*
X146518147Y-101493228D01*
X146794125Y-101308825D01*
X147028825Y-101074125D01*
X147213228Y-100798147D01*
X147340246Y-100491496D01*
X147405000Y-100165958D01*
X147405000Y-99834042D01*
X147394225Y-99779872D01*
X151485000Y-99779872D01*
X151485000Y-100220128D01*
X151570890Y-100651925D01*
X151739369Y-101058669D01*
X151983962Y-101424729D01*
X152295271Y-101736038D01*
X152661331Y-101980631D01*
X153068075Y-102149110D01*
X153499872Y-102235000D01*
X153940128Y-102235000D01*
X154371925Y-102149110D01*
X154778669Y-101980631D01*
X155144729Y-101736038D01*
X155456038Y-101424729D01*
X155700631Y-101058669D01*
X155869110Y-100651925D01*
X155955000Y-100220128D01*
X155955000Y-99779872D01*
X155869110Y-99348075D01*
X155700631Y-98941331D01*
X155456038Y-98575271D01*
X155144729Y-98263962D01*
X154778669Y-98019369D01*
X154371925Y-97850890D01*
X153940128Y-97765000D01*
X153499872Y-97765000D01*
X153068075Y-97850890D01*
X152661331Y-98019369D01*
X152295271Y-98263962D01*
X151983962Y-98575271D01*
X151739369Y-98941331D01*
X151570890Y-99348075D01*
X151485000Y-99779872D01*
X147394225Y-99779872D01*
X147340246Y-99508504D01*
X147213228Y-99201853D01*
X147028825Y-98925875D01*
X146794125Y-98691175D01*
X146518147Y-98506772D01*
X146211496Y-98379754D01*
X145885958Y-98315000D01*
X145554042Y-98315000D01*
X145228504Y-98379754D01*
X144921853Y-98506772D01*
X144645875Y-98691175D01*
X144411175Y-98925875D01*
X144226772Y-99201853D01*
X144099754Y-99508504D01*
X144035000Y-99834042D01*
X142325000Y-99834042D01*
X142260246Y-99508504D01*
X142133228Y-99201853D01*
X141948825Y-98925875D01*
X141714125Y-98691175D01*
X141438147Y-98506772D01*
X141131496Y-98379754D01*
X140805958Y-98315000D01*
X140474042Y-98315000D01*
X140148504Y-98379754D01*
X139841853Y-98506772D01*
X139565875Y-98691175D01*
X139331175Y-98925875D01*
X139146772Y-99201853D01*
X139019754Y-99508504D01*
X138955000Y-99834042D01*
X137245000Y-99834042D01*
X137180246Y-99508504D01*
X137053228Y-99201853D01*
X136868825Y-98925875D01*
X136634125Y-98691175D01*
X136358147Y-98506772D01*
X136051496Y-98379754D01*
X135725958Y-98315000D01*
X135394042Y-98315000D01*
X135068504Y-98379754D01*
X134761853Y-98506772D01*
X134485875Y-98691175D01*
X134251175Y-98925875D01*
X134066772Y-99201853D01*
X133939754Y-99508504D01*
X133875000Y-99834042D01*
X132165000Y-99834042D01*
X132100246Y-99508504D01*
X131973228Y-99201853D01*
X131788825Y-98925875D01*
X131554125Y-98691175D01*
X131278147Y-98506772D01*
X130971496Y-98379754D01*
X130645958Y-98315000D01*
X130314042Y-98315000D01*
X129988504Y-98379754D01*
X129681853Y-98506772D01*
X129405875Y-98691175D01*
X129171175Y-98925875D01*
X128986772Y-99201853D01*
X128859754Y-99508504D01*
X128795000Y-99834042D01*
X127085000Y-99834042D01*
X127020246Y-99508504D01*
X126893228Y-99201853D01*
X126708825Y-98925875D01*
X126474125Y-98691175D01*
X126198147Y-98506772D01*
X125891496Y-98379754D01*
X125565958Y-98315000D01*
X125234042Y-98315000D01*
X124908504Y-98379754D01*
X124601853Y-98506772D01*
X124325875Y-98691175D01*
X124091175Y-98925875D01*
X123906772Y-99201853D01*
X123779754Y-99508504D01*
X123715000Y-99834042D01*
X122005000Y-99834042D01*
X121940246Y-99508504D01*
X121813228Y-99201853D01*
X121628825Y-98925875D01*
X121394125Y-98691175D01*
X121118147Y-98506772D01*
X120811496Y-98379754D01*
X120485958Y-98315000D01*
X120154042Y-98315000D01*
X119828504Y-98379754D01*
X119521853Y-98506772D01*
X119245875Y-98691175D01*
X119011175Y-98925875D01*
X118826772Y-99201853D01*
X118699754Y-99508504D01*
X118635000Y-99834042D01*
X116925000Y-99834042D01*
X116860246Y-99508504D01*
X116733228Y-99201853D01*
X116548825Y-98925875D01*
X116314125Y-98691175D01*
X116038147Y-98506772D01*
X115731496Y-98379754D01*
X115405958Y-98315000D01*
X115074042Y-98315000D01*
X114748504Y-98379754D01*
X114441853Y-98506772D01*
X114165875Y-98691175D01*
X113931175Y-98925875D01*
X113746772Y-99201853D01*
X113619754Y-99508504D01*
X113555000Y-99834042D01*
X111845000Y-99834042D01*
X111780246Y-99508504D01*
X111653228Y-99201853D01*
X111468825Y-98925875D01*
X111234125Y-98691175D01*
X110958147Y-98506772D01*
X110651496Y-98379754D01*
X110325958Y-98315000D01*
X109994042Y-98315000D01*
X109668504Y-98379754D01*
X109361853Y-98506772D01*
X109085875Y-98691175D01*
X108851175Y-98925875D01*
X108666772Y-99201853D01*
X108539754Y-99508504D01*
X108475000Y-99834042D01*
X106757868Y-99834042D01*
X106727728Y-99610443D01*
X106620069Y-99296473D01*
X106520579Y-99110339D01*
X106251066Y-99008539D01*
X105259605Y-100000000D01*
X104900395Y-100000000D01*
X103908934Y-99008539D01*
X103639421Y-99110339D01*
X103493537Y-99408477D01*
X103408620Y-99729346D01*
X103387934Y-100060617D01*
X101688072Y-100060617D01*
X101688072Y-98950000D01*
X101676149Y-98828934D01*
X104088539Y-98828934D01*
X105080000Y-99820395D01*
X106071461Y-98828934D01*
X105969661Y-98559421D01*
X105671523Y-98413537D01*
X105350654Y-98328620D01*
X105019383Y-98307934D01*
X104690443Y-98352272D01*
X104376473Y-98459931D01*
X104190339Y-98559421D01*
X104088539Y-98828934D01*
X101676149Y-98828934D01*
X101675812Y-98825518D01*
X101639502Y-98705820D01*
X101580537Y-98595506D01*
X101501185Y-98498815D01*
X101404494Y-98419463D01*
X101294180Y-98360498D01*
X101174482Y-98324188D01*
X101050000Y-98311928D01*
X98950000Y-98311928D01*
X98825518Y-98324188D01*
X98705820Y-98360498D01*
X98595506Y-98419463D01*
X98498815Y-98498815D01*
X98419463Y-98595506D01*
X98360498Y-98705820D01*
X98324188Y-98825518D01*
X98311928Y-98950000D01*
X93984222Y-98950000D01*
X93980631Y-98941331D01*
X93736038Y-98575271D01*
X93424729Y-98263962D01*
X93058669Y-98019369D01*
X92651925Y-97850890D01*
X92220128Y-97765000D01*
X91779872Y-97765000D01*
X91348075Y-97850890D01*
X90941331Y-98019369D01*
X90575271Y-98263962D01*
X90263962Y-98575271D01*
X90019369Y-98941331D01*
X89850890Y-99348075D01*
X89765000Y-99779872D01*
X87710000Y-99779872D01*
X87710000Y-95660000D01*
X158013084Y-95660000D01*
X157916910Y-128840000D01*
G37*
X157916910Y-128840000D02*
X87710000Y-128840000D01*
X87710000Y-124779872D01*
X89765000Y-124779872D01*
X89765000Y-125220128D01*
X89850890Y-125651925D01*
X90019369Y-126058669D01*
X90263962Y-126424729D01*
X90575271Y-126736038D01*
X90941331Y-126980631D01*
X91348075Y-127149110D01*
X91779872Y-127235000D01*
X92220128Y-127235000D01*
X92651925Y-127149110D01*
X93058669Y-126980631D01*
X93424729Y-126736038D01*
X93736038Y-126424729D01*
X93980631Y-126058669D01*
X94149110Y-125651925D01*
X94235000Y-125220128D01*
X94235000Y-124779872D01*
X94149110Y-124348075D01*
X93984222Y-123950000D01*
X98311928Y-123950000D01*
X98311928Y-126050000D01*
X98324188Y-126174482D01*
X98360498Y-126294180D01*
X98419463Y-126404494D01*
X98498815Y-126501185D01*
X98595506Y-126580537D01*
X98705820Y-126639502D01*
X98825518Y-126675812D01*
X98950000Y-126688072D01*
X101050000Y-126688072D01*
X101174482Y-126675812D01*
X101294180Y-126639502D01*
X101404494Y-126580537D01*
X101501185Y-126501185D01*
X101580537Y-126404494D01*
X101639502Y-126294180D01*
X101675812Y-126174482D01*
X101676148Y-126171066D01*
X104088539Y-126171066D01*
X104190339Y-126440579D01*
X104488477Y-126586463D01*
X104809346Y-126671380D01*
X105140617Y-126692066D01*
X105469557Y-126647728D01*
X105783527Y-126540069D01*
X105969661Y-126440579D01*
X106071461Y-126171066D01*
X105080000Y-125179605D01*
X104088539Y-126171066D01*
X101676148Y-126171066D01*
X101688072Y-126050000D01*
X101688072Y-125060617D01*
X103387934Y-125060617D01*
X103432272Y-125389557D01*
X103539931Y-125703527D01*
X103639421Y-125889661D01*
X103908934Y-125991461D01*
X104900395Y-125000000D01*
X105259605Y-125000000D01*
X106251066Y-125991461D01*
X106520579Y-125889661D01*
X106666463Y-125591523D01*
X106751380Y-125270654D01*
X106772066Y-124939383D01*
X106757868Y-124834042D01*
X108475000Y-124834042D01*
X108475000Y-125165958D01*
X108539754Y-125491496D01*
X108666772Y-125798147D01*
X108851175Y-126074125D01*
X109085875Y-126308825D01*
X109361853Y-126493228D01*
X109668504Y-126620246D01*
X109994042Y-126685000D01*
X110325958Y-126685000D01*
X110651496Y-126620246D01*
X110958147Y-126493228D01*
X111234125Y-126308825D01*
X111468825Y-126074125D01*
X111653228Y-125798147D01*
X111780246Y-125491496D01*
X111845000Y-125165958D01*
X111845000Y-124834042D01*
X111780246Y-124508504D01*
X111653228Y-124201853D01*
X111468825Y-123925875D01*
X111234125Y-123691175D01*
X110958147Y-123506772D01*
X110651496Y-123379754D01*
X110325958Y-123315000D01*
X109994042Y-123315000D01*
X109668504Y-123379754D01*
X109361853Y-123506772D01*
X109085875Y-123691175D01*
X108851175Y-123925875D01*
X108666772Y-124201853D01*
X108539754Y-124508504D01*
X108475000Y-124834042D01*
X106757868Y-124834042D01*
X106727728Y-124610443D01*
X106620069Y-124296473D01*
X106520579Y-124110339D01*
X106251066Y-124008539D01*
X105259605Y-125000000D01*
X104900395Y-125000000D01*
X103908934Y-124008539D01*
X103639421Y-124110339D01*
X103493537Y-124408477D01*
X103408620Y-124729346D01*
X103387934Y-125060617D01*
X101688072Y-125060617D01*
X101688072Y-123950000D01*
X101676149Y-123828934D01*
X104088539Y-123828934D01*
X105080000Y-124820395D01*
X106071461Y-123828934D01*
X105969661Y-123559421D01*
X105671523Y-123413537D01*
X105350654Y-123328620D01*
X105019383Y-123307934D01*
X104690443Y-123352272D01*
X104376473Y-123459931D01*
X104190339Y-123559421D01*
X104088539Y-123828934D01*
X101676149Y-123828934D01*
X101675812Y-123825518D01*
X101639502Y-123705820D01*
X101580537Y-123595506D01*
X101501185Y-123498815D01*
X101404494Y-123419463D01*
X101294180Y-123360498D01*
X101174482Y-123324188D01*
X101050000Y-123311928D01*
X98950000Y-123311928D01*
X98825518Y-123324188D01*
X98705820Y-123360498D01*
X98595506Y-123419463D01*
X98498815Y-123498815D01*
X98419463Y-123595506D01*
X98360498Y-123705820D01*
X98324188Y-123825518D01*
X98311928Y-123950000D01*
X93984222Y-123950000D01*
X93980631Y-123941331D01*
X93736038Y-123575271D01*
X93424729Y-123263962D01*
X93058669Y-123019369D01*
X92651925Y-122850890D01*
X92220128Y-122765000D01*
X91779872Y-122765000D01*
X91348075Y-122850890D01*
X90941331Y-123019369D01*
X90575271Y-123263962D01*
X90263962Y-123575271D01*
X90019369Y-123941331D01*
X89850890Y-124348075D01*
X89765000Y-124779872D01*
X87710000Y-124779872D01*
X87710000Y-104842381D01*
X89700000Y-104842381D01*
X89700000Y-120507619D01*
X94270000Y-120507619D01*
X94270000Y-112150000D01*
X98886928Y-112150000D01*
X98899188Y-112274482D01*
X98935498Y-112394180D01*
X98994463Y-112504494D01*
X99049100Y-112571070D01*
X99031329Y-112592725D01*
X98952150Y-112740858D01*
X98903392Y-112901592D01*
X98886928Y-113068750D01*
X98886928Y-113506250D01*
X98903392Y-113673408D01*
X98952150Y-113834142D01*
X99031329Y-113982275D01*
X99137885Y-114112115D01*
X99240000Y-114195918D01*
X99240000Y-114512677D01*
X99236324Y-114550000D01*
X99240000Y-114587322D01*
X99240000Y-114587332D01*
X99250997Y-114698985D01*
X99289223Y-114825000D01*
X99294454Y-114842246D01*
X99365026Y-114974276D01*
X99404871Y-115022826D01*
X99459999Y-115090001D01*
X99489003Y-115113804D01*
X99711196Y-115335997D01*
X99734999Y-115365001D01*
X99850724Y-115459974D01*
X99982753Y-115530546D01*
X100126014Y-115574003D01*
X100237667Y-115585000D01*
X100237675Y-115585000D01*
X100275000Y-115588676D01*
X100312325Y-115585000D01*
X101337678Y-115585000D01*
X101375000Y-115588676D01*
X101412322Y-115585000D01*
X101412333Y-115585000D01*
X101523986Y-115574003D01*
X101667247Y-115530546D01*
X101799276Y-115459974D01*
X101915001Y-115365001D01*
X101938804Y-115335998D01*
X102933632Y-114341170D01*
X102946063Y-114359774D01*
X103090226Y-114503937D01*
X103259744Y-114617205D01*
X103448102Y-114695226D01*
X103648061Y-114735000D01*
X103851939Y-114735000D01*
X104051898Y-114695226D01*
X104240256Y-114617205D01*
X104370768Y-114530000D01*
X104435965Y-114530000D01*
X104432795Y-114534744D01*
X104354774Y-114723102D01*
X104315000Y-114923061D01*
X104315000Y-115126939D01*
X104337489Y-115240000D01*
X104273061Y-115240000D01*
X104073102Y-115279774D01*
X103884744Y-115357795D01*
X103715226Y-115471063D01*
X103571063Y-115615226D01*
X103457795Y-115784744D01*
X103379774Y-115973102D01*
X103340000Y-116173061D01*
X103340000Y-116376939D01*
X103379774Y-116576898D01*
X103457795Y-116765256D01*
X103571063Y-116934774D01*
X103715226Y-117078937D01*
X103884744Y-117192205D01*
X104073102Y-117270226D01*
X104273061Y-117310000D01*
X104476939Y-117310000D01*
X104676898Y-117270226D01*
X104865256Y-117192205D01*
X105034774Y-117078937D01*
X105043711Y-117070000D01*
X106367024Y-117070000D01*
X106422171Y-117115258D01*
X106558418Y-117188084D01*
X106706255Y-117232929D01*
X106860000Y-117248072D01*
X108510000Y-117248072D01*
X108663745Y-117232929D01*
X108811582Y-117188084D01*
X108947829Y-117115258D01*
X109067251Y-117017251D01*
X109165258Y-116897829D01*
X109238084Y-116761582D01*
X109282929Y-116613745D01*
X109298072Y-116460000D01*
X109298072Y-116160000D01*
X109282929Y-116006255D01*
X109238084Y-115858418D01*
X109165258Y-115722171D01*
X109126546Y-115675000D01*
X109165258Y-115627829D01*
X109238084Y-115491582D01*
X109282929Y-115343745D01*
X109298072Y-115190000D01*
X109298072Y-114890000D01*
X109282929Y-114736255D01*
X109238084Y-114588418D01*
X109165258Y-114452171D01*
X109126546Y-114405000D01*
X109165258Y-114357829D01*
X109238084Y-114221582D01*
X109282929Y-114073745D01*
X109298072Y-113920000D01*
X109298072Y-113620000D01*
X109282929Y-113466255D01*
X109238084Y-113318418D01*
X109165258Y-113182171D01*
X109126546Y-113135000D01*
X109165258Y-113087829D01*
X109238084Y-112951582D01*
X109246147Y-112925000D01*
X109336324Y-112925000D01*
X109340000Y-112962323D01*
X109340001Y-117787668D01*
X109336324Y-117825000D01*
X109340001Y-117862333D01*
X109350998Y-117973986D01*
X109353658Y-117982754D01*
X109394454Y-118117246D01*
X109465026Y-118249276D01*
X109528763Y-118326939D01*
X109560000Y-118365001D01*
X109588998Y-118388799D01*
X114480000Y-123279802D01*
X114480000Y-123490971D01*
X114441853Y-123506772D01*
X114165875Y-123691175D01*
X113931175Y-123925875D01*
X113746772Y-124201853D01*
X113619754Y-124508504D01*
X113555000Y-124834042D01*
X113555000Y-125165958D01*
X113619754Y-125491496D01*
X113746772Y-125798147D01*
X113931175Y-126074125D01*
X114165875Y-126308825D01*
X114441853Y-126493228D01*
X114748504Y-126620246D01*
X115074042Y-126685000D01*
X115405958Y-126685000D01*
X115731496Y-126620246D01*
X116038147Y-126493228D01*
X116314125Y-126308825D01*
X116548825Y-126074125D01*
X116733228Y-125798147D01*
X116860246Y-125491496D01*
X116925000Y-125165958D01*
X116925000Y-124834042D01*
X118635000Y-124834042D01*
X118635000Y-125165958D01*
X118699754Y-125491496D01*
X118826772Y-125798147D01*
X119011175Y-126074125D01*
X119245875Y-126308825D01*
X119521853Y-126493228D01*
X119828504Y-126620246D01*
X120154042Y-126685000D01*
X120485958Y-126685000D01*
X120811496Y-126620246D01*
X121118147Y-126493228D01*
X121394125Y-126308825D01*
X121628825Y-126074125D01*
X121813228Y-125798147D01*
X121940246Y-125491496D01*
X122005000Y-125165958D01*
X122005000Y-124834042D01*
X123715000Y-124834042D01*
X123715000Y-125165958D01*
X123779754Y-125491496D01*
X123906772Y-125798147D01*
X124091175Y-126074125D01*
X124325875Y-126308825D01*
X124601853Y-126493228D01*
X124908504Y-126620246D01*
X125234042Y-126685000D01*
X125565958Y-126685000D01*
X125891496Y-126620246D01*
X126198147Y-126493228D01*
X126474125Y-126308825D01*
X126708825Y-126074125D01*
X126893228Y-125798147D01*
X127020246Y-125491496D01*
X127085000Y-125165958D01*
X127085000Y-124834042D01*
X128795000Y-124834042D01*
X128795000Y-125165958D01*
X128859754Y-125491496D01*
X128986772Y-125798147D01*
X129171175Y-126074125D01*
X129405875Y-126308825D01*
X129681853Y-126493228D01*
X129988504Y-126620246D01*
X130314042Y-126685000D01*
X130645958Y-126685000D01*
X130971496Y-126620246D01*
X131278147Y-126493228D01*
X131554125Y-126308825D01*
X131788825Y-126074125D01*
X131973228Y-125798147D01*
X132100246Y-125491496D01*
X132165000Y-125165958D01*
X132165000Y-124834042D01*
X133875000Y-124834042D01*
X133875000Y-125165958D01*
X133939754Y-125491496D01*
X134066772Y-125798147D01*
X134251175Y-126074125D01*
X134485875Y-126308825D01*
X134761853Y-126493228D01*
X135068504Y-126620246D01*
X135394042Y-126685000D01*
X135725958Y-126685000D01*
X136051496Y-126620246D01*
X136358147Y-126493228D01*
X136634125Y-126308825D01*
X136868825Y-126074125D01*
X137053228Y-125798147D01*
X137180246Y-125491496D01*
X137245000Y-125165958D01*
X137245000Y-124834042D01*
X138955000Y-124834042D01*
X138955000Y-125165958D01*
X139019754Y-125491496D01*
X139146772Y-125798147D01*
X139331175Y-126074125D01*
X139565875Y-126308825D01*
X139841853Y-126493228D01*
X140148504Y-126620246D01*
X140474042Y-126685000D01*
X140805958Y-126685000D01*
X141131496Y-126620246D01*
X141438147Y-126493228D01*
X141714125Y-126308825D01*
X141948825Y-126074125D01*
X142133228Y-125798147D01*
X142260246Y-125491496D01*
X142325000Y-125165958D01*
X142325000Y-124834042D01*
X144035000Y-124834042D01*
X144035000Y-125165958D01*
X144099754Y-125491496D01*
X144226772Y-125798147D01*
X144411175Y-126074125D01*
X144645875Y-126308825D01*
X144921853Y-126493228D01*
X145228504Y-126620246D01*
X145554042Y-126685000D01*
X145885958Y-126685000D01*
X146211496Y-126620246D01*
X146518147Y-126493228D01*
X146794125Y-126308825D01*
X147028825Y-126074125D01*
X147213228Y-125798147D01*
X147340246Y-125491496D01*
X147405000Y-125165958D01*
X147405000Y-124834042D01*
X147394225Y-124779872D01*
X151485000Y-124779872D01*
X151485000Y-125220128D01*
X151570890Y-125651925D01*
X151739369Y-126058669D01*
X151983962Y-126424729D01*
X152295271Y-126736038D01*
X152661331Y-126980631D01*
X153068075Y-127149110D01*
X153499872Y-127235000D01*
X153940128Y-127235000D01*
X154371925Y-127149110D01*
X154778669Y-126980631D01*
X155144729Y-126736038D01*
X155456038Y-126424729D01*
X155700631Y-126058669D01*
X155869110Y-125651925D01*
X155955000Y-125220128D01*
X155955000Y-124779872D01*
X155869110Y-124348075D01*
X155700631Y-123941331D01*
X155456038Y-123575271D01*
X155144729Y-123263962D01*
X154778669Y-123019369D01*
X154371925Y-122850890D01*
X153940128Y-122765000D01*
X153499872Y-122765000D01*
X153068075Y-122850890D01*
X152661331Y-123019369D01*
X152295271Y-123263962D01*
X151983962Y-123575271D01*
X151739369Y-123941331D01*
X151570890Y-124348075D01*
X151485000Y-124779872D01*
X147394225Y-124779872D01*
X147340246Y-124508504D01*
X147213228Y-124201853D01*
X147028825Y-123925875D01*
X146794125Y-123691175D01*
X146518147Y-123506772D01*
X146211496Y-123379754D01*
X145885958Y-123315000D01*
X145554042Y-123315000D01*
X145228504Y-123379754D01*
X144921853Y-123506772D01*
X144645875Y-123691175D01*
X144411175Y-123925875D01*
X144226772Y-124201853D01*
X144099754Y-124508504D01*
X144035000Y-124834042D01*
X142325000Y-124834042D01*
X142260246Y-124508504D01*
X142133228Y-124201853D01*
X141948825Y-123925875D01*
X141714125Y-123691175D01*
X141438147Y-123506772D01*
X141131496Y-123379754D01*
X140805958Y-123315000D01*
X140474042Y-123315000D01*
X140148504Y-123379754D01*
X139841853Y-123506772D01*
X139565875Y-123691175D01*
X139331175Y-123925875D01*
X139146772Y-124201853D01*
X139019754Y-124508504D01*
X138955000Y-124834042D01*
X137245000Y-124834042D01*
X137180246Y-124508504D01*
X137053228Y-124201853D01*
X136868825Y-123925875D01*
X136634125Y-123691175D01*
X136358147Y-123506772D01*
X136051496Y-123379754D01*
X135725958Y-123315000D01*
X135394042Y-123315000D01*
X135068504Y-123379754D01*
X134761853Y-123506772D01*
X134485875Y-123691175D01*
X134251175Y-123925875D01*
X134066772Y-124201853D01*
X133939754Y-124508504D01*
X133875000Y-124834042D01*
X132165000Y-124834042D01*
X132100246Y-124508504D01*
X131973228Y-124201853D01*
X131788825Y-123925875D01*
X131554125Y-123691175D01*
X131278147Y-123506772D01*
X130971496Y-123379754D01*
X130645958Y-123315000D01*
X130314042Y-123315000D01*
X129988504Y-123379754D01*
X129681853Y-123506772D01*
X129405875Y-123691175D01*
X129171175Y-123925875D01*
X128986772Y-124201853D01*
X128859754Y-124508504D01*
X128795000Y-124834042D01*
X127085000Y-124834042D01*
X127020246Y-124508504D01*
X126893228Y-124201853D01*
X126708825Y-123925875D01*
X126474125Y-123691175D01*
X126198147Y-123506772D01*
X125891496Y-123379754D01*
X125565958Y-123315000D01*
X125234042Y-123315000D01*
X124908504Y-123379754D01*
X124601853Y-123506772D01*
X124325875Y-123691175D01*
X124091175Y-123925875D01*
X123906772Y-124201853D01*
X123779754Y-124508504D01*
X123715000Y-124834042D01*
X122005000Y-124834042D01*
X121940246Y-124508504D01*
X121813228Y-124201853D01*
X121628825Y-123925875D01*
X121394125Y-123691175D01*
X121118147Y-123506772D01*
X120811496Y-123379754D01*
X120485958Y-123315000D01*
X120154042Y-123315000D01*
X119828504Y-123379754D01*
X119521853Y-123506772D01*
X119245875Y-123691175D01*
X119011175Y-123925875D01*
X118826772Y-124201853D01*
X118699754Y-124508504D01*
X118635000Y-124834042D01*
X116925000Y-124834042D01*
X116860246Y-124508504D01*
X116733228Y-124201853D01*
X116548825Y-123925875D01*
X116314125Y-123691175D01*
X116038147Y-123506772D01*
X116000000Y-123490971D01*
X116000000Y-123002325D01*
X116003676Y-122965000D01*
X116000000Y-122927675D01*
X116000000Y-122927667D01*
X115989003Y-122816014D01*
X115945546Y-122672753D01*
X115874974Y-122540724D01*
X115780001Y-122424999D01*
X115751004Y-122401202D01*
X113822863Y-120473061D01*
X126965000Y-120473061D01*
X126965000Y-120676939D01*
X127004774Y-120876898D01*
X127082795Y-121065256D01*
X127196063Y-121234774D01*
X127340226Y-121378937D01*
X127509744Y-121492205D01*
X127698102Y-121570226D01*
X127898061Y-121610000D01*
X128101939Y-121610000D01*
X128301898Y-121570226D01*
X128490256Y-121492205D01*
X128659774Y-121378937D01*
X128678710Y-121360001D01*
X131622434Y-121360001D01*
X131590000Y-121523061D01*
X131590000Y-121726939D01*
X131629774Y-121926898D01*
X131707795Y-122115256D01*
X131821063Y-122284774D01*
X131965226Y-122428937D01*
X132134744Y-122542205D01*
X132323102Y-122620226D01*
X132523061Y-122660000D01*
X132726939Y-122660000D01*
X132926898Y-122620226D01*
X133115256Y-122542205D01*
X133284774Y-122428937D01*
X133328711Y-122385000D01*
X139921289Y-122385000D01*
X139990226Y-122453937D01*
X140159744Y-122567205D01*
X140348102Y-122645226D01*
X140548061Y-122685000D01*
X140751939Y-122685000D01*
X140951898Y-122645226D01*
X141140256Y-122567205D01*
X141309774Y-122453937D01*
X141453937Y-122309774D01*
X141567205Y-122140256D01*
X141645226Y-121951898D01*
X141685000Y-121751939D01*
X141685000Y-121548061D01*
X141647593Y-121360001D01*
X144795263Y-121360001D01*
X144807795Y-121390256D01*
X144921063Y-121559774D01*
X145065226Y-121703937D01*
X145234744Y-121817205D01*
X145423102Y-121895226D01*
X145623061Y-121935000D01*
X145826939Y-121935000D01*
X146026898Y-121895226D01*
X146215256Y-121817205D01*
X146384774Y-121703937D01*
X146528937Y-121559774D01*
X146642205Y-121390256D01*
X146720226Y-121201898D01*
X146760000Y-121001939D01*
X146760000Y-120798061D01*
X146720226Y-120598102D01*
X146642205Y-120409744D01*
X146528937Y-120240226D01*
X146384774Y-120096063D01*
X146215256Y-119982795D01*
X146026898Y-119904774D01*
X145826939Y-119865000D01*
X145623061Y-119865000D01*
X145621301Y-119865350D01*
X145573987Y-119850998D01*
X145462334Y-119840001D01*
X145462323Y-119840001D01*
X145425001Y-119836325D01*
X145387679Y-119840001D01*
X143588021Y-119840001D01*
X143645226Y-119701898D01*
X143685000Y-119501939D01*
X143685000Y-119298061D01*
X143645226Y-119098102D01*
X143567205Y-118909744D01*
X143453937Y-118740226D01*
X143309774Y-118596063D01*
X143140256Y-118482795D01*
X142951898Y-118404774D01*
X142751939Y-118365000D01*
X142548061Y-118365000D01*
X142348102Y-118404774D01*
X142159744Y-118482795D01*
X141990226Y-118596063D01*
X141946289Y-118640000D01*
X141744088Y-118640000D01*
X141770226Y-118576898D01*
X141810000Y-118376939D01*
X141810000Y-118173061D01*
X141770226Y-117973102D01*
X141692205Y-117784744D01*
X141578937Y-117615226D01*
X141434774Y-117471063D01*
X141265256Y-117357795D01*
X141076898Y-117279774D01*
X140876939Y-117240000D01*
X140673061Y-117240000D01*
X140473102Y-117279774D01*
X140284744Y-117357795D01*
X140115226Y-117471063D01*
X140071289Y-117515000D01*
X130578711Y-117515000D01*
X130484774Y-117421063D01*
X130315256Y-117307795D01*
X130126898Y-117229774D01*
X129926939Y-117190000D01*
X129723061Y-117190000D01*
X129523102Y-117229774D01*
X129334744Y-117307795D01*
X129165226Y-117421063D01*
X129021063Y-117565226D01*
X128907795Y-117734744D01*
X128829774Y-117923102D01*
X128790000Y-118123061D01*
X128790000Y-118326939D01*
X128802544Y-118390000D01*
X128623061Y-118390000D01*
X128423102Y-118429774D01*
X128234744Y-118507795D01*
X128065226Y-118621063D01*
X127921063Y-118765226D01*
X127807795Y-118934744D01*
X127729774Y-119123102D01*
X127690000Y-119323061D01*
X127690000Y-119526939D01*
X127700418Y-119579313D01*
X127698102Y-119579774D01*
X127509744Y-119657795D01*
X127340226Y-119771063D01*
X127196063Y-119915226D01*
X127082795Y-120084744D01*
X127004774Y-120273102D01*
X126965000Y-120473061D01*
X113822863Y-120473061D01*
X110860000Y-117510199D01*
X110860000Y-113260000D01*
X111113141Y-113260000D01*
X111081916Y-113318418D01*
X111037071Y-113466255D01*
X111021928Y-113620000D01*
X111021928Y-113920000D01*
X111037071Y-114073745D01*
X111081916Y-114221582D01*
X111154742Y-114357829D01*
X111193454Y-114405000D01*
X111154742Y-114452171D01*
X111081916Y-114588418D01*
X111037071Y-114736255D01*
X111021928Y-114890000D01*
X111021928Y-115190000D01*
X111037071Y-115343745D01*
X111081916Y-115491582D01*
X111154742Y-115627829D01*
X111193454Y-115675000D01*
X111154742Y-115722171D01*
X111081916Y-115858418D01*
X111037071Y-116006255D01*
X111021928Y-116160000D01*
X111021928Y-116460000D01*
X111037071Y-116613745D01*
X111081916Y-116761582D01*
X111154742Y-116897829D01*
X111252749Y-117017251D01*
X111372171Y-117115258D01*
X111508418Y-117188084D01*
X111656255Y-117232929D01*
X111810000Y-117248072D01*
X113460000Y-117248072D01*
X113613745Y-117232929D01*
X113761582Y-117188084D01*
X113897829Y-117115258D01*
X113952976Y-117070000D01*
X114981289Y-117070000D01*
X115040226Y-117128937D01*
X115209744Y-117242205D01*
X115398102Y-117320226D01*
X115598061Y-117360000D01*
X115801939Y-117360000D01*
X116001898Y-117320226D01*
X116190256Y-117242205D01*
X116359774Y-117128937D01*
X116503937Y-116984774D01*
X116617205Y-116815256D01*
X116695226Y-116626898D01*
X116735000Y-116426939D01*
X116735000Y-116223061D01*
X116695226Y-116023102D01*
X116617205Y-115834744D01*
X116503937Y-115665226D01*
X116388892Y-115550181D01*
X116402205Y-115530256D01*
X116480226Y-115341898D01*
X116520000Y-115141939D01*
X116520000Y-115079801D01*
X117139802Y-114460000D01*
X118640482Y-114460000D01*
X118665506Y-114480537D01*
X118775820Y-114539502D01*
X118895518Y-114575812D01*
X119020000Y-114588072D01*
X119820000Y-114588072D01*
X119944482Y-114575812D01*
X120064180Y-114539502D01*
X120174494Y-114480537D01*
X120271185Y-114401185D01*
X120320000Y-114341704D01*
X120368815Y-114401185D01*
X120465506Y-114480537D01*
X120575820Y-114539502D01*
X120695518Y-114575812D01*
X120820000Y-114588072D01*
X121620000Y-114588072D01*
X121744482Y-114575812D01*
X121849925Y-114543826D01*
X121959744Y-114617205D01*
X122148102Y-114695226D01*
X122348061Y-114735000D01*
X122551939Y-114735000D01*
X122751898Y-114695226D01*
X122940256Y-114617205D01*
X123109774Y-114503937D01*
X123133233Y-114480478D01*
X123198985Y-114474002D01*
X123245145Y-114460000D01*
X123720482Y-114460000D01*
X123745506Y-114480537D01*
X123855820Y-114539502D01*
X123975518Y-114575812D01*
X124100000Y-114588072D01*
X124900000Y-114588072D01*
X125024482Y-114575812D01*
X125144180Y-114539502D01*
X125254494Y-114480537D01*
X125351185Y-114401185D01*
X125400000Y-114341704D01*
X125448815Y-114401185D01*
X125545506Y-114480537D01*
X125655820Y-114539502D01*
X125775518Y-114575812D01*
X125900000Y-114588072D01*
X126700000Y-114588072D01*
X126824482Y-114575812D01*
X126944180Y-114539502D01*
X127054494Y-114480537D01*
X127079518Y-114460000D01*
X127271289Y-114460000D01*
X127340226Y-114528937D01*
X127509744Y-114642205D01*
X127698102Y-114720226D01*
X127898061Y-114760000D01*
X128101939Y-114760000D01*
X128301898Y-114720226D01*
X128490256Y-114642205D01*
X128659774Y-114528937D01*
X128728711Y-114460000D01*
X130474442Y-114460000D01*
X130407795Y-114559744D01*
X130329774Y-114748102D01*
X130290000Y-114948061D01*
X130290000Y-115151939D01*
X130319552Y-115300507D01*
X130298102Y-115304774D01*
X130109744Y-115382795D01*
X129940226Y-115496063D01*
X129796063Y-115640226D01*
X129682795Y-115809744D01*
X129604774Y-115998102D01*
X129565000Y-116198061D01*
X129565000Y-116401939D01*
X129604774Y-116601898D01*
X129682795Y-116790256D01*
X129796063Y-116959774D01*
X129940226Y-117103937D01*
X130109744Y-117217205D01*
X130298102Y-117295226D01*
X130498061Y-117335000D01*
X130701939Y-117335000D01*
X130901898Y-117295226D01*
X131090256Y-117217205D01*
X131259774Y-117103937D01*
X131293711Y-117070000D01*
X131767024Y-117070000D01*
X131822171Y-117115258D01*
X131958418Y-117188084D01*
X132106255Y-117232929D01*
X132260000Y-117248072D01*
X133910000Y-117248072D01*
X134063745Y-117232929D01*
X134211582Y-117188084D01*
X134347829Y-117115258D01*
X134467251Y-117017251D01*
X134565258Y-116897829D01*
X134638084Y-116761582D01*
X134682929Y-116613745D01*
X134698072Y-116460000D01*
X134698072Y-116160000D01*
X134682929Y-116006255D01*
X134638084Y-115858418D01*
X134565258Y-115722171D01*
X134526546Y-115675000D01*
X134565258Y-115627829D01*
X134638084Y-115491582D01*
X134682929Y-115343745D01*
X134698072Y-115190000D01*
X134698072Y-114890000D01*
X134682929Y-114736255D01*
X134638084Y-114588418D01*
X134565258Y-114452171D01*
X134526546Y-114405000D01*
X134565258Y-114357829D01*
X134638084Y-114221582D01*
X134682929Y-114073745D01*
X134698072Y-113920000D01*
X134698072Y-113620000D01*
X134689047Y-113528370D01*
X134848061Y-113560000D01*
X135051939Y-113560000D01*
X135251898Y-113520226D01*
X135440256Y-113442205D01*
X135609774Y-113328937D01*
X135753937Y-113184774D01*
X135867205Y-113015256D01*
X135945226Y-112826898D01*
X135985000Y-112626939D01*
X135985000Y-112423061D01*
X135945226Y-112223102D01*
X135867205Y-112034744D01*
X135753937Y-111865226D01*
X135609774Y-111721063D01*
X135440256Y-111607795D01*
X135251898Y-111529774D01*
X135051939Y-111490000D01*
X134848061Y-111490000D01*
X134695971Y-111520252D01*
X134695000Y-111515750D01*
X134536250Y-111357000D01*
X133212000Y-111357000D01*
X133212000Y-111377000D01*
X132958000Y-111377000D01*
X132958000Y-111357000D01*
X131633750Y-111357000D01*
X131475000Y-111515750D01*
X131471928Y-111530000D01*
X131484188Y-111654482D01*
X131520498Y-111774180D01*
X131579463Y-111884494D01*
X131603730Y-111914064D01*
X131531916Y-112048418D01*
X131487071Y-112196255D01*
X131474762Y-112321224D01*
X131403937Y-112215226D01*
X131259774Y-112071063D01*
X131090256Y-111957795D01*
X130901898Y-111879774D01*
X130730210Y-111845623D01*
X130767205Y-111790256D01*
X130845226Y-111601898D01*
X130885000Y-111401939D01*
X130885000Y-111198061D01*
X130845226Y-110998102D01*
X130767205Y-110809744D01*
X130707240Y-110720000D01*
X131510130Y-110720000D01*
X131484188Y-110805518D01*
X131471928Y-110930000D01*
X131475000Y-110944250D01*
X131633750Y-111103000D01*
X132958000Y-111103000D01*
X132958000Y-111083000D01*
X133212000Y-111083000D01*
X133212000Y-111103000D01*
X134536250Y-111103000D01*
X134695000Y-110944250D01*
X134698072Y-110930000D01*
X134685812Y-110805518D01*
X134649502Y-110685820D01*
X134590537Y-110575506D01*
X134566270Y-110545936D01*
X134638084Y-110411582D01*
X134682929Y-110263745D01*
X134698072Y-110110000D01*
X134698072Y-109810000D01*
X134682929Y-109656255D01*
X134638084Y-109508418D01*
X134565258Y-109372171D01*
X134526546Y-109325000D01*
X134565258Y-109277829D01*
X134638084Y-109141582D01*
X134682929Y-108993745D01*
X134698072Y-108840000D01*
X134698072Y-108540000D01*
X136421928Y-108540000D01*
X136421928Y-108840000D01*
X136437071Y-108993745D01*
X136481916Y-109141582D01*
X136554742Y-109277829D01*
X136593454Y-109325000D01*
X136554742Y-109372171D01*
X136481916Y-109508418D01*
X136437071Y-109656255D01*
X136421928Y-109810000D01*
X136421928Y-110110000D01*
X136437071Y-110263745D01*
X136481916Y-110411582D01*
X136554742Y-110547829D01*
X136593454Y-110595000D01*
X136554742Y-110642171D01*
X136481916Y-110778418D01*
X136437071Y-110926255D01*
X136421928Y-111080000D01*
X136421928Y-111380000D01*
X136437071Y-111533745D01*
X136481916Y-111681582D01*
X136554742Y-111817829D01*
X136593454Y-111865000D01*
X136554742Y-111912171D01*
X136481916Y-112048418D01*
X136437071Y-112196255D01*
X136421928Y-112350000D01*
X136421928Y-112650000D01*
X136437071Y-112803745D01*
X136481916Y-112951582D01*
X136554742Y-113087829D01*
X136593454Y-113135000D01*
X136554742Y-113182171D01*
X136481916Y-113318418D01*
X136437071Y-113466255D01*
X136421928Y-113620000D01*
X136421928Y-113920000D01*
X136437071Y-114073745D01*
X136481916Y-114221582D01*
X136554742Y-114357829D01*
X136593454Y-114405000D01*
X136554742Y-114452171D01*
X136481916Y-114588418D01*
X136437071Y-114736255D01*
X136421928Y-114890000D01*
X136421928Y-115190000D01*
X136437071Y-115343745D01*
X136481916Y-115491582D01*
X136554742Y-115627829D01*
X136593454Y-115675000D01*
X136554742Y-115722171D01*
X136481916Y-115858418D01*
X136437071Y-116006255D01*
X136421928Y-116160000D01*
X136421928Y-116460000D01*
X136437071Y-116613745D01*
X136481916Y-116761582D01*
X136554742Y-116897829D01*
X136652749Y-117017251D01*
X136772171Y-117115258D01*
X136908418Y-117188084D01*
X137056255Y-117232929D01*
X137210000Y-117248072D01*
X138860000Y-117248072D01*
X139013745Y-117232929D01*
X139161582Y-117188084D01*
X139297829Y-117115258D01*
X139417251Y-117017251D01*
X139515258Y-116897829D01*
X139588084Y-116761582D01*
X139632929Y-116613745D01*
X139648072Y-116460000D01*
X139648072Y-116160000D01*
X139632929Y-116006255D01*
X139588084Y-115858418D01*
X139556859Y-115800000D01*
X140086289Y-115800000D01*
X140090226Y-115803937D01*
X140259744Y-115917205D01*
X140448102Y-115995226D01*
X140648061Y-116035000D01*
X140851939Y-116035000D01*
X141051898Y-115995226D01*
X141240256Y-115917205D01*
X141409774Y-115803937D01*
X141553937Y-115659774D01*
X141667205Y-115490256D01*
X141745226Y-115301898D01*
X141785000Y-115101939D01*
X141785000Y-114898061D01*
X141760232Y-114773541D01*
X141776898Y-114770226D01*
X141965256Y-114692205D01*
X142134774Y-114578937D01*
X142278937Y-114434774D01*
X142392205Y-114265256D01*
X142470226Y-114076898D01*
X142510000Y-113876939D01*
X142510000Y-113725000D01*
X144606928Y-113725000D01*
X144619188Y-113849482D01*
X144655498Y-113969180D01*
X144714463Y-114079494D01*
X144793815Y-114176185D01*
X144890506Y-114255537D01*
X145000820Y-114314502D01*
X145120518Y-114350812D01*
X145245000Y-114363072D01*
X145434250Y-114360000D01*
X145593000Y-114201250D01*
X145593000Y-113414500D01*
X145847000Y-113414500D01*
X145847000Y-114201250D01*
X146005750Y-114360000D01*
X146195000Y-114363072D01*
X146319482Y-114350812D01*
X146439180Y-114314502D01*
X146549494Y-114255537D01*
X146646185Y-114176185D01*
X146725537Y-114079494D01*
X146784502Y-113969180D01*
X146820812Y-113849482D01*
X146833072Y-113725000D01*
X146830000Y-113573250D01*
X146671250Y-113414500D01*
X145847000Y-113414500D01*
X145593000Y-113414500D01*
X144768750Y-113414500D01*
X144610000Y-113573250D01*
X144606928Y-113725000D01*
X142510000Y-113725000D01*
X142510000Y-113673061D01*
X142492254Y-113583845D01*
X142498061Y-113585000D01*
X142701939Y-113585000D01*
X142901898Y-113545226D01*
X143090256Y-113467205D01*
X143259774Y-113353937D01*
X143403937Y-113209774D01*
X143517205Y-113040256D01*
X143595226Y-112851898D01*
X143635000Y-112651939D01*
X143635000Y-112448061D01*
X143595226Y-112248102D01*
X143517205Y-112059744D01*
X143403937Y-111890226D01*
X143259774Y-111746063D01*
X143090256Y-111632795D01*
X142974871Y-111585001D01*
X144606928Y-111585000D01*
X144606928Y-111931250D01*
X144623392Y-112098408D01*
X144672150Y-112259142D01*
X144751329Y-112407275D01*
X144769100Y-112428930D01*
X144714463Y-112495506D01*
X144655498Y-112605820D01*
X144619188Y-112725518D01*
X144606928Y-112850000D01*
X144610000Y-113001750D01*
X144768750Y-113160500D01*
X145593000Y-113160500D01*
X145593000Y-113140500D01*
X145847000Y-113140500D01*
X145847000Y-113160500D01*
X146671250Y-113160500D01*
X146830000Y-113001750D01*
X146833072Y-112850000D01*
X146820812Y-112725518D01*
X146784502Y-112605820D01*
X146725537Y-112495506D01*
X146670900Y-112428930D01*
X146688671Y-112407275D01*
X146767850Y-112259142D01*
X146816608Y-112098408D01*
X146833072Y-111931250D01*
X146833072Y-111493750D01*
X146816608Y-111326592D01*
X146767850Y-111165858D01*
X146688671Y-111017725D01*
X146582115Y-110887885D01*
X146484520Y-110807791D01*
X146474003Y-110701014D01*
X146430546Y-110557753D01*
X146359974Y-110425724D01*
X146265001Y-110309999D01*
X146251267Y-110298728D01*
X146240000Y-110284999D01*
X146200090Y-110252246D01*
X146124276Y-110190026D01*
X145992246Y-110119454D01*
X145848985Y-110075997D01*
X145737332Y-110065000D01*
X145737322Y-110065000D01*
X145700000Y-110061324D01*
X145662677Y-110065000D01*
X142727429Y-110065002D01*
X142735000Y-110026939D01*
X142735000Y-109823061D01*
X142695226Y-109623102D01*
X142617205Y-109434744D01*
X142503937Y-109265226D01*
X142359774Y-109121063D01*
X142190256Y-109007795D01*
X142001898Y-108929774D01*
X141801939Y-108890000D01*
X141598061Y-108890000D01*
X141540194Y-108901510D01*
X141560000Y-108801939D01*
X141560000Y-108598061D01*
X141520226Y-108398102D01*
X141442205Y-108209744D01*
X141328937Y-108040226D01*
X141184774Y-107896063D01*
X141015256Y-107782795D01*
X140826898Y-107704774D01*
X140626939Y-107665000D01*
X140423061Y-107665000D01*
X140223102Y-107704774D01*
X140034744Y-107782795D01*
X139865226Y-107896063D01*
X139831289Y-107930000D01*
X139352976Y-107930000D01*
X139297829Y-107884742D01*
X139161582Y-107811916D01*
X139013745Y-107767071D01*
X138860000Y-107751928D01*
X137210000Y-107751928D01*
X137056255Y-107767071D01*
X136908418Y-107811916D01*
X136772171Y-107884742D01*
X136652749Y-107982749D01*
X136554742Y-108102171D01*
X136481916Y-108238418D01*
X136437071Y-108386255D01*
X136421928Y-108540000D01*
X134698072Y-108540000D01*
X134682929Y-108386255D01*
X134638084Y-108238418D01*
X134565258Y-108102171D01*
X134467251Y-107982749D01*
X134347829Y-107884742D01*
X134211582Y-107811916D01*
X134063745Y-107767071D01*
X133910000Y-107751928D01*
X132260000Y-107751928D01*
X132106255Y-107767071D01*
X131958418Y-107811916D01*
X131822171Y-107884742D01*
X131767024Y-107930000D01*
X131168711Y-107930000D01*
X131134774Y-107896063D01*
X130965256Y-107782795D01*
X130891260Y-107752145D01*
X130915256Y-107742205D01*
X131084774Y-107628937D01*
X131228937Y-107484774D01*
X131342205Y-107315256D01*
X131420226Y-107126898D01*
X131438506Y-107035000D01*
X139946289Y-107035000D01*
X139990226Y-107078937D01*
X140159744Y-107192205D01*
X140348102Y-107270226D01*
X140548061Y-107310000D01*
X140751939Y-107310000D01*
X140951898Y-107270226D01*
X141140256Y-107192205D01*
X141309774Y-107078937D01*
X141453937Y-106934774D01*
X141567205Y-106765256D01*
X141645226Y-106576898D01*
X141685000Y-106376939D01*
X141685000Y-106173061D01*
X141647593Y-105985000D01*
X144996289Y-105985000D01*
X145065226Y-106053937D01*
X145234744Y-106167205D01*
X145423102Y-106245226D01*
X145623061Y-106285000D01*
X145826939Y-106285000D01*
X146026898Y-106245226D01*
X146215256Y-106167205D01*
X146384774Y-106053937D01*
X146528937Y-105909774D01*
X146642205Y-105740256D01*
X146720226Y-105551898D01*
X146760000Y-105351939D01*
X146760000Y-105148061D01*
X146720226Y-104948102D01*
X146642205Y-104759744D01*
X146528937Y-104590226D01*
X146384774Y-104446063D01*
X146215256Y-104332795D01*
X146026898Y-104254774D01*
X145826939Y-104215000D01*
X145623061Y-104215000D01*
X145423102Y-104254774D01*
X145234744Y-104332795D01*
X145065226Y-104446063D01*
X145046289Y-104465000D01*
X129878711Y-104465000D01*
X129834774Y-104421063D01*
X129665256Y-104307795D01*
X129476898Y-104229774D01*
X129276939Y-104190000D01*
X129073061Y-104190000D01*
X128873102Y-104229774D01*
X128684744Y-104307795D01*
X128515226Y-104421063D01*
X128371063Y-104565226D01*
X128257795Y-104734744D01*
X128179774Y-104923102D01*
X128140000Y-105123061D01*
X128140000Y-105326939D01*
X128179774Y-105526898D01*
X128257795Y-105715256D01*
X128371063Y-105884774D01*
X128515226Y-106028937D01*
X128684744Y-106142205D01*
X128873102Y-106220226D01*
X129073061Y-106260000D01*
X129276939Y-106260000D01*
X129476898Y-106220226D01*
X129629113Y-106157176D01*
X129621063Y-106165226D01*
X129507795Y-106334744D01*
X129429774Y-106523102D01*
X129390000Y-106723061D01*
X129390000Y-106926939D01*
X129429774Y-107126898D01*
X129507795Y-107315256D01*
X129621063Y-107484774D01*
X129765226Y-107628937D01*
X129934744Y-107742205D01*
X130008740Y-107772855D01*
X129984744Y-107782795D01*
X129815226Y-107896063D01*
X129671063Y-108040226D01*
X129557795Y-108209744D01*
X129479774Y-108398102D01*
X129440000Y-108598061D01*
X129440000Y-108801939D01*
X129459778Y-108901369D01*
X129276939Y-108865000D01*
X129073061Y-108865000D01*
X128873102Y-108904774D01*
X128684744Y-108982795D01*
X128515226Y-109096063D01*
X128371063Y-109240226D01*
X128257795Y-109409744D01*
X128179774Y-109598102D01*
X128140000Y-109798061D01*
X128140000Y-110001939D01*
X128179774Y-110201898D01*
X128257795Y-110390256D01*
X128357850Y-110540000D01*
X127079518Y-110540000D01*
X127054494Y-110519463D01*
X126944180Y-110460498D01*
X126824482Y-110424188D01*
X126700000Y-110411928D01*
X125900000Y-110411928D01*
X125775518Y-110424188D01*
X125655820Y-110460498D01*
X125545506Y-110519463D01*
X125448815Y-110598815D01*
X125400000Y-110658296D01*
X125351185Y-110598815D01*
X125254494Y-110519463D01*
X125144180Y-110460498D01*
X125024482Y-110424188D01*
X124900000Y-110411928D01*
X124100000Y-110411928D01*
X123975518Y-110424188D01*
X123855820Y-110460498D01*
X123745506Y-110519463D01*
X123734043Y-110528870D01*
X123590256Y-110432795D01*
X123401898Y-110354774D01*
X123201939Y-110315000D01*
X122998061Y-110315000D01*
X122798102Y-110354774D01*
X122609744Y-110432795D01*
X122449300Y-110540000D01*
X121999518Y-110540000D01*
X121974494Y-110519463D01*
X121864180Y-110460498D01*
X121744482Y-110424188D01*
X121620000Y-110411928D01*
X120820000Y-110411928D01*
X120695518Y-110424188D01*
X120575820Y-110460498D01*
X120465506Y-110519463D01*
X120368815Y-110598815D01*
X120320000Y-110658296D01*
X120271185Y-110598815D01*
X120174494Y-110519463D01*
X120064180Y-110460498D01*
X119944482Y-110424188D01*
X119820000Y-110411928D01*
X119020000Y-110411928D01*
X118895518Y-110424188D01*
X118775820Y-110460498D01*
X118665506Y-110519463D01*
X118640482Y-110540000D01*
X117003007Y-110540000D01*
X116965684Y-110536324D01*
X116928361Y-110540000D01*
X116928352Y-110540000D01*
X116816699Y-110550997D01*
X116673438Y-110594454D01*
X116541409Y-110665026D01*
X116425684Y-110759999D01*
X116401885Y-110788998D01*
X116357155Y-110833728D01*
X116238860Y-110784729D01*
X116359774Y-110703937D01*
X116503937Y-110559774D01*
X116617205Y-110390256D01*
X116695226Y-110201898D01*
X116735000Y-110001939D01*
X116735000Y-109798061D01*
X116695226Y-109598102D01*
X116617205Y-109409744D01*
X116503937Y-109240226D01*
X116359774Y-109096063D01*
X116190256Y-108982795D01*
X116001898Y-108904774D01*
X115874556Y-108879444D01*
X115885000Y-108826939D01*
X115885000Y-108623061D01*
X115845226Y-108423102D01*
X115767205Y-108234744D01*
X115653937Y-108065226D01*
X115509774Y-107921063D01*
X115340256Y-107807795D01*
X115151898Y-107729774D01*
X114951939Y-107690000D01*
X114748061Y-107690000D01*
X114548102Y-107729774D01*
X114359744Y-107807795D01*
X114190226Y-107921063D01*
X114181289Y-107930000D01*
X113952976Y-107930000D01*
X113897829Y-107884742D01*
X113761582Y-107811916D01*
X113613745Y-107767071D01*
X113460000Y-107751928D01*
X111810000Y-107751928D01*
X111656255Y-107767071D01*
X111508418Y-107811916D01*
X111372171Y-107884742D01*
X111252749Y-107982749D01*
X111154742Y-108102171D01*
X111081916Y-108238418D01*
X111037071Y-108386255D01*
X111021928Y-108540000D01*
X111021928Y-108840000D01*
X111037071Y-108993745D01*
X111081916Y-109141582D01*
X111154742Y-109277829D01*
X111193454Y-109325000D01*
X111154742Y-109372171D01*
X111081916Y-109508418D01*
X111037071Y-109656255D01*
X111021928Y-109810000D01*
X111021928Y-110110000D01*
X111037071Y-110263745D01*
X111044710Y-110288929D01*
X110901898Y-110229774D01*
X110701939Y-110190000D01*
X110498061Y-110190000D01*
X110298102Y-110229774D01*
X110109744Y-110307795D01*
X109940226Y-110421063D01*
X109796063Y-110565226D01*
X109682795Y-110734744D01*
X109604774Y-110923102D01*
X109565000Y-111123061D01*
X109565000Y-111326939D01*
X109604774Y-111526898D01*
X109682795Y-111715256D01*
X109796063Y-111884774D01*
X109930744Y-112019455D01*
X109589003Y-112361196D01*
X109559999Y-112384999D01*
X109519150Y-112434774D01*
X109465026Y-112500724D01*
X109397562Y-112626939D01*
X109394454Y-112632754D01*
X109350997Y-112776015D01*
X109340000Y-112887668D01*
X109340000Y-112887678D01*
X109336324Y-112925000D01*
X109246147Y-112925000D01*
X109282929Y-112803745D01*
X109298072Y-112650000D01*
X109298072Y-112350000D01*
X109282929Y-112196255D01*
X109238084Y-112048418D01*
X109166270Y-111914064D01*
X109190537Y-111884494D01*
X109249502Y-111774180D01*
X109285812Y-111654482D01*
X109298072Y-111530000D01*
X109295000Y-111515750D01*
X109136250Y-111357000D01*
X107812000Y-111357000D01*
X107812000Y-111377000D01*
X107558000Y-111377000D01*
X107558000Y-111357000D01*
X106233750Y-111357000D01*
X106075000Y-111515750D01*
X106071928Y-111530000D01*
X106084188Y-111654482D01*
X106110130Y-111740000D01*
X106078711Y-111740000D01*
X106009774Y-111671063D01*
X105840256Y-111557795D01*
X105651898Y-111479774D01*
X105451939Y-111440000D01*
X105248061Y-111440000D01*
X105048102Y-111479774D01*
X104859744Y-111557795D01*
X104690226Y-111671063D01*
X104646289Y-111715000D01*
X102587325Y-111715000D01*
X102550000Y-111711324D01*
X102512675Y-111715000D01*
X102512667Y-111715000D01*
X102401014Y-111725997D01*
X102257753Y-111769454D01*
X102125724Y-111840026D01*
X102009999Y-111934999D01*
X101986196Y-111964003D01*
X101914003Y-112036196D01*
X101884999Y-112059999D01*
X101845537Y-112108084D01*
X101790026Y-112175724D01*
X101735812Y-112277150D01*
X101719454Y-112307754D01*
X101675997Y-112451015D01*
X101665000Y-112562668D01*
X101665000Y-112562678D01*
X101661324Y-112600000D01*
X101665000Y-112637323D01*
X101665001Y-113460198D01*
X101060199Y-114065000D01*
X100900781Y-114065000D01*
X100968671Y-113982275D01*
X101047850Y-113834142D01*
X101096608Y-113673408D01*
X101113072Y-113506250D01*
X101113072Y-113068750D01*
X101096608Y-112901592D01*
X101047850Y-112740858D01*
X100968671Y-112592725D01*
X100950900Y-112571070D01*
X101005537Y-112504494D01*
X101064502Y-112394180D01*
X101100812Y-112274482D01*
X101113072Y-112150000D01*
X101110000Y-111998250D01*
X100951250Y-111839500D01*
X100127000Y-111839500D01*
X100127000Y-111859500D01*
X99873000Y-111859500D01*
X99873000Y-111839500D01*
X99048750Y-111839500D01*
X98890000Y-111998250D01*
X98886928Y-112150000D01*
X94270000Y-112150000D01*
X94270000Y-111275000D01*
X98886928Y-111275000D01*
X98890000Y-111426750D01*
X99048750Y-111585500D01*
X99873000Y-111585500D01*
X99873000Y-110798750D01*
X100127000Y-110798750D01*
X100127000Y-111585500D01*
X100951250Y-111585500D01*
X101110000Y-111426750D01*
X101113072Y-111275000D01*
X101100812Y-111150518D01*
X101064502Y-111030820D01*
X101005537Y-110920506D01*
X100926185Y-110823815D01*
X100829494Y-110744463D01*
X100719180Y-110685498D01*
X100599482Y-110649188D01*
X100475000Y-110636928D01*
X100285750Y-110640000D01*
X100127000Y-110798750D01*
X99873000Y-110798750D01*
X99714250Y-110640000D01*
X99525000Y-110636928D01*
X99400518Y-110649188D01*
X99280820Y-110685498D01*
X99170506Y-110744463D01*
X99073815Y-110823815D01*
X98994463Y-110920506D01*
X98935498Y-111030820D01*
X98899188Y-111150518D01*
X98886928Y-111275000D01*
X94270000Y-111275000D01*
X94270000Y-109873061D01*
X102790000Y-109873061D01*
X102790000Y-110076939D01*
X102829774Y-110276898D01*
X102907795Y-110465256D01*
X103021063Y-110634774D01*
X103165226Y-110778937D01*
X103334744Y-110892205D01*
X103523102Y-110970226D01*
X103723061Y-111010000D01*
X103926939Y-111010000D01*
X104126898Y-110970226D01*
X104315256Y-110892205D01*
X104484774Y-110778937D01*
X104543711Y-110720000D01*
X106110130Y-110720000D01*
X106084188Y-110805518D01*
X106071928Y-110930000D01*
X106075000Y-110944250D01*
X106233750Y-111103000D01*
X107558000Y-111103000D01*
X107558000Y-111083000D01*
X107812000Y-111083000D01*
X107812000Y-111103000D01*
X109136250Y-111103000D01*
X109295000Y-110944250D01*
X109298072Y-110930000D01*
X109285812Y-110805518D01*
X109249502Y-110685820D01*
X109190537Y-110575506D01*
X109166270Y-110545936D01*
X109238084Y-110411582D01*
X109282929Y-110263745D01*
X109298072Y-110110000D01*
X109298072Y-109810000D01*
X109282929Y-109656255D01*
X109238084Y-109508418D01*
X109165258Y-109372171D01*
X109126546Y-109325000D01*
X109165258Y-109277829D01*
X109238084Y-109141582D01*
X109282929Y-108993745D01*
X109298072Y-108840000D01*
X109298072Y-108540000D01*
X109282929Y-108386255D01*
X109238084Y-108238418D01*
X109165258Y-108102171D01*
X109067251Y-107982749D01*
X108947829Y-107884742D01*
X108811582Y-107811916D01*
X108663745Y-107767071D01*
X108510000Y-107751928D01*
X106860000Y-107751928D01*
X106706255Y-107767071D01*
X106558418Y-107811916D01*
X106422171Y-107884742D01*
X106367024Y-107930000D01*
X105993711Y-107930000D01*
X105859774Y-107796063D01*
X105690256Y-107682795D01*
X105501898Y-107604774D01*
X105301939Y-107565000D01*
X105098061Y-107565000D01*
X104898102Y-107604774D01*
X104709744Y-107682795D01*
X104540226Y-107796063D01*
X104396063Y-107940226D01*
X104282795Y-108109744D01*
X104204774Y-108298102D01*
X104165000Y-108498061D01*
X104165000Y-108701939D01*
X104204774Y-108901898D01*
X104259841Y-109034841D01*
X104126898Y-108979774D01*
X103926939Y-108940000D01*
X103723061Y-108940000D01*
X103523102Y-108979774D01*
X103334744Y-109057795D01*
X103165226Y-109171063D01*
X103021063Y-109315226D01*
X102907795Y-109484744D01*
X102829774Y-109673102D01*
X102790000Y-109873061D01*
X94270000Y-109873061D01*
X94270000Y-104842381D01*
X89700000Y-104842381D01*
X87710000Y-104842381D01*
X87710000Y-104773061D01*
X102765000Y-104773061D01*
X102765000Y-104976939D01*
X102804774Y-105176898D01*
X102882795Y-105365256D01*
X102996063Y-105534774D01*
X103140226Y-105678937D01*
X103309744Y-105792205D01*
X103498102Y-105870226D01*
X103698061Y-105910000D01*
X103901939Y-105910000D01*
X104101898Y-105870226D01*
X104177340Y-105838977D01*
X104204774Y-105976898D01*
X104282795Y-106165256D01*
X104396063Y-106334774D01*
X104540226Y-106478937D01*
X104709744Y-106592205D01*
X104898102Y-106670226D01*
X105098061Y-106710000D01*
X105301939Y-106710000D01*
X105501898Y-106670226D01*
X105690256Y-106592205D01*
X105859774Y-106478937D01*
X105903711Y-106435000D01*
X119649300Y-106435000D01*
X119809744Y-106542205D01*
X119998102Y-106620226D01*
X120198061Y-106660000D01*
X120401939Y-106660000D01*
X120601898Y-106620226D01*
X120790256Y-106542205D01*
X120959774Y-106428937D01*
X121103937Y-106284774D01*
X121217205Y-106115256D01*
X121295226Y-105926898D01*
X121335000Y-105726939D01*
X121335000Y-105635000D01*
X124746289Y-105635000D01*
X124765226Y-105653937D01*
X124934744Y-105767205D01*
X125123102Y-105845226D01*
X125323061Y-105885000D01*
X125526939Y-105885000D01*
X125726898Y-105845226D01*
X125915256Y-105767205D01*
X126084774Y-105653937D01*
X126228937Y-105509774D01*
X126342205Y-105340256D01*
X126420226Y-105151898D01*
X126460000Y-104951939D01*
X126460000Y-104748061D01*
X126420226Y-104548102D01*
X126342205Y-104359744D01*
X126228937Y-104190226D01*
X126084774Y-104046063D01*
X125915256Y-103932795D01*
X125726898Y-103854774D01*
X125526939Y-103815000D01*
X125323061Y-103815000D01*
X125123102Y-103854774D01*
X124934744Y-103932795D01*
X124765226Y-104046063D01*
X124696289Y-104115000D01*
X104503711Y-104115000D01*
X104459774Y-104071063D01*
X104290256Y-103957795D01*
X104101898Y-103879774D01*
X103901939Y-103840000D01*
X103698061Y-103840000D01*
X103498102Y-103879774D01*
X103309744Y-103957795D01*
X103140226Y-104071063D01*
X102996063Y-104215226D01*
X102882795Y-104384744D01*
X102804774Y-104573102D01*
X102765000Y-104773061D01*
X87710000Y-104773061D01*
X87710000Y-102824524D01*
X151525000Y-102824524D01*
X151525000Y-120775476D01*
X156095000Y-120775476D01*
X156095000Y-102824524D01*
X151525000Y-102824524D01*
X87710000Y-102824524D01*
X87710000Y-99779872D01*
X89765000Y-99779872D01*
X89765000Y-100220128D01*
X89850890Y-100651925D01*
X90019369Y-101058669D01*
X90263962Y-101424729D01*
X90575271Y-101736038D01*
X90941331Y-101980631D01*
X91348075Y-102149110D01*
X91779872Y-102235000D01*
X92220128Y-102235000D01*
X92651925Y-102149110D01*
X93058669Y-101980631D01*
X93424729Y-101736038D01*
X93736038Y-101424729D01*
X93980631Y-101058669D01*
X94149110Y-100651925D01*
X94235000Y-100220128D01*
X94235000Y-99779872D01*
X94149110Y-99348075D01*
X93984222Y-98950000D01*
X98311928Y-98950000D01*
X98311928Y-101050000D01*
X98324188Y-101174482D01*
X98360498Y-101294180D01*
X98419463Y-101404494D01*
X98498815Y-101501185D01*
X98595506Y-101580537D01*
X98705820Y-101639502D01*
X98825518Y-101675812D01*
X98950000Y-101688072D01*
X101050000Y-101688072D01*
X101174482Y-101675812D01*
X101294180Y-101639502D01*
X101404494Y-101580537D01*
X101501185Y-101501185D01*
X101580537Y-101404494D01*
X101639502Y-101294180D01*
X101675812Y-101174482D01*
X101676148Y-101171066D01*
X104088539Y-101171066D01*
X104190339Y-101440579D01*
X104488477Y-101586463D01*
X104809346Y-101671380D01*
X105140617Y-101692066D01*
X105469557Y-101647728D01*
X105783527Y-101540069D01*
X105969661Y-101440579D01*
X106071461Y-101171066D01*
X105080000Y-100179605D01*
X104088539Y-101171066D01*
X101676148Y-101171066D01*
X101688072Y-101050000D01*
X101688072Y-100060617D01*
X103387934Y-100060617D01*
X103432272Y-100389557D01*
X103539931Y-100703527D01*
X103639421Y-100889661D01*
X103908934Y-100991461D01*
X104900395Y-100000000D01*
X105259605Y-100000000D01*
X106251066Y-100991461D01*
X106520579Y-100889661D01*
X106666463Y-100591523D01*
X106751380Y-100270654D01*
X106772066Y-99939383D01*
X106757868Y-99834042D01*
X108475000Y-99834042D01*
X108475000Y-100165958D01*
X108539754Y-100491496D01*
X108666772Y-100798147D01*
X108851175Y-101074125D01*
X109085875Y-101308825D01*
X109361853Y-101493228D01*
X109668504Y-101620246D01*
X109994042Y-101685000D01*
X110325958Y-101685000D01*
X110651496Y-101620246D01*
X110958147Y-101493228D01*
X111234125Y-101308825D01*
X111468825Y-101074125D01*
X111653228Y-100798147D01*
X111780246Y-100491496D01*
X111845000Y-100165958D01*
X111845000Y-99834042D01*
X113555000Y-99834042D01*
X113555000Y-100165958D01*
X113619754Y-100491496D01*
X113746772Y-100798147D01*
X113931175Y-101074125D01*
X114165875Y-101308825D01*
X114441853Y-101493228D01*
X114748504Y-101620246D01*
X115074042Y-101685000D01*
X115405958Y-101685000D01*
X115731496Y-101620246D01*
X116038147Y-101493228D01*
X116314125Y-101308825D01*
X116548825Y-101074125D01*
X116733228Y-100798147D01*
X116860246Y-100491496D01*
X116925000Y-100165958D01*
X116925000Y-99834042D01*
X118635000Y-99834042D01*
X118635000Y-100165958D01*
X118699754Y-100491496D01*
X118826772Y-100798147D01*
X119011175Y-101074125D01*
X119245875Y-101308825D01*
X119521853Y-101493228D01*
X119828504Y-101620246D01*
X120154042Y-101685000D01*
X120485958Y-101685000D01*
X120811496Y-101620246D01*
X121118147Y-101493228D01*
X121394125Y-101308825D01*
X121628825Y-101074125D01*
X121813228Y-100798147D01*
X121940246Y-100491496D01*
X122005000Y-100165958D01*
X122005000Y-99834042D01*
X123715000Y-99834042D01*
X123715000Y-100165958D01*
X123779754Y-100491496D01*
X123906772Y-100798147D01*
X124091175Y-101074125D01*
X124325875Y-101308825D01*
X124601853Y-101493228D01*
X124908504Y-101620246D01*
X125234042Y-101685000D01*
X125565958Y-101685000D01*
X125891496Y-101620246D01*
X126198147Y-101493228D01*
X126474125Y-101308825D01*
X126708825Y-101074125D01*
X126893228Y-100798147D01*
X127020246Y-100491496D01*
X127085000Y-100165958D01*
X127085000Y-99834042D01*
X128795000Y-99834042D01*
X128795000Y-100165958D01*
X128859754Y-100491496D01*
X128986772Y-100798147D01*
X129171175Y-101074125D01*
X129405875Y-101308825D01*
X129681853Y-101493228D01*
X129988504Y-101620246D01*
X130314042Y-101685000D01*
X130645958Y-101685000D01*
X130971496Y-101620246D01*
X131278147Y-101493228D01*
X131554125Y-101308825D01*
X131788825Y-101074125D01*
X131973228Y-100798147D01*
X132100246Y-100491496D01*
X132165000Y-100165958D01*
X132165000Y-99834042D01*
X133875000Y-99834042D01*
X133875000Y-100165958D01*
X133939754Y-100491496D01*
X134066772Y-100798147D01*
X134251175Y-101074125D01*
X134485875Y-101308825D01*
X134761853Y-101493228D01*
X135068504Y-101620246D01*
X135394042Y-101685000D01*
X135725958Y-101685000D01*
X136051496Y-101620246D01*
X136358147Y-101493228D01*
X136634125Y-101308825D01*
X136868825Y-101074125D01*
X137053228Y-100798147D01*
X137180246Y-100491496D01*
X137245000Y-100165958D01*
X137245000Y-99834042D01*
X138955000Y-99834042D01*
X138955000Y-100165958D01*
X139019754Y-100491496D01*
X139146772Y-100798147D01*
X139331175Y-101074125D01*
X139565875Y-101308825D01*
X139841853Y-101493228D01*
X140148504Y-101620246D01*
X140474042Y-101685000D01*
X140805958Y-101685000D01*
X141131496Y-101620246D01*
X141438147Y-101493228D01*
X141714125Y-101308825D01*
X141948825Y-101074125D01*
X142133228Y-100798147D01*
X142260246Y-100491496D01*
X142325000Y-100165958D01*
X142325000Y-99834042D01*
X144035000Y-99834042D01*
X144035000Y-100165958D01*
X144099754Y-100491496D01*
X144226772Y-100798147D01*
X144411175Y-101074125D01*
X144645875Y-101308825D01*
X144921853Y-101493228D01*
X145228504Y-101620246D01*
X145554042Y-101685000D01*
X145885958Y-101685000D01*
X146211496Y-101620246D01*
X146518147Y-101493228D01*
X146794125Y-101308825D01*
X147028825Y-101074125D01*
X147213228Y-100798147D01*
X147340246Y-100491496D01*
X147405000Y-100165958D01*
X147405000Y-99834042D01*
X147394225Y-99779872D01*
X151485000Y-99779872D01*
X151485000Y-100220128D01*
X151570890Y-100651925D01*
X151739369Y-101058669D01*
X151983962Y-101424729D01*
X152295271Y-101736038D01*
X152661331Y-101980631D01*
X153068075Y-102149110D01*
X153499872Y-102235000D01*
X153940128Y-102235000D01*
X154371925Y-102149110D01*
X154778669Y-101980631D01*
X155144729Y-101736038D01*
X155456038Y-101424729D01*
X155700631Y-101058669D01*
X155869110Y-100651925D01*
X155955000Y-100220128D01*
X155955000Y-99779872D01*
X155869110Y-99348075D01*
X155700631Y-98941331D01*
X155456038Y-98575271D01*
X155144729Y-98263962D01*
X154778669Y-98019369D01*
X154371925Y-97850890D01*
X153940128Y-97765000D01*
X153499872Y-97765000D01*
X153068075Y-97850890D01*
X152661331Y-98019369D01*
X152295271Y-98263962D01*
X151983962Y-98575271D01*
X151739369Y-98941331D01*
X151570890Y-99348075D01*
X151485000Y-99779872D01*
X147394225Y-99779872D01*
X147340246Y-99508504D01*
X147213228Y-99201853D01*
X147028825Y-98925875D01*
X146794125Y-98691175D01*
X146518147Y-98506772D01*
X146211496Y-98379754D01*
X145885958Y-98315000D01*
X145554042Y-98315000D01*
X145228504Y-98379754D01*
X144921853Y-98506772D01*
X144645875Y-98691175D01*
X144411175Y-98925875D01*
X144226772Y-99201853D01*
X144099754Y-99508504D01*
X144035000Y-99834042D01*
X142325000Y-99834042D01*
X142260246Y-99508504D01*
X142133228Y-99201853D01*
X141948825Y-98925875D01*
X141714125Y-98691175D01*
X141438147Y-98506772D01*
X141131496Y-98379754D01*
X140805958Y-98315000D01*
X140474042Y-98315000D01*
X140148504Y-98379754D01*
X139841853Y-98506772D01*
X139565875Y-98691175D01*
X139331175Y-98925875D01*
X139146772Y-99201853D01*
X139019754Y-99508504D01*
X138955000Y-99834042D01*
X137245000Y-99834042D01*
X137180246Y-99508504D01*
X137053228Y-99201853D01*
X136868825Y-98925875D01*
X136634125Y-98691175D01*
X136358147Y-98506772D01*
X136051496Y-98379754D01*
X135725958Y-98315000D01*
X135394042Y-98315000D01*
X135068504Y-98379754D01*
X134761853Y-98506772D01*
X134485875Y-98691175D01*
X134251175Y-98925875D01*
X134066772Y-99201853D01*
X133939754Y-99508504D01*
X133875000Y-99834042D01*
X132165000Y-99834042D01*
X132100246Y-99508504D01*
X131973228Y-99201853D01*
X131788825Y-98925875D01*
X131554125Y-98691175D01*
X131278147Y-98506772D01*
X130971496Y-98379754D01*
X130645958Y-98315000D01*
X130314042Y-98315000D01*
X129988504Y-98379754D01*
X129681853Y-98506772D01*
X129405875Y-98691175D01*
X129171175Y-98925875D01*
X128986772Y-99201853D01*
X128859754Y-99508504D01*
X128795000Y-99834042D01*
X127085000Y-99834042D01*
X127020246Y-99508504D01*
X126893228Y-99201853D01*
X126708825Y-98925875D01*
X126474125Y-98691175D01*
X126198147Y-98506772D01*
X125891496Y-98379754D01*
X125565958Y-98315000D01*
X125234042Y-98315000D01*
X124908504Y-98379754D01*
X124601853Y-98506772D01*
X124325875Y-98691175D01*
X124091175Y-98925875D01*
X123906772Y-99201853D01*
X123779754Y-99508504D01*
X123715000Y-99834042D01*
X122005000Y-99834042D01*
X121940246Y-99508504D01*
X121813228Y-99201853D01*
X121628825Y-98925875D01*
X121394125Y-98691175D01*
X121118147Y-98506772D01*
X120811496Y-98379754D01*
X120485958Y-98315000D01*
X120154042Y-98315000D01*
X119828504Y-98379754D01*
X119521853Y-98506772D01*
X119245875Y-98691175D01*
X119011175Y-98925875D01*
X118826772Y-99201853D01*
X118699754Y-99508504D01*
X118635000Y-99834042D01*
X116925000Y-99834042D01*
X116860246Y-99508504D01*
X116733228Y-99201853D01*
X116548825Y-98925875D01*
X116314125Y-98691175D01*
X116038147Y-98506772D01*
X115731496Y-98379754D01*
X115405958Y-98315000D01*
X115074042Y-98315000D01*
X114748504Y-98379754D01*
X114441853Y-98506772D01*
X114165875Y-98691175D01*
X113931175Y-98925875D01*
X113746772Y-99201853D01*
X113619754Y-99508504D01*
X113555000Y-99834042D01*
X111845000Y-99834042D01*
X111780246Y-99508504D01*
X111653228Y-99201853D01*
X111468825Y-98925875D01*
X111234125Y-98691175D01*
X110958147Y-98506772D01*
X110651496Y-98379754D01*
X110325958Y-98315000D01*
X109994042Y-98315000D01*
X109668504Y-98379754D01*
X109361853Y-98506772D01*
X109085875Y-98691175D01*
X108851175Y-98925875D01*
X108666772Y-99201853D01*
X108539754Y-99508504D01*
X108475000Y-99834042D01*
X106757868Y-99834042D01*
X106727728Y-99610443D01*
X106620069Y-99296473D01*
X106520579Y-99110339D01*
X106251066Y-99008539D01*
X105259605Y-100000000D01*
X104900395Y-100000000D01*
X103908934Y-99008539D01*
X103639421Y-99110339D01*
X103493537Y-99408477D01*
X103408620Y-99729346D01*
X103387934Y-100060617D01*
X101688072Y-100060617D01*
X101688072Y-98950000D01*
X101676149Y-98828934D01*
X104088539Y-98828934D01*
X105080000Y-99820395D01*
X106071461Y-98828934D01*
X105969661Y-98559421D01*
X105671523Y-98413537D01*
X105350654Y-98328620D01*
X105019383Y-98307934D01*
X104690443Y-98352272D01*
X104376473Y-98459931D01*
X104190339Y-98559421D01*
X104088539Y-98828934D01*
X101676149Y-98828934D01*
X101675812Y-98825518D01*
X101639502Y-98705820D01*
X101580537Y-98595506D01*
X101501185Y-98498815D01*
X101404494Y-98419463D01*
X101294180Y-98360498D01*
X101174482Y-98324188D01*
X101050000Y-98311928D01*
X98950000Y-98311928D01*
X98825518Y-98324188D01*
X98705820Y-98360498D01*
X98595506Y-98419463D01*
X98498815Y-98498815D01*
X98419463Y-98595506D01*
X98360498Y-98705820D01*
X98324188Y-98825518D01*
X98311928Y-98950000D01*
X93984222Y-98950000D01*
X93980631Y-98941331D01*
X93736038Y-98575271D01*
X93424729Y-98263962D01*
X93058669Y-98019369D01*
X92651925Y-97850890D01*
X92220128Y-97765000D01*
X91779872Y-97765000D01*
X91348075Y-97850890D01*
X90941331Y-98019369D01*
X90575271Y-98263962D01*
X90263962Y-98575271D01*
X90019369Y-98941331D01*
X89850890Y-99348075D01*
X89765000Y-99779872D01*
X87710000Y-99779872D01*
X87710000Y-95660000D01*
X158013084Y-95660000D01*
X157916910Y-128840000D01*
M02*
