M48
; DRILL file {KiCad (5.1.5)-3} date 8/30/2020 12:24:10 PM
; FORMAT={-:-/ absolute / inch / decimal}
; #@! TF.CreationDate,2020-08-30T12:24:10-07:00
; #@! TF.GenerationSoftware,Kicad,Pcbnew,(5.1.5)-3
; #@! TF.FileFunction,Plated,1,2,PTH
FMAT,2
INCH
T1C0.0157
T2C0.0433
%
G90
G05
T1
X4.0846Y-4.4764
X4.0866Y-4.1289
X4.0876Y-4.3297
X4.1093Y-4.5778
X4.1417Y-4.1604
X4.1417Y-4.2756
X4.1476Y-4.4281
X4.1476Y-4.5285
X4.3543Y-4.3789
X4.5217Y-4.2805
X4.5226Y-4.4783
X4.5467Y-4.5291
X4.5551Y-4.3268
X4.5551Y-4.5797
X4.564Y-4.4006
X4.6467Y-4.4134
X4.7362Y-4.1585
X4.815Y-4.4134
X4.8209Y-4.4764
X4.8465Y-4.3839
X4.8573Y-4.4449
X4.938Y-4.128
X5.0394Y-4.4774
X5.0394Y-4.747
X5.0679Y-4.4134
X5.0679Y-4.7018
X5.0856Y-4.1427
X5.0856Y-4.3268
X5.1112Y-4.6545
X5.1122Y-4.3819
X5.1348Y-4.2057
X5.1368Y-4.2795
X5.1417Y-4.4439
X5.1417Y-4.5787
X5.1703Y-4.5295
X5.2215Y-4.7884
X5.313Y-4.4301
X5.3366Y-4.7008
X5.5325Y-4.2795
X5.5374Y-4.1841
X5.5374Y-4.7894
X5.5413Y-4.5276
X5.5423Y-4.6565
X5.5699Y-4.4793
X5.5787Y-4.3278
X5.5827Y-4.3789
X5.6142Y-4.4311
X5.6161Y-4.7008
X5.7372Y-4.1437
X5.7372Y-4.7598
T2
X3.937Y-4.9213
X4.137Y-4.9213
X4.337Y-4.9213
X4.537Y-4.9213
X4.737Y-4.9213
X4.937Y-4.9213
X5.137Y-4.9213
X5.337Y-4.9213
X5.537Y-4.9213
X5.737Y-4.9213
X3.937Y-3.937
X4.137Y-3.937
X4.337Y-3.937
X4.537Y-3.937
X4.737Y-3.937
X4.937Y-3.937
X5.137Y-3.937
X5.337Y-3.937
X5.537Y-3.937
X5.737Y-3.937
T0
M30
