G04 #@! TF.GenerationSoftware,KiCad,Pcbnew,(5.1.5)-3*
G04 #@! TF.CreationDate,2020-08-30T12:24:17-07:00*
G04 #@! TF.ProjectId,comparator,636f6d70-6172-4617-946f-722e6b696361,rev?*
G04 #@! TF.SameCoordinates,Original*
G04 #@! TF.FileFunction,Soldermask,Top*
G04 #@! TF.FilePolarity,Negative*
%FSLAX46Y46*%
G04 Gerber Fmt 4.6, Leading zero omitted, Abs format (unit mm)*
G04 Created by KiCad (PCBNEW (5.1.5)-3) date 2020-08-30 12:24:17*
%MOMM*%
%LPD*%
G04 APERTURE LIST*
%ADD10C,0.100000*%
G04 APERTURE END LIST*
D10*
G36*
X154095256Y-123391298D02*
G01*
X154201579Y-123412447D01*
X154502042Y-123536903D01*
X154772451Y-123717585D01*
X155002415Y-123947549D01*
X155002416Y-123947551D01*
X155183098Y-124217960D01*
X155307553Y-124518422D01*
X155371000Y-124837389D01*
X155371000Y-125162611D01*
X155339464Y-125321150D01*
X155307553Y-125481579D01*
X155183097Y-125782042D01*
X155002415Y-126052451D01*
X154772451Y-126282415D01*
X154502042Y-126463097D01*
X154201579Y-126587553D01*
X154095256Y-126608702D01*
X153882611Y-126651000D01*
X153557389Y-126651000D01*
X153344744Y-126608702D01*
X153238421Y-126587553D01*
X152937958Y-126463097D01*
X152667549Y-126282415D01*
X152437585Y-126052451D01*
X152256903Y-125782042D01*
X152132447Y-125481579D01*
X152100536Y-125321150D01*
X152069000Y-125162611D01*
X152069000Y-124837389D01*
X152132447Y-124518422D01*
X152256902Y-124217960D01*
X152437584Y-123947551D01*
X152437585Y-123947549D01*
X152667549Y-123717585D01*
X152937958Y-123536903D01*
X153238421Y-123412447D01*
X153344744Y-123391298D01*
X153557389Y-123349000D01*
X153882611Y-123349000D01*
X154095256Y-123391298D01*
G37*
G36*
X92375256Y-123391298D02*
G01*
X92481579Y-123412447D01*
X92782042Y-123536903D01*
X93052451Y-123717585D01*
X93282415Y-123947549D01*
X93282416Y-123947551D01*
X93463098Y-124217960D01*
X93587553Y-124518422D01*
X93651000Y-124837389D01*
X93651000Y-125162611D01*
X93619464Y-125321150D01*
X93587553Y-125481579D01*
X93463097Y-125782042D01*
X93282415Y-126052451D01*
X93052451Y-126282415D01*
X92782042Y-126463097D01*
X92481579Y-126587553D01*
X92375256Y-126608702D01*
X92162611Y-126651000D01*
X91837389Y-126651000D01*
X91624744Y-126608702D01*
X91518421Y-126587553D01*
X91217958Y-126463097D01*
X90947549Y-126282415D01*
X90717585Y-126052451D01*
X90536903Y-125782042D01*
X90412447Y-125481579D01*
X90380536Y-125321150D01*
X90349000Y-125162611D01*
X90349000Y-124837389D01*
X90412447Y-124518422D01*
X90536902Y-124217960D01*
X90717584Y-123947551D01*
X90717585Y-123947549D01*
X90947549Y-123717585D01*
X91217958Y-123536903D01*
X91518421Y-123412447D01*
X91624744Y-123391298D01*
X91837389Y-123349000D01*
X92162611Y-123349000D01*
X92375256Y-123391298D01*
G37*
G36*
X140854794Y-123920155D02*
G01*
X140961150Y-123941311D01*
X141061334Y-123982809D01*
X141161520Y-124024307D01*
X141341844Y-124144795D01*
X141495205Y-124298156D01*
X141615693Y-124478480D01*
X141698689Y-124678851D01*
X141741000Y-124891560D01*
X141741000Y-125108440D01*
X141698689Y-125321149D01*
X141615693Y-125521520D01*
X141495205Y-125701844D01*
X141341844Y-125855205D01*
X141161520Y-125975693D01*
X140961150Y-126058689D01*
X140854795Y-126079844D01*
X140748440Y-126101000D01*
X140531560Y-126101000D01*
X140425205Y-126079844D01*
X140318850Y-126058689D01*
X140118480Y-125975693D01*
X139938156Y-125855205D01*
X139784795Y-125701844D01*
X139664307Y-125521520D01*
X139581311Y-125321149D01*
X139539000Y-125108440D01*
X139539000Y-124891560D01*
X139581311Y-124678851D01*
X139664307Y-124478480D01*
X139784795Y-124298156D01*
X139938156Y-124144795D01*
X140118480Y-124024307D01*
X140218666Y-123982809D01*
X140318850Y-123941311D01*
X140425206Y-123920155D01*
X140531560Y-123899000D01*
X140748440Y-123899000D01*
X140854794Y-123920155D01*
G37*
G36*
X135774794Y-123920155D02*
G01*
X135881150Y-123941311D01*
X135981334Y-123982809D01*
X136081520Y-124024307D01*
X136261844Y-124144795D01*
X136415205Y-124298156D01*
X136535693Y-124478480D01*
X136618689Y-124678851D01*
X136661000Y-124891560D01*
X136661000Y-125108440D01*
X136618689Y-125321149D01*
X136535693Y-125521520D01*
X136415205Y-125701844D01*
X136261844Y-125855205D01*
X136081520Y-125975693D01*
X135881150Y-126058689D01*
X135774795Y-126079844D01*
X135668440Y-126101000D01*
X135451560Y-126101000D01*
X135345205Y-126079844D01*
X135238850Y-126058689D01*
X135038480Y-125975693D01*
X134858156Y-125855205D01*
X134704795Y-125701844D01*
X134584307Y-125521520D01*
X134501311Y-125321149D01*
X134459000Y-125108440D01*
X134459000Y-124891560D01*
X134501311Y-124678851D01*
X134584307Y-124478480D01*
X134704795Y-124298156D01*
X134858156Y-124144795D01*
X135038480Y-124024307D01*
X135138666Y-123982809D01*
X135238850Y-123941311D01*
X135345206Y-123920155D01*
X135451560Y-123899000D01*
X135668440Y-123899000D01*
X135774794Y-123920155D01*
G37*
G36*
X130694794Y-123920155D02*
G01*
X130801150Y-123941311D01*
X130901334Y-123982809D01*
X131001520Y-124024307D01*
X131181844Y-124144795D01*
X131335205Y-124298156D01*
X131455693Y-124478480D01*
X131538689Y-124678851D01*
X131581000Y-124891560D01*
X131581000Y-125108440D01*
X131538689Y-125321149D01*
X131455693Y-125521520D01*
X131335205Y-125701844D01*
X131181844Y-125855205D01*
X131001520Y-125975693D01*
X130801150Y-126058689D01*
X130694795Y-126079844D01*
X130588440Y-126101000D01*
X130371560Y-126101000D01*
X130265205Y-126079844D01*
X130158850Y-126058689D01*
X129958480Y-125975693D01*
X129778156Y-125855205D01*
X129624795Y-125701844D01*
X129504307Y-125521520D01*
X129421311Y-125321149D01*
X129379000Y-125108440D01*
X129379000Y-124891560D01*
X129421311Y-124678851D01*
X129504307Y-124478480D01*
X129624795Y-124298156D01*
X129778156Y-124144795D01*
X129958480Y-124024307D01*
X130058666Y-123982809D01*
X130158850Y-123941311D01*
X130265206Y-123920155D01*
X130371560Y-123899000D01*
X130588440Y-123899000D01*
X130694794Y-123920155D01*
G37*
G36*
X125614794Y-123920155D02*
G01*
X125721150Y-123941311D01*
X125821334Y-123982809D01*
X125921520Y-124024307D01*
X126101844Y-124144795D01*
X126255205Y-124298156D01*
X126375693Y-124478480D01*
X126458689Y-124678851D01*
X126501000Y-124891560D01*
X126501000Y-125108440D01*
X126458689Y-125321149D01*
X126375693Y-125521520D01*
X126255205Y-125701844D01*
X126101844Y-125855205D01*
X125921520Y-125975693D01*
X125721150Y-126058689D01*
X125614795Y-126079844D01*
X125508440Y-126101000D01*
X125291560Y-126101000D01*
X125185205Y-126079844D01*
X125078850Y-126058689D01*
X124878480Y-125975693D01*
X124698156Y-125855205D01*
X124544795Y-125701844D01*
X124424307Y-125521520D01*
X124341311Y-125321149D01*
X124299000Y-125108440D01*
X124299000Y-124891560D01*
X124341311Y-124678851D01*
X124424307Y-124478480D01*
X124544795Y-124298156D01*
X124698156Y-124144795D01*
X124878480Y-124024307D01*
X124978666Y-123982809D01*
X125078850Y-123941311D01*
X125185206Y-123920155D01*
X125291560Y-123899000D01*
X125508440Y-123899000D01*
X125614794Y-123920155D01*
G37*
G36*
X120534794Y-123920155D02*
G01*
X120641150Y-123941311D01*
X120741334Y-123982809D01*
X120841520Y-124024307D01*
X121021844Y-124144795D01*
X121175205Y-124298156D01*
X121295693Y-124478480D01*
X121378689Y-124678851D01*
X121421000Y-124891560D01*
X121421000Y-125108440D01*
X121378689Y-125321149D01*
X121295693Y-125521520D01*
X121175205Y-125701844D01*
X121021844Y-125855205D01*
X120841520Y-125975693D01*
X120641150Y-126058689D01*
X120534795Y-126079844D01*
X120428440Y-126101000D01*
X120211560Y-126101000D01*
X120105205Y-126079844D01*
X119998850Y-126058689D01*
X119798480Y-125975693D01*
X119618156Y-125855205D01*
X119464795Y-125701844D01*
X119344307Y-125521520D01*
X119261311Y-125321149D01*
X119219000Y-125108440D01*
X119219000Y-124891560D01*
X119261311Y-124678851D01*
X119344307Y-124478480D01*
X119464795Y-124298156D01*
X119618156Y-124144795D01*
X119798480Y-124024307D01*
X119898666Y-123982809D01*
X119998850Y-123941311D01*
X120105206Y-123920155D01*
X120211560Y-123899000D01*
X120428440Y-123899000D01*
X120534794Y-123920155D01*
G37*
G36*
X115454794Y-123920155D02*
G01*
X115561150Y-123941311D01*
X115661334Y-123982809D01*
X115761520Y-124024307D01*
X115941844Y-124144795D01*
X116095205Y-124298156D01*
X116215693Y-124478480D01*
X116298689Y-124678851D01*
X116341000Y-124891560D01*
X116341000Y-125108440D01*
X116298689Y-125321149D01*
X116215693Y-125521520D01*
X116095205Y-125701844D01*
X115941844Y-125855205D01*
X115761520Y-125975693D01*
X115561150Y-126058689D01*
X115454795Y-126079844D01*
X115348440Y-126101000D01*
X115131560Y-126101000D01*
X115025205Y-126079844D01*
X114918850Y-126058689D01*
X114718480Y-125975693D01*
X114538156Y-125855205D01*
X114384795Y-125701844D01*
X114264307Y-125521520D01*
X114181311Y-125321149D01*
X114139000Y-125108440D01*
X114139000Y-124891560D01*
X114181311Y-124678851D01*
X114264307Y-124478480D01*
X114384795Y-124298156D01*
X114538156Y-124144795D01*
X114718480Y-124024307D01*
X114818666Y-123982809D01*
X114918850Y-123941311D01*
X115025206Y-123920155D01*
X115131560Y-123899000D01*
X115348440Y-123899000D01*
X115454794Y-123920155D01*
G37*
G36*
X110374794Y-123920155D02*
G01*
X110481150Y-123941311D01*
X110581334Y-123982809D01*
X110681520Y-124024307D01*
X110861844Y-124144795D01*
X111015205Y-124298156D01*
X111135693Y-124478480D01*
X111218689Y-124678851D01*
X111261000Y-124891560D01*
X111261000Y-125108440D01*
X111218689Y-125321149D01*
X111135693Y-125521520D01*
X111015205Y-125701844D01*
X110861844Y-125855205D01*
X110681520Y-125975693D01*
X110481150Y-126058689D01*
X110374795Y-126079844D01*
X110268440Y-126101000D01*
X110051560Y-126101000D01*
X109945205Y-126079844D01*
X109838850Y-126058689D01*
X109638480Y-125975693D01*
X109458156Y-125855205D01*
X109304795Y-125701844D01*
X109184307Y-125521520D01*
X109101311Y-125321149D01*
X109059000Y-125108440D01*
X109059000Y-124891560D01*
X109101311Y-124678851D01*
X109184307Y-124478480D01*
X109304795Y-124298156D01*
X109458156Y-124144795D01*
X109638480Y-124024307D01*
X109738666Y-123982809D01*
X109838850Y-123941311D01*
X109945206Y-123920155D01*
X110051560Y-123899000D01*
X110268440Y-123899000D01*
X110374794Y-123920155D01*
G37*
G36*
X105294794Y-123920155D02*
G01*
X105401150Y-123941311D01*
X105501334Y-123982809D01*
X105601520Y-124024307D01*
X105781844Y-124144795D01*
X105935205Y-124298156D01*
X106055693Y-124478480D01*
X106138689Y-124678851D01*
X106181000Y-124891560D01*
X106181000Y-125108440D01*
X106138689Y-125321149D01*
X106055693Y-125521520D01*
X105935205Y-125701844D01*
X105781844Y-125855205D01*
X105601520Y-125975693D01*
X105401150Y-126058689D01*
X105294795Y-126079844D01*
X105188440Y-126101000D01*
X104971560Y-126101000D01*
X104865205Y-126079844D01*
X104758850Y-126058689D01*
X104558480Y-125975693D01*
X104378156Y-125855205D01*
X104224795Y-125701844D01*
X104104307Y-125521520D01*
X104021311Y-125321149D01*
X103979000Y-125108440D01*
X103979000Y-124891560D01*
X104021311Y-124678851D01*
X104104307Y-124478480D01*
X104224795Y-124298156D01*
X104378156Y-124144795D01*
X104558480Y-124024307D01*
X104658666Y-123982809D01*
X104758850Y-123941311D01*
X104865206Y-123920155D01*
X104971560Y-123899000D01*
X105188440Y-123899000D01*
X105294794Y-123920155D01*
G37*
G36*
X101101000Y-126101000D02*
G01*
X98899000Y-126101000D01*
X98899000Y-123899000D01*
X101101000Y-123899000D01*
X101101000Y-126101000D01*
G37*
G36*
X145934794Y-123920155D02*
G01*
X146041150Y-123941311D01*
X146141334Y-123982809D01*
X146241520Y-124024307D01*
X146421844Y-124144795D01*
X146575205Y-124298156D01*
X146695693Y-124478480D01*
X146778689Y-124678851D01*
X146821000Y-124891560D01*
X146821000Y-125108440D01*
X146778689Y-125321149D01*
X146695693Y-125521520D01*
X146575205Y-125701844D01*
X146421844Y-125855205D01*
X146241520Y-125975693D01*
X146041150Y-126058689D01*
X145934795Y-126079844D01*
X145828440Y-126101000D01*
X145611560Y-126101000D01*
X145505205Y-126079844D01*
X145398850Y-126058689D01*
X145198480Y-125975693D01*
X145018156Y-125855205D01*
X144864795Y-125701844D01*
X144744307Y-125521520D01*
X144661311Y-125321149D01*
X144619000Y-125108440D01*
X144619000Y-124891560D01*
X144661311Y-124678851D01*
X144744307Y-124478480D01*
X144864795Y-124298156D01*
X145018156Y-124144795D01*
X145198480Y-124024307D01*
X145298666Y-123982809D01*
X145398850Y-123941311D01*
X145505206Y-123920155D01*
X145611560Y-123899000D01*
X145828440Y-123899000D01*
X145934794Y-123920155D01*
G37*
G36*
X113569928Y-115961764D02*
G01*
X113591009Y-115968160D01*
X113610445Y-115978548D01*
X113627476Y-115992524D01*
X113641452Y-116009555D01*
X113651840Y-116028991D01*
X113658236Y-116050072D01*
X113661000Y-116078140D01*
X113661000Y-116541860D01*
X113658236Y-116569928D01*
X113651840Y-116591009D01*
X113641452Y-116610445D01*
X113627476Y-116627476D01*
X113610445Y-116641452D01*
X113591009Y-116651840D01*
X113569928Y-116658236D01*
X113541860Y-116661000D01*
X111728140Y-116661000D01*
X111700072Y-116658236D01*
X111678991Y-116651840D01*
X111659555Y-116641452D01*
X111642524Y-116627476D01*
X111628548Y-116610445D01*
X111618160Y-116591009D01*
X111611764Y-116569928D01*
X111609000Y-116541860D01*
X111609000Y-116078140D01*
X111611764Y-116050072D01*
X111618160Y-116028991D01*
X111628548Y-116009555D01*
X111642524Y-115992524D01*
X111659555Y-115978548D01*
X111678991Y-115968160D01*
X111700072Y-115961764D01*
X111728140Y-115959000D01*
X113541860Y-115959000D01*
X113569928Y-115961764D01*
G37*
G36*
X108619928Y-115961764D02*
G01*
X108641009Y-115968160D01*
X108660445Y-115978548D01*
X108677476Y-115992524D01*
X108691452Y-116009555D01*
X108701840Y-116028991D01*
X108708236Y-116050072D01*
X108711000Y-116078140D01*
X108711000Y-116541860D01*
X108708236Y-116569928D01*
X108701840Y-116591009D01*
X108691452Y-116610445D01*
X108677476Y-116627476D01*
X108660445Y-116641452D01*
X108641009Y-116651840D01*
X108619928Y-116658236D01*
X108591860Y-116661000D01*
X106778140Y-116661000D01*
X106750072Y-116658236D01*
X106728991Y-116651840D01*
X106709555Y-116641452D01*
X106692524Y-116627476D01*
X106678548Y-116610445D01*
X106668160Y-116591009D01*
X106661764Y-116569928D01*
X106659000Y-116541860D01*
X106659000Y-116078140D01*
X106661764Y-116050072D01*
X106668160Y-116028991D01*
X106678548Y-116009555D01*
X106692524Y-115992524D01*
X106709555Y-115978548D01*
X106728991Y-115968160D01*
X106750072Y-115961764D01*
X106778140Y-115959000D01*
X108591860Y-115959000D01*
X108619928Y-115961764D01*
G37*
G36*
X138969928Y-115961764D02*
G01*
X138991009Y-115968160D01*
X139010445Y-115978548D01*
X139027476Y-115992524D01*
X139041452Y-116009555D01*
X139051840Y-116028991D01*
X139058236Y-116050072D01*
X139061000Y-116078140D01*
X139061000Y-116541860D01*
X139058236Y-116569928D01*
X139051840Y-116591009D01*
X139041452Y-116610445D01*
X139027476Y-116627476D01*
X139010445Y-116641452D01*
X138991009Y-116651840D01*
X138969928Y-116658236D01*
X138941860Y-116661000D01*
X137128140Y-116661000D01*
X137100072Y-116658236D01*
X137078991Y-116651840D01*
X137059555Y-116641452D01*
X137042524Y-116627476D01*
X137028548Y-116610445D01*
X137018160Y-116591009D01*
X137011764Y-116569928D01*
X137009000Y-116541860D01*
X137009000Y-116078140D01*
X137011764Y-116050072D01*
X137018160Y-116028991D01*
X137028548Y-116009555D01*
X137042524Y-115992524D01*
X137059555Y-115978548D01*
X137078991Y-115968160D01*
X137100072Y-115961764D01*
X137128140Y-115959000D01*
X138941860Y-115959000D01*
X138969928Y-115961764D01*
G37*
G36*
X134019928Y-115961764D02*
G01*
X134041009Y-115968160D01*
X134060445Y-115978548D01*
X134077476Y-115992524D01*
X134091452Y-116009555D01*
X134101840Y-116028991D01*
X134108236Y-116050072D01*
X134111000Y-116078140D01*
X134111000Y-116541860D01*
X134108236Y-116569928D01*
X134101840Y-116591009D01*
X134091452Y-116610445D01*
X134077476Y-116627476D01*
X134060445Y-116641452D01*
X134041009Y-116651840D01*
X134019928Y-116658236D01*
X133991860Y-116661000D01*
X132178140Y-116661000D01*
X132150072Y-116658236D01*
X132128991Y-116651840D01*
X132109555Y-116641452D01*
X132092524Y-116627476D01*
X132078548Y-116610445D01*
X132068160Y-116591009D01*
X132061764Y-116569928D01*
X132059000Y-116541860D01*
X132059000Y-116078140D01*
X132061764Y-116050072D01*
X132068160Y-116028991D01*
X132078548Y-116009555D01*
X132092524Y-115992524D01*
X132109555Y-115978548D01*
X132128991Y-115968160D01*
X132150072Y-115961764D01*
X132178140Y-115959000D01*
X133991860Y-115959000D01*
X134019928Y-115961764D01*
G37*
G36*
X134019928Y-114691764D02*
G01*
X134041009Y-114698160D01*
X134060445Y-114708548D01*
X134077476Y-114722524D01*
X134091452Y-114739555D01*
X134101840Y-114758991D01*
X134108236Y-114780072D01*
X134111000Y-114808140D01*
X134111000Y-115271860D01*
X134108236Y-115299928D01*
X134101840Y-115321009D01*
X134091452Y-115340445D01*
X134077476Y-115357476D01*
X134060445Y-115371452D01*
X134041009Y-115381840D01*
X134019928Y-115388236D01*
X133991860Y-115391000D01*
X132178140Y-115391000D01*
X132150072Y-115388236D01*
X132128991Y-115381840D01*
X132109555Y-115371452D01*
X132092524Y-115357476D01*
X132078548Y-115340445D01*
X132068160Y-115321009D01*
X132061764Y-115299928D01*
X132059000Y-115271860D01*
X132059000Y-114808140D01*
X132061764Y-114780072D01*
X132068160Y-114758991D01*
X132078548Y-114739555D01*
X132092524Y-114722524D01*
X132109555Y-114708548D01*
X132128991Y-114698160D01*
X132150072Y-114691764D01*
X132178140Y-114689000D01*
X133991860Y-114689000D01*
X134019928Y-114691764D01*
G37*
G36*
X138969928Y-114691764D02*
G01*
X138991009Y-114698160D01*
X139010445Y-114708548D01*
X139027476Y-114722524D01*
X139041452Y-114739555D01*
X139051840Y-114758991D01*
X139058236Y-114780072D01*
X139061000Y-114808140D01*
X139061000Y-115271860D01*
X139058236Y-115299928D01*
X139051840Y-115321009D01*
X139041452Y-115340445D01*
X139027476Y-115357476D01*
X139010445Y-115371452D01*
X138991009Y-115381840D01*
X138969928Y-115388236D01*
X138941860Y-115391000D01*
X137128140Y-115391000D01*
X137100072Y-115388236D01*
X137078991Y-115381840D01*
X137059555Y-115371452D01*
X137042524Y-115357476D01*
X137028548Y-115340445D01*
X137018160Y-115321009D01*
X137011764Y-115299928D01*
X137009000Y-115271860D01*
X137009000Y-114808140D01*
X137011764Y-114780072D01*
X137018160Y-114758991D01*
X137028548Y-114739555D01*
X137042524Y-114722524D01*
X137059555Y-114708548D01*
X137078991Y-114698160D01*
X137100072Y-114691764D01*
X137128140Y-114689000D01*
X138941860Y-114689000D01*
X138969928Y-114691764D01*
G37*
G36*
X113569928Y-114691764D02*
G01*
X113591009Y-114698160D01*
X113610445Y-114708548D01*
X113627476Y-114722524D01*
X113641452Y-114739555D01*
X113651840Y-114758991D01*
X113658236Y-114780072D01*
X113661000Y-114808140D01*
X113661000Y-115271860D01*
X113658236Y-115299928D01*
X113651840Y-115321009D01*
X113641452Y-115340445D01*
X113627476Y-115357476D01*
X113610445Y-115371452D01*
X113591009Y-115381840D01*
X113569928Y-115388236D01*
X113541860Y-115391000D01*
X111728140Y-115391000D01*
X111700072Y-115388236D01*
X111678991Y-115381840D01*
X111659555Y-115371452D01*
X111642524Y-115357476D01*
X111628548Y-115340445D01*
X111618160Y-115321009D01*
X111611764Y-115299928D01*
X111609000Y-115271860D01*
X111609000Y-114808140D01*
X111611764Y-114780072D01*
X111618160Y-114758991D01*
X111628548Y-114739555D01*
X111642524Y-114722524D01*
X111659555Y-114708548D01*
X111678991Y-114698160D01*
X111700072Y-114691764D01*
X111728140Y-114689000D01*
X113541860Y-114689000D01*
X113569928Y-114691764D01*
G37*
G36*
X108619928Y-114691764D02*
G01*
X108641009Y-114698160D01*
X108660445Y-114708548D01*
X108677476Y-114722524D01*
X108691452Y-114739555D01*
X108701840Y-114758991D01*
X108708236Y-114780072D01*
X108711000Y-114808140D01*
X108711000Y-115271860D01*
X108708236Y-115299928D01*
X108701840Y-115321009D01*
X108691452Y-115340445D01*
X108677476Y-115357476D01*
X108660445Y-115371452D01*
X108641009Y-115381840D01*
X108619928Y-115388236D01*
X108591860Y-115391000D01*
X106778140Y-115391000D01*
X106750072Y-115388236D01*
X106728991Y-115381840D01*
X106709555Y-115371452D01*
X106692524Y-115357476D01*
X106678548Y-115340445D01*
X106668160Y-115321009D01*
X106661764Y-115299928D01*
X106659000Y-115271860D01*
X106659000Y-114808140D01*
X106661764Y-114780072D01*
X106668160Y-114758991D01*
X106678548Y-114739555D01*
X106692524Y-114722524D01*
X106709555Y-114708548D01*
X106728991Y-114698160D01*
X106750072Y-114691764D01*
X106778140Y-114689000D01*
X108591860Y-114689000D01*
X108619928Y-114691764D01*
G37*
G36*
X134019928Y-113421764D02*
G01*
X134041009Y-113428160D01*
X134060445Y-113438548D01*
X134077476Y-113452524D01*
X134091452Y-113469555D01*
X134101840Y-113488991D01*
X134108236Y-113510072D01*
X134111000Y-113538140D01*
X134111000Y-114001860D01*
X134108236Y-114029928D01*
X134101840Y-114051009D01*
X134091452Y-114070445D01*
X134077476Y-114087476D01*
X134060445Y-114101452D01*
X134041009Y-114111840D01*
X134019928Y-114118236D01*
X133991860Y-114121000D01*
X132178140Y-114121000D01*
X132150072Y-114118236D01*
X132128991Y-114111840D01*
X132109555Y-114101452D01*
X132092524Y-114087476D01*
X132078548Y-114070445D01*
X132068160Y-114051009D01*
X132061764Y-114029928D01*
X132059000Y-114001860D01*
X132059000Y-113538140D01*
X132061764Y-113510072D01*
X132068160Y-113488991D01*
X132078548Y-113469555D01*
X132092524Y-113452524D01*
X132109555Y-113438548D01*
X132128991Y-113428160D01*
X132150072Y-113421764D01*
X132178140Y-113419000D01*
X133991860Y-113419000D01*
X134019928Y-113421764D01*
G37*
G36*
X113569928Y-113421764D02*
G01*
X113591009Y-113428160D01*
X113610445Y-113438548D01*
X113627476Y-113452524D01*
X113641452Y-113469555D01*
X113651840Y-113488991D01*
X113658236Y-113510072D01*
X113661000Y-113538140D01*
X113661000Y-114001860D01*
X113658236Y-114029928D01*
X113651840Y-114051009D01*
X113641452Y-114070445D01*
X113627476Y-114087476D01*
X113610445Y-114101452D01*
X113591009Y-114111840D01*
X113569928Y-114118236D01*
X113541860Y-114121000D01*
X111728140Y-114121000D01*
X111700072Y-114118236D01*
X111678991Y-114111840D01*
X111659555Y-114101452D01*
X111642524Y-114087476D01*
X111628548Y-114070445D01*
X111618160Y-114051009D01*
X111611764Y-114029928D01*
X111609000Y-114001860D01*
X111609000Y-113538140D01*
X111611764Y-113510072D01*
X111618160Y-113488991D01*
X111628548Y-113469555D01*
X111642524Y-113452524D01*
X111659555Y-113438548D01*
X111678991Y-113428160D01*
X111700072Y-113421764D01*
X111728140Y-113419000D01*
X113541860Y-113419000D01*
X113569928Y-113421764D01*
G37*
G36*
X138969928Y-113421764D02*
G01*
X138991009Y-113428160D01*
X139010445Y-113438548D01*
X139027476Y-113452524D01*
X139041452Y-113469555D01*
X139051840Y-113488991D01*
X139058236Y-113510072D01*
X139061000Y-113538140D01*
X139061000Y-114001860D01*
X139058236Y-114029928D01*
X139051840Y-114051009D01*
X139041452Y-114070445D01*
X139027476Y-114087476D01*
X139010445Y-114101452D01*
X138991009Y-114111840D01*
X138969928Y-114118236D01*
X138941860Y-114121000D01*
X137128140Y-114121000D01*
X137100072Y-114118236D01*
X137078991Y-114111840D01*
X137059555Y-114101452D01*
X137042524Y-114087476D01*
X137028548Y-114070445D01*
X137018160Y-114051009D01*
X137011764Y-114029928D01*
X137009000Y-114001860D01*
X137009000Y-113538140D01*
X137011764Y-113510072D01*
X137018160Y-113488991D01*
X137028548Y-113469555D01*
X137042524Y-113452524D01*
X137059555Y-113438548D01*
X137078991Y-113428160D01*
X137100072Y-113421764D01*
X137128140Y-113419000D01*
X138941860Y-113419000D01*
X138969928Y-113421764D01*
G37*
G36*
X108619928Y-113421764D02*
G01*
X108641009Y-113428160D01*
X108660445Y-113438548D01*
X108677476Y-113452524D01*
X108691452Y-113469555D01*
X108701840Y-113488991D01*
X108708236Y-113510072D01*
X108711000Y-113538140D01*
X108711000Y-114001860D01*
X108708236Y-114029928D01*
X108701840Y-114051009D01*
X108691452Y-114070445D01*
X108677476Y-114087476D01*
X108660445Y-114101452D01*
X108641009Y-114111840D01*
X108619928Y-114118236D01*
X108591860Y-114121000D01*
X106778140Y-114121000D01*
X106750072Y-114118236D01*
X106728991Y-114111840D01*
X106709555Y-114101452D01*
X106692524Y-114087476D01*
X106678548Y-114070445D01*
X106668160Y-114051009D01*
X106661764Y-114029928D01*
X106659000Y-114001860D01*
X106659000Y-113538140D01*
X106661764Y-113510072D01*
X106668160Y-113488991D01*
X106678548Y-113469555D01*
X106692524Y-113452524D01*
X106709555Y-113438548D01*
X106728991Y-113428160D01*
X106750072Y-113421764D01*
X106778140Y-113419000D01*
X108591860Y-113419000D01*
X108619928Y-113421764D01*
G37*
G36*
X126751000Y-114001000D02*
G01*
X125849000Y-114001000D01*
X125849000Y-112649000D01*
X126751000Y-112649000D01*
X126751000Y-114001000D01*
G37*
G36*
X124951000Y-114001000D02*
G01*
X124049000Y-114001000D01*
X124049000Y-112649000D01*
X124951000Y-112649000D01*
X124951000Y-114001000D01*
G37*
G36*
X121671000Y-114001000D02*
G01*
X120769000Y-114001000D01*
X120769000Y-112649000D01*
X121671000Y-112649000D01*
X121671000Y-114001000D01*
G37*
G36*
X119871000Y-114001000D02*
G01*
X118969000Y-114001000D01*
X118969000Y-112649000D01*
X119871000Y-112649000D01*
X119871000Y-114001000D01*
G37*
G36*
X146099591Y-112803085D02*
G01*
X146133569Y-112813393D01*
X146164890Y-112830134D01*
X146192339Y-112852661D01*
X146214866Y-112880110D01*
X146231607Y-112911431D01*
X146241915Y-112945409D01*
X146246000Y-112986890D01*
X146246000Y-113588110D01*
X146241915Y-113629591D01*
X146231607Y-113663569D01*
X146214866Y-113694890D01*
X146192339Y-113722339D01*
X146164890Y-113744866D01*
X146133569Y-113761607D01*
X146099591Y-113771915D01*
X146058110Y-113776000D01*
X145381890Y-113776000D01*
X145340409Y-113771915D01*
X145306431Y-113761607D01*
X145275110Y-113744866D01*
X145247661Y-113722339D01*
X145225134Y-113694890D01*
X145208393Y-113663569D01*
X145198085Y-113629591D01*
X145194000Y-113588110D01*
X145194000Y-112986890D01*
X145198085Y-112945409D01*
X145208393Y-112911431D01*
X145225134Y-112880110D01*
X145247661Y-112852661D01*
X145275110Y-112830134D01*
X145306431Y-112813393D01*
X145340409Y-112803085D01*
X145381890Y-112799000D01*
X146058110Y-112799000D01*
X146099591Y-112803085D01*
G37*
G36*
X100379591Y-112803085D02*
G01*
X100413569Y-112813393D01*
X100444890Y-112830134D01*
X100472339Y-112852661D01*
X100494866Y-112880110D01*
X100511607Y-112911431D01*
X100521915Y-112945409D01*
X100526000Y-112986890D01*
X100526000Y-113588110D01*
X100521915Y-113629591D01*
X100511607Y-113663569D01*
X100494866Y-113694890D01*
X100472339Y-113722339D01*
X100444890Y-113744866D01*
X100413569Y-113761607D01*
X100379591Y-113771915D01*
X100338110Y-113776000D01*
X99661890Y-113776000D01*
X99620409Y-113771915D01*
X99586431Y-113761607D01*
X99555110Y-113744866D01*
X99527661Y-113722339D01*
X99505134Y-113694890D01*
X99488393Y-113663569D01*
X99478085Y-113629591D01*
X99474000Y-113588110D01*
X99474000Y-112986890D01*
X99478085Y-112945409D01*
X99488393Y-112911431D01*
X99505134Y-112880110D01*
X99527661Y-112852661D01*
X99555110Y-112830134D01*
X99586431Y-112813393D01*
X99620409Y-112803085D01*
X99661890Y-112799000D01*
X100338110Y-112799000D01*
X100379591Y-112803085D01*
G37*
G36*
X113569928Y-112151764D02*
G01*
X113591009Y-112158160D01*
X113610445Y-112168548D01*
X113627476Y-112182524D01*
X113641452Y-112199555D01*
X113651840Y-112218991D01*
X113658236Y-112240072D01*
X113661000Y-112268140D01*
X113661000Y-112731860D01*
X113658236Y-112759928D01*
X113651840Y-112781009D01*
X113641452Y-112800445D01*
X113627476Y-112817476D01*
X113610445Y-112831452D01*
X113591009Y-112841840D01*
X113569928Y-112848236D01*
X113541860Y-112851000D01*
X111728140Y-112851000D01*
X111700072Y-112848236D01*
X111678991Y-112841840D01*
X111659555Y-112831452D01*
X111642524Y-112817476D01*
X111628548Y-112800445D01*
X111618160Y-112781009D01*
X111611764Y-112759928D01*
X111609000Y-112731860D01*
X111609000Y-112268140D01*
X111611764Y-112240072D01*
X111618160Y-112218991D01*
X111628548Y-112199555D01*
X111642524Y-112182524D01*
X111659555Y-112168548D01*
X111678991Y-112158160D01*
X111700072Y-112151764D01*
X111728140Y-112149000D01*
X113541860Y-112149000D01*
X113569928Y-112151764D01*
G37*
G36*
X134019928Y-112151764D02*
G01*
X134041009Y-112158160D01*
X134060445Y-112168548D01*
X134077476Y-112182524D01*
X134091452Y-112199555D01*
X134101840Y-112218991D01*
X134108236Y-112240072D01*
X134111000Y-112268140D01*
X134111000Y-112731860D01*
X134108236Y-112759928D01*
X134101840Y-112781009D01*
X134091452Y-112800445D01*
X134077476Y-112817476D01*
X134060445Y-112831452D01*
X134041009Y-112841840D01*
X134019928Y-112848236D01*
X133991860Y-112851000D01*
X132178140Y-112851000D01*
X132150072Y-112848236D01*
X132128991Y-112841840D01*
X132109555Y-112831452D01*
X132092524Y-112817476D01*
X132078548Y-112800445D01*
X132068160Y-112781009D01*
X132061764Y-112759928D01*
X132059000Y-112731860D01*
X132059000Y-112268140D01*
X132061764Y-112240072D01*
X132068160Y-112218991D01*
X132078548Y-112199555D01*
X132092524Y-112182524D01*
X132109555Y-112168548D01*
X132128991Y-112158160D01*
X132150072Y-112151764D01*
X132178140Y-112149000D01*
X133991860Y-112149000D01*
X134019928Y-112151764D01*
G37*
G36*
X108619928Y-112151764D02*
G01*
X108641009Y-112158160D01*
X108660445Y-112168548D01*
X108677476Y-112182524D01*
X108691452Y-112199555D01*
X108701840Y-112218991D01*
X108708236Y-112240072D01*
X108711000Y-112268140D01*
X108711000Y-112731860D01*
X108708236Y-112759928D01*
X108701840Y-112781009D01*
X108691452Y-112800445D01*
X108677476Y-112817476D01*
X108660445Y-112831452D01*
X108641009Y-112841840D01*
X108619928Y-112848236D01*
X108591860Y-112851000D01*
X106778140Y-112851000D01*
X106750072Y-112848236D01*
X106728991Y-112841840D01*
X106709555Y-112831452D01*
X106692524Y-112817476D01*
X106678548Y-112800445D01*
X106668160Y-112781009D01*
X106661764Y-112759928D01*
X106659000Y-112731860D01*
X106659000Y-112268140D01*
X106661764Y-112240072D01*
X106668160Y-112218991D01*
X106678548Y-112199555D01*
X106692524Y-112182524D01*
X106709555Y-112168548D01*
X106728991Y-112158160D01*
X106750072Y-112151764D01*
X106778140Y-112149000D01*
X108591860Y-112149000D01*
X108619928Y-112151764D01*
G37*
G36*
X138969928Y-112151764D02*
G01*
X138991009Y-112158160D01*
X139010445Y-112168548D01*
X139027476Y-112182524D01*
X139041452Y-112199555D01*
X139051840Y-112218991D01*
X139058236Y-112240072D01*
X139061000Y-112268140D01*
X139061000Y-112731860D01*
X139058236Y-112759928D01*
X139051840Y-112781009D01*
X139041452Y-112800445D01*
X139027476Y-112817476D01*
X139010445Y-112831452D01*
X138991009Y-112841840D01*
X138969928Y-112848236D01*
X138941860Y-112851000D01*
X137128140Y-112851000D01*
X137100072Y-112848236D01*
X137078991Y-112841840D01*
X137059555Y-112831452D01*
X137042524Y-112817476D01*
X137028548Y-112800445D01*
X137018160Y-112781009D01*
X137011764Y-112759928D01*
X137009000Y-112731860D01*
X137009000Y-112268140D01*
X137011764Y-112240072D01*
X137018160Y-112218991D01*
X137028548Y-112199555D01*
X137042524Y-112182524D01*
X137059555Y-112168548D01*
X137078991Y-112158160D01*
X137100072Y-112151764D01*
X137128140Y-112149000D01*
X138941860Y-112149000D01*
X138969928Y-112151764D01*
G37*
G36*
X126751000Y-112351000D02*
G01*
X125849000Y-112351000D01*
X125849000Y-110999000D01*
X126751000Y-110999000D01*
X126751000Y-112351000D01*
G37*
G36*
X124951000Y-112351000D02*
G01*
X124049000Y-112351000D01*
X124049000Y-110999000D01*
X124951000Y-110999000D01*
X124951000Y-112351000D01*
G37*
G36*
X121671000Y-112351000D02*
G01*
X120769000Y-112351000D01*
X120769000Y-110999000D01*
X121671000Y-110999000D01*
X121671000Y-112351000D01*
G37*
G36*
X119871000Y-112351000D02*
G01*
X118969000Y-112351000D01*
X118969000Y-110999000D01*
X119871000Y-110999000D01*
X119871000Y-112351000D01*
G37*
G36*
X100379591Y-111228085D02*
G01*
X100413569Y-111238393D01*
X100444890Y-111255134D01*
X100472339Y-111277661D01*
X100494866Y-111305110D01*
X100511607Y-111336431D01*
X100521915Y-111370409D01*
X100526000Y-111411890D01*
X100526000Y-112013110D01*
X100521915Y-112054591D01*
X100511607Y-112088569D01*
X100494866Y-112119890D01*
X100472339Y-112147339D01*
X100444890Y-112169866D01*
X100413569Y-112186607D01*
X100379591Y-112196915D01*
X100338110Y-112201000D01*
X99661890Y-112201000D01*
X99620409Y-112196915D01*
X99586431Y-112186607D01*
X99555110Y-112169866D01*
X99527661Y-112147339D01*
X99505134Y-112119890D01*
X99488393Y-112088569D01*
X99478085Y-112054591D01*
X99474000Y-112013110D01*
X99474000Y-111411890D01*
X99478085Y-111370409D01*
X99488393Y-111336431D01*
X99505134Y-111305110D01*
X99527661Y-111277661D01*
X99555110Y-111255134D01*
X99586431Y-111238393D01*
X99620409Y-111228085D01*
X99661890Y-111224000D01*
X100338110Y-111224000D01*
X100379591Y-111228085D01*
G37*
G36*
X146099591Y-111228085D02*
G01*
X146133569Y-111238393D01*
X146164890Y-111255134D01*
X146192339Y-111277661D01*
X146214866Y-111305110D01*
X146231607Y-111336431D01*
X146241915Y-111370409D01*
X146246000Y-111411890D01*
X146246000Y-112013110D01*
X146241915Y-112054591D01*
X146231607Y-112088569D01*
X146214866Y-112119890D01*
X146192339Y-112147339D01*
X146164890Y-112169866D01*
X146133569Y-112186607D01*
X146099591Y-112196915D01*
X146058110Y-112201000D01*
X145381890Y-112201000D01*
X145340409Y-112196915D01*
X145306431Y-112186607D01*
X145275110Y-112169866D01*
X145247661Y-112147339D01*
X145225134Y-112119890D01*
X145208393Y-112088569D01*
X145198085Y-112054591D01*
X145194000Y-112013110D01*
X145194000Y-111411890D01*
X145198085Y-111370409D01*
X145208393Y-111336431D01*
X145225134Y-111305110D01*
X145247661Y-111277661D01*
X145275110Y-111255134D01*
X145306431Y-111238393D01*
X145340409Y-111228085D01*
X145381890Y-111224000D01*
X146058110Y-111224000D01*
X146099591Y-111228085D01*
G37*
G36*
X138969928Y-110881764D02*
G01*
X138991009Y-110888160D01*
X139010445Y-110898548D01*
X139027476Y-110912524D01*
X139041452Y-110929555D01*
X139051840Y-110948991D01*
X139058236Y-110970072D01*
X139061000Y-110998140D01*
X139061000Y-111461860D01*
X139058236Y-111489928D01*
X139051840Y-111511009D01*
X139041452Y-111530445D01*
X139027476Y-111547476D01*
X139010445Y-111561452D01*
X138991009Y-111571840D01*
X138969928Y-111578236D01*
X138941860Y-111581000D01*
X137128140Y-111581000D01*
X137100072Y-111578236D01*
X137078991Y-111571840D01*
X137059555Y-111561452D01*
X137042524Y-111547476D01*
X137028548Y-111530445D01*
X137018160Y-111511009D01*
X137011764Y-111489928D01*
X137009000Y-111461860D01*
X137009000Y-110998140D01*
X137011764Y-110970072D01*
X137018160Y-110948991D01*
X137028548Y-110929555D01*
X137042524Y-110912524D01*
X137059555Y-110898548D01*
X137078991Y-110888160D01*
X137100072Y-110881764D01*
X137128140Y-110879000D01*
X138941860Y-110879000D01*
X138969928Y-110881764D01*
G37*
G36*
X108619928Y-110881764D02*
G01*
X108641009Y-110888160D01*
X108660445Y-110898548D01*
X108677476Y-110912524D01*
X108691452Y-110929555D01*
X108701840Y-110948991D01*
X108708236Y-110970072D01*
X108711000Y-110998140D01*
X108711000Y-111461860D01*
X108708236Y-111489928D01*
X108701840Y-111511009D01*
X108691452Y-111530445D01*
X108677476Y-111547476D01*
X108660445Y-111561452D01*
X108641009Y-111571840D01*
X108619928Y-111578236D01*
X108591860Y-111581000D01*
X106778140Y-111581000D01*
X106750072Y-111578236D01*
X106728991Y-111571840D01*
X106709555Y-111561452D01*
X106692524Y-111547476D01*
X106678548Y-111530445D01*
X106668160Y-111511009D01*
X106661764Y-111489928D01*
X106659000Y-111461860D01*
X106659000Y-110998140D01*
X106661764Y-110970072D01*
X106668160Y-110948991D01*
X106678548Y-110929555D01*
X106692524Y-110912524D01*
X106709555Y-110898548D01*
X106728991Y-110888160D01*
X106750072Y-110881764D01*
X106778140Y-110879000D01*
X108591860Y-110879000D01*
X108619928Y-110881764D01*
G37*
G36*
X134019928Y-110881764D02*
G01*
X134041009Y-110888160D01*
X134060445Y-110898548D01*
X134077476Y-110912524D01*
X134091452Y-110929555D01*
X134101840Y-110948991D01*
X134108236Y-110970072D01*
X134111000Y-110998140D01*
X134111000Y-111461860D01*
X134108236Y-111489928D01*
X134101840Y-111511009D01*
X134091452Y-111530445D01*
X134077476Y-111547476D01*
X134060445Y-111561452D01*
X134041009Y-111571840D01*
X134019928Y-111578236D01*
X133991860Y-111581000D01*
X132178140Y-111581000D01*
X132150072Y-111578236D01*
X132128991Y-111571840D01*
X132109555Y-111561452D01*
X132092524Y-111547476D01*
X132078548Y-111530445D01*
X132068160Y-111511009D01*
X132061764Y-111489928D01*
X132059000Y-111461860D01*
X132059000Y-110998140D01*
X132061764Y-110970072D01*
X132068160Y-110948991D01*
X132078548Y-110929555D01*
X132092524Y-110912524D01*
X132109555Y-110898548D01*
X132128991Y-110888160D01*
X132150072Y-110881764D01*
X132178140Y-110879000D01*
X133991860Y-110879000D01*
X134019928Y-110881764D01*
G37*
G36*
X113569928Y-110881764D02*
G01*
X113591009Y-110888160D01*
X113610445Y-110898548D01*
X113627476Y-110912524D01*
X113641452Y-110929555D01*
X113651840Y-110948991D01*
X113658236Y-110970072D01*
X113661000Y-110998140D01*
X113661000Y-111461860D01*
X113658236Y-111489928D01*
X113651840Y-111511009D01*
X113641452Y-111530445D01*
X113627476Y-111547476D01*
X113610445Y-111561452D01*
X113591009Y-111571840D01*
X113569928Y-111578236D01*
X113541860Y-111581000D01*
X111728140Y-111581000D01*
X111700072Y-111578236D01*
X111678991Y-111571840D01*
X111659555Y-111561452D01*
X111642524Y-111547476D01*
X111628548Y-111530445D01*
X111618160Y-111511009D01*
X111611764Y-111489928D01*
X111609000Y-111461860D01*
X111609000Y-110998140D01*
X111611764Y-110970072D01*
X111618160Y-110948991D01*
X111628548Y-110929555D01*
X111642524Y-110912524D01*
X111659555Y-110898548D01*
X111678991Y-110888160D01*
X111700072Y-110881764D01*
X111728140Y-110879000D01*
X113541860Y-110879000D01*
X113569928Y-110881764D01*
G37*
G36*
X138969928Y-109611764D02*
G01*
X138991009Y-109618160D01*
X139010445Y-109628548D01*
X139027476Y-109642524D01*
X139041452Y-109659555D01*
X139051840Y-109678991D01*
X139058236Y-109700072D01*
X139061000Y-109728140D01*
X139061000Y-110191860D01*
X139058236Y-110219928D01*
X139051840Y-110241009D01*
X139041452Y-110260445D01*
X139027476Y-110277476D01*
X139010445Y-110291452D01*
X138991009Y-110301840D01*
X138969928Y-110308236D01*
X138941860Y-110311000D01*
X137128140Y-110311000D01*
X137100072Y-110308236D01*
X137078991Y-110301840D01*
X137059555Y-110291452D01*
X137042524Y-110277476D01*
X137028548Y-110260445D01*
X137018160Y-110241009D01*
X137011764Y-110219928D01*
X137009000Y-110191860D01*
X137009000Y-109728140D01*
X137011764Y-109700072D01*
X137018160Y-109678991D01*
X137028548Y-109659555D01*
X137042524Y-109642524D01*
X137059555Y-109628548D01*
X137078991Y-109618160D01*
X137100072Y-109611764D01*
X137128140Y-109609000D01*
X138941860Y-109609000D01*
X138969928Y-109611764D01*
G37*
G36*
X134019928Y-109611764D02*
G01*
X134041009Y-109618160D01*
X134060445Y-109628548D01*
X134077476Y-109642524D01*
X134091452Y-109659555D01*
X134101840Y-109678991D01*
X134108236Y-109700072D01*
X134111000Y-109728140D01*
X134111000Y-110191860D01*
X134108236Y-110219928D01*
X134101840Y-110241009D01*
X134091452Y-110260445D01*
X134077476Y-110277476D01*
X134060445Y-110291452D01*
X134041009Y-110301840D01*
X134019928Y-110308236D01*
X133991860Y-110311000D01*
X132178140Y-110311000D01*
X132150072Y-110308236D01*
X132128991Y-110301840D01*
X132109555Y-110291452D01*
X132092524Y-110277476D01*
X132078548Y-110260445D01*
X132068160Y-110241009D01*
X132061764Y-110219928D01*
X132059000Y-110191860D01*
X132059000Y-109728140D01*
X132061764Y-109700072D01*
X132068160Y-109678991D01*
X132078548Y-109659555D01*
X132092524Y-109642524D01*
X132109555Y-109628548D01*
X132128991Y-109618160D01*
X132150072Y-109611764D01*
X132178140Y-109609000D01*
X133991860Y-109609000D01*
X134019928Y-109611764D01*
G37*
G36*
X113569928Y-109611764D02*
G01*
X113591009Y-109618160D01*
X113610445Y-109628548D01*
X113627476Y-109642524D01*
X113641452Y-109659555D01*
X113651840Y-109678991D01*
X113658236Y-109700072D01*
X113661000Y-109728140D01*
X113661000Y-110191860D01*
X113658236Y-110219928D01*
X113651840Y-110241009D01*
X113641452Y-110260445D01*
X113627476Y-110277476D01*
X113610445Y-110291452D01*
X113591009Y-110301840D01*
X113569928Y-110308236D01*
X113541860Y-110311000D01*
X111728140Y-110311000D01*
X111700072Y-110308236D01*
X111678991Y-110301840D01*
X111659555Y-110291452D01*
X111642524Y-110277476D01*
X111628548Y-110260445D01*
X111618160Y-110241009D01*
X111611764Y-110219928D01*
X111609000Y-110191860D01*
X111609000Y-109728140D01*
X111611764Y-109700072D01*
X111618160Y-109678991D01*
X111628548Y-109659555D01*
X111642524Y-109642524D01*
X111659555Y-109628548D01*
X111678991Y-109618160D01*
X111700072Y-109611764D01*
X111728140Y-109609000D01*
X113541860Y-109609000D01*
X113569928Y-109611764D01*
G37*
G36*
X108619928Y-109611764D02*
G01*
X108641009Y-109618160D01*
X108660445Y-109628548D01*
X108677476Y-109642524D01*
X108691452Y-109659555D01*
X108701840Y-109678991D01*
X108708236Y-109700072D01*
X108711000Y-109728140D01*
X108711000Y-110191860D01*
X108708236Y-110219928D01*
X108701840Y-110241009D01*
X108691452Y-110260445D01*
X108677476Y-110277476D01*
X108660445Y-110291452D01*
X108641009Y-110301840D01*
X108619928Y-110308236D01*
X108591860Y-110311000D01*
X106778140Y-110311000D01*
X106750072Y-110308236D01*
X106728991Y-110301840D01*
X106709555Y-110291452D01*
X106692524Y-110277476D01*
X106678548Y-110260445D01*
X106668160Y-110241009D01*
X106661764Y-110219928D01*
X106659000Y-110191860D01*
X106659000Y-109728140D01*
X106661764Y-109700072D01*
X106668160Y-109678991D01*
X106678548Y-109659555D01*
X106692524Y-109642524D01*
X106709555Y-109628548D01*
X106728991Y-109618160D01*
X106750072Y-109611764D01*
X106778140Y-109609000D01*
X108591860Y-109609000D01*
X108619928Y-109611764D01*
G37*
G36*
X108619928Y-108341764D02*
G01*
X108641009Y-108348160D01*
X108660445Y-108358548D01*
X108677476Y-108372524D01*
X108691452Y-108389555D01*
X108701840Y-108408991D01*
X108708236Y-108430072D01*
X108711000Y-108458140D01*
X108711000Y-108921860D01*
X108708236Y-108949928D01*
X108701840Y-108971009D01*
X108691452Y-108990445D01*
X108677476Y-109007476D01*
X108660445Y-109021452D01*
X108641009Y-109031840D01*
X108619928Y-109038236D01*
X108591860Y-109041000D01*
X106778140Y-109041000D01*
X106750072Y-109038236D01*
X106728991Y-109031840D01*
X106709555Y-109021452D01*
X106692524Y-109007476D01*
X106678548Y-108990445D01*
X106668160Y-108971009D01*
X106661764Y-108949928D01*
X106659000Y-108921860D01*
X106659000Y-108458140D01*
X106661764Y-108430072D01*
X106668160Y-108408991D01*
X106678548Y-108389555D01*
X106692524Y-108372524D01*
X106709555Y-108358548D01*
X106728991Y-108348160D01*
X106750072Y-108341764D01*
X106778140Y-108339000D01*
X108591860Y-108339000D01*
X108619928Y-108341764D01*
G37*
G36*
X138969928Y-108341764D02*
G01*
X138991009Y-108348160D01*
X139010445Y-108358548D01*
X139027476Y-108372524D01*
X139041452Y-108389555D01*
X139051840Y-108408991D01*
X139058236Y-108430072D01*
X139061000Y-108458140D01*
X139061000Y-108921860D01*
X139058236Y-108949928D01*
X139051840Y-108971009D01*
X139041452Y-108990445D01*
X139027476Y-109007476D01*
X139010445Y-109021452D01*
X138991009Y-109031840D01*
X138969928Y-109038236D01*
X138941860Y-109041000D01*
X137128140Y-109041000D01*
X137100072Y-109038236D01*
X137078991Y-109031840D01*
X137059555Y-109021452D01*
X137042524Y-109007476D01*
X137028548Y-108990445D01*
X137018160Y-108971009D01*
X137011764Y-108949928D01*
X137009000Y-108921860D01*
X137009000Y-108458140D01*
X137011764Y-108430072D01*
X137018160Y-108408991D01*
X137028548Y-108389555D01*
X137042524Y-108372524D01*
X137059555Y-108358548D01*
X137078991Y-108348160D01*
X137100072Y-108341764D01*
X137128140Y-108339000D01*
X138941860Y-108339000D01*
X138969928Y-108341764D01*
G37*
G36*
X134019928Y-108341764D02*
G01*
X134041009Y-108348160D01*
X134060445Y-108358548D01*
X134077476Y-108372524D01*
X134091452Y-108389555D01*
X134101840Y-108408991D01*
X134108236Y-108430072D01*
X134111000Y-108458140D01*
X134111000Y-108921860D01*
X134108236Y-108949928D01*
X134101840Y-108971009D01*
X134091452Y-108990445D01*
X134077476Y-109007476D01*
X134060445Y-109021452D01*
X134041009Y-109031840D01*
X134019928Y-109038236D01*
X133991860Y-109041000D01*
X132178140Y-109041000D01*
X132150072Y-109038236D01*
X132128991Y-109031840D01*
X132109555Y-109021452D01*
X132092524Y-109007476D01*
X132078548Y-108990445D01*
X132068160Y-108971009D01*
X132061764Y-108949928D01*
X132059000Y-108921860D01*
X132059000Y-108458140D01*
X132061764Y-108430072D01*
X132068160Y-108408991D01*
X132078548Y-108389555D01*
X132092524Y-108372524D01*
X132109555Y-108358548D01*
X132128991Y-108348160D01*
X132150072Y-108341764D01*
X132178140Y-108339000D01*
X133991860Y-108339000D01*
X134019928Y-108341764D01*
G37*
G36*
X113569928Y-108341764D02*
G01*
X113591009Y-108348160D01*
X113610445Y-108358548D01*
X113627476Y-108372524D01*
X113641452Y-108389555D01*
X113651840Y-108408991D01*
X113658236Y-108430072D01*
X113661000Y-108458140D01*
X113661000Y-108921860D01*
X113658236Y-108949928D01*
X113651840Y-108971009D01*
X113641452Y-108990445D01*
X113627476Y-109007476D01*
X113610445Y-109021452D01*
X113591009Y-109031840D01*
X113569928Y-109038236D01*
X113541860Y-109041000D01*
X111728140Y-109041000D01*
X111700072Y-109038236D01*
X111678991Y-109031840D01*
X111659555Y-109021452D01*
X111642524Y-109007476D01*
X111628548Y-108990445D01*
X111618160Y-108971009D01*
X111611764Y-108949928D01*
X111609000Y-108921860D01*
X111609000Y-108458140D01*
X111611764Y-108430072D01*
X111618160Y-108408991D01*
X111628548Y-108389555D01*
X111642524Y-108372524D01*
X111659555Y-108358548D01*
X111678991Y-108348160D01*
X111700072Y-108341764D01*
X111728140Y-108339000D01*
X113541860Y-108339000D01*
X113569928Y-108341764D01*
G37*
G36*
X92375256Y-98391298D02*
G01*
X92481579Y-98412447D01*
X92782042Y-98536903D01*
X93052451Y-98717585D01*
X93282415Y-98947549D01*
X93282416Y-98947551D01*
X93463098Y-99217960D01*
X93587553Y-99518422D01*
X93651000Y-99837389D01*
X93651000Y-100162611D01*
X93619464Y-100321150D01*
X93587553Y-100481579D01*
X93463097Y-100782042D01*
X93282415Y-101052451D01*
X93052451Y-101282415D01*
X92782042Y-101463097D01*
X92481579Y-101587553D01*
X92375256Y-101608702D01*
X92162611Y-101651000D01*
X91837389Y-101651000D01*
X91624744Y-101608702D01*
X91518421Y-101587553D01*
X91217958Y-101463097D01*
X90947549Y-101282415D01*
X90717585Y-101052451D01*
X90536903Y-100782042D01*
X90412447Y-100481579D01*
X90380536Y-100321150D01*
X90349000Y-100162611D01*
X90349000Y-99837389D01*
X90412447Y-99518422D01*
X90536902Y-99217960D01*
X90717584Y-98947551D01*
X90717585Y-98947549D01*
X90947549Y-98717585D01*
X91217958Y-98536903D01*
X91518421Y-98412447D01*
X91624744Y-98391298D01*
X91837389Y-98349000D01*
X92162611Y-98349000D01*
X92375256Y-98391298D01*
G37*
G36*
X154095256Y-98391298D02*
G01*
X154201579Y-98412447D01*
X154502042Y-98536903D01*
X154772451Y-98717585D01*
X155002415Y-98947549D01*
X155002416Y-98947551D01*
X155183098Y-99217960D01*
X155307553Y-99518422D01*
X155371000Y-99837389D01*
X155371000Y-100162611D01*
X155339464Y-100321150D01*
X155307553Y-100481579D01*
X155183097Y-100782042D01*
X155002415Y-101052451D01*
X154772451Y-101282415D01*
X154502042Y-101463097D01*
X154201579Y-101587553D01*
X154095256Y-101608702D01*
X153882611Y-101651000D01*
X153557389Y-101651000D01*
X153344744Y-101608702D01*
X153238421Y-101587553D01*
X152937958Y-101463097D01*
X152667549Y-101282415D01*
X152437585Y-101052451D01*
X152256903Y-100782042D01*
X152132447Y-100481579D01*
X152100536Y-100321150D01*
X152069000Y-100162611D01*
X152069000Y-99837389D01*
X152132447Y-99518422D01*
X152256902Y-99217960D01*
X152437584Y-98947551D01*
X152437585Y-98947549D01*
X152667549Y-98717585D01*
X152937958Y-98536903D01*
X153238421Y-98412447D01*
X153344744Y-98391298D01*
X153557389Y-98349000D01*
X153882611Y-98349000D01*
X154095256Y-98391298D01*
G37*
G36*
X140854795Y-98920156D02*
G01*
X140961150Y-98941311D01*
X141161520Y-99024307D01*
X141341844Y-99144795D01*
X141495205Y-99298156D01*
X141615693Y-99478480D01*
X141698689Y-99678851D01*
X141741000Y-99891560D01*
X141741000Y-100108440D01*
X141698689Y-100321149D01*
X141615693Y-100521520D01*
X141495205Y-100701844D01*
X141341844Y-100855205D01*
X141161520Y-100975693D01*
X141061334Y-101017191D01*
X140961150Y-101058689D01*
X140854794Y-101079845D01*
X140748440Y-101101000D01*
X140531560Y-101101000D01*
X140425206Y-101079845D01*
X140318850Y-101058689D01*
X140218666Y-101017191D01*
X140118480Y-100975693D01*
X139938156Y-100855205D01*
X139784795Y-100701844D01*
X139664307Y-100521520D01*
X139581311Y-100321149D01*
X139539000Y-100108440D01*
X139539000Y-99891560D01*
X139581311Y-99678851D01*
X139664307Y-99478480D01*
X139784795Y-99298156D01*
X139938156Y-99144795D01*
X140118480Y-99024307D01*
X140318850Y-98941311D01*
X140425205Y-98920156D01*
X140531560Y-98899000D01*
X140748440Y-98899000D01*
X140854795Y-98920156D01*
G37*
G36*
X135774795Y-98920156D02*
G01*
X135881150Y-98941311D01*
X136081520Y-99024307D01*
X136261844Y-99144795D01*
X136415205Y-99298156D01*
X136535693Y-99478480D01*
X136618689Y-99678851D01*
X136661000Y-99891560D01*
X136661000Y-100108440D01*
X136618689Y-100321149D01*
X136535693Y-100521520D01*
X136415205Y-100701844D01*
X136261844Y-100855205D01*
X136081520Y-100975693D01*
X135981334Y-101017191D01*
X135881150Y-101058689D01*
X135774794Y-101079845D01*
X135668440Y-101101000D01*
X135451560Y-101101000D01*
X135345206Y-101079845D01*
X135238850Y-101058689D01*
X135138666Y-101017191D01*
X135038480Y-100975693D01*
X134858156Y-100855205D01*
X134704795Y-100701844D01*
X134584307Y-100521520D01*
X134501311Y-100321149D01*
X134459000Y-100108440D01*
X134459000Y-99891560D01*
X134501311Y-99678851D01*
X134584307Y-99478480D01*
X134704795Y-99298156D01*
X134858156Y-99144795D01*
X135038480Y-99024307D01*
X135238850Y-98941311D01*
X135345205Y-98920156D01*
X135451560Y-98899000D01*
X135668440Y-98899000D01*
X135774795Y-98920156D01*
G37*
G36*
X130694795Y-98920156D02*
G01*
X130801150Y-98941311D01*
X131001520Y-99024307D01*
X131181844Y-99144795D01*
X131335205Y-99298156D01*
X131455693Y-99478480D01*
X131538689Y-99678851D01*
X131581000Y-99891560D01*
X131581000Y-100108440D01*
X131538689Y-100321149D01*
X131455693Y-100521520D01*
X131335205Y-100701844D01*
X131181844Y-100855205D01*
X131001520Y-100975693D01*
X130901334Y-101017191D01*
X130801150Y-101058689D01*
X130694794Y-101079845D01*
X130588440Y-101101000D01*
X130371560Y-101101000D01*
X130265206Y-101079845D01*
X130158850Y-101058689D01*
X130058666Y-101017191D01*
X129958480Y-100975693D01*
X129778156Y-100855205D01*
X129624795Y-100701844D01*
X129504307Y-100521520D01*
X129421311Y-100321149D01*
X129379000Y-100108440D01*
X129379000Y-99891560D01*
X129421311Y-99678851D01*
X129504307Y-99478480D01*
X129624795Y-99298156D01*
X129778156Y-99144795D01*
X129958480Y-99024307D01*
X130158850Y-98941311D01*
X130265205Y-98920156D01*
X130371560Y-98899000D01*
X130588440Y-98899000D01*
X130694795Y-98920156D01*
G37*
G36*
X125614795Y-98920156D02*
G01*
X125721150Y-98941311D01*
X125921520Y-99024307D01*
X126101844Y-99144795D01*
X126255205Y-99298156D01*
X126375693Y-99478480D01*
X126458689Y-99678851D01*
X126501000Y-99891560D01*
X126501000Y-100108440D01*
X126458689Y-100321149D01*
X126375693Y-100521520D01*
X126255205Y-100701844D01*
X126101844Y-100855205D01*
X125921520Y-100975693D01*
X125821334Y-101017191D01*
X125721150Y-101058689D01*
X125614794Y-101079845D01*
X125508440Y-101101000D01*
X125291560Y-101101000D01*
X125185206Y-101079845D01*
X125078850Y-101058689D01*
X124978666Y-101017191D01*
X124878480Y-100975693D01*
X124698156Y-100855205D01*
X124544795Y-100701844D01*
X124424307Y-100521520D01*
X124341311Y-100321149D01*
X124299000Y-100108440D01*
X124299000Y-99891560D01*
X124341311Y-99678851D01*
X124424307Y-99478480D01*
X124544795Y-99298156D01*
X124698156Y-99144795D01*
X124878480Y-99024307D01*
X125078850Y-98941311D01*
X125185205Y-98920156D01*
X125291560Y-98899000D01*
X125508440Y-98899000D01*
X125614795Y-98920156D01*
G37*
G36*
X120534795Y-98920156D02*
G01*
X120641150Y-98941311D01*
X120841520Y-99024307D01*
X121021844Y-99144795D01*
X121175205Y-99298156D01*
X121295693Y-99478480D01*
X121378689Y-99678851D01*
X121421000Y-99891560D01*
X121421000Y-100108440D01*
X121378689Y-100321149D01*
X121295693Y-100521520D01*
X121175205Y-100701844D01*
X121021844Y-100855205D01*
X120841520Y-100975693D01*
X120741334Y-101017191D01*
X120641150Y-101058689D01*
X120534794Y-101079845D01*
X120428440Y-101101000D01*
X120211560Y-101101000D01*
X120105206Y-101079845D01*
X119998850Y-101058689D01*
X119898666Y-101017191D01*
X119798480Y-100975693D01*
X119618156Y-100855205D01*
X119464795Y-100701844D01*
X119344307Y-100521520D01*
X119261311Y-100321149D01*
X119219000Y-100108440D01*
X119219000Y-99891560D01*
X119261311Y-99678851D01*
X119344307Y-99478480D01*
X119464795Y-99298156D01*
X119618156Y-99144795D01*
X119798480Y-99024307D01*
X119998850Y-98941311D01*
X120105205Y-98920156D01*
X120211560Y-98899000D01*
X120428440Y-98899000D01*
X120534795Y-98920156D01*
G37*
G36*
X115454795Y-98920156D02*
G01*
X115561150Y-98941311D01*
X115761520Y-99024307D01*
X115941844Y-99144795D01*
X116095205Y-99298156D01*
X116215693Y-99478480D01*
X116298689Y-99678851D01*
X116341000Y-99891560D01*
X116341000Y-100108440D01*
X116298689Y-100321149D01*
X116215693Y-100521520D01*
X116095205Y-100701844D01*
X115941844Y-100855205D01*
X115761520Y-100975693D01*
X115661334Y-101017191D01*
X115561150Y-101058689D01*
X115454794Y-101079845D01*
X115348440Y-101101000D01*
X115131560Y-101101000D01*
X115025206Y-101079845D01*
X114918850Y-101058689D01*
X114818666Y-101017191D01*
X114718480Y-100975693D01*
X114538156Y-100855205D01*
X114384795Y-100701844D01*
X114264307Y-100521520D01*
X114181311Y-100321149D01*
X114139000Y-100108440D01*
X114139000Y-99891560D01*
X114181311Y-99678851D01*
X114264307Y-99478480D01*
X114384795Y-99298156D01*
X114538156Y-99144795D01*
X114718480Y-99024307D01*
X114918850Y-98941311D01*
X115025205Y-98920156D01*
X115131560Y-98899000D01*
X115348440Y-98899000D01*
X115454795Y-98920156D01*
G37*
G36*
X110374795Y-98920156D02*
G01*
X110481150Y-98941311D01*
X110681520Y-99024307D01*
X110861844Y-99144795D01*
X111015205Y-99298156D01*
X111135693Y-99478480D01*
X111218689Y-99678851D01*
X111261000Y-99891560D01*
X111261000Y-100108440D01*
X111218689Y-100321149D01*
X111135693Y-100521520D01*
X111015205Y-100701844D01*
X110861844Y-100855205D01*
X110681520Y-100975693D01*
X110581334Y-101017191D01*
X110481150Y-101058689D01*
X110374794Y-101079845D01*
X110268440Y-101101000D01*
X110051560Y-101101000D01*
X109945206Y-101079845D01*
X109838850Y-101058689D01*
X109738666Y-101017191D01*
X109638480Y-100975693D01*
X109458156Y-100855205D01*
X109304795Y-100701844D01*
X109184307Y-100521520D01*
X109101311Y-100321149D01*
X109059000Y-100108440D01*
X109059000Y-99891560D01*
X109101311Y-99678851D01*
X109184307Y-99478480D01*
X109304795Y-99298156D01*
X109458156Y-99144795D01*
X109638480Y-99024307D01*
X109838850Y-98941311D01*
X109945205Y-98920156D01*
X110051560Y-98899000D01*
X110268440Y-98899000D01*
X110374795Y-98920156D01*
G37*
G36*
X105294795Y-98920156D02*
G01*
X105401150Y-98941311D01*
X105601520Y-99024307D01*
X105781844Y-99144795D01*
X105935205Y-99298156D01*
X106055693Y-99478480D01*
X106138689Y-99678851D01*
X106181000Y-99891560D01*
X106181000Y-100108440D01*
X106138689Y-100321149D01*
X106055693Y-100521520D01*
X105935205Y-100701844D01*
X105781844Y-100855205D01*
X105601520Y-100975693D01*
X105501334Y-101017191D01*
X105401150Y-101058689D01*
X105294794Y-101079845D01*
X105188440Y-101101000D01*
X104971560Y-101101000D01*
X104865206Y-101079845D01*
X104758850Y-101058689D01*
X104658666Y-101017191D01*
X104558480Y-100975693D01*
X104378156Y-100855205D01*
X104224795Y-100701844D01*
X104104307Y-100521520D01*
X104021311Y-100321149D01*
X103979000Y-100108440D01*
X103979000Y-99891560D01*
X104021311Y-99678851D01*
X104104307Y-99478480D01*
X104224795Y-99298156D01*
X104378156Y-99144795D01*
X104558480Y-99024307D01*
X104758850Y-98941311D01*
X104865205Y-98920156D01*
X104971560Y-98899000D01*
X105188440Y-98899000D01*
X105294795Y-98920156D01*
G37*
G36*
X101101000Y-101101000D02*
G01*
X98899000Y-101101000D01*
X98899000Y-98899000D01*
X101101000Y-98899000D01*
X101101000Y-101101000D01*
G37*
G36*
X145934795Y-98920156D02*
G01*
X146041150Y-98941311D01*
X146241520Y-99024307D01*
X146421844Y-99144795D01*
X146575205Y-99298156D01*
X146695693Y-99478480D01*
X146778689Y-99678851D01*
X146821000Y-99891560D01*
X146821000Y-100108440D01*
X146778689Y-100321149D01*
X146695693Y-100521520D01*
X146575205Y-100701844D01*
X146421844Y-100855205D01*
X146241520Y-100975693D01*
X146141334Y-101017191D01*
X146041150Y-101058689D01*
X145934794Y-101079845D01*
X145828440Y-101101000D01*
X145611560Y-101101000D01*
X145505206Y-101079845D01*
X145398850Y-101058689D01*
X145298666Y-101017191D01*
X145198480Y-100975693D01*
X145018156Y-100855205D01*
X144864795Y-100701844D01*
X144744307Y-100521520D01*
X144661311Y-100321149D01*
X144619000Y-100108440D01*
X144619000Y-99891560D01*
X144661311Y-99678851D01*
X144744307Y-99478480D01*
X144864795Y-99298156D01*
X145018156Y-99144795D01*
X145198480Y-99024307D01*
X145398850Y-98941311D01*
X145505205Y-98920156D01*
X145611560Y-98899000D01*
X145828440Y-98899000D01*
X145934795Y-98920156D01*
G37*
M02*
