G04 #@! TF.GenerationSoftware,KiCad,Pcbnew,(5.1.5)-3*
G04 #@! TF.CreationDate,2020-08-30T12:24:17-07:00*
G04 #@! TF.ProjectId,comparator,636f6d70-6172-4617-946f-722e6b696361,rev?*
G04 #@! TF.SameCoordinates,Original*
G04 #@! TF.FileFunction,Soldermask,Bot*
G04 #@! TF.FilePolarity,Negative*
%FSLAX46Y46*%
G04 Gerber Fmt 4.6, Leading zero omitted, Abs format (unit mm)*
G04 Created by KiCad (PCBNEW (5.1.5)-3) date 2020-08-30 12:24:17*
%MOMM*%
%LPD*%
G04 APERTURE LIST*
%ADD10C,0.100000*%
G04 APERTURE END LIST*
D10*
G36*
X154095256Y-123391298D02*
G01*
X154201579Y-123412447D01*
X154502042Y-123536903D01*
X154772451Y-123717585D01*
X155002415Y-123947549D01*
X155002416Y-123947551D01*
X155183098Y-124217960D01*
X155307553Y-124518422D01*
X155371000Y-124837389D01*
X155371000Y-125162611D01*
X155339464Y-125321150D01*
X155307553Y-125481579D01*
X155183097Y-125782042D01*
X155002415Y-126052451D01*
X154772451Y-126282415D01*
X154502042Y-126463097D01*
X154201579Y-126587553D01*
X154095256Y-126608702D01*
X153882611Y-126651000D01*
X153557389Y-126651000D01*
X153344744Y-126608702D01*
X153238421Y-126587553D01*
X152937958Y-126463097D01*
X152667549Y-126282415D01*
X152437585Y-126052451D01*
X152256903Y-125782042D01*
X152132447Y-125481579D01*
X152100536Y-125321150D01*
X152069000Y-125162611D01*
X152069000Y-124837389D01*
X152132447Y-124518422D01*
X152256902Y-124217960D01*
X152437584Y-123947551D01*
X152437585Y-123947549D01*
X152667549Y-123717585D01*
X152937958Y-123536903D01*
X153238421Y-123412447D01*
X153344744Y-123391298D01*
X153557389Y-123349000D01*
X153882611Y-123349000D01*
X154095256Y-123391298D01*
G37*
G36*
X92375256Y-123391298D02*
G01*
X92481579Y-123412447D01*
X92782042Y-123536903D01*
X93052451Y-123717585D01*
X93282415Y-123947549D01*
X93282416Y-123947551D01*
X93463098Y-124217960D01*
X93587553Y-124518422D01*
X93651000Y-124837389D01*
X93651000Y-125162611D01*
X93619464Y-125321150D01*
X93587553Y-125481579D01*
X93463097Y-125782042D01*
X93282415Y-126052451D01*
X93052451Y-126282415D01*
X92782042Y-126463097D01*
X92481579Y-126587553D01*
X92375256Y-126608702D01*
X92162611Y-126651000D01*
X91837389Y-126651000D01*
X91624744Y-126608702D01*
X91518421Y-126587553D01*
X91217958Y-126463097D01*
X90947549Y-126282415D01*
X90717585Y-126052451D01*
X90536903Y-125782042D01*
X90412447Y-125481579D01*
X90380536Y-125321150D01*
X90349000Y-125162611D01*
X90349000Y-124837389D01*
X90412447Y-124518422D01*
X90536902Y-124217960D01*
X90717584Y-123947551D01*
X90717585Y-123947549D01*
X90947549Y-123717585D01*
X91217958Y-123536903D01*
X91518421Y-123412447D01*
X91624744Y-123391298D01*
X91837389Y-123349000D01*
X92162611Y-123349000D01*
X92375256Y-123391298D01*
G37*
G36*
X101101000Y-126101000D02*
G01*
X98899000Y-126101000D01*
X98899000Y-123899000D01*
X101101000Y-123899000D01*
X101101000Y-126101000D01*
G37*
G36*
X140854794Y-123920155D02*
G01*
X140961150Y-123941311D01*
X141061334Y-123982809D01*
X141161520Y-124024307D01*
X141341844Y-124144795D01*
X141495205Y-124298156D01*
X141615693Y-124478480D01*
X141698689Y-124678851D01*
X141741000Y-124891560D01*
X141741000Y-125108440D01*
X141698689Y-125321149D01*
X141615693Y-125521520D01*
X141495205Y-125701844D01*
X141341844Y-125855205D01*
X141161520Y-125975693D01*
X140961150Y-126058689D01*
X140854795Y-126079844D01*
X140748440Y-126101000D01*
X140531560Y-126101000D01*
X140425205Y-126079844D01*
X140318850Y-126058689D01*
X140118480Y-125975693D01*
X139938156Y-125855205D01*
X139784795Y-125701844D01*
X139664307Y-125521520D01*
X139581311Y-125321149D01*
X139539000Y-125108440D01*
X139539000Y-124891560D01*
X139581311Y-124678851D01*
X139664307Y-124478480D01*
X139784795Y-124298156D01*
X139938156Y-124144795D01*
X140118480Y-124024307D01*
X140218666Y-123982809D01*
X140318850Y-123941311D01*
X140425206Y-123920155D01*
X140531560Y-123899000D01*
X140748440Y-123899000D01*
X140854794Y-123920155D01*
G37*
G36*
X105294794Y-123920155D02*
G01*
X105401150Y-123941311D01*
X105501334Y-123982809D01*
X105601520Y-124024307D01*
X105781844Y-124144795D01*
X105935205Y-124298156D01*
X106055693Y-124478480D01*
X106138689Y-124678851D01*
X106181000Y-124891560D01*
X106181000Y-125108440D01*
X106138689Y-125321149D01*
X106055693Y-125521520D01*
X105935205Y-125701844D01*
X105781844Y-125855205D01*
X105601520Y-125975693D01*
X105401150Y-126058689D01*
X105294795Y-126079844D01*
X105188440Y-126101000D01*
X104971560Y-126101000D01*
X104865205Y-126079844D01*
X104758850Y-126058689D01*
X104558480Y-125975693D01*
X104378156Y-125855205D01*
X104224795Y-125701844D01*
X104104307Y-125521520D01*
X104021311Y-125321149D01*
X103979000Y-125108440D01*
X103979000Y-124891560D01*
X104021311Y-124678851D01*
X104104307Y-124478480D01*
X104224795Y-124298156D01*
X104378156Y-124144795D01*
X104558480Y-124024307D01*
X104658666Y-123982809D01*
X104758850Y-123941311D01*
X104865206Y-123920155D01*
X104971560Y-123899000D01*
X105188440Y-123899000D01*
X105294794Y-123920155D01*
G37*
G36*
X110374794Y-123920155D02*
G01*
X110481150Y-123941311D01*
X110581334Y-123982809D01*
X110681520Y-124024307D01*
X110861844Y-124144795D01*
X111015205Y-124298156D01*
X111135693Y-124478480D01*
X111218689Y-124678851D01*
X111261000Y-124891560D01*
X111261000Y-125108440D01*
X111218689Y-125321149D01*
X111135693Y-125521520D01*
X111015205Y-125701844D01*
X110861844Y-125855205D01*
X110681520Y-125975693D01*
X110481150Y-126058689D01*
X110374795Y-126079844D01*
X110268440Y-126101000D01*
X110051560Y-126101000D01*
X109945205Y-126079844D01*
X109838850Y-126058689D01*
X109638480Y-125975693D01*
X109458156Y-125855205D01*
X109304795Y-125701844D01*
X109184307Y-125521520D01*
X109101311Y-125321149D01*
X109059000Y-125108440D01*
X109059000Y-124891560D01*
X109101311Y-124678851D01*
X109184307Y-124478480D01*
X109304795Y-124298156D01*
X109458156Y-124144795D01*
X109638480Y-124024307D01*
X109738666Y-123982809D01*
X109838850Y-123941311D01*
X109945206Y-123920155D01*
X110051560Y-123899000D01*
X110268440Y-123899000D01*
X110374794Y-123920155D01*
G37*
G36*
X115454794Y-123920155D02*
G01*
X115561150Y-123941311D01*
X115661334Y-123982809D01*
X115761520Y-124024307D01*
X115941844Y-124144795D01*
X116095205Y-124298156D01*
X116215693Y-124478480D01*
X116298689Y-124678851D01*
X116341000Y-124891560D01*
X116341000Y-125108440D01*
X116298689Y-125321149D01*
X116215693Y-125521520D01*
X116095205Y-125701844D01*
X115941844Y-125855205D01*
X115761520Y-125975693D01*
X115561150Y-126058689D01*
X115454795Y-126079844D01*
X115348440Y-126101000D01*
X115131560Y-126101000D01*
X115025205Y-126079844D01*
X114918850Y-126058689D01*
X114718480Y-125975693D01*
X114538156Y-125855205D01*
X114384795Y-125701844D01*
X114264307Y-125521520D01*
X114181311Y-125321149D01*
X114139000Y-125108440D01*
X114139000Y-124891560D01*
X114181311Y-124678851D01*
X114264307Y-124478480D01*
X114384795Y-124298156D01*
X114538156Y-124144795D01*
X114718480Y-124024307D01*
X114818666Y-123982809D01*
X114918850Y-123941311D01*
X115025206Y-123920155D01*
X115131560Y-123899000D01*
X115348440Y-123899000D01*
X115454794Y-123920155D01*
G37*
G36*
X120534794Y-123920155D02*
G01*
X120641150Y-123941311D01*
X120741334Y-123982809D01*
X120841520Y-124024307D01*
X121021844Y-124144795D01*
X121175205Y-124298156D01*
X121295693Y-124478480D01*
X121378689Y-124678851D01*
X121421000Y-124891560D01*
X121421000Y-125108440D01*
X121378689Y-125321149D01*
X121295693Y-125521520D01*
X121175205Y-125701844D01*
X121021844Y-125855205D01*
X120841520Y-125975693D01*
X120641150Y-126058689D01*
X120534795Y-126079844D01*
X120428440Y-126101000D01*
X120211560Y-126101000D01*
X120105205Y-126079844D01*
X119998850Y-126058689D01*
X119798480Y-125975693D01*
X119618156Y-125855205D01*
X119464795Y-125701844D01*
X119344307Y-125521520D01*
X119261311Y-125321149D01*
X119219000Y-125108440D01*
X119219000Y-124891560D01*
X119261311Y-124678851D01*
X119344307Y-124478480D01*
X119464795Y-124298156D01*
X119618156Y-124144795D01*
X119798480Y-124024307D01*
X119898666Y-123982809D01*
X119998850Y-123941311D01*
X120105206Y-123920155D01*
X120211560Y-123899000D01*
X120428440Y-123899000D01*
X120534794Y-123920155D01*
G37*
G36*
X125614794Y-123920155D02*
G01*
X125721150Y-123941311D01*
X125821334Y-123982809D01*
X125921520Y-124024307D01*
X126101844Y-124144795D01*
X126255205Y-124298156D01*
X126375693Y-124478480D01*
X126458689Y-124678851D01*
X126501000Y-124891560D01*
X126501000Y-125108440D01*
X126458689Y-125321149D01*
X126375693Y-125521520D01*
X126255205Y-125701844D01*
X126101844Y-125855205D01*
X125921520Y-125975693D01*
X125721150Y-126058689D01*
X125614795Y-126079844D01*
X125508440Y-126101000D01*
X125291560Y-126101000D01*
X125185205Y-126079844D01*
X125078850Y-126058689D01*
X124878480Y-125975693D01*
X124698156Y-125855205D01*
X124544795Y-125701844D01*
X124424307Y-125521520D01*
X124341311Y-125321149D01*
X124299000Y-125108440D01*
X124299000Y-124891560D01*
X124341311Y-124678851D01*
X124424307Y-124478480D01*
X124544795Y-124298156D01*
X124698156Y-124144795D01*
X124878480Y-124024307D01*
X124978666Y-123982809D01*
X125078850Y-123941311D01*
X125185206Y-123920155D01*
X125291560Y-123899000D01*
X125508440Y-123899000D01*
X125614794Y-123920155D01*
G37*
G36*
X130694794Y-123920155D02*
G01*
X130801150Y-123941311D01*
X130901334Y-123982809D01*
X131001520Y-124024307D01*
X131181844Y-124144795D01*
X131335205Y-124298156D01*
X131455693Y-124478480D01*
X131538689Y-124678851D01*
X131581000Y-124891560D01*
X131581000Y-125108440D01*
X131538689Y-125321149D01*
X131455693Y-125521520D01*
X131335205Y-125701844D01*
X131181844Y-125855205D01*
X131001520Y-125975693D01*
X130801150Y-126058689D01*
X130694795Y-126079844D01*
X130588440Y-126101000D01*
X130371560Y-126101000D01*
X130265205Y-126079844D01*
X130158850Y-126058689D01*
X129958480Y-125975693D01*
X129778156Y-125855205D01*
X129624795Y-125701844D01*
X129504307Y-125521520D01*
X129421311Y-125321149D01*
X129379000Y-125108440D01*
X129379000Y-124891560D01*
X129421311Y-124678851D01*
X129504307Y-124478480D01*
X129624795Y-124298156D01*
X129778156Y-124144795D01*
X129958480Y-124024307D01*
X130058666Y-123982809D01*
X130158850Y-123941311D01*
X130265206Y-123920155D01*
X130371560Y-123899000D01*
X130588440Y-123899000D01*
X130694794Y-123920155D01*
G37*
G36*
X135774794Y-123920155D02*
G01*
X135881150Y-123941311D01*
X135981334Y-123982809D01*
X136081520Y-124024307D01*
X136261844Y-124144795D01*
X136415205Y-124298156D01*
X136535693Y-124478480D01*
X136618689Y-124678851D01*
X136661000Y-124891560D01*
X136661000Y-125108440D01*
X136618689Y-125321149D01*
X136535693Y-125521520D01*
X136415205Y-125701844D01*
X136261844Y-125855205D01*
X136081520Y-125975693D01*
X135881150Y-126058689D01*
X135774795Y-126079844D01*
X135668440Y-126101000D01*
X135451560Y-126101000D01*
X135345205Y-126079844D01*
X135238850Y-126058689D01*
X135038480Y-125975693D01*
X134858156Y-125855205D01*
X134704795Y-125701844D01*
X134584307Y-125521520D01*
X134501311Y-125321149D01*
X134459000Y-125108440D01*
X134459000Y-124891560D01*
X134501311Y-124678851D01*
X134584307Y-124478480D01*
X134704795Y-124298156D01*
X134858156Y-124144795D01*
X135038480Y-124024307D01*
X135138666Y-123982809D01*
X135238850Y-123941311D01*
X135345206Y-123920155D01*
X135451560Y-123899000D01*
X135668440Y-123899000D01*
X135774794Y-123920155D01*
G37*
G36*
X145934794Y-123920155D02*
G01*
X146041150Y-123941311D01*
X146141334Y-123982809D01*
X146241520Y-124024307D01*
X146421844Y-124144795D01*
X146575205Y-124298156D01*
X146695693Y-124478480D01*
X146778689Y-124678851D01*
X146821000Y-124891560D01*
X146821000Y-125108440D01*
X146778689Y-125321149D01*
X146695693Y-125521520D01*
X146575205Y-125701844D01*
X146421844Y-125855205D01*
X146241520Y-125975693D01*
X146041150Y-126058689D01*
X145934795Y-126079844D01*
X145828440Y-126101000D01*
X145611560Y-126101000D01*
X145505205Y-126079844D01*
X145398850Y-126058689D01*
X145198480Y-125975693D01*
X145018156Y-125855205D01*
X144864795Y-125701844D01*
X144744307Y-125521520D01*
X144661311Y-125321149D01*
X144619000Y-125108440D01*
X144619000Y-124891560D01*
X144661311Y-124678851D01*
X144744307Y-124478480D01*
X144864795Y-124298156D01*
X145018156Y-124144795D01*
X145198480Y-124024307D01*
X145298666Y-123982809D01*
X145398850Y-123941311D01*
X145505206Y-123920155D01*
X145611560Y-123899000D01*
X145828440Y-123899000D01*
X145934794Y-123920155D01*
G37*
G36*
X154095256Y-98391298D02*
G01*
X154201579Y-98412447D01*
X154502042Y-98536903D01*
X154772451Y-98717585D01*
X155002415Y-98947549D01*
X155002416Y-98947551D01*
X155183098Y-99217960D01*
X155307553Y-99518422D01*
X155371000Y-99837389D01*
X155371000Y-100162611D01*
X155339464Y-100321150D01*
X155307553Y-100481579D01*
X155183097Y-100782042D01*
X155002415Y-101052451D01*
X154772451Y-101282415D01*
X154502042Y-101463097D01*
X154201579Y-101587553D01*
X154095256Y-101608702D01*
X153882611Y-101651000D01*
X153557389Y-101651000D01*
X153344744Y-101608702D01*
X153238421Y-101587553D01*
X152937958Y-101463097D01*
X152667549Y-101282415D01*
X152437585Y-101052451D01*
X152256903Y-100782042D01*
X152132447Y-100481579D01*
X152100536Y-100321150D01*
X152069000Y-100162611D01*
X152069000Y-99837389D01*
X152132447Y-99518422D01*
X152256902Y-99217960D01*
X152437584Y-98947551D01*
X152437585Y-98947549D01*
X152667549Y-98717585D01*
X152937958Y-98536903D01*
X153238421Y-98412447D01*
X153344744Y-98391298D01*
X153557389Y-98349000D01*
X153882611Y-98349000D01*
X154095256Y-98391298D01*
G37*
G36*
X92375256Y-98391298D02*
G01*
X92481579Y-98412447D01*
X92782042Y-98536903D01*
X93052451Y-98717585D01*
X93282415Y-98947549D01*
X93282416Y-98947551D01*
X93463098Y-99217960D01*
X93587553Y-99518422D01*
X93651000Y-99837389D01*
X93651000Y-100162611D01*
X93619464Y-100321150D01*
X93587553Y-100481579D01*
X93463097Y-100782042D01*
X93282415Y-101052451D01*
X93052451Y-101282415D01*
X92782042Y-101463097D01*
X92481579Y-101587553D01*
X92375256Y-101608702D01*
X92162611Y-101651000D01*
X91837389Y-101651000D01*
X91624744Y-101608702D01*
X91518421Y-101587553D01*
X91217958Y-101463097D01*
X90947549Y-101282415D01*
X90717585Y-101052451D01*
X90536903Y-100782042D01*
X90412447Y-100481579D01*
X90380536Y-100321150D01*
X90349000Y-100162611D01*
X90349000Y-99837389D01*
X90412447Y-99518422D01*
X90536902Y-99217960D01*
X90717584Y-98947551D01*
X90717585Y-98947549D01*
X90947549Y-98717585D01*
X91217958Y-98536903D01*
X91518421Y-98412447D01*
X91624744Y-98391298D01*
X91837389Y-98349000D01*
X92162611Y-98349000D01*
X92375256Y-98391298D01*
G37*
G36*
X120534795Y-98920156D02*
G01*
X120641150Y-98941311D01*
X120841520Y-99024307D01*
X121021844Y-99144795D01*
X121175205Y-99298156D01*
X121295693Y-99478480D01*
X121378689Y-99678851D01*
X121421000Y-99891560D01*
X121421000Y-100108440D01*
X121378689Y-100321149D01*
X121295693Y-100521520D01*
X121175205Y-100701844D01*
X121021844Y-100855205D01*
X120841520Y-100975693D01*
X120741334Y-101017191D01*
X120641150Y-101058689D01*
X120534794Y-101079845D01*
X120428440Y-101101000D01*
X120211560Y-101101000D01*
X120105206Y-101079845D01*
X119998850Y-101058689D01*
X119898666Y-101017191D01*
X119798480Y-100975693D01*
X119618156Y-100855205D01*
X119464795Y-100701844D01*
X119344307Y-100521520D01*
X119261311Y-100321149D01*
X119219000Y-100108440D01*
X119219000Y-99891560D01*
X119261311Y-99678851D01*
X119344307Y-99478480D01*
X119464795Y-99298156D01*
X119618156Y-99144795D01*
X119798480Y-99024307D01*
X119998850Y-98941311D01*
X120105205Y-98920156D01*
X120211560Y-98899000D01*
X120428440Y-98899000D01*
X120534795Y-98920156D01*
G37*
G36*
X145934795Y-98920156D02*
G01*
X146041150Y-98941311D01*
X146241520Y-99024307D01*
X146421844Y-99144795D01*
X146575205Y-99298156D01*
X146695693Y-99478480D01*
X146778689Y-99678851D01*
X146821000Y-99891560D01*
X146821000Y-100108440D01*
X146778689Y-100321149D01*
X146695693Y-100521520D01*
X146575205Y-100701844D01*
X146421844Y-100855205D01*
X146241520Y-100975693D01*
X146141334Y-101017191D01*
X146041150Y-101058689D01*
X145934794Y-101079845D01*
X145828440Y-101101000D01*
X145611560Y-101101000D01*
X145505206Y-101079845D01*
X145398850Y-101058689D01*
X145298666Y-101017191D01*
X145198480Y-100975693D01*
X145018156Y-100855205D01*
X144864795Y-100701844D01*
X144744307Y-100521520D01*
X144661311Y-100321149D01*
X144619000Y-100108440D01*
X144619000Y-99891560D01*
X144661311Y-99678851D01*
X144744307Y-99478480D01*
X144864795Y-99298156D01*
X145018156Y-99144795D01*
X145198480Y-99024307D01*
X145398850Y-98941311D01*
X145505205Y-98920156D01*
X145611560Y-98899000D01*
X145828440Y-98899000D01*
X145934795Y-98920156D01*
G37*
G36*
X140854795Y-98920156D02*
G01*
X140961150Y-98941311D01*
X141161520Y-99024307D01*
X141341844Y-99144795D01*
X141495205Y-99298156D01*
X141615693Y-99478480D01*
X141698689Y-99678851D01*
X141741000Y-99891560D01*
X141741000Y-100108440D01*
X141698689Y-100321149D01*
X141615693Y-100521520D01*
X141495205Y-100701844D01*
X141341844Y-100855205D01*
X141161520Y-100975693D01*
X141061334Y-101017191D01*
X140961150Y-101058689D01*
X140854794Y-101079845D01*
X140748440Y-101101000D01*
X140531560Y-101101000D01*
X140425206Y-101079845D01*
X140318850Y-101058689D01*
X140218666Y-101017191D01*
X140118480Y-100975693D01*
X139938156Y-100855205D01*
X139784795Y-100701844D01*
X139664307Y-100521520D01*
X139581311Y-100321149D01*
X139539000Y-100108440D01*
X139539000Y-99891560D01*
X139581311Y-99678851D01*
X139664307Y-99478480D01*
X139784795Y-99298156D01*
X139938156Y-99144795D01*
X140118480Y-99024307D01*
X140318850Y-98941311D01*
X140425205Y-98920156D01*
X140531560Y-98899000D01*
X140748440Y-98899000D01*
X140854795Y-98920156D01*
G37*
G36*
X135774795Y-98920156D02*
G01*
X135881150Y-98941311D01*
X136081520Y-99024307D01*
X136261844Y-99144795D01*
X136415205Y-99298156D01*
X136535693Y-99478480D01*
X136618689Y-99678851D01*
X136661000Y-99891560D01*
X136661000Y-100108440D01*
X136618689Y-100321149D01*
X136535693Y-100521520D01*
X136415205Y-100701844D01*
X136261844Y-100855205D01*
X136081520Y-100975693D01*
X135981334Y-101017191D01*
X135881150Y-101058689D01*
X135774794Y-101079845D01*
X135668440Y-101101000D01*
X135451560Y-101101000D01*
X135345206Y-101079845D01*
X135238850Y-101058689D01*
X135138666Y-101017191D01*
X135038480Y-100975693D01*
X134858156Y-100855205D01*
X134704795Y-100701844D01*
X134584307Y-100521520D01*
X134501311Y-100321149D01*
X134459000Y-100108440D01*
X134459000Y-99891560D01*
X134501311Y-99678851D01*
X134584307Y-99478480D01*
X134704795Y-99298156D01*
X134858156Y-99144795D01*
X135038480Y-99024307D01*
X135238850Y-98941311D01*
X135345205Y-98920156D01*
X135451560Y-98899000D01*
X135668440Y-98899000D01*
X135774795Y-98920156D01*
G37*
G36*
X130694795Y-98920156D02*
G01*
X130801150Y-98941311D01*
X131001520Y-99024307D01*
X131181844Y-99144795D01*
X131335205Y-99298156D01*
X131455693Y-99478480D01*
X131538689Y-99678851D01*
X131581000Y-99891560D01*
X131581000Y-100108440D01*
X131538689Y-100321149D01*
X131455693Y-100521520D01*
X131335205Y-100701844D01*
X131181844Y-100855205D01*
X131001520Y-100975693D01*
X130901334Y-101017191D01*
X130801150Y-101058689D01*
X130694794Y-101079845D01*
X130588440Y-101101000D01*
X130371560Y-101101000D01*
X130265206Y-101079845D01*
X130158850Y-101058689D01*
X130058666Y-101017191D01*
X129958480Y-100975693D01*
X129778156Y-100855205D01*
X129624795Y-100701844D01*
X129504307Y-100521520D01*
X129421311Y-100321149D01*
X129379000Y-100108440D01*
X129379000Y-99891560D01*
X129421311Y-99678851D01*
X129504307Y-99478480D01*
X129624795Y-99298156D01*
X129778156Y-99144795D01*
X129958480Y-99024307D01*
X130158850Y-98941311D01*
X130265205Y-98920156D01*
X130371560Y-98899000D01*
X130588440Y-98899000D01*
X130694795Y-98920156D01*
G37*
G36*
X125614795Y-98920156D02*
G01*
X125721150Y-98941311D01*
X125921520Y-99024307D01*
X126101844Y-99144795D01*
X126255205Y-99298156D01*
X126375693Y-99478480D01*
X126458689Y-99678851D01*
X126501000Y-99891560D01*
X126501000Y-100108440D01*
X126458689Y-100321149D01*
X126375693Y-100521520D01*
X126255205Y-100701844D01*
X126101844Y-100855205D01*
X125921520Y-100975693D01*
X125821334Y-101017191D01*
X125721150Y-101058689D01*
X125614794Y-101079845D01*
X125508440Y-101101000D01*
X125291560Y-101101000D01*
X125185206Y-101079845D01*
X125078850Y-101058689D01*
X124978666Y-101017191D01*
X124878480Y-100975693D01*
X124698156Y-100855205D01*
X124544795Y-100701844D01*
X124424307Y-100521520D01*
X124341311Y-100321149D01*
X124299000Y-100108440D01*
X124299000Y-99891560D01*
X124341311Y-99678851D01*
X124424307Y-99478480D01*
X124544795Y-99298156D01*
X124698156Y-99144795D01*
X124878480Y-99024307D01*
X125078850Y-98941311D01*
X125185205Y-98920156D01*
X125291560Y-98899000D01*
X125508440Y-98899000D01*
X125614795Y-98920156D01*
G37*
G36*
X115454795Y-98920156D02*
G01*
X115561150Y-98941311D01*
X115761520Y-99024307D01*
X115941844Y-99144795D01*
X116095205Y-99298156D01*
X116215693Y-99478480D01*
X116298689Y-99678851D01*
X116341000Y-99891560D01*
X116341000Y-100108440D01*
X116298689Y-100321149D01*
X116215693Y-100521520D01*
X116095205Y-100701844D01*
X115941844Y-100855205D01*
X115761520Y-100975693D01*
X115661334Y-101017191D01*
X115561150Y-101058689D01*
X115454794Y-101079845D01*
X115348440Y-101101000D01*
X115131560Y-101101000D01*
X115025206Y-101079845D01*
X114918850Y-101058689D01*
X114818666Y-101017191D01*
X114718480Y-100975693D01*
X114538156Y-100855205D01*
X114384795Y-100701844D01*
X114264307Y-100521520D01*
X114181311Y-100321149D01*
X114139000Y-100108440D01*
X114139000Y-99891560D01*
X114181311Y-99678851D01*
X114264307Y-99478480D01*
X114384795Y-99298156D01*
X114538156Y-99144795D01*
X114718480Y-99024307D01*
X114918850Y-98941311D01*
X115025205Y-98920156D01*
X115131560Y-98899000D01*
X115348440Y-98899000D01*
X115454795Y-98920156D01*
G37*
G36*
X110374795Y-98920156D02*
G01*
X110481150Y-98941311D01*
X110681520Y-99024307D01*
X110861844Y-99144795D01*
X111015205Y-99298156D01*
X111135693Y-99478480D01*
X111218689Y-99678851D01*
X111261000Y-99891560D01*
X111261000Y-100108440D01*
X111218689Y-100321149D01*
X111135693Y-100521520D01*
X111015205Y-100701844D01*
X110861844Y-100855205D01*
X110681520Y-100975693D01*
X110581334Y-101017191D01*
X110481150Y-101058689D01*
X110374794Y-101079845D01*
X110268440Y-101101000D01*
X110051560Y-101101000D01*
X109945206Y-101079845D01*
X109838850Y-101058689D01*
X109738666Y-101017191D01*
X109638480Y-100975693D01*
X109458156Y-100855205D01*
X109304795Y-100701844D01*
X109184307Y-100521520D01*
X109101311Y-100321149D01*
X109059000Y-100108440D01*
X109059000Y-99891560D01*
X109101311Y-99678851D01*
X109184307Y-99478480D01*
X109304795Y-99298156D01*
X109458156Y-99144795D01*
X109638480Y-99024307D01*
X109838850Y-98941311D01*
X109945205Y-98920156D01*
X110051560Y-98899000D01*
X110268440Y-98899000D01*
X110374795Y-98920156D01*
G37*
G36*
X105294795Y-98920156D02*
G01*
X105401150Y-98941311D01*
X105601520Y-99024307D01*
X105781844Y-99144795D01*
X105935205Y-99298156D01*
X106055693Y-99478480D01*
X106138689Y-99678851D01*
X106181000Y-99891560D01*
X106181000Y-100108440D01*
X106138689Y-100321149D01*
X106055693Y-100521520D01*
X105935205Y-100701844D01*
X105781844Y-100855205D01*
X105601520Y-100975693D01*
X105501334Y-101017191D01*
X105401150Y-101058689D01*
X105294794Y-101079845D01*
X105188440Y-101101000D01*
X104971560Y-101101000D01*
X104865206Y-101079845D01*
X104758850Y-101058689D01*
X104658666Y-101017191D01*
X104558480Y-100975693D01*
X104378156Y-100855205D01*
X104224795Y-100701844D01*
X104104307Y-100521520D01*
X104021311Y-100321149D01*
X103979000Y-100108440D01*
X103979000Y-99891560D01*
X104021311Y-99678851D01*
X104104307Y-99478480D01*
X104224795Y-99298156D01*
X104378156Y-99144795D01*
X104558480Y-99024307D01*
X104758850Y-98941311D01*
X104865205Y-98920156D01*
X104971560Y-98899000D01*
X105188440Y-98899000D01*
X105294795Y-98920156D01*
G37*
G36*
X101101000Y-101101000D02*
G01*
X98899000Y-101101000D01*
X98899000Y-98899000D01*
X101101000Y-98899000D01*
X101101000Y-101101000D01*
G37*
M02*
