G04 #@! TF.GenerationSoftware,KiCad,Pcbnew,(5.1.5)-3*
G04 #@! TF.CreationDate,2020-07-03T21:40:14-07:00*
G04 #@! TF.ProjectId,Sparkfun_buttons,53706172-6b66-4756-9e5f-627574746f6e,rev?*
G04 #@! TF.SameCoordinates,Original*
G04 #@! TF.FileFunction,Legend,Top*
G04 #@! TF.FilePolarity,Positive*
%FSLAX46Y46*%
G04 Gerber Fmt 4.6, Leading zero omitted, Abs format (unit mm)*
G04 Created by KiCad (PCBNEW (5.1.5)-3) date 2020-07-03 21:40:14*
%MOMM*%
%LPD*%
G04 APERTURE LIST*
%ADD10C,0.300000*%
%ADD11C,0.120000*%
%ADD12C,0.150000*%
G04 APERTURE END LIST*
D10*
X174882142Y-66396428D02*
X174882142Y-64682142D01*
X177882142Y-65539285D02*
X174882142Y-65539285D01*
X177882142Y-63682142D02*
X174882142Y-63682142D01*
X176310714Y-63682142D02*
X176310714Y-61967857D01*
X177882142Y-61967857D02*
X174882142Y-61967857D01*
X177882142Y-60539285D02*
X174882142Y-60539285D01*
X177882142Y-58825000D02*
X176167857Y-60110714D01*
X174882142Y-58825000D02*
X176596428Y-60539285D01*
X176739285Y-57539285D02*
X176739285Y-55253571D01*
X174882142Y-53253571D02*
X174882142Y-52967857D01*
X175025000Y-52682142D01*
X175167857Y-52539285D01*
X175453571Y-52396428D01*
X176025000Y-52253571D01*
X176739285Y-52253571D01*
X177310714Y-52396428D01*
X177596428Y-52539285D01*
X177739285Y-52682142D01*
X177882142Y-52967857D01*
X177882142Y-53253571D01*
X177739285Y-53539285D01*
X177596428Y-53682142D01*
X177310714Y-53825000D01*
X176739285Y-53967857D01*
X176025000Y-53967857D01*
X175453571Y-53825000D01*
X175167857Y-53682142D01*
X175025000Y-53539285D01*
X174882142Y-53253571D01*
X174882142Y-50396428D02*
X174882142Y-50110714D01*
X175025000Y-49825000D01*
X175167857Y-49682142D01*
X175453571Y-49539285D01*
X176025000Y-49396428D01*
X176739285Y-49396428D01*
X177310714Y-49539285D01*
X177596428Y-49682142D01*
X177739285Y-49825000D01*
X177882142Y-50110714D01*
X177882142Y-50396428D01*
X177739285Y-50682142D01*
X177596428Y-50825000D01*
X177310714Y-50967857D01*
X176739285Y-51110714D01*
X176025000Y-51110714D01*
X175453571Y-50967857D01*
X175167857Y-50825000D01*
X175025000Y-50682142D01*
X174882142Y-50396428D01*
X174882142Y-47539285D02*
X174882142Y-47253571D01*
X175025000Y-46967857D01*
X175167857Y-46825000D01*
X175453571Y-46682142D01*
X176025000Y-46539285D01*
X176739285Y-46539285D01*
X177310714Y-46682142D01*
X177596428Y-46825000D01*
X177739285Y-46967857D01*
X177882142Y-47253571D01*
X177882142Y-47539285D01*
X177739285Y-47825000D01*
X177596428Y-47967857D01*
X177310714Y-48110714D01*
X176739285Y-48253571D01*
X176025000Y-48253571D01*
X175453571Y-48110714D01*
X175167857Y-47967857D01*
X175025000Y-47825000D01*
X174882142Y-47539285D01*
D11*
X79663601Y-31378201D02*
X179663601Y-31378201D01*
X179663601Y-31378201D02*
X179663601Y-81378201D01*
X179663601Y-81378201D02*
X79663601Y-81378201D01*
X79663601Y-81378201D02*
X79663601Y-31378201D01*
X106213601Y-68878201D02*
G75*
G03X106213601Y-68878201I-1550000J0D01*
G01*
X106213601Y-43878201D02*
G75*
G03X106213601Y-43878201I-1550000J0D01*
G01*
X118513601Y-56378201D02*
G75*
G03X118513601Y-56378201I-1550000J0D01*
G01*
X93913601Y-56378201D02*
G75*
G03X93913601Y-56378201I-1550000J0D01*
G01*
X143913601Y-56378201D02*
G75*
G03X143913601Y-56378201I-1550000J0D01*
G01*
X168513601Y-56378201D02*
G75*
G03X168513601Y-56378201I-1550000J0D01*
G01*
X156213601Y-43878201D02*
G75*
G03X156213601Y-43878201I-1550000J0D01*
G01*
X156213601Y-68878201D02*
G75*
G03X156213601Y-68878201I-1550000J0D01*
G01*
X114529600Y-46810100D02*
G75*
G03X114529600Y-46810100I-127000J0D01*
G01*
X89955100Y-47038700D02*
G75*
G03X89955100Y-47038700I-127000J0D01*
G01*
X94931500Y-65648400D02*
G75*
G03X94931500Y-65648400I-127000J0D01*
G01*
X119914400Y-65822000D02*
G75*
G03X119914400Y-65822000I-127000J0D01*
G01*
X139878800Y-46835500D02*
G75*
G03X139878800Y-46835500I-127000J0D01*
G01*
X144856200Y-65887600D02*
G75*
G03X144856200Y-65887600I-127000J0D01*
G01*
X164641800Y-46725400D02*
G75*
G03X164641800Y-46725400I-127000J0D01*
G01*
X169469800Y-65936300D02*
G75*
G03X169469800Y-65936300I-127000J0D01*
G01*
X83834012Y-87360752D02*
G75*
G02X83045300Y-87557400I-788712J1483352D01*
G01*
X84529253Y-85088312D02*
G75*
G02X84529300Y-86666400I-1483953J-789088D01*
G01*
X82256212Y-84393447D02*
G75*
G02X83834300Y-84393400I789088J-1483953D01*
G01*
X81561347Y-86666488D02*
G75*
G02X81561300Y-85088400I1483953J789088D01*
G01*
X83074683Y-87557850D02*
G75*
G02X82256300Y-87361400I-29383J1680450D01*
G01*
X83595300Y-82877400D02*
G75*
G03X83595300Y-82877400I-550000J0D01*
G01*
X89725300Y-85877400D02*
G75*
G03X89725300Y-85877400I-1680000J0D01*
G01*
X88595300Y-82877400D02*
G75*
G03X88595300Y-82877400I-550000J0D01*
G01*
X94725300Y-85877400D02*
G75*
G03X94725300Y-85877400I-1680000J0D01*
G01*
X93595300Y-82877400D02*
G75*
G03X93595300Y-82877400I-550000J0D01*
G01*
X99725300Y-85877400D02*
G75*
G03X99725300Y-85877400I-1680000J0D01*
G01*
X98595300Y-82877400D02*
G75*
G03X98595300Y-82877400I-550000J0D01*
G01*
X104725300Y-85877400D02*
G75*
G03X104725300Y-85877400I-1680000J0D01*
G01*
X103595300Y-82877400D02*
G75*
G03X103595300Y-82877400I-550000J0D01*
G01*
X109725300Y-85877400D02*
G75*
G03X109725300Y-85877400I-1680000J0D01*
G01*
X108595300Y-82877400D02*
G75*
G03X108595300Y-82877400I-550000J0D01*
G01*
X114725300Y-85877400D02*
G75*
G03X114725300Y-85877400I-1680000J0D01*
G01*
X113595300Y-82877400D02*
G75*
G03X113595300Y-82877400I-550000J0D01*
G01*
X119725300Y-85877400D02*
G75*
G03X119725300Y-85877400I-1680000J0D01*
G01*
X118595300Y-82877400D02*
G75*
G03X118595300Y-82877400I-550000J0D01*
G01*
X124725300Y-85877400D02*
G75*
G03X124725300Y-85877400I-1680000J0D01*
G01*
X123595300Y-82877400D02*
G75*
G03X123595300Y-82877400I-550000J0D01*
G01*
X129725300Y-85877400D02*
G75*
G03X129725300Y-85877400I-1680000J0D01*
G01*
X128595300Y-82877400D02*
G75*
G03X128595300Y-82877400I-550000J0D01*
G01*
X134725300Y-85877400D02*
G75*
G03X134725300Y-85877400I-1680000J0D01*
G01*
X133595300Y-82877400D02*
G75*
G03X133595300Y-82877400I-550000J0D01*
G01*
X139725300Y-85877400D02*
G75*
G03X139725300Y-85877400I-1680000J0D01*
G01*
X138595300Y-82877400D02*
G75*
G03X138595300Y-82877400I-550000J0D01*
G01*
X80485300Y-88777400D02*
X140605300Y-88777400D01*
X80485300Y-88177400D02*
X140605300Y-88177400D01*
X80485300Y-83477400D02*
X140605300Y-83477400D01*
X80485300Y-81717400D02*
X140605300Y-81717400D01*
X80485300Y-89438400D02*
X140605300Y-89438400D01*
X80485300Y-81717400D02*
X80485300Y-89438400D01*
X140605300Y-81717400D02*
X140605300Y-89438400D01*
X89320300Y-84808400D02*
X89226300Y-84901400D01*
X87035300Y-87093400D02*
X86976300Y-87151400D01*
X89115300Y-84602400D02*
X89056300Y-84661400D01*
X86865300Y-86853400D02*
X86771300Y-86946400D01*
X94320300Y-84808400D02*
X94226300Y-84901400D01*
X92035300Y-87093400D02*
X91976300Y-87151400D01*
X94115300Y-84602400D02*
X94056300Y-84661400D01*
X91865300Y-86853400D02*
X91771300Y-86946400D01*
X99320300Y-84808400D02*
X99226300Y-84901400D01*
X97035300Y-87093400D02*
X96976300Y-87151400D01*
X99115300Y-84602400D02*
X99056300Y-84661400D01*
X96865300Y-86853400D02*
X96771300Y-86946400D01*
X104320300Y-84808400D02*
X104226300Y-84901400D01*
X102035300Y-87093400D02*
X101976300Y-87151400D01*
X104115300Y-84602400D02*
X104056300Y-84661400D01*
X101865300Y-86853400D02*
X101771300Y-86946400D01*
X109320300Y-84808400D02*
X109226300Y-84901400D01*
X107035300Y-87093400D02*
X106976300Y-87151400D01*
X109115300Y-84602400D02*
X109056300Y-84661400D01*
X106865300Y-86853400D02*
X106771300Y-86946400D01*
X114320300Y-84808400D02*
X114226300Y-84901400D01*
X112035300Y-87093400D02*
X111976300Y-87151400D01*
X114115300Y-84602400D02*
X114056300Y-84661400D01*
X111865300Y-86853400D02*
X111771300Y-86946400D01*
X119320300Y-84808400D02*
X119226300Y-84901400D01*
X117035300Y-87093400D02*
X116976300Y-87151400D01*
X119115300Y-84602400D02*
X119056300Y-84661400D01*
X116865300Y-86853400D02*
X116771300Y-86946400D01*
X124320300Y-84808400D02*
X124226300Y-84901400D01*
X122035300Y-87093400D02*
X121976300Y-87151400D01*
X124115300Y-84602400D02*
X124056300Y-84661400D01*
X121865300Y-86853400D02*
X121771300Y-86946400D01*
X129320300Y-84808400D02*
X129226300Y-84901400D01*
X127035300Y-87093400D02*
X126976300Y-87151400D01*
X129115300Y-84602400D02*
X129056300Y-84661400D01*
X126865300Y-86853400D02*
X126771300Y-86946400D01*
X134320300Y-84808400D02*
X134226300Y-84901400D01*
X132035300Y-87093400D02*
X131976300Y-87151400D01*
X134115300Y-84602400D02*
X134056300Y-84661400D01*
X131865300Y-86853400D02*
X131771300Y-86946400D01*
X139320300Y-84808400D02*
X139226300Y-84901400D01*
X137035300Y-87093400D02*
X136976300Y-87151400D01*
X139115300Y-84602400D02*
X139056300Y-84661400D01*
X136865300Y-86853400D02*
X136771300Y-86946400D01*
X80245300Y-88837400D02*
X80245300Y-89677400D01*
X80245300Y-89677400D02*
X80845300Y-89677400D01*
D12*
X82273571Y-79354761D02*
X82321190Y-79211904D01*
X82368809Y-79164285D01*
X82464047Y-79116666D01*
X82606904Y-79116666D01*
X82702142Y-79164285D01*
X82749761Y-79211904D01*
X82797380Y-79307142D01*
X82797380Y-79688095D01*
X81797380Y-79688095D01*
X81797380Y-79354761D01*
X81845000Y-79259523D01*
X81892619Y-79211904D01*
X81987857Y-79164285D01*
X82083095Y-79164285D01*
X82178333Y-79211904D01*
X82225952Y-79259523D01*
X82273571Y-79354761D01*
X82273571Y-79688095D01*
X82797380Y-78164285D02*
X82797380Y-78735714D01*
X82797380Y-78450000D02*
X81797380Y-78450000D01*
X81940238Y-78545238D01*
X82035476Y-78640476D01*
X82083095Y-78735714D01*
X87353571Y-79354761D02*
X87401190Y-79211904D01*
X87448809Y-79164285D01*
X87544047Y-79116666D01*
X87686904Y-79116666D01*
X87782142Y-79164285D01*
X87829761Y-79211904D01*
X87877380Y-79307142D01*
X87877380Y-79688095D01*
X86877380Y-79688095D01*
X86877380Y-79354761D01*
X86925000Y-79259523D01*
X86972619Y-79211904D01*
X87067857Y-79164285D01*
X87163095Y-79164285D01*
X87258333Y-79211904D01*
X87305952Y-79259523D01*
X87353571Y-79354761D01*
X87353571Y-79688095D01*
X86972619Y-78735714D02*
X86925000Y-78688095D01*
X86877380Y-78592857D01*
X86877380Y-78354761D01*
X86925000Y-78259523D01*
X86972619Y-78211904D01*
X87067857Y-78164285D01*
X87163095Y-78164285D01*
X87305952Y-78211904D01*
X87877380Y-78783333D01*
X87877380Y-78164285D01*
X92433571Y-79354761D02*
X92481190Y-79211904D01*
X92528809Y-79164285D01*
X92624047Y-79116666D01*
X92766904Y-79116666D01*
X92862142Y-79164285D01*
X92909761Y-79211904D01*
X92957380Y-79307142D01*
X92957380Y-79688095D01*
X91957380Y-79688095D01*
X91957380Y-79354761D01*
X92005000Y-79259523D01*
X92052619Y-79211904D01*
X92147857Y-79164285D01*
X92243095Y-79164285D01*
X92338333Y-79211904D01*
X92385952Y-79259523D01*
X92433571Y-79354761D01*
X92433571Y-79688095D01*
X91957380Y-78783333D02*
X91957380Y-78164285D01*
X92338333Y-78497619D01*
X92338333Y-78354761D01*
X92385952Y-78259523D01*
X92433571Y-78211904D01*
X92528809Y-78164285D01*
X92766904Y-78164285D01*
X92862142Y-78211904D01*
X92909761Y-78259523D01*
X92957380Y-78354761D01*
X92957380Y-78640476D01*
X92909761Y-78735714D01*
X92862142Y-78783333D01*
X97513571Y-79354761D02*
X97561190Y-79211904D01*
X97608809Y-79164285D01*
X97704047Y-79116666D01*
X97846904Y-79116666D01*
X97942142Y-79164285D01*
X97989761Y-79211904D01*
X98037380Y-79307142D01*
X98037380Y-79688095D01*
X97037380Y-79688095D01*
X97037380Y-79354761D01*
X97085000Y-79259523D01*
X97132619Y-79211904D01*
X97227857Y-79164285D01*
X97323095Y-79164285D01*
X97418333Y-79211904D01*
X97465952Y-79259523D01*
X97513571Y-79354761D01*
X97513571Y-79688095D01*
X97370714Y-78259523D02*
X98037380Y-78259523D01*
X96989761Y-78497619D02*
X97704047Y-78735714D01*
X97704047Y-78116666D01*
X102593571Y-79354761D02*
X102641190Y-79211904D01*
X102688809Y-79164285D01*
X102784047Y-79116666D01*
X102926904Y-79116666D01*
X103022142Y-79164285D01*
X103069761Y-79211904D01*
X103117380Y-79307142D01*
X103117380Y-79688095D01*
X102117380Y-79688095D01*
X102117380Y-79354761D01*
X102165000Y-79259523D01*
X102212619Y-79211904D01*
X102307857Y-79164285D01*
X102403095Y-79164285D01*
X102498333Y-79211904D01*
X102545952Y-79259523D01*
X102593571Y-79354761D01*
X102593571Y-79688095D01*
X102117380Y-78211904D02*
X102117380Y-78688095D01*
X102593571Y-78735714D01*
X102545952Y-78688095D01*
X102498333Y-78592857D01*
X102498333Y-78354761D01*
X102545952Y-78259523D01*
X102593571Y-78211904D01*
X102688809Y-78164285D01*
X102926904Y-78164285D01*
X103022142Y-78211904D01*
X103069761Y-78259523D01*
X103117380Y-78354761D01*
X103117380Y-78592857D01*
X103069761Y-78688095D01*
X103022142Y-78735714D01*
X107673571Y-79354761D02*
X107721190Y-79211904D01*
X107768809Y-79164285D01*
X107864047Y-79116666D01*
X108006904Y-79116666D01*
X108102142Y-79164285D01*
X108149761Y-79211904D01*
X108197380Y-79307142D01*
X108197380Y-79688095D01*
X107197380Y-79688095D01*
X107197380Y-79354761D01*
X107245000Y-79259523D01*
X107292619Y-79211904D01*
X107387857Y-79164285D01*
X107483095Y-79164285D01*
X107578333Y-79211904D01*
X107625952Y-79259523D01*
X107673571Y-79354761D01*
X107673571Y-79688095D01*
X107197380Y-78259523D02*
X107197380Y-78450000D01*
X107245000Y-78545238D01*
X107292619Y-78592857D01*
X107435476Y-78688095D01*
X107625952Y-78735714D01*
X108006904Y-78735714D01*
X108102142Y-78688095D01*
X108149761Y-78640476D01*
X108197380Y-78545238D01*
X108197380Y-78354761D01*
X108149761Y-78259523D01*
X108102142Y-78211904D01*
X108006904Y-78164285D01*
X107768809Y-78164285D01*
X107673571Y-78211904D01*
X107625952Y-78259523D01*
X107578333Y-78354761D01*
X107578333Y-78545238D01*
X107625952Y-78640476D01*
X107673571Y-78688095D01*
X107768809Y-78735714D01*
X117833571Y-79354761D02*
X117881190Y-79211904D01*
X117928809Y-79164285D01*
X118024047Y-79116666D01*
X118166904Y-79116666D01*
X118262142Y-79164285D01*
X118309761Y-79211904D01*
X118357380Y-79307142D01*
X118357380Y-79688095D01*
X117357380Y-79688095D01*
X117357380Y-79354761D01*
X117405000Y-79259523D01*
X117452619Y-79211904D01*
X117547857Y-79164285D01*
X117643095Y-79164285D01*
X117738333Y-79211904D01*
X117785952Y-79259523D01*
X117833571Y-79354761D01*
X117833571Y-79688095D01*
X117785952Y-78545238D02*
X117738333Y-78640476D01*
X117690714Y-78688095D01*
X117595476Y-78735714D01*
X117547857Y-78735714D01*
X117452619Y-78688095D01*
X117405000Y-78640476D01*
X117357380Y-78545238D01*
X117357380Y-78354761D01*
X117405000Y-78259523D01*
X117452619Y-78211904D01*
X117547857Y-78164285D01*
X117595476Y-78164285D01*
X117690714Y-78211904D01*
X117738333Y-78259523D01*
X117785952Y-78354761D01*
X117785952Y-78545238D01*
X117833571Y-78640476D01*
X117881190Y-78688095D01*
X117976428Y-78735714D01*
X118166904Y-78735714D01*
X118262142Y-78688095D01*
X118309761Y-78640476D01*
X118357380Y-78545238D01*
X118357380Y-78354761D01*
X118309761Y-78259523D01*
X118262142Y-78211904D01*
X118166904Y-78164285D01*
X117976428Y-78164285D01*
X117881190Y-78211904D01*
X117833571Y-78259523D01*
X117785952Y-78354761D01*
X122437380Y-80283333D02*
X123437380Y-79950000D01*
X122437380Y-79616666D01*
X123342142Y-78711904D02*
X123389761Y-78759523D01*
X123437380Y-78902380D01*
X123437380Y-78997619D01*
X123389761Y-79140476D01*
X123294523Y-79235714D01*
X123199285Y-79283333D01*
X123008809Y-79330952D01*
X122865952Y-79330952D01*
X122675476Y-79283333D01*
X122580238Y-79235714D01*
X122485000Y-79140476D01*
X122437380Y-78997619D01*
X122437380Y-78902380D01*
X122485000Y-78759523D01*
X122532619Y-78711904D01*
X123342142Y-77711904D02*
X123389761Y-77759523D01*
X123437380Y-77902380D01*
X123437380Y-77997619D01*
X123389761Y-78140476D01*
X123294523Y-78235714D01*
X123199285Y-78283333D01*
X123008809Y-78330952D01*
X122865952Y-78330952D01*
X122675476Y-78283333D01*
X122580238Y-78235714D01*
X122485000Y-78140476D01*
X122437380Y-77997619D01*
X122437380Y-77902380D01*
X122485000Y-77759523D01*
X122532619Y-77711904D01*
X133597380Y-79902380D02*
X132597380Y-79902380D01*
X132597380Y-79664285D01*
X132645000Y-79521428D01*
X132740238Y-79426190D01*
X132835476Y-79378571D01*
X133025952Y-79330952D01*
X133168809Y-79330952D01*
X133359285Y-79378571D01*
X133454523Y-79426190D01*
X133549761Y-79521428D01*
X133597380Y-79664285D01*
X133597380Y-79902380D01*
X133597380Y-78902380D02*
X132930714Y-78902380D01*
X132597380Y-78902380D02*
X132645000Y-78950000D01*
X132692619Y-78902380D01*
X132645000Y-78854761D01*
X132597380Y-78902380D01*
X132692619Y-78902380D01*
X132930714Y-78426190D02*
X133597380Y-78426190D01*
X133025952Y-78426190D02*
X132978333Y-78378571D01*
X132930714Y-78283333D01*
X132930714Y-78140476D01*
X132978333Y-78045238D01*
X133073571Y-77997619D01*
X133597380Y-77997619D01*
X138677380Y-80402380D02*
X137677380Y-80402380D01*
X137677380Y-80164285D01*
X137725000Y-80021428D01*
X137820238Y-79926190D01*
X137915476Y-79878571D01*
X138105952Y-79830952D01*
X138248809Y-79830952D01*
X138439285Y-79878571D01*
X138534523Y-79926190D01*
X138629761Y-80021428D01*
X138677380Y-80164285D01*
X138677380Y-80402380D01*
X138677380Y-79259523D02*
X138629761Y-79354761D01*
X138582142Y-79402380D01*
X138486904Y-79450000D01*
X138201190Y-79450000D01*
X138105952Y-79402380D01*
X138058333Y-79354761D01*
X138010714Y-79259523D01*
X138010714Y-79116666D01*
X138058333Y-79021428D01*
X138105952Y-78973809D01*
X138201190Y-78926190D01*
X138486904Y-78926190D01*
X138582142Y-78973809D01*
X138629761Y-79021428D01*
X138677380Y-79116666D01*
X138677380Y-79259523D01*
X138010714Y-78069047D02*
X138677380Y-78069047D01*
X138010714Y-78497619D02*
X138534523Y-78497619D01*
X138629761Y-78450000D01*
X138677380Y-78354761D01*
X138677380Y-78211904D01*
X138629761Y-78116666D01*
X138582142Y-78069047D01*
X138010714Y-77735714D02*
X138010714Y-77354761D01*
X137677380Y-77592857D02*
X138534523Y-77592857D01*
X138629761Y-77545238D01*
X138677380Y-77450000D01*
X138677380Y-77354761D01*
X127565000Y-79711904D02*
X127517380Y-79807142D01*
X127517380Y-79950000D01*
X127565000Y-80092857D01*
X127660238Y-80188095D01*
X127755476Y-80235714D01*
X127945952Y-80283333D01*
X128088809Y-80283333D01*
X128279285Y-80235714D01*
X128374523Y-80188095D01*
X128469761Y-80092857D01*
X128517380Y-79950000D01*
X128517380Y-79854761D01*
X128469761Y-79711904D01*
X128422142Y-79664285D01*
X128088809Y-79664285D01*
X128088809Y-79854761D01*
X128517380Y-79235714D02*
X127517380Y-79235714D01*
X128517380Y-78664285D01*
X127517380Y-78664285D01*
X128517380Y-78188095D02*
X127517380Y-78188095D01*
X127517380Y-77950000D01*
X127565000Y-77807142D01*
X127660238Y-77711904D01*
X127755476Y-77664285D01*
X127945952Y-77616666D01*
X128088809Y-77616666D01*
X128279285Y-77664285D01*
X128374523Y-77711904D01*
X128469761Y-77807142D01*
X128517380Y-77950000D01*
X128517380Y-78188095D01*
X112753571Y-79354761D02*
X112801190Y-79211904D01*
X112848809Y-79164285D01*
X112944047Y-79116666D01*
X113086904Y-79116666D01*
X113182142Y-79164285D01*
X113229761Y-79211904D01*
X113277380Y-79307142D01*
X113277380Y-79688095D01*
X112277380Y-79688095D01*
X112277380Y-79354761D01*
X112325000Y-79259523D01*
X112372619Y-79211904D01*
X112467857Y-79164285D01*
X112563095Y-79164285D01*
X112658333Y-79211904D01*
X112705952Y-79259523D01*
X112753571Y-79354761D01*
X112753571Y-79688095D01*
X112277380Y-78783333D02*
X112277380Y-78116666D01*
X113277380Y-78545238D01*
X128406467Y-25617162D02*
X128549324Y-25664781D01*
X128787420Y-25664781D01*
X128882658Y-25617162D01*
X128930277Y-25569543D01*
X128977896Y-25474305D01*
X128977896Y-25379067D01*
X128930277Y-25283829D01*
X128882658Y-25236210D01*
X128787420Y-25188591D01*
X128596943Y-25140972D01*
X128501705Y-25093353D01*
X128454086Y-25045734D01*
X128406467Y-24950496D01*
X128406467Y-24855258D01*
X128454086Y-24760020D01*
X128501705Y-24712401D01*
X128596943Y-24664781D01*
X128835039Y-24664781D01*
X128977896Y-24712401D01*
X129311229Y-24664781D02*
X129549324Y-25664781D01*
X129739801Y-24950496D01*
X129930277Y-25664781D01*
X130168372Y-24664781D01*
X131073134Y-25664781D02*
X130501705Y-25664781D01*
X130787420Y-25664781D02*
X130787420Y-24664781D01*
X130692181Y-24807639D01*
X130596943Y-24902877D01*
X130501705Y-24950496D01*
X92649315Y-53830581D02*
X92077886Y-53830581D01*
X92363601Y-53830581D02*
X92363601Y-52830581D01*
X92268362Y-52973439D01*
X92173124Y-53068677D01*
X92077886Y-53116296D01*
X116677886Y-52925820D02*
X116725505Y-52878201D01*
X116820743Y-52830581D01*
X117058839Y-52830581D01*
X117154077Y-52878201D01*
X117201696Y-52925820D01*
X117249315Y-53021058D01*
X117249315Y-53116296D01*
X117201696Y-53259153D01*
X116630267Y-53830581D01*
X117249315Y-53830581D01*
X142030267Y-52830581D02*
X142649315Y-52830581D01*
X142315981Y-53211534D01*
X142458839Y-53211534D01*
X142554077Y-53259153D01*
X142601696Y-53306772D01*
X142649315Y-53402010D01*
X142649315Y-53640105D01*
X142601696Y-53735343D01*
X142554077Y-53782962D01*
X142458839Y-53830581D01*
X142173124Y-53830581D01*
X142077886Y-53782962D01*
X142030267Y-53735343D01*
X167154077Y-53163915D02*
X167154077Y-53830581D01*
X166915981Y-52782962D02*
X166677886Y-53497248D01*
X167296934Y-53497248D01*
X92601696Y-58830581D02*
X92125505Y-58830581D01*
X92077886Y-59306772D01*
X92125505Y-59259153D01*
X92220743Y-59211534D01*
X92458839Y-59211534D01*
X92554077Y-59259153D01*
X92601696Y-59306772D01*
X92649315Y-59402010D01*
X92649315Y-59640105D01*
X92601696Y-59735343D01*
X92554077Y-59782962D01*
X92458839Y-59830581D01*
X92220743Y-59830581D01*
X92125505Y-59782962D01*
X92077886Y-59735343D01*
X117154077Y-58830581D02*
X116963601Y-58830581D01*
X116868362Y-58878201D01*
X116820743Y-58925820D01*
X116725505Y-59068677D01*
X116677886Y-59259153D01*
X116677886Y-59640105D01*
X116725505Y-59735343D01*
X116773124Y-59782962D01*
X116868362Y-59830581D01*
X117058839Y-59830581D01*
X117154077Y-59782962D01*
X117201696Y-59735343D01*
X117249315Y-59640105D01*
X117249315Y-59402010D01*
X117201696Y-59306772D01*
X117154077Y-59259153D01*
X117058839Y-59211534D01*
X116868362Y-59211534D01*
X116773124Y-59259153D01*
X116725505Y-59306772D01*
X116677886Y-59402010D01*
X142030267Y-58830581D02*
X142696934Y-58830581D01*
X142268362Y-59830581D01*
X166868362Y-59259153D02*
X166773124Y-59211534D01*
X166725505Y-59163915D01*
X166677886Y-59068677D01*
X166677886Y-59021058D01*
X166725505Y-58925820D01*
X166773124Y-58878201D01*
X166868362Y-58830581D01*
X167058839Y-58830581D01*
X167154077Y-58878201D01*
X167201696Y-58925820D01*
X167249315Y-59021058D01*
X167249315Y-59068677D01*
X167201696Y-59163915D01*
X167154077Y-59211534D01*
X167058839Y-59259153D01*
X166868362Y-59259153D01*
X166773124Y-59306772D01*
X166725505Y-59354391D01*
X166677886Y-59449629D01*
X166677886Y-59640105D01*
X166725505Y-59735343D01*
X166773124Y-59782962D01*
X166868362Y-59830581D01*
X167058839Y-59830581D01*
X167154077Y-59782962D01*
X167201696Y-59735343D01*
X167249315Y-59640105D01*
X167249315Y-59449629D01*
X167201696Y-59354391D01*
X167154077Y-59306772D01*
X167058839Y-59259153D01*
X116204504Y-35832480D02*
X116204504Y-34832480D01*
X116442600Y-34832480D01*
X116585457Y-34880100D01*
X116680695Y-34975338D01*
X116728314Y-35070576D01*
X116775933Y-35261052D01*
X116775933Y-35403909D01*
X116728314Y-35594385D01*
X116680695Y-35689623D01*
X116585457Y-35784861D01*
X116442600Y-35832480D01*
X116204504Y-35832480D01*
X117156885Y-34927719D02*
X117204504Y-34880100D01*
X117299742Y-34832480D01*
X117537838Y-34832480D01*
X117633076Y-34880100D01*
X117680695Y-34927719D01*
X117728314Y-35022957D01*
X117728314Y-35118195D01*
X117680695Y-35261052D01*
X117109266Y-35832480D01*
X117728314Y-35832480D01*
X91630004Y-36061080D02*
X91630004Y-35061080D01*
X91868100Y-35061080D01*
X92010957Y-35108700D01*
X92106195Y-35203938D01*
X92153814Y-35299176D01*
X92201433Y-35489652D01*
X92201433Y-35632509D01*
X92153814Y-35822985D01*
X92106195Y-35918223D01*
X92010957Y-36013461D01*
X91868100Y-36061080D01*
X91630004Y-36061080D01*
X93153814Y-36061080D02*
X92582385Y-36061080D01*
X92868100Y-36061080D02*
X92868100Y-35061080D01*
X92772861Y-35203938D01*
X92677623Y-35299176D01*
X92582385Y-35346795D01*
X91526404Y-77530780D02*
X91526404Y-76530780D01*
X91764500Y-76530780D01*
X91907357Y-76578400D01*
X92002595Y-76673638D01*
X92050214Y-76768876D01*
X92097833Y-76959352D01*
X92097833Y-77102209D01*
X92050214Y-77292685D01*
X92002595Y-77387923D01*
X91907357Y-77483161D01*
X91764500Y-77530780D01*
X91526404Y-77530780D01*
X93002595Y-76530780D02*
X92526404Y-76530780D01*
X92478785Y-77006971D01*
X92526404Y-76959352D01*
X92621642Y-76911733D01*
X92859738Y-76911733D01*
X92954976Y-76959352D01*
X93002595Y-77006971D01*
X93050214Y-77102209D01*
X93050214Y-77340304D01*
X93002595Y-77435542D01*
X92954976Y-77483161D01*
X92859738Y-77530780D01*
X92621642Y-77530780D01*
X92526404Y-77483161D01*
X92478785Y-77435542D01*
X116509304Y-77704380D02*
X116509304Y-76704380D01*
X116747400Y-76704380D01*
X116890257Y-76752000D01*
X116985495Y-76847238D01*
X117033114Y-76942476D01*
X117080733Y-77132952D01*
X117080733Y-77275809D01*
X117033114Y-77466285D01*
X116985495Y-77561523D01*
X116890257Y-77656761D01*
X116747400Y-77704380D01*
X116509304Y-77704380D01*
X117937876Y-76704380D02*
X117747400Y-76704380D01*
X117652161Y-76752000D01*
X117604542Y-76799619D01*
X117509304Y-76942476D01*
X117461685Y-77132952D01*
X117461685Y-77513904D01*
X117509304Y-77609142D01*
X117556923Y-77656761D01*
X117652161Y-77704380D01*
X117842638Y-77704380D01*
X117937876Y-77656761D01*
X117985495Y-77609142D01*
X118033114Y-77513904D01*
X118033114Y-77275809D01*
X117985495Y-77180571D01*
X117937876Y-77132952D01*
X117842638Y-77085333D01*
X117652161Y-77085333D01*
X117556923Y-77132952D01*
X117509304Y-77180571D01*
X117461685Y-77275809D01*
X141553704Y-35857880D02*
X141553704Y-34857880D01*
X141791800Y-34857880D01*
X141934657Y-34905500D01*
X142029895Y-35000738D01*
X142077514Y-35095976D01*
X142125133Y-35286452D01*
X142125133Y-35429309D01*
X142077514Y-35619785D01*
X142029895Y-35715023D01*
X141934657Y-35810261D01*
X141791800Y-35857880D01*
X141553704Y-35857880D01*
X142458466Y-34857880D02*
X143077514Y-34857880D01*
X142744180Y-35238833D01*
X142887038Y-35238833D01*
X142982276Y-35286452D01*
X143029895Y-35334071D01*
X143077514Y-35429309D01*
X143077514Y-35667404D01*
X143029895Y-35762642D01*
X142982276Y-35810261D01*
X142887038Y-35857880D01*
X142601323Y-35857880D01*
X142506085Y-35810261D01*
X142458466Y-35762642D01*
X141451104Y-77769980D02*
X141451104Y-76769980D01*
X141689200Y-76769980D01*
X141832057Y-76817600D01*
X141927295Y-76912838D01*
X141974914Y-77008076D01*
X142022533Y-77198552D01*
X142022533Y-77341409D01*
X141974914Y-77531885D01*
X141927295Y-77627123D01*
X141832057Y-77722361D01*
X141689200Y-77769980D01*
X141451104Y-77769980D01*
X142355866Y-76769980D02*
X143022533Y-76769980D01*
X142593961Y-77769980D01*
X166316704Y-35747780D02*
X166316704Y-34747780D01*
X166554800Y-34747780D01*
X166697657Y-34795400D01*
X166792895Y-34890638D01*
X166840514Y-34985876D01*
X166888133Y-35176352D01*
X166888133Y-35319209D01*
X166840514Y-35509685D01*
X166792895Y-35604923D01*
X166697657Y-35700161D01*
X166554800Y-35747780D01*
X166316704Y-35747780D01*
X167745276Y-35081114D02*
X167745276Y-35747780D01*
X167507180Y-34700161D02*
X167269085Y-35414447D01*
X167888133Y-35414447D01*
X166064704Y-77818680D02*
X166064704Y-76818680D01*
X166302800Y-76818680D01*
X166445657Y-76866300D01*
X166540895Y-76961538D01*
X166588514Y-77056776D01*
X166636133Y-77247252D01*
X166636133Y-77390109D01*
X166588514Y-77580585D01*
X166540895Y-77675823D01*
X166445657Y-77771061D01*
X166302800Y-77818680D01*
X166064704Y-77818680D01*
X167207561Y-77247252D02*
X167112323Y-77199633D01*
X167064704Y-77152014D01*
X167017085Y-77056776D01*
X167017085Y-77009157D01*
X167064704Y-76913919D01*
X167112323Y-76866300D01*
X167207561Y-76818680D01*
X167398038Y-76818680D01*
X167493276Y-76866300D01*
X167540895Y-76913919D01*
X167588514Y-77009157D01*
X167588514Y-77056776D01*
X167540895Y-77152014D01*
X167493276Y-77199633D01*
X167398038Y-77247252D01*
X167207561Y-77247252D01*
X167112323Y-77294871D01*
X167064704Y-77342490D01*
X167017085Y-77437728D01*
X167017085Y-77628204D01*
X167064704Y-77723442D01*
X167112323Y-77771061D01*
X167207561Y-77818680D01*
X167398038Y-77818680D01*
X167493276Y-77771061D01*
X167540895Y-77723442D01*
X167588514Y-77628204D01*
X167588514Y-77437728D01*
X167540895Y-77342490D01*
X167493276Y-77294871D01*
X167398038Y-77247252D01*
X169238095Y-22570580D02*
X169238095Y-21570580D01*
X169238095Y-22046771D02*
X169809523Y-22046771D01*
X169809523Y-22570580D02*
X169809523Y-21570580D01*
X170809523Y-22570580D02*
X170238095Y-22570580D01*
X170523809Y-22570580D02*
X170523809Y-21570580D01*
X170428571Y-21713438D01*
X170333333Y-21808676D01*
X170238095Y-21856295D01*
X169238095Y-90567880D02*
X169238095Y-89567880D01*
X169238095Y-90044071D02*
X169809523Y-90044071D01*
X169809523Y-90567880D02*
X169809523Y-89567880D01*
X170238095Y-89663119D02*
X170285714Y-89615500D01*
X170380952Y-89567880D01*
X170619047Y-89567880D01*
X170714285Y-89615500D01*
X170761904Y-89663119D01*
X170809523Y-89758357D01*
X170809523Y-89853595D01*
X170761904Y-89996452D01*
X170190476Y-90567880D01*
X170809523Y-90567880D01*
X89238095Y-22570580D02*
X89238095Y-21570580D01*
X89238095Y-22046771D02*
X89809523Y-22046771D01*
X89809523Y-22570580D02*
X89809523Y-21570580D01*
X90190476Y-21570580D02*
X90809523Y-21570580D01*
X90476190Y-21951533D01*
X90619047Y-21951533D01*
X90714285Y-21999152D01*
X90761904Y-22046771D01*
X90809523Y-22142009D01*
X90809523Y-22380104D01*
X90761904Y-22475342D01*
X90714285Y-22522961D01*
X90619047Y-22570580D01*
X90333333Y-22570580D01*
X90238095Y-22522961D01*
X90190476Y-22475342D01*
X110211966Y-80169780D02*
X110211966Y-80884066D01*
X110164347Y-81026923D01*
X110069109Y-81122161D01*
X109926252Y-81169780D01*
X109831014Y-81169780D01*
X111211966Y-81169780D02*
X110640538Y-81169780D01*
X110926252Y-81169780D02*
X110926252Y-80169780D01*
X110831014Y-80312638D01*
X110735776Y-80407876D01*
X110640538Y-80455495D01*
M02*
