G04 #@! TF.GenerationSoftware,KiCad,Pcbnew,(5.1.5)-3*
G04 #@! TF.CreationDate,2020-07-03T21:40:14-07:00*
G04 #@! TF.ProjectId,Sparkfun_buttons,53706172-6b66-4756-9e5f-627574746f6e,rev?*
G04 #@! TF.SameCoordinates,Original*
G04 #@! TF.FileFunction,Soldermask,Bot*
G04 #@! TF.FilePolarity,Negative*
%FSLAX46Y46*%
G04 Gerber Fmt 4.6, Leading zero omitted, Abs format (unit mm)*
G04 Created by KiCad (PCBNEW (5.1.5)-3) date 2020-07-03 21:40:14*
%MOMM*%
%LPD*%
G04 APERTURE LIST*
%ADD10C,0.100000*%
G04 APERTURE END LIST*
D10*
G36*
X170375256Y-84306798D02*
G01*
X170481579Y-84327947D01*
X170782042Y-84452403D01*
X171052451Y-84633085D01*
X171282415Y-84863049D01*
X171406036Y-85048061D01*
X171463098Y-85133460D01*
X171587553Y-85433922D01*
X171650279Y-85749263D01*
X171651000Y-85752891D01*
X171651000Y-86078109D01*
X171587553Y-86397079D01*
X171463097Y-86697542D01*
X171282415Y-86967951D01*
X171052451Y-87197915D01*
X170782042Y-87378597D01*
X170481579Y-87503053D01*
X170375256Y-87524202D01*
X170162611Y-87566500D01*
X169837389Y-87566500D01*
X169624744Y-87524202D01*
X169518421Y-87503053D01*
X169217958Y-87378597D01*
X168947549Y-87197915D01*
X168717585Y-86967951D01*
X168536903Y-86697542D01*
X168412447Y-86397079D01*
X168349000Y-86078109D01*
X168349000Y-85752891D01*
X168349722Y-85749263D01*
X168412447Y-85433922D01*
X168536902Y-85133460D01*
X168593964Y-85048061D01*
X168717585Y-84863049D01*
X168947549Y-84633085D01*
X169217958Y-84452403D01*
X169518421Y-84327947D01*
X169624744Y-84306798D01*
X169837389Y-84264500D01*
X170162611Y-84264500D01*
X170375256Y-84306798D01*
G37*
G36*
X133424787Y-84626396D02*
G01*
X133661553Y-84724468D01*
X133661555Y-84724469D01*
X133868955Y-84863049D01*
X133874639Y-84866847D01*
X134055853Y-85048061D01*
X134198232Y-85261147D01*
X134296304Y-85497913D01*
X134346300Y-85749261D01*
X134346300Y-86005539D01*
X134296304Y-86256887D01*
X134238234Y-86397079D01*
X134198231Y-86493655D01*
X134055853Y-86706739D01*
X133874639Y-86887953D01*
X133661555Y-87030331D01*
X133661554Y-87030332D01*
X133661553Y-87030332D01*
X133424787Y-87128404D01*
X133173439Y-87178400D01*
X132917161Y-87178400D01*
X132665813Y-87128404D01*
X132429047Y-87030332D01*
X132429046Y-87030332D01*
X132429045Y-87030331D01*
X132215961Y-86887953D01*
X132034747Y-86706739D01*
X131892369Y-86493655D01*
X131852366Y-86397079D01*
X131794296Y-86256887D01*
X131744300Y-86005539D01*
X131744300Y-85749261D01*
X131794296Y-85497913D01*
X131892368Y-85261147D01*
X132034747Y-85048061D01*
X132215961Y-84866847D01*
X132221645Y-84863049D01*
X132429045Y-84724469D01*
X132429047Y-84724468D01*
X132665813Y-84626396D01*
X132917161Y-84576400D01*
X133173439Y-84576400D01*
X133424787Y-84626396D01*
G37*
G36*
X128424787Y-84626396D02*
G01*
X128661553Y-84724468D01*
X128661555Y-84724469D01*
X128868955Y-84863049D01*
X128874639Y-84866847D01*
X129055853Y-85048061D01*
X129198232Y-85261147D01*
X129296304Y-85497913D01*
X129346300Y-85749261D01*
X129346300Y-86005539D01*
X129296304Y-86256887D01*
X129238234Y-86397079D01*
X129198231Y-86493655D01*
X129055853Y-86706739D01*
X128874639Y-86887953D01*
X128661555Y-87030331D01*
X128661554Y-87030332D01*
X128661553Y-87030332D01*
X128424787Y-87128404D01*
X128173439Y-87178400D01*
X127917161Y-87178400D01*
X127665813Y-87128404D01*
X127429047Y-87030332D01*
X127429046Y-87030332D01*
X127429045Y-87030331D01*
X127215961Y-86887953D01*
X127034747Y-86706739D01*
X126892369Y-86493655D01*
X126852366Y-86397079D01*
X126794296Y-86256887D01*
X126744300Y-86005539D01*
X126744300Y-85749261D01*
X126794296Y-85497913D01*
X126892368Y-85261147D01*
X127034747Y-85048061D01*
X127215961Y-84866847D01*
X127221645Y-84863049D01*
X127429045Y-84724469D01*
X127429047Y-84724468D01*
X127665813Y-84626396D01*
X127917161Y-84576400D01*
X128173439Y-84576400D01*
X128424787Y-84626396D01*
G37*
G36*
X123424787Y-84626396D02*
G01*
X123661553Y-84724468D01*
X123661555Y-84724469D01*
X123868955Y-84863049D01*
X123874639Y-84866847D01*
X124055853Y-85048061D01*
X124198232Y-85261147D01*
X124296304Y-85497913D01*
X124346300Y-85749261D01*
X124346300Y-86005539D01*
X124296304Y-86256887D01*
X124238234Y-86397079D01*
X124198231Y-86493655D01*
X124055853Y-86706739D01*
X123874639Y-86887953D01*
X123661555Y-87030331D01*
X123661554Y-87030332D01*
X123661553Y-87030332D01*
X123424787Y-87128404D01*
X123173439Y-87178400D01*
X122917161Y-87178400D01*
X122665813Y-87128404D01*
X122429047Y-87030332D01*
X122429046Y-87030332D01*
X122429045Y-87030331D01*
X122215961Y-86887953D01*
X122034747Y-86706739D01*
X121892369Y-86493655D01*
X121852366Y-86397079D01*
X121794296Y-86256887D01*
X121744300Y-86005539D01*
X121744300Y-85749261D01*
X121794296Y-85497913D01*
X121892368Y-85261147D01*
X122034747Y-85048061D01*
X122215961Y-84866847D01*
X122221645Y-84863049D01*
X122429045Y-84724469D01*
X122429047Y-84724468D01*
X122665813Y-84626396D01*
X122917161Y-84576400D01*
X123173439Y-84576400D01*
X123424787Y-84626396D01*
G37*
G36*
X118424787Y-84626396D02*
G01*
X118661553Y-84724468D01*
X118661555Y-84724469D01*
X118868955Y-84863049D01*
X118874639Y-84866847D01*
X119055853Y-85048061D01*
X119198232Y-85261147D01*
X119296304Y-85497913D01*
X119346300Y-85749261D01*
X119346300Y-86005539D01*
X119296304Y-86256887D01*
X119238234Y-86397079D01*
X119198231Y-86493655D01*
X119055853Y-86706739D01*
X118874639Y-86887953D01*
X118661555Y-87030331D01*
X118661554Y-87030332D01*
X118661553Y-87030332D01*
X118424787Y-87128404D01*
X118173439Y-87178400D01*
X117917161Y-87178400D01*
X117665813Y-87128404D01*
X117429047Y-87030332D01*
X117429046Y-87030332D01*
X117429045Y-87030331D01*
X117215961Y-86887953D01*
X117034747Y-86706739D01*
X116892369Y-86493655D01*
X116852366Y-86397079D01*
X116794296Y-86256887D01*
X116744300Y-86005539D01*
X116744300Y-85749261D01*
X116794296Y-85497913D01*
X116892368Y-85261147D01*
X117034747Y-85048061D01*
X117215961Y-84866847D01*
X117221645Y-84863049D01*
X117429045Y-84724469D01*
X117429047Y-84724468D01*
X117665813Y-84626396D01*
X117917161Y-84576400D01*
X118173439Y-84576400D01*
X118424787Y-84626396D01*
G37*
G36*
X113424787Y-84626396D02*
G01*
X113661553Y-84724468D01*
X113661555Y-84724469D01*
X113868955Y-84863049D01*
X113874639Y-84866847D01*
X114055853Y-85048061D01*
X114198232Y-85261147D01*
X114296304Y-85497913D01*
X114346300Y-85749261D01*
X114346300Y-86005539D01*
X114296304Y-86256887D01*
X114238234Y-86397079D01*
X114198231Y-86493655D01*
X114055853Y-86706739D01*
X113874639Y-86887953D01*
X113661555Y-87030331D01*
X113661554Y-87030332D01*
X113661553Y-87030332D01*
X113424787Y-87128404D01*
X113173439Y-87178400D01*
X112917161Y-87178400D01*
X112665813Y-87128404D01*
X112429047Y-87030332D01*
X112429046Y-87030332D01*
X112429045Y-87030331D01*
X112215961Y-86887953D01*
X112034747Y-86706739D01*
X111892369Y-86493655D01*
X111852366Y-86397079D01*
X111794296Y-86256887D01*
X111744300Y-86005539D01*
X111744300Y-85749261D01*
X111794296Y-85497913D01*
X111892368Y-85261147D01*
X112034747Y-85048061D01*
X112215961Y-84866847D01*
X112221645Y-84863049D01*
X112429045Y-84724469D01*
X112429047Y-84724468D01*
X112665813Y-84626396D01*
X112917161Y-84576400D01*
X113173439Y-84576400D01*
X113424787Y-84626396D01*
G37*
G36*
X108424787Y-84626396D02*
G01*
X108661553Y-84724468D01*
X108661555Y-84724469D01*
X108868955Y-84863049D01*
X108874639Y-84866847D01*
X109055853Y-85048061D01*
X109198232Y-85261147D01*
X109296304Y-85497913D01*
X109346300Y-85749261D01*
X109346300Y-86005539D01*
X109296304Y-86256887D01*
X109238234Y-86397079D01*
X109198231Y-86493655D01*
X109055853Y-86706739D01*
X108874639Y-86887953D01*
X108661555Y-87030331D01*
X108661554Y-87030332D01*
X108661553Y-87030332D01*
X108424787Y-87128404D01*
X108173439Y-87178400D01*
X107917161Y-87178400D01*
X107665813Y-87128404D01*
X107429047Y-87030332D01*
X107429046Y-87030332D01*
X107429045Y-87030331D01*
X107215961Y-86887953D01*
X107034747Y-86706739D01*
X106892369Y-86493655D01*
X106852366Y-86397079D01*
X106794296Y-86256887D01*
X106744300Y-86005539D01*
X106744300Y-85749261D01*
X106794296Y-85497913D01*
X106892368Y-85261147D01*
X107034747Y-85048061D01*
X107215961Y-84866847D01*
X107221645Y-84863049D01*
X107429045Y-84724469D01*
X107429047Y-84724468D01*
X107665813Y-84626396D01*
X107917161Y-84576400D01*
X108173439Y-84576400D01*
X108424787Y-84626396D01*
G37*
G36*
X98424787Y-84626396D02*
G01*
X98661553Y-84724468D01*
X98661555Y-84724469D01*
X98868955Y-84863049D01*
X98874639Y-84866847D01*
X99055853Y-85048061D01*
X99198232Y-85261147D01*
X99296304Y-85497913D01*
X99346300Y-85749261D01*
X99346300Y-86005539D01*
X99296304Y-86256887D01*
X99238234Y-86397079D01*
X99198231Y-86493655D01*
X99055853Y-86706739D01*
X98874639Y-86887953D01*
X98661555Y-87030331D01*
X98661554Y-87030332D01*
X98661553Y-87030332D01*
X98424787Y-87128404D01*
X98173439Y-87178400D01*
X97917161Y-87178400D01*
X97665813Y-87128404D01*
X97429047Y-87030332D01*
X97429046Y-87030332D01*
X97429045Y-87030331D01*
X97215961Y-86887953D01*
X97034747Y-86706739D01*
X96892369Y-86493655D01*
X96852366Y-86397079D01*
X96794296Y-86256887D01*
X96744300Y-86005539D01*
X96744300Y-85749261D01*
X96794296Y-85497913D01*
X96892368Y-85261147D01*
X97034747Y-85048061D01*
X97215961Y-84866847D01*
X97221645Y-84863049D01*
X97429045Y-84724469D01*
X97429047Y-84724468D01*
X97665813Y-84626396D01*
X97917161Y-84576400D01*
X98173439Y-84576400D01*
X98424787Y-84626396D01*
G37*
G36*
X138424787Y-84626396D02*
G01*
X138661553Y-84724468D01*
X138661555Y-84724469D01*
X138868955Y-84863049D01*
X138874639Y-84866847D01*
X139055853Y-85048061D01*
X139198232Y-85261147D01*
X139296304Y-85497913D01*
X139346300Y-85749261D01*
X139346300Y-86005539D01*
X139296304Y-86256887D01*
X139238234Y-86397079D01*
X139198231Y-86493655D01*
X139055853Y-86706739D01*
X138874639Y-86887953D01*
X138661555Y-87030331D01*
X138661554Y-87030332D01*
X138661553Y-87030332D01*
X138424787Y-87128404D01*
X138173439Y-87178400D01*
X137917161Y-87178400D01*
X137665813Y-87128404D01*
X137429047Y-87030332D01*
X137429046Y-87030332D01*
X137429045Y-87030331D01*
X137215961Y-86887953D01*
X137034747Y-86706739D01*
X136892369Y-86493655D01*
X136852366Y-86397079D01*
X136794296Y-86256887D01*
X136744300Y-86005539D01*
X136744300Y-85749261D01*
X136794296Y-85497913D01*
X136892368Y-85261147D01*
X137034747Y-85048061D01*
X137215961Y-84866847D01*
X137221645Y-84863049D01*
X137429045Y-84724469D01*
X137429047Y-84724468D01*
X137665813Y-84626396D01*
X137917161Y-84576400D01*
X138173439Y-84576400D01*
X138424787Y-84626396D01*
G37*
G36*
X84346300Y-87178400D02*
G01*
X81744300Y-87178400D01*
X81744300Y-84576400D01*
X84346300Y-84576400D01*
X84346300Y-87178400D01*
G37*
G36*
X88424787Y-84626396D02*
G01*
X88661553Y-84724468D01*
X88661555Y-84724469D01*
X88868955Y-84863049D01*
X88874639Y-84866847D01*
X89055853Y-85048061D01*
X89198232Y-85261147D01*
X89296304Y-85497913D01*
X89346300Y-85749261D01*
X89346300Y-86005539D01*
X89296304Y-86256887D01*
X89238234Y-86397079D01*
X89198231Y-86493655D01*
X89055853Y-86706739D01*
X88874639Y-86887953D01*
X88661555Y-87030331D01*
X88661554Y-87030332D01*
X88661553Y-87030332D01*
X88424787Y-87128404D01*
X88173439Y-87178400D01*
X87917161Y-87178400D01*
X87665813Y-87128404D01*
X87429047Y-87030332D01*
X87429046Y-87030332D01*
X87429045Y-87030331D01*
X87215961Y-86887953D01*
X87034747Y-86706739D01*
X86892369Y-86493655D01*
X86852366Y-86397079D01*
X86794296Y-86256887D01*
X86744300Y-86005539D01*
X86744300Y-85749261D01*
X86794296Y-85497913D01*
X86892368Y-85261147D01*
X87034747Y-85048061D01*
X87215961Y-84866847D01*
X87221645Y-84863049D01*
X87429045Y-84724469D01*
X87429047Y-84724468D01*
X87665813Y-84626396D01*
X87917161Y-84576400D01*
X88173439Y-84576400D01*
X88424787Y-84626396D01*
G37*
G36*
X93424787Y-84626396D02*
G01*
X93661553Y-84724468D01*
X93661555Y-84724469D01*
X93868955Y-84863049D01*
X93874639Y-84866847D01*
X94055853Y-85048061D01*
X94198232Y-85261147D01*
X94296304Y-85497913D01*
X94346300Y-85749261D01*
X94346300Y-86005539D01*
X94296304Y-86256887D01*
X94238234Y-86397079D01*
X94198231Y-86493655D01*
X94055853Y-86706739D01*
X93874639Y-86887953D01*
X93661555Y-87030331D01*
X93661554Y-87030332D01*
X93661553Y-87030332D01*
X93424787Y-87128404D01*
X93173439Y-87178400D01*
X92917161Y-87178400D01*
X92665813Y-87128404D01*
X92429047Y-87030332D01*
X92429046Y-87030332D01*
X92429045Y-87030331D01*
X92215961Y-86887953D01*
X92034747Y-86706739D01*
X91892369Y-86493655D01*
X91852366Y-86397079D01*
X91794296Y-86256887D01*
X91744300Y-86005539D01*
X91744300Y-85749261D01*
X91794296Y-85497913D01*
X91892368Y-85261147D01*
X92034747Y-85048061D01*
X92215961Y-84866847D01*
X92221645Y-84863049D01*
X92429045Y-84724469D01*
X92429047Y-84724468D01*
X92665813Y-84626396D01*
X92917161Y-84576400D01*
X93173439Y-84576400D01*
X93424787Y-84626396D01*
G37*
G36*
X103424787Y-84626396D02*
G01*
X103661553Y-84724468D01*
X103661555Y-84724469D01*
X103868955Y-84863049D01*
X103874639Y-84866847D01*
X104055853Y-85048061D01*
X104198232Y-85261147D01*
X104296304Y-85497913D01*
X104346300Y-85749261D01*
X104346300Y-86005539D01*
X104296304Y-86256887D01*
X104238234Y-86397079D01*
X104198231Y-86493655D01*
X104055853Y-86706739D01*
X103874639Y-86887953D01*
X103661555Y-87030331D01*
X103661554Y-87030332D01*
X103661553Y-87030332D01*
X103424787Y-87128404D01*
X103173439Y-87178400D01*
X102917161Y-87178400D01*
X102665813Y-87128404D01*
X102429047Y-87030332D01*
X102429046Y-87030332D01*
X102429045Y-87030331D01*
X102215961Y-86887953D01*
X102034747Y-86706739D01*
X101892369Y-86493655D01*
X101852366Y-86397079D01*
X101794296Y-86256887D01*
X101744300Y-86005539D01*
X101744300Y-85749261D01*
X101794296Y-85497913D01*
X101892368Y-85261147D01*
X102034747Y-85048061D01*
X102215961Y-84866847D01*
X102221645Y-84863049D01*
X102429045Y-84724469D01*
X102429047Y-84724468D01*
X102665813Y-84626396D01*
X102917161Y-84576400D01*
X103173439Y-84576400D01*
X103424787Y-84626396D01*
G37*
G36*
X130565600Y-79038600D02*
G01*
X129213600Y-79038600D01*
X129213600Y-78136600D01*
X130565600Y-78136600D01*
X130565600Y-79038600D01*
G37*
G36*
X132215600Y-79038600D02*
G01*
X130863600Y-79038600D01*
X130863600Y-78136600D01*
X132215600Y-78136600D01*
X132215600Y-79038600D01*
G37*
G36*
X161637374Y-77069665D02*
G01*
X161675067Y-77081099D01*
X161709803Y-77099666D01*
X161740248Y-77124652D01*
X161765234Y-77155097D01*
X161783801Y-77189833D01*
X161795235Y-77227526D01*
X161799700Y-77272861D01*
X161799700Y-78109539D01*
X161795235Y-78154874D01*
X161783801Y-78192567D01*
X161765234Y-78227303D01*
X161740248Y-78257748D01*
X161709803Y-78282734D01*
X161675067Y-78301301D01*
X161637374Y-78312735D01*
X161592039Y-78317200D01*
X160505361Y-78317200D01*
X160460026Y-78312735D01*
X160422333Y-78301301D01*
X160387597Y-78282734D01*
X160357152Y-78257748D01*
X160332166Y-78227303D01*
X160313599Y-78192567D01*
X160302165Y-78154874D01*
X160297700Y-78109539D01*
X160297700Y-77272861D01*
X160302165Y-77227526D01*
X160313599Y-77189833D01*
X160332166Y-77155097D01*
X160357152Y-77124652D01*
X160387597Y-77099666D01*
X160422333Y-77081099D01*
X160460026Y-77069665D01*
X160505361Y-77065200D01*
X161592039Y-77065200D01*
X161637374Y-77069665D01*
G37*
G36*
X132215600Y-77238600D02*
G01*
X130863600Y-77238600D01*
X130863600Y-76336600D01*
X132215600Y-76336600D01*
X132215600Y-77238600D01*
G37*
G36*
X130565600Y-77238600D02*
G01*
X129213600Y-77238600D01*
X129213600Y-76336600D01*
X130565600Y-76336600D01*
X130565600Y-77238600D01*
G37*
G36*
X85919974Y-75952065D02*
G01*
X85957667Y-75963499D01*
X85992403Y-75982066D01*
X86022848Y-76007052D01*
X86047834Y-76037497D01*
X86066401Y-76072233D01*
X86077835Y-76109926D01*
X86082300Y-76155261D01*
X86082300Y-76991939D01*
X86077835Y-77037274D01*
X86066401Y-77074967D01*
X86047834Y-77109703D01*
X86022848Y-77140148D01*
X85992403Y-77165134D01*
X85957667Y-77183701D01*
X85919974Y-77195135D01*
X85874639Y-77199600D01*
X84787961Y-77199600D01*
X84742626Y-77195135D01*
X84704933Y-77183701D01*
X84670197Y-77165134D01*
X84639752Y-77140148D01*
X84614766Y-77109703D01*
X84596199Y-77074967D01*
X84584765Y-77037274D01*
X84580300Y-76991939D01*
X84580300Y-76155261D01*
X84584765Y-76109926D01*
X84596199Y-76072233D01*
X84614766Y-76037497D01*
X84639752Y-76007052D01*
X84670197Y-75982066D01*
X84704933Y-75963499D01*
X84742626Y-75952065D01*
X84787961Y-75947600D01*
X85874639Y-75947600D01*
X85919974Y-75952065D01*
G37*
G36*
X136237374Y-75596465D02*
G01*
X136275067Y-75607899D01*
X136309803Y-75626466D01*
X136340248Y-75651452D01*
X136365234Y-75681897D01*
X136383801Y-75716633D01*
X136395235Y-75754326D01*
X136399700Y-75799661D01*
X136399700Y-76636339D01*
X136395235Y-76681674D01*
X136383801Y-76719367D01*
X136365234Y-76754103D01*
X136340248Y-76784548D01*
X136309803Y-76809534D01*
X136275067Y-76828101D01*
X136237374Y-76839535D01*
X136192039Y-76844000D01*
X135105361Y-76844000D01*
X135060026Y-76839535D01*
X135022333Y-76828101D01*
X134987597Y-76809534D01*
X134957152Y-76784548D01*
X134932166Y-76754103D01*
X134913599Y-76719367D01*
X134902165Y-76681674D01*
X134897700Y-76636339D01*
X134897700Y-75799661D01*
X134902165Y-75754326D01*
X134913599Y-75716633D01*
X134932166Y-75681897D01*
X134957152Y-75651452D01*
X134987597Y-75626466D01*
X135022333Y-75607899D01*
X135060026Y-75596465D01*
X135105361Y-75592000D01*
X136192039Y-75592000D01*
X136237374Y-75596465D01*
G37*
G36*
X161637374Y-75019665D02*
G01*
X161675067Y-75031099D01*
X161709803Y-75049666D01*
X161740248Y-75074652D01*
X161765234Y-75105097D01*
X161783801Y-75139833D01*
X161795235Y-75177526D01*
X161799700Y-75222861D01*
X161799700Y-76059539D01*
X161795235Y-76104874D01*
X161783801Y-76142567D01*
X161765234Y-76177303D01*
X161740248Y-76207748D01*
X161709803Y-76232734D01*
X161675067Y-76251301D01*
X161637374Y-76262735D01*
X161592039Y-76267200D01*
X160505361Y-76267200D01*
X160460026Y-76262735D01*
X160422333Y-76251301D01*
X160387597Y-76232734D01*
X160357152Y-76207748D01*
X160332166Y-76177303D01*
X160313599Y-76142567D01*
X160302165Y-76104874D01*
X160297700Y-76059539D01*
X160297700Y-75222861D01*
X160302165Y-75177526D01*
X160313599Y-75139833D01*
X160332166Y-75105097D01*
X160357152Y-75074652D01*
X160387597Y-75049666D01*
X160422333Y-75031099D01*
X160460026Y-75019665D01*
X160505361Y-75015200D01*
X161592039Y-75015200D01*
X161637374Y-75019665D01*
G37*
G36*
X109389574Y-74897965D02*
G01*
X109427267Y-74909399D01*
X109462003Y-74927966D01*
X109492448Y-74952952D01*
X109517434Y-74983397D01*
X109536001Y-75018133D01*
X109547435Y-75055826D01*
X109551900Y-75101161D01*
X109551900Y-75937839D01*
X109547435Y-75983174D01*
X109536001Y-76020867D01*
X109517434Y-76055603D01*
X109492448Y-76086048D01*
X109462003Y-76111034D01*
X109427267Y-76129601D01*
X109389574Y-76141035D01*
X109344239Y-76145500D01*
X108257561Y-76145500D01*
X108212226Y-76141035D01*
X108174533Y-76129601D01*
X108139797Y-76111034D01*
X108109352Y-76086048D01*
X108084366Y-76055603D01*
X108065799Y-76020867D01*
X108054365Y-75983174D01*
X108049900Y-75937839D01*
X108049900Y-75101161D01*
X108054365Y-75055826D01*
X108065799Y-75018133D01*
X108084366Y-74983397D01*
X108109352Y-74952952D01*
X108139797Y-74927966D01*
X108174533Y-74909399D01*
X108212226Y-74897965D01*
X108257561Y-74893500D01*
X109344239Y-74893500D01*
X109389574Y-74897965D01*
G37*
G36*
X85919974Y-73902065D02*
G01*
X85957667Y-73913499D01*
X85992403Y-73932066D01*
X86022848Y-73957052D01*
X86047834Y-73987497D01*
X86066401Y-74022233D01*
X86077835Y-74059926D01*
X86082300Y-74105261D01*
X86082300Y-74941939D01*
X86077835Y-74987274D01*
X86066401Y-75024967D01*
X86047834Y-75059703D01*
X86022848Y-75090148D01*
X85992403Y-75115134D01*
X85957667Y-75133701D01*
X85919974Y-75145135D01*
X85874639Y-75149600D01*
X84787961Y-75149600D01*
X84742626Y-75145135D01*
X84704933Y-75133701D01*
X84670197Y-75115134D01*
X84639752Y-75090148D01*
X84614766Y-75059703D01*
X84596199Y-75024967D01*
X84584765Y-74987274D01*
X84580300Y-74941939D01*
X84580300Y-74105261D01*
X84584765Y-74059926D01*
X84596199Y-74022233D01*
X84614766Y-73987497D01*
X84639752Y-73957052D01*
X84670197Y-73932066D01*
X84704933Y-73913499D01*
X84742626Y-73902065D01*
X84787961Y-73897600D01*
X85874639Y-73897600D01*
X85919974Y-73902065D01*
G37*
G36*
X136237374Y-73546465D02*
G01*
X136275067Y-73557899D01*
X136309803Y-73576466D01*
X136340248Y-73601452D01*
X136365234Y-73631897D01*
X136383801Y-73666633D01*
X136395235Y-73704326D01*
X136399700Y-73749661D01*
X136399700Y-74586339D01*
X136395235Y-74631674D01*
X136383801Y-74669367D01*
X136365234Y-74704103D01*
X136340248Y-74734548D01*
X136309803Y-74759534D01*
X136275067Y-74778101D01*
X136237374Y-74789535D01*
X136192039Y-74794000D01*
X135105361Y-74794000D01*
X135060026Y-74789535D01*
X135022333Y-74778101D01*
X134987597Y-74759534D01*
X134957152Y-74734548D01*
X134932166Y-74704103D01*
X134913599Y-74669367D01*
X134902165Y-74631674D01*
X134897700Y-74586339D01*
X134897700Y-73749661D01*
X134902165Y-73704326D01*
X134913599Y-73666633D01*
X134932166Y-73631897D01*
X134957152Y-73601452D01*
X134987597Y-73576466D01*
X135022333Y-73557899D01*
X135060026Y-73546465D01*
X135105361Y-73542000D01*
X136192039Y-73542000D01*
X136237374Y-73546465D01*
G37*
G36*
X109389574Y-72847965D02*
G01*
X109427267Y-72859399D01*
X109462003Y-72877966D01*
X109492448Y-72902952D01*
X109517434Y-72933397D01*
X109536001Y-72968133D01*
X109547435Y-73005826D01*
X109551900Y-73051161D01*
X109551900Y-73887839D01*
X109547435Y-73933174D01*
X109536001Y-73970867D01*
X109517434Y-74005603D01*
X109492448Y-74036048D01*
X109462003Y-74061034D01*
X109427267Y-74079601D01*
X109389574Y-74091035D01*
X109344239Y-74095500D01*
X108257561Y-74095500D01*
X108212226Y-74091035D01*
X108174533Y-74079601D01*
X108139797Y-74061034D01*
X108109352Y-74036048D01*
X108084366Y-74005603D01*
X108065799Y-73970867D01*
X108054365Y-73933174D01*
X108049900Y-73887839D01*
X108049900Y-73051161D01*
X108054365Y-73005826D01*
X108065799Y-72968133D01*
X108084366Y-72933397D01*
X108109352Y-72902952D01*
X108139797Y-72877966D01*
X108174533Y-72859399D01*
X108212226Y-72847965D01*
X108257561Y-72843500D01*
X109344239Y-72843500D01*
X109389574Y-72847965D01*
G37*
G36*
X131180700Y-70032600D02*
G01*
X129828700Y-70032600D01*
X129828700Y-69130600D01*
X131180700Y-69130600D01*
X131180700Y-70032600D01*
G37*
G36*
X129530700Y-70032600D02*
G01*
X128178700Y-70032600D01*
X128178700Y-69130600D01*
X129530700Y-69130600D01*
X129530700Y-70032600D01*
G37*
G36*
X129530700Y-68232600D02*
G01*
X128178700Y-68232600D01*
X128178700Y-67330600D01*
X129530700Y-67330600D01*
X129530700Y-68232600D01*
G37*
G36*
X131180700Y-68232600D02*
G01*
X129828700Y-68232600D01*
X129828700Y-67330600D01*
X131180700Y-67330600D01*
X131180700Y-68232600D01*
G37*
G36*
X129359200Y-58092900D02*
G01*
X128007200Y-58092900D01*
X128007200Y-57190900D01*
X129359200Y-57190900D01*
X129359200Y-58092900D01*
G37*
G36*
X131009200Y-58092900D02*
G01*
X129657200Y-58092900D01*
X129657200Y-57190900D01*
X131009200Y-57190900D01*
X131009200Y-58092900D01*
G37*
G36*
X129359200Y-56292900D02*
G01*
X128007200Y-56292900D01*
X128007200Y-55390900D01*
X129359200Y-55390900D01*
X129359200Y-56292900D01*
G37*
G36*
X131009200Y-56292900D02*
G01*
X129657200Y-56292900D01*
X129657200Y-55390900D01*
X131009200Y-55390900D01*
X131009200Y-56292900D01*
G37*
G36*
X86135874Y-51720465D02*
G01*
X86173567Y-51731899D01*
X86208303Y-51750466D01*
X86238748Y-51775452D01*
X86263734Y-51805897D01*
X86282301Y-51840633D01*
X86293735Y-51878326D01*
X86298200Y-51923661D01*
X86298200Y-52760339D01*
X86293735Y-52805674D01*
X86282301Y-52843367D01*
X86263734Y-52878103D01*
X86238748Y-52908548D01*
X86208303Y-52933534D01*
X86173567Y-52952101D01*
X86135874Y-52963535D01*
X86090539Y-52968000D01*
X85003861Y-52968000D01*
X84958526Y-52963535D01*
X84920833Y-52952101D01*
X84886097Y-52933534D01*
X84855652Y-52908548D01*
X84830666Y-52878103D01*
X84812099Y-52843367D01*
X84800665Y-52805674D01*
X84796200Y-52760339D01*
X84796200Y-51923661D01*
X84800665Y-51878326D01*
X84812099Y-51840633D01*
X84830666Y-51805897D01*
X84855652Y-51775452D01*
X84886097Y-51750466D01*
X84920833Y-51731899D01*
X84958526Y-51720465D01*
X85003861Y-51716000D01*
X86090539Y-51716000D01*
X86135874Y-51720465D01*
G37*
G36*
X110850074Y-51593465D02*
G01*
X110887767Y-51604899D01*
X110922503Y-51623466D01*
X110952948Y-51648452D01*
X110977934Y-51678897D01*
X110996501Y-51713633D01*
X111007935Y-51751326D01*
X111012400Y-51796661D01*
X111012400Y-52633339D01*
X111007935Y-52678674D01*
X110996501Y-52716367D01*
X110977934Y-52751103D01*
X110952948Y-52781548D01*
X110922503Y-52806534D01*
X110887767Y-52825101D01*
X110850074Y-52836535D01*
X110804739Y-52841000D01*
X109718061Y-52841000D01*
X109672726Y-52836535D01*
X109635033Y-52825101D01*
X109600297Y-52806534D01*
X109569852Y-52781548D01*
X109544866Y-52751103D01*
X109526299Y-52716367D01*
X109514865Y-52678674D01*
X109510400Y-52633339D01*
X109510400Y-51796661D01*
X109514865Y-51751326D01*
X109526299Y-51713633D01*
X109544866Y-51678897D01*
X109569852Y-51648452D01*
X109600297Y-51623466D01*
X109635033Y-51604899D01*
X109672726Y-51593465D01*
X109718061Y-51589000D01*
X110804739Y-51589000D01*
X110850074Y-51593465D01*
G37*
G36*
X135843674Y-51314065D02*
G01*
X135881367Y-51325499D01*
X135916103Y-51344066D01*
X135946548Y-51369052D01*
X135971534Y-51399497D01*
X135990101Y-51434233D01*
X136001535Y-51471926D01*
X136006000Y-51517261D01*
X136006000Y-52353939D01*
X136001535Y-52399274D01*
X135990101Y-52436967D01*
X135971534Y-52471703D01*
X135946548Y-52502148D01*
X135916103Y-52527134D01*
X135881367Y-52545701D01*
X135843674Y-52557135D01*
X135798339Y-52561600D01*
X134711661Y-52561600D01*
X134666326Y-52557135D01*
X134628633Y-52545701D01*
X134593897Y-52527134D01*
X134563452Y-52502148D01*
X134538466Y-52471703D01*
X134519899Y-52436967D01*
X134508465Y-52399274D01*
X134504000Y-52353939D01*
X134504000Y-51517261D01*
X134508465Y-51471926D01*
X134519899Y-51434233D01*
X134538466Y-51399497D01*
X134563452Y-51369052D01*
X134593897Y-51344066D01*
X134628633Y-51325499D01*
X134666326Y-51314065D01*
X134711661Y-51309600D01*
X135798339Y-51309600D01*
X135843674Y-51314065D01*
G37*
G36*
X159414874Y-50234565D02*
G01*
X159452567Y-50245999D01*
X159487303Y-50264566D01*
X159517748Y-50289552D01*
X159542734Y-50319997D01*
X159561301Y-50354733D01*
X159572735Y-50392426D01*
X159577200Y-50437761D01*
X159577200Y-51274439D01*
X159572735Y-51319774D01*
X159561301Y-51357467D01*
X159542734Y-51392203D01*
X159517748Y-51422648D01*
X159487303Y-51447634D01*
X159452567Y-51466201D01*
X159414874Y-51477635D01*
X159369539Y-51482100D01*
X158282861Y-51482100D01*
X158237526Y-51477635D01*
X158199833Y-51466201D01*
X158165097Y-51447634D01*
X158134652Y-51422648D01*
X158109666Y-51392203D01*
X158091099Y-51357467D01*
X158079665Y-51319774D01*
X158075200Y-51274439D01*
X158075200Y-50437761D01*
X158079665Y-50392426D01*
X158091099Y-50354733D01*
X158109666Y-50319997D01*
X158134652Y-50289552D01*
X158165097Y-50264566D01*
X158199833Y-50245999D01*
X158237526Y-50234565D01*
X158282861Y-50230100D01*
X159369539Y-50230100D01*
X159414874Y-50234565D01*
G37*
G36*
X86135874Y-49670465D02*
G01*
X86173567Y-49681899D01*
X86208303Y-49700466D01*
X86238748Y-49725452D01*
X86263734Y-49755897D01*
X86282301Y-49790633D01*
X86293735Y-49828326D01*
X86298200Y-49873661D01*
X86298200Y-50710339D01*
X86293735Y-50755674D01*
X86282301Y-50793367D01*
X86263734Y-50828103D01*
X86238748Y-50858548D01*
X86208303Y-50883534D01*
X86173567Y-50902101D01*
X86135874Y-50913535D01*
X86090539Y-50918000D01*
X85003861Y-50918000D01*
X84958526Y-50913535D01*
X84920833Y-50902101D01*
X84886097Y-50883534D01*
X84855652Y-50858548D01*
X84830666Y-50828103D01*
X84812099Y-50793367D01*
X84800665Y-50755674D01*
X84796200Y-50710339D01*
X84796200Y-49873661D01*
X84800665Y-49828326D01*
X84812099Y-49790633D01*
X84830666Y-49755897D01*
X84855652Y-49725452D01*
X84886097Y-49700466D01*
X84920833Y-49681899D01*
X84958526Y-49670465D01*
X85003861Y-49666000D01*
X86090539Y-49666000D01*
X86135874Y-49670465D01*
G37*
G36*
X110850074Y-49543465D02*
G01*
X110887767Y-49554899D01*
X110922503Y-49573466D01*
X110952948Y-49598452D01*
X110977934Y-49628897D01*
X110996501Y-49663633D01*
X111007935Y-49701326D01*
X111012400Y-49746661D01*
X111012400Y-50583339D01*
X111007935Y-50628674D01*
X110996501Y-50666367D01*
X110977934Y-50701103D01*
X110952948Y-50731548D01*
X110922503Y-50756534D01*
X110887767Y-50775101D01*
X110850074Y-50786535D01*
X110804739Y-50791000D01*
X109718061Y-50791000D01*
X109672726Y-50786535D01*
X109635033Y-50775101D01*
X109600297Y-50756534D01*
X109569852Y-50731548D01*
X109544866Y-50701103D01*
X109526299Y-50666367D01*
X109514865Y-50628674D01*
X109510400Y-50583339D01*
X109510400Y-49746661D01*
X109514865Y-49701326D01*
X109526299Y-49663633D01*
X109544866Y-49628897D01*
X109569852Y-49598452D01*
X109600297Y-49573466D01*
X109635033Y-49554899D01*
X109672726Y-49543465D01*
X109718061Y-49539000D01*
X110804739Y-49539000D01*
X110850074Y-49543465D01*
G37*
G36*
X135843674Y-49264065D02*
G01*
X135881367Y-49275499D01*
X135916103Y-49294066D01*
X135946548Y-49319052D01*
X135971534Y-49349497D01*
X135990101Y-49384233D01*
X136001535Y-49421926D01*
X136006000Y-49467261D01*
X136006000Y-50303939D01*
X136001535Y-50349274D01*
X135990101Y-50386967D01*
X135971534Y-50421703D01*
X135946548Y-50452148D01*
X135916103Y-50477134D01*
X135881367Y-50495701D01*
X135843674Y-50507135D01*
X135798339Y-50511600D01*
X134711661Y-50511600D01*
X134666326Y-50507135D01*
X134628633Y-50495701D01*
X134593897Y-50477134D01*
X134563452Y-50452148D01*
X134538466Y-50421703D01*
X134519899Y-50386967D01*
X134508465Y-50349274D01*
X134504000Y-50303939D01*
X134504000Y-49467261D01*
X134508465Y-49421926D01*
X134519899Y-49384233D01*
X134538466Y-49349497D01*
X134563452Y-49319052D01*
X134593897Y-49294066D01*
X134628633Y-49275499D01*
X134666326Y-49264065D01*
X134711661Y-49259600D01*
X135798339Y-49259600D01*
X135843674Y-49264065D01*
G37*
G36*
X159414874Y-48184565D02*
G01*
X159452567Y-48195999D01*
X159487303Y-48214566D01*
X159517748Y-48239552D01*
X159542734Y-48269997D01*
X159561301Y-48304733D01*
X159572735Y-48342426D01*
X159577200Y-48387761D01*
X159577200Y-49224439D01*
X159572735Y-49269774D01*
X159561301Y-49307467D01*
X159542734Y-49342203D01*
X159517748Y-49372648D01*
X159487303Y-49397634D01*
X159452567Y-49416201D01*
X159414874Y-49427635D01*
X159369539Y-49432100D01*
X158282861Y-49432100D01*
X158237526Y-49427635D01*
X158199833Y-49416201D01*
X158165097Y-49397634D01*
X158134652Y-49372648D01*
X158109666Y-49342203D01*
X158091099Y-49307467D01*
X158079665Y-49269774D01*
X158075200Y-49224439D01*
X158075200Y-48387761D01*
X158079665Y-48342426D01*
X158091099Y-48304733D01*
X158109666Y-48269997D01*
X158134652Y-48239552D01*
X158165097Y-48214566D01*
X158199833Y-48195999D01*
X158237526Y-48184565D01*
X158282861Y-48180100D01*
X159369539Y-48180100D01*
X159414874Y-48184565D01*
G37*
G36*
X131301400Y-44837500D02*
G01*
X129949400Y-44837500D01*
X129949400Y-43935500D01*
X131301400Y-43935500D01*
X131301400Y-44837500D01*
G37*
G36*
X129651400Y-44837500D02*
G01*
X128299400Y-44837500D01*
X128299400Y-43935500D01*
X129651400Y-43935500D01*
X129651400Y-44837500D01*
G37*
G36*
X131301400Y-43037500D02*
G01*
X129949400Y-43037500D01*
X129949400Y-42135500D01*
X131301400Y-42135500D01*
X131301400Y-43037500D01*
G37*
G36*
X129651400Y-43037500D02*
G01*
X128299400Y-43037500D01*
X128299400Y-42135500D01*
X129651400Y-42135500D01*
X129651400Y-43037500D01*
G37*
G36*
X170375256Y-24709498D02*
G01*
X170481579Y-24730647D01*
X170782042Y-24855103D01*
X171052451Y-25035785D01*
X171282415Y-25265749D01*
X171463097Y-25536158D01*
X171587553Y-25836621D01*
X171651000Y-26155591D01*
X171651000Y-26480809D01*
X171587553Y-26799779D01*
X171463097Y-27100242D01*
X171282415Y-27370651D01*
X171052451Y-27600615D01*
X170782042Y-27781297D01*
X170481579Y-27905753D01*
X170375256Y-27926902D01*
X170162611Y-27969200D01*
X169837389Y-27969200D01*
X169624744Y-27926902D01*
X169518421Y-27905753D01*
X169217958Y-27781297D01*
X168947549Y-27600615D01*
X168717585Y-27370651D01*
X168536903Y-27100242D01*
X168412447Y-26799779D01*
X168349000Y-26480809D01*
X168349000Y-26155591D01*
X168412447Y-25836621D01*
X168536903Y-25536158D01*
X168717585Y-25265749D01*
X168947549Y-25035785D01*
X169217958Y-24855103D01*
X169518421Y-24730647D01*
X169624744Y-24709498D01*
X169837389Y-24667200D01*
X170162611Y-24667200D01*
X170375256Y-24709498D01*
G37*
G36*
X90375256Y-24709498D02*
G01*
X90481579Y-24730647D01*
X90782042Y-24855103D01*
X91052451Y-25035785D01*
X91282415Y-25265749D01*
X91463097Y-25536158D01*
X91587553Y-25836621D01*
X91651000Y-26155591D01*
X91651000Y-26480809D01*
X91587553Y-26799779D01*
X91463097Y-27100242D01*
X91282415Y-27370651D01*
X91052451Y-27600615D01*
X90782042Y-27781297D01*
X90481579Y-27905753D01*
X90375256Y-27926902D01*
X90162611Y-27969200D01*
X89837389Y-27969200D01*
X89624744Y-27926902D01*
X89518421Y-27905753D01*
X89217958Y-27781297D01*
X88947549Y-27600615D01*
X88717585Y-27370651D01*
X88536903Y-27100242D01*
X88412447Y-26799779D01*
X88349000Y-26480809D01*
X88349000Y-26155591D01*
X88412447Y-25836621D01*
X88536903Y-25536158D01*
X88717585Y-25265749D01*
X88947549Y-25035785D01*
X89217958Y-24855103D01*
X89518421Y-24730647D01*
X89624744Y-24709498D01*
X89837389Y-24667200D01*
X90162611Y-24667200D01*
X90375256Y-24709498D01*
G37*
M02*
