M48
; DRILL file {KiCad (5.1.5)-3} date 7/3/2020 9:40:08 PM
; FORMAT={-:-/ absolute / inch / decimal}
; #@! TF.CreationDate,2020-07-03T21:40:08-07:00
; #@! TF.GenerationSoftware,Kicad,Pcbnew,(5.1.5)-3
; #@! TF.FileFunction,Plated,1,2,PTH
FMAT,2
INCH
T1C0.0157
T2C0.0512
%
G90
G05
T1
X3.2315Y-1.3305
X3.2745Y-2.4895
X3.275Y-3.1305
X3.277Y-3.085
X3.2775Y-1.6375
X3.2785Y-1.9435
X3.466Y-3.038
X3.4875Y-2.994
X3.5015Y-2.615
X3.507Y-1.645
X3.509Y-1.7895
X3.559Y-1.436
X3.6355Y-1.573
X3.6365Y-2.557
X3.638Y-2.7325
X3.6425Y-1.8815
X3.7Y-2.0465
X3.735Y-2.12
X3.7575Y-1.643
X3.7605Y-2.6445
X3.766Y-2.428
X3.776Y-2.7895
X3.794Y-1.3875
X3.8735Y-1.529
X3.9215Y-2.903
X3.922Y-1.426
X3.9225Y-2.5635
X3.923Y-2.9675
X3.9375Y-2.005
X3.9725Y-1.3865
X3.981Y-3.1135
X4.0155Y-3.0455
X4.05Y-1.448
X4.051Y-2.902
X4.059Y-3.0835
X4.0675Y-2.0045
X4.084Y-2.965
X4.2135Y-3.006
X4.226Y-2.141
X4.2545Y-3.034
X4.288Y-2.565
X4.2905Y-1.5275
X4.367Y-2.938
X4.4515Y-3.1145
X4.455Y-2.0965
X4.468Y-1.792
X4.4715Y-2.6515
X4.4845Y-2.431
X4.4865Y-2.2095
X4.487Y-2.3215
X4.49Y-1.7045
X4.5138Y-1.446
X4.6035Y-2.551
X4.6045Y-1.5735
X4.608Y-1.71
X4.613Y-2.7455
X4.646Y-3.1675
X4.6496Y-1.419
X4.74Y-2.7915
X4.7425Y-2.65
X4.743Y-1.681
X4.848Y-3.117
X4.8485Y-2.926
X4.866Y-2.869
X4.8995Y-2.942
X4.9005Y-2.4635
X4.9005Y-3.033
X4.9155Y-1.6875
X4.9315Y-2.5505
X4.933Y-2.995
X4.963Y-2.589
X4.968Y-2.142
X5.002Y-3.0845
X5.019Y-2.943
X5.0245Y-1.419
X5.0355Y-2.145
X5.0495Y-2.336
X5.057Y-2.8195
X5.0575Y-2.589
X5.0805Y-2.3715
X5.0835Y-2.0965
X5.09Y-2.7845
X5.0905Y-2.5505
X5.114Y-1.905
X5.1155Y-2.325
X5.121Y-2.822
X5.1305Y-2.5385
X5.145Y-2.116
X5.146Y-2.364
X5.1525Y-2.7965
X5.153Y-2.581
X5.1845Y-1.423
X5.2505Y-2.4515
X5.2515Y-2.908
X5.258Y-1.797
X5.2735Y-3.0825
X5.2735Y-3.171
X5.28Y-2.5375
X5.3085Y-2.7835
X5.32Y-2.5817
X5.3215Y-1.333
X5.325Y-1.905
X5.4385Y-3.145
X5.465Y-1.788
X5.4685Y-2.6625
X5.476Y-1.636
X5.5975Y-2.867
X5.6015Y-1.713
X5.604Y-1.5775
X5.604Y-2.5445
X5.6065Y-2.732
X5.6823Y-1.4318
X5.725Y-2.4275
X5.7335Y-1.636
X5.7385Y-2.6565
X5.901Y-2.7955
X5.9605Y-2.984
X6.1715Y-3.1425
X6.1755Y-2.9375
X6.2355Y-2.4515
X6.2355Y-3.0825
X6.2545Y-1.8505
X6.269Y-2.9835
X6.2765Y-2.8165
X6.2945Y-2.898
X6.4265Y-2.674
X6.43Y-1.637
X6.4395Y-1.7865
X6.4435Y-2.7965
X6.488Y-1.4344
X6.495Y-1.333
X6.526Y-1.5705
X6.571Y-1.5645
X6.5715Y-2.5505
X6.6415Y-1.305
X6.642Y-1.7095
X6.6965Y-2.4285
X6.699Y-2.65
X6.7092Y-2.7966
T2
X3.2695Y-3.381
X3.4664Y-3.381
X3.6632Y-3.381
X3.8601Y-3.381
X4.0569Y-3.381
X4.2538Y-3.381
X4.4506Y-3.381
X4.6475Y-3.381
X4.8443Y-3.381
X5.0412Y-3.381
X5.238Y-3.381
X5.4349Y-3.381
T0
M30
